<svg class="write-page" width="982px" height="3855px" xmlns="http://www.w3.org/2000/svg" xmlns:xlink="http://www.w3.org/1999/xlink">
  <g class="write-content write-v3" width="982" height="3855" xruling="30" yruling="30" marginLeft="30" papercolor="#FFFFFF" rulecolor="#7F0000FF">
    <g class="ruleline write-std-ruling write-scale-down" fill="none" stroke="#0000FF" stroke-opacity="0.498" stroke-width="1" shape-rendering="crispEdges" vector-effect="non-scaling-stroke">
      <rect class="pagerect" fill="#FFFFFF" stroke="none" x="0" y="0" width="982" height="3855" />
      <path class="yrule_1" d="M0 30 l982 0" />
      <path d="M0 60 l982 0" />
      <path d="M0 90 l982 0" />
      <path d="M0 120 l982 0" />
      <path d="M0 150 l982 0" />
      <path d="M0 180 l982 0" />
      <path d="M0 210 l982 0" />
      <path d="M0 240 l982 0" />
      <path d="M0 270 l982 0" />
      <path d="M0 300 l982 0" />
      <path d="M0 330 l982 0" />
      <path d="M0 360 l982 0" />
      <path d="M0 390 l982 0" />
      <path d="M0 420 l982 0" />
      <path d="M0 450 l982 0" />
      <path d="M0 480 l982 0" />
      <path d="M0 510 l982 0" />
      <path d="M0 540 l982 0" />
      <path d="M0 570 l982 0" />
      <path d="M0 600 l982 0" />
      <path d="M0 630 l982 0" />
      <path d="M0 660 l982 0" />
      <path d="M0 690 l982 0" />
      <path d="M0 720 l982 0" />
      <path d="M0 750 l982 0" />
      <path d="M0 780 l982 0" />
      <path d="M0 810 l982 0" />
      <path d="M0 840 l982 0" />
      <path d="M0 870 l982 0" />
      <path d="M0 900 l982 0" />
      <path d="M0 930 l982 0" />
      <path d="M0 960 l982 0" />
      <path d="M0 990 l982 0" />
      <path d="M0 1020 l982 0" />
      <path d="M0 1050 l982 0" />
      <path d="M0 1080 l982 0" />
      <path d="M0 1110 l982 0" />
      <path d="M0 1140 l982 0" />
      <path d="M0 1170 l982 0" />
      <path d="M0 1200 l982 0" />
      <path d="M0 1230 l982 0" />
      <path d="M0 1260 l982 0" />
      <path d="M0 1290 l982 0" />
      <path d="M0 1320 l982 0" />
      <path d="M0 1350 l982 0" />
      <path d="M0 1380 l982 0" />
      <path d="M0 1410 l982 0" />
      <path d="M0 1440 l982 0" />
      <path d="M0 1470 l982 0" />
      <path d="M0 1500 l982 0" />
      <path d="M0 1530 l982 0" />
      <path d="M0 1560 l982 0" />
      <path d="M0 1590 l982 0" />
      <path d="M0 1620 l982 0" />
      <path d="M0 1650 l982 0" />
      <path d="M0 1680 l982 0" />
      <path d="M0 1710 l982 0" />
      <path d="M0 1740 l982 0" />
      <path d="M0 1770 l982 0" />
      <path d="M0 1800 l982 0" />
      <path d="M0 1830 l982 0" />
      <path d="M0 1860 l982 0" />
      <path d="M0 1890 l982 0" />
      <path d="M0 1920 l982 0" />
      <path d="M0 1950 l982 0" />
      <path d="M0 1980 l982 0" />
      <path d="M0 2010 l982 0" />
      <path d="M0 2040 l982 0" />
      <path d="M0 2070 l982 0" />
      <path d="M0 2100 l982 0" />
      <path d="M0 2130 l982 0" />
      <path d="M0 2160 l982 0" />
      <path d="M0 2190 l982 0" />
      <path d="M0 2220 l982 0" />
      <path d="M0 2250 l982 0" />
      <path d="M0 2280 l982 0" />
      <path d="M0 2310 l982 0" />
      <path d="M0 2340 l982 0" />
      <path d="M0 2370 l982 0" />
      <path d="M0 2400 l982 0" />
      <path d="M0 2430 l982 0" />
      <path d="M0 2460 l982 0" />
      <path d="M0 2490 l982 0" />
      <path d="M0 2520 l982 0" />
      <path d="M0 2550 l982 0" />
      <path d="M0 2580 l982 0" />
      <path d="M0 2610 l982 0" />
      <path d="M0 2640 l982 0" />
      <path d="M0 2670 l982 0" />
      <path d="M0 2700 l982 0" />
      <path d="M0 2730 l982 0" />
      <path d="M0 2760 l982 0" />
      <path d="M0 2790 l982 0" />
      <path d="M0 2820 l982 0" />
      <path d="M0 2850 l982 0" />
      <path d="M0 2880 l982 0" />
      <path d="M0 2910 l982 0" />
      <path d="M0 2940 l982 0" />
      <path d="M0 2970 l982 0" />
      <path d="M0 3000 l982 0" />
      <path d="M0 3030 l982 0" />
      <path d="M0 3060 l982 0" />
      <path d="M0 3090 l982 0" />
      <path d="M0 3120 l982 0" />
      <path d="M0 3150 l982 0" />
      <path d="M0 3180 l982 0" />
      <path d="M0 3210 l982 0" />
      <path d="M0 3240 l982 0" />
      <path d="M0 3270 l982 0" />
      <path d="M0 3300 l982 0" />
      <path d="M0 3330 l982 0" />
      <path d="M0 3360 l982 0" />
      <path d="M0 3390 l982 0" />
      <path d="M0 3420 l982 0" />
      <path d="M0 3450 l982 0" />
      <path d="M0 3480 l982 0" />
      <path d="M0 3510 l982 0" />
      <path d="M0 3540 l982 0" />
      <path d="M0 3570 l982 0" />
      <path d="M0 3600 l982 0" />
      <path d="M0 3630 l982 0" />
      <path d="M0 3660 l982 0" />
      <path d="M0 3690 l982 0" />
      <path d="M0 3720 l982 0" />
      <path d="M0 3750 l982 0" />
      <path d="M0 3780 l982 0" />
      <path d="M0 3810 l982 0" />
      <path d="M0 3840 l982 0" />
      <path class="xrule_1" d="M30 0 l0 3855" />
      <path d="M60 0 l0 3855" />
      <path d="M90 0 l0 3855" />
      <path d="M120 0 l0 3855" />
      <path d="M150 0 l0 3855" />
      <path d="M180 0 l0 3855" />
      <path d="M210 0 l0 3855" />
      <path d="M240 0 l0 3855" />
      <path d="M270 0 l0 3855" />
      <path d="M300 0 l0 3855" />
      <path d="M330 0 l0 3855" />
      <path d="M360 0 l0 3855" />
      <path d="M390 0 l0 3855" />
      <path d="M420 0 l0 3855" />
      <path d="M450 0 l0 3855" />
      <path d="M480 0 l0 3855" />
      <path d="M510 0 l0 3855" />
      <path d="M540 0 l0 3855" />
      <path d="M570 0 l0 3855" />
      <path d="M600 0 l0 3855" />
      <path d="M630 0 l0 3855" />
      <path d="M660 0 l0 3855" />
      <path d="M690 0 l0 3855" />
      <path d="M720 0 l0 3855" />
      <path d="M750 0 l0 3855" />
      <path d="M780 0 l0 3855" />
      <path d="M810 0 l0 3855" />
      <path d="M840 0 l0 3855" />
      <path d="M870 0 l0 3855" />
      <path d="M900 0 l0 3855" />
      <path d="M930 0 l0 3855" />
      <path d="M960 0 l0 3855" />
      <path class="leftmargin" stroke="#FF0000" d="M30 0 l0 3855" />
    </g>
  </g>
</svg>
