<svg class="write-page" color-interpolation="linearRGB" width="982px" height="1584px" xmlns="http://www.w3.org/2000/svg" xmlns:xlink="http://www.w3.org/1999/xlink">
  <g class="write-content write-v3" width="982" height="1584" xruling="30" yruling="30" marginLeft="30" papercolor="#000000" rulecolor="#0D9D00FF">
    <g class="ruleline write-std-ruling write-scale-down" fill="none" stroke="#9D00FF" stroke-opacity="0.051" stroke-width="1" shape-rendering="crispEdges" vector-effect="non-scaling-stroke">
      <rect class="pagerect" fill="#000000" stroke="none" x="0" y="0" width="982" height="1584" />
      <path class="yrule_1" d="M0 30 l982 0" />
      <path d="M0 60 l982 0" />
      <path d="M0 90 l982 0" />
      <path d="M0 120 l982 0" />
      <path d="M0 150 l982 0" />
      <path d="M0 180 l982 0" />
      <path d="M0 210 l982 0" />
      <path d="M0 240 l982 0" />
      <path d="M0 270 l982 0" />
      <path d="M0 300 l982 0" />
      <path d="M0 330 l982 0" />
      <path d="M0 360 l982 0" />
      <path d="M0 390 l982 0" />
      <path d="M0 420 l982 0" />
      <path d="M0 450 l982 0" />
      <path d="M0 480 l982 0" />
      <path d="M0 510 l982 0" />
      <path d="M0 540 l982 0" />
      <path d="M0 570 l982 0" />
      <path d="M0 600 l982 0" />
      <path d="M0 630 l982 0" />
      <path d="M0 660 l982 0" />
      <path d="M0 690 l982 0" />
      <path d="M0 720 l982 0" />
      <path d="M0 750 l982 0" />
      <path d="M0 780 l982 0" />
      <path d="M0 810 l982 0" />
      <path d="M0 840 l982 0" />
      <path d="M0 870 l982 0" />
      <path d="M0 900 l982 0" />
      <path d="M0 930 l982 0" />
      <path d="M0 960 l982 0" />
      <path d="M0 990 l982 0" />
      <path d="M0 1020 l982 0" />
      <path d="M0 1050 l982 0" />
      <path d="M0 1080 l982 0" />
      <path d="M0 1110 l982 0" />
      <path d="M0 1140 l982 0" />
      <path d="M0 1170 l982 0" />
      <path d="M0 1200 l982 0" />
      <path d="M0 1230 l982 0" />
      <path d="M0 1260 l982 0" />
      <path d="M0 1290 l982 0" />
      <path d="M0 1320 l982 0" />
      <path d="M0 1350 l982 0" />
      <path d="M0 1380 l982 0" />
      <path d="M0 1410 l982 0" />
      <path d="M0 1440 l982 0" />
      <path d="M0 1470 l982 0" />
      <path d="M0 1500 l982 0" />
      <path d="M0 1530 l982 0" />
      <path d="M0 1560 l982 0" />
      <path class="xrule_1" d="M30 0 l0 1584" />
      <path d="M60 0 l0 1584" />
      <path d="M90 0 l0 1584" />
      <path d="M120 0 l0 1584" />
      <path d="M150 0 l0 1584" />
      <path d="M180 0 l0 1584" />
      <path d="M210 0 l0 1584" />
      <path d="M240 0 l0 1584" />
      <path d="M270 0 l0 1584" />
      <path d="M300 0 l0 1584" />
      <path d="M330 0 l0 1584" />
      <path d="M360 0 l0 1584" />
      <path d="M390 0 l0 1584" />
      <path d="M420 0 l0 1584" />
      <path d="M450 0 l0 1584" />
      <path d="M480 0 l0 1584" />
      <path d="M510 0 l0 1584" />
      <path d="M540 0 l0 1584" />
      <path d="M570 0 l0 1584" />
      <path d="M600 0 l0 1584" />
      <path d="M630 0 l0 1584" />
      <path d="M660 0 l0 1584" />
      <path d="M690 0 l0 1584" />
      <path d="M720 0 l0 1584" />
      <path d="M750 0 l0 1584" />
      <path d="M780 0 l0 1584" />
      <path d="M810 0 l0 1584" />
      <path d="M840 0 l0 1584" />
      <path d="M870 0 l0 1584" />
      <path d="M900 0 l0 1584" />
      <path d="M930 0 l0 1584" />
      <path d="M960 0 l0 1584" />
      <path class="leftmargin" stroke="#FF0000" d="M30 0 l0 1584" />
    </g>
  </g>
</svg>
