<svg class="write-page" color-interpolation="linearRGB" width="1010px" height="1628px" xmlns="http://www.w3.org/2000/svg" xmlns:xlink="http://www.w3.org/1999/xlink">
  <g class="write-content write-v3" width="1010" height="1628" xruling="30" yruling="30" marginLeft="30" papercolor="#1B1C1C" rulecolor="#3A00F9FF">
    <g class="ruleline write-std-ruling write-scale-down" fill="none" stroke="#00F9FF" stroke-opacity="0.227" stroke-width="1" shape-rendering="crispEdges" vector-effect="non-scaling-stroke">
      <rect class="pagerect" fill="#1B1C1C" stroke="none" x="0" y="0" width="1010" height="1628" />
      <path class="yrule_1" d="M0 30 l1010 0" />
      <path d="M0 60 l1010 0" />
      <path d="M0 90 l1010 0" />
      <path d="M0 120 l1010 0" />
      <path d="M0 150 l1010 0" />
      <path d="M0 180 l1010 0" />
      <path d="M0 210 l1010 0" />
      <path d="M0 240 l1010 0" />
      <path d="M0 270 l1010 0" />
      <path d="M0 300 l1010 0" />
      <path d="M0 330 l1010 0" />
      <path d="M0 360 l1010 0" />
      <path d="M0 390 l1010 0" />
      <path d="M0 420 l1010 0" />
      <path d="M0 450 l1010 0" />
      <path d="M0 480 l1010 0" />
      <path d="M0 510 l1010 0" />
      <path d="M0 540 l1010 0" />
      <path d="M0 570 l1010 0" />
      <path d="M0 600 l1010 0" />
      <path d="M0 630 l1010 0" />
      <path d="M0 660 l1010 0" />
      <path d="M0 690 l1010 0" />
      <path d="M0 720 l1010 0" />
      <path d="M0 750 l1010 0" />
      <path d="M0 780 l1010 0" />
      <path d="M0 810 l1010 0" />
      <path d="M0 840 l1010 0" />
      <path d="M0 870 l1010 0" />
      <path d="M0 900 l1010 0" />
      <path d="M0 930 l1010 0" />
      <path d="M0 960 l1010 0" />
      <path d="M0 990 l1010 0" />
      <path d="M0 1020 l1010 0" />
      <path d="M0 1050 l1010 0" />
      <path d="M0 1080 l1010 0" />
      <path d="M0 1110 l1010 0" />
      <path d="M0 1140 l1010 0" />
      <path d="M0 1170 l1010 0" />
      <path d="M0 1200 l1010 0" />
      <path d="M0 1230 l1010 0" />
      <path d="M0 1260 l1010 0" />
      <path d="M0 1290 l1010 0" />
      <path d="M0 1320 l1010 0" />
      <path d="M0 1350 l1010 0" />
      <path d="M0 1380 l1010 0" />
      <path d="M0 1410 l1010 0" />
      <path d="M0 1440 l1010 0" />
      <path d="M0 1470 l1010 0" />
      <path d="M0 1500 l1010 0" />
      <path d="M0 1530 l1010 0" />
      <path d="M0 1560 l1010 0" />
      <path d="M0 1590 l1010 0" />
      <path d="M0 1620 l1010 0" />
      <path class="xrule_1" d="M30 0 l0 1628" />
      <path d="M60 0 l0 1628" />
      <path d="M90 0 l0 1628" />
      <path d="M120 0 l0 1628" />
      <path d="M150 0 l0 1628" />
      <path d="M180 0 l0 1628" />
      <path d="M210 0 l0 1628" />
      <path d="M240 0 l0 1628" />
      <path d="M270 0 l0 1628" />
      <path d="M300 0 l0 1628" />
      <path d="M330 0 l0 1628" />
      <path d="M360 0 l0 1628" />
      <path d="M390 0 l0 1628" />
      <path d="M420 0 l0 1628" />
      <path d="M450 0 l0 1628" />
      <path d="M480 0 l0 1628" />
      <path d="M510 0 l0 1628" />
      <path d="M540 0 l0 1628" />
      <path d="M570 0 l0 1628" />
      <path d="M600 0 l0 1628" />
      <path d="M630 0 l0 1628" />
      <path d="M660 0 l0 1628" />
      <path d="M690 0 l0 1628" />
      <path d="M720 0 l0 1628" />
      <path d="M750 0 l0 1628" />
      <path d="M780 0 l0 1628" />
      <path d="M810 0 l0 1628" />
      <path d="M840 0 l0 1628" />
      <path d="M870 0 l0 1628" />
      <path d="M900 0 l0 1628" />
      <path d="M930 0 l0 1628" />
      <path d="M960 0 l0 1628" />
      <path d="M990 0 l0 1628" />
      <path class="leftmargin" stroke="#FF0000" d="M30 0 l0 1628" />
    </g>
    <path class="write-flat-pen" fill="#FFFFFF" stroke-width="1.6" __comx="203.865" __comy="135.85" __timestamp="0x1785168abc5" d="M188.031 138.764 l4.518 -0.44 0.852 -0.063 6.775 -1.213 7.574 -2.591 4.352 -2.311 0.618 -1.112 0 0 -0.245 -0.78 -1.181 -0.59 -5.651 1.008 -6.109 2.178 -4.167 2.493 -2.488 2.538 -1.067 2.334 0.041 2.152 1.157 2.343 2.211 2.02 3.722 1.615 5.708 0.869 9.472 -0.458 0.821 -0.177 0.707 -0.174 4.102 -1.006 -0.015 -0.092 -4.209 0.357 -0.722 0.06 -0.773 0.072 -9.3 0.069 -5.413 -0.837 -3.357 -1.452 -1.868 -1.69 -0.933 -1.846 -0.047 -1.562 0.831 -1.871 2.198 -2.284 3.91 -2.378 5.891 -2.143 5.179 -0.95 0.846 0.415 -0.245 -0.78 0 0 -0.445 0.828 -3.968 2.145 -7.393 2.635 -6.634 1.36 -0.828 0.093 -4.481 0.841" />
    <path class="write-flat-pen" fill="#FFFFFF" stroke-width="1.6" __comx="235.595" __comy="104.501" __timestamp="0x1785168ad1d" d="M226.197 101.507 l2.685 2.345 0.497 0.56 9.106 12.94 2.878 2.668 3.58 1.793 0.05 -0.078 -3.031 -2.463 -2.555 -2.706 -9.254 -12.789 -0.623 -0.636 -2.989 -2.077" />
    <path class="write-flat-pen" fill="#FFFFFF" stroke-width="1.6" __comx="235.656" __comy="104.501" __timestamp="0x1785168adea" d="M228.559 114.633 l2.173 -1.653 0.467 -0.39 8.939 -7.679 2.944 -3.067 -0.065 -0.071 -3.322 2.631 -9.112 7.472 -0.453 0.425 -1.901 1.961" />
    <path class="write-flat-pen" fill="#FFFFFF" stroke-width="1.6" __comx="253.723" __comy="104.501" __timestamp="0x1785168af99" d="M246.592 84.826 l2.906 -1.787 0.274 -0.113 2.23 -0.681 1.605 0.182 0.807 0.758 0.245 1.764 -2.1 5.175 0.292 1.552 4.701 2.925 3.514 1.611 0.056 -0.098 -3.135 -2.215 -4.078 -2.933 -0.171 -0.736 2.011 -5.153 -0.362 -2.407 -1.342 -1.222 -2.151 -0.201 -2.449 0.83 -0.39 0.183 -2.737 2.179" />
    <path class="write-flat-pen" fill="#FFFFFF" stroke-width="1.6" __comx="271.25" __comy="104.501" __timestamp="0x1785168b084" d="M264.413 104.216 l9.488 0.571 4.184 -0.225 0.002 -0.08 -4.159 -0.388 -9.477 -0.537" />
    <path class="write-flat-pen" fill="#FFFFFF" stroke-width="1.6" __comx="272.348" __comy="104.501" __timestamp="0x1785168b13a" d="M270.526 98.554 l1.971 14.37 1.628 3.839 0.045 -0.015 -0.961 -3.99 -1.985 -14.301" />
    <path class="write-flat-pen" fill="#FFFFFF" stroke-width="1.6" __comx="291.102" __comy="104.501" __timestamp="0x1785168b20a" d="M290.831 96.496 l-0.24 16.537 0.228 4.171 0.179 0.002 0.301 -4.164 0.314 -16.533" />
    <path class="write-flat-pen" fill="#FFFFFF" stroke-width="1.6" __comx="346.568" __comy="126.177" __timestamp="0x1785168b495" d="M338.632 124.891 l11.789 2.559 4.065 0.849 0.018 -0.066 -3.949 -1.33 -11.792 -2.608" />
    <path class="write-flat-pen" fill="#FFFFFF" stroke-width="1.6" __comx="351.84" __comy="126.177" __timestamp="0x1785168b555" d="M344.114 136.508 l-0.326 0.52 12.039 1.208 4.058 0.389 0.008 -0.055 -4.015 -0.75 -12.032 -1.337 0.219 0.57" />
    <path class="write-flat-pen" fill="#FFFFFF" stroke-width="1.6" __comx="386.442" __comy="126.177" __timestamp="0x1785168b706" d="M378.215 140.81 l2.555 0.411 0.449 -0.045 3.104 -1.123 2.619 -2.065 1.219 -2.064 -0.325 -1.936 -1.464 -0.864 -3.046 -0.102 -3.801 1.085 -2.354 1.572 -1.752 2.455 -0.435 2.269 0.903 2.212 1.786 1.339 3.501 0.887 4.341 -0.259 7.823 -2.243 0.732 -0.314 3.827 -1.643 -0.03 -0.087 -4.015 1.104 -0.738 0.201 -7.778 1.842 -4.048 0.219 -3.103 -0.781 -1.348 -1.003 -0.663 -1.597 0.316 -1.693 1.477 -2.094 2.033 -1.368 3.464 -0.992 2.59 0.085 0.783 0.459 0.184 1.04 -0.892 1.575 -2.292 1.928 -2.812 1.211 -0.275 0.053 -2.51 0.001" />
    <path class="write-flat-pen" fill="#FFFFFF" stroke-width="1.6" __comx="408.386" __comy="126.177" __timestamp="0x1785168ba24" d="M403.625 103.651 l-0.015 -0.526 2.157 -1.16 4.174 -1.073 3.814 -0.715 -0.007 -0.05 -3.884 0.345 -4.337 0.878 -2.512 1.509 0.284 0.861" />
    <path class="write-flat-pen" fill="#FFFFFF" stroke-width="1.6" __comx="432" __comy="95.833" __timestamp="0x1785168bbf6" d="M422.406 95.384 l0.328 -1.353 1.609 -1.37 3.287 -1.041 2.891 -0.025 2.851 0.879 1.428 1.232 0.91 1.978 -0.036 2.689 -1.103 3.071 -2.117 3.196 -5.639 5.229 -0.653 1.87 1.401 1.368 3.577 0.501 6.671 -0.704 4.131 -0.697 -0.006 -0.067 -4.183 0.085 -6.579 0.311 -3.113 -0.448 -0.68 -0.644 0.323 -1.001 5.494 -5.175 2.225 -3.399 1.178 -3.332 0.015 -3.051 -1.106 -2.323 -1.728 -1.446 -3.153 -0.92 -3.127 0.091 -3.478 1.229 -1.742 1.661 -0.224 1.541" />
    <path class="write-flat-pen" fill="#FFFFFF" stroke-width="1.6" __comx="453.325" __comy="104.208" __timestamp="0x1785168bd2b" d="M447.752 102.749 l-0.431 -0.069 9.101 8.518 2.939 2.904 0.051 -0.045 -2.513 -3.323 -9.229 -8.431 -0.431 0.446" />
    <path class="write-flat-pen" fill="#FFFFFF" stroke-width="1.6" __comx="457.084" __comy="106.023" __timestamp="0x1785168bdd5" d="M450.235 114.969 l2.402 -3.827 9.149 -10.665 2.817 -3.115 -0.071 -0.072 -3.149 2.805 -9.512 10.484 -2.307 3.985" />
    <path class="write-flat-pen" fill="#FFFFFF" stroke-width="1.6" __comx="279.395" __comy="223.753" __timestamp="0x1785168cc6b" d="M269.86 218.065 l-0.116 -0.862 0 0 -0.293 0.145 3.818 4.419 0.721 0.979 6.804 9.049 3.177 2.996 2.335 0.503 3.077 -0.57 -0.007 -0.079 -3.01 -0.063 -1.943 -0.607 -2.938 -2.8 -6.858 -8.912 -0.768 -0.991 -4.158 -4.156 -0.293 0.145 0 0 0.179 0.851" />
    <path class="write-flat-pen" fill="#FFFFFF" stroke-width="1.6" __comx="280.194" __comy="223.753" __timestamp="0x1785168cd3f" d="M274.261 233.873 l10.609 -15.019 1.827 -3.713 -0.097 -0.055 -2.214 3.46 -10.695 14.921" />
    <path class="write-flat-pen" fill="#FFFFFF" stroke-width="1.6" __comx="298.994" __comy="223.753" __timestamp="0x1785168cede" d="M292.512 201.599 l1.833 -2.047 2.411 -1.429 1.533 -0.16 0.794 0.538 0.398 1.745 -0.606 2.736 -1.968 3.453 0.23 1.527 5.09 1.43 3.596 0.914 0.023 -0.065 -3.392 -1.538 -4.436 -1.505 -0.105 -0.582 1.838 -3.3 0.661 -3.077 -0.546 -2.285 -1.366 -0.889 -2.025 0.258 -2.61 1.682 -1.724 2.29" />
    <path class="write-flat-pen" fill="#FFFFFF" stroke-width="1.6" __comx="311.858" __comy="223.753" __timestamp="0x1785168cfc8" d="M304.625 223.613 l5.084 -0.244 5.183 0.433 4.228 0.168 0.008 -0.074 -4.166 -0.769 -5.247 -0.577 -5.129 0.585" />
    <path class="write-flat-pen" fill="#FFFFFF" stroke-width="1.6" __comx="314.12" __comy="223.753" __timestamp="0x1785168d092" d="M313.104 216.126 l0.054 8.965 0.062 0.773 0.516 3.628 1.353 3.732 0.047 -0.013 -0.72 -3.854 -0.379 -3.578 -0.064 -0.735 -0.481 -8.93" />
    <path class="write-flat-pen" fill="#FFFFFF" stroke-width="1.6" __comx="330.192" __comy="223.753" __timestamp="0x1785168d183" d="M329.608 216.857 l0.061 8.808 0.019 0.941 0.39 7.195 0.615 4.217 0.071 -0.005 0.013 -4.249 -0.118 -7.187 -0.025 -0.939 -0.491 -8.798" />
    <path class="write-flat-pen" fill="#FFFFFF" stroke-width="1.6" __comx="356.239" __comy="223.753" __timestamp="0x1785168d6a2" d="M350.681 228.213 l7.403 -1.876 3.83 -0.82 -0.007 -0.042 -3.887 0.55 -7.455 1.7" />
    <path class="write-flat-pen" fill="#FFFFFF" stroke-width="1.6" __comx="377.338" __comy="223.753" __timestamp="0x1785168d8d1" d="M370.159 221.355 l0.832 -2.242 2.108 -2.333 2.448 -1.442 2.601 -0.544 1.441 0.362 1.065 1.059 0.339 2.027 -0.822 2.787 -2.217 3.369 -5.376 5.506 -0.781 1.964 0.813 1.514 7.641 1.668 0.454 0.029 4.142 0.252 0.008 -0.056 -4.034 -0.971 -0.404 -0.099 -6.995 -1.878 -0.305 -0.542 0.464 -1.237 5.251 -5.448 2.344 -3.61 0.903 -3.191 -0.49 -2.583 -1.523 -1.432 -1.91 -0.433 -2.932 0.686 -2.614 1.67 -2.121 2.625 -0.666 2.414" />
    <path class="write-flat-pen" fill="#FFFFFF" stroke-width="1.6" __comx="397.847" __comy="223.753" __timestamp="0x1785168da10" d="M392.78 223.504 l-0.598 0.087 2.726 4.03 0.437 0.522 4.487 3.997 3.644 2.133 0.037 -0.053 -3.178 -2.702 -4.278 -4.06 -0.385 -0.444 -3.051 -3.748 -0.295 0.542" />
    <path class="write-flat-pen" fill="#FFFFFF" stroke-width="1.6" __comx="398.221" __comy="223.753" __timestamp="0x1785168daca" d="M394.199 237.156 l0.708 -3.504 2.689 -6.704 3.134 -5.231 2.154 -3.651 -0.034 -0.024 -2.668 3.312 -3.411 5.175 -2.688 6.89 -0.524 3.624" />
    <path class="write-flat-pen" fill="#FFFFFF" stroke-width="1.6" __comx="409.162" __comy="95.831" __timestamp="0x1785168e367" d="M407.914 93.084 l-0.086 5.504 1.207 6.37 1.368 3.835 0.093 -0.027 -0.914 -3.936 -1.059 -6.305 -0.163 -5.443" />
  </g>
</svg>
