<svg class="write-page" width="1010px" height="1628px" xmlns="http://www.w3.org/2000/svg" xmlns:xlink="http://www.w3.org/1999/xlink">
  <g class="write-content write-v3" width="1010" height="1628" xruling="30" yruling="30" marginLeft="30" papercolor="#1B1C1C" rulecolor="#3A00F9FF">
    <g class="ruleline write-std-ruling write-scale-down" fill="none" stroke="#00F9FF" stroke-opacity="0.227" stroke-width="1" shape-rendering="crispEdges" vector-effect="non-scaling-stroke">
      <rect class="pagerect" fill="#1B1C1C" stroke="none" x="0" y="0" width="1010" height="1628" />
      <path class="yrule_1" d="M0 30 l1010 0" />
      <path d="M0 60 l1010 0" />
      <path d="M0 90 l1010 0" />
      <path d="M0 120 l1010 0" />
      <path d="M0 150 l1010 0" />
      <path d="M0 180 l1010 0" />
      <path d="M0 210 l1010 0" />
      <path d="M0 240 l1010 0" />
      <path d="M0 270 l1010 0" />
      <path d="M0 300 l1010 0" />
      <path d="M0 330 l1010 0" />
      <path d="M0 360 l1010 0" />
      <path d="M0 390 l1010 0" />
      <path d="M0 420 l1010 0" />
      <path d="M0 450 l1010 0" />
      <path d="M0 480 l1010 0" />
      <path d="M0 510 l1010 0" />
      <path d="M0 540 l1010 0" />
      <path d="M0 570 l1010 0" />
      <path d="M0 600 l1010 0" />
      <path d="M0 630 l1010 0" />
      <path d="M0 660 l1010 0" />
      <path d="M0 690 l1010 0" />
      <path d="M0 720 l1010 0" />
      <path d="M0 750 l1010 0" />
      <path d="M0 780 l1010 0" />
      <path d="M0 810 l1010 0" />
      <path d="M0 840 l1010 0" />
      <path d="M0 870 l1010 0" />
      <path d="M0 900 l1010 0" />
      <path d="M0 930 l1010 0" />
      <path d="M0 960 l1010 0" />
      <path d="M0 990 l1010 0" />
      <path d="M0 1020 l1010 0" />
      <path d="M0 1050 l1010 0" />
      <path d="M0 1080 l1010 0" />
      <path d="M0 1110 l1010 0" />
      <path d="M0 1140 l1010 0" />
      <path d="M0 1170 l1010 0" />
      <path d="M0 1200 l1010 0" />
      <path d="M0 1230 l1010 0" />
      <path d="M0 1260 l1010 0" />
      <path d="M0 1290 l1010 0" />
      <path d="M0 1320 l1010 0" />
      <path d="M0 1350 l1010 0" />
      <path d="M0 1380 l1010 0" />
      <path d="M0 1410 l1010 0" />
      <path d="M0 1440 l1010 0" />
      <path d="M0 1470 l1010 0" />
      <path d="M0 1500 l1010 0" />
      <path d="M0 1530 l1010 0" />
      <path d="M0 1560 l1010 0" />
      <path d="M0 1590 l1010 0" />
      <path d="M0 1620 l1010 0" />
      <path class="xrule_1" d="M30 0 l0 1628" />
      <path d="M60 0 l0 1628" />
      <path d="M90 0 l0 1628" />
      <path d="M120 0 l0 1628" />
      <path d="M150 0 l0 1628" />
      <path d="M180 0 l0 1628" />
      <path d="M210 0 l0 1628" />
      <path d="M240 0 l0 1628" />
      <path d="M270 0 l0 1628" />
      <path d="M300 0 l0 1628" />
      <path d="M330 0 l0 1628" />
      <path d="M360 0 l0 1628" />
      <path d="M390 0 l0 1628" />
      <path d="M420 0 l0 1628" />
      <path d="M450 0 l0 1628" />
      <path d="M480 0 l0 1628" />
      <path d="M510 0 l0 1628" />
      <path d="M540 0 l0 1628" />
      <path d="M570 0 l0 1628" />
      <path d="M600 0 l0 1628" />
      <path d="M630 0 l0 1628" />
      <path d="M660 0 l0 1628" />
      <path d="M690 0 l0 1628" />
      <path d="M720 0 l0 1628" />
      <path d="M750 0 l0 1628" />
      <path d="M780 0 l0 1628" />
      <path d="M810 0 l0 1628" />
      <path d="M840 0 l0 1628" />
      <path d="M870 0 l0 1628" />
      <path d="M900 0 l0 1628" />
      <path d="M930 0 l0 1628" />
      <path d="M960 0 l0 1628" />
      <path d="M990 0 l0 1628" />
      <path class="leftmargin" stroke="#FF0000" d="M30 0 l0 1628" />
    </g>
    <path class="write-flat-pen" fill="#FFFFFF" stroke-width="1.6" __comx="225.637" __comy="103.432" __timestamp="0x17932c5b879" d="M217.759 100.082 l1.497 0.058 0.425 0.039 9.721 0.2 4.167 -0.738 -0.006 -0.069 -4.184 -0.029 -9.663 -0.344 -0.488 0 -1.521 0.374" />
    <path class="write-flat-pen" fill="#FFFFFF" stroke-width="1.6" __comx="227.338" __comy="103.432" __timestamp="0x17932c5b948" d="M222.427 106.762 l0.069 1.433 5.965 0.821 3.789 -0.473 -0.007 -0.186 -3.735 -0.174 -5.122 -0.869 -0.227 -0.656" />
    <path class="write-flat-pen" fill="#FFFFFF" stroke-width="1.6" __comx="267.84" __comy="103.432" __timestamp="0x17932c5bd96" d="M254.967 114.061 l-0.97 3.1 0.022 0.264 0.736 0.21 1.711 -1.615 0.429 -0.88 5.402 -15.858 1.91 -7.845 0 0 0.534 -6.241 0 0 -0.65 -8.6 0 0 -1.576 0.242 3.204 13.775 3.794 12.394 3.368 8.256 2.349 3.69 1.876 1.408 1.989 -0.021 2.587 -1.32 -0.084 -0.278 -2.66 0.267 -1.257 -0.213 -1.257 -0.948 -2.116 -3.324 -3.286 -8.056 -3.757 -12.273 -3.193 -13.722 -1.576 0.242 0 0 0.647 8.472 0 0 -0.495 5.996 0 0 -1.822 7.676 -5.134 15.803 -0.283 0.663 -1.289 1.741 0.736 0.21 -0.04 -0.089 0.541 -3.032" />
    <path class="write-flat-pen" fill="#FFFFFF" stroke-width="1.6" __comx="267.809" __comy="103.432" __timestamp="0x17932c5be8e" d="M259.271 103.124 l4.717 1.739 8.242 0.758 4.107 -0.103 0.008 -0.171 -4.052 -0.498 -8.052 -1.135 -4.713 -1.373" />
    <path class="write-flat-pen" fill="#FFFFFF" stroke-width="1.6" __comx="299.527" __comy="103.432" __timestamp="0x17932c5c0a8" d="M292.366 107.598 l1.01 0.172 0.226 0.029 3.295 -0.018 0.475 -0.086 2.97 -1.112 2.347 -1.903 0.751 -1.895 -0.921 -1.616 -2.305 -0.815 -3.1 0.467 -2.908 1.902 -2.192 2.845 -1.011 2.822 0.252 2.953 1.688 2.135 2.836 1.257 3.216 0.211 5.417 -1.514 3.637 -2.22 -0.13 -0.284 -3.949 1.25 -5.123 1.156 -2.68 -0.176 -2.215 -0.982 -1.144 -1.448 -0.182 -2.127 0.808 -2.258 1.872 -2.433 2.39 -1.568 2.367 -0.365 1.391 0.477 0.28 0.462 -0.312 0.855 -1.82 1.579 -2.6 1.142 -0.276 0.074 -3.147 0.417 -0.214 0.023 -1.013 0.249" />
    <path class="write-flat-pen" fill="#FFFFFF" stroke-width="1.6" __comx="320.795" __comy="72.925" __timestamp="0x17932c5c4e8" d="M318.718 61.136 l-0.204 3.603 0.098 0.953 3.012 17.346 1.298 1.752 0.153 -0.069 -0.398 -2.006 -3.029 -17.179 -0.134 -0.859 -0.191 -3.539" />
    <path class="write-flat-pen" fill="#FFFFFF" stroke-width="1.6" __comx="325.061" __comy="72.925" __timestamp="0x17932c5c5d6" d="M317.535 64.265 l1.386 -0.254 0.314 -0.039 9.423 -1.575 4.16 -0.999 -0.019 -0.164 -4.309 -0.023 -9.468 1.601 -0.397 0.102 -1.322 0.677" />
    <path class="write-flat-pen" fill="#FFFFFF" stroke-width="1.6" __comx="327.103" __comy="72.925" __timestamp="0x17932c5c6a8" d="M321.143 71.148 l-0.29 0.644 1.365 0.064 0.391 -0.023 6.723 -0.913 4.089 -0.928 -0.027 -0.21 -4.194 0.118 -6.719 0.852 -0.372 0.058 -1.322 0.338 0.356 0.644" />
    <path class="write-flat-pen" fill="#FFFFFF" stroke-width="1.6" __comx="329.526" __comy="72.925" __timestamp="0x17932c5c773" d="M321.906 81.411 l0.522 0.99 0.518 0.137 10.079 -0.178 4.122 -0.782 -0.017 -0.17 -4.155 0.023 -9.92 0.017 -0.045 0.016 -0.61 -0.444" />
    <path class="write-flat-pen" fill="#FFFFFF" stroke-width="1.6" __comx="345.721" __comy="72.925" __timestamp="0x17932c5c8b3" d="M340.343 90.239 l0.958 -1.945 0.254 -0.544 9.532 -26.625 0.746 -4.226 -0.178 -0.054 -1.7 3.906 -9.563 26.553 -0.193 0.554 -0.589 2.099" />
    <path class="write-flat-pen" fill="#FFFFFF" stroke-width="1.6" __comx="357.981" __comy="72.925" __timestamp="0x17932c5c9f9" d="M358.139 65.928 l-0.742 3.883 -0.033 0.902 0.101 16.344 0.443 2.267 0.099 0 0.453 -2.27 -0.17 -16.337 -0.002 -0.838 0.31 -3.889" />
    <path class="write-flat-pen" fill="#FFFFFF" stroke-width="1.6" __comx="365.026" __comy="72.925" __timestamp="0x17932c5cbee" d="M358.697 69.881 l-0.407 -0.93 0.026 -0.026 1.299 -3.148 0.201 -0.258 2.727 -2.617 2.401 -1.19 2.595 -0.31 1.36 0.487 1.054 1.358 0.125 1.371 -0.777 1.985 -2.089 2.384 -6.397 4.09 -0.668 1.767 2.791 3.817 6.019 5.807 3.558 1.618 0.172 -0.27 -2.846 -2.459 -5.689 -5.746 -2.205 -3.013 0.174 -0.461 6.139 -3.933 2.414 -2.772 0.995 -2.599 -0.229 -2.187 -1.62 -2.045 -2.115 -0.738 -3.201 0.401 -2.824 1.437 -2.894 2.932 -0.366 0.522 -1.057 3.721 0.132 0.426 0.82 0.841" />
    <path class="write-flat-pen" fill="#FFFFFF" stroke-width="1.6" __comx="387.873" __comy="72.925" __timestamp="0x17932c5cd13" d="M385.758 68.643 l-0.523 -0.16 0.251 1.067 0.08 0.446 2.624 14.831 2.187 3.603 0.159 -0.068 -1.033 -3.933 -2.918 -14.659 -0.175 -0.547 -0.678 -0.968 -0.523 0.388" />
    <path class="write-flat-pen" fill="#FFFFFF" stroke-width="1.6" __comx="388.202" __comy="72.925" __timestamp="0x17932c5cdf0" d="M377.084 69.357 l-0.288 -0.425 -0.2 -0.471 0 0 -0.482 0.954 7.161 -0.113 6.866 -1.648 6.397 -3.09 1.054 -0.798 3.228 -2.447 -0.105 -0.169 -3.627 1.802 -1.116 0.547 -6.349 2.643 -6.564 1.606 -6.992 0.445 -0.482 0.954 0 0 0.363 0.36 0.288 0.425" />
    <path class="write-flat-pen" fill="#FFFFFF" stroke-width="1.6" __comx="98.216" __comy="98.676" __timestamp="0x17932c5dda1" d="M96.916 95.845 l0.042 3.724 0.033 0.964 0.762 10.689 1.426 3.723 0.337 -0.088 -0.552 -3.84 -0.914 -10.559 -0.087 -0.953 -0.445 -3.699" />
    <path class="write-flat-pen" fill="#FFFFFF" stroke-width="1.6" __comx="96.64" __comy="93.264" __timestamp="0x17932c5df98" d="M94.933 90.326 l-0.67 -2.272 -0.077 -0.149 -1.107 -0.951 -1.964 0.571 -2.457 2.533 -2.525 4.527 -1.932 5.988 -1.039 7.486 0.284 4.146 1.168 3.914 2.154 3.492 2.812 2.779 3.187 1.635 3.634 0.348 3.913 -1.178 3.599 -2.585 2.941 -3.54 2.083 -4.02 1.049 -4.357 0.133 -4.468 -1.021 -4.12 -1.891 -3.694 -3.036 -3.525 -3.369 -2.433 -3.866 -1.448 -2.557 0.19 -1.893 1.315 -0.48 0.658 -2.071 2.896 0.189 0.173 2.702 -2.319 0.491 -0.403 1.545 -0.8 1.833 -0.091 3.344 1.252 3.042 2.197 2.788 3.237 1.72 3.359 0.924 3.727 -0.121 4.082 -0.965 4.006 -1.914 3.694 -2.699 3.249 -3.216 2.31 -3.356 1.011 -3.017 -0.288 -2.697 -1.382 -2.504 -2.47 -1.952 -3.148 -1.073 -3.542 -0.268 -3.809 0.992 -7.193 1.823 -5.728 2.3 -4.278 2.002 -2.271 1.055 -0.483 0.636 0.318 -0.031 -0.067 1.045 2.066" />
    <path class="write-flat-pen" fill="#FFFFFF" stroke-width="1.6" __comx="101.011" __comy="249.005" __timestamp="0x17932c5e326" d="M96.012 250.166 l0.182 -0.933 0.056 -0.037 3.13 -2.596 0.2 -0.106 1.44 -0.504 0.573 0.186 0.34 0.889 -0.565 3.155 -4.765 9.569 0.001 1.756 1.873 1.211 4.852 -0.477 3.385 -1.855 -0.118 -0.309 -3.575 0.789 -4.13 0.216 -0.69 -0.445 -0.001 -0.51 4.68 -9.45 0.635 -3.823 -0.824 -1.945 -1.734 -0.471 -1.967 0.769 -0.422 0.252 -3.075 3.115 -0.188 0.416 0.255 1.156" />
    <path class="write-flat-pen" fill="#FFFFFF" stroke-width="1.6" __comx="102.495" __comy="242.106" __timestamp="0x17932c5e523" d="M100.74 242.737 l-1.013 -2.896 -0.111 -0.178 -1.538 -1.456 -2.711 -0.55 -3.281 1.111 -3.086 2.835 -2.367 4.591 -1.059 5.559 0.259 4.356 1.309 4.529 2.911 4.902 2.502 2.596 3.925 2.207 4.164 0.91 4.34 -0.294 4.418 -1.604 4.031 -2.628 3.213 -3.642 1.976 -4.589 0.793 -5.144 -0.65 -5.384 -1.364 -3.577 -3.153 -4.682 -3.255 -3.169 -3.353 -2.063 -3.243 -0.619 -2.173 1.071 -1.341 2.322 -0.217 0.94 -0.774 3.442 0.207 0.072 1.539 -3.175 0.365 -0.727 1.278 -1.666 1.334 -0.609 2.438 0.465 2.952 1.817 3.01 2.93 2.958 4.392 1.228 3.222 0.6 4.971 -0.729 4.725 -1.795 4.167 -2.9 3.288 -3.694 2.409 -4.032 1.464 -3.887 0.264 -3.708 -0.811 -3.512 -1.974 -2.21 -2.293 -2.712 -4.566 -1.204 -4.161 -0.239 -3.981 0.971 -5.141 2.116 -4.155 2.62 -2.478 2.606 -0.994 2.049 0.264 1.314 0.984 -0.006 -0.021 1.371 2.644" />
    <path class="write-flat-pen" fill="#FFFFFF" stroke-width="1.6" __comx="191.688" __comy="253.477" __timestamp="0x17932c5eab5" d="M186.389 265.047 l0.318 1.936 0.087 0.162 0.571 -0.015 0.666 -0.603 0.116 -0.472 0.039 -5.896 -1.055 -6.529 -3.579 -11.394 -0.71 -4.231 0.508 -1.52 1.833 -1.455 3.423 -0.939 4.041 -0.079 2.545 0.718 2.263 1.632 2.401 3.682 1.993 3.669 0.328 -0.134 -1.175 -4.109 -2.347 -4.21 -2.754 -1.993 -3.046 -0.859 -4.478 0.087 -3.931 1.078 -2.461 1.954 -0.784 2.349 0.795 4.734 3.601 11.389 1.096 6.301 0.295 5.658 0.002 0.126 -0.206 0.635 0.571 -0.015 -0.054 -0.017 -0.648 -1.71" />
    <path class="write-flat-pen" fill="#FFFFFF" stroke-width="1.6" __comx="186.63" __comy="253.477" __timestamp="0x17932c5eb97" d="M178.463 250.503 l-0.029 1.502 2.744 1.136 9.629 -0.318 4.019 -0.868 -0.028 -0.204 -4.054 0.248 -9.365 0.012 -1.977 -0.691 -0.099 -0.842" />
    <path class="write-flat-pen" fill="#FFFFFF" stroke-width="1.6" __comx="210.876" __comy="253.477" __timestamp="0x17932c5ecec" d="M209.745 243.346 l-0.035 -0.314 0.062 -0.546 0 0 -0.901 -0.04 -0.098 0.203 -2.422 6.611 -0.967 6.315 0.268 4.986 1.088 3.239 1.843 2.394 3.795 1.73 3.921 0.547 0.07 -0.289 -3.617 -1.272 -3.241 -1.83 -1.479 -1.965 -0.956 -2.828 -0.27 -4.647 0.861 -6.063 2.044 -6.6 0.051 -0.209 -0.901 -0.04 0 0 0.324 0.444 0.02 0.229" />
    <path class="write-flat-pen" fill="#FFFFFF" stroke-width="1.6" __comx="227.785" __comy="253.477" __timestamp="0x17932c5ee31" d="M220.011 243.678 l0.682 4.312 0.158 0.577 2.697 13.283 1.466 3.694 1.834 1.497 2.301 0.387 3.087 -1.064 3.323 -1.946 -0.121 -0.261 -3.56 1.243 -2.796 0.616 -1.601 -0.337 -1.244 -1.029 -1.29 -3.223 -2.914 -13.161 -0.185 -0.567 -1.069 -4.179" />
    <path class="write-flat-pen" fill="#FFFFFF" stroke-width="1.6" __comx="222.78" __comy="253.477" __timestamp="0x17932c5ef18" d="M214.337 252.72 l-0.387 0.82 13.54 -0.694 4.168 -0.859 -0.035 -0.276 -4.218 0.199 -13.501 0.81 0.433 0.82" />
    <path class="write-flat-pen" fill="#FFFFFF" stroke-width="1.6" __comx="240.38" __comy="253.477" __timestamp="0x17932c5f021" d="M234.563 236.423 l1.488 2.268 0.415 0.582 3.889 5.672 2.85 5.498 1.254 4.25 0.308 4.359 -0.859 3.936 -3.187 5.432 -2.669 3.081 0.183 0.195 3.354 -2.565 3.656 -5.601 0.955 -4.375 -0.343 -4.716 -1.358 -4.522 -3.023 -5.661 -4.166 -5.608 -0.469 -0.561 -1.795 -2.03" />
    <path class="write-flat-pen" fill="#FFFFFF" stroke-width="1.6" __comx="259.626" __comy="253.477" __timestamp="0x17932c5f167" d="M253.81 247.699 l0.254 1.688 2.252 1.233 5.212 0.429 3.915 -0.471 -0.007 -0.185 -3.876 -0.197 -4.906 -0.7 -1.712 -0.8 -0.436 -1.164" />
    <path class="write-flat-pen" fill="#FFFFFF" stroke-width="1.6" __comx="262.21" __comy="253.477" __timestamp="0x17932c5f235" d="M255.89 256.209 l1.987 1.786 0.69 0.207 5.883 0.532 4.068 -0.198 0.013 -0.232 -3.987 -0.647 -5.703 -0.846 -0.334 -0.078 -2.024 -1.296" />
    <path class="write-flat-pen" fill="#FFFFFF" stroke-width="1.6" __comx="309.789" __comy="253.477" __timestamp="0x17932c5f6b4" d="M306.251 246.909 l0.71 -1.59 0.004 -0.429 -1.569 -1.518 -0.513 -0.081 -2.43 0.198 -1.564 1.174 -0.036 1.983 1.935 1.963 8.575 5.084 3.84 3.069 1.563 2.186 0.303 1.531 -0.644 1.867 -2.133 1.867 -3.418 1.187 -4.059 0.436 -1.976 -0.434 -0.169 -0.214 0.352 -1.09 0.279 -0.447 1.671 -2.492 -0.176 -0.159 -2.304 1.921 -0.541 0.464 -1.081 1.95 1.011 1.494 2.846 0.625 4.5 -0.484 3.885 -1.349 2.687 -2.353 0.923 -2.678 -0.455 -2.294 -1.894 -2.647 -4.102 -3.277 -8.512 -5.019 -1.361 -1.343 -0.017 -0.61 0.633 -0.529 1.858 -0.29 0.013 -0.014 1.242 0.74 0.016 -0.099 -0.278 1.58" />
    <path class="write-flat-pen" fill="#FFFFFF" stroke-width="1.6" __comx="325.984" __comy="253.477" __timestamp="0x17932c5f78b" d="M325.649 254.469 l-0.508 2.677 -0.061 0.62 -0.223 4.661 0.912 1.381 1.342 -0.732 -0.056 -0.272 -0.687 -0.31 -0.099 -0.421 -0.043 -4.267 0 -0.573 0.092 -2.691" />
    <path class="write-flat-pen" fill="#FFFFFF" stroke-width="1.6" __comx="326.871" __comy="253.477" __timestamp="0x17932c5f824" d="M326.781 243.136 l-0.223 -0.936 0 0 -0.904 0.517 0.675 0.603 1.718 1.391 0.164 -0.147 -1.206 -1.867 -0.574 -0.716 -0.904 0.517 0 0 0.31 0.911" />
    <path class="write-flat-pen" fill="#FFFFFF" stroke-width="1.6" __comx="343.842" __comy="253.477" __timestamp="0x17932c5f984" d="M336.524 255.316 l-0.513 2.433 -0.023 0.349 0 0 0.116 3.548 0 0 0.881 1.031 0 0 1.269 -0.285 2.784 -8.765 1.32 -2.255 1.019 -0.698 0.978 0.095 1.295 1.307 4.114 11.784 1.66 4.064 0.271 -0.069 -0.497 -4.424 -4.155 -12.222 -1.959 -1.976 -2.131 -0.206 -1.792 1.23 -1.59 2.722 -2.75 8.965 1.269 -0.285 0 0 -0.622 -0.602 0 0 -0.34 -2.993 0 0 -0.015 -0.241 0.094 -2.423" />
    <path class="write-flat-pen" fill="#FFFFFF" stroke-width="1.6" __comx="382.935" __comy="251.175" __timestamp="0x17932c5fed4" d="M381.365 235.924 l0.764 -2.15 0.042 -0.308 -0.743 -0.639 -0.499 0.337 -2.766 3.397 -3.253 7.259 -3.047 9.589 -2.181 10.044 -1.048 8.803 0.012 7.168 1.137 8.868 3.137 14.234 5.189 18.678 3.239 9.076 4.474 9.726 3.568 5.724 3.335 3.343 0.766 0.412 3.622 1.918 0.121 -0.18 -3.138 -2.636 -0.55 -0.475 -2.891 -3.35 -3.422 -5.516 -4.403 -9.571 -3.196 -8.955 -5.162 -18.581 -3.112 -14.122 -1.115 -8.697 -0.012 -6.971 1.028 -8.632 2.147 -9.897 2.985 -9.441 3.065 -7.06 2.292 -3.326 -0.238 0.145 -0.089 -0.278 0.033 -0.203 -0.341 2.203" />
    <path class="write-flat-pen" fill="#FFFFFF" stroke-width="1.6" __comx="422.508" __comy="259.688" __timestamp="0x17932c602a0" d="M414.44 248.323 l-0.534 -1.364 0.029 -0.15 1.291 -2.545 0.306 -0.334 2.61 -1.901 3.313 -1.053 2.564 -0.07 2.492 0.881 1.288 1.229 0.932 2.094 0.003 2.536 -1.251 2.967 -2.871 3.411 -9.921 7.387 -0.738 1.859 2.116 1.577 3.414 0.86 8.178 -0.831 4.216 -0.9 -0.019 -0.193 -4.298 -0.075 -7.938 0.385 -2.853 -0.719 -0.877 -0.653 0.118 -0.297 9.699 -7.236 3.13 -3.748 1.447 -3.485 -0.026 -3.176 -1.204 -2.655 -1.746 -1.648 -3.063 -1.066 -3.052 0.113 -3.713 1.264 -2.807 2.257 -0.47 0.602 -1.066 3.021 0.056 0.496 0.979 1.311" />
    <path class="write-flat-pen" fill="#FFFFFF" stroke-width="1.6" __comx="440.038" __comy="259.688" __timestamp="0x17932c603a9" d="M438.2 260.301 l1.199 1.023 2.439 0.074 0.039 -0.189 -2.053 -0.854 -1.174 -0.68" />
    <path class="write-flat-pen" fill="#FFFFFF" stroke-width="1.6" __comx="457.735" __comy="259.688" __timestamp="0x17932c60568" d="M460.411 242.659 l-0.625 -2.537 -0.48 -0.369 -1.603 -0.22 -1.961 1.322 -1.657 2.785 -0.938 3.906 0.214 3.539 1.109 2.781 1.86 1.906 2.604 0.945 2.634 -0.317 2.134 -1.268 1.435 -2.16 -0.006 -2.084 -1.839 -1.737 -2.612 -0.522 -3.65 0.64 -2.984 1.493 -2.587 2.532 -1.121 4.626 0.126 0.47 1.07 3.491 0.167 -0.027 -0.099 -3.65 0.014 -0.212 1.262 -3.855 2.107 -2.055 2.551 -1.276 3.124 -0.547 1.867 0.373 1.006 0.949 0.003 0.911 -0.965 1.452 -1.53 0.91 -1.92 0.232 -1.903 -0.689 -1.384 -1.416 -0.9 -2.246 -0.194 -3.049 0.803 -3.461 1.325 -2.336 1.218 -0.925 0.769 -0.002 -0.09 -0.087 0.889 2.039" />
    <path class="write-flat-pen" fill="#FFFFFF" stroke-width="1.6" __comx="443.096" __comy="259.688" __timestamp="0x17932c606ed" d="M392.412 277.166 l2.434 -0.71 0.633 -0.038 12.796 -0.534 1.678 -0.063 51.553 -1.481 23.739 0.266 1.695 -0.024 3.157 -0.216 3.913 -0.347 -0.003 -0.203 -3.919 -0.217 -3.143 -0.157 -1.677 -0.078 -23.769 -0.624 -51.601 1.532 -1.699 0.086 -12.803 0.968 -0.789 0.102 -2.422 1.135" />
    <path class="write-flat-pen" fill="#FFFFFF" stroke-width="1.6" __comx="439.123" __comy="293.526" __timestamp="0x17932c60dd5" d="M403.867 298.725 l-1.016 -0.296 0.407 0.731 0.053 -0.054 4.324 -4.959 0.216 -0.245 1.901 -2.01 0.369 -0.077 0.56 1.182 2.47 18.766 1.45 6.118 1.178 1.366 1.715 -0.075 1.909 -2.29 11.847 -25.813 1.125 -4.773 0.733 -0.417 39.464 -0.272 1.165 0.438 0.506 1.172 -0.457 3.428 -2.257 7.38 -0.496 4.338 0.212 0.056 1.686 -3.989 2.421 -7.436 0.534 -4.005 -0.951 -2.203 -2.079 -0.781 -40.177 0.277 -1.702 0.968 -1.248 5.296 -11.691 25.474 -1.32 1.583 -0.234 0.01 -0.416 -0.482 -1.341 -5.659 -2.505 -18.936 -1.236 -2.546 -2.05 0.508 -2.197 2.408 -0.241 0.286 -4.072 5.335 -0.064 0.174 0.407 0.731 1.051 -0.125" />
    <path class="write-flat-pen" fill="#FFFFFF" stroke-width="1.6" __comx="449.27" __comy="296.881" __timestamp="0x17932c610c0" d="M442.823 292.981 l-0.59 -0.295 -0.215 0.158 -0.042 0.311 -0.813 6.786 -0.143 1.146 0 0 -1.657 14.09 0 0 1.436 0.567 4.911 -6.631 8.668 -7.336 1.395 -2.064 -0.429 -1.048 0 0 -1.108 -0.407 -2.042 1.057 -4.533 4.912 -3.201 4.711 -0.297 2.706 1.225 2.562 2.872 2.551 6.555 2.501 4.327 0.253 0.034 -0.184 -4.002 -1.293 -6.057 -2.654 -2.427 -2.155 -0.889 -1.859 0.204 -1.857 2.91 -4.283 4.262 -4.618 1.792 -0.928 -1.108 -0.407 0 0 0.105 0.256 -0.792 1.171 -8.642 7.313 -5.019 6.781 1.436 0.567 0 0 1.589 -14.097 0 0 0.124 -1.168 0.405 -6.881 -0.03 -0.36 -0.215 -0.167 -0.59 0.295" />
    <path class="write-flat-pen" fill="#FFFFFF" stroke-width="1.6" __comx="511.604" __comy="260.54" __timestamp="0x17932c6184b" d="M513.54 260.751 l-1.146 0.049 0.011 -0.015 -1.468 -0.635 0.138 0.283 0 0 0.075 -0.298 -1.136 0.223 0.241 0.698 -0.631 1.067 1.903 1.079 0.184 -0.202 -0.475 -1.083 0.555 -0.751 -0.696 -1.311 -1.136 0.223 0.032 0.57 0 0 0.19 0.393 2.289 0.424 0.136 -0.078 0.976 -0.452" />
    <path class="write-flat-pen" fill="#FFFFFF" stroke-width="1.6" __comx="540.619" __comy="248.754" __timestamp="0x17932c61a24" d="M537.677 244.409 l-0.55 -0.546 -0.729 0.334 -0.051 0.148 -0.625 4.092 -0.123 0.731 -2.965 10.795 -0.635 5.163 0.73 2.285 1.978 1.854 2.579 0.685 2.948 -0.283 3.819 -1.491 2.768 -2.201 2.418 -3.275 -0.088 -0.087 -3.166 2.391 -2.695 1.773 -3.429 1.318 -2.443 0.235 -1.912 -0.508 -1.382 -1.294 -0.498 -1.556 0.573 -4.706 2.846 -10.799 0.112 -0.852 0.209 -4.122 -0.001 -0.111 -0.729 0.334 0.749 0.199" />
    <path class="write-flat-pen" fill="#FFFFFF" stroke-width="1.6" __comx="540.722" __comy="254.185" __timestamp="0x17932c61aed" d="M528.815 255.284 l1.44 -0.751 0.48 -0.044 18.283 -0.247 4.066 -0.443 -0.008 -0.274 -4.073 -0.212 -18.361 -0.086 -0.844 0.148 -1.435 1.259" />
    <path class="write-flat-pen" fill="#FFFFFF" stroke-width="1.6" __comx="615.611" __comy="255.204" __timestamp="0x17932c61d08" d="M606.613 255.361 l2.429 0.654 0.653 0.123 10.797 0.181 4.117 -0.922 -0.028 -0.197 -4.14 0.238 -10.651 -0.335 -0.578 -0.075 -2.492 -0.255" />
    <path class="write-flat-pen" fill="#FFFFFF" stroke-width="1.6" __comx="617.813" __comy="249.734" __timestamp="0x17932c61dcd" d="M616.566 246.823 l-0.986 3.842 0.129 4.685 1.753 5.467 2.349 3.52 0.235 -0.127 -1.608 -3.8 -1.521 -5.264 -0.228 -4.378 0.746 -3.746" />
    <path class="write-flat-pen" fill="#FFFFFF" stroke-width="1.6" __comx="661.41" __comy="253.09" __timestamp="0x17932c620f1" d="M647.618 254.33 l0.852 -1.885 -0.01 0.028 -0.832 -0.243 -0.17 0.799 -0.032 0.129 -0.512 3.994 0.623 2.634 1.817 2.471 2.19 1.226 2.978 0.384 3.244 -0.58 4.281 -2.002 3.408 -2.763 2.175 -2.896 1.248 -3.179 -0.131 -2.605 -1.587 -2.03 -2.319 -0.62 -2.677 0.766 -2.35 1.834 -2.179 3.16 -0.938 3.02 0.101 3.454 1.391 4.035 1.899 2.532 2.712 1.921 3.122 1.07 5.314 -0.314 1.089 -0.495 3.578 -1.65 -0.073 -0.216 -3.848 0.845 -0.983 0.202 -4.835 0.02 -2.626 -0.9 -2.32 -1.643 -1.598 -2.131 -1.23 -3.567 -0.086 -2.943 0.787 -2.533 1.901 -2.757 1.912 -1.491 1.952 -0.558 1.374 0.367 0.945 1.209 0.088 1.754 -1.043 2.656 -1.926 2.565 -3.102 2.516 -3.914 1.832 -2.797 0.504 -2.431 -0.308 -1.629 -0.904 -1.445 -1.932 -0.521 -2.062 0.311 -3.705 0.03 -0.233 -0.252 -0.924 -0.832 -0.243 -0.054 0.09 -0.491 2.145" />
    <path class="write-flat-pen" fill="#FFFFFF" stroke-width="1.6" __comx="710.564" __comy="246.446" __timestamp="0x17932c62402" d="M705.854 227.555 l-0.02 -0.956 0.295 -0.084 1.784 1.487 4.449 6.344 3.614 6.556 4.513 10.671 2.202 7.156 1.344 7.724 0.536 11.432 -0.582 11.638 -1.783 12.986 -2.691 12.05 -2.391 6.789 -4.099 8.325 -4.946 7.889 -6.82 7.671 -1.757 1.633 -1.735 1.515 -2.71 2.36 0.099 0.127 2.942 -2.064 1.903 -1.333 1.917 -1.56 7.196 -7.552 5.183 -7.968 4.204 -8.463 2.453 -6.957 2.725 -12.198 1.798 -13.112 0.592 -11.775 -0.565 -11.597 -1.404 -7.901 -2.292 -7.3 -4.657 -10.763 -3.75 -6.64 -4.734 -6.42 -2.484 -1.744 -1.056 0.723 0.219 1.363" />
    <path class="write-flat-pen" fill="#FFFFFF" stroke-width="1.6" __comx="268.539" __comy="462.458" __timestamp="0x17932c62b93" d="M262.058 459.961 l-0.189 0.465 1.662 -0.117 0.334 -0.003 7.31 1.737 4.07 0.912 0.057 -0.177 -3.879 -1.624 -7.476 -1.787 -0.533 0.051 -1.638 0.55 0.282 0.465" />
    <path class="write-flat-pen" fill="#FFFFFF" stroke-width="1.6" __comx="271.198" __comy="462.458" __timestamp="0x17932c62c67" d="M264.367 465.882 l-0.485 0.878 10.444 1.093 4.174 -0.115 0.015 -0.289 -4.117 -0.54 -10.427 -1.024 0.396 0.878" />
    <path class="write-flat-pen" fill="#FFFFFF" stroke-width="1.6" __comx="322.01" __comy="462.458" __timestamp="0x17932c631b1" d="M320.683 452.918 l-0.736 -1.981 -0.01 -0.165 -0.502 -1.691 -1.719 -0.664 -2.082 0.856 -1.408 1.785 0.18 2.277 1.975 2.219 6.373 4.104 3.72 3.379 1.589 2.659 0.523 2.286 -0.356 1.832 -1.191 1.528 -2.488 1.205 -2.608 0.213 -4.383 -0.807 -2.689 -1.116 -0.839 -0.654 -0.224 0.094 0.067 1.508 3.185 1.704 4.802 0.883 3.117 -0.256 3.092 -1.499 1.652 -2.126 0.488 -2.539 -0.663 -2.855 -1.84 -3.071 -3.985 -3.63 -6.305 -4.058 -1.496 -1.657 -0.113 -1.156 0.77 -1.036 1.194 -0.566 0.662 0.163 0.423 0.946 0.042 0.223 1.191 1.954" />
    <path class="write-flat-pen" fill="#FFFFFF" stroke-width="1.6" __comx="334.935" __comy="462.458" __timestamp="0x17932c6327f" d="M332.812 462.592 l0.853 6.057 0.112 0.635 0.735 4.159 1.135 1.092 1.383 -0.206 0.03 -0.21 -0.893 -0.53 -0.427 -0.735 -0.774 -3.8 -0.136 -0.622 -1.254 -5.974" />
    <path class="write-flat-pen" fill="#FFFFFF" stroke-width="1.6" __comx="330.97" __comy="462.458" __timestamp="0x17932c632fb" d="M331.159 447.328 l-0.175 0.179 -0.097 0.083 -0.081 0.107 -0.072 0.116 -0.082 0.181 -0.072 0.209 -0.06 0.26 -0.038 0.322 0.015 0.348 0.036 0.287 0.337 2.686 0.12 -0.007 0.02 -2.707 0.003 -0.28 0 -0.301 0.032 -0.262 0.039 -0.217 0.044 -0.171 0.046 -0.142 0.035 -0.082 0.032 -0.068 0.053 -0.075 0.162 -0.196" />
    <path class="write-flat-pen" fill="#FFFFFF" stroke-width="1.6" __comx="352.056" __comy="462.458" __timestamp="0x17932c6345b" d="M344.236 465.43 l0.227 3.866 0.073 0.482 0 0 0.72 3.809 0 0 0.946 0.882 0 0 1.204 -0.513 0.919 -12.466 0.675 -2.579 1.082 -1.27 0.508 -0.092 1.244 0.969 5.705 16.239 2.17 3.628 0.167 -0.072 -1.152 -4.014 -5.53 -16.749 -2.186 -1.702 -1.773 0.323 -1.689 1.983 -0.803 3.078 -0.803 12.624 1.204 -0.513 0 0 -0.689 -0.485 0 0 -0.855 -3.297 0 0 -0.096 -0.42 -0.628 -3.781" />
    <path class="write-flat-pen" fill="#FFFFFF" stroke-width="1.6" __comx="397.132" __comy="443.309" __timestamp="0x17932c636ce" d="M390.734 426.034 l0.435 -0.682 0 0 -0.817 -0.333 -1.318 3.479 -0.363 0.879 -4.179 11.928 -2.347 9.583 -1.543 12.016 -0.186 9.99 1.369 11.025 3.283 11.667 4.446 11.568 6.77 13.722 10.293 16.151 1.602 2.179 1.617 2.096 1.595 1.874 2.287 2.695 0.168 -0.127 -1.972 -2.934 -1.364 -2.037 -1.473 -2.179 -1.482 -2.217 -9.964 -16.23 -6.688 -13.601 -4.393 -11.44 -3.232 -11.489 -1.35 -10.803 0.176 -9.801 1.524 -11.85 2.298 -9.438 4.013 -11.883 0.336 -0.908 0.922 -3.65 -0.817 -0.333 0 0 -0.293 0.754" />
    <path class="write-flat-pen" fill="#FFFFFF" stroke-width="1.6" __comx="430.677" __comy="469.379" __timestamp="0x17932c63c75" d="M422.994 456.745 l-0.317 -2.368 0.009 -0.242 0.507 -2.484 1.125 -1.847 2.05 -1.652 2.656 -0.926 2.677 -0.103 2.015 0.701 1.46 1.673 0.584 2.063 -0.234 2.74 -1.522 4.074 -2.477 3.624 -6.35 5.483 -0.918 1.839 0.973 1.622 3.05 0.978 7.205 -0.59 4.138 -1.167 -0.033 -0.21 -4.237 0.134 -6.868 0.22 -2.193 -0.703 -0.212 -0.353 0.383 -0.767 6.264 -5.41 2.704 -3.957 1.663 -4.463 0.27 -3.248 -0.773 -2.68 -1.984 -2.233 -2.686 -0.908 -3.192 0.159 -3.089 1.147 -2.364 2.049 -1.231 2.315 -0.319 2.828 0.036 0.416 0.744 2.357" />
    <path class="write-flat-pen" fill="#FFFFFF" stroke-width="1.6" __comx="451.53" __comy="469.379" __timestamp="0x17932c63d52" d="M450.946 471.983 l-0.852 0.708 0 0 0.467 0.968 0.852 -0.156 1.553 -1.404 -0.104 -0.174 -1.781 0.591 -0.645 0.009 0.467 0.968 0 0 0.7 -0.858" />
    <path class="write-flat-pen" fill="#FFFFFF" stroke-width="1.6" __comx="471.089" __comy="469.379" __timestamp="0x17932c63f0d" d="M471.419 448.717 l-1.818 -0.111 -0.508 0.423 -2.337 2.954 -1.35 3.342 -0.82 4.977 0.463 4.351 1.517 4.013 2.179 2.759 2.928 1.639 2.513 0.286 3.064 -0.926 1.767 -1.658 1.1 -2.766 -0.448 -2.973 -1.545 -2.108 -3.571 -1.786 -3.137 -0.363 -3.651 0.813 -2.733 1.936 -1.666 2.779 -1.305 3.748 0.197 0.094 2.054 -3.298 1.777 -2.264 2.319 -1.506 3.091 -0.681 2.59 0.299 2.973 1.487 1.084 1.478 0.325 2.155 -0.809 2.033 -1.234 1.157 -2.389 0.722 -1.865 -0.212 -2.37 -1.326 -1.83 -2.315 -1.36 -3.59 -0.425 -3.934 0.736 -4.602 1.17 -3.007 2.01 -2.768 0.03 -0.049 1.332 -0.267" />
    <path class="write-flat-pen" fill="#FFFFFF" stroke-width="1.6" __comx="446.787" __comy="469.379" __timestamp="0x17932c6406a" d="M414.4 484.755 l1.72 0.189 0.92 0.065 24.819 0.986 31.119 -0.644 2.636 -0.182 3.559 -0.237 -0.001 -0.241 -3.562 -0.194 -2.642 -0.15 -31.096 0.235 -24.8 -0.591 -0.935 0.01 -1.734 0.172" />
    <path class="write-flat-pen" fill="#FFFFFF" stroke-width="1.6" __comx="449.941" __comy="500.52" __timestamp="0x17932c643c5" d="M425.091 508.512 l0.134 -1.408 0.039 -0.219 0.905 -3.101 0.131 -0.228 1.156 -1.364 0.766 -0.179 0.926 0.682 6.325 16.755 2.446 4.819 1.499 0.655 1.665 -1.946 1.995 -22.292 1.015 -4.93 1.427 -1.599 3.03 -1.6 4.711 -1.108 17.211 -0.553 0.695 -0.033 4.293 -0.177 0.01 -0.176 -4.242 -0.686 -0.733 -0.118 -17.436 0.147 -5.076 1.193 -3.466 1.83 -1.905 2.135 -1.12 5.441 -1.95 21.877 -0.569 0.674 0.092 0.044 -2.168 -4.23 -6.5 -17.093 -1.897 -1.308 -1.859 0.54 -1.435 1.898 -0.236 0.498 -0.559 3.417 0.014 0.332 0.257 1.426" />
    <path class="write-flat-pen" fill="#FFFFFF" stroke-width="1.6" __comx="466.64" __comy="504.082" __timestamp="0x17932c64767" d="M457.291 501.463 l0.075 -1.49 -0.029 0.102 0 0 -0.886 -0.132 0.446 3.289 0.151 0.803 2.062 14.587 0 0 0.253 0.837 0 0 1.384 0.193 7.057 -10.674 1.068 -2.742 -0.708 -1.541 -1.823 0.318 -1.889 2.681 -1.822 5.105 -0.141 2.722 1.091 2.844 2.226 2.259 5.957 1.712 1.153 -0.153 3.928 -0.544 -0.013 -0.315 -3.96 -0.211 -0.937 -0.065 -5.267 -1.83 -1.713 -1.738 -0.85 -2.215 0.111 -2.149 1.668 -4.681 1.381 -1.969 -0.027 0.002 -0.078 -0.178 -0.756 1.964 -6.947 10.545 1.384 0.193 0 0 -0.236 -0.713 0 0 -2.188 -14.485 -0.185 -0.832 -0.845 -3.205 -0.886 -0.132 0 0 -0.06 0.16 0.376 1.722" />
    <path class="write-flat-pen" fill="#FFFFFF" stroke-width="1.6" __comx="517.834" __comy="462.565" __timestamp="0x17932c64a44" d="M518.127 429.177 l-1.672 -0.256 -0.494 0.15 -1.931 1.237 -2.67 4.346 -1.834 6.154 -1.073 8.823 -0.252 10.232 0.756 8.064 2.149 10.624 3.156 9.689 4.064 8.196 4.815 6.352 1.302 1.178 2.844 2.576 0.179 -0.172 -2.459 -2.946 -1.073 -1.296 -4.375 -6.428 -3.842 -8.047 -3.063 -9.508 -2.112 -10.452 -0.74 -7.886 0.244 -10.062 1.026 -8.622 1.668 -5.876 2.251 -4.065 1.457 -1.195 0.164 -0.092 1.496 -0.15" />
    <path class="write-flat-pen" fill="#FFFFFF" stroke-width="1.6" __comx="555.417" __comy="462.565" __timestamp="0x17932c64cf2" d="M548.376 443.735 l0.221 -0.61 -1.093 0.022 -0.01 0.196 -0.906 12.366 -0.137 1.356 -0.439 6.997 0.634 4.918 1.445 3.612 2.345 2.932 2.983 1.852 3.373 0.627 2.976 -0.562 2.923 -2.296 2.129 -3.297 -0.265 -0.217 -2.71 2.61 -2.705 1.718 -2.347 0.417 -2.786 -0.518 -2.493 -1.548 -2.026 -2.533 -1.283 -3.204 -0.591 -4.566 0.414 -6.817 0.131 -1.361 0.483 -12.502 -0.048 -0.27 -1.093 0.022 0.171 0.626" />
    <path class="write-flat-pen" fill="#FFFFFF" stroke-width="1.6" __comx="552.542" __comy="462.565" __timestamp="0x17932c64dd5" d="M540.831 458.489 l0.23 -0.819 2.667 -0.676 17.168 -0.351 4.151 -0.304 0.003 -0.245 -4.153 -0.401 -17.371 -0.019 -3.444 1.178 -0.046 1.545" />
    <path class="write-flat-pen" fill="#FFFFFF" stroke-width="1.6" __comx="613.205" __comy="462.565" __timestamp="0x17932c651b9" d="M602.842 461.828 l4.077 0.195 0.751 0.095 11.617 0.882 4.276 -0.169 0.006 -0.208 -4.238 -0.419 -11.57 -1.03 -0.793 -0.077 -4.129 0.225" />
    <path class="write-flat-pen" fill="#FFFFFF" stroke-width="1.6" __comx="615.165" __comy="462.565" __timestamp="0x17932c652a9" d="M609.907 454.482 l4.999 10.283 3.373 8.239 1.949 3.792 0.194 -0.079 -1.233 -4.074 -3.104 -8.404 -5.36 -10.17" />
    <path class="write-flat-pen" fill="#FFFFFF" stroke-width="1.6" __comx="677.874" __comy="461.649" __timestamp="0x17932c662cc" d="M668.843 455.418 l-0.651 -0.59 -0.373 0.157 -1.296 1.872 -0.194 0.515 -0.877 4.38 0.324 3.816 1.237 3.116 2.182 2.219 2.431 1.073 2.981 0.148 3.242 -0.916 3.08 -1.858 3.411 -3.504 2.682 -4.403 1.625 -4.619 -0.179 -2.775 -1.46 -1.856 -2.732 -0.915 -2.647 0.281 -3.418 1.606 -3.097 2.967 -1.916 3.699 -0.812 4.29 0.337 3.607 1.562 4.292 2.259 3.109 2.788 1.93 2.963 0.826 4.79 -1.411 3.209 -2.4 -0.159 -0.272 -3.522 1.521 -4.3 0.907 -2.292 -0.639 -2.343 -1.622 -1.967 -2.707 -1.414 -3.887 -0.297 -3.177 0.726 -3.838 1.686 -3.255 2.716 -2.602 2.937 -1.38 2.032 -0.216 1.948 0.653 0.857 1.09 0.126 1.953 -1.461 4.153 -2.5 4.106 -3.142 3.228 -2.719 1.642 -2.783 0.788 -2.426 -0.117 -1.887 -0.827 -1.756 -1.769 -1.061 -2.604 -0.357 -3.389 0.614 -4.13 0.089 -0.33 0.748 -1.765 -0.221 0.082 0.499 0.061" />
    <path class="write-flat-pen" fill="#FFFFFF" stroke-width="1.6" __comx="704.908" __comy="461.649" __timestamp="0x17932c6657a" d="M704.99 464.474 l-0.291 -0.302 0.071 0.268 0.23 -0.699 0.475 -0.174 -0.997 -0.431 0.333 0.88 -0.008 2.143 0.273 0.065 1.041 -2.24 -0.286 -1.243 -0.997 -0.431 -1.003 0.58 -0.133 1.558 0.116 0.523 1.015 0.068" />
    <path class="write-flat-pen" fill="#FFFFFF" stroke-width="1.6" __comx="726.932" __comy="461.649" __timestamp="0x17932c667dd" d="M730.852 445.109 l-0.46 -1.464 -0.671 0.275 -2.196 3.055 -0.42 0.902 -1.986 6.233 -2.121 11.59 -0.956 11.219 0.283 9.535 1.221 5.762 1.761 4.192 2.403 2.83 0.673 0.446 3.325 2.177 0.113 -0.14 -2.82 -2.8 -0.476 -0.484 -1.966 -2.754 -1.534 -3.918 -1.134 -5.496 -0.262 -9.306 0.934 -11.055 2.053 -11.433 1.819 -6.1 0.311 -0.746 1.628 -2.962 -0.408 0.154 0.466 0.488" />
    <path class="write-flat-pen" fill="#FFFFFF" stroke-width="1.6" __comx="754.462" __comy="461.649" __timestamp="0x17932c66b71" d="M735.067 454.071 l-0.325 0.237 -0.353 0.119 0.805 0.633 0.146 -0.132 4.245 -4.48 0.165 -0.153 0.751 -0.455 0.315 0.164 3.364 11.659 1.393 2.07 1.772 0.018 1.828 -3.185 2.473 -16.333 0.389 -0.658 2.994 -0.733 15.132 -0.556 4.364 -0.314 0.008 -0.143 -4.352 -0.813 -15.365 0.231 -3.815 0.934 -0.89 1.505 -2.475 16.344 -1.212 2.112 0.006 0 -0.784 -1.165 -3.516 -12.084 -1.727 -0.822 -1.593 1.016 -0.318 0.309 -3.982 4.831 -0.114 0.189 0.805 0.633 0.022 -0.371 0.18 -0.102" />
    <path class="write-flat-pen" fill="#FFFFFF" stroke-width="1.6" __comx="766.233" __comy="473.471" __timestamp="0x17932c67309" d="M759.253 444.395 l-0.33 0.989 -0.019 0.282 0.102 3.813 0.019 0.543 0.061 6.734 0 0 0.662 0.876 1.241 0.003 -1.241 -0.003 1.241 0.003 6.022 -7.694 0 0 -1.129 -1.103 -2.803 2.289 -0.589 1.664 1.115 2.683 5.283 4.002 0.73 0.204 3.868 1.034 0.076 -0.196 -3.546 -1.859 -0.498 -0.275 -4.593 -3.903 -0.723 -1.737 0.235 -0.665 2.451 -2.013 -1.129 -1.103 0 0 -6.009 7.704 1.241 0.003 -1.241 -0.003 1.241 0.003 -0.369 -0.459 0 0 -0.234 -6.249 -0.055 -0.581 -0.519 -3.764 -0.031 -0.188 -0.075 -0.975" />
    <path class="write-flat-pen" fill="#FFFFFF" stroke-width="1.6" __comx="752.278" __comy="473.471" __timestamp="0x17932c675e1" d="M735.84 467.836 l0.153 -0.987 -0.033 0.078 5.31 -0.716 1.115 0.066 10.606 0.642 10.099 -1.281 1.256 -0.353 1.222 -0.406 3.9 -1.29 -0.04 -0.163 -4.056 0.647 -1.262 0.199 -1.215 0.195 -9.946 0.954 -10.495 -0.534 -1.273 -0.042 -5.685 1.205 -0.41 0.463 0.298 1.353" />
    <path class="write-flat-pen" fill="#FFFFFF" stroke-width="1.6" __comx="753.756" __comy="473.471" __timestamp="0x17932c67847" d="M747.025 477.736 l0.995 -2.41 0.091 -0.111 1.312 -1.117 2.901 -0.866 2.588 -0.05 1.04 0.55 0.385 0.804 -0.195 1.886 -1.526 2.862 -3.179 3.726 -5.26 3.591 0.349 1.769 10.535 0.439 4.267 -0.471 0.003 -0.161 -4.224 -0.605 -9.258 -0.721 0.09 0.467 4.555 -3.135 3.413 -4.026 1.721 -3.296 0.216 -2.617 -0.829 -1.582 -1.798 -0.882 -3.129 0.165 -3.247 1.2 -1.399 1.52 -0.176 0.301 -0.63 2.642" />
    <path class="write-flat-pen" fill="#FFFFFF" stroke-width="1.6" __comx="766.006" __comy="473.471" __timestamp="0x17932c67961" d="M765.271 485.481 l-0.374 1.61 -0.018 0.121 0.017 1.205 0.536 0.385 0.729 -0.264 0.972 -1.505 -0.025 -0.024 -1.316 0.893 -0.569 0.059 0.536 0.385 -0.175 -1.134 -0.003 -0.06 -0.057 -1.647" />
    <path class="write-flat-pen" fill="#FFFFFF" stroke-width="1.6" __comx="776.195" __comy="473.471" __timestamp="0x17932c67c90" d="M774.712 473.941 l-1.027 0.99 -0.137 0.246 -2.498 6.42 -0.05 0.627 0.3 2.508 1.318 2.415 2.142 1.704 2.631 0.638 2.236 -0.587 1.401 -1.435 0.359 -1.98 -0.949 -1.655 -1.836 -0.868 -2.269 0.218 -2.077 1.4 -0.121 2.08 1.56 1.652 0.117 -0.067 -0.419 -1.821 0.323 -0.921 1.169 -0.777 1.432 -0.136 0.991 0.465 0.417 0.718 -0.168 0.934 -0.756 0.777 -1.427 0.379 -1.911 -0.458 -1.635 -1.286 -1.053 -1.872 -0.291 -2.068 0.014 -0.283 2.007 -6.322 0.036 -0.113 0.641 -1.155" />
    <path class="write-flat-pen" fill="#FFFFFF" stroke-width="1.6" __comx="793.55" __comy="447.957" __timestamp="0x17932c67e4c" d="M790.944 436.259 l0.931 2.472 0.413 0.728 5.209 8.664 3.845 7.896 1.42 4.774 0.701 6.425 -0.671 5.028 -1.676 5.03 -2.718 5.061 -10.569 13.443 -1.034 1.302 -1.746 2.329 -0.746 1.068 -2.28 3.256 0.101 0.082 2.724 -2.894 0.893 -0.947 1.933 -2.166 1.106 -1.249 10.952 -13.34 2.858 -5.308 1.767 -5.305 0.716 -5.371 -0.739 -6.762 -1.503 -5.039 -3.966 -8.071 -5.478 -8.585 -0.422 -0.637 -1.273 -2.236" />
    <path class="write-flat-pen" fill="#FFFFFF" stroke-width="1.6" __comx="825.781" __comy="428.613" __timestamp="0x17932c682a9" d="M817.226 409.025 l1.934 1.154 0.553 0.523 7.4 7.177 5.268 6.13 3.603 5.711 2.895 6.604 2.08 7.338 0.936 7.847 -0.123 8.162 -1.265 8.06 -2.652 10.302 -4.168 11.537 -3.763 7.927 -12.142 20.06 -1.328 1.93 -3.104 4.224 -1.642 2.122 -1.542 2.09 -2.099 2.841 0.092 0.075 2.354 -2.633 1.731 -1.932 1.789 -2.014 3.34 -4.085 1.445 -1.927 12.503 -19.991 3.843 -8.069 4.22 -11.682 2.69 -10.45 1.294 -8.248 0.126 -8.382 -0.965 -8.079 -2.152 -7.563 -3.006 -6.804 -3.755 -5.889 -5.435 -6.231 -7.615 -7.089 -0.731 -0.613 -2.267 -0.851" />
    <path class="write-flat-pen" fill="#FFFFFF" stroke-width="1.6" __comx="452.39" __comy="580.172" __timestamp="0x17932c6a491" d="M450.887 593.476 l0.914 7.967 0.118 0.467 0.98 3.745 0 0 0.997 0.535 0 0 0.686 -0.383 0.617 -3.948 -0.321 -8.252 -3.745 -25.069 -0.39 -6.705 0.379 -1.502 1.222 -3.723 -0.178 -0.079 -1.948 3.46 -0.636 1.697 0.353 6.976 3.784 25.058 0.364 8.087 -0.475 3.866 0.686 -0.383 0 0 -0.722 -0.218 0 0 -1.047 -3.328 -0.126 -0.421 -1.331 -7.869" />
    <path class="write-flat-pen" fill="#FFFFFF" stroke-width="1.6" __comx="452.458" __comy="555.557" __timestamp="0x17932c6a692" d="M448.911 559.101 l0.082 -4.979 -0.691 -2.257 -1.423 -0.85 -1.542 1.367 0 0 -3.042 12.223 0 0 1.321 0.472 6.358 -12.882 1.157 -1.209 0 0 -1.342 -0.334 2.157 7.698 2.076 3.723 3.773 3.326 1.223 0.691 3.485 1.966 0.118 -0.174 -3.113 -2.514 -1.018 -0.831 -3.271 -3.381 -1.787 -3.409 -2.112 -7.525 -1.342 -0.334 0 0 -1.32 1.393 -6.312 13.178 1.321 0.472 0 0 2.709 -11.941 0 0 0.656 -0.66 0.458 0.204 0.638 1.732 0.198 4.84" />
    <path class="write-flat-pen" fill="#FFFFFF" stroke-width="1.6" __comx="457.24" __comy="638.446" __timestamp="0x17932c6aa0c" d="M447.81 638.9 l-0.066 -2.103 -0.032 -0.176 -0.987 -0.102 -1.729 2.72 -0.187 0.727 -0.736 5.409 0.357 3.667 0.975 1.757 1.902 0.979 2.415 -0.528 4.029 -3.25 -0.118 -0.021 0.637 2.563 1.583 2.175 2.201 1.284 2.927 0.319 3.491 -1.189 2.449 -1.85 2.31 -3.289 1.158 -3.772 0.018 -3.521 -1.276 -3.418 -2.418 -3.049 -2.567 -1.775 -2.137 0.116 -2.172 1.656 0.123 0.254 2.366 -0.534 1.323 0.108 1.959 1.354 2.113 2.665 1.085 2.906 -0.016 2.992 -1.014 3.304 -2.02 2.876 -2.043 1.544 -2.911 0.991 -2.236 -0.243 -1.617 -0.943 -1.202 -1.651 -0.812 -3.267 -1.622 -0.288 -4.302 3.472 -1.486 0.326 -0.964 -0.494 -0.583 -1.045 -0.319 -3.158 0.641 -5.153 0.105 -0.459 1.262 -2.754 -0.987 -0.102 0.047 0.083 0.471 1.964" />
    <path class="write-flat-pen" fill="#00FF00" stroke-width="1.6" __comx="727.78" __comy="501.975" __timestamp="0x17932c6bdba" d="M666.801 496.752 l-1.3 -1.096 -0.348 -0.014 -1.536 0.571 -1.44 2.083 -0.982 3.981 -0.091 9.121 0.854 8.195 1.046 2.217 1.977 1.446 4.434 0.866 21.036 1.468 19.348 0.199 59.629 4.544 6.74 0.011 7.963 -1.364 5.05 -1.725 1.658 -2.371 3.514 -24.004 0.106 -4.27 -0.296 -0.036 -0.932 4.151 -3.791 23.605 -1.165 1.734 -4.492 1.557 -7.732 1.333 -6.568 -0.008 -59.621 -4.565 -19.351 -0.239 -20.907 -1.45 -4.04 -0.775 -1.442 -1.036 -0.806 -1.672 -0.875 -7.88 -0.007 -8.909 0.78 -3.689 1.04 -1.779 1.057 -0.582 -0.013 -0.016 1.356 0.629" />
    <path class="write-flat-pen" fill="#00FF00" stroke-width="1.6" __comx="704.462" __comy="585.56" __timestamp="0x17932c6c2e6" d="M699.031 588.737 l1.397 -2.013 -0.48 0.006 0.04 0.11 0.395 9.022 0 0 -0.131 1.534 -1.846 11.639 0 0 -1.156 3.26 0 0 1.321 0.25 1.67 -29.86 0.614 -2.975 1.004 -1.338 1.586 -0.838 2.194 -0.102 2.241 0.697 1.735 1.35 0.598 1.242 -0.04 1.988 -1.198 2.671 -2.6 3.288 -2.149 1.516 -0.782 0.033 -0.712 -0.843 -0.676 -2.265 -0.247 0.029 -0.107 2.588 0.941 1.904 2.051 0.042 2.719 -1.906 2.846 -3.607 1.396 -3.117 0.05 -2.645 -0.903 -1.874 -2.223 -1.731 -2.75 -0.853 -2.786 0.137 -2.166 1.155 -1.389 1.869 -0.693 3.402 -1.581 29.973 1.321 0.25 0 0 1.05 -3.403 0 0 1.723 -11.801 0.113 -1.65 0 0 -0.839 -9.219 -0.16 -0.214 -0.48 0.006 -1.063 2.208" />
    <path class="write-flat-pen" fill="#00FF00" stroke-width="1.6" __comx="736.887" __comy="585.56" __timestamp="0x17932c6c799" d="M716.636 569.621 l-0.816 -0.378 0.064 3.597 0.018 0.77 -0.135 9.225 0 0 -1.89 13.906 0 0 0.598 1.182 0 0 1.406 -0.036 4.523 -9.94 1.87 -2.692 0.457 -0.204 0.32 0.25 0.827 6.629 1.099 1.833 1.905 0.099 2.736 -2.042 3.055 -4.155 1.587 -3.643 -0.645 -1.63 -1.947 -0.267 -2.391 1.634 -1.688 2.693 -0.576 2.82 0.776 2.033 1.687 0.647 0 0 2.22 -1.05 0 0 2.776 -3.806 0 0 -1.334 -0.543 -0.39 2.867 0.863 1.936 2.411 -0.414 2.937 -2.278 4.36 -5.268 0 0 0.434 -1.447 0 0 -0.917 -0.708 -1.764 0.937 -1.042 1.909 1.05 1.891 3.536 2.446 0.422 0.848 -0.327 0.89 0 0 -3.351 2.642 0 0 0.792 1.314 6.719 -2.929 4.292 -2.788 1.87 -2.309 0 0 -0.228 -1.223 0 0 -1.293 -0.433 -1.328 1.205 -0.763 2.458 0.322 2.702 1.318 1.909 2.507 1.11 0.876 0.024 3.436 0.052 0.015 -0.111 -3.32 -0.888 -0.653 -0.189 -1.834 -1.148 -0.844 -1.314 -0.231 -2 0.538 -1.733 1.01 -0.92 -1.293 -0.433 0 0 0.1 0.514 0 0 -1.257 1.563 -3.977 2.585 -6.602 2.877 0.792 1.314 0 0 3.653 -2.954 0 0 0.642 -1.905 -0.912 -1.699 -3.571 -2.443 -0.541 -0.94 0.473 -0.912 1.38 -0.82 -0.917 -0.708 0 0 -0.262 1.226 0 0 -4.151 4.921 -2.636 1.878 -0.999 0.106 -0.233 -0.551 0.356 -2.452 -1.334 -0.543 0 0 -2.575 3.479 0 0 -1.289 0.612 0 0 -0.457 -0.17 -0.386 -0.994 0.431 -2.128 1.376 -2.203 1.661 -1.14 0.528 0.068 0.107 0.257 -1.271 2.932 -2.839 3.832 -2.138 1.563 -0.557 -0.033 -0.52 -0.866 -0.865 -6.923 -1.517 -1.213 -1.697 0.738 -2.21 3.152 -4.598 10.06 1.406 -0.036 0 0 -0.401 -0.738 0 0 1.738 -13.529 0 0 -0.043 -9.349 -0.054 -0.818 -0.468 -3.585 -0.816 0.439" />
    <path class="write-flat-pen" fill="#00FF00" stroke-width="1.6" __comx="785.556" __comy="585.56" __timestamp="0x17932c6c9eb" d="M785.449 582.691 l0.862 -3.446 -0.218 -0.506 -1.216 -1.105 -2.073 0.005 -1.895 1.364 -0.992 2.256 0.433 2.007 1.918 1.854 5.219 2.033 1.592 1.219 0.607 1.248 -0.046 1.689 -0.904 1.828 -2.051 1.844 -1.832 0.714 -1.443 -0.072 -1.196 -0.685 -1.483 -1.709 -0.134 0.07 0.667 2.442 1.585 1.413 2.261 0.143 2.421 -0.957 2.468 -2.258 1.155 -2.408 0.04 -2.387 -0.929 -1.887 -2.04 -1.559 -5.139 -1.998 -1.384 -1.333 -0.245 -1.101 0.628 -1.467 1.196 -0.902 1.123 -0.067 0.699 0.516 -0.029 -0.094 -0.387 3.151" />
    <path class="write-flat-pen" fill="#00FF00" stroke-width="1.6" __comx="799.853" __comy="585.56" __timestamp="0x17932c6cab6" d="M799.77 588.001 l-0.099 0.323 -0.052 0.156 -0.054 0.175 -0.053 0.21 -0.041 0.198 -0.034 0.195 -0.029 0.192 -0.009 0.099 -0.011 0.211 -0.001 0.073 0.003 0.092 0.007 0.081 0.012 0.076 0.017 0.074 0.025 0.072 0.777 2.203 0.09 -0.02 -0.24 -2.323 -0.005 -0.062 -0.005 -0.047 -0.005 -0.047 -0.005 -0.052 -0.004 -0.062 -0.002 -0.048 0 -0.19 0.002 -0.071 0.013 -0.172 0.017 -0.183 0.02 -0.183 0.027 -0.193 0.028 -0.169 0.022 -0.154 0.076 -0.321" />
    <path class="write-flat-pen" fill="#00FF00" stroke-width="1.6" __comx="804.153" __comy="585.56" __timestamp="0x17932c6cc8d" d="M798.669 567.721 l-0.843 -0.31 0.248 2.907 0.089 0.731 0.71 14.254 0 0 -0.894 17.266 0 0 1.516 0.276 4.435 -13.795 2.602 -6.139 0 0 0.367 -0.11 -1.028 -0.724 0.621 11.551 1.495 3.216 2.372 0.998 0.12 -0.173 -1.447 -1.664 -0.957 -2.735 -0.606 -11.28 -1.028 -0.724 -1.089 0.325 0 0 -2.924 6.9 -4.413 13.878 1.516 0.276 0 0 0.846 -17.35 0 0 -0.95 -14.375 -0.127 -0.79 -0.667 -2.85 -0.777 0.504" />
    <path class="write-flat-pen" fill="#00FF00" stroke-width="1.6" __comx="816.391" __comy="585.56" __timestamp="0x17932c6cd44" d="M815.635 589.238 l-0.318 3.781 -0.058 0.61 0.383 4.552 1.715 1.575 0.166 -0.126 -0.867 -1.828 -0.191 -4.17 0.026 -0.556 -0.109 -3.819" />
    <path class="write-flat-pen" fill="#00FF00" stroke-width="1.6" __comx="821.233" __comy="585.56" __timestamp="0x17932c6cdd6" d="M822.115 571.851 l-1.886 0.197 0.141 2.666 1.502 2.445 0.082 -0.037 -0.8 -2.58 0.131 -1.567 0.953 -0.167" />
    <path class="write-flat-pen" fill="#00FF00" stroke-width="1.6" __comx="832.302" __comy="585.56" __timestamp="0x17932c6ced9" d="M827.441 596.474 l-0.676 2.349 0.847 0.037 0.014 -0.099 -0.307 -16.539 -0.073 -1.225 -0.026 -4.703 0.744 -3.743 0.729 -0.939 1.346 -0.266 4.486 1.556 0.617 0.269 3.624 1.609 0.068 -0.121 -3.244 -2.28 -0.61 -0.426 -4.79 -2.129 -2.338 0.407 -1.298 1.684 -0.786 4.251 0.118 4.886 0.096 1.235 0.736 16.537 0.04 0.13 0.847 0.037 0.282 -2.429" />
    <path class="write-flat-pen" fill="#00FF00" stroke-width="1.6" __comx="831.063" __comy="585.56" __timestamp="0x17932c6cf8d" d="M822.247 584.23 l-0.008 -0.724 1.525 -0.896 4.166 -0.777 8.686 0.672 4.144 0.662 0.065 -0.279 -4.068 -1.241 -8.889 -1.041 -4.532 0.981 -2.036 1.508 0.291 1.235" />
    <path class="write-flat-pen" fill="#00FF00" stroke-width="1.6" __comx="843.996" __comy="585.56" __timestamp="0x17932c6d059" d="M844.64 569.246 l-0.968 5.396 -0.099 1.328 -0.916 15.766 0.044 4.169 0.104 0.012 1.023 -4.078 0.902 -15.802 0.053 -1.285 0.55 -5.408" />
    <path class="write-flat-pen" fill="#00FF00" stroke-width="1.6" __comx="841.197" __comy="585.56" __timestamp="0x17932c6d0e9" d="M832.415 585.544 l3.31 -0.694 0.642 -0.126 10.23 -3.724 3.59 -2.203 -0.103 -0.204 -3.853 1.544 -10.201 3.401 -0.594 0.148 -3.23 1.098" />
    <path class="write-flat-pen" fill="#FFFFFF" stroke-width="1.6" __comx="128.673" __comy="731.149" __timestamp="0x17932c6dbc9" d="M127.762 717.803 l0.905 14.718 0.008 1.878 -1.031 17.567 -0.099 1.875 0.264 0.071 0.88 -1.775 1.114 -17.709 -0.036 -1.953 -1.314 -14.722" />
    <path class="write-flat-pen" fill="#FFFFFF" stroke-width="1.6" __comx="136.898" __comy="731.149" __timestamp="0x17932c6dd8a" d="M126.224 724.349 l-1.043 -1.229 -0.17 -1.845 0.84 -2.484 2.099 -2.824 3.436 -2.642 4.845 -2.125 3.968 -0.77 3.453 0.158 2.594 1.001 1.509 1.555 0.661 1.678 -0.034 2.326 -1.018 2.775 -2.284 3.405 -3.475 3.308 -2.558 1.24 -2.195 0.218 -1.201 -0.491 -0.517 -0.792 0.07 -0.513 1.111 -1.759 -0.177 -0.189 -2.033 1.186 -0.736 1.426 1.207 1.925 2.04 0.831 2.87 -0.292 3.027 -1.484 3.757 -3.615 2.462 -3.711 1.151 -3.196 0.015 -2.877 -0.894 -2.214 -1.943 -1.984 -3.113 -1.193 -3.859 -0.17 -4.293 0.838 -5.144 2.28 -3.693 2.915 -2.247 3.212 -0.821 2.964 0.454 2.336 1.378 1.298" />
    <path class="write-flat-pen" fill="#FFFFFF" stroke-width="1.6" __comx="164.836" __comy="731.149" __timestamp="0x17932c6df1c" d="M157.958 730.005 l1.821 0.329 0.398 0.015 7.257 0.342 4.274 -0.326 0.007 -0.248 -4.238 -0.567 -7.283 -0.321 -0.389 0.029 -1.804 0.101" />
    <path class="write-flat-pen" fill="#FFFFFF" stroke-width="1.6" __comx="168.93" __comy="731.149" __timestamp="0x17932c6dfe4" d="M163.275 736.113 l-0.193 1.103 7.608 3.492 3.951 1.183 0.137 -0.351 -3.686 -1.786 -7.619 -3.4 0.476 0.429" />
    <path class="write-flat-pen" fill="#FFFFFF" stroke-width="1.6" __comx="201.832" __comy="731.149" __timestamp="0x17932c6e286" d="M191.352 717.125 l1.853 -3.618 0.288 -0.262 3.362 -2.116 3.593 -1.29 4.727 -0.66 2.584 0.337 1.937 1.056 1.364 2.201 0.353 2.066 -0.512 3.537 -2.064 5.014 -3.649 5.355 -11.335 11.01 -0.919 2.031 2.463 1.165 13.085 0.662 4.397 -0.399 0.011 -0.287 -4.34 -0.724 -12.75 -0.83 -0.766 -0.36 0.146 -0.328 11.194 -10.946 3.809 -5.626 2.173 -5.341 0.56 -3.954 -0.447 -2.58 -1.727 -2.773 -2.522 -1.371 -3.056 -0.389 -5.069 0.751 -3.85 1.479 -3.476 2.431 -0.482 0.513 -1.542 3.976" />
    <path class="write-flat-pen" fill="#FFFFFF" stroke-width="1.6" __comx="224.59" __comy="731.149" __timestamp="0x17932c6e3c2" d="M224.122 728.637 l-0.55 -0.235 0 1.381 0.018 0.488 0.025 10.435 -0.019 0.878 0.609 3.873 0.838 0.422 0.569 -0.811 -0.145 -0.25 -0.987 0.092 0.838 0.422 -0.259 -3.819 0.007 -0.812 -0.45 -10.494 -0.088 -0.545 -0.411 -1.342 -0.55 0.318" />
    <path class="write-flat-pen" fill="#FFFFFF" stroke-width="1.6" __comx="232.921" __comy="731.149" __timestamp="0x17932c6e481" d="M232.47 729.527 l-0.424 3.572 -0.064 0.823 -0.203 8.101 0.791 2.106 1.379 0.766 0.112 -0.107 -0.52 -1.222 -0.347 -1.74 -0.033 -7.871 0.008 -0.797 0.002 -3.589" />
    <path class="write-flat-pen" fill="#FFFFFF" stroke-width="1.6" __comx="228.222" __comy="731.149" __timestamp="0x17932c6e53f" d="M210.347 730.434 l0.426 -0.465 0.177 -0.044 7.596 -1.846 1.828 -0.406 19.275 -5.132 1.764 -0.629 1.676 -0.649 3.597 -1.387 -0.045 -0.151 -3.772 0.796 -1.756 0.368 -1.807 0.403 -19.3 4.872 -1.831 0.43 -7.632 2.296 -0.539 0.335 -0.242 0.924" />
    <path class="write-flat-pen" fill="#FFFFFF" stroke-width="1.6" __comx="244.708" __comy="746.063" __timestamp="0x17932c6e72e" d="M223.101 776.506 l2.672 -1.903 0.889 -0.804 6.159 -6.656 31.043 -43.499 0.933 -1.537 1.983 -3.241 -0.286 -0.206 -2.444 2.91 -1.162 1.373 -31.256 43.247 -5.847 6.766 -0.766 0.795 -2.382 2.181" />
    <path class="write-flat-pen" fill="#FFFFFF" stroke-width="1.6" __comx="272.151" __comy="746.063" __timestamp="0x17932c6e9bd" d="M261.011 757.437 l0.017 -1.807 0.005 -0.001 0 -0.002 -0.485 -0.487 -0.568 -0.163 -0.303 0.765 -3.002 9.292 -0.835 5.556 0.743 2.379 1.746 1.306 2.753 0.061 3.138 -1.276 8.659 -6.821 1.074 -0.263 0 0 -0.99 -0.801 -0.171 5.718 0.772 3.369 1.786 2.132 2.425 0.963 3.142 -0.575 2.427 -1.655 2.539 -3.478 1.709 -4.67 0.867 -6.186 -0.413 -4.379 -1.199 -3.377 -1.789 -2.411 -1.93 -0.637 -1.435 0.907 -1.627 2.151 0.124 0.139 2.198 -1.264 0.855 -0.236 0.827 0.295 1.348 1.816 1.052 2.964 0.377 3.995 -0.817 5.832 -1.574 4.298 -2.244 3.073 -1.919 1.309 -2.357 0.431 -1.622 -0.644 -1.279 -1.526 -0.64 -2.794 0.165 -5.513 -0.99 -0.801 0 0 -1.411 0.345 -8.754 6.896 -2.622 1.067 -1.91 -0.041 -0.923 -0.689 -0.482 -1.536 0.75 -5.076 2.742 -9.212 -0.049 0.064 -0.318 -0.176 -0.485 -0.487 0 -0.002 0.001 0.081 0.417 1.836" />
    <path class="write-flat-pen" fill="#FFFFFF" stroke-width="1.6" __comx="333.754" __comy="746.063" __timestamp="0x17932c6ec0c" d="M324.226 733.983 l1.386 -1.082 0.338 -0.097 3.216 -0.274 10.066 1.391 4.3 -0.105 0.01 -0.181 -4.225 -0.565 -10.134 -1.565 -3.426 0.478 -0.576 0.237 -1.217 1.497" />
    <path class="write-flat-pen" fill="#FFFFFF" stroke-width="1.6" __comx="340.27" __comy="746.063" __timestamp="0x17932c6ecbd" d="M329.99 739.884 l2.079 1.156 0.88 0.127 13.608 -0.386 3.994 -0.341 -0.001 -0.116 -4.003 -0.242 -13.544 0.039 -0.663 -0.056 -2.101 -0.73" />
    <path class="write-flat-pen" fill="#FFFFFF" stroke-width="1.6" __comx="409.942" __comy="730.324" __timestamp="0x17932c6f06e" d="M403.586 723.896 l-0.058 -1.663 0.006 -0.287 0.34 -3.052 0.095 -0.374 1.051 -2.641 1.565 -1.885 2.655 -1.268 3.666 -0.401 3.122 0.419 1.655 0.933 0.89 1.484 0.01 2.408 -1.323 3.19 -2.966 3.898 -4.13 3.706 -10.334 5.788 -0.533 1.015 0.441 1.125 2.804 0.994 13.739 1.089 4.265 0.357 0.038 -0.179 -4.115 -1.417 -13.58 -1.425 -2.616 -0.926 0.441 1.125 0.312 -0.595 10.069 -5.65 4.376 -3.921 3.185 -4.182 1.525 -3.679 -0.017 -3.167 -1.333 -2.22 -2.292 -1.287 -3.62 -0.472 -4.12 0.491 -3.157 1.6 -1.818 2.389 -0.959 3.001 -0.085 0.545 0.053 3.192 0.052 0.35 0.442 1.631" />
    <path class="write-flat-pen" fill="#FFFFFF" stroke-width="1.6" __comx="432.418" __comy="730.324" __timestamp="0x17932c6f1df" d="M432.384 727.154 l0.005 0.446 -0.017 0.135 -0.206 4.367 -0.084 0.992 -0.766 9.27 1.061 0.102 0.097 -0.161 0.012 -0.529 0.983 -8.568 0.051 -1.062 -0.221 -4.477 -0.084 -0.333 -0.429 -0.39" />
    <path class="write-flat-pen" fill="#FFFFFF" stroke-width="1.6" __comx="445.471" __comy="730.324" __timestamp="0x17932c6f2a9" d="M446.744 721.844 l-0.783 2.463 -0.177 0.681 -2.158 13.684 0.329 4.329 0.272 0.014 0.762 -4.209 1.833 -13.632 0.104 -0.651 0.389 -2.544" />
    <path class="write-flat-pen" fill="#FFFFFF" stroke-width="1.6" __comx="439.489" __comy="730.324" __timestamp="0x17932c6f396" d="M424.706 724.352 l0.206 1.05 0.807 0.151 24.432 -2.026 4.114 -0.267 0.008 -0.279 -4.147 -0.498 -24.362 1.776 0.015 0.035 -0.326 -0.249" />
    <path class="write-flat-pen" fill="#FFFFFF" stroke-width="1.6" __comx="465.728" __comy="730.324" __timestamp="0x17932c6fbc2" d="M465.984 736.799 l-0.787 0.044 0.238 0.32 0.55 -1.144 -0.055 0.07 -0.902 -0.041 0.318 0.318 1.439 0.225 0.13 -0.25 -0.813 -0.947 -0.132 -0.186 -0.902 -0.041 -0.173 0.181 -0.353 1.939 0.331 0.468 1.221 -0.635" />
    <path class="write-flat-pen" fill="#FFFFFF" stroke-width="1.6" __comx="505.287" __comy="730.324" __timestamp="0x17932c6ff35" d="M480.003 726.061 l-0.653 0.641 0.527 0.724 0.13 -0.018 3.238 -1.963 -0.051 0.035 0.588 -0.123 0.514 0.527 2.261 16.039 1.105 2.917 1.545 0.669 1.764 -1.992 3.904 -14.086 3.933 -10.805 0.121 -3.229 27.437 0.42 0.714 -0.178 4.145 -1.057 -0.025 -0.185 -4.276 0.1 -0.633 0.007 -28.901 -0.74 -0.171 4.55 -3.869 10.628 -3.822 13.79 -0.75 0.847 0.14 0.061 -0.803 -2.118 -2.37 -16.384 -1.536 -1.429 -1.597 0.448 -0.156 0.103 -2.869 2.233 0.043 0.006 0.527 0.724 0.316 -0.859" />
    <path class="write-flat-pen" fill="#FFFFFF" stroke-width="1.6" __comx="457.603" __comy="765.237" __timestamp="0x17932c703fc" d="M390.898 752.33 l-0.558 0.894 0.133 0.377 2.631 1.45 1.198 0.195 5.194 0.304 46.577 -3.661 42.892 -2.49 26.192 -0.549 3.432 0.1 2.992 -0.006 3.273 0.001 0.013 -0.266 -3.256 -0.331 -2.976 -0.309 -3.458 -0.259 -26.265 0.153 -42.94 2.51 -46.5 3.894 -5.079 -0.123 -1.014 -0.102 -2.669 -1.02 0.133 0.377 0.368 -0.988" />
    <path class="write-flat-pen" fill="#FFFFFF" stroke-width="1.6" __comx="448.058" __comy="765.237" __timestamp="0x17932c706ed" d="M441.297 761.478 l0.465 -1.636 0.151 -0.181 2.651 -2.53 3.871 -2.092 3.356 -0.856 2.093 0.106 1.258 0.716 0.787 1.312 -0.018 1.457 -0.95 2.044 -2.275 2.355 -10.142 6.503 -3.288 2.893 -1.253 2.144 0.354 1.715 2.387 0.858 8.69 -0.133 4.443 1.043 4.176 0.825 0.062 -0.175 -3.825 -2.006 -4.666 -1.29 -8.613 0.132 -1.269 -0.456 -0.049 -0.236 0.813 -1.391 3.003 -2.643 10.194 -6.543 2.585 -2.688 1.196 -2.601 0.008 -2.241 -1.243 -2.028 -1.937 -1.073 -2.682 -0.109 -3.745 1.004 -4.135 2.4 -2.627 2.952 -0.271 0.46 -0.092 1.904" />
    <path class="write-flat-pen" fill="#FFFFFF" stroke-width="1.6" __comx="469.26" __comy="765.237" __timestamp="0x17932c707e6" d="M470.012 771.771 l-1.353 0.208 -0.418 0.808 0.361 0.802 1.667 -0.363 0.011 -0.206 -0.893 -0.505 -0.008 -0.162 -0.418 0.808 1.288 -0.465" />
    <path class="write-flat-pen" fill="#FFFFFF" stroke-width="1.6" __comx="489.253" __comy="765.237" __timestamp="0x17932c7098f" d="M485.28 760.779 l-1.77 -0.175 -0.538 0.356 -2.225 2.2 -2.056 4.033 -0.825 4.149 0.691 4.325 1.573 2.916 2.45 2.162 3.198 1.164 4.098 -0.096 3.653 -1.176 3.941 -2.574 2.288 -2.758 0.881 -2.789 -0.511 -1.877 -1.782 -1.614 -2.943 -0.927 -3.456 -0.011 -4.835 1.229 -5.118 3.447 -0.316 0.459 -2.253 3.391 0.135 0.114 2.965 -2.789 0.278 -0.245 4.945 -2.895 4.396 -1.109 3.01 0.01 2.377 0.749 1.175 1.065 0.264 0.972 -0.645 2.042 -1.934 2.331 -3.559 2.325 -3.227 1.039 -3.565 0.084 -2.631 -0.957 -2.011 -1.772 -1.311 -2.426 -0.611 -3.777 0.71 -3.664 1.802 -3.661 1.88 -2.029 0.077 -0.075 1.353 -0.245" />
    <path class="write-flat-pen" fill="#8F3AC9" stroke-width="1.6" __comx="178.095" __comy="88.313" __timestamp="0x17932c72c2b" d="M175.957 82.573 l-0.412 0.727 0.045 0.443 0.737 5.035 0.166 1.127 2.552 22.326 0.157 7.211 0.934 -0.489 -0.955 -0.044 -0.105 0.153 0.386 0.875 0.934 -0.489 0.249 -7.307 -2.693 -22.444 -0.213 -1.171 -1.158 -4.97 -0.077 -0.217 -0.04 -0.629" />
    <path class="write-flat-pen" fill="#8F3AC9" stroke-width="1.6" __comx="191.285" __comy="94.183" __timestamp="0x17932c72e2c" d="M198.564 92.378 l-0.439 -1.715 -0.287 -0.359 -1.493 -0.516 -3.351 1.381 -7.076 5.054 -4.593 4.29 -1.111 2.033 0.17 1.801 2.827 2.802 15.106 10.786 3.935 1.705 0.103 -0.179 -3.399 -2.508 -14.703 -11.024 -2.331 -2.309 -0.07 -0.737 0.752 -1.379 4.325 -4.054 6.815 -4.976 2.705 -1.297 0.776 0.108 -0.024 -0.059 0.774 1.384" />
    <path class="write-flat-pen" fill="#8F3AC9" stroke-width="1.6" __comx="307.971" __comy="40.998" __timestamp="0x17932c734f1" d="M400.588 40.752 l-7.707 -6.881 -8.213 -5.928 -8.04 -4.486 -8.856 -3.794 -9.83 -2.865 -11.177 -2.118 -12.631 -1.374 -21.534 -0.521 -20.322 0.548 -21.772 1.81 -22.361 2.865 -22.008 3.834 -17.215 3.803 -12.298 3.481 -11.026 4.097 -10.082 4.696 -9.497 5.603 -8.814 6.533 -5.373 4.907 -6.855 7.921 -3.883 5.924 -3.184 6.484 -2.407 7.006 -2.302 11.072 -0.785 15.181 1.235 11.25 2.84 10.975 2.885 7.193 5.77 10.522 4.815 6.779 5.811 6.534 6.906 6.227 8.053 5.7 13.319 7.499 14.354 6.347 10.48 3.769 16.454 4.718 11.051 2.331 17.432 2.175 18.515 0.48 18.333 -1.33 18.296 -2.95 18.666 -4.605 18.8 -5.968 18.359 -7.026 23.484 -10.227 16.473 -8.161 14.974 -8.487 13.441 -8.911 11.885 -9.371 10.446 -9.779 6.007 -6.782 7.822 -10.564 6.437 -10.784 3.341 -7.176 3.286 -10.681 1.062 -7.067 0.076 -6.823 -1.248 -6.758 -2.557 -6.63 -4.066 -6.496 -5.732 -6.253 -7.171 -5.936 -8.585 -5.662 -10.099 -5.356 -16.843 -7.472 -11.776 -4.243 -18.409 -5.235 -12.283 -2.518 -17.173 -2.107 -15.922 -0.339 -14.653 1.346 -9.159 1.691 -12.603 3.941 -3.876 1.712 -2.67 1.175 0.078 0.195 2.747 -0.98 3.963 -1.408 12.604 -3.619 9.069 -1.566 14.542 -1.234 15.787 0.373 17.055 2.108 12.183 2.504 18.315 5.218 11.683 4.225 16.745 7.457 9.988 5.322 8.456 5.602 7.03 5.835 5.575 6.089 3.922 6.273 2.464 6.379 1.207 6.492 -0.064 6.589 -1.022 6.87 -3.203 10.5 -3.251 7.039 -6.331 10.692 -7.717 10.493 -5.914 6.714 -10.352 9.719 -11.796 9.32 -13.363 8.864 -14.907 8.453 -16.416 8.136 -23.428 10.217 -18.299 7.012 -18.729 5.957 -18.582 4.594 -18.199 2.945 -18.228 1.341 -18.409 -0.445 -17.338 -2.143 -10.971 -2.31 -16.383 -4.702 -10.41 -3.748 -14.273 -6.312 -13.227 -7.446 -7.96 -5.628 -6.818 -6.144 -5.731 -6.45 -4.742 -6.684 -5.706 -10.414 -2.837 -7.069 -2.792 -10.836 -1.195 -11.087 0.788 -15.007 2.276 -10.918 2.372 -6.867 3.132 -6.352 3.813 -5.793 6.768 -7.805 5.275 -4.826 8.712 -6.469 9.398 -5.54 9.99 -4.65 10.939 -4.069 12.215 -3.485 17.152 -3.819 21.955 -3.851 22.311 -2.881 21.718 -1.844 20.267 -0.592 21.471 0.479 12.56 1.337 11.109 2.067 9.76 2.788 8.812 3.68 8.024 4.364 8.207 5.829 7.821 6.711" />
    <path class="write-flat-pen" fill="#8F3AC9" stroke-width="1.6" __comx="512.685" __comy="723.728" __timestamp="0x17932c73efd" d="M512.489 723.167 l-0.246 -1.137 0.018 -0.069 0.731 -1.874 -0.887 0.357 0.887 -0.357 -0.887 0.357 -0.235 -0.12 0.418 21.519 0 0 1.596 -0.08 -0.156 -1.057 -0.089 -1.886 -0.204 -0.059 -1.161 1.791 0.015 1.326 1.596 -0.08 0 0 -0.801 -22.187 -0.365 -0.198 -0.887 0.357 0.887 -0.357 -0.887 0.357 -0.351 2.106 0.038 0.315 0.675 1.095" />
    <path class="write-flat-pen" fill="#8F3AC9" stroke-width="1.6" __comx="521.574" __comy="723.529" __timestamp="0x17932c740fe" d="M526.81 721.64 l-0.574 -0.768 -0.291 -0.066 -1.928 0.486 -0.579 0.323 -7.724 5.339 -3.441 3.354 0.234 1.296 5.312 2.361 8.834 5.011 4.182 1.317 0.04 -0.082 -3.596 -2.413 -8.73 -5.257 -5.397 -2.39 0.234 1.296 3.338 -3.284 7.437 -5.453 0.402 -0.279 1.463 -0.732 -0.153 -0.043 0.674 0.294" />
    <path class="write-flat-pen" fill="#FFFFFF" stroke-width="1.6" __comx="637.513" __comy="737.122" __timestamp="0x17932c74e05" d="M586.257 744.024 l0.255 -1.524 2.278 -2.505 6.324 -4.265 10.093 -5.092 6.957 -2.527 7.306 -1.564 7.128 -0.448 6.81 0.857 7.944 2.359 14.728 7.218 6.281 2.394 6.687 1.446 9.437 0.858 7.072 -0.322 3.967 -0.473 -0.008 -0.11 -3.983 0.075 -7.018 -0.025 -9.328 -0.907 -6.564 -1.426 -6.179 -2.35 -14.759 -7.235 -8.088 -2.412 -6.972 -0.88 -7.284 0.458 -7.435 1.597 -7.065 2.577 -10.184 5.159 -6.439 4.386 -2.475 2.795 -0.244 1.771" />
    <path class="write-flat-pen" fill="#FFFFFF" stroke-width="1.6" __comx="690.655" __comy="737.122" __timestamp="0x17932c74fc0" d="M685.924 735.483 l0.258 -5.227 0 0 0.024 -0.387 0 0 -0.138 -1.586 0 0 -0.827 0.345 1.292 1.755 6.065 2.956 1.563 1.495 1.065 5.21 0.339 4.005 0.206 0.001 0.393 -4.088 -0.939 -5.703 -1.97 -1.871 -6.044 -2.848 -1.237 -1.484 -0.827 0.345 0 0 0.259 1.504 0 0 -0.003 0.332 0 0 0.166 5.241" />
    <path class="write-flat-pen" fill="#FFFFFF" stroke-width="1.6" __comx="737.521" __comy="737.122" __timestamp="0x17932c754db" d="M739.203 723.108 l0.035 -0.751 0.016 -0.298 -1.742 -0.706 -0.639 0.273 -3.691 2.67 -2.267 2.852 0.223 2.091 8.401 4.686 1.895 1.835 0.96 2.004 0.132 1.863 -0.571 1.393 -1.572 1.312 -2.35 0.753 -4.508 -0.153 -0.818 0.222 -0.044 0.089 0.532 0.892 5.029 0.567 2.943 -0.947 2.11 -1.771 0.851 -2.104 -0.188 -2.527 -1.21 -2.525 -2.243 -2.178 -7.888 -4.381 -0.082 -0.665 1.722 -2.233 3.304 -2.63 0.076 -0.06 0.784 0.001 0.014 -0.238 0.41 0.759" />
    <path class="write-flat-pen" fill="#FFFFFF" stroke-width="1.6" __comx="752.133" __comy="737.122" __timestamp="0x17932c7563e" d="M754.252 734.651 l-0.423 -2.667 -0.178 -0.385 -1.355 -1.44 -2.308 -0.308 -1.972 0.852 -1.579 2.024 -0.6 2.468 0.391 2.608 1.278 2.093 2.425 1.416 2.953 0.046 2.578 -1.059 2.04 -1.952 0.929 -2.201 -0.236 -1.955 -1.666 -1.753 -2.485 0.906 -1.006 2.195 0.111 0.083 1.585 -1.274 1.307 -0.168 0.636 0.716 0.125 1.023 -0.632 1.516 -1.581 1.533 -2.006 0.842 -2.24 -0.008 -1.774 -1.003 -0.952 -1.511 -0.337 -2.038 0.433 -1.918 1.158 -1.547 1.323 -0.618 1.565 0.125 1.051 0.926 0.077 0.114 0.793 2.455" />
    <path class="write-flat-pen" fill="#FFFFFF" stroke-width="1.6" __comx="777.541" __comy="737.122" __timestamp="0x17932c758cb" d="M762.544 733.724 l0.218 0.225 -0.053 -0.174 -0.566 4.809 -0.075 0.404 -0.579 2.745 0 0 0.602 0.845 0 0 1.26 -0.082 4.384 -7.478 0 0 1.022 -0.827 0 0 -1.301 -0.624 -0.023 5.514 0.972 2.095 2.008 0.304 2.47 -1.217 3.37 -3.103 -0.331 -0.073 0.094 1.304 1.366 1.646 2.614 0.844 2.702 -0.495 2.738 -1.564 1.551 -2.039 0.009 -1.944 -1.621 -0.706 -1.801 1.589 -0.574 2.203 0.849 2.112 2.022 1.348 2.987 0.536 0.9 -0.045 3.819 -0.2 0.015 -0.273 -3.776 -0.607 -0.784 -0.135 -2.541 -0.705 -1.358 -0.951 -0.473 -1.185 0.32 -1.233 0.686 -0.607 -0.251 -0.11 -0.001 0.38 -1.035 1.368 -2.227 1.276 -2.052 0.38 -1.809 -0.582 -0.757 -0.911 -0.138 -1.989 -1.617 -0.335 -3.803 3.479 -1.82 0.89 -0.666 -0.101 -0.463 -0.994 0.024 -5.158 -1.301 -0.624 0 0 -1.248 1.013 0 0 -4.468 7.768 1.26 -0.082 0 0 -0.268 -0.284 0 0 0.355 -2.148 0.067 -0.482 0.156 -4.995 -0.111 -0.56 -0.906 0.108" />
    <path class="write-flat-pen" fill="#FFFFFF" stroke-width="1.6" __comx="832.63" __comy="737.122" __timestamp="0x17932c75b0c" d="M827.386 740.756 l-0.782 3.462 -0.039 0.282 0.002 -0.023 -0.447 1.207 0 0 1.173 0.044 0.007 -0.186 -1.574 -14.295 0.113 -4.245 0.841 -2.855 1.694 -2.571 1.942 -1.523 3.141 -1.223 2.461 -0.198 1.429 0.454 1.667 1.728 1.945 2.893 0.172 -0.087 -1.231 -3.381 -1.681 -2.386 -2.085 -0.803 -3.033 0.202 -3.585 1.396 -2.333 1.83 -1.967 2.988 -0.966 3.284 -0.116 4.572 1.934 14.362 0.047 0.173 1.173 0.044 0 0 0.03 -1.324 0.002 -0.023 0.007 -0.248 0.369 -3.502" />
    <path class="write-flat-pen" fill="#FFFFFF" stroke-width="1.6" __comx="830.859" __comy="737.122" __timestamp="0x17932c75be0" d="M823.283 734.717 l0.547 -0.286 -0.023 0.021 10.836 1.351 4.259 -0.228 0.004 -0.099 -4.183 -0.595 -10.831 -1.52 -0.503 0.01 -0.578 0.899" />
    <path class="write-flat-pen" fill="#FFFFFF" stroke-width="1.6" __comx="839.187" __comy="737.122" __timestamp="0x17932c75d18" d="M839.614 738.873 l0.717 0.305 0.363 -0.304 -0.533 -1.111 -0.59 -0.047 -1.901 0.861 -1.051 1.871 0.544 1.623 1.814 0.798 2.158 -0.543 0.62 -1.664 -0.782 -0.905 -0.521 0.57 0.141 0.49 0.744 0.205 -0.782 -0.905 -0.538 0.878 -0.919 0.249 -0.745 -0.294 -0.17 -0.387 0.468 -0.993 1.166 -0.729 -0.23 -0.032 0.221 -0.042 0.315 -0.263 -0.485 0.154" />
    <path class="write-flat-pen" fill="#FFFFFF" stroke-width="1.6" __comx="849.276" __comy="737.122" __timestamp="0x17932c75e2c" d="M845.589 742.008 l-0.177 0.49 0.058 -0.105 0.657 0.352 0.438 -0.957 0.089 -0.255 1.614 -4.055 0.725 -0.822 1.532 0.34 2.511 1.364 0.142 -0.175 -2.047 -2.333 -2.642 -0.923 -1.515 1.789 -1.505 4.437 -0.072 0.341 -0.025 1.075 0.657 0.352 0.114 -0.163 -0.258 -0.775" />
    <path class="write-flat-pen" fill="#FFFFFF" stroke-width="1.6" __comx="868.909" __comy="737.122" __timestamp="0x17932c76195" d="M857.935 737.758 l-1.619 0.543 -0.236 0.422 -1.462 3.954 -0.012 2.034 0 0 0.983 0.704 1.383 -0.419 0 0 2.982 -3.922 0 0 0.499 -0.089 0 0 -0.939 -0.721 0.138 1.719 1.652 1.063 4.285 -2.196 -0.08 -0.026 0.065 1.603 1.341 1.114 2.406 -0.243 2.1 -1.432 0 0 0.389 -1.395 0 0 -1.448 0.163 0.58 1.123 2.129 0.515 1.937 -0.562 -0.069 -0.04 -0.302 2.083 0.847 1.752 2.164 1.025 2.871 -0.869 2.694 -2.128 -0.13 -0.224 -3.028 1.19 -2.231 0.345 -1.146 -0.544 -0.389 -0.804 0.384 -2.657 -1.447 -0.857 -2.195 0.642 -1.022 -0.241 -0.263 -0.479 -1.448 0.163 0 0 -0.208 0.849 0 0 -1.31 0.868 -1.354 0.109 -0.282 -0.241 -0.081 -2.001 -1.607 -0.532 -4.061 2.082 -0.213 -0.137 -0.076 -0.931 -0.939 -0.721 0 0 -1.108 0.206 0 0 -3.032 4.044 0 0 -0.899 0.318 0.983 0.704 0 0 -0.069 -1.789 1.12 -3.719 -0.009 -0.018 1.094 -0.754" />
    <path class="write-flat-pen" fill="#FFFFFF" stroke-width="1.6" __comx="885.823" __comy="737.122" __timestamp="0x17932c76256" d="M885.798 726.638 l-0.441 5.247 0.004 0.91 -0.221 11.88 0.726 4.117 0.254 -0.019 0.118 -4.127 0.269 -11.853 -0.039 -0.898 0.017 -5.228" />
    <path class="write-flat-pen" fill="#FFFFFF" stroke-width="1.6" __comx="891.957" __comy="737.122" __timestamp="0x17932c763b7" d="M894.224 736.471 l0.613 -1.369 -0.539 -0.333 -2.119 0.13 -2.216 1.282 -0.887 1.594 0.776 1.458 2.846 0.121 0.45 0.479 -2.578 8.05 0.501 3.911 0.234 0.004 0.646 -3.688 2.711 -8.673 -1.45 -1.298 -2.581 -0.137 -0.12 -0.221 0.374 -0.718 1.67 -1.059 1.546 -0.287 -0.307 -0.199 -0.031 0.816" />
    <path class="write-flat-pen" fill="#FFFFFF" stroke-width="1.6" __comx="237.606" __comy="911.617" __timestamp="0x17932c77ddc" d="M231.118 910.091 l1.173 -0.461 0.196 -0.051 7.824 -0.999 4.108 -0.215 0.01 -0.193 -4.156 -0.652 -8.058 0.971 -0.393 0.174 -1.041 0.863" />
    <path class="write-flat-pen" fill="#FFFFFF" stroke-width="1.6" __comx="239.207" __comy="911.617" __timestamp="0x17932c77e83" d="M233.622 915.651 l1.556 -0.354 0.301 -0.01 5.567 0.737 3.901 0.568 0.053 -0.219 -3.775 -1.282 -5.729 -0.867 -0.55 0.084 -1.53 0.783" />
    <path class="write-flat-pen" fill="#FFFFFF" stroke-width="1.6" __comx="322.158" __comy="915.778" __timestamp="0x17932c7820c" d="M316.069 905.349 l-0.922 -1.219 0.03 0.03 1.918 -3.292 0.283 -0.259 2.312 -1.443 2.709 -0.713 2.516 0.28 1.644 0.962 1.13 1.565 0.458 2.185 -0.546 2.882 -2.152 3.999 -2.789 3.248 -9.423 7.037 -1.348 2.084 0.58 2.217 2.243 1.664 3.086 0.821 4.097 -0.16 6.798 -2.396 3.732 -2.136 -0.071 -0.169 -4.086 1.161 -6.656 1.95 -3.636 0.142 -2.557 -0.68 -1.545 -1.146 -0.259 -0.99 0.809 -1.251 9.334 -6.971 3.017 -3.513 2.35 -4.37 0.649 -3.438 -0.596 -2.828 -1.53 -2.109 -2.231 -1.294 -3.145 -0.327 -3.209 0.894 -2.583 1.726 -0.529 0.539 -1.772 3.923 0.063 0.584 1.465 1.172" />
    <path class="write-flat-pen" fill="#FFFFFF" stroke-width="1.6" __comx="342.244" __comy="915.778" __timestamp="0x17932c7831e" d="M340.861 914.83 l0.678 1.026 0.061 0.174 0.726 3.425 -0.001 -0.005 0.079 4.253 0.859 0.382 0.166 -0.573 -0.277 -0.299 -0.584 0.123 0.859 0.382 0.201 -4.421 -0.001 -0.005 -1.07 -3.623 -0.219 -0.37 -1.056 -0.855" />
    <path class="write-flat-pen" fill="#FFFFFF" stroke-width="1.6" __comx="352.304" __comy="915.778" __timestamp="0x17932c783cb" d="M351.443 910.819 l-0.222 3.208 -0.024 0.675 0.373 7.588 1.591 3.479 0.251 -0.075 -0.544 -3.63 -0.438 -7.391 -0.017 -0.639 -0.188 -3.21" />
    <path class="write-flat-pen" fill="#FFFFFF" stroke-width="1.6" __comx="347.806" __comy="915.778" __timestamp="0x17932c78480" d="M333.507 917.514 l1.628 -1.406 0.428 -0.213 7.352 -2.24 14.464 -3.038 1.246 -0.237 4.094 -0.753 -0.029 -0.307 -4.163 0.017 -1.335 0.004 -14.67 2.801 -7.498 2.534 -0.679 0.425 -1.452 1.826" />
    <path class="write-flat-pen" fill="#FFFFFF" stroke-width="1.6" __comx="481.191" __comy="905.356" __timestamp="0x17932c78f3d" d="M378.772 920.093 l-0.274 -0.557 -0.109 0.227 3.38 -2.709 4.828 -2.838 2.922 -0.979 0.562 0.178 3.278 13.169 3.771 20.895 1.546 5.421 1.502 2.523 1.677 0.822 1.684 -1.521 8.791 -35.562 2.216 -11.682 1.141 -15.289 0.323 -0.575 22.799 -1.453 21.925 0.087 27.535 -1.853 47.497 -0.234 20.432 0.627 19.481 -2.053 3.53 0.146 1.783 0.667 1.048 1.081 1.043 3.008 0.289 5.268 -1.684 16.025 -0.013 0.366 -0.17 4.333 0.062 0.01 1.191 -4.17 0.106 -0.376 2.113 -16.138 -0.309 -5.63 -1.233 -3.555 -1.546 -1.594 -2.36 -0.882 -3.902 -0.161 -19.49 2.054 -20.352 -0.624 -47.576 0.234 -27.527 1.852 -21.922 -0.087 -23.72 1.512 -0.923 1.643 -1.161 15.553 -2.191 11.55 -8.642 35.058 -0.535 0.49 -0.306 -0.147 -1.163 -1.946 -1.475 -5.149 -3.772 -20.873 -3.645 -13.936 -1.732 -0.519 -3.467 1.188 -4.995 3.051 -3.357 3.134 -0.271 0.505 1.032 0.751" />
    <path class="write-flat-pen" fill="#FFFFFF" stroke-width="1.6" __comx="475.388" __comy="947.909" __timestamp="0x17932c7962a" d="M466.037 951.515 l0.745 0.917 0.532 0.042 5.656 -2.611 0.651 -0.511 3.013 -2.973 1.086 -2.31 -0.654 -2.079 -2.348 -0.439 -2.812 1.234 -2.554 2.366 -1.823 3.037 -0.971 3.634 0.276 2.824 1.301 2.406 2.574 1.767 3.428 0.703 4.014 -0.559 3.888 -2.301 2.699 -3.024 -0.126 -0.145 -3.262 2.168 -3.701 1.755 -3.459 0.481 -2.842 -0.583 -1.989 -1.365 -0.964 -1.783 -0.217 -2.214 0.838 -3.136 1.59 -2.649 2.189 -2.03 2.115 -0.93 0.927 0.17 0.187 0.579 -0.697 1.504 -2.725 2.749 -0.454 0.371 -5.078 2.795 0.116 0.029 -0.722 -0.378" />
    <path class="write-flat-pen" fill="#FFFFFF" stroke-width="1.6" __comx="609.126" __comy="944.714" __timestamp="0x17932c7a929" d="M571.828 989.61 l-1.573 0.223 -0.306 -0.414 0.64 -2.615 3.248 -6.432 10.02 -16.275 10.072 -14.308 9.377 -11.912 24.542 -28.473 15.589 -19.971 1.626 -2.413 2.485 -4.094 1.731 -3.021 -0.154 -0.1 -2.043 2.814 -2.815 3.854 -1.7 2.307 -15.858 19.679 -24.591 28.437 -9.419 11.977 -10.088 14.409 -9.878 16.487 -3.156 6.687 -0.605 3.239 1.012 0.97 1.959 -0.431" />
    <path class="write-flat-pen" fill="#FFFFFF" stroke-width="1.6" __comx="650.951" __comy="944.714" __timestamp="0x17932c7abc4" d="M642.911 932.16 l-1.966 -2.747 -0.093 -0.16 -0.38 -1.514 0.786 -1.769 2.455 -1.906 4.087 -1.317 4.216 -0.341 3.406 0.671 2.319 1.394 1.285 1.821 0.672 2.617 -0.192 3.046 -1.431 4.49 -2.534 4.808 -3.991 5.207 -12.638 10.976 -1.051 2.093 0.933 1.519 3.183 1.089 15.611 -0.211 1.198 -0.14 1.137 -0.18 4.119 -0.644 -0.014 -0.208 -4.168 -0.089 -1.146 -0.027 -1.166 -0.004 -15.309 -0.098 -2.384 -0.815 -0.165 -0.269 0.509 -1.014 12.518 -10.878 4.172 -5.441 2.666 -5.051 1.533 -4.814 0.22 -3.495 -0.808 -3.147 -1.649 -2.336 -2.849 -1.709 -3.899 -0.76 -4.619 0.398 -4.502 1.521 -2.877 2.4 -0.918 2.571 0.744 2.01 0.226 0.298 2.316 2.509" />
    <path class="write-flat-pen" fill="#FFFFFF" stroke-width="1.6" __comx="673.849" __comy="944.714" __timestamp="0x17932c7acbb" d="M670.961 956.3 l2.703 3.013 2.987 0.883 0.085 -0.182 -2.406 -1.635 -2.771 -2.657" />
    <path class="write-flat-pen" fill="#FFFFFF" stroke-width="1.6" __comx="698.115" __comy="944.714" __timestamp="0x17932c7ae7b" d="M697.514 930.483 l1.011 -1.801 -0.857 -0.574 -3.556 3.062 -3.207 4.358 -1.684 4.216 -0.697 4.213 0.354 3.594 1.766 4.581 2.124 3.135 3.322 3.003 3.304 1.6 3.422 0.401 2.462 -0.716 2.218 -2.051 1.648 -4.041 0.176 -3.471 -1.133 -3.544 -2.093 -2.897 -2.516 -1.746 -3.165 -0.638 -3.425 0.876 -3.113 2.097 -2.716 3.134 -2.883 5.892 -0.313 1.163 -1.052 3.924 0.21 0.077 1.737 -3.672 0.488 -1.015 3.124 -5.469 2.473 -2.824 2.709 -1.825 2.803 -0.717 2.482 0.5 2.02 1.402 1.783 2.469 0.967 3.024 -0.148 2.909 -1.411 3.461 -1.68 1.554 -1.789 0.52 -2.832 -0.332 -2.855 -1.382 -3.009 -2.72 -1.914 -2.824 -1.623 -4.208 -0.314 -3.169 0.629 -3.837 1.533 -3.878 2.951 -4.112 2.556 -2.542 -0.757 -0.51 -0.243 1.039" />
    <path class="write-flat-pen" fill="#FFFFFF" stroke-width="1.6" __comx="132.218" __comy="911.982" __timestamp="0x17932c7bcd1" d="M130.958 901.575 l0.549 4.084 0.108 1.167 0.614 11.098 -0.068 11.265 0.398 1.405 0.18 0.005 0.479 -1.387 0.261 -11.32 -0.866 -11.155 -0.159 -1.219 -0.966 -4.042" />
    <path class="write-flat-pen" fill="#FFFFFF" stroke-width="1.6" __comx="138.831" __comy="911.982" __timestamp="0x17932c7be82" d="M129.851 907.706 l-0.675 -1.656 0.039 -0.101 1.22 -2.203 2.801 -2.681 4.021 -2.416 3.872 -1.21 2.93 -0.1 2.046 0.849 1.164 1.413 0.588 2.315 -0.474 2.83 -1.332 2.724 -2.433 2.845 -2.62 1.625 -6.021 1.528 -0.397 0.98 0.126 0.058 0.916 0.445 0.075 -0.049 -0.036 -1.018 -0.002 -0.139 -0.397 0.98 6.35 -1.287 3.055 -1.901 2.714 -3.196 1.503 -3.118 0.536 -3.381 -0.796 -2.943 -1.64 -1.922 -2.678 -1.068 -3.422 0.154 -4.192 1.357 -4.245 2.642 -2.949 3.006 -1.185 2.583 -0.077 0.552 1.173 1.742" />
    <path class="write-flat-pen" fill="#FFFFFF" stroke-width="1.6" __comx="161.528" __comy="911.982" __timestamp="0x17932c7c056" d="M163.381 901.608 l-0.115 -0.869 -0.15 -0.26 -1.469 -0.72 -0.719 0.187 -2.41 1.921 -2.511 4.386 -1.887 6.337 -0.708 7.033 0.391 4.869 1.399 4.116 2.18 3.045 2.858 2.127 4.166 1.281 1.116 0.069 4.068 0.25 0.054 -0.352 -3.958 -0.972 -0.972 -0.249 -3.731 -1.429 -2.443 -1.858 -1.9 -2.652 -1.26 -3.703 -0.366 -4.527 0.669 -6.743 1.758 -6.04 2.201 -4.07 1.876 -1.776 0.109 -0.074 1.028 0.149 0.01 -0.031 0.451 0.653" />
    <path class="write-flat-pen" fill="#FFFFFF" stroke-width="1.6" __comx="206.278" __comy="900.94" __timestamp="0x17932c7c436" d="M198.343 894.507 l0.449 -0.238 -0.101 0.023 3.176 2.253 0.776 0.679 4.808 5.013 3.293 4.603 1.573 3.628 0.708 4.049 -0.169 4.203 -1.144 4.432 -2.894 6 -5.592 8.593 -0.836 1.327 -0.79 1.28 -2.099 3.384 0.17 0.124 2.592 -3.023 0.988 -1.147 0.979 -1.252 5.975 -8.488 3.017 -6.246 1.225 -4.75 0.182 -4.545 -0.772 -4.404 -1.72 -3.956 -3.476 -4.826 -5.013 -5.08 -0.932 -0.758 -3.641 -2.056 -0.656 -0.086 -0.493 0.929" />
    <path class="write-flat-pen" fill="#0BFFCF" stroke-width="1.6" __comx="183.127" __comy="907.655" __timestamp="0x17932c7d4d9" d="M181.648 906.398 l0.434 -0.918 0 0 -0.809 0.141 0.145 0.269 1.176 4.192 1.177 14.679 0.417 4.085 0.208 0.008 0.719 -4.124 -1.303 -14.886 -1.515 -4.38 -0.279 -0.352 -0.809 0.141 0 0 -0.071 1.013" />
    <path class="write-flat-pen" fill="#0BFFCF" stroke-width="1.6" __comx="183.922" __comy="902.728" __timestamp="0x17932c7d5d6" d="M171.099 904.39 l-1.43 -0.143 0 0 -0.073 1.003 4.946 0.846 1.523 -0.054 6.795 -0.867 9.955 -2.836 1.732 -0.648 3.702 -1.375 -0.076 -0.263 -3.867 0.8 -1.801 0.367 -9.939 2.469 -6.628 0.897 -1.336 0.072 -4.878 -0.407 -0.073 1.003 0 0 1.435 -0.092" />
    <path class="write-flat-pen" fill="#0BFFCF" stroke-width="1.6" __comx="550.465" __comy="907.661" __timestamp="0x17932c7db03" d="M550.825 904.361 l-1.209 2.811 -0.13 0.828 0.356 15.602 0.306 4.281 0.362 0.019 0.748 -4.286 -0.636 -15.562 0.056 -0.632 0.764 -2.846" />
    <path class="write-flat-pen" fill="#0BFFCF" stroke-width="1.6" __comx="552.869" __comy="904.185" __timestamp="0x17932c7dc0a" d="M540.098 907.529 l0.893 -2.638 0.137 -0.123 2.009 -1.187 3.826 -0.776 13.936 0.632 1.577 0.023 4.049 0.074 0.025 -0.238 -3.977 -0.766 -1.576 -0.307 -14.154 -0.987 -4.274 0.941 -2.329 1.524 -0.464 0.53 -0.589 3.063" />
    <path class="write-flat-pen" fill="#FFFFFF" stroke-width="1.6" __comx="139.225" __comy="1092.299" __timestamp="0x17932c7ed02" d="M114.14 1102.371 l0.036 -1.417 0.063 -0.317 1.492 -4.139 3.089 -5.337 2.701 -3.136 3.368 -2.199 3.834 -1.12 3.815 0.07 4.98 1.465 13.206 8.145 5.529 2.519 4.876 0.341 3.987 -0.923 -0.027 -0.201 -3.973 0.156 -4.507 -0.666 -5.25 -2.415 -13.297 -8.178 -5.32 -1.572 -4.198 -0.085 -4.224 1.23 -3.69 2.42 -2.883 3.397 -3.098 5.612 -1.288 4.426 -0.027 0.506 0.356 1.466" />
    <path class="write-flat-pen" fill="#FFFFFF" stroke-width="1.6" __comx="167.174" __comy="1092.299" __timestamp="0x17932c7eedd" d="M162.9 1087.129 l-0.408 -3.234 -0.013 -0.246 0 0 -0.433 -2.043 0 0 -0.975 -0.878 0 0 -0.936 0.891 1.245 1.862 3.022 1.996 6.442 1.82 0.815 0.718 0.517 9.131 1.769 3.632 0.268 -0.086 -0.612 -3.805 -0.406 -9.62 -1.597 -1.373 -6.567 -1.812 -2.63 -1.672 -1.207 -1.552 -0.936 0.891 0 0 0.772 0.512 0 0 0.474 1.556 0 0 0.031 0.215 0.83 3.199" />
    <path class="write-flat-pen" fill="#FFFFFF" stroke-width="1.6" __comx="225.846" __comy="1092.299" __timestamp="0x17932c7f172" d="M224.141 1072.398 l-0.628 -1.633 -0.775 0.183 -1.932 1.685 -1.826 3.663 -1.229 5.981 -0.137 5.893 1.005 7.92 1.746 7.014 2.309 5.479 2.772 4.276 4.02 3.68 0.84 0.486 3.605 2.079 0.165 -0.237 -3.206 -2.653 -0.672 -0.564 -3.611 -3.719 -2.528 -4.071 -2.198 -5.252 -1.699 -6.807 -0.995 -7.713 0.099 -5.646 1.081 -5.692 1.517 -3.349 1.408 -1.503 -0.277 0.047 0.604 0.735" />
    <path class="write-flat-pen" fill="#FFFFFF" stroke-width="1.6" __comx="255.348" __comy="1092.299" __timestamp="0x17932c7f650" d="M252.513 1083.822 l-0.55 -0.138 0.075 0.516 0.129 0.384 3.734 14.698 0.219 1.223 1.393 6.541 1.019 1.689 0.208 -0.056 0.04 -1.928 -1.152 -6.531 -0.236 -1.275 -4.189 -14.724 -0.258 -0.504 -0.478 -0.354 -0.55 0.459" />
    <path class="write-flat-pen" fill="#FFFFFF" stroke-width="1.6" __comx="253.436" __comy="1092.299" __timestamp="0x17932c7f751" d="M240.565 1083.449 l-0.511 -0.718 0.663 -0.977 2.68 -1.713 4.763 -1.885 9.372 -1.856 6.459 -0.49 4.086 0.243 0.054 -0.311 -4.062 -1.183 -6.733 0.152 -9.627 1.934 -5.02 2.065 -2.997 2.121 -0.952 2.057 1.155 1.157" />
    <path class="write-flat-pen" fill="#FFFFFF" stroke-width="1.6" __comx="269.767" __comy="1092.299" __timestamp="0x17932c7f90c" d="M268.254 1099.406 l0.806 -2.259 0.036 -0.181 -0.29 -1.729 -1.821 0.189 -1.246 2.109 -0.469 3.184 0.748 2.454 1.583 1.281 2.365 0.031 2.218 -1.436 1.487 -2.157 0.595 -2.896 -0.808 -1.916 -1.831 -0.811 -1.798 0.683 -1.136 2.145 -0.555 3.235 0.236 0.077 1.425 -2.794 1.069 -1.383 0.703 -0.237 0.66 0.292 0.369 0.875 -0.429 2.093 -1.121 1.63 -1.546 1.006 -1.337 -0.011 -0.789 -0.629 -0.526 -1.659 0.329 -2.565 0.689 -1.288 -0.099 -0.042 0.124 0.283 0.018 -0.085 -0.378 2.325" />
    <path class="write-flat-pen" fill="#FFFFFF" stroke-width="1.6" __comx="284.163" __comy="1096.027" __timestamp="0x17932c7f9da" d="M281.701 1102.264 l1.191 3.955 0.171 0.703 2.043 9.896 1.408 3.951 0.111 -0.028 -0.593 -4.127 -1.736 -9.974 -0.223 -0.789 -1.59 -3.868" />
    <path class="write-flat-pen" fill="#FFFFFF" stroke-width="1.6" __comx="306.79" __comy="1096.027" __timestamp="0x17932c7fbc5" d="M305.083 1080.696 l0.452 5.874 0.177 1.245 -0.001 -0.009 1.875 18.144 0.908 -0.118 -0.36 -0.407 -0.329 0.052 -0.216 0.498 0.908 -0.118 -1.8 -18.181 -0.001 -0.009 -0.216 -1.227 -0.839 -5.808" />
    <path class="write-flat-pen" fill="#FFFFFF" stroke-width="1.6" __comx="311.83" __comy="1096.027" __timestamp="0x17932c7fd34" d="M304.242 1080.691 l-0.493 -1.562 0.018 0.017 0.957 -2.195 2.235 -2.792 2.507 -1.853 2.183 -0.66 1.87 0.194 2.51 1.316 1.962 2.176 1.246 2.887 0.184 2.524 -0.785 2.333 -1.398 1.717 -2.293 1.248 -4.038 0.385 -2.068 1.258 0.096 0.281 2.236 -0.208 4.228 -0.141 2.881 -1.568 1.78 -2.187 0.98 -2.913 -0.227 -3.115 -1.459 -3.376 -2.332 -2.582 -3.038 -1.585 -2.493 -0.25 -2.745 0.848 -2.867 2.174 -2.397 3.196 -0.865 2.665 0.008 0.438 0.978 1.623" />
    <path class="write-flat-pen" fill="#FFFFFF" stroke-width="1.6" __comx="326.827" __comy="1096.027" __timestamp="0x17932c7fee2" d="M326.292 1096.441 l-1.162 -1.534 -0.777 0.37 -1.76 1.836 -1.103 2.988 0.151 2.877 0.975 1.782 2.057 1.174 2.098 -0.114 2.494 -1.366 1.847 -2.276 1.051 -3.072 -0.517 -2.401 -1.548 -1.607 -2.594 -0.036 -2.048 1.783 0.107 0.19 2.245 -0.628 1.567 0.246 0.804 0.835 0.328 1.522 -0.815 2.383 -1.47 1.813 -1.901 1.044 -1.27 0.073 -1.267 -0.715 -0.598 -1.074 -0.141 -2.208 0.833 -2.442 1.289 -1.533 -0.315 0.138 0.814 0.546" />
    <path class="write-flat-pen" fill="#FFFFFF" stroke-width="1.6" __comx="345.351" __comy="1076.621" __timestamp="0x17932c8003b" d="M339.918 1068.322 l-0.831 0.225 0.955 1.639 0.361 0.525 4.228 6.181 2.71 5.259 1.861 6.237 0.846 6.893 -0.19 5.402 -1.292 7.219 -2.06 6.55 -2.826 5.401 -0.61 0.993 -2.109 3.399 0.174 0.129 2.628 -3.015 0.809 -0.928 3.249 -5.402 2.25 -6.748 1.344 -7.43 0.2 -5.637 -0.881 -7.146 -1.963 -6.497 -2.872 -5.455 -4.531 -6.113 -0.412 -0.496 -1.267 -1.4 -0.297 0.75" />
    <path class="write-flat-pen" fill="#FFFFFF" stroke-width="1.6" __comx="230.128" __comy="1185.497" __timestamp="0x17932c8045c" d="M227.146 1166.642 l0.785 -1.685 0.113 -0.249 0.694 -2.418 -0.168 -0.694 -1.496 -0.451 -2.022 2.738 -1.485 4.416 -0.979 7.838 0.14 7.697 1.201 7.583 2.108 6.751 2.81 5.522 4.389 4.973 0.779 0.517 3.48 2.294 0.171 -0.214 -2.991 -2.902 -0.578 -0.572 -3.913 -4.977 -2.661 -5.246 -2.033 -6.512 -1.166 -7.358 -0.14 -7.473 0.923 -7.576 1.311 -4.074 1.241 -1.894 -0.014 -0.111 -0.039 -0.236 -0.255 2.182 -0.057 0.221 -0.407 1.82" />
    <path class="write-flat-pen" fill="#FFFFFF" stroke-width="1.6" __comx="257.124" __comy="1185.497" __timestamp="0x17932c8059d" d="M252.429 1168.585 l0.055 2.612 0.173 0.763 0.078 0.368 0.148 0.563 0.135 0.554 0.238 0.822 0.246 0.826 0.321 1.043 0.362 1.17 0.428 1.355 0.44 1.426 0.451 1.511 0.428 1.506 0.415 1.514 0.405 1.517 0.378 1.472 0.347 1.359 0.331 1.286 0.28 1.072 0.229 0.986 0.269 0.931 0.184 0.675 0.194 0.628 0.131 0.421 0.096 0.295 0.053 0.148 0.045 0.118 0.025 0.062 1.697 4.241 0.804 -0.258 -1.085 -4.437 -0.017 -0.069 -0.032 -0.119 -0.036 -0.132 -0.076 -0.283 -0.115 -0.425 -0.173 -0.613 -0.171 -0.67 -0.253 -0.909 -0.222 -0.971 -0.287 -1.092 -0.332 -1.281 -0.349 -1.359 -0.384 -1.481 -0.414 -1.529 -0.426 -1.525 -0.444 -1.522 -0.471 -1.525 -0.463 -1.435 -0.454 -1.352 -0.391 -1.161 -0.355 -1.03 -0.278 -0.81 -0.269 -0.782 -0.163 -0.533 -0.179 -0.538 -0.099 -0.342 -0.205 -0.666 -0.462 -2.474" />
    <path class="write-flat-pen" fill="#FFFFFF" stroke-width="1.6" __comx="255.693" __comy="1185.497" __timestamp="0x17932c80683" d="M239.829 1170.695 l-0.863 0.436 1.712 0.976 0.628 0.203 3.408 0.61 5.924 -0.46 16.776 -3.577 0.847 -0.17 4.159 -0.803 -0.024 -0.265 -4.236 -0.027 -0.934 -0.005 -16.812 3.284 -5.643 0.504 -3.163 -0.444 -0.47 -0.114 -1.787 -0.578 -0.189 1.104" />
    <path class="write-flat-pen" fill="#FFFFFF" stroke-width="1.6" __comx="271.453" __comy="1185.497" __timestamp="0x17932c8076e" d="M267.073 1184.738 l2.149 4.396 0.399 0.704 3.735 7.545 2.162 3.751 0.316 -0.14 -1.33 -4.142 -3.607 -7.696 -0.439 -0.721 -2.497 -4.179" />
    <path class="write-flat-pen" fill="#FFFFFF" stroke-width="1.6" __comx="300.428" __comy="1185.497" __timestamp="0x17932c80918" d="M298.405 1189.11 l1.71 5.7 0.084 0.468 0.1 0.59 0.085 0.594 0.078 0.644 0.067 0.656 0.06 0.705 0.051 0.715 0.044 0.722 0.038 0.729 0.031 0.698 0.219 4.865 1.478 -0.066 -0.217 -4.865 -0.031 -0.703 -0.04 -0.742 -0.048 -0.738 -0.057 -0.733 -0.067 -0.728 -0.075 -0.683 -0.089 -0.675 -0.099 -0.629 -0.114 -0.616 -0.114 -0.572 -2.151 -5.655" />
    <path class="write-flat-pen" fill="#FFFFFF" stroke-width="1.6" __comx="314.599" __comy="1185.497" __timestamp="0x17932c80a5a" d="M312.604 1172.767 l0.921 0.383 -0.002 0.034 1.219 3.665 0.109 0.928 0.242 7.644 -0.612 9.321 -0.064 0.81 -0.052 0.7 -0.05 0.706 -0.034 0.554 -0.03 0.555 -0.019 0.401 -0.238 4.943 1.486 0.075 0.259 -4.942 0.021 -0.397 0.031 -0.546 0.035 -0.541 0.051 -0.697 0.053 -0.694 0.065 -0.818 0.603 -9.412 -0.376 -7.786 -0.183 -1.143 -1.721 -3.867 -0.374 -0.309 -1.239 -0.053" />
    <path class="write-flat-pen" fill="#FFFFFF" stroke-width="1.6" __comx="321.654" __comy="1185.497" __timestamp="0x17932c80bdd" d="M312.654 1171.867 l-0.527 -0.969 0.508 -1.073 2.786 -2.414 3.392 -1.795 4.638 -1.381 3.836 -0.294 2.279 0.591 1.108 1.047 0.361 1.389 -0.414 1.926 -2.143 3.177 -3.551 2.942 -3.581 1.795 -4.895 1.271 -0.501 0.884 0.117 0.209 0.852 0.125 4.97 -0.972 3.918 -1.963 3.869 -3.205 2.445 -3.624 0.559 -2.6 -0.573 -2.201 -1.741 -1.644 -2.935 -0.76 -4.271 0.331 -4.95 1.487 -3.681 1.981 -3.121 2.832 -0.776 2.107 1.13 1.421" />
    <path class="write-flat-pen" fill="#FFFFFF" stroke-width="1.6" __comx="330.684" __comy="1185.497" __timestamp="0x17932c80cd5" d="M330.163 1184.923 l-0.602 8.438 0.667 10.414 1.578 -0.102 -0.677 -10.324 0.239 -8.367" />
    <path class="write-flat-pen" fill="#FFFFFF" stroke-width="1.6" __comx="353.698" __comy="1168.755" __timestamp="0x17932c80e50" d="M347.672 1157.768 l-0.503 2.195 0.195 0.781 2.564 5.937 6.259 10.811 2.787 6.595 1.222 6.255 -0.072 4.431 -1.488 5.851 -3.21 6.749 -4.559 7.013 -1.222 1.603 -1.243 1.542 -2.805 3.476 1.221 0.988 2.814 -3.469 1.262 -1.555 1.275 -1.666 4.655 -7.149 3.324 -6.986 1.573 -6.184 0.078 -4.786 -1.286 -6.583 -2.893 -6.841 -6.295 -10.809 -2.609 -5.706 -0.127 -0.392 0.07 -1.966" />
    <path class="write-flat-pen" fill="#D534A9" stroke-width="1.6" __comx="496.209" __comy="905.378" __timestamp="0x17932c853f1" d="M491.277 906.063 l0.143 -0.84 -0.58 -0.147 -0.091 0.098 -0.342 2.301 0.007 0.658 0 0 1.865 13.19 0 0 1.517 -0.134 -0.105 -6.552 -2.917 -10.267 0.053 -0.194 8.882 -1.682 3.554 -0.007 0.039 -0.224 -3.599 -1.246 -10.154 1.765 -0.436 1.597 2.99 10.496 0.166 6.346 1.517 -0.134 0 0 -2.249 -13.066 0 0 -0.044 -0.537 -0.078 -2.097 -0.043 0.022 -0.58 -0.147 0.245 0.816" />
    <path class="write-flat-pen" fill="#D534A9" stroke-width="1.6" __comx="498.506" __comy="908.866" __timestamp="0x17932c8553b" d="M492.152 908.682 l-0.677 -0.014 0.002 0.968 0.184 0.073 9.754 0.195 4.098 0.024 0.026 -0.187 -4.032 -1.084 -9.689 0.008 -0.055 0.003 0.002 0.968 0.559 -0.381" />
    <path class="write-flat-pen" fill="#D534A9" stroke-width="1.6" __comx="500.118" __comy="920.022" __timestamp="0x17932c8562a" d="M492.695 920.752 l-0.321 0.723 0.642 0.122 0.363 -0.019 10.322 -1.328 4.245 -1.038 -0.054 -0.382 -4.363 0.168 -10.309 1.416 -0.345 0.079 -0.584 0.262 0.404 0.723" />
    <path class="write-flat-pen" fill="#D534A9" stroke-width="1.6" __comx="438.728" __comy="944.905" __timestamp="0x17932c85e08" d="M426.065 960.632 l0.355 -0.896 0.107 -0.203 1.888 -3.751 0.27 -0.509 4.088 -7.803 1.993 -5.618 0 0 2.061 -11.264 0 0 0.629 -0.876 0 0 -1.412 -0.225 2.786 8.782 4.237 9.975 5.462 8.826 3.2 1.934 0.13 -0.154 -2.271 -2.684 -5.093 -8.652 -4.163 -9.801 -2.763 -8.71 -1.412 -0.225 0 0 -0.838 1.168 0 0 -2.094 11.495 0 0 -1.893 5.41 -3.857 7.811 -0.258 0.554 -1.533 3.971 -0.087 0.32 0.003 1.037" />
    <path class="write-flat-pen" fill="#D534A9" stroke-width="1.6" __comx="443.011" __comy="946.817" __timestamp="0x17932c85edc" d="M432.732 946.818 l8.212 1.813 7.104 0.378 1.034 -0.073 4.203 -0.291 0.006 -0.232 -4.181 -0.517 -1 -0.128 -6.964 -0.655 -8.204 -1.378" />
    <path class="write-flat-pen" fill="#FFFFFF" stroke-width="1.6" __comx="518.591" __comy="921.171" __timestamp="0x17932c8775b" d="M507.581 938.755 l0.305 -1.996 0.178 -0.447 4.677 -9.271 0.947 -1.685 5.488 -8.541 9.091 -11.503 1.951 -3.707 -0.154 -0.108 -2.81 3.052 -9.302 11.387 -5.511 8.678 -0.966 1.775 -4.335 9.555 -0.176 0.649 0.116 2.14" />
    <path class="write-flat-pen" fill="#FFFFFF" stroke-width="1.6" __comx="522.182" __comy="923.633" __timestamp="0x17932c878ef" d="M523.525 920.247 l-1.188 3.403 -0.116 0.714 -1.254 9.345 0.001 -0.009 -0.679 2.104 0.922 0.078 -0.597 -0.849 -0.156 0.034 -0.193 1.02 0.922 0.078 1.026 -2.144 0.001 -0.009 1.056 -9.509 0.072 -0.639 0.755 -3.452" />
    <path class="write-flat-pen" fill="#FFFFFF" stroke-width="1.6" __comx="527.865" __comy="921.697" __timestamp="0x17932c87a9d" d="M523.77 923.925 l0.567 -1.8 0.085 -0.127 1.632 -1.756 2.142 -1.143 1.659 -0.14 0.779 0.485 0.206 0.975 -0.664 1.477 -5.242 3.86 -0.446 1.572 5.795 6.532 2.171 2.966 0.175 -0.086 -1.101 -3.709 -5.265 -6.103 0.059 -0.211 5.135 -3.792 1.037 -2.339 -0.48 -2.133 -1.803 -1.073 -2.472 0.272 -2.572 1.518 -1.707 2.197 -0.175 0.401 -0.183 2.025" />
    <path class="write-flat-pen" fill="#D534A9" stroke-width="1.6" __comx="488.628" __comy="1049.346" __timestamp="0x17932c88b75" d="M500.246 1094.298 l-3.719 -5.179 -3.748 -6.814 -5.381 -12.796 -5.591 -15.775 -2.407 -9.743 -0.977 -9.322 0.08 -11.593 1.472 -11.547 0.149 -1.1 0.548 -3.931 -0.269 -0.059 -1.148 3.799 -0.334 1.101 -1.811 11.634 -0.099 11.765 1.001 9.497 2.457 9.903 5.689 15.856 5.519 12.852 3.901 6.889 3.94 5.107" />
    <path class="write-flat-pen" fill="#D534A9" stroke-width="1.6" __comx="471.694" __comy="1006.143" __timestamp="0x17932c88d4a" d="M464.932 1012.015 l-0.229 -3.471 0 0 0.755 -2.06 0 0 -0.939 -0.364 -2.079 4.33 0 0 -3.734 5.55 0 0 -1.262 0.792 0 0 1.141 0.809 1.738 -6.749 2.604 -6.355 2.722 -4.418 1.778 -1.559 1.512 -0.112 1.213 0.641 2.1 2.443 5.831 11.56 3.669 4.258 0.972 0.665 3.387 2.306 0.146 -0.177 -2.893 -2.901 -0.74 -0.755 -3.211 -4.255 -5.821 -11.596 -2.427 -2.82 -1.888 -0.995 -2.503 0.189 -2.354 2.074 -2.908 4.736 -2.682 6.582 -1.7 6.873 1.141 0.809 0 0 1.466 -1.014 0 0 3.822 -5.965 0 0 1.88 -4.531 -0.939 -0.364 0 0 -0.676 2.281 0 0 0.506 3.628" />
    <path class="write-flat-pen" fill="#D534A9" stroke-width="1.6" __comx="536.747" __comy="1098.594" __timestamp="0x17932c8907e" d="M537.136 1096.867 l1.073 -7.421 -0.078 -0.427 -0.824 -1.554 -1.772 -0.64 -6.105 2.329 -0.714 0.952 0 0 0.206 1.027 11.718 7.147 2.038 1.919 0.501 1.383 -0.437 1.373 0 0 -1.895 1.339 -9.343 2.046 0 0 0.406 1.401 1.351 -0.693 0.6 -0.295 2.324 -1.144 3.115 -1.547 -0.036 -0.09 -3.318 1.046 -2.466 0.8 -0.619 0.204 -1.459 0.346 0.406 1.401 0 0 9.689 -2.001 2.578 -1.858 0 0 0.703 -2.382 -0.84 -2.172 -2.407 -2.249 -11.868 -7.192 0.206 1.027 0 0 0.45 -0.649 5.265 -2.227 1.05 0.247 0.691 1.019 0.044 0.152 -0.649 7.334" />
    <path class="write-flat-pen" fill="#D534A9" stroke-width="1.6" __comx="549.643" __comy="1098.594" __timestamp="0x17932c891b7" d="M548.08 1100.429 l2.39 -1.318 0.146 -0.129 0.95 -1.846 -0.158 -0.55 -1.081 -1.092 -2.001 -0.096 -1.949 1.028 -1.431 2.059 -0.463 2.413 0.663 2.779 1.555 1.606 2.016 0.549 2.626 -0.735 2.065 -1.732 1.396 -2.608 -0.078 -2.28 -1.371 -1.857 -1.636 -0.488 -2.472 0.609 -0.001 0.196 2.226 0.625 0.889 0.401 0.784 1.065 0.047 1.355 -1.047 1.957 -1.564 1.314 -1.87 0.527 -1.173 -0.315 -0.958 -0.979 -0.504 -2.031 0.314 -1.775 1.013 -1.525 1.275 -0.74 1.149 -0.044 0.628 0.44 -0.011 -0.108 -0.387 1.503 0.011 0.001 -2.107 1.64" />
    <path class="write-flat-pen" fill="#D534A9" stroke-width="1.6" __comx="561.865" __comy="1098.594" __timestamp="0x17932c89297" d="M559.125 1082.76 l-0.718 -0.135 0.245 1.548 0.18 0.659 3.233 19.089 1.571 1.779 0.593 -0.378 1.095 -0.998 -0.035 -0.072 -1.46 0.252 0.121 -0.147 -0.579 -1.013 -3.471 -18.775 -0.25 -0.698 -0.614 -1.427 -0.54 0.495" />
    <path class="write-flat-pen" fill="#D534A9" stroke-width="1.6" __comx="574.226" __comy="1098.594" __timestamp="0x17932c893b6" d="M568.824 1092.167 l1.373 7.203 0.204 0.74 1.196 3.714 1.847 2.095 1.732 0.049 1.914 -1.909 1.392 -3.916 1.146 -7.684 -0.155 -1.817 -0.186 -0.043 -0.948 1.603 -1.405 7.541 -1.213 3.457 -1.178 1.208 -0.414 0.006 -1.254 -1.34 -1.188 -3.369 -0.205 -0.665 -1.771 -7.07" />
    <path class="write-flat-pen" fill="#D534A9" stroke-width="1.6" __comx="590.371" __comy="1098.594" __timestamp="0x17932c894fa" d="M582.446 1097.059 l2.327 0.057 0.453 -0.146 2.353 -1.276 1.906 -2.288 0.66 -2.312 -0.881 -1.67 -2.197 -0.069 -2.426 1.833 -1.86 3.57 -0.381 3.043 0.653 2.892 1.647 2.451 2.793 1.728 3.312 0.439 3.544 -0.991 0.622 -0.368 3.375 -2.032 -0.047 -0.104 -3.752 1.202 -0.577 0.177 -3.23 0.554 -2.691 -0.413 -2.215 -1.37 -1.288 -1.917 -0.526 -2.327 0.31 -2.481 1.558 -3 1.691 -1.288 0.73 0.013 0.176 0.31 -0.375 1.422 -1.476 1.899 -1.941 1.247 -0.174 0.085 -2.126 0.36" />
    <path class="write-flat-pen" fill="#D534A9" stroke-width="1.6" __comx="635.752" __comy="1098.594" __timestamp="0x17932c897f6" d="M631.053 1102.338 l0.785 4.541 0.115 0.523 0.946 3.428 0 0 1.062 0.188 0.268 -0.292 0.173 -5.942 -1.397 -6.803 -3.831 -10.897 -0.334 -2.451 0.712 -1.277 2.225 -1.414 3.38 -0.888 3.029 -0.041 3.295 1.757 2.551 2.612 0.289 -0.23 -2.094 -3.229 -3.616 -2.432 -3.66 -0.035 -3.821 1.001 -2.777 1.765 -1.168 2.097 0.428 3.141 3.872 10.945 1.398 6.528 0.068 5.334 0.052 -0.023 1.062 0.188 0 0 -1.327 -3.264 -0.136 -0.471 -1.186 -4.44" />
    <path class="write-flat-pen" fill="#D534A9" stroke-width="1.6" __comx="637.887" __comy="1098.594" __timestamp="0x17932c898c9" d="M627.282 1101.345 l0.242 -0.885 2.678 -0.656 14.97 -0.626 4.113 -1.113 -0.017 -0.097 -4.183 0.361 -15.074 0.239 -3.419 1.08 -0.105 1.584" />
    <path class="write-flat-pen" fill="#D534A9" stroke-width="1.6" __comx="650.296" __comy="1098.594" __timestamp="0x17932c899ed" d="M650.528 1097.081 l-1.021 0.497 -0.093 0.025 -2.346 1.703 -0.327 0.48 -0.899 2.095 0.123 2.675 1.15 1.788 2.056 0.795 2.035 -0.448 2.096 -1.784 1.202 -2.432 0.246 -2.899 -0.985 -2.282 -1.716 -1.279 -2.179 -0.196 -2.285 2.624 -0.091 0.667 -0.332 3.197 0.183 0.046 1.23 -2.969 0.155 -0.306 1.762 -1.597 0.964 0.086 1.012 0.753 0.658 1.521 -0.184 2.199 -0.919 1.871 -1.543 1.327 -1.194 0.276 -1.166 -0.425 -0.699 -1.02 -0.167 -1.963 0.632 -1.733 0.132 -0.237 1.828 -1.826 0.058 -0.038 0.844 -0.899" />
    <path class="write-flat-pen" fill="#D534A9" stroke-width="1.6" __comx="666.486" __comy="1098.594" __timestamp="0x17932c89cb7" d="M662.329 1098.917 l-1.381 -0.662 -0.405 0.255 -0.64 1.724 0.804 4.126 2.448 5.859 1.744 -0.135 0.209 -3.22 -1.421 -7.929 0.232 -1.134 0.791 -0.305 2.809 0.554 0.883 0.192 0.929 0.139 3.712 0.554 0.026 -0.103 -3.53 -1.274 -0.858 -0.313 -0.843 -0.337 -3.174 -0.948 -2.104 0.612 -0.498 2.341 1.477 8.05 -0.063 1.758 0.572 -0.021 -2.174 -4.72 -0.941 -3.709 0.259 -1.29 -0.129 0.064 1.168 0.174" />
    <path class="write-flat-pen" fill="#D534A9" stroke-width="1.6" __comx="704.138" __comy="1098.594" __timestamp="0x17932c89e2e" d="M701.434 1080.798 l0.904 2.592 0.156 1.009 1.835 13.177 1.276 13.979 1.092 1.244 0.147 -0.074 -0.262 -1.444 -0.999 -13.846 -1.977 -13.213 -0.221 -1.147 -1.342 -2.543" />
    <path class="write-flat-pen" fill="#D534A9" stroke-width="1.6" __comx="706.692" __comy="1098.594" __timestamp="0x17932c89edd" d="M697.126 1097.087 l-0.518 0.646 2.128 0.282 0.657 0.099 7.258 0.814 5.354 -0.776 0.934 -0.355 3.835 -1.464 -0.057 -0.195 -4.021 0.828 -0.896 0.179 -5.157 0.457 -7.11 -0.721 -0.703 -0.067 -2.194 0.125 0.235 0.9" />
    <path class="write-flat-pen" fill="#D534A9" stroke-width="1.6" __comx="729.045" __comy="1098.594" __timestamp="0x17932c8a0fc" d="M714.049 1083.664 l-0.266 4.703 0.134 1.015 3.043 19.168 1.189 2.438 1.906 -0.738 4.949 -9.394 1.276 -1.242 0 0 -1.309 -0.299 2.024 5.547 1.728 2.514 2.053 1.061 2.934 -0.099 2.947 -1.362 2.031 -1.96 1.463 -3.013 -0.184 -1.923 -1.678 -1.414 -2.316 0.363 -2.055 1.959 -1.072 2.508 0.132 2.184 1.354 1.687 2.576 0.666 3.443 -0.976 0.726 -0.436 3.231 -1.961 -0.084 -0.178 -3.565 1.254 -0.686 0.232 -3.031 0.519 -1.687 -0.518 -0.71 -0.892 -0.078 -1.3 0.794 -1.858 1.455 -1.387 1.101 -0.173 0.621 0.523 0.079 0.826 -1.143 2.354 -1.633 1.576 -2.408 1.113 -2.193 0.074 -1.325 -0.685 -1.386 -2.016 -1.955 -5.356 -1.309 -0.299 0 0 -1.457 1.42 -4.774 9.111 -0.027 0.022 -0.489 -0.942 -3.309 -18.885 -0.154 -0.906 -0.143 -4.614" />
    <path class="write-flat-pen" fill="#D534A9" stroke-width="1.6" __comx="759.518" __comy="1098.594" __timestamp="0x17932c8a33c" d="M751.641 1098.559 l0.064 -1.936 -0.029 -0.336 -0.663 -1.798 0 0 -1.117 -0.378 0 0 -0.784 0.874 0.579 1.576 4.158 3.012 0.746 1.382 -0.41 1.849 0 0 -2.047 2.565 0 0 -5.708 3.634 0 0 0.575 1.46 15.175 -2.801 4.381 -1.478 2.069 -1.758 1.047 -2.104 -0.174 -2.518 -1.829 -2.383 -2.867 -1.262 -2.498 0.155 -2.483 1.293 -2.564 2.831 -0.965 2.772 0.344 3.051 1.505 2.748 2.416 1.892 3.437 1.248 4.068 -0.018 0.771 -0.265 3.765 -1.334 -0.036 -0.16 -3.973 0.414 -0.648 0.056 -3.638 -0.284 -2.959 -1.075 -1.956 -1.532 -1.196 -2.184 -0.268 -2.377 0.738 -2.121 2.154 -2.377 1.928 -1.004 1.771 -0.11 2.136 0.94 1.286 1.675 0.111 1.603 -0.707 1.421 -1.585 1.346 -3.982 1.343 -15.062 2.782 0.575 1.46 0 0 5.926 -3.786 0 0 2.426 -3.074 0 0 0.574 -2.781 -1.237 -2.149 -4.137 -2.901 -0.513 -1.159 -0.784 0.874 0 0 0.6 0.1 0 0 0.545 1.084 0.04 0.168 0.337 1.876" />
  </g>
</svg>
