<svg class="write-page" width="1010px" height="2025px" xmlns="http://www.w3.org/2000/svg" xmlns:xlink="http://www.w3.org/1999/xlink">
  <g class="write-content write-v3" width="1010" height="2025" xruling="30" yruling="30" marginLeft="30" papercolor="#1B1C1C" rulecolor="#3A00F9FF">
    <g class="ruleline write-std-ruling write-scale-down" fill="none" stroke="#00F9FF" stroke-opacity="0.227" stroke-width="1" shape-rendering="crispEdges" vector-effect="non-scaling-stroke">
      <rect class="pagerect" fill="#1B1C1C" stroke="none" x="0" y="0" width="1010" height="2025" />
      <path class="yrule_1" d="M0 30 l1010 0" />
      <path d="M0 60 l1010 0" />
      <path d="M0 90 l1010 0" />
      <path d="M0 120 l1010 0" />
      <path d="M0 150 l1010 0" />
      <path d="M0 180 l1010 0" />
      <path d="M0 210 l1010 0" />
      <path d="M0 240 l1010 0" />
      <path d="M0 270 l1010 0" />
      <path d="M0 300 l1010 0" />
      <path d="M0 330 l1010 0" />
      <path d="M0 360 l1010 0" />
      <path d="M0 390 l1010 0" />
      <path d="M0 420 l1010 0" />
      <path d="M0 450 l1010 0" />
      <path d="M0 480 l1010 0" />
      <path d="M0 510 l1010 0" />
      <path d="M0 540 l1010 0" />
      <path d="M0 570 l1010 0" />
      <path d="M0 600 l1010 0" />
      <path d="M0 630 l1010 0" />
      <path d="M0 660 l1010 0" />
      <path d="M0 690 l1010 0" />
      <path d="M0 720 l1010 0" />
      <path d="M0 750 l1010 0" />
      <path d="M0 780 l1010 0" />
      <path d="M0 810 l1010 0" />
      <path d="M0 840 l1010 0" />
      <path d="M0 870 l1010 0" />
      <path d="M0 900 l1010 0" />
      <path d="M0 930 l1010 0" />
      <path d="M0 960 l1010 0" />
      <path d="M0 990 l1010 0" />
      <path d="M0 1020 l1010 0" />
      <path d="M0 1050 l1010 0" />
      <path d="M0 1080 l1010 0" />
      <path d="M0 1110 l1010 0" />
      <path d="M0 1140 l1010 0" />
      <path d="M0 1170 l1010 0" />
      <path d="M0 1200 l1010 0" />
      <path d="M0 1230 l1010 0" />
      <path d="M0 1260 l1010 0" />
      <path d="M0 1290 l1010 0" />
      <path d="M0 1320 l1010 0" />
      <path d="M0 1350 l1010 0" />
      <path d="M0 1380 l1010 0" />
      <path d="M0 1410 l1010 0" />
      <path d="M0 1440 l1010 0" />
      <path d="M0 1470 l1010 0" />
      <path d="M0 1500 l1010 0" />
      <path d="M0 1530 l1010 0" />
      <path d="M0 1560 l1010 0" />
      <path d="M0 1590 l1010 0" />
      <path d="M0 1620 l1010 0" />
      <path d="M0 1650 l1010 0" />
      <path d="M0 1680 l1010 0" />
      <path d="M0 1710 l1010 0" />
      <path d="M0 1740 l1010 0" />
      <path d="M0 1770 l1010 0" />
      <path d="M0 1800 l1010 0" />
      <path d="M0 1830 l1010 0" />
      <path d="M0 1860 l1010 0" />
      <path d="M0 1890 l1010 0" />
      <path d="M0 1920 l1010 0" />
      <path d="M0 1950 l1010 0" />
      <path d="M0 1980 l1010 0" />
      <path d="M0 2010 l1010 0" />
      <path class="xrule_1" d="M30 0 l0 2025" />
      <path d="M60 0 l0 2025" />
      <path d="M90 0 l0 2025" />
      <path d="M120 0 l0 2025" />
      <path d="M150 0 l0 2025" />
      <path d="M180 0 l0 2025" />
      <path d="M210 0 l0 2025" />
      <path d="M240 0 l0 2025" />
      <path d="M270 0 l0 2025" />
      <path d="M300 0 l0 2025" />
      <path d="M330 0 l0 2025" />
      <path d="M360 0 l0 2025" />
      <path d="M390 0 l0 2025" />
      <path d="M420 0 l0 2025" />
      <path d="M450 0 l0 2025" />
      <path d="M480 0 l0 2025" />
      <path d="M510 0 l0 2025" />
      <path d="M540 0 l0 2025" />
      <path d="M570 0 l0 2025" />
      <path d="M600 0 l0 2025" />
      <path d="M630 0 l0 2025" />
      <path d="M660 0 l0 2025" />
      <path d="M690 0 l0 2025" />
      <path d="M720 0 l0 2025" />
      <path d="M750 0 l0 2025" />
      <path d="M780 0 l0 2025" />
      <path d="M810 0 l0 2025" />
      <path d="M840 0 l0 2025" />
      <path d="M870 0 l0 2025" />
      <path d="M900 0 l0 2025" />
      <path d="M930 0 l0 2025" />
      <path d="M960 0 l0 2025" />
      <path d="M990 0 l0 2025" />
      <path class="leftmargin" stroke="#FF0000" d="M30 0 l0 2025" />
    </g>
    <path class="write-flat-pen" fill="#FFFFFF" stroke-width="1.6" __comx="47.365" __comy="48.359" __timestamp="0x178a090cfad" d="M47.244 43.59 l0.726 0.539 -0.023 -0.019 0.215 0.695 -0.009 0.031 -0.21 0.921 0.019 -0.069 -1.133 0.717 0.16 -0.017 -0.26 -0.128 -0.018 -0.108 0.142 -0.33 0.365 -0.246 -0.277 -0.05 -0.04 -0.035 -0.155 0.182 0.15 -0.057 0.029 0.009 -0.012 -0.304 0.203 -0.415 0.492 -0.24 -0.114 -0.102 0.282 0.144 0.202 0.139 1.326 1.013 0.11 -0.088 -0.689 -1.52 -0.138 -0.289 -0.335 -0.441 -0.468 -0.297 -1.743 0.347 -0.729 1.415 0.086 1.319 1.019 1.012 1.267 -0.333 0.725 -1.183 -0.261 -1.367 -1.185 -0.298 -1.178 0.847 -0.441 1.147 0.416 1.092 1.056 0.353 0.435 -0.034 1.468 -1.256 0.117 -0.292 0.018 -1.2 -0.064 -0.215 -0.482 -0.71 -0.068 -0.071 -0.901 -0.383" />
    <path class="write-flat-pen" fill="#FFFFFF" stroke-width="1.6" __comx="74.172" __comy="48.359" __timestamp="0x178a090d34b" d="M60.652 36.118 l0.071 -0.838 -0.27 0.254 -0.035 0.096 0.021 0.067 0.504 1.127 0.16 0.399 2.014 5.356 0.298 0.825 4.171 13.458 1.099 2.124 1.49 -0.357 2.049 -8.702 1.305 -4.012 0.462 -0.697 -0.242 -0.024 3.625 6.349 2.35 3.278 1.795 1.684 1.647 0.871 1.507 0.144 1.373 -0.587 1.148 -1.375 0.714 -1.983 0.414 -2.989 -0.056 -4.35 -1.755 -12.93 -0.755 -0.288 -0.444 0.36 -0.052 0.254 0.073 0.793 0.146 0.08 0.707 -0.367 0.042 0.081 -0.346 0.295 -0.662 -0.246 1.448 12.081 0.053 4.138 -0.374 2.704 -0.562 1.56 -0.72 0.863 -0.644 0.275 -0.785 -0.075 -1.177 -0.623 -1.524 -1.43 -2.21 -3.084 -3.994 -6.994 -1.539 -0.153 -1.116 1.682 -1.393 4.283 -1.838 7.808 0.685 -0.164 -0.461 -0.889 -4.268 -13.321 -0.331 -0.87 -2.237 -5.319 -0.229 -0.448 -0.742 -1.151 -0.226 -0.233 -0.653 -0.268 -0.362 0.33 0.169 1.17" />
    <path class="write-flat-pen" fill="#FFFFFF" stroke-width="1.6" __comx="96.92" __comy="48.359" __timestamp="0x178a090d560" d="M97.097 50.698 l0.445 -0.632 0.055 -0.122 0.269 -0.85 0.031 -0.234 -0.026 -1.342 -0.078 -0.288 -0.582 -1.082 -1.124 -0.702 -1.448 -0.003 -1.086 0.632 -0.928 1.411 -0.419 1.839 0.115 2.089 0.699 1.95 1.047 1.181 1.262 0.402 1.389 -0.492 1.096 -1.211 0 0 1.145 -3.205 0 0 -1.447 -0.15 0.474 3.446 0.739 2.162 1.04 0.713 0.506 -0.018 0.488 -0.304 0.17 -0.22 0.705 -1.077 -0.029 -0.034 -1.186 0.5 -0.13 0.029 -0.198 -0.042 0.142 -0.038 -0.268 -0.361 -0.525 -1.648 -0.445 -3.311 -1.447 -0.15 0 0 -1.034 2.932 0 0 -0.642 0.724 -0.571 0.208 -0.409 -0.127 -0.596 -0.668 -0.535 -1.485 -0.094 -1.676 0.311 -1.39 0.592 -0.923 0.466 -0.289 0.691 -0.034 0.549 0.281 0.439 0.622 0.024 0.036 0.223 1.133 0.013 0.107 -0.03 0.786 0.002 0.038 -0.233 0.685" />
    <path class="write-flat-pen" fill="#FFFFFF" stroke-width="1.6" __comx="105.962" __comy="48.359" __timestamp="0x178a090d6a0" d="M102.121 45.524 l-0.684 -0.077 0.002 0.272 0.039 0.126 0.366 0.985 0.14 0.319 1.761 3.549 0.237 0.465 1.4 2.563 1.246 1.332 1.191 0.253 0.991 -0.668 0.822 -1.878 0.851 -7.947 0.004 -0.192 -0.013 -0.346 -0.351 -2.389 -0.197 -0.009 -0.578 2.33 -0.062 0.319 -0.027 0.161 -1.048 7.689 -0.558 1.308 -0.14 0.102 -0.165 -0.026 -0.834 -0.868 -1.341 -2.377 -0.243 -0.449 -1.958 -3.438 -0.168 -0.282 -0.542 -0.883 -0.064 -0.09 -0.186 -0.174 -0.487 0.517" />
    <path class="write-flat-pen" fill="#FFFFFF" stroke-width="1.6" __comx="117.502" __comy="48.359" __timestamp="0x178a090d840" d="M112.547 50.609 l0.815 0.002 0.134 -0.012 0.84 -0.198 0.191 -0.076 1.356 -0.631 0.25 -0.147 1.151 -1.024 0.75 -1.597 -0.016 -1.426 -0.802 -1.077 -1.483 -0.373 -1.669 0.528 -1.158 1.017 -0.988 1.886 -0.443 2.162 0.152 1.985 0.678 1.779 1.057 1.354 1.552 0.927 1.526 0.211 1.967 -0.453 2.441 -1.609 0.35 -0.361 0.561 -0.658 0.276 -0.366 0.233 -0.353 1.262 -1.905 -0.082 -0.073 -1.754 1.465 -0.318 0.263 -0.327 0.278 -0.634 0.521 -0.291 0.218 -2.256 1.246 -1.492 0.323 -0.983 -0.13 -1.084 -0.63 -0.777 -0.97 -0.548 -1.388 -0.136 -1.592 0.357 -1.787 0.781 -1.491 0.755 -0.655 1.025 -0.307 0.621 0.17 0.24 0.322 0.027 0.672 -0.456 1.114 -0.804 0.854 -0.111 0.086 -1.195 0.802 -0.109 0.074 -0.671 0.348 -0.057 0.025 -0.766 0.217" />
    <path class="write-flat-pen" fill="#FFFFFF" stroke-width="1.6" __comx="129.288" __comy="48.359" __timestamp="0x178a090d9ec" d="M128.061 42.81 l-0.427 -0.322 -0.133 -0.04 -0.763 -0.133 -0.202 0.006 -1.272 0.273 -0.931 0.877 -0.142 1.311 0.738 1.396 1.533 1.328 4.106 2.26 1.821 1.441 0.469 0.866 -0.006 0.659 -0.499 0.804 -1.209 0.746 -2.109 0.512 -2.522 -0.032 0.011 0.043 -0.215 -0.062 -0.071 -0.021 -1.443 -0.787 -0.041 0.038 0.686 1.494 0.081 0.143 0.286 0.323 0.334 0.21 3.045 0.241 2.577 -0.631 1.733 -1.095 0.887 -1.517 -0.045 -1.474 -0.84 -1.427 -2.181 -1.632 -4.125 -2.166 -1.261 -1.069 -0.469 -0.846 0.029 -0.505 0.36 -0.403 0.859 -0.305 0.052 -0.017 0.655 -0.085 -0.008 -0.018 0.435 0.079" />
    <path class="write-flat-pen" fill="#FFFFFF" stroke-width="1.6" __comx="105.237" __comy="138.101" __timestamp="0x178a090f3ac" d="M101.76 146.31 l0.396 0.975 0.116 0.137 0.524 0.18 0.228 -0.277 0.197 -0.714 0.006 -0.255 -0.143 -1.57 -0.043 -0.312 -0.664 -3.731 -0.099 -0.469 -1.386 -6.488 -0.502 -4.203 0.026 -3.222 0.373 -1.746 0.556 -1.034 0.875 -0.717 1.244 -0.397 1.822 0.006 1.712 0.448 1.367 0.791 1.035 1.191 0.629 1.56 0.261 1.587 0.21 1.959 0.151 0.032 1.031 -1.91 -0.082 -2.05 -0.816 -2.025 -1.387 -1.595 -1.785 -1.033 -2.118 -0.554 -2.277 -0.008 -1.775 0.566 -1.357 1.111 -0.814 1.514 -0.454 2.128 -0.027 3.486 0.531 4.382 1.507 6.546 0.112 0.456 0.881 3.658 0.068 0.28 0.357 1.472 0.03 0.121 0.063 0.475 0.146 -0.163 -0.021 0.114 0.007 0.033 -0.551 -0.823" />
    <path class="write-flat-pen" fill="#FFFFFF" stroke-width="1.6" __comx="102.413" __comy="138.101" __timestamp="0x178a090f504" d="M95.281 138.36 l0.443 -0.322 0.023 0.013 0.773 -0.146 0.261 -0.028 2.978 -0.16 0.469 -0.009 6.477 -0.312 0.335 -0.054 0.612 -0.137 2.314 -0.581 -0.009 -0.106 -2.376 -0.185 -0.614 -0.043 -0.315 -0.015 -6.471 0.107 -0.508 0.027 -3.051 0.395 -0.365 0.098 -0.835 0.369 -0.195 0.124 -0.373 0.583" />
    <path class="write-flat-pen" fill="#FFFFFF" stroke-width="1.6" __comx="119.596" __comy="138.101" __timestamp="0x178a090f744" d="M119.09 127.812 l0.227 -0.356 0.022 -0.067 0.058 -0.362 -0.135 -0.203 -0.379 -0.191 -0.324 0.075 -0.669 0.451 -0.246 0.275 -1.381 2.447 -0.232 0.651 -0.823 3.519 -0.286 4.008 0.295 3.188 0.889 3.521 1.083 2.199 2.879 2.78 0.449 0.199 0.747 0.207 0.432 0.061 0.415 -0.016 2.144 -0.11 0.015 -0.106 -2.03 -0.698 -0.325 -0.121 -0.275 -0.134 -0.566 -0.311 -0.163 -0.117 -2.404 -2.571 -0.891 -1.817 -0.821 -3.239 -0.279 -2.936 0.245 -3.763 0.71 -3.341 0.15 -0.479 1.082 -2.344 0.071 -0.13 0.29 -0.418 -0.144 0.013 -0.081 -0.114 -0.102 -0.16 0.116 0.067 0.015 -0.033 -0.009 0.404" />
    <path class="write-flat-pen" fill="#FFFFFF" stroke-width="1.6" __comx="131.747" __comy="138.101" __timestamp="0x178a090f8f1" d="M127.868 129.149 l0.142 0.229 -0.027 -0.062 -0.093 0.468 -0.031 0.202 -0.295 1.575 -0.088 0.412 -0.806 5.038 -0.079 3.806 0.516 2.483 0.983 1.823 1.477 1.192 1.595 0.517 2.862 -0.289 0.375 -0.145 0.463 -0.244 0.204 -0.142 1.835 -1.303 -0.039 -0.09 -2.204 0.458 -0.208 0.038 -0.44 0.08 -0.215 0.027 -2.43 0.038 -1.034 -0.348 -1.01 -0.814 -0.732 -1.343 -0.448 -2.089 0.031 -3.538 0.616 -4.949 0.058 -0.433 0.088 -1.691 -0.025 -0.272 -0.107 -0.491 -0.032 -0.181 -0.313 -0.393" />
    <path class="write-flat-pen" fill="#FFFFFF" stroke-width="1.6" __comx="128.503" __comy="138.101" __timestamp="0x178a090f9ed" d="M122.835 139.812 l0.469 -0.638 0.003 0.016 8.896 -1.615 0.481 -0.204 2.08 -0.889 -0.024 -0.081 -2.232 0.363 -0.475 0.073 -8.987 1.457 -0.382 0.177 -0.422 1.026" />
    <path class="write-flat-pen" fill="#FFFFFF" stroke-width="1.6" __comx="140.62" __comy="138.101" __timestamp="0x178a090fb5d" d="M136.86 128.164 l0.116 -0.393 -0.214 0.178 0.255 0.145 0.085 0.066 1.283 1 0.293 0.282 1.788 2.174 1.499 2.604 1.053 3.005 0.419 3.084 -0.163 2.272 -0.723 2.393 -1.339 2.237 -0.049 0.082 -0.039 0.062 -1.208 1.974 0.079 0.079 1.977 -1.211 0.07 -0.048 0.166 -0.142 1.715 -2.383 0.877 -2.755 0.186 -2.61 -0.477 -3.396 -1.175 -3.279 -1.685 -2.813 -2.035 -2.256 -0.449 -0.367 -1.562 -0.908 -0.32 -0.106 -0.718 0.013 -0.308 0.245 0.087 0.763" />
    <path class="write-flat-pen" fill="#FFFFFF" stroke-width="1.6" __comx="155.104" __comy="138.101" __timestamp="0x178a090fd05" d="M150.479 135.33 l0.518 0.131 0.106 0.03 1.615 0.23 0.372 0.025 4.006 0.026 0.314 -0.016 2.311 -0.099 0.008 -0.094 -2.258 -0.501 -0.33 -0.073 -4.022 -0.194 -0.351 -0.001 -1.595 -0.007 -0.117 0.002 -0.554 0.076" />
    <path class="write-flat-pen" fill="#FFFFFF" stroke-width="1.6" __comx="156.352" __comy="138.101" __timestamp="0x178a090fde1" d="M152.713 141.449 l0.833 -0.329 0.114 -0.016 4.347 -0.246 2.255 -0.139 0.011 -0.147 -2.256 -0.465 -4.486 0.161 -0.291 0.092 -0.81 0.578" />
    <path class="write-flat-pen" fill="#FFFFFF" stroke-width="1.6" __comx="197.18" __comy="138.101" __timestamp="0x178a0910675" d="M187.832 147.347 l-0.344 0.336 -0.031 0.093 -0.064 0.092 0.525 0.078 0.046 -0.012 0.178 -0.127 0.112 -0.121 0.378 -0.508 0.181 -0.28 1.125 -2.199 0.264 -0.606 4.695 -12.034 1.44 -4.664 0.343 -2.412 -0.199 -2.302 -0.532 -0.827 0 0 -1.216 -0.152 -0.616 0.573 0.415 2.487 5.496 11.925 2.793 5.13 2.603 3.474 0.311 0.134 0.198 -0.012 1.005 -0.272 0.029 -0.101 -0.708 -0.764 0.001 -0.069 0.133 0.028 -2.214 -3.269 -2.721 -4.998 -5.384 -11.682 -0.239 -1.428 -0.013 0.012 -1.216 -0.152 0 0 0.319 0.494 0.154 1.729 -0.288 2.112 -1.346 4.505 -4.539 12.017 -0.222 0.576 -0.908 2.233 -0.113 0.275 -0.209 0.587 -0.039 0.152 -0.005 0.199 0.019 0.03 0.525 0.078 -0.077 0.046 -0.026 0.067 0.111 -0.395" />
    <path class="write-flat-pen" fill="#FFFFFF" stroke-width="1.6" __comx="196.642" __comy="138.101" __timestamp="0x178a09107d6" d="M190.319 138.859 l0.196 -0.291 -0.041 0.027 1.885 0.155 0.457 0.034 2.731 0.071 4.998 -0.706 0.474 -0.116 2.212 -0.538 -0.016 -0.115 -2.276 0.069 -0.484 0.013 -4.958 0.523 -2.661 0.013 -0.454 -0.008 -1.951 0.074 -0.303 0.074 -0.077 0.643" />
    <path class="write-flat-pen" fill="#FFFFFF" stroke-width="1.6" __comx="222.947" __comy="138.101" __timestamp="0x178a0910a48" d="M226.217 137.852 l0.208 -0.604 0.041 -0.144 0.127 -0.643 0.018 -0.186 0.037 -0.882 -0.012 -0.225 -0.234 -1.252 -0.153 -0.325 -1.959 -1.479 -0.657 -0.106 -2.083 0.157 -2.245 0.871 -1.798 1.344 -1.271 1.651 -0.86 2.394 -0.056 1.936 0.669 1.95 1.407 1.64 1.524 0.876 2.199 0.553 2.261 -0.046 3.5 -0.901 0.407 -0.167 0.88 -0.419 0.309 -0.191 0.226 -0.158 1.874 -1.316 -0.017 -0.038 -2.228 0.533 -0.256 0.06 -0.307 0.068 -0.911 0.199 -0.355 0.087 -3.316 0.665 -1.885 0.033 -1.781 -0.447 -1.099 -0.63 -1.036 -1.2 -0.478 -1.391 0.041 -1.399 0.687 -1.929 0.985 -1.29 1.452 -1.099 1.834 -0.739 1.686 -0.178 0.156 0.013 1.548 0.93 -0.025 -0.073 0.389 1.012 0.036 0.125 0.163 0.819 0.026 0.142 0.07 0.609 0.01 0.12 -0.001 0.627" />
    <path class="write-flat-pen" fill="#FFFFFF" stroke-width="1.6" __comx="235.648" __comy="138.101" __timestamp="0x178a0910c40" d="M236.403 139.277 l0.295 -0.567 0.053 -0.104 0.285 -0.683 0.041 -0.233 -0.212 -1.117 -0.307 -0.3 -1.157 -0.315 -1.682 0.538 -1.292 1.003 -1.069 1.598 -0.529 1.909 0.141 1.72 0.856 1.826 1.208 1.013 1.676 0.475 1.941 -0.363 1.636 -0.95 1.381 -1.566 0.792 -2.005 0.006 -1.709 -0.619 -1.397 -1.286 -1.233 -1.564 -0.435 -0.189 0.036 -0.086 0.068 -0.59 0.517 -0.002 0.056 0.547 0.565 0.09 0.074 -0.024 0.04 0.961 0.466 0.811 0.781 0.355 0.799 0 1.071 -0.572 1.476 -1.019 1.183 -1.18 0.712 -1.331 0.279 -1.038 -0.273 -0.728 -0.593 -0.626 -1.293 -0.112 -1.209 0.39 -1.452 0.806 -1.238 0.918 -0.752 1.104 -0.429 0.537 0.049 -0.128 -0.135 0.295 0.593 0.016 0.004 -0.05 0.66 -0.01 0.096 -0.093 0.631" />
    <path class="write-flat-pen" fill="#FFFFFF" stroke-width="1.6" __comx="247.158" __comy="138.101" __timestamp="0x178a0910e28" d="M245.983 134.474 l0.051 -0.453 -0.086 -0.157 -0.39 -0.394 -0.185 -0.083 -1.107 -0.146 -0.314 0.06 -1.067 0.653 -0.515 1.134 0.196 1.225 0.904 1.269 5.706 3.776 0.93 0.934 0.365 0.849 -0.067 0.511 -0.428 0.532 -0.915 0.487 -1.592 0.3 -1.277 -0.119 -1.003 -0.464 -0.379 -0.419 -0.029 0.1 -0.061 -0.165 -0.186 -1.422 -0.097 -0.023 -0.818 1.224 -0.14 0.322 -0.011 0.396 0.641 1.206 1.665 0.788 1.774 0.156 2.045 -0.403 1.402 -0.781 0.856 -1.158 0.093 -1.329 -0.684 -1.408 -1.232 -1.179 -5.659 -3.656 -0.612 -0.827 -0.116 -0.574 0.186 -0.502 0.555 -0.436 -0.015 -0.008 0.851 -0.085 -0.018 -0.023 0.347 0.097 -0.014 -0.057 0.159 0.294" />
    <path class="write-flat-pen" fill="#FFFFFF" stroke-width="1.6" __comx="260.608" __comy="138.101" __timestamp="0x178a09110fe" d="M261.048 123.856 l0.419 -0.702 0.025 -0.04 0.342 -0.604 0.025 -0.075 0.121 -0.527 -0.269 -0.437 -0.712 0.076 -0.321 0.218 -1.693 1.99 -0.354 0.584 -1.287 2.727 -0.982 3.512 -0.608 4.148 -0.119 4.148 0.581 4.011 1.064 3.278 1.13 1.947 2.944 2.472 0.563 0.226 0.961 0.245 0.471 0.054 2.206 0.244 0.026 -0.095 -2.03 -0.897 -0.395 -0.18 -0.803 -0.405 -0.329 -0.2 -2.499 -2.37 -0.929 -1.624 -0.979 -3.019 -0.544 -3.767 0.114 -3.941 0.578 -3.977 0.917 -3.315 1.18 -2.575 0.259 -0.458 1.378 -1.946 -0.013 -0.026 -0.171 -0.052 -0.201 -0.34 0.097 0.178 0.012 -0.022 -0.114 0.643 -0.008 0.037 -0.211 0.791" />
    <path class="write-flat-pen" fill="#FFFFFF" stroke-width="1.6" __comx="285.817" __comy="138.101" __timestamp="0x178a0911a4a" d="M280.004 136.33 l-0.005 -0.836 -0.001 -0.042 -0.007 -0.685 -0.011 -0.097 -0.059 -0.375 -0.78 -0.243 -0.205 0.091 -0.603 0.954 -0.169 0.365 -1.357 4.007 -0.773 3.878 -0.019 2.294 0.474 1.676 0.902 1.112 1.479 0.673 1.907 -0.193 1.907 -1 2.261 -2.164 1.512 -2.027 -0.553 -0.1 1.06 2.422 1.168 1.547 1.445 0.862 1.682 0.053 1.316 -0.619 1.391 -1.434 1.047 -2.182 0.573 -2.759 0.033 -2.718 -0.475 -2.027 -0.918 -1.573 -1.054 -0.507 -0.255 0.016 -0.069 0.023 -0.631 0.513 0.011 0.313 0.665 0.469 -0.028 0.022 -0.148 0.028 0.342 0.297 0.583 0.998 0.375 1.603 -0.029 2.368 -0.502 2.417 -0.85 1.772 -1.006 1.038 -0.704 0.331 -0.884 -0.028 -0.821 -0.49 -0.866 -1.148 -1.327 -3.032 -1.261 -0.227 -2.023 2.713 -2.002 1.916 -1.433 0.752 -1.169 0.119 -0.744 -0.338 -0.46 -0.565 -0.326 -1.141 0.006 -1.92 0.683 -3.652 1.181 -3.905 0.097 -0.275 0.238 -0.696 -0.117 0.04 -0.78 -0.243 0.204 0.177 0.003 -0.023 0.232 0.636 0.011 0.028 0.225 0.797" />
    <path class="write-flat-pen" fill="#FFFFFF" stroke-width="1.6" __comx="311.016" __comy="138.101" __timestamp="0x178a0911d00" d="M312.869 124.308 l0.105 -0.562 0.003 -0.075 -0.056 -0.443 -0.147 -0.209 -0.567 -0.329 -0.389 0.018 -1.031 0.451 -0.403 0.33 -1.691 2.09 -1.297 2.717 -0.993 3.572 -0.511 4.783 0.131 4.434 0.748 3.167 1.1 2.604 1.576 2.242 2.906 1.837 0.481 0.116 0.754 0.052 0.388 -0.046 2.157 -0.283 0.005 -0.101 -2.115 -0.508 -0.312 -0.083 -0.583 -0.202 -0.216 -0.103 -2.401 -1.758 -1.308 -1.897 -0.985 -2.341 -0.68 -2.894 -0.119 -4.176 0.485 -4.557 0.912 -3.333 1.135 -2.479 1.399 -1.962 0.172 -0.188 0.627 -0.466 -0.061 -0.023 0.23 -0.03 -0.031 -0.073 0.17 0.182 0.007 -0.015 0.111 0.544" />
    <path class="write-flat-pen" fill="#FFFFFF" stroke-width="1.6" __comx="325.093" __comy="138.101" __timestamp="0x178a0911f57" d="M323.39 127.338 l-0.249 -0.361 -0.239 -0.049 -0.048 0.25 -0.127 0.345 -0.039 0.145 -0.199 0.841 -0.06 0.265 -0.613 2.728 -0.108 0.543 -1.566 8.104 -0.449 4.735 0.308 1.601 0.89 1.305 1.371 0.763 1.889 0.13 4.19 -1.413 0.224 -0.153 0.349 -0.288 1.581 -1.623 -0.054 -0.083 -2.111 0.76 -0.393 0.149 -0.116 0.041 -3.847 1.104 -1.279 -0.085 -0.778 -0.427 -0.524 -0.76 -0.215 -1.092 0.415 -4.458 1.458 -8.063 0.086 -0.55 0.392 -2.788 0.021 -0.307 0 -0.892 -0.015 -0.16 -0.062 -0.351 -0.039 0.165 -0.21 -0.055 -0.215 0.021" />
    <path class="write-flat-pen" fill="#FFFFFF" stroke-width="1.6" __comx="323.244" __comy="138.101" __timestamp="0x178a091206b" d="M317.343 139.069 l-0.054 -0.467 -0.16 0.199 1.058 -0.261 0.294 -0.043 4.512 -0.373 4.348 -0.091 0.395 -0.023 2.339 -0.111 0.012 -0.137 -2.282 -0.525 -0.419 -0.096 -4.444 -0.202 -4.616 0.51 -0.414 0.097 -1.242 0.56 -0.271 0.319 0.427 0.835" />
    <path class="write-flat-pen" fill="#FFFFFF" stroke-width="1.6" __comx="339.851" __comy="138.101" __timestamp="0x178a09121b6" d="M335.24 139.206 l-0.045 -0.338 -0.154 0.418 0.052 0.001 1.295 -0.152 0.362 -0.029 5.668 -0.179 0.333 0.005 2.284 0.064 0.015 -0.099 -2.202 -0.61 -0.38 -0.103 -5.778 0.014 -0.442 0.067 -1.346 0.398 -0.094 0.062 -0.154 0.418 0.246 0.237" />
    <path class="write-flat-pen" fill="#FFFFFF" stroke-width="1.6" __comx="356.005" __comy="138.101" __timestamp="0x178a0912451" d="M356.563 137.719 l0.095 -0.614 0.01 -0.119 -0.051 -0.564 -0.051 -0.126 -0.411 -0.606 -0.25 -0.171 -1.108 -0.25 -0.424 0.053 -1.923 0.633 -1.811 1.248 -1.378 1.832 -0.756 2.01 -0.104 1.883 0.529 1.868 1.023 1.51 1.282 0.893 1.789 0.387 2.106 -0.384 2.255 -1.052 2.615 -1.849 1.821 -2.045 1.149 -2.138 0.636 -2.432 -0.082 -1.86 -0.598 -1.461 -1.324 -1.483 -1.674 -0.874 -1.919 -0.157 -1.894 0.644 -2.224 1.568 -2.345 3.04 -0.154 0.339 -0.272 0.871 -0.072 0.347 -0.065 0.609 -0.166 2.304 0.086 0.022 0.94 -2.102 0.239 -0.523 0.125 -0.249 0.392 -0.711 0.099 -0.145 2.292 -2.618 1.857 -1.309 1.361 -0.463 1.265 0.104 1.128 0.589 0.947 1.061 0.388 0.949 0.059 1.341 -0.526 2.013 -0.97 1.804 -1.574 1.769 -2.348 1.664 -1.94 0.912 -1.597 0.305 -1.183 -0.24 -0.798 -0.543 -0.738 -1.062 -0.41 -1.385 0.06 -1.405 0.582 -1.61 1.09 -1.505 1.441 -1.065 1.598 -0.668 0.134 -0.043 0.765 -0.009 -0.012 -0.031 0.422 0.281 0.001 -0.026 0.236 0.394 0.023 0.057 0.115 0.6" />
    <path class="write-flat-pen" fill="#FFFFFF" stroke-width="1.6" __comx="355.065" __comy="138.101" __timestamp="0x178a0912655" d="M346.714 153.193 l-0.328 0.316 0.252 0.366 0.103 0.011 0.313 -0.161 0.247 -0.198 0.658 -0.654 0.461 -0.529 2.344 -3.082 0.701 -0.999 3.648 -5.452 7.129 -12.49 0.281 -0.604 0.532 -1.411 0.119 -0.381 0.072 -0.314 0.5 -2.193 -0.083 -0.032 -1.108 1.957 -0.153 0.265 -0.185 0.324 -0.706 1.289 -0.309 0.528 -7.257 12.341 -3.533 5.47 -0.656 0.998 -2.152 3.174 -0.379 0.544 -0.509 0.727 -0.141 0.211 -0.081 0.167 0.041 0.024 0.252 0.366 0.16 -0.427" />
    <path class="write-flat-pen" fill="#FFFFFF" stroke-width="1.6" __comx="370.302" __comy="138.101" __timestamp="0x178a0912926" d="M369.881 127.178 l-0.233 -0.315 -0.418 0.11 -0.08 0.14 0.116 0.421 0.095 0.198 0.688 1.094 0.229 0.34 1.975 3.172 0.983 2.347 0.312 2.127 -0.289 2.3 -0.694 1.763 -2.472 3.657 -0.433 0.517 -1.292 1.437 -0.398 0.417 -0.722 0.775 -1.516 1.655 0.057 0.065 1.845 -1.281 0.864 -0.627 0.472 -0.378 1.459 -1.333 0.534 -0.548 2.762 -3.725 0.827 -2.062 0.325 -2.649 -0.383 -2.466 -1.122 -2.587 -2.189 -3.209 -0.288 -0.346 -0.859 -0.936 -0.109 -0.105 -0.13 -0.057 -0.062 0.097 -0.418 0.11 0.363 0.147" />
    <path class="write-flat-pen" fill="#FFFFFF" stroke-width="1.6" __comx="380.813" __comy="138.101" __timestamp="0x178a0912bd9" d="M377.819 117.439 l0.557 -0.078 0.014 0.028 1.03 0.679 0.284 0.223 1.963 1.811 0.428 0.441 1.86 2.26 1.499 2.897 0.781 2.613 0.501 4.113 -0.045 4.346 -0.674 4.124 -1.243 3.892 -1.306 2.557 -2.994 3.717 -0.622 0.573 -2.251 1.84 -0.491 0.378 -0.974 0.714 -0.492 0.334 -0.44 0.294 -1.846 1.225 0.032 0.062 2.067 -0.797 0.504 -0.194 0.569 -0.26 1.097 -0.589 0.566 -0.343 2.438 -1.7 0.765 -0.628 3.314 -3.796 1.481 -2.795 1.333 -4.12 0.712 -4.355 0.031 -4.568 -0.563 -4.338 -0.887 -2.861 -1.694 -3.129 -2.084 -2.351 -0.525 -0.486 -2.179 -1.709 -0.403 -0.242 -1.242 -0.529 -0.311 -0.079 -0.719 0.334" />
    <path class="write-stroke-pen" fill="none" stroke="#FFFFFF" stroke-width="1.6" stroke-linecap="round" stroke-linejoin="round" __comx="151.543" __comy="235.18" __timestamp="0x178a091765d" d="M151.883 180.408 l-0.681 330.232" />
    <path class="write-stroke-pen" fill="none" stroke="#FFFFFF" stroke-width="1.6" stroke-linecap="round" stroke-linejoin="round" __comx="373.61" __comy="357.457" __timestamp="0x178a091848b" d="M58.971 357.626 l629.279 0.588" />
    <path class="write-flat-pen" transform="translate(76.034,-3.101)" fill="#D534A9" stroke-width="1.6" __comx="225.921" __comy="353.45" __timestamp="0x178a091afe9" d="M148.797 358.459 l-0.218 -2.346 0.005 0.011 0.435 -0.671 0.823 -0.154 0.984 0.477 0.845 1.117 0.013 0.714 -0.441 0.407 -1.388 0.126 -1.184 -0.477 -0.468 -0.662 0.023 -0.81 0.592 -0.823 1.565 -0.828 1.415 -0.117 0.8 0.462 0.611 1.182 -0.034 1.465 -0.728 1.694 -1.364 1.321 -1.626 0.698 -1.157 -0.004 -0.859 -0.556 -0.403 -1.075 0.163 -1.23 0.833 -1.364 1.204 -0.776 1.023 -0.077 0.664 0.353 0.577 0.969 -0.005 1.292 -0.541 1.044 -1.015 0.745 -1.156 0.177 -0.767 -0.303 -0.476 -0.707 -0.02 -0.997 0.559 -1.143 1.365 -1.076 1.292 -0.318 0.586 0.197 0.537 0.732 0.103 1.239 -0.603 1.725 -1.076 1.309 -1.511 0.865 -1.012 0.099 -0.576 -0.303 -0.375 -0.717 0.088 -0.642 1.891 -1.578 0.28 -0.12 0.985 -0.315 2.922 -0.889 -0.019 -0.122 -3.064 0.062 -1.09 0.061 -0.596 0.11 -2.803 1.907 -0.25 1.815 0.844 1.612 1.442 0.758 1.829 -0.18 2.063 -1.181 1.443 -1.755 0.809 -2.315 -0.169 -2.029 -1.104 -1.505 -1.507 -0.506 -2.079 0.511 -1.924 1.516 -0.888 1.819 0.039 1.855 1.018 1.507 1.631 0.64 1.968 -0.307 1.624 -1.206 0.87 -1.722 -0.025 -2.097 -1.029 -1.687 -1.429 -0.75 -1.843 0.145 -1.815 1.174 -1.18 1.932 -0.251 1.925 0.721 1.892 1.653 1.053 1.903 -0.01 2.148 -0.944 1.749 -1.727 0.926 -2.223 0.032 -2.097 -0.97 -1.86 -1.535 -0.883 -2.137 0.182 -2.1 1.127 -1.017 1.437 -0.032 1.688 0.98 1.35 1.871 0.707 2.154 -0.272 1.072 -1.169 -0.174 -1.581 -1.309 -1.489 -1.527 -0.581 -1.363 0.471 -0.474 1.101 -0.014 0.162 0.568 2.366" />
    <path class="write-flat-pen" transform="translate(76.034,-3.101)" fill="#D534A9" stroke-width="1.6" __comx="377.922" __comy="352.655" __timestamp="0x178a091bc5c" d="M301.626 358.885 l-0.407 -0.443 -0.126 0.011 -1.03 -0.059 -0.021 -0.02 -1.05 -0.67 -0.718 -1.352 -0.127 -1.56 0.409 -1.129 0.689 -0.563 0.56 -0.005 0.548 0.524 0.314 1.199 -0.273 1.407 -0.733 0.956 -0.902 0.423 -0.646 -0.112 -0.404 -0.489 -0.046 -0.813 0.478 -0.949 1.156 -0.771 0.764 -0.021 0.808 0.567 0.496 1.29 -0.123 1.856 -0.625 1.283 -0.895 0.704 -0.689 0.056 -0.482 -0.316 -0.415 -1.019 0.143 -1.722 0.702 -1.346 1.214 -0.96 1.393 -0.292 0.98 0.422 0.676 0.941 0.134 1.396 -0.57 1.332 -1.321 1.188 -1.833 0.654 -1.328 -0.081 -0.747 -0.536 -0.141 -0.701 0.494 -1.196 1.863 -1.883 2.891 -1.722 0.534 -0.252 1.656 -0.684 3.121 -1.239 -0.029 -0.103 -3.325 0.551 -1.801 0.396 -0.67 0.217 -3.286 1.601 -2.307 2.205 -0.804 1.948 0.36 1.795 1.633 1.173 2.115 0.129 2.438 -0.87 1.818 -1.634 0.87 -2.032 -0.215 -2.232 -1.187 -1.653 -1.853 -0.798 -2.258 0.473 -1.777 1.406 -1.01 1.935 -0.201 2.425 0.747 1.835 1.358 0.89 1.717 -0.14 1.563 -1.229 0.922 -1.895 0.167 -2.52 -0.798 -2.074 -1.641 -1.151 -1.754 0.048 -1.889 1.262 -0.858 1.709 0.105 1.763 1.121 1.34 1.719 0.28 1.688 -0.818 1.154 -1.569 0.362 -2.101 -0.539 -1.921 -1.296 -1.194 -1.649 0.045 -1.361 1.152 -0.601 1.799 0.258 2.135 1.137 1.823 1.588 0.72 0.311 0.032 1.13 -0.305 -0.07 0.001 0.402 0.049" />
    <path class="write-flat-pen" transform="translate(76.034,-3.101)" fill="#D534A9" stroke-width="1.6" __comx="528.149" __comy="351.745" __timestamp="0x178a091cad8" d="M452.315 358.051 l0.143 -1.193 0.014 0.007 -0.69 -0.074 -0.073 0.551 -0.001 -0.045 -0.609 0.784 -0.731 0.15 -0.87 -0.453 -0.801 -1.227 -0.349 -1.754 0.328 -1.648 0.773 -1.004 1.254 -0.554 1.395 0.116 1.311 0.772 0.761 1.104 0.171 1.269 -0.448 1.205 -1.168 0.992 -1.767 0.533 -1.257 -0.183 -0.751 -0.661 -0.082 -0.559 0.417 -0.656 1.655 -0.898 2.048 -0.391 1.271 0.26 0.647 0.617 0.147 0.844 -0.479 1.052 -1.32 0.985 -1.539 0.425 -1.063 -0.166 -0.657 -0.573 -0.151 -0.697 0.358 -0.939 1.145 -1.001 1.556 -0.486 1.449 0.217 0.806 0.633 0.629 1.305 -0.013 1.051 -0.587 1.141 -0.996 0.699 -1.273 0.223 -1.317 -0.407 -0.044 -0.001 -0.147 -0.113 -2.06 -1.649 -0.038 0.032 1.251 2.323 0.107 0.193 0.193 0.251 1.845 1.019 2.108 -0.355 1.614 -1.132 0.94 -1.827 0.023 -1.804 -0.954 -1.978 -1.431 -1.123 -2.231 -0.334 -2.229 0.696 -1.699 1.486 -0.668 1.755 0.364 1.679 1.405 1.225 1.86 0.291 2.162 -0.597 1.89 -1.411 0.852 -1.876 -0.324 -1.849 -1.36 -1.292 -2.028 -0.419 -2.603 0.499 -2.236 1.217 -0.951 1.507 0.255 1.72 1.548 1.353 2.073 0.292 2.409 -0.752 1.707 -1.479 0.703 -1.943 -0.28 -2 -1.156 -1.678 -1.901 -1.113 -2.123 -0.173 -1.954 0.871 -1.214 1.592 -0.437 2.287 0.495 2.319 1.21 1.76 1.702 0.776 1.631 -0.516 0.834 -1.402 0.08 -0.359 -0.298 -0.719 -0.69 -0.074 -0.039 0.137 0.187 1.33" />
    <path class="write-stroke-pen" transform="translate(76.034,-3.101)" fill="none" stroke="#00FFFF" stroke-opacity="0.29" stroke-width="1.6" stroke-linecap="round" stroke-linejoin="round" __comx="426.368" __comy="235.32" __timestamp="0x178a0921a36" d="M5.008 240.993 l690.653 -4.611" />
    <path class="write-stroke-pen" transform="translate(76.034,-3.101)" fill="none" stroke="#00FFFF" stroke-opacity="0.29" stroke-width="1.6" stroke-linecap="round" stroke-linejoin="round" __comx="435.267" __comy="479.23" __timestamp="0x178a09233bb" d="M22.805 486.142 l672.856 -7.087" />
    <path class="write-stroke-pen" transform="translate(76.034,-3.101)" fill="none" stroke="#00FFFF" stroke-opacity="0.29" stroke-width="3.5" stroke-linecap="round" stroke-linejoin="round" __comx="225.287" __comy="225.687" __timestamp="0x178a09248f9" d="M149.253 228.969 l0 2.414" />
    <path class="write-stroke-pen" transform="translate(76.034,-3.101)" fill="none" stroke="#00FFFF" stroke-opacity="0.29" stroke-width="3.5" stroke-linecap="round" stroke-linejoin="round" __comx="227.732" __comy="264.549" __timestamp="0x178a0925d9c" d="M151.203 222.717 l0.99 273.099" />
    <path class="write-stroke-pen" transform="translate(76.034,-3.101)" fill="none" stroke="#00FFFF" stroke-opacity="0.29" stroke-width="3.5" stroke-linecap="round" stroke-linejoin="round" __comx="525.735" __comy="251.205" __timestamp="0x178a0926cbe" d="M448.51 204.581 l2.383 301.852" />
    <path class="write-flat-pen" transform="translate(76.034,-3.101)" fill="#FFFFFF" stroke-width="1.6" __comx="298.603" __comy="298.868" __timestamp="0x178a0928a8f" d="M148.747 358.041 l-0.016 0.063 -0.14 0.066 0.338 0.133 0.012 -0.002 0.173 -0.143 0.052 -0.061 0.392 -0.569 0.089 -0.146 0.913 -1.819 0.08 -0.167 6.865 -13.417 0.165 -0.296 17.289 -31.832 20.315 -33.655 6.332 -9.224 3.661 -4.688 4.393 -4.67 4.087 -3.699 3.28 -2.337 8.787 -5.085 3.589 -1.53 2.223 -0.495 5.978 -0.243 4.522 0.245 6.743 1.313 2.374 0.802 1.873 1.088 2.236 1.917 1.776 2.11 1.811 2.995 6.223 14.518 4.549 13.211 8.148 21.627 6.826 22.98 6.27 18.76 3.567 8.933 0.642 2.193 0.039 0.071 0.015 0.061 0.468 2.229 0.04 0.003 0.744 -2.153 0.023 -0.07 0.054 -0.273 -0.495 -2.547 -3.593 -8.998 -6.247 -18.691 -6.835 -23.009 -8.16 -21.659 -4.56 -13.245 -6.29 -14.674 -1.933 -3.198 -1.94 -2.305 -2.446 -2.097 -2.139 -1.242 -2.627 -0.888 -6.957 -1.354 -4.708 -0.255 -6.197 0.253 -2.507 0.559 -3.813 1.629 -8.933 5.179 -3.406 2.448 -4.191 3.811 -4.485 4.767 -3.73 4.786 -6.377 9.306 -20.297 33.759 -17.189 31.916 -0.174 0.315 -6.684 13.573 -0.08 0.201 -0.7 1.891 -0.054 0.148 -0.194 0.669 -0.015 0.081 0.002 0.229 0.005 0.013 0.338 0.133 -0.068 -0.138 0.019 -0.076" />
    <path class="write-flat-pen" transform="translate(76.034,-3.101)" fill="#FFFFFF" stroke-width="1.6" __comx="450.399" __comy="369.354" __timestamp="0x178a0929c2c" d="M294.526 351.539 l-0.222 -1.165 0.481 -0.303 -0.075 -0.014 0.928 1.107 0.061 0.107 1.582 3.2 0.142 0.314 3.427 7.374 0.114 0.281 2.43 6.518 3.034 9.886 6.861 16.627 15.331 47.127 3.705 9.453 4.016 8.862 3.094 5.791 2.672 3.993 3.511 4.307 2.611 2.441 2.386 1.604 4.027 1.876 5.157 1.795 3.114 0.632 2.544 0.022 3.051 -0.59 3.167 -1.157 3.503 -2.027 4.369 -3.377 9.933 -9.203 4.202 -4.374 8.48 -9.948 8.465 -12.05 10.416 -15.783 11.942 -22.072 7.443 -15.383 2.007 -5.009 6.074 -20.337 1.318 -3.419 4.188 -7.069 0.67 -2.284 -0.161 -0.101 -1.774 1.607 -4.366 7.142 -1.39 3.607 -6.071 20.327 -1.96 4.89 -7.403 15.301 -11.892 21.978 -10.365 15.705 -8.409 11.969 -8.401 9.855 -4.137 4.306 -9.847 9.123 -4.228 3.268 -3.29 1.903 -2.916 1.066 -2.768 0.536 -2.23 -0.019 -2.858 -0.58 -4.979 -1.733 -3.841 -1.789 -2.176 -1.463 -2.439 -2.28 -3.395 -4.164 -2.585 -3.865 -3.032 -5.675 -3.978 -8.777 -3.673 -9.371 -15.402 -47.118 -6.944 -16.587 -3.134 -9.829 -2.56 -6.532 -0.139 -0.325 -3.647 -7.303 -0.164 -0.325 -1.809 -3.144 -0.133 -0.183 -1.21 -1.064 -0.297 -0.104 -0.643 0.751 0.301 1.285" />
    <path class="write-flat-pen" transform="translate(74.579,5.168)" fill="#FFFFFF" stroke-width="1.6" __comx="379.004" __comy="530.223" __timestamp="0x178a092baf5" d="M144.246 524.678 l-0.34 -0.717 -0.354 -0.064 -0.475 0.633 -0.076 0.28 -0.308 2.542 -0.034 0.539 -0.527 5.22 -1.951 8.983 0.169 1.636 1.211 1.277 2.305 0.927 4.722 0.797 18.478 1.628 8.401 0.147 21.036 -0.924 38.747 -3.495 15.263 -0.782 29.959 -0.326 39.244 -1.374 66.223 -0.793 28.358 -2.037 22.618 -1.052 16.73 -1.34 11.205 0.452 2.217 -0.29 1.14 -0.956 0.462 -1.619 -1.683 -14.383 -0.127 -0.413 -0.341 -0.768 -1.242 -2.542 -0.117 0.035 0.337 2.8 0.087 0.78 0.02 0.323 1.443 14.031 -0.242 0.845 -0.407 0.341 -1.619 0.212 -11.164 -0.451 -16.8 1.345 -22.612 1.052 -28.331 2.035 -66.194 0.793 -39.243 1.374 -29.972 0.326 -15.327 0.785 -38.741 3.494 -20.95 0.92 -8.295 -0.145 -18.36 -1.615 -4.497 -0.745 -1.843 -0.719 -0.637 -0.642 -0.121 -0.879 1.729 -8.861 0.404 -5.336 0.007 -0.551 0.045 -2.492 -0.002 -0.123 0 -0.31 -0.252 -0.053 0.412 0.387" />
    <path class="write-flat-pen" transform="translate(74.579,5.168)" fill="#FFFFFF" stroke-width="1.6" __comx="273.592" __comy="591.703" __timestamp="0x178a092c5fe" d="M198.357 581.875 l-0.042 -0.652 -0.354 0.229 -0.046 0.001 0.018 0.326 0.028 0.186 0.34 1.517 0.119 0.549 0.585 3.844 0.216 5.18 -0.449 4.318 -0.771 2.653 0.064 0.012 -0.613 1.136 0.052 0.062 1.229 -0.396 0.249 -0.142 1.144 -3.032 0.451 -4.576 -0.307 -5.357 -0.788 -3.937 -0.187 -0.599 -0.58 -1.468 -0.098 -0.206 -0.288 -0.381 -0.086 -0.031 -0.354 0.229 0.297 0.582" />
    <path class="write-flat-pen" transform="translate(74.579,5.168)" fill="#FFFFFF" stroke-width="1.6" __comx="276.013" __comy="591.703" __timestamp="0x178a092c7cf" d="M196.719 582.933 l-0.619 -1.583 -0.027 -0.152 -0.05 -2.171 0.028 -0.172 0.578 -1.721 1.016 -1.409 1.414 -0.96 1.537 -0.397 1.774 0.172 1.537 0.645 1.419 1.222 0.854 1.671 0.257 1.662 -0.469 2.482 -0.881 1.832 -1.557 1.774 -1.49 0.925 -1.617 0.443 -0.383 -0.051 -0.209 0.397 0.002 -0.092 0.353 -1.136 -0.088 -0.067 -0.998 0.648 -0.171 0.136 -0.315 0.658 1.67 0.966 2.311 -0.639 1.825 -1.145 1.798 -2.075 1.022 -2.161 0.52 -2.879 -0.349 -2.082 -1.077 -2.062 -1.762 -1.502 -1.896 -0.787 -2.182 -0.197 -1.949 0.531 -1.734 1.242 -1.163 1.77 -0.516 2.01 -0.021 0.345 0.326 2.291 0.087 0.257 0.894 1.511" />
    <path class="write-flat-pen" transform="translate(74.579,5.168)" fill="#FFFFFF" stroke-width="1.6" __comx="288.543" __comy="591.703" __timestamp="0x178a092c9af" d="M207.762 589.453 l-0.402 0.55 0.201 0.245 0.863 0.517 0.307 0.097 2.59 0.239 0.482 -0.057 2.225 -0.741 1.561 -1.242 0.414 -1.425 -0.722 -1.117 -1.601 -0.427 -2.014 0.489 -1.625 1.1 -1.558 2.196 -0.876 2.54 -0.087 1.967 0.616 1.754 1.398 1.369 1.619 0.509 4.433 -1.083 0.544 -0.291 1.38 -0.861 0.443 -0.299 0.424 -0.311 2.193 -1.603 -0.042 -0.073 -2.496 1.07 -0.478 0.204 -0.476 0.208 -1.462 0.629 -0.423 0.163 -3.97 0.74 -0.914 -0.293 -0.904 -0.885 -0.408 -1.165 0.064 -1.473 0.735 -2.143 1.283 -1.809 1.189 -0.808 1.403 -0.351 0.723 0.177 0.089 0.114 -0.094 0.402 -1.014 0.867 -1.863 0.715 -0.25 0.047 -2.401 0.036 -0.159 -0.016 -0.789 -0.182 0.111 0.149 -0.003 -0.325" />
    <path class="write-flat-pen" transform="translate(74.579,5.168)" fill="#FFFFFF" stroke-width="1.6" __comx="301.094" __comy="591.703" __timestamp="0x178a092cb3e" d="M223.102 590.75 l-0.951 1.623 -0.089 0.217 -0.55 1.688 -0.039 0.147 0.006 -0.038 -0.174 0.091 0 0 1.187 0.225 0.02 -0.129 0.493 -4.959 0.68 -2.486 0.622 -0.845 0.741 -0.371 1.005 0.027 1.318 0.589 1.899 1.812 0.137 0.166 0.389 0.459 1.831 2.021 0.132 -0.085 -1.071 -2.514 -0.264 -0.541 -0.156 -0.29 -1.998 -2.292 -1.867 -0.854 -1.704 -0.042 -1.412 0.72 -0.994 1.379 -0.748 2.9 -0.277 5.125 0.005 0.145 1.187 0.225 0 0 -0.06 -0.252 0.006 -0.038 0.002 -0.117 0.273 -1.686 0.04 -0.162 0.687 -1.708" />
    <path class="write-flat-pen" transform="translate(74.579,5.168)" fill="#FFFFFF" stroke-width="1.6" __comx="308.707" __comy="591.703" __timestamp="0x178a092cc27" d="M232.776 588.893 l0.541 1.537 0.076 0.266 1.184 5.329 0.431 1.872 0.072 -0.001 0.399 -1.979 -1.319 -5.446 -0.133 -0.324 -0.782 -1.462" />
    <path class="write-flat-pen" transform="translate(74.579,5.168)" fill="#FFFFFF" stroke-width="1.6" __comx="308.829" __comy="591.703" __timestamp="0x178a092ccd4" d="M234.694 581.54 l-0.114 -0.564 0 0 -0.607 0.006 -0.166 1.049 0.127 1.737 0.04 0.002 0.287 -1.674 0.32 -0.967 -0.607 0.006 0 0 0.176 0.548" />
    <path class="write-flat-pen" transform="translate(74.579,5.168)" fill="#FFFFFF" stroke-width="1.6" __comx="316.015" __comy="591.703" __timestamp="0x178a092ce5d" d="M239.75 588.536 l1.05 0.049 0.13 -0.052 0.49 -0.455 -0.083 -0.481 -1.216 -0.422 -0.424 0.108 -1.443 0.858 -1.112 1.527 -0.539 1.838 0.238 2.057 0.955 1.853 1.38 1.276 1.824 0.532 1.691 -0.434 1.88 -1.373 1.141 -1.636 0.554 -1.968 -0.238 -1.58 -1.119 -1.548 -1.652 -0.521 -0.184 0.021 -1.875 0.634 0.004 0.115 1.91 0.516 -0.087 0.018 0.874 0.498 0.61 0.882 0.133 0.866 -0.383 1.385 -0.83 1.215 -1.416 1.08 -1.009 0.299 -1.124 -0.282 -0.982 -0.854 -0.776 -1.401 -0.225 -1.554 0.372 -1.396 0.815 -1.194 1.062 -0.738 0.006 -0.016 0.539 -0.019 -0.049 -0.328 -0.027 0.237 0.063 -0.02 -0.944 0.209" />
    <path class="write-flat-pen" transform="translate(74.579,5.168)" fill="#FFFFFF" stroke-width="1.6" __comx="327.669" __comy="591.703" __timestamp="0x178a092d06d" d="M250.256 580.012 l0.366 0.578 0.024 0.111 0.735 2.469 0.158 0.513 3.073 11.507 0.051 -0.715 -2.923 -0.15 -2.409 0.46 -1.538 1.023 -1.151 1.597 -0.49 1.731 0.28 1.409 1.271 1.319 2.186 0.68 2.393 -0.132 2.68 -0.85 2.37 -1.528 0.335 -0.302 0.541 -0.585 1.819 -2.095 -0.068 -0.081 -2.374 1.422 -0.656 0.393 -0.307 0.178 -2.276 1.204 -2.342 0.715 -1.933 0.123 -1.576 -0.456 -0.742 -0.717 -0.159 -0.656 0.302 -1.177 0.852 -1.205 1.103 -0.736 1.976 -0.37 4.134 0.268 0.065 -0.908 -3.415 -11.698 -0.201 -0.538 -0.99 -2.405 -0.124 -0.255 -0.67 -0.496" />
    <path class="write-flat-pen" transform="translate(74.579,5.168)" fill="#FFFFFF" stroke-width="1.6" __comx="347.953" __comy="591.703" __timestamp="0x178a092d201" d="M268.467 584.794 l0.24 -0.158 -0.165 0.005 1.833 0.519 0.369 0.087 5.12 0.548 2.776 -0.115 0.007 -0.097 -2.708 -0.523 -5.028 -0.801 -0.337 -0.06 -1.939 -0.266 -0.306 -0.004 -0.232 0.648" />
    <path class="write-flat-pen" transform="translate(74.579,5.168)" fill="#FFFFFF" stroke-width="1.6" __comx="350.689" __comy="591.703" __timestamp="0x178a092d2e9" d="M271.274 591.73 l1.252 -0.155 0.234 -0.027 5.647 -0.636 2.654 -0.425 -0.008 -0.117 -2.697 -0.078 -5.701 0.469 -0.28 0.058 -1.217 0.411" />
    <path class="write-flat-pen" transform="translate(74.579,5.168)" fill="#FFFFFF" stroke-width="1.6" __comx="381.185" __comy="591.703" __timestamp="0x178a092d5ba" d="M302.345 576.267 l-0.493 -1.56 -0.024 -0.152 0.085 -1.618 0.052 -0.123 0.705 -1.112 1.621 -1.267 1.657 -0.669 1.998 -0.236 1.298 0.304 1.004 0.723 0.595 1.022 0.164 1.739 -0.587 2.102 -1.39 2.39 -2.297 2.674 -3.055 2.604 -4.826 2.993 0.49 1.447 11.475 0.453 0.211 0.014 0.457 0.038 2.85 0.204 0.024 -0.092 -2.586 -1.219 -0.43 -0.192 -0.33 -0.116 -10.517 -0.624 0.254 0.759 3.84 -2.428 3.215 -2.775 2.441 -2.885 1.528 -2.685 0.672 -2.548 -0.258 -2.301 -0.915 -1.52 -1.467 -1.034 -1.794 -0.401 -2.405 0.325 -1.965 0.865 -1.841 1.61 -0.737 1.463 -0.09 0.382 0.201 1.832 0.089 0.254 0.759 1.49" />
    <path class="write-flat-pen" transform="translate(74.579,5.168)" fill="#FFFFFF" stroke-width="1.6" __comx="395.272" __comy="591.703" __timestamp="0x178a092d716" d="M319.696 580.075 l0.252 0.026 -0.198 -0.231 0.39 1.417 0.055 0.329 0.384 4.001 -0.124 3.41 -0.072 1.405 0.081 0.037 1.089 -1.162 0.394 -3.721 -0.592 -4.167 -0.12 -0.454 -0.701 -1.52 -0.335 -0.414 -0.76 0.539" />
    <path class="write-flat-pen" transform="translate(74.579,5.168)" fill="#FFFFFF" stroke-width="1.6" __comx="401.129" __comy="591.703" __timestamp="0x178a092d7f4" d="M326.411 579.485 l0.029 1.261 -0.005 0.295 -0.066 2.71 -0.019 0.5 -0.273 3.964 0.028 0.328 -0.387 0.28 -0.028 0.072 0.821 0.754 0.794 -1.095 0.106 -4.279 -0.019 -0.538 -0.213 -2.731 -0.046 -0.327 -0.285 -1.249" />
    <path class="write-flat-pen" transform="translate(74.579,5.168)" fill="#FFFFFF" stroke-width="1.6" __comx="398.582" __comy="591.703" __timestamp="0x178a092d8db" d="M315.221 580.503 l0.252 -0.41 0.001 0.038 0.75 -0.315 0.245 -0.076 2.65 -0.711 0.524 -0.137 4.145 -0.757 4.512 -0.255 0.562 -0.011 1.108 -0.032 0.544 -0.033 2.779 -0.162 0.008 -0.106 -2.723 -0.578 -0.535 -0.115 -1.104 -0.189 -0.624 -0.077 -4.697 0.048 -4.309 0.88 -0.597 0.187 -2.646 0.981 -0.344 0.182 -0.767 0.611 -0.176 0.211 -0.072 0.676" />
    <path class="write-flat-pen" transform="translate(74.579,5.168)" fill="#FFFFFF" stroke-width="1.6" __comx="415.473" __comy="591.703" __timestamp="0x178a092dabf" d="M332.172 595.777 l0.3 -0.178 0.073 -0.064 0.391 -0.411 0.195 -0.241 0.87 -1.202 0.417 -0.629 3.36 -5.502 0.654 -1.078 10.363 -16.639 1.01 -2.415 -0.085 -0.061 -1.978 1.768 -10.592 16.56 -0.653 1.11 -3.13 5.642 -0.344 0.665 -0.642 1.334 -0.117 0.282 -0.18 0.526 -0.011 0.066 -0.091 0.313" />
    <path class="write-flat-pen" transform="translate(74.579,5.168)" fill="#FFFFFF" stroke-width="1.6" __comx="428.752" __comy="591.703" __timestamp="0x178a092ddff" d="M348.049 587.29 l0.19 -1.455 0.024 -0.156 0.282 -1.288 0.01 -0.022 0.304 -0.651 -0.044 0.092 0 0 -1.075 -0.609 -0.94 1.863 -0.169 0.359 -1.46 3.667 -0.553 2.971 0.359 1.786 1.106 1.184 1.56 0.317 1.748 -0.514 1.981 -1.443 2.413 -3.017 -0.533 0.072 0.591 2.592 1.02 1.998 1.334 1.065 1.649 0.29 1.847 -0.663 1.555 -1.497 1.203 -2.228 0.996 -3.422 0.281 -3.215 -0.384 -2.466 -1.06 -2.107 -1.832 -0.432 -0.379 0.159 -0.131 0.091 -1.511 1.187 0.024 0.063 1.912 -0.1 0.117 0 -0.028 0.053 0.711 0.318 0.636 1.263 0.316 2.025 -0.25 2.865 -0.904 3.107 -1.003 1.859 -1.129 1.086 -1.125 0.404 -0.829 -0.146 -0.745 -0.595 -0.773 -1.513 -0.872 -3.823 -1.551 0.21 -2.679 3.35 -1.584 1.154 -1.101 0.324 -0.671 -0.136 -0.449 -0.479 -0.212 -1.04 0.459 -2.522 1.34 -3.511 0.147 -0.343 0.696 -1.984 -1.075 -0.609 0 0 -0.062 0.117 -0.109 0.972 -0.01 0.087 -0.017 1.373 0.008 0.181 0.071 1.467" />
    <path class="write-flat-pen" fill="#FFFFFF" stroke-width="1.6" __comx="220.148" __comy="386.819" __timestamp="0x178a0935d61" d="M224.753 357.677 l-1.94 2.364 -5.813 10.189 -0.236 0.344 -1.557 2.26 0.032 0.024 1.776 -2.092 0.284 -0.335 6.011 -10.054 1.779 -2.44" />
    <path class="write-flat-pen" fill="#FFFFFF" stroke-width="1.6" __comx="212.218" __comy="386.819" __timestamp="0x178a0935e3d" d="M213.106 374.696 l-1.507 4.991 -0.125 0.391 -0.8 2.496 0.043 0.017 1.12 -2.37 0.181 -0.383 1.745 -4.927" />
    <path class="write-flat-pen" fill="#FFFFFF" stroke-width="1.6" __comx="204.266" __comy="386.819" __timestamp="0x178a0935ed0" d="M205.328 392.693 l-0.118 0.151 -0.07 0.059 -0.083 0.079 -0.059 0.066 -0.109 0.111 -0.079 0.09 -0.107 0.121 -0.075 0.093 -0.115 0.14 -0.082 0.109 -0.086 0.119 -0.084 0.123 -0.055 0.08 -0.099 0.158 -0.04 0.065 -0.075 0.133 -0.03 0.056 -0.034 0.068 -0.996 1.972 0.057 0.035 1.333 -1.761 0.048 -0.063 0.037 -0.055 0.08 -0.122 0.04 -0.059 0.097 -0.152 0.051 -0.076 0.08 -0.125 0.076 -0.117 0.069 -0.104 0.101 -0.145 0.063 -0.095 0.09 -0.127 0.063 -0.093 0.093 -0.127 0.045 -0.072 0.055 -0.077 0.064 -0.086 0.122 -0.173" />
    <path class="write-flat-pen" fill="#FFFFFF" stroke-width="1.6" __comx="196.216" __comy="386.819" __timestamp="0x178a0935f77" d="M197.554 406.299 l-1.992 2.681 -0.963 2.214 0.046 0.025 1.304 -1.997 1.883 -2.723" />
    <path class="write-flat-pen" fill="#FFFFFF" stroke-width="1.6" __comx="186.616" __comy="441.729" __timestamp="0x178a0936009" d="M188.12 423.259 l-0.187 0.166 -0.169 0.143 -0.167 0.157 -0.163 0.162 -0.168 0.176 -0.178 0.19 -0.179 0.196 -0.169 0.185 -0.158 0.18 -0.114 0.145 -0.144 0.18 -0.048 0.064 -1.363 1.831 0.043 0.037 1.619 -1.608 0.057 -0.057 0.16 -0.172 0.119 -0.137 0.154 -0.172 0.166 -0.188 0.172 -0.203 0.167 -0.199 0.152 -0.186 0.143 -0.172 0.141 -0.17 0.14 -0.162 0.169 -0.183" />
    <path class="write-flat-pen" fill="#FFFFFF" stroke-width="1.6" __comx="176.107" __comy="441.729" __timestamp="0x178a09360a7" d="M177.992 436.155 l-2.577 2.33 -1.532 1.891 0.028 0.027 1.837 -1.572 2.583 -2.298" />
    <path class="write-flat-pen" fill="#FFFFFF" stroke-width="1.6" __comx="168.818" __comy="441.729" __timestamp="0x178a0936116" d="M170.006 444.813 l-0.075 0.096 -0.071 0.079 -0.054 0.072 -0.078 0.102 -0.063 0.095 -0.104 0.142 -0.08 0.12 -0.113 0.162 -0.078 0.12 -0.11 0.159 -0.076 0.116 -0.088 0.121 -0.093 0.137 -0.055 0.079 -0.128 0.181 -1.241 1.757 0.028 0.021 1.346 -1.677 0.14 -0.175 0.059 -0.081 0.094 -0.134 0.091 -0.121 0.079 -0.117 0.113 -0.159 0.078 -0.12 0.112 -0.162 0.078 -0.12 0.101 -0.145 0.06 -0.095 0.072 -0.1 0.048 -0.069 0.066 -0.081 0.076 -0.102" />
    <path class="write-flat-pen" fill="#FFFFFF" stroke-width="1.6" __comx="160.06" __comy="441.729" __timestamp="0x178a09361ef" d="M162.601 453.867 l-2.088 2.935 -3.075 3.084 0.006 0.007 3.269 -2.92 1.968 -3.05" />
    <path class="write-flat-pen" fill="#FFFFFF" stroke-width="1.6" __comx="151.231" __comy="471.646" __timestamp="0x178a093629b" d="M154.304 462.777 l-2.217 2.682 -0.153 0.186 -1.915 1.881 -1.996 1.789 0.033 0.042 2.241 -1.511 1.976 -1.896 0.164 -0.219 2 -2.851" />
    <path class="write-flat-pen" fill="#FFFFFF" stroke-width="1.6" __comx="140.793" __comy="471.646" __timestamp="0x178a093633c" d="M142.257 472.167 l-1.491 0.718 -1.62 1.079 0.018 0.036 1.823 -0.684 1.454 -0.791" />
    <path class="write-flat-pen" fill="#FFFFFF" stroke-width="1.6" __comx="133.508" __comy="471.646" __timestamp="0x178a09363dd" d="M135.942 475.676 l-2.14 1.774 -2.844 0.97 0.008 0.03 3.04 -0.628 2.054 -2.016" />
    <path class="write-flat-pen" fill="#FFFFFF" stroke-width="1.6" __comx="124.412" __comy="471.646" __timestamp="0x178a0936491" d="M126.887 480.272 l-1.95 0.526 -3.093 0.336 0.001 0.041 3.178 0.117 1.957 -0.731" />
    <path class="write-flat-pen" fill="#FFFFFF" stroke-width="1.6" __comx="117.164" __comy="471.646" __timestamp="0x178a0936538" d="M118.684 480.568 l-1.418 -0.272 -1.601 -0.609 -0.022 0.041 1.468 1.026 1.508 0.21" />
    <path class="write-flat-pen" fill="#FFFFFF" stroke-width="1.6" __comx="107.912" __comy="471.646" __timestamp="0x178a09365e0" d="M110.168 475.332 l-2.644 -0.673 -1.857 -0.998 -0.012 0.019 1.733 1.291 2.691 0.705" />
    <path class="write-flat-pen" fill="#FFFFFF" stroke-width="1.6" __comx="98.577" __comy="471.646" __timestamp="0x178a0936694" d="M101.435 467.518 l-2.02 -0.621 -1.836 -1.134 -1.838 -1.519 -0.024 0.026 1.67 1.741 1.87 1.249 2.133 0.434" />
    <path class="write-flat-pen" fill="#FFFFFF" stroke-width="1.6" __comx="90.334" __comy="471.646" __timestamp="0x178a0936731" d="M92.157 457.026 l-1.412 -1.186 -2.204 -2.618 -0.031 0.024 1.97 2.858 1.55 1.086" />
    <path class="write-flat-pen" fill="#FFFFFF" stroke-width="1.6" __comx="82.013" __comy="423.065" __timestamp="0x178a09367e3" d="M83.806 445.046 l-1.292 -0.92 -0.975 -1.327 -1.258 -2.001 -0.061 0.033 1.004 2.16 0.945 1.485 1.431 0.882" />
    <path class="write-flat-pen" fill="#FFFFFF" stroke-width="1.6" __comx="76.273" __comy="423.065" __timestamp="0x178a093686e" d="M77.718 435.088 l-0.035 -0.104 -0.038 -0.08 -0.028 -0.064 -0.032 -0.077 -0.036 -0.082 -0.044 -0.101 -0.044 -0.099 -0.048 -0.106 -0.053 -0.121 -0.025 -0.053 -0.074 -0.174 -0.052 -0.124 -0.054 -0.129 -0.067 -0.166 -0.062 -0.156 -0.073 -0.184 -0.069 -0.172 -0.072 -0.177 -0.099 -0.218 -0.065 -0.15 -0.08 -0.184 -0.082 -0.187 -0.076 -0.171 -0.085 -0.192 -0.073 -0.167 -0.087 -0.197 -0.115 -0.241 -0.096 -0.204 -1.104 -2.337 -0.024 0.011 1.016 2.377 0.089 0.208 0.114 0.24 0.085 0.196 0.073 0.168 0.085 0.192 0.075 0.171 0.081 0.187 0.08 0.184 0.065 0.151 0.098 0.217 0.071 0.175 0.069 0.172 0.073 0.184 0.062 0.156 0.067 0.167 0.054 0.13 0.053 0.124 0.075 0.176 0.025 0.054 0.053 0.12 0.048 0.106 0.044 0.098 0.044 0.1 0.036 0.081 0.033 0.078 0.03 0.067 0.036 0.074 0.033 0.096" />
    <path class="write-flat-pen" fill="#FFFFFF" stroke-width="1.6" __comx="69.075" __comy="423.065" __timestamp="0x178a093691e" d="M70.27 417.835 l-1.186 -1.341 -1.164 -1.604 -0.04 0.024 0.897 1.803 1.189 1.382" />
    <path class="write-flat-pen" fill="#FFFFFF" stroke-width="1.6" __comx="61.192" __comy="423.065" __timestamp="0x178a09369d2" d="M62.815 402.728 l-1.352 -0.911 -0.884 -1.392 -0.975 -2.043 -0.036 0.014 0.664 2.191 0.789 1.639 1.489 0.964" />
    <path class="write-flat-pen" fill="#FFFFFF" stroke-width="1.6" __comx="55.913" __comy="359.384" __timestamp="0x178a0936a78" d="M57.066 383.326 l-0.092 -0.095 -0.013 -0.028 -0.03 -0.033 -0.028 -0.04 -0.049 -0.05 -0.048 -0.057 -0.062 -0.057 -0.064 -0.07 -0.076 -0.067 -0.081 -0.081 -0.079 -0.069 -0.085 -0.083 -0.117 -0.112 -0.04 -0.037 -0.145 -0.148 -1.265 -1.304 -0.033 0.027 1.073 1.466 0.13 0.177 0.045 0.049 0.11 0.119 0.09 0.095 0.081 0.071 0.084 0.081 0.076 0.062 0.068 0.066 0.065 0.05 0.05 0.047 0.047 0.037 0.033 0.033 0.022 0.015 0.016 0.018 0.117 0.114" />
    <path class="write-flat-pen" fill="#FFFFFF" stroke-width="1.6" __comx="49.823" __comy="359.384" __timestamp="0x178a0936b23" d="M51.794 371.209 l-1.393 -0.741 -1.587 -2.395 -0.918 -2.229 -0.045 0.014 0.58 2.39 1.525 2.722 1.66 0.633" />
    <path class="write-flat-pen" fill="#FFFFFF" stroke-width="1.6" __comx="41.991" __comy="359.384" __timestamp="0x178a0936bc2" d="M44.72 353.406 l-3.554 -2.737 -1.876 -1.685 -0.028 0.027 1.658 1.935 3.588 2.737" />
    <path class="write-flat-pen" fill="#FFFFFF" stroke-width="1.6" __comx="32.341" __comy="359.384" __timestamp="0x178a0936c4c" d="M33.804 337.476 l-0.043 -0.074 0 -0.004 -0.008 -0.029 -0.006 -0.015 -0.016 -0.043 -0.012 -0.027 -0.05 -0.094 -0.018 -0.032 -0.075 -0.128 -0.051 -0.095 -0.092 -0.146 -0.071 -0.122 -0.128 -0.197 -0.094 -0.157 -0.122 -0.188 -0.104 -0.172 -0.147 -0.231 -0.108 -0.181 -0.148 -0.232 -0.125 -0.207 -0.162 -0.248 -1.293 -1.981 -0.054 0.032 1.098 2.095 0.136 0.261 0.118 0.216 0.145 0.237 0.109 0.183 0.153 0.232 0.111 0.171 0.13 0.184 0.103 0.153 0.139 0.188 0.08 0.117 0.104 0.136 0.061 0.087 0.095 0.122 0.022 0.026 0.062 0.078 0.014 0.016 0.028 0.038 0.009 0.009 0.018 0.024 0.007 0.007 0.045 0.071" />
    <path class="write-flat-pen" fill="#FFFFFF" stroke-width="1.6" __comx="24.999" __comy="299.244" __timestamp="0x178a0936d13" d="M26.433 317.411 l-1.645 -1.79 -1.189 -1.769 -0.034 0.019 0.905 1.977 1.628 1.863" />
    <path class="write-flat-pen" fill="#FFFFFF" stroke-width="1.6" __comx="19.184" __comy="299.244" __timestamp="0x178a0936d9c" d="M20.348 303.801 l-0.109 -0.056 -0.005 -0.003 0.002 -0.001 -0.003 -0.004 -0.007 -0.006 -0.011 -0.009 -0.019 -0.014 -0.044 -0.028 -0.02 -0.014 -0.032 -0.022 -0.072 -0.043 -0.028 -0.018 -0.105 -0.07 -0.034 -0.022 -0.084 -0.049 -0.092 -0.065 -0.05 -0.033 -0.097 -0.059 -0.118 -0.082 -1.38 -0.964 -0.023 0.029 1.239 1.139 0.115 0.105 0.099 0.071 0.043 0.033 0.101 0.075 0.093 0.054 0.032 0.019 0.116 0.067 0.039 0.02 0.075 0.033 0.032 0.015 0.029 0.013 0.049 0.018 0.017 0.006 0.014 0.005 0.014 0.005 0.013 0.004 0.015 0.004 0 -0.001 0.095 0.047" />
    <path class="write-flat-pen" fill="#FFFFFF" stroke-width="1.6" __comx="13.196" __comy="299.244" __timestamp="0x178a0936e3b" d="M14.707 294.719 l-0.072 -0.03 0.005 0.002 -0.003 -0.004 -0.007 -0.008 -0.014 -0.014 -0.033 -0.027 -0.036 -0.038 -0.05 -0.042 -0.023 -0.02 -0.105 -0.094 -0.027 -0.024 -0.135 -0.12 -0.045 -0.04 -0.147 -0.132 -0.051 -0.045 -0.171 -0.156 -0.047 -0.042 -0.184 -0.174 -0.051 -0.047 -0.183 -0.175 -0.108 -0.106 -1.512 -1.488 -0.022 0.02 1.373 1.617 0.101 0.119 0.181 0.187 0.051 0.05 0.185 0.179 0.05 0.045 0.177 0.154 0.055 0.045 0.154 0.126 0.049 0.038 0.143 0.112 0.029 0.022 0.115 0.086 0.03 0.02 0.048 0.031 0.045 0.035 0.042 0.023 0.011 0.007 0.014 0.008 0.014 0.008 0.013 0.006 0.083 0.033" />
    <path class="write-flat-pen" fill="#FFFFFF" stroke-width="1.6" __comx="4.892" __comy="299.244" __timestamp="0x178a0936ef7" d="M6.617 285.516 l-1.518 -0.526 -1.911 -1.366 -0.02 0.024 1.744 1.687 1.63 0.428" />
    <path class="write-flat-pen" fill="#FFFFFF" stroke-width="1.6" __comx="533.938" __comy="350.126" __timestamp="0x178a0937801" d="M530.179 354.438 l0.043 -1.392 0.953 -1.456 4.987 -4.236 1.997 -1.699 -0.043 -0.055 -2.126 1.538 -5.225 4.087 -1.046 1.677 0.064 1.539" />
    <path class="write-flat-pen" fill="#FFFFFF" stroke-width="1.6" __comx="552.957" __comy="331.611" __timestamp="0x178a09378a8" d="M552.449 333.893 l0.606 -2.498 0.895 -1.951 -0.056 -0.031 -1.225 1.827 -0.705 2.527" />
    <path class="write-flat-pen" fill="#FFFFFF" stroke-width="1.6" __comx="569.55" __comy="310.522" __timestamp="0x178a0937945" d="M567.097 313.81 l1.692 -2.546 3.42 -4.142 -0.032 -0.029 -3.729 3.916 -1.557 2.672" />
    <path class="write-flat-pen" fill="#FFFFFF" stroke-width="1.6" __comx="584.203" __comy="252.968" __timestamp="0x178a09379e3" d="M581.751 296.265 l0.668 -1.806 2.98 -4.546 1.517 -2.182 -0.035 -0.026 -1.697 2.054 -3.168 4.504 -0.528 1.917" />
    <path class="write-flat-pen" fill="#FFFFFF" stroke-width="1.6" __comx="598.209" __comy="252.968" __timestamp="0x178a0937a77" d="M594.214 279.374 l3.58 -4.256 4.524 -4.639 -0.03 -0.031 -4.75 4.436 -3.438 4.397" />
    <path class="write-flat-pen" fill="#FFFFFF" stroke-width="1.6" __comx="612.729" __comy="252.968" __timestamp="0x178a0937b07" d="M611.086 263.515 l0.072 -0.119 0.028 -0.059 0.059 -0.086 0.019 -0.027 0.091 -0.125 0.025 -0.034 0.107 -0.135 0.093 -0.114 0.079 -0.085 0.147 -0.168 0.083 -0.102 0.171 -0.188 0.132 -0.144 0.156 -0.168 0.178 -0.182 0.184 -0.185 0.179 -0.181 1.632 -1.654 -0.049 -0.051 -1.697 1.588 -0.187 0.175 -0.186 0.185 -0.181 0.184 -0.158 0.169 -0.133 0.144 -0.175 0.192 -0.084 0.103 -0.143 0.164 -0.081 0.087 -0.098 0.12 -0.109 0.14 -0.027 0.037 -0.09 0.128 -0.02 0.029 -0.065 0.099 -0.029 0.063 -0.067 0.112" />
    <path class="write-flat-pen" fill="#FFFFFF" stroke-width="1.6" __comx="626.94" __comy="252.968" __timestamp="0x178a0937bd1" d="M625.785 250.09 l1.219 -1.508 1.368 -1.45 -0.035 -0.039 -1.575 1.259 -1.253 1.51" />
    <path class="write-flat-pen" fill="#FFFFFF" stroke-width="1.6" __comx="639.691" __comy="252.968" __timestamp="0x178a0937c8c" d="M637.355 241.624 l0.043 -0.121 0 0.006 -0.004 0.012 -0.006 0.011 -0.004 0.007 -0.005 0.006 -0.001 0.004 0.003 0.002 0.001 0.002 0.036 -0.005 0.008 -0.001 0.013 -0.001 0.06 -0.007 0.027 -0.004 0.101 -0.013 0.111 -0.017 0.113 -0.021 0.128 -0.027 0.197 -0.062 0.142 -0.044 0.175 -0.055 0.215 -0.082 0.182 -0.067 0.244 -0.102 0.216 -0.087 0.284 -0.127 0.227 -0.096 0.295 -0.143 2.119 -1.028 -0.014 -0.033 -2.205 0.827 -0.303 0.113 -0.23 0.082 -0.288 0.107 -0.218 0.071 -0.246 0.085 -0.182 0.056 -0.212 0.072 -0.168 0.049 -0.145 0.044 -0.184 0.061 -0.108 0.027 -0.106 0.026 -0.105 0.025 -0.107 0.027 -0.029 0.01 -0.06 0.019 -0.024 0.009 -0.015 0.006 -0.052 0.024 -0.023 0.013 -0.019 0.013 -0.019 0.015 -0.015 0.014 -0.013 0.015 -0.017 0.024 -0.011 0.024 -0.006 0.018 -0.043 0.135" />
    <path class="write-flat-pen" fill="#FFFFFF" stroke-width="1.6" __comx="651.718" __comy="252.968" __timestamp="0x178a0937d1c" d="M648.007 236.925 l2.565 -1.142 4.923 -1.39 -0.009 -0.036 -4.994 1.202 -2.549 1.227" />
    <path class="write-flat-pen" fill="#FFFFFF" stroke-width="1.6" __comx="662.401" __comy="252.968" __timestamp="0x178a0937dc8" d="M659.875 233.641 l0.088 0 0.03 -0.002 0.004 0 0.009 0.001 0.011 0.001 0.013 0.001 0.015 0.002 0.01 0.001 0.017 0.002 0.017 0.002 0.02 0.003 0.063 0.008 0.017 0.003 0.026 0.004 0.026 0.004 0.092 0.013 0.03 0.004 0.105 0.014 0.034 0.004 0.145 0.017 0.04 0.004 0.16 0.015 0.12 0.01 0.142 0.009 0.13 0.007 0.171 0.007 0.158 0.004 0.182 0.002 0.187 0 0.192 -0.003 0.217 -0.004 0.222 -0.01 2.356 -0.109 0.001 -0.041 -2.353 -0.166 -0.222 -0.016 -0.217 -0.01 -0.191 -0.008 -0.186 -0.007 -0.181 -0.004 -0.157 -0.002 -0.17 -0.001 -0.129 0 -0.141 0.001 -0.119 0.002 -0.159 0.003 -0.039 0.001 -0.147 0.004 -0.036 0.002 -0.107 0.005 -0.032 0.003 -0.094 0.008 -0.028 0.003 -0.026 0.003 -0.02 0.002 -0.066 0.01 -0.023 0.004 -0.021 0.004 -0.018 0.004 -0.011 0.003 -0.016 0.004 -0.014 0.003 -0.013 0.003 -0.012 0.003 -0.008 0.002 -0.02 0.005 -0.077 0" />
    <path class="write-flat-pen" fill="#FFFFFF" stroke-width="1.6" __comx="674.851" __comy="252.968" __timestamp="0x178a0937e5b" d="M673.509 236.213 l0.063 0.087 0.004 0.019 0.011 0.023 0.036 0.063 0.008 0.015 0.034 0.068 0.048 0.067 0.045 0.075 0.047 0.083 0.074 0.102 0.078 0.122 0.092 0.117 0.116 0.145 0.041 0.05 0.169 0.182 0.118 0.111 0.141 0.111 1.539 1.208 0.021 -0.024 -1.38 -1.387 -0.12 -0.121 -0.099 -0.106 -0.151 -0.177 -0.035 -0.044 -0.116 -0.143 -0.087 -0.104 -0.081 -0.115 -0.076 -0.093 -0.046 -0.07 -0.062 -0.087 -0.051 -0.056 -0.037 -0.053 -0.016 -0.02 -0.04 -0.047 -0.004 -0.002 -0.018 -0.029 -0.081 -0.105" />
    <path class="write-flat-pen" fill="#FFFFFF" stroke-width="1.6" __comx="685.296" __comy="252.968" __timestamp="0x178a0937f04" d="M684.228 245.385 l0.705 1.557 1.387 1.343 0.043 -0.037 -1.096 -1.522 -0.714 -1.492" />
    <path class="write-flat-pen" fill="#FFFFFF" stroke-width="1.6" __comx="695.535" __comy="252.968" __timestamp="0x178a0937f8d" d="M695.249 257.93 l0.02 0.117 0.04 0.085 0.029 0.067 0.034 0.072 0.427 0.908 0.022 -0.009 -0.32 -0.951 -0.026 -0.077 -0.029 -0.072 -0.033 -0.07 -0.017 -0.096" />
    <path class="write-flat-pen" fill="#FFFFFF" stroke-width="1.6" __comx="700.74" __comy="268.031" __timestamp="0x178a0938058" d="M698.409 265.698 l2.015 3.847 1.076 3.123 0.115 0.36 0.083 0.292 0.116 0.365 0.086 0.278 0.112 0.323 0.09 0.252 0.917 2.586 0.053 -0.018 -0.848 -2.61 -0.083 -0.255 -0.111 -0.322 -0.085 -0.276 -0.115 -0.363 -0.082 -0.292 -0.116 -0.364 -1.077 -3.136 -2.019 -3.857" />
    <path class="write-flat-pen" fill="#FFFFFF" stroke-width="1.6" __comx="707.306" __comy="291.391" __timestamp="0x178a09380ea" d="M706.606 289.953 l-0.247 3.029 0.785 2.941 1.085 2.353 0.024 -0.01 -0.829 -2.433 -0.636 -2.892 0.065 -2.976" />
    <path class="write-flat-pen" fill="#FFFFFF" stroke-width="1.6" __comx="713.973" __comy="318.771" __timestamp="0x178a0938188" d="M713.975 317.768 l-0.39 3.365 0.405 2.275 0.031 -0.003 -0.047 -2.269 0.384 -3.324" />
    <path class="write-flat-pen" fill="#FFFFFF" stroke-width="1.6" __comx="721.862" __comy="338.522" __timestamp="0x178a093822c" d="M721.528 338.343 l-0.004 0.17 -0.004 0.035 0 0.057 0.005 0.073 0.011 0.087 0.021 0.111 0.054 0.158 0.044 0.114 0.506 1.33 0.044 -0.012 -0.263 -1.399 -0.023 -0.122 -0.036 -0.144 -0.012 -0.086 -0.012 -0.078 -0.01 -0.063 -0.007 -0.038 -0.004 -0.023 -0.004 -0.17" />
    <path class="write-flat-pen" fill="#FFFFFF" stroke-width="1.6" __comx="36.599" __comy="488.151" __timestamp="0x178a093afc1" d="M28.791 489.103 l-0.036 -0.169 -0.039 0.398 0.139 0.105 0.118 0.016 1.482 0.047 0.469 0.007 9.79 -0.985 0.68 -0.207 1.167 -0.417 2.524 -0.895 -0.04 -0.161 -2.647 0.404 -1.215 0.181 -0.626 0.088 -9.704 0.744 -0.445 0.031 -1.515 0.208 -0.217 0.056 -0.521 0.3 -0.041 0.414 0.524 0.128" />
    <path class="write-flat-pen" fill="#FFFFFF" stroke-width="1.6" __comx="58.954" __comy="486.395" __timestamp="0x178a093b2c0" d="M49.085 496.903 l-0.401 0.366 0.088 -0.116 0.277 -0.033 0.074 0.177 0.168 -0.792 0.064 -0.304 1.34 -5.109 0.231 -0.772 5.137 -16.521 0 0 0.322 -0.251 -1.199 -0.236 8.114 15.082 5.142 7.634 0.098 0.056 1.104 1.007 0.095 -0.043 -0.031 -1.494 -0.024 -0.212 -5.009 -7.77 -8.095 -15.012 -1.199 -0.236 -0.673 0.565 0 0 -5.183 17.012 -0.23 0.823 -1.101 5.269 -0.024 0.415 0.083 0.962 0.115 0.359 0.538 0.056 0.165 -0.187 0.216 -0.562" />
    <path class="write-flat-pen" fill="#FFFFFF" stroke-width="1.6" __comx="56.087" __comy="488.392" __timestamp="0x178a093b3c8" d="M49.013 489.259 l0.694 -0.014 0.202 0.016 3.494 0.162 0.668 0.015 5.43 -0.66 1.256 -0.409 2.51 -0.813 -0.04 -0.176 -2.615 0.348 -1.256 0.16 -5.336 0.43 -0.607 0.004 -3.52 0.11 -0.282 0.04 -0.702 0.273" />
    <path class="write-flat-pen" fill="#FFFFFF" stroke-width="1.6" __comx="49.989" __comy="239.021" __timestamp="0x178a093bc3f" d="M37.834 251.678 l-0.267 0.185 -0.027 -0.027 -0.005 0.006 0.497 0.152 0.113 -0.053 0.035 -0.009 0.215 -0.488 0.107 -0.272 0.801 -2.463 0.215 -0.659 3.175 -9.534 0 0 5.709 -14.401 0 0 0.354 -0.298 0 0 -1.297 -0.443 1.174 5.446 1.703 4.983 2.973 6.542 3.786 6.862 4.304 5.238 0.32 0.125 0.172 -0.024 0.73 -0.311 0.036 -0.113 -0.413 -0.678 0.023 -0.072 0.09 -0.016 -3.928 -5.042 -3.69 -6.688 -2.915 -6.414 -1.647 -4.82 -1.154 -5.354 -1.297 -0.443 0 0 -0.662 0.558 0 0 -5.87 14.825 0 0 -3.062 9.642 -0.191 0.704 -0.553 2.551 -0.05 0.317 -0.018 0.594 0.014 0.155 0.135 0.125 0.497 0.152 -0.005 0.006 0.007 -0.066 0.065 -0.357" />
    <path class="write-flat-pen" fill="#FFFFFF" stroke-width="1.6" __comx="46.429" __comy="242.62" __timestamp="0x178a093bd4f" d="M40.116 243.464 l1.342 -0.385 0.435 -0.052 8.351 -0.388 2.756 -0.336 -0.001 -0.148 -2.771 -0.308 -8.434 0.177 -0.591 0.115 -1.348 0.649" />
    <path class="write-flat-pen" fill="#FFFFFF" stroke-width="1.6" __comx="24.026" __comy="239.76" __timestamp="0x178a093bf71" d="M19.142 240.296 l0.443 -0.036 0.052 0.01 1.388 -0.056 0.268 -0.006 4.991 -0.158 2.781 -0.312 0.002 -0.116 -2.781 -0.425 -5.04 -0.024 -0.33 0.04 -1.408 0.338 -0.131 0.05 -0.395 0.314" />
    <path class="write-flat-pen" fill="#FFFFFF" stroke-width="1.6" __comx="25.23" __comy="235.613" __timestamp="0x178a093c043" d="M24.07 234.57 l0.009 0.609 0.013 0.14 0.236 1.262 0.064 0.311 1.083 5.098 0.735 2.647 0.181 -0.027 -0.084 -2.763 -0.896 -5.188 -0.111 -0.346 -0.47 -1.192 -0.05 -0.105 -0.241 -0.545" />
    <path class="write-flat-pen" fill="#FFFFFF" stroke-width="1.6" __comx="151.74" __comy="184.07" __timestamp="0x178a093c53f" d="M149.112 185.412 l0.346 -1.527 0.038 -0.125 0.315 -0.947 0.045 -0.311 -0.667 -0.678 -0.504 0.509 -1.928 2.846 0 0 -0.259 0.431 0 0 -2.89 4.54 0 0 1.34 0.827 3.578 -5.788 1.419 -3.169 -1.27 0.263 8.85 7.907 2.208 1.709 0.14 -0.12 -1.398 -2.509 -8.722 -8.167 -1.27 0.263 -1.375 3.073 -3.502 5.712 1.34 0.827 0 0 2.784 -4.631 0 0 0.243 -0.439 0 0 1.627 -2.877 -0.29 0.277 -0.344 -0.427 0.032 -0.189 -0.056 0.961 -0.013 0.144 -0.088 1.576" />
    <path class="write-flat-pen" fill="#FFFFFF" stroke-width="1.6" __comx="165.907" __comy="185.094" __timestamp="0x178a093c7a1" d="M161.822 183.998 l0.155 0.416 0.07 0.129 0.552 0.915 0.226 0.369 2.016 3.082 0.304 0.404 2.785 3.542 2.036 1.636 0.026 -0.021 -1.108 -2.362 -2.746 -3.569 -0.3 -0.371 -2.22 -2.906 -0.286 -0.347 -0.754 -0.788 -0.104 -0.088 -0.333 -0.268" />
    <path class="write-flat-pen" fill="#FFFFFF" stroke-width="1.6" __comx="167.485" __comy="186.482" __timestamp="0x178a093c8c9" d="M172.957 182.709 l-0.038 0.674 -0.023 0.087 -0.291 1.105 -0.143 0.423 -2.633 6.059 -0.467 0.935 -7.174 13.192 -1.018 2.917 0.125 0.371 0.781 1.613 0.159 -0.025 0.246 -1.775 0.061 -0.037 1.051 -2.415 7.093 -13.159 0.489 -1.013 2.423 -6.282 0.12 -0.571 0.078 -1.281 -0.031 -0.217 -0.235 -0.684" />
    <path class="write-flat-pen" fill="#FFFFFF" stroke-width="1.6" __comx="686.526" __comy="354.213" __timestamp="0x178a093d1b1" d="M688.172 361.301 l-1.034 -1.304 -0.129 -0.149 -0.905 -1.148 -0.169 -0.228 -1.024 -1.532 -0.127 -0.22 -1.409 -2.482 -0.217 -0.362 0 0 -3.96 -6.247 0 0 -0.492 -1.404 0 0 -1.266 0.876 4.264 3.619 3.722 2.456 3.529 1.603 4.948 1.41 0.334 0.282 0.005 0.541 -0.912 1.639 -6.949 7.054 -1.192 2.548 0.098 0.075 2.095 -1.741 7.235 -6.959 1.229 -2.209 -0.017 -1.698 -1.157 -0.977 -5.164 -1.472 -3.307 -1.502 -3.537 -2.334 -4.194 -3.553 -1.266 0.876 0 0 0.571 1.575 0 0 4.25 6.275 0 0 0.233 0.337 1.633 2.349 0.182 0.244 1.264 1.424 0.228 0.224 1.103 0.993 0.152 0.125 1.219 1.117" />
    <path class="write-flat-pen" fill="#FFFFFF" stroke-width="1.6" __comx="686.803" __comy="381.892" __timestamp="0x178a093d48b" d="M683.406 377.729 l0.369 -0.424 -0.493 -0.029 -0.013 0.023 -0.188 1.816 -0.074 0.453 -2.899 12.503 -0.399 3.835 0.404 1.984 0.958 1.649 1.756 1.245 2.093 0.517 2.659 -0.271 4.322 -2.153 0.231 -0.24 0.322 -0.441 1.439 -2.148 -0.002 -0.002 -1.931 1.705 -0.384 0.32 -0.144 0.095 -4.147 1.792 -2.286 0.224 -1.704 -0.422 -1.389 -0.986 -0.749 -1.284 -0.338 -1.64 0.361 -3.604 2.708 -12.522 0.055 -0.542 -0.087 -1.989 -0.07 -0.12 -0.493 -0.029 -0.155 0.54" />
    <path class="write-flat-pen" fill="#FFFFFF" stroke-width="1.6" __comx="682.445" __comy="388.364" __timestamp="0x178a093d57c" d="M673.368 389.956 l0.387 -0.284 0.051 0.017 4.339 -0.091 0.855 -0.05 9.045 -1.433 0.754 -0.223 0.649 -0.205 2.565 -0.798 -0.024 -0.128 -2.679 0.192 -0.689 0.048 -0.758 0.096 -8.995 1.227 -0.796 0.063 -4.359 0.369 -0.444 0.089 -0.393 0.734" />
    <path class="write-flat-pen" fill="#FFFFFF" stroke-width="1.6" __comx="100.489" __comy="709.819" __timestamp="0x178a093eeab" d="M101.128 694.901 l0.1 0.348 -0.014 0.092 -0.031 1.864 -0.017 0.557 -0.314 4.902 -0.09 0.981 -2.013 15.586 0.031 0.059 0.289 0.565 0.457 0.025 0.349 -0.53 0.035 -0.009 2.192 -15.555 0.065 -1.047 0.066 -4.965 -0.036 -0.607 -0.249 -1.902 -0.072 -0.296 -0.428 -0.32" />
    <path class="write-flat-pen" fill="#FFFFFF" stroke-width="1.6" __comx="101.35" __comy="709.819" __timestamp="0x178a093efe6" d="M89.034 698.433 l-0.269 -0.637 -0.09 0.243 1.157 -0.376 0.368 -0.055 16.303 -1.711 5.138 -0.331 0.381 -0.014 2.779 -0.066 0.019 -0.202 -2.717 -0.586 -0.43 -0.091 -5.262 -0.027 -16.384 1.931 -0.524 0.127 -1.436 0.778 -0.187 0.446 0.733 0.854" />
    <path class="write-flat-pen" fill="#FFFFFF" stroke-width="1.6" __comx="100.41" __comy="709.819" __timestamp="0x178a093f151" d="M86.501 720.353 l1.078 0.007 0.339 -0.016 2.274 -0.226 0.56 -0.056 12.222 -1.011 8.124 -0.502 0.554 -0.065 2.732 -0.31 0 -0.092 -2.729 -0.335 -0.568 -0.07 -8.197 -0.007 -12.267 1.251 -0.589 0.1 -2.238 0.469 -0.319 0.071 -1.04 0.268" />
    <path class="write-flat-pen" fill="#FFFFFF" stroke-width="1.6" __comx="122.451" __comy="709.819" __timestamp="0x178a093f483" d="M113.656 707.76 l0.358 0.742 0.043 0.153 0.524 2.363 0.06 0.356 0.451 4.182 -0.002 0.109 0 0 -0.252 0.972 0 0 1.289 -0.013 -0.201 -1.097 0.411 -2.471 1.077 -2.94 0.994 -1.517 0.551 -0.32 0.378 0.053 0.498 0.488 0.831 2.271 0.662 4.087 0 0 0.693 0.503 0 0 1.121 -0.304 2.015 -4.388 1.065 -1.412 0.638 -0.33 0.495 0.041 0.671 0.513 0.786 1.585 1.144 5.991 0.065 0.499 0.254 1.978 0.074 0.487 0.149 0.87 0.48 2.734 0.044 -0.002 0.165 -2.773 0.04 -0.882 0.016 -0.493 0.001 -2.007 -0.022 -0.57 -0.959 -6.304 -1.036 -2.099 -1.299 -1.001 -1.374 -0.122 -1.341 0.688 -1.379 1.822 -2.067 4.549 1.121 -0.304 0 0 -0.199 -0.125 0 0 -0.615 -3.603 -0.996 -2.704 -1.073 -1.048 -1.341 -0.187 -1.282 0.737 -1.275 1.946 -1.173 3.23 -0.448 2.881 0.352 1.343 1.289 -0.013 0 0 0.18 -1.136 0 0 -0.017 -0.316 -0.732 -4.238 -0.102 -0.41 -0.798 -2.355 -0.116 -0.234 -0.609 -0.647" />
    <path class="write-flat-pen" fill="#FFFFFF" stroke-width="1.6" __comx="137.572" __comy="709.819" __timestamp="0x178a093f69a" d="M135.542 730.722 l-0.003 -1.053 -0.016 -0.29 -0.227 -2.656 -0.054 -0.559 -0.646 -7.843 -0.042 -0.687 -0.057 -4.62 0.433 -2.884 0.533 -1.036 0.744 -0.508 1.029 -0.059 1.379 0.518 1.083 0.958 0.721 1.477 0.106 1.443 -0.39 1.311 -0.835 1.042 -1.05 0.621 -0.513 0.065 -0.048 0.183 -0.097 0.169 0.201 -0.421 0.178 -0.232 0.408 -0.43 1.405 -1.432 -0.017 -0.022 -1.746 0.996 -0.535 0.317 -0.313 0.215 -0.521 0.463 -0.194 0.423 0.437 1.208 1.795 -0.096 1.563 -0.935 1.162 -1.468 0.53 -1.827 -0.159 -1.965 -0.968 -1.959 -1.484 -1.304 -1.893 -0.7 -1.697 0.109 -1.334 0.927 -0.771 1.547 -0.445 3.209 0.115 4.756 0.057 0.736 0.919 7.849 0.096 0.571 0.501 2.621 0.062 0.282 0.272 1.016" />
    <path class="write-flat-pen" fill="#FFFFFF" stroke-width="1.6" __comx="147.399" __comy="709.819" __timestamp="0x178a093f806" d="M145.63 710.883 l1.166 -0.328 0.089 -0.049 0.476 -0.413 0.053 -0.299 -0.478 -0.617 -0.499 -0.014 -1.637 1.408 -0.222 0.449 -0.601 2.208 0.078 2.52 0.812 2.245 1.218 1.23 1.447 0.284 1.474 -0.7 1.186 -1.665 0.626 -2.246 -0.144 -2.086 -0.858 -1.835 -1.67 -0.672 -0.467 0.262 -0.152 0.403 0.169 0.991 0.063 0.023 0.732 -0.511 0.066 0.086 -0.393 0.223 0.448 0.373 0.491 1.063 0.108 1.518 -0.471 1.719 -0.779 1.118 -0.641 0.321 -0.49 -0.082 -0.672 -0.647 -0.65 -1.706 -0.108 -2.083 0.435 -1.906 0.049 -0.128 0.978 -1.149 -0.306 -0.016 0.087 -0.107 0.046 -0.252 -0.104 0.378 0.018 -0.001 -1.025 0.563" />
    <path class="write-flat-pen" fill="#FFFFFF" stroke-width="1.6" __comx="159.392" __comy="709.819" __timestamp="0x178a093f971" d="M155.148 713.315 l0.236 1.519 0.037 0.241 0.224 1.905 0.017 0.176 0.047 0.842 1.036 -0.093 0.025 -0.082 -0.262 -3.915 -0.043 -0.561 -0.097 -4.101 0.353 -2.287 0.345 -0.518 0.51 -0.196 2.589 0.861 0.2 0.106 0.883 0.447 0.173 0.075 2.421 1.045 0.024 -0.038 -1.97 -1.752 -0.134 -0.12 -0.748 -0.631 -0.283 -0.218 -3.146 -1.355 -1.494 0.555 -0.784 1.202 -0.385 2.743 0.173 4.266 0.06 0.607 0.523 3.822 0.021 0.008 1.036 -0.093 -0.306 -0.765 -0.039 -0.16 -0.49 -1.872 -0.074 -0.245 -0.484 -1.462" />
    <path class="write-flat-pen" fill="#FFFFFF" stroke-width="1.6" __comx="167.797" __comy="709.819" __timestamp="0x178a093fa7b" d="M166.22 697.453 l0.252 0.513 0.017 0.129 0.351 2.595 0.064 0.642 1.519 14.908 0.717 1.739 0.04 -0.006 0.194 -1.849 -1.379 -14.914 -0.104 -0.685 -0.632 -2.626 -0.121 -0.298 -0.549 -0.452" />
    <path class="write-flat-pen" fill="#FFFFFF" stroke-width="1.6" __comx="167.704" __comy="709.819" __timestamp="0x178a093fb60" d="M162.292 707.088 l0.712 -0.291 0.07 0.004 7.65 -0.81 2.737 -0.496 -0.004 -0.089 -2.794 -0.27 -7.732 0.726 -0.272 0.073 -0.714 0.599" />
    <path class="write-flat-pen" fill="#FFFFFF" stroke-width="1.6" __comx="178.056" __comy="709.819" __timestamp="0x178a093fd85" d="M182.034 710.057 l-0.455 -0.877 -0.129 -0.181 -1.273 -1.115 -0.309 -0.131 -1.693 -0.22 -1.698 0.569 -1.331 1.311 -0.893 2.114 -0.175 1.991 0.687 1.292 1.429 0.304 1.643 -0.799 1.895 -2.011 -0.417 -0.316 0.675 3.917 0.215 0.251 0.119 0.085 1.383 0.865 0.045 -0.038 -0.59 -1.52 -0.022 -0.086 0.041 -0.01 -0.483 -4.256 -1.115 -0.872 -2.604 2.837 -0.972 0.487 -0.338 -0.057 -0.212 -0.364 0.102 -1.384 0.688 -1.695 0.923 -0.947 1.155 -0.435 1.284 0.07 0.039 0.005 1.248 0.754 0.076 0.057 0.646 0.697" />
    <path class="write-flat-pen" fill="#FFFFFF" stroke-width="1.6" __comx="187.918" __comy="709.819" __timestamp="0x178a093ff14" d="M184.11 710.465 l-0.145 0.605 -0.017 0.125 -0.104 1.338 -0.01 0.252 0.245 2.921 0.361 0.197 0 0 0.9 -0.326 2.558 -5.92 0.937 -1.327 0.268 -0.077 0.277 0.153 0.563 1.119 0.804 5.466 0.986 1.969 0.075 -0.014 0.194 -2.154 -0.603 -5.715 -0.912 -1.765 -1.242 -0.646 -1.319 0.424 -1.297 1.867 -2.489 6.116 0.9 -0.326 0 0 0.226 0.127 -0.421 -2.166 -0.019 -0.198 -0.17 -1.333 -0.022 -0.107 -0.114 -0.595" />
    <path class="write-flat-pen" fill="#FFFFFF" stroke-width="1.6" __comx="198.751" __comy="709.819" __timestamp="0x178a0940010" d="M196.529 697.726 l0.34 1.674 0.08 0.421 0.757 4.248 0.133 0.737 2.015 8.434 0.981 2.519 0.095 -0.017 0.042 -2.734 -1.971 -8.455 -0.159 -0.717 -1.02 -4.211 -0.128 -0.443 -0.607 -1.617" />
    <path class="write-flat-pen" fill="#FFFFFF" stroke-width="1.6" __comx="201.172" __comy="709.819" __timestamp="0x178a09400f8" d="M194.549 710.344 l0.83 -0.774 0.114 -0.06 2.319 -1.013 0.269 -0.084 2.986 -0.59 3.193 -0.09 0.416 -0.003 0.834 -0.029 2.817 -0.134 0.01 -0.109 -2.747 -0.641 -0.82 -0.177 -0.458 -0.075 -3.387 -0.127 -3.195 0.729 -0.416 0.158 -2.352 1.327 -0.246 0.21 -0.709 1.016" />
    <path class="write-flat-pen" fill="#FFFFFF" stroke-width="1.6" __comx="215.054" __comy="709.819" __timestamp="0x178a094037b" d="M214.438 717.69 l0.021 0.732 0 0 0.794 0.074 0.381 -1.314 0.035 -1.853 -0.065 -0.011 -0.546 1.708 -0.579 1.172 0.794 0.074 0 0 -0.244 -0.691" />
    <path class="write-flat-pen" fill="#FFFFFF" stroke-width="1.6" __comx="213.954" __comy="709.819" __timestamp="0x178a0940440" d="M215.28 695.825 l-1.119 -0.73 -1.523 0.297 -0.009 0.104 1.195 0.531 0.865 0.648" />
    <path class="write-flat-pen" fill="#FFFFFF" stroke-width="1.6" __comx="259.564" __comy="709.819" __timestamp="0x178a0940cda" d="M262.658 704.353 l0.06 -0.961 -0.005 -0.124 -0.171 -0.793 -0.096 -0.169 -0.678 -0.705 -0.241 -0.135 -1.638 -0.44 -0.336 -0.004 -1.276 0.213 -1.02 0.648 -0.711 1.156 -0.224 1.224 0.352 1.116 0.99 1.007 3.812 2.12 1.502 1.115 0.648 0.813 0.466 1.143 0.104 1.01 -0.226 1.071 -0.643 1.08 -1.111 0.979 -1.46 0.694 -1.454 0.304 -1.459 -0.086 -1.138 -0.392 -1.043 -0.724 -0.511 -0.69 -0.084 -0.379 -0.164 0.142 0.104 -0.155 0.08 -0.087 0.151 -0.112 0.208 -0.131 1.206 -0.7 -0.03 -0.117 -1.394 -0.041 -0.287 -0.006 -0.285 0.037 -0.273 0.077 -0.4 0.199 -0.351 0.352 -0.069 1.448 0.969 1.323 1.448 1 1.56 0.526 1.891 0.084 1.831 -0.421 1.797 -0.902 1.408 -1.308 0.833 -1.507 0.257 -1.518 -0.194 -1.391 -0.626 -1.465 -0.866 -1.082 -1.703 -1.264 -3.73 -2.066 -0.654 -0.656 -0.174 -0.528 0.116 -0.692 0.429 -0.732 0.572 -0.398 0.934 -0.213 0.111 -0.009 1.437 0.225 0.041 0.007 0.62 0.433 0.005 -0.011 0.273 0.6 0.013 0.043 0.113 0.935" />
    <path class="write-flat-pen" fill="#FFFFFF" stroke-width="1.6" __comx="268.083" __comy="709.819" __timestamp="0x178a0940dd6" d="M267.88 708.831 l-0.082 0.588 -0.015 0.188 -0.049 1.436 -0.01 0.348 -0.074 1.919 -0.015 0.339 -0.084 2.025 0.421 0.059 -0.443 0.257 -0.017 0.286 0.409 0.309 0.487 0.063 0.248 -2.964 -0.014 -0.373 -0.078 -1.924 -0.017 -0.357 -0.113 -1.437 -0.022 -0.175 -0.06 -0.578" />
    <path class="write-flat-pen" fill="#FFFFFF" stroke-width="1.6" __comx="268.878" __comy="709.819" __timestamp="0x178a0940e9c" d="M269.171 703.202 l0.108 -0.912 0 0 -0.845 0.043 0.193 0.732 0.057 0.156 0.064 0.146 0.513 1.194 0.065 -0.013 -0.003 -1.299 0.001 -0.159 -0.006 -0.15 -0.044 -0.74 -0.845 0.043 0 0 0.002 0.919" />
    <path class="write-flat-pen" fill="#FFFFFF" stroke-width="1.6" __comx="276.414" __comy="709.819" __timestamp="0x178a094101e" d="M272.743 712.175 l0.044 1.283 0.017 0.248 0.099 1.688 0.006 0.214 -0.033 1.033 -0.007 -0.069 -0.155 0.067 0 0 0.871 -0.031 0.075 0.058 -0.164 -1.153 0.109 -1.482 0.542 -1.977 0.717 -1.387 0.701 -0.773 0.504 -0.268 0.615 -0.019 0.703 0.374 0.774 1.015 0.699 2.011 0.479 4.703 0.043 0.103 0.048 0.086 0.528 0.864 0.185 -0.01 0.432 -0.916 0.04 -0.058 0.043 -0.129 -0.393 -4.945 -0.831 -2.393 -1.105 -1.442 -1.312 -0.692 -1.32 0.044 -1.012 0.543 -0.982 1.099 -0.857 1.689 -0.583 2.261 -0.085 1.788 0.385 1.63 0.181 0.171 0.871 -0.031 0 0 0.214 -0.385 0.024 -0.3 -0.116 -1.13 -0.031 -0.24 -0.265 -1.686 -0.044 -0.242 -0.208 -1.259" />
    <path class="write-flat-pen" fill="#FFFFFF" stroke-width="1.6" __comx="290.644" __comy="709.819" __timestamp="0x178a094137c" d="M291.596 698.337 l0.153 -0.53 0.008 -0.031 0.082 -0.319 -0.042 -0.197 -0.283 -0.336 -0.336 0.033 -0.342 0.14 -0.204 0.157 -0.575 0.619 -0.253 0.357 -0.979 1.81 -0.873 2.636 -0.55 3.968 -0.133 3.94 0.283 2.851 0.609 2.564 0.855 1.737 1.559 1.344 0.311 0.144 0.516 0.159 0.296 0.057 0.294 0.029 0.299 -0.008 1.703 -0.052 0.021 -0.106 -1.558 -0.691 -0.243 -0.114 -0.207 -0.103 -0.193 -0.105 -0.373 -0.222 -0.091 -0.072 -1.12 -1.156 -0.633 -1.352 -0.544 -2.306 -0.265 -2.652 0.1 -3.767 0.478 -3.769 0.753 -2.421 0.807 -1.698 0.154 -0.276 0.376 -0.603 0.032 -0.071 0.03 -0.098 -0.244 0.016 -0.079 -0.169 -0.012 -0.108 0.086 0.184 0.004 -0.001 0.013 0.547" />
    <path class="write-flat-pen" fill="#FFFFFF" stroke-width="1.6" __comx="302.055" __comy="710.701" __timestamp="0x178a0941aeb" d="M299.146 701.121 l-0.066 -0.213 0.061 -0.067 -0.586 0.176 -0.013 0.017 -0.023 0.169 -0.004 0.11 0.007 0.518 -0.001 0.234 -0.013 1.408 -0.018 0.41 -0.386 4.044 -0.089 0.601 -0.781 5.232 0.045 2.048 0.577 1.186 0.955 0.705 1.303 0.314 1.749 -0.184 3.089 -1.279 0.251 -0.16 0.578 -0.491 0.125 -0.14 0.15 -0.234 0.82 -1.52 -0.063 -0.061 -1.483 0.857 -0.2 0.106 -0.078 0.033 -0.571 0.285 -0.131 0.055 -2.855 1.028 -1.279 0.133 -0.743 -0.175 -0.405 -0.291 -0.275 -0.543 -0.057 -1.588 0.672 -5.125 0.078 -0.648 0.221 -4.14 -0.014 -0.484 -0.152 -1.458 -0.052 -0.284 -0.162 -0.546 -0.056 -0.133 -0.109 -0.171 -0.026 -0.026 -0.586 0.176 0.087 0.025 0.07 0.225" />
    <path class="write-flat-pen" fill="#FFFFFF" stroke-width="1.6" __comx="299.964" __comy="710.701" __timestamp="0x178a0941bdf" d="M294.925 711.41 l0.463 -0.291 0.074 -0.011 1.58 -0.404 0.372 -0.107 5.808 -1.906 0.34 -0.144 0.288 -0.137 1.603 -0.742 -0.039 -0.145 -1.758 0.172 -0.327 0.031 -0.38 0.071 -5.856 1.773 -0.364 0.124 -1.567 0.576 -0.226 0.113 -0.458 0.509" />
    <path class="write-flat-pen" fill="#FFFFFF" stroke-width="1.6" __comx="311.404" __comy="710.701" __timestamp="0x178a0941d1f" d="M308.028 699.402 l0.377 0.181 0.027 0.042 0.41 0.409 0.177 0.194 0.948 1.202 0.246 0.37 1.12 2.067 1.059 2.672 0.752 2.901 0.312 2.955 -0.085 2.03 -0.572 2.907 -0.968 2.442 -0.084 0.148 -0.312 0.509 -0.825 1.552 0.111 0.097 1.443 -1.034 0.47 -0.454 0.202 -0.258 1.202 -2.616 0.649 -3.134 0.094 -2.231 -0.334 -3.151 -0.819 -3.075 -1.176 -2.804 -1.288 -2.135 -0.341 -0.441 -1.144 -1.17 -0.273 -0.214 -0.553 -0.34 -0.173 -0.084 -0.524 -0.046" />
    <path class="write-flat-pen" fill="#FFFFFF" stroke-width="1.6" __comx="339.166" __comy="710.701" __timestamp="0x178a0941f17" d="M338 709.942 l0.245 0.461 0.026 0.099 0.283 0.952 0.072 0.282 0.263 1.408 0.042 0.336 0.149 2.704 -0.003 0.052 -0.011 0.419 0.46 -0.097 0.114 0.12 -0.547 0.077 -0.113 0.21 0.239 0.498 0.206 0.17 0.557 -0.127 0.349 -1.112 0.003 -0.251 -0.331 -2.806 -0.092 -0.408 -0.427 -1.435 -0.127 -0.326 -0.455 -0.935 -0.094 -0.159 -0.396 -0.428" />
    <path class="write-flat-pen" fill="#FFFFFF" stroke-width="1.6" __comx="339.913" __comy="710.701" __timestamp="0x178a0941fbf" d="M340.379 703.495 l-0.967 0.897 -0.345 1.274 0.06 0.029 0.741 -0.965 0.893 -0.822" />
    <path class="write-flat-pen" fill="#FFFFFF" stroke-width="1.6" __comx="348.077" __comy="710.701" __timestamp="0x178a0942184" d="M348.129 706.181 l-0.546 0.064 -0.107 0.014 -0.737 0.173 -0.254 0.085 -2.272 1.234 -0.19 0.193 -0.493 0.749 -0.05 1.085 0.567 0.902 1.047 0.65 4.089 1.199 1.286 0.64 0.51 0.524 0.362 0.874 -0.019 0.83 -0.341 0.826 -0.731 0.766 -1.002 0.52 -1.361 0.284 -0.743 -0.104 -0.305 -0.203 -0.304 -0.75 -0.023 -0.022 0.116 -0.497 0.103 -0.276 0.149 -0.314 0.177 -0.342 0.744 -1.379 -0.091 -0.077 -1.236 0.964 -0.329 0.257 -0.303 0.305 -0.266 0.344 -0.339 0.641 -0.118 0.471 0.419 1.623 1.033 0.727 1.377 0.184 1.829 -0.411 1.39 -0.776 1.041 -1.188 0.468 -1.343 -0.061 -1.353 -0.636 -1.29 -0.833 -0.779 -1.549 -0.745 -4.038 -1.171 -0.696 -0.43 -0.243 -0.385 0.012 -0.434 0.254 -0.415 0.008 -0.012 2 -1.272 0.161 -0.083 0.641 -0.314 0.074 -0.037 0.499 -0.224" />
    <path class="write-flat-pen" fill="#FFFFFF" stroke-width="1.6" __comx="384.07" __comy="710.701" __timestamp="0x178a09424e7" d="M385.988 711.026 l0.352 -0.608 0.035 -0.094 0.143 -0.439 0.024 -0.15 0.02 -0.481 -0.024 -0.158 -0.194 -0.652 -0.139 -0.214 -0.835 -0.732 -0.347 -0.148 -1.28 -0.194 -1.619 0.32 -1.551 0.795 -1.255 1.117 -0.814 1.26 -0.548 1.694 -0.102 1.691 0.362 1.555 0.776 1.275 0.984 0.652 1.346 0.036 1.324 -0.67 1.349 -1.392 1.175 -1.927 0.571 -1.536 -0.772 -0.184 1.675 4.618 0.707 1.066 0.836 0.412 0.338 0.029 0.305 -0.05 0.284 -0.119 0.209 -0.165 0.957 -0.832 -0.035 -0.085 -1.266 0.075 -0.177 -0.008 -0.102 -0.037 -0.072 -0.045 0.022 -0.027 -0.265 -0.23 -0.398 -0.651 -1.901 -5.206 -1.279 -0.305 -0.974 2.634 -1.017 1.663 -1.062 1.098 -0.769 0.391 -0.55 -0.014 -0.358 -0.237 -0.485 -0.793 -0.265 -1.118 0.068 -1.296 0.42 -1.344 0.598 -0.944 0.969 -0.878 1.215 -0.649 1.208 -0.291 0.914 0.058 0.053 0.007 0.68 0.403 0.004 -0.02 0.272 0.419 0.023 0.028 0.112 0.362 0.017 0.064 0.011 0.402 0.001 0.043 -0.181 0.64" />
    <path class="write-flat-pen" fill="#FFFFFF" stroke-width="1.6" __comx="427.177" __comy="710.701" __timestamp="0x178a0942bd1" d="M427.157 721.091 l0.176 -0.311 0.032 -0.118 0.065 -0.475 0.009 -0.229 -0.048 -0.796 -0.034 -0.307 -0.177 -1.058 -0.069 -0.388 -0.402 -1.703 -0.136 -0.483 -1.629 -4.564 -0.224 -0.513 -1.481 -3.655 -0.614 -2.309 -0.29 -2.594 0.09 -1.626 0.371 -1.228 0.735 -1.208 0.924 -0.82 1.208 -0.581 1.626 -0.33 1.325 0.027 1.403 0.37 0.831 0.526 0.602 0.757 0.682 2.117 0.024 0.169 0.02 0.785 -0.006 0.23 -0.016 0.259 -0.019 0.249 -0.02 0.245 -0.171 1.725 0.096 0.032 0.897 -1.484 0.138 -0.23 0.125 -0.267 0.113 -0.287 0.094 -0.306 0.158 -0.905 0.013 -0.429 -0.679 -2.645 -0.964 -1.22 -1.269 -0.804 -1.827 -0.481 -1.693 -0.034 -1.995 0.405 -1.589 0.766 -1.269 1.131 -0.959 1.593 -0.467 1.608 -0.09 1.944 0.348 2.836 0.713 2.5 1.602 3.724 0.223 0.487 1.763 4.433 0.15 0.424 0.532 1.623 0.104 0.356 0.307 1.009 0.075 0.269 0.196 0.733 0.04 0.181 0.082 0.43 0.015 0.059 -0.003 0.321" />
    <path class="write-flat-pen" fill="#FFFFFF" stroke-width="1.6" __comx="426.407" __comy="710.701" __timestamp="0x178a0942d02" d="M419.768 711.351 l0.135 -0.267 -0.076 0.08 0.358 -0.147 0.105 -0.034 1.207 -0.309 0.271 -0.043 8.387 -0.449 0.357 -0.03 0.705 -0.072 0.337 -0.043 0.354 -0.059 1.73 -0.281 0 -0.074 -1.731 -0.276 -0.354 -0.058 -0.337 -0.042 -0.706 -0.069 -0.379 -0.028 -8.507 0.314 -0.422 0.099 -1.301 0.518 -0.199 0.13 -0.346 0.318 -0.144 0.137 -0.039 0.557" />
    <path class="write-flat-pen" fill="#FFFFFF" stroke-width="1.6" __comx="440.322" __comy="710.701" __timestamp="0x178a0942f6e" d="M436.033 709.888 l-0.387 -0.355 -0.105 -0.075 -0.315 -0.032 -0.161 0.171 -0.165 0.333 -0.04 0.178 -0.069 0.624 -0.005 0.299 0.09 1.779 0.03 0.402 0.438 2.776 0.59 1.528 0.924 0.898 1.279 0.185 1.31 -0.614 1.202 -1.374 0.925 -1.828 0.739 -2.417 0 0 0.22 -2.015 0 0 -0.533 -0.419 0 0 -1.207 0.498 -0.215 1.722 0.265 2.26 0.749 2.552 0.759 1.198 1.338 0.568 0.382 -0.061 0.429 -0.219 0.265 -0.218 0.309 -0.407 0.127 -0.237 0.118 -0.252 0.083 -0.243 0.453 -1.358 -0.038 -0.022 -0.955 1.067 -0.155 0.168 -0.166 0.158 -0.142 0.113 -0.296 0.171 -0.112 0.022 -0.207 0.008 0.143 -0.036 -0.544 -0.361 -0.409 -0.677 -0.654 -2.233 -0.228 -1.955 0.189 -1.543 -1.207 0.498 0 0 -0.121 -0.096 0 0 -0.112 1.047 0 0 -0.658 2.162 -0.774 1.556 -0.866 1.02 -0.64 0.323 -0.41 -0.04 -0.397 -0.358 -0.465 -1.108 -0.521 -2.579 -0.05 -0.352 -0.261 -1.736 -0.036 -0.249 -0.071 -0.559 -0.016 -0.081 -0.032 -0.186 -0.101 0.093 -0.073 -0.066 -0.017 -0.032 0.457 0.201" />
    <path class="write-flat-pen" fill="#FFFFFF" stroke-width="1.6" __comx="450.458" __comy="710.701" __timestamp="0x178a0943101" d="M446.556 710.943 l0.005 0.393 -0.001 0.069 0.012 0.348 0.008 0.156 0.045 0.575 0.02 0.212 0.124 1.05 0.039 0.275 0.352 1.976 0.05 0.194 0.431 0.955 1.237 -0.015 1.174 -4.865 0.631 -1.602 0.327 -0.333 0.125 -0.025 0.347 0.16 0.495 0.636 0.491 1.242 0.477 4.719 0.031 0.054 0.038 0.089 0.488 1.238 0.119 0.008 0.646 -1.164 0.05 -0.087 0.044 -0.158 -0.381 -5.059 -0.665 -1.654 -0.867 -1.098 -1.136 -0.512 -1.062 0.219 -0.864 0.885 -0.783 1.991 -0.867 3.926 0.751 0.001 -0.045 -0.022 -0.017 -0.044 -0.506 -1.89 -0.066 -0.252 -0.272 -1.018 -0.06 -0.208 -0.179 -0.555 -0.057 -0.159 -0.149 -0.332 -0.034 -0.062 -0.173 -0.348" />
    <path class="write-flat-pen" fill="#FFFFFF" stroke-width="1.6" __comx="463.117" __comy="710.701" __timestamp="0x178a0943279" d="M463.004 709.671 l0.544 -0.275 0.084 -0.053 0.338 -0.24 0.06 -0.078 0.226 -0.364 0.024 -0.194 -0.106 -0.501 -0.311 -0.285 -0.817 -0.125 -0.366 0.084 -1.218 0.542 -1.177 1.026 -0.882 1.396 -0.496 1.576 -0.094 1.659 0.427 1.849 0.699 1.246 1.196 0.993 1.309 0.423 1.387 -0.061 1.648 -0.807 0.289 -0.247 0.4 -0.433 0.173 -0.226 0.239 -0.401 0.114 -0.24 0.725 -1.548 -0.056 -0.044 -1.344 1.057 -0.195 0.149 -0.325 0.252 -0.166 0.119 -0.407 0.276 -0.15 0.082 -1.294 0.493 -0.822 0.023 -0.767 -0.246 -0.755 -0.619 -0.467 -0.805 -0.357 -1.425 0.049 -1.265 0.364 -1.229 0.654 -1.079 0.854 -0.793 0.898 -0.484 0.043 -0.027 0.26 -0.06 -0.162 -0.162 0.074 -0.009 0.019 -0.133 0.001 0.225 0.03 -0.033 -0.155 0.287 -0.02 0.037 -0.429 0.392" />
    <path class="write-flat-pen" fill="#FFFFFF" stroke-width="1.6" __comx="471.598" __comy="710.701" __timestamp="0x178a0943397" d="M470.386 701.246 l0.231 -0.181 -0.183 0.065 0.03 0.097 -0.009 0.032 0.15 0.304 0.09 0.213 0.301 0.967 0.077 0.377 0.404 2.908 0.312 5.14 -0.007 4.294 -0.004 0.204 -0.002 0.601 0.117 1.694 0.095 0.022 0.869 -1.52 0.162 -0.665 0.035 -0.271 0.166 -4.389 -0.33 -5.266 -0.538 -3.019 -0.15 -0.502 -0.499 -1.067 -0.218 -0.308 -0.349 -0.363 -0.231 -0.153 -0.429 -0.069 -0.261 0.083 -0.236 0.487" />
    <path class="write-flat-pen" fill="#FFFFFF" stroke-width="1.6" __comx="472.219" __comy="710.701" __timestamp="0x178a0943481" d="M467.826 711.009 l-0.044 -0.357 -0.097 0.216 0.152 -0.047 0.072 -0.014 0.84 -0.229 0.266 -0.052 3.592 -0.699 2.263 -0.258 0.176 -0.022 0.414 -0.049 0.209 -0.03 0.198 -0.036 1.783 -0.317 0.005 -0.078 -1.732 -0.53 -0.193 -0.06 -0.215 -0.055 -0.436 -0.085 -0.251 -0.028 -2.431 0.102 -3.686 0.856 -0.352 0.107 -0.939 0.438 -0.217 0.155 -0.275 0.322 -0.146 0.305 0.307 0.692" />
    <path class="write-flat-pen" fill="#FFFFFF" stroke-width="1.6" __comx="479.277" __comy="710.701" __timestamp="0x178a0943564" d="M478.584 711.469 l-0.003 0.756 0.002 0.146 0.012 0.902 0.01 0.288 0.381 4.199 0.89 0.263 0.028 -0.139 -0.005 -0.196 -0.114 -0.646 -0.05 -0.019 -0.511 0.412 -0.089 0.026 -0.05 -0.037 0.89 0.263 -0.238 -4.22 -0.045 -0.299 -0.168 -0.912 -0.041 -0.146 -0.164 -0.72" />
    <path class="write-flat-pen" fill="#FFFFFF" stroke-width="1.6" __comx="480.507" __comy="710.701" __timestamp="0x178a09435f8" d="M480.649 704.707 l-0.734 2.773 -0.027 1.574 0.028 0.003 0.316 -1.513 0.893 -2.695" />
    <path class="write-flat-pen" fill="#FFFFFF" stroke-width="1.6" __comx="485.9" __comy="710.701" __timestamp="0x178a0943771" d="M484.813 711.773 l0.756 -0.136 0.134 -0.041 0.534 -0.206 0.126 -0.086 0.338 -0.325 0.083 -0.239 -0.086 -0.524 -0.33 -0.252 -0.982 -0.047 -0.353 0.117 -0.998 0.668 -0.782 1.183 -0.462 1.74 0.051 1.589 0.471 1.684 0.811 1.29 0.951 0.594 1.302 -0.036 1.201 -0.843 0.841 -1.394 0.568 -1.912 0.02 -1.639 -0.814 -1.7 -0.224 -0.254 -0.538 -0.364 -0.244 -0.068 -0.226 0.017 -1.006 0.319 -0.009 0.067 0.844 0.577 0.061 0.079 -0.047 0.016 0.211 0.28 0.01 0.035 0.473 1.289 -0.043 1.107 -0.448 1.535 -0.565 0.968 -0.568 0.424 -0.42 0.032 -0.311 -0.174 -0.552 -0.825 -0.397 -1.322 -0.063 -1.23 0.325 -1.359 0.501 -0.825 0.63 -0.489 0.022 -0.02 0.462 -0.099 -0.191 -0.156 0.06 -0.06 0.051 -0.118 -0.078 0.245 -0.007 0.026 -0.392 0.307 -0.081 0.053 -0.684 0.292" />
    <path class="write-flat-pen" fill="#FFFFFF" stroke-width="1.6" __comx="496.931" __comy="710.701" __timestamp="0x178a09438f3" d="M491.257 712.73 l0.268 0.267 -0.013 0.01 0.081 0.29 0.008 0.083 0.044 0.449 0.007 0.182 0.014 0.946 -0.006 0.231 -0.098 1.547 0 0 -0.014 0.118 0 0 -0.123 0.743 0 0 1.387 0.261 0.547 -1.767 0.766 -1.46 0.986 -1.151 1.051 -0.743 0.794 -0.275 0.763 0.02 0.739 0.358 0.829 0.847 1.472 2.938 0.087 0.163 0.192 0.313 0.141 0.187 0.097 0.101 1.25 1.247 0.079 -0.044 -0.403 -1.719 -0.021 -0.11 -0.035 -0.17 -0.071 -0.303 -0.053 -0.203 -1.447 -3.296 -1.21 -1.229 -1.291 -0.603 -1.366 -0.019 -1.25 0.443 -1.372 0.981 -1.208 1.427 -0.906 1.743 -0.524 1.928 1.387 0.261 0 0 0.014 -0.772 0 0 0.004 -0.171 0 0 -0.068 -1.615 -0.032 -0.293 -0.194 -0.992 -0.07 -0.24 -0.206 -0.485 -0.083 -0.149 -0.254 -0.299 -0.093 -0.087 -0.427 -0.165" />
    <path class="write-flat-pen" fill="#FFFFFF" stroke-width="1.6" __comx="530.03" __comy="710.701" __timestamp="0x178a0943c08" d="M530.568 713.892 l0.495 -0.333 0.092 -0.081 0.271 -0.287 0.084 -0.146 0.158 -0.407 0.007 -0.233 -0.147 -0.571 -0.206 -0.25 -0.842 -0.458 -0.437 -0.026 -1.241 0.232 -1.597 0.837 -1.232 1.164 -0.715 1.423 -0.172 1.442 0.39 1.52 0.902 1.331 1.206 0.859 1.229 0.367 1.36 -0.071 1.698 -0.693 1.455 -1.203 0.972 -1.407 0.574 -1.603 0.1 -1.502 -0.423 -1.251 -0.793 -0.939 -1.128 -0.586 -1.225 0.056 -0.825 0.649 -0.191 0.276 -0.143 0.444 -0.032 0.293 0.075 0.464 0.105 0.265 0.126 0.229 0.162 0.207 0.853 1.047 0.037 -0.017 -0.232 -1.331 -0.03 -0.213 0.001 -0.163 0.025 -0.127 0.08 -0.223 0.038 -0.018 0.121 -0.122 -0.01 0.048 0.348 -0.154 0.35 0.003 0.475 0.247 0.393 0.465 0.224 0.662 -0.064 0.962 -0.428 1.196 -0.726 1.052 -1.096 0.906 -1.221 0.499 -0.814 0.043 -0.712 -0.211 -0.762 -0.537 -0.595 -0.863 -0.257 -0.968 0.096 -0.881 0.463 -0.942 0.874 -0.853 1.21 -0.691 0.855 -0.236 0.005 -0.016 0.436 0.098 -0.073 -0.106 0.163 0.169 0.018 -0.052 0.034 0.247 0.011 0.038 -0.077 0.286 -0.011 0.044 -0.355 0.431" />
    <path class="write-flat-pen" fill="#FFFFFF" stroke-width="1.6" __comx="542.194" __comy="710.701" __timestamp="0x178a0943dbd" d="M542.7 718.901 l-0.39 0.042 0.026 -0.014 -0.21 -0.15 -0.035 -0.055 -0.273 -0.362 -0.086 -0.141 -0.373 -0.689 -0.116 -0.254 -0.654 -1.926 -0.12 -0.424 -2.234 -9.237 -0.111 -0.528 -0.418 -3.514 0.009 -2.621 0.279 -0.904 0.437 -0.572 0.638 -0.384 0.922 -0.208 1.158 0.095 1.777 0.566 1.662 0.968 1.755 1.755 0.131 0.188 0.435 0.879 0.101 0.26 0.168 0.539 0.057 0.27 0.039 0.272 0.025 0.289 0.013 0.325 0.041 1.662 0.093 0.015 0.577 -1.559 0.124 -0.339 0.078 -0.355 0.04 -0.35 0.007 -0.382 -0.076 -0.674 -0.083 -0.392 -0.38 -1.091 -0.235 -0.43 -1.916 -2.131 -2 -1.191 -2.122 -0.675 -1.584 -0.129 -1.413 0.319 -1.12 0.675 -0.795 1.042 -0.432 1.406 0.002 2.958 0.472 3.678 0.138 0.62 2.418 9.259 0.17 0.496 0.86 1.98 0.217 0.345 0.556 0.696 0.202 0.192 0.476 0.326 0.201 0.091 0.414 0.047 0.136 -0.01 0.429 -0.21" />
    <path class="write-flat-pen" fill="#FFFFFF" stroke-width="1.6" __comx="540.201" __comy="710.701" __timestamp="0x178a0943e90" d="M533.667 710.515 l0.404 -0.137 0.05 0.004 0.65 -0.116 0.226 -0.036 1.364 -0.239 0.343 -0.047 6.758 -0.56 0.456 -0.046 0.476 -0.055 0.494 -0.068 0.477 -0.084 1.686 -0.289 0 -0.096 -1.688 -0.279 -0.478 -0.081 -0.496 -0.064 -0.478 -0.05 -0.497 -0.039 -6.867 0.464 -0.435 0.09 -1.374 0.411 -0.252 0.09 -0.615 0.287 -0.111 0.052 -0.409 0.3" />
    <path class="write-flat-pen" fill="#FFFFFF" stroke-width="1.6" __comx="571.093" __comy="710.701" __timestamp="0x178a09441c6" d="M568.283 697.825 l-0.019 -0.726 0 -0.033 0.025 -0.335 -0.019 -0.137 -0.028 -0.134 -0.715 -0.024 -0.123 0.094 -0.121 0.276 -0.05 0.16 -0.157 0.685 -0.077 0.324 -0.736 3.163 -0.149 0.686 -0.715 4.236 -0.273 3.93 0.161 2.615 0.515 1.679 0.996 1.569 1.244 0.911 1.32 0.438 1.52 0.003 2.054 -0.496 2.733 -1.225 1.173 -0.995 0.147 -0.324 0.056 -0.243 0.018 -0.256 -0.038 -0.225 -0.311 -1.367 -0.073 -0.01 -0.657 1.239 -0.084 0.122 -0.074 0.065 -0.07 0.052 -0.024 -0.034 -0.889 0.592 -2.426 1.088 -1.723 0.416 -1.071 -0.002 -0.837 -0.278 -0.798 -0.584 -0.719 -1.132 -0.396 -1.291 -0.143 -2.322 0.255 -3.752 0.653 -4.139 0.128 -0.658 0.58 -3.221 0.043 -0.39 0.006 -0.733 -0.017 -0.114 -0.062 -0.001 -0.092 0.059 -0.715 -0.024 0.036 -0.051 0.006 -0.056 0.136 0.253 0.009 0.018 0.181 0.695" />
    <path class="write-flat-pen" fill="#FFFFFF" stroke-width="1.6" __comx="567.422" __comy="710.701" __timestamp="0x178a094429b" d="M559.93 707.894 l1.559 -0.747 0.357 -0.088 10.771 -2.246 0.436 -0.133 0.378 -0.124 0.396 -0.168 1.586 -0.668 -0.027 -0.122 -1.72 0.051 -0.416 0.008 -0.392 0.019 -0.462 0.049 -10.831 2.134 -0.529 0.148 -1.605 0.964" />
    <path class="write-flat-pen" fill="#FFFFFF" stroke-width="1.6" __comx="470.849" __comy="728.102" __timestamp="0x178a0944650" d="M421.152 728.218 l-1.673 -0.2 -0.066 -0.017 0.002 0.501 0.566 -0.008 0.395 0.009 3.702 0.047 1.029 -0.004 9.027 0.122 15.369 1.184 10.171 0.405 8.932 -0.091 23.05 -1.573 8.077 -0.253 7.157 0.3 1.59 0.176 5.679 0.903 1.225 0.253 3.426 0.756 1.083 0.222 1.041 0.165 1.408 0.227 0.025 -0.099 -1.352 -0.454 -0.997 -0.338 -1.059 -0.319 -3.395 -0.922 -1.242 -0.304 -5.695 -1.077 -1.645 -0.224 -7.234 -0.459 -8.152 0.198 -23.038 1.622 -8.869 0.132 -10.123 -0.35 -15.388 -1.141 -9.076 0.023 -1.036 0.034 -3.7 0.126 -0.448 0.026 -0.587 0.187 0.002 0.501 0.09 0.008 1.707 0.034" />
  </g>
</svg>
