<svg class="write-page" color-interpolation="linearRGB" width="1010px" height="508.862px" xmlns="http://www.w3.org/2000/svg" xmlns:xlink="http://www.w3.org/1999/xlink">
  <g class="write-content write-v3" width="1010" height="508.862" xruling="30" yruling="30" marginLeft="30" papercolor="#1B1C1C" rulecolor="#0300F9FF">
    <g class="ruleline write-std-ruling write-scale-down" fill="none" stroke="#00F9FF" stroke-opacity="0.012" stroke-width="1" shape-rendering="crispEdges" vector-effect="non-scaling-stroke">
      <rect class="pagerect" fill="#1B1C1C" stroke="none" x="0" y="0" width="1010" height="508.862" />
      <path class="yrule_1" d="M0 30 l1010 0" />
      <path d="M0 60 l1010 0" />
      <path d="M0 90 l1010 0" />
      <path d="M0 120 l1010 0" />
      <path d="M0 150 l1010 0" />
      <path d="M0 180 l1010 0" />
      <path d="M0 210 l1010 0" />
      <path d="M0 240 l1010 0" />
      <path d="M0 270 l1010 0" />
      <path d="M0 300 l1010 0" />
      <path d="M0 330 l1010 0" />
      <path d="M0 360 l1010 0" />
      <path d="M0 390 l1010 0" />
      <path d="M0 420 l1010 0" />
      <path d="M0 450 l1010 0" />
      <path d="M0 480 l1010 0" />
      <path class="xrule_1" d="M30 0 l0 508.862" />
      <path d="M60 0 l0 508.862" />
      <path d="M90 0 l0 508.862" />
      <path d="M120 0 l0 508.862" />
      <path d="M150 0 l0 508.862" />
      <path d="M180 0 l0 508.862" />
      <path d="M210 0 l0 508.862" />
      <path d="M240 0 l0 508.862" />
      <path d="M270 0 l0 508.862" />
      <path d="M300 0 l0 508.862" />
      <path d="M330 0 l0 508.862" />
      <path d="M360 0 l0 508.862" />
      <path d="M390 0 l0 508.862" />
      <path d="M420 0 l0 508.862" />
      <path d="M450 0 l0 508.862" />
      <path d="M480 0 l0 508.862" />
      <path d="M510 0 l0 508.862" />
      <path d="M540 0 l0 508.862" />
      <path d="M570 0 l0 508.862" />
      <path d="M600 0 l0 508.862" />
      <path d="M630 0 l0 508.862" />
      <path d="M660 0 l0 508.862" />
      <path d="M690 0 l0 508.862" />
      <path d="M720 0 l0 508.862" />
      <path d="M750 0 l0 508.862" />
      <path d="M780 0 l0 508.862" />
      <path d="M810 0 l0 508.862" />
      <path d="M840 0 l0 508.862" />
      <path d="M870 0 l0 508.862" />
      <path d="M900 0 l0 508.862" />
      <path d="M930 0 l0 508.862" />
      <path d="M960 0 l0 508.862" />
      <path d="M990 0 l0 508.862" />
      <path class="leftmargin" stroke="#FF0000" d="M30 0 l0 508.862" />
    </g>
    <path class="write-flat-pen" fill="#FFFFFF" stroke-width="1.6" __comx="38.434" __comy="44.509" __timestamp="0x177fbd9df37" d="M37.724 34.298 l-0.182 0.291 -0.016 0.117 -0.033 0.287 0.013 0.111 0.06 0.441 0.036 0.164 0.18 0.866 0.037 0.244 0.353 4.352 0.016 0.74 -0.031 3.369 -0.552 8.591 1.051 -0.08 -0.044 -0.017 -0.063 -0.103 -0.094 -0.251 -0.252 -0.789 -0.15 -0.002 -0.274 0.782 -0.101 0.274 -0.048 0.223 -0.012 0.12 1.051 -0.08 0.683 -8.62 0.022 -3.426 -0.021 -0.802 -0.5 -4.439 -0.082 -0.328 -0.307 -0.883 -0.065 -0.152 -0.167 -0.39 -0.031 -0.053 -0.091 -0.186 -0.016 0.052 0.069 -0.199" />
    <path class="write-flat-pen" fill="#FFFFFF" stroke-width="1.6" __comx="43.455" __comy="44.509" __timestamp="0x177fbd9e061" d="M36.028 35.048 l-0.27 -0.391 -0.133 0.31 0.609 -0.132 7.477 -0.016 5.675 -0.681 0.504 -0.108 0.443 -0.093 0.422 -0.099 0.385 -0.132 1.362 -0.435 -0.031 -0.263 -1.425 -0.104 -0.409 -0.037 -0.446 0.012 -0.473 0.038 -0.491 0.059 -5.588 0.54 -7.577 0.058 -1.243 0.379 -0.406 0.817 0.766 0.94" />
    <path class="write-flat-pen" fill="#FFFFFF" stroke-width="1.6" __comx="46.933" __comy="44.509" __timestamp="0x177fbd9e1bb" d="M38.992 44.073 l0.643 -0.001 0.12 0.013 1.7 0.151 0.397 0.036 3.073 0.158 7.775 -0.748 0.3 -0.038 0.285 -0.049 0.262 -0.068 1.397 -0.344 -0.004 -0.152 -1.414 -0.264 -0.268 -0.053 -0.294 -0.029 -0.329 -0.012 -7.737 0.612 -2.987 -0.075 -0.392 -0.02 -1.74 -0.018 -0.184 0.012 -0.674 0.121" />
    <path class="write-flat-pen" fill="#FFFFFF" stroke-width="1.6" __comx="43.491" __comy="52.154" __timestamp="0x177fbd9e8c4" d="M38.389 52.283 l-0.538 -0.155 -0.089 -0.005 -0.395 0.095 -0.116 0.314 0.223 0.476 0.222 0.173 2 0.502 0.461 0.034 2.016 -0.065 4.535 -0.745 0.611 -0.127 0.566 -0.112 0.573 -0.169 1.272 -0.363 -0.026 -0.177 -1.323 0.015 -0.593 0.001 -0.584 0.041 -0.625 0.08 -4.492 0.631 -1.916 0.069 -0.348 -0.02 -1.809 -0.322 0.017 0.028 -0.094 -0.036 -0.086 0.217 0.002 -0.069 -0.041 -0.005 0.524 0.014" />
    <path class="write-flat-pen" fill="#FFFFFF" stroke-width="1.6" __comx="62.672" __comy="52.154" __timestamp="0x177fbd9ebb1" d="M58.205 46.095 l-0.075 0.466 0.045 0.179 0.268 0.694 0.147 0.276 0.87 1.276 0.314 0.39 2.813 3.145 2.119 1.94 1.028 0.448 1.425 0.005 0.056 -0.203 -1.138 -0.696 -0.757 -0.446 -1.978 -1.804 -2.84 -3.03 -0.301 -0.336 -0.926 -1.147 -0.138 -0.197 -0.356 -0.572 -0.028 -0.026 -0.062 -0.355" />
    <path class="write-flat-pen" fill="#FFFFFF" stroke-width="1.6" __comx="62.216" __comy="52.154" __timestamp="0x177fbd9ec99" d="M58.475 55.078 l0.308 -0.425 0.108 -0.079 2.522 -2.194 4.072 -4.326 0.302 -0.432 0.789 -1.094 -0.16 -0.159 -1.087 0.799 -0.433 0.309 -4.17 4.191 -2.42 2.265 -0.192 0.198 -0.258 0.609" />
    <path class="write-flat-pen" fill="#FFFFFF" stroke-width="1.6" __comx="56.367" __comy="52.154" __timestamp="0x177fbd9ee5d" d="M37.721 59.848 l-0.755 0.016 -0.095 0.023 -0.25 0.14 0.049 0.553 0.109 0.085 0.973 0.229 0.509 0.054 5.631 0.143 1.096 -0.012 19.523 -0.109 6.982 0.106 0.895 0.025 0.871 0.042 0.814 0.004 0.819 -0.018 1.201 -0.014 0.019 -0.162 -1.167 -0.285 -0.807 -0.204 -0.814 -0.119 -0.874 -0.111 -0.92 -0.076 -7.009 -0.243 -19.544 0.124 -1.086 0.024 -5.591 -0.006 -0.447 -0.016 -0.82 -0.067 -0.006 0.014 0.049 0.553 0.066 -0.139 -0.076 0.018 0.701 -0.15" />
    <path class="write-flat-pen" fill="#FFFFFF" stroke-width="1.6" __comx="82.549" __comy="52.154" __timestamp="0x177fbd9f028" d="M83.11 57.927 l-0.367 -1.333 -0.423 -1.066 -0.156 0.017 -0.176 1.177 0.26 1.403" />
    <path class="write-flat-pen" fill="#FFFFFF" stroke-width="1.6" __comx="80.774" __comy="52.154" __timestamp="0x177fbd9f0d9" d="M81.192 43.213 l-0.088 -2.101 -0.101 -1.24 -0.133 -0.02 -0.466 1.211 -0.048 2.158" />
    <path class="write-flat-pen" fill="#FFFFFF" stroke-width="1.6" __comx="118.223" __comy="49.5" __timestamp="0x177fbda4084" d="M114.796 60.242 l0.024 -0.165 0.01 -0.018 0.04 -0.217 0.008 -0.05 0.049 -0.372 0.003 -0.023 0.049 -0.447 0.002 -0.04 0.006 -0.692 -0.027 -0.232 -0.321 -1.544 -0.082 -0.308 -1.011 -4.407 -0.076 -0.443 -0.998 -6.296 -0.282 -3.223 0.033 -2.429 0.255 -1.584 0.586 -1.694 0.647 -1.033 0.839 -0.801 0.786 -0.382 1.466 -0.269 1.513 0.103 1.61 0.429 1.787 0.794 1.299 0.889 1.168 1.202 0.078 0.109 0.2 0.342 0.081 0.143 0.107 0.173 0.718 1.261 0.201 -0.059 -0.072 -1.449 -0.011 -0.23 -0.05 -0.228 -0.154 -0.454 -0.135 -0.286 -1.268 -1.502 -1.508 -1.065 -1.991 -0.901 -1.837 -0.497 -1.811 -0.124 -1.811 0.331 -1.141 0.552 -1.111 1.065 -0.814 1.307 -0.665 1.951 -0.279 1.795 -0.02 2.593 0.315 3.333 1.072 6.34 0.091 0.489 1.157 4.437 0.101 0.307 0.44 1.456 0.041 0.155 0.119 0.629 0.005 0.021 0.083 0.438 0.006 0.028 0.089 0.371 0.015 0.056 0.078 0.216 0.017 0.043 0.11 0.154" />
    <path class="write-flat-pen" fill="#FFFFFF" stroke-width="1.6" __comx="114.997" __comy="49.5" __timestamp="0x177fbda41f3" d="M106.515 49.343 l0.28 -0.154 0.022 0.008 1.293 -0.179 0.426 -0.046 12.696 -1.945 0.441 -0.054 0.444 -0.06 0.421 -0.078 1.314 -0.236 -0.003 -0.103 -1.327 -0.146 -0.429 -0.049 -0.457 -0.019 -0.482 0.003 -12.737 1.821 -0.439 0.065 -1.317 0.309 -0.19 0.062 -0.329 0.342" />
    <path class="write-flat-pen" fill="#FFFFFF" stroke-width="1.6" __comx="134.894" __comy="49.5" __timestamp="0x177fbda4415" d="M134.937 44.893 l-0.266 -0.497 -0.159 -0.116 -0.44 -0.105 -0.255 0.064 -0.708 0.486 -0.202 0.245 -0.757 1.32 -0.563 1.911 -0.274 2.244 0.044 1.881 0.422 1.943 0.701 1.733 0.943 1.363 1.099 0.897 1.45 0.501 0.365 0.03 0.582 -0.045 0.273 -0.087 1.283 -0.423 -0.016 -0.144 -1.343 -0.138 -0.23 -0.033 -0.47 -0.074 -0.192 -0.048 -1.129 -0.507 -0.821 -0.705 -0.781 -1.134 -0.622 -1.526 -0.389 -1.742 -0.05 -1.692 0.242 -2.076 0.48 -1.72 0.6 -1.181 0.064 -0.101 0.409 -0.407 -0.072 0.007 0.112 -0.046 -0.088 -0.069 0.296 0.311" />
    <path class="write-flat-pen" fill="#FFFFFF" stroke-width="1.6" __comx="146.079" __comy="49.5" __timestamp="0x177fbda4560" d="M141.334 46.252 l-0.234 0.018 -0.291 0.228 -0.173 -0.263 0.363 0.715 0.152 0.252 2.294 3.261 2.198 2.541 1.672 1.483 1.278 0.747 1.496 0.327 0.23 -0.046 0.103 -0.048 1.1 -0.577 -0.019 -0.112 -1.229 -0.175 -0.072 -0.018 -0.022 -0.026 -1.145 -0.375 -1.04 -0.626 -1.535 -1.36 -2.129 -2.437 -2.35 -3.131 -0.15 -0.208 -0.464 -0.628 -0.243 -0.381 -0.333 0.249 -0.13 0.693" />
    <path class="write-flat-pen" fill="#FFFFFF" stroke-width="1.6" __comx="145.869" __comy="49.5" __timestamp="0x177fbda4657" d="M143.971 55.369 l-0.335 -0.718 0.016 0.049 0.386 -1.226 0.107 -0.195 3.98 -6.62 0.165 -0.363 0.246 -0.652 0.095 -0.297 0.069 -0.282 0.333 -1.346 -0.071 -0.033 -0.799 1.133 -0.165 0.231 -0.166 0.25 -0.361 0.576 -0.187 0.303 -4.082 6.572 -0.165 0.343 -0.328 1.537 0.045 0.309 0.551 0.814" />
    <path class="write-flat-pen" fill="#FFFFFF" stroke-width="1.6" __comx="153.873" __comy="49.5" __timestamp="0x177fbda47aa" d="M150.773 44.291 l0.731 0.414 0.095 0.068 1.449 1.178 0.195 0.201 1.1 1.366 0.724 1.316 0.492 1.474 0.247 1.911 -0.093 1.775 -0.648 2.077 -0.054 0.117 -0.237 0.41 -0.058 0.121 -0.669 1.252 0.099 0.088 1.168 -0.807 0.137 -0.098 0.381 -0.408 0.162 -0.237 0.863 -2.29 0.115 -2.044 -0.284 -2.13 -0.576 -1.677 -0.849 -1.485 -1.247 -1.449 -0.293 -0.273 -1.629 -1.139 -0.186 -0.094 -0.819 -0.312" />
    <path class="write-flat-pen" fill="#FFFFFF" stroke-width="1.6" __comx="167.125" __comy="49.5" __timestamp="0x177fbda4949" d="M163.368 48.043 l-0.415 0.42 0.478 0.004 0.171 -0.025 2.332 -0.283 3.318 -0.186 0.226 -0.011 0.251 -0.015 0.246 -0.025 1.406 -0.133 0.007 -0.092 -1.368 -0.35 -0.246 -0.064 -0.261 -0.043 -0.259 -0.029 -3.397 0.055 -2.392 0.369 -0.168 0.043 -0.435 0.13 0.137 0.789" />
    <path class="write-flat-pen" fill="#FFFFFF" stroke-width="1.6" __comx="168.838" __comy="49.5" __timestamp="0x177fbda4a5e" d="M165.832 50.584 l-0.712 0.646 0.57 0.723 1.333 0.375 2.955 0.088 0.411 -0.023 0.405 -0.034 0.407 -0.059 1.356 -0.186 0.002 -0.109 -1.347 -0.24 -0.405 -0.075 -0.406 -0.048 -0.397 -0.033 -2.839 -0.197 -0.99 -0.229 0.041 0.101 0.132 -0.169" />
    <path class="write-flat-pen" fill="#FFFFFF" stroke-width="1.6" __comx="185.816" __comy="47.853" __timestamp="0x177fbdd3765" d="M186.623 36.489 l0.173 -0.388 -0.096 -0.332 -0.41 0.016 -0.149 0.1 -0.257 0.221 -0.129 0.144 -0.581 0.847 -0.18 0.35 -1.084 2.786 -0.655 2.731 -0.503 3.836 -0.132 3.606 0.263 2.548 0.555 2.261 0.85 2.007 1.625 2.256 0.359 0.336 0.676 0.499 0.349 0.199 0.347 0.136 1.282 0.51 0.086 -0.139 -1.03 -0.918 -0.257 -0.237 -0.256 -0.227 -0.546 -0.527 -0.237 -0.269 -1.406 -2.158 -0.748 -1.827 -0.513 -2.098 -0.248 -2.389 0.126 -3.471 0.493 -3.724 0.605 -2.611 0.959 -2.708 0.118 -0.276 0.426 -0.837 0.06 -0.115 0.109 -0.226 -0.063 0.026 -0.272 -0.013 -0.083 -0.295 -0.004 0.269" />
    <path class="write-flat-pen" fill="#FFFFFF" stroke-width="1.6" __comx="198.051" __comy="47.853" __timestamp="0x177fbdd38ea" d="M192.62 43.221 l-0.482 0.084 -0.12 0.201 -0.085 0.378 0.035 0.265 0.294 0.913 0.163 0.34 2.299 3.363 0.347 0.417 6.523 6.958 0.241 0.193 0.623 0.432 0.166 0.09 0.182 0.078 1.309 0.568 0.056 -0.081 -0.996 -1.022 -0.134 -0.14 -0.114 -0.109 -0.513 -0.498 -0.173 -0.173 -6.373 -6.998 -0.307 -0.361 -2.349 -3.198 -0.135 -0.23 -0.367 -0.764 -0.039 -0.085 -0.036 -0.155 -0.076 0.116 0.204 -0.136" />
    <path class="write-flat-pen" fill="#FFFFFF" stroke-width="1.6" __comx="198.895" __comy="47.853" __timestamp="0x177fbdd3a22" d="M194.442 56.882 l-0.08 -0.842 0.017 -0.028 0.669 -1.314 0.164 -0.231 1.552 -1.846 3.891 -3.939 1.703 -2.114 0.333 -0.467 0.586 -0.884 0.254 -0.438 0.2 -0.425 0.582 -1.213 -0.115 -0.08 -0.931 0.971 -0.324 0.331 -0.326 0.368 -0.678 0.795 -0.352 0.418 -1.756 1.984 -3.901 3.945 -1.56 1.978 -0.22 0.353 -0.617 1.527 -0.053 0.289 0.237 0.988" />
    <path class="write-flat-pen" fill="#FFFFFF" stroke-width="1.6" __comx="211.922" __comy="47.853" __timestamp="0x177fbdd3b97" d="M207.103 49.917 l1.887 0.213 0.374 -0.014 5.415 -1.341 0.312 -0.083 0.325 -0.098 1.326 -0.387 -0.014 -0.109 -1.38 -0.051 -0.35 -0.014 -0.36 0.022 -5.393 1.197 -0.241 0.014 -1.844 -0.075" />
    <path class="write-flat-pen" fill="#FFFFFF" stroke-width="1.6" __comx="222.122" __comy="47.853" __timestamp="0x177fbdd3d24" d="M221.233 43.038 l-0.119 0.894 0.034 0.246 0.536 2.532 0.077 0.357 0.324 2.136 0.097 4.748 -0.009 0.372 -0.003 0.707 0.013 0.319 0.035 0.28 0.166 1.39 0.121 0.007 0.318 -1.364 0.066 -0.27 0.055 -0.307 0.102 -0.696 0.051 -0.406 0.033 -4.866 -0.37 -2.245 -0.097 -0.393 -0.666 -2.479 -0.032 -0.118 -0.016 -0.8" />
    <path class="write-flat-pen" fill="#FFFFFF" stroke-width="1.6" __comx="228.544" __comy="47.853" __timestamp="0x177fbdd3f6d" d="M225.58 37.019 l0.442 0.432 0.069 0.1 0.779 1.226 0.184 0.326 1.293 2.876 0.194 0.517 0.918 2.861 0.641 3.038 0.325 3.18 -0.068 2.194 -0.357 1.874 -0.719 1.956 -0.522 0.869 -1.208 0.988 0.042 -0.009 -0.134 0.067 -1.191 0.593 0.032 0.155 1.346 0.065 0.2 -0.018 0.131 -0.039 1.562 -1.084 0.709 -1.111 0.8 -2.139 0.39 -2.048 0.07 -2.353 -0.359 -3.31 -0.715 -3.137 -1.008 -2.913 -0.229 -0.563 -1.438 -2.89 -0.24 -0.37 -0.92 -1.195 -0.146 -0.152 -0.565 -0.372" />
    <path class="write-flat-pen" fill="#FFFFFF" stroke-width="1.6" __comx="234.872" __comy="47.853" __timestamp="0x177fbdd4266" d="M231.861 28.008 l0.223 -0.211 0.003 0.013 0.469 -0.118 0.041 -0.002 1.284 0.012 0.046 0.016 0.392 0.224 0.208 0.334 0.019 0.601 -0.386 0.926 -1.741 1.926 -0.361 0.788 0.295 0.85 1.004 0.604 2.602 0.587 0.232 0.032 0.254 0.034 0.253 0.01 1.436 0.066 0.035 -0.131 -1.279 -0.656 -0.216 -0.115 -0.242 -0.109 -0.237 -0.083 -2.416 -0.664 -0.543 -0.309 -0.044 -0.082 0.101 -0.272 1.663 -1.993 0.486 -1.267 -0.082 -1.029 -0.481 -0.674 -0.665 -0.334 -0.248 -0.061 -1.461 0.132 -0.142 0.045 -0.497 0.272 -0.106 0.079 -0.183 0.356" />
    <path class="write-flat-pen" fill="#FFFFFF" stroke-width="1.6" __comx="249.448" __comy="47.853" __timestamp="0x177fbdd4576" d="M249.848 37.609 l-0.241 0.107 -0.054 0.063 -0.128 0.125 -0.046 0.049 -0.25 0.312 -0.074 0.104 -0.357 0.526 -0.137 0.232 -0.982 2.13 -0.165 0.455 -0.691 2.494 -0.328 2.814 0.038 2.426 0.412 2.374 0.806 2.56 1.055 2.024 1.282 1.474 0.303 0.233 0.546 0.32 0.27 0.091 1.317 0.438 0.075 -0.131 -1.047 -0.912 -0.179 -0.165 -0.409 -0.369 -0.181 -0.183 -1.059 -1.395 -0.921 -1.854 -0.744 -2.401 -0.388 -2.213 -0.047 -2.263 0.293 -2.66 0.624 -2.385 0.129 -0.388 0.827 -2.12 0.088 -0.204 0.254 -0.577 0.045 -0.121 0.127 -0.374 0.021 -0.074 0.022 -0.171 -0.025 0.014 0.107 -0.138" />
    <path class="write-flat-pen" fill="#FFFFFF" stroke-width="1.6" __comx="260.685" __comy="47.853" __timestamp="0x177fbdd46ef" d="M255.209 43.901 l0.347 1.254 0.138 0.308 1.802 3.287 0.343 0.557 1.913 2.792 1.503 1.739 1.616 1.421 1.839 1.114 0.04 0.013 0.038 0.012 1.354 0.464 0.02 -0.027 -0.868 -1.137 -0.028 -0.036 -0.043 -0.046 -1.717 -1.195 -1.508 -1.319 -1.422 -1.642 -1.906 -2.703 -0.333 -0.512 -1.89 -3.174 -0.115 -0.226 -0.456 -1.165" />
    <path class="write-flat-pen" fill="#FFFFFF" stroke-width="1.6" __comx="261.529" __comy="47.853" __timestamp="0x177fbdd47f3" d="M257.746 55.733 l-0.026 -1.018 0.025 -0.035 1.142 -1.688 0.298 -0.369 5.529 -7.953 0.242 -0.368 0.4 -0.63 0.165 -0.299 0.67 -1.187 -0.084 -0.068 -1.018 0.906 -0.261 0.23 -0.518 0.556 -0.295 0.352 -5.633 7.863 -0.302 0.398 -1.103 1.871 -0.106 0.303 0.176 1.2" />
    <path class="write-flat-pen" fill="#FFFFFF" stroke-width="1.6" __comx="272.403" __comy="47.853" __timestamp="0x177fbdd498b" d="M268.626 49.807 l0.164 -0.37 -0.08 0.091 1.008 -0.306 0.156 -0.021 1.678 -0.048 2.731 0.3 0.336 0.046 0.342 0.031 0.368 0.021 1.392 0.096 0.029 -0.124 -1.287 -0.54 -0.352 -0.15 -0.337 -0.102 -0.353 -0.099 -2.829 -0.414 -1.811 0.097 -0.293 0.055 -1.184 0.519 -0.162 0.171 -0.087 0.598" />
    <path class="write-flat-pen" fill="#FFFFFF" stroke-width="1.6" __comx="296.14" __comy="47.853" __timestamp="0x177fbdd4ec2" d="M293.27 36.12 l-0.175 0.384 -0.009 0.136 0.063 0.482 0.058 0.19 0.388 0.939 0.157 0.321 0.968 1.836 0.209 0.408 1.357 2.837 1.009 2.706 0.508 2.164 0.161 2.071 -0.138 2.1 -0.447 1.983 -1.481 3.442 -0.199 0.321 -0.669 1.025 -0.196 0.297 -0.51 0.752 -0.138 0.211 -0.232 0.371 -0.094 0.172 -0.685 1.232 0.054 0.045 1.086 -0.898 0.154 -0.127 0.322 -0.312 0.178 -0.193 0.605 -0.697 0.235 -0.289 0.767 -0.981 0.283 -0.395 1.678 -3.588 0.511 -2.194 0.145 -2.288 -0.187 -2.251 -0.563 -2.327 -1.093 -2.815 -1.456 -2.87 -0.24 -0.427 -1.083 -1.777 -0.172 -0.281 -0.48 -0.836 -0.058 -0.106 -0.144 -0.337 -0.011 0.024 0.021 -0.335" />
    <path class="write-flat-pen" fill="#FFFFFF" stroke-width="1.6" __comx="285.421" __comy="45.392" __timestamp="0x177fbdd59ef" d="M282.092 45.012 l-0.479 -0.658 0.033 0.042 0.047 -0.534 -0.028 0.07 0.522 -0.423 1.248 -0.429 1.385 -0.187 1.149 0.095 0.634 0.259 0.437 0.432 0.178 0.458 -0.016 0.61 -0.285 0.735 -0.701 0.91 -2.163 1.511 0.102 0.964 2.058 0.784 1.412 0.839 0.705 0.65 0.376 0.681 0.118 0.666 -0.15 0.787 -0.35 0.628 -0.777 0.795 -1.015 0.62 -1.386 0.423 -1.001 0.027 -0.949 -0.222 -0.562 -0.329 -0.461 -0.566 -0.013 0.052 -0.058 -0.125 -0.045 -0.121 -0.212 -1.172 -0.156 -0.027 -0.589 1.035 -0.1 0.204 -0.047 0.331 0.036 0.317 0.696 1.098 1.005 0.59 1.334 0.29 1.354 -0.066 1.703 -0.552 1.281 -0.806 0.992 -1.046 0.514 -0.961 0.207 -1.21 -0.209 -1.079 -0.574 -1.019 -0.939 -0.864 -1.606 -0.96 -1.452 -0.564 0.052 0.488 1.702 -1.244 0.886 -1.209 0.381 -1.086 -0.01 -1.021 -0.365 -0.856 -0.756 -0.714 -0.97 -0.385 -1.419 -0.113 -1.601 0.225 -1.517 0.562 -0.747 0.708 -0.152 0.301 0.108 0.968 0.112 0.177 0.628 0.622" />
    <path class="write-flat-pen" fill="#FFFFFF" stroke-width="1.6" __comx="303.053" __comy="31.472" __timestamp="0x177fbdd5d76" d="M303.335 37.023 l0.001 -0.939 -0.001 -0.172 -0.018 -1.533 -0.008 -0.32 -0.085 -2.069 -0.022 -0.359 -0.208 -3.308 -0.005 -0.196 0 0 0.218 -1.879 0 0 -1.088 -0.154 -0.135 0.669 -0.715 1.443 -1.069 1.448 -1.306 1.197 -0.378 1.122 1.166 0.473 3.154 0.092 1.895 0.293 0.211 0.053 0.5 0.145 0.235 0.068 0.209 0.052 0.23 0.041 1.427 0.267 0.049 -0.108 -1.143 -0.896 -0.183 -0.146 -0.182 -0.123 -0.231 -0.138 -0.507 -0.252 -0.309 -0.126 -2.064 -0.435 -3.03 -0.074 0.133 0.069 -0.116 0.291 1.114 -1.097 1.169 -1.628 0.813 -1.674 0.144 -0.823 -1.088 -0.154 0 0 -0.153 1.959 0 0 0.017 0.287 0.342 3.317 0.039 0.354 0.217 2.051 0.033 0.312 0.155 1.522 0.018 0.173 0.126 0.934" />
    <path class="write-flat-pen" fill="#FFFFFF" stroke-width="1.6" __comx="45.727" __comy="137.62" __timestamp="0x178102a59b8" d="M45.212 126.178 l1.852 -2.518 0.222 -0.292 1.756 -2.534 0.124 -0.234 0.673 -2.041 -0.012 -0.36 -0.42 -1.169 -1.06 -0.776 -1.865 -0.185 -2.294 0.579 -2.291 1.123 -2.399 1.79 -1.352 1.57 -0.947 1.919 -0.338 1.939 0.487 1.727 1.099 1.3 2.168 1.343 6.057 2.664 3.129 1.788 2.241 1.829 1.273 1.675 0.447 1.27 -0.021 1.249 -0.726 1.473 -1.409 1.379 -2.231 1.226 -2.327 0.71 -3.566 0.48 -2.74 -0.083 -1.623 -0.5 -0.741 -0.547 -0.632 -1.029 -0.026 -1.794 0.077 -0.283 0.351 -0.797 0.224 -0.391 0.273 -0.417 0.345 -0.455 1.299 -1.679 -0.074 -0.077 -1.729 1.232 -0.496 0.355 -0.431 0.39 -0.378 0.428 -0.56 0.873 -0.238 0.551 -0.194 2.452 0.974 1.727 1.22 0.91 2.093 0.645 3.088 0.093 3.826 -0.518 2.608 -0.801 2.563 -1.421 1.741 -1.738 0.966 -2.041 -0.007 -1.862 -0.639 -1.727 -1.529 -1.981 -2.471 -2.007 -3.299 -1.884 -6.03 -2.656 -1.878 -1.175 -0.742 -0.883 -0.309 -1.1 0.243 -1.402 0.769 -1.565 1.122 -1.314 2.156 -1.629 2.03 -1.024 1.917 -0.522 1.289 0.073 0.514 0.309 0.318 0.617 0.011 -0.008 -0.387 1.845 -0.05 0.124 -1.527 2.603 -0.197 0.298 -1.679 2.643" />
    <path class="write-flat-pen" fill="#FFFFFF" stroke-width="1.6" __comx="64.915" __comy="137.62" __timestamp="0x178102a5b77" d="M66.121 136.547 l-0.565 -1.229 -0.218 -0.189 -1.09 -0.524 -1.61 0.079 -1.339 0.613 -1.039 1.156 -0.545 1.871 0.123 1.674 0.78 2.09 1.292 1.64 1.201 0.748 1.548 0.241 1.782 -0.512 1.554 -1.129 1.385 -1.908 0.64 -2.058 0.095 -2.01 -0.499 -1.815 -0.981 -1.37 -1.83 -1.293 -2.016 -0.713 -1.632 -0.033 -1.24 0.784 -0.159 0.218 -0.07 0.152 -0.72 1.67 0.069 0.052 1.399 -1.162 0.098 -0.073 0.044 -0.007 0.872 -0.336 1.075 0.077 1.637 0.603 1.492 1.051 0.714 0.981 0.393 1.37 -0.061 1.626 -0.515 1.691 -1.127 1.573 -1.197 0.885 -1.291 0.384 -1.019 -0.149 -0.804 -0.488 -1.061 -1.305 -0.69 -1.742 -0.127 -1.298 0.382 -1.442 0.702 -0.824 0.95 -0.473 1.183 -0.132 0.815 0.288 0.019 0.001 0.675 0.987" />
    <path class="write-flat-pen" fill="#FFFFFF" stroke-width="1.6" __comx="76.139" __comy="137.62" __timestamp="0x178102a5c69" d="M73.753 124.705 l0.677 3.671 0.185 0.829 3.025 15.511 0.792 1.466 0.093 -0.027 -0.122 -1.625 -2.984 -15.499 -0.213 -0.832 -0.898 -3.614" />
    <path class="write-flat-pen" fill="#FFFFFF" stroke-width="1.6" __comx="89.383" __comy="137.62" __timestamp="0x178102a5e07" d="M82.615 134.266 l0.206 2.067 0.048 0.459 1.052 7.451 0.058 0.144 0 0 0.998 -0.065 1.108 -3.832 1.129 -2.384 0.938 -1.107 1.029 -0.492 1.377 0.187 1.202 0.664 1.367 1.398 1.095 1.87 0.721 2.212 0.212 1.641 0.007 0.133 -0.167 1.987 0.124 0.035 0.907 -1.776 0.125 -0.28 -0.071 -1.967 -0.798 -2.464 -1.239 -2.096 -1.591 -1.611 -1.538 -0.839 -1.919 -0.25 -1.545 0.743 -1.184 1.405 -1.219 2.603 -1.092 3.93 0.998 -0.065 0 0 -0.012 -0.02 -1.258 -7.276 -0.074 -0.454 -0.427 -2.041" />
    <path class="write-flat-pen" fill="#FFFFFF" stroke-width="1.6" __comx="73.684" __comy="137.62" __timestamp="0x178102a5f73" d="M41.255 152.339 l-0.775 -0.614 0 0 -0.143 0.764 2.192 -0.413 1.804 -0.033 11.122 0.274 31.852 2.682 11.87 0.155 1.724 -0.082 1.63 -0.168 1.557 -0.141 1.455 -0.214 1.831 -0.265 -0.009 -0.116 -1.85 0.017 -1.462 0.01 -1.562 0.006 -1.626 0.05 -1.687 -0.006 -11.809 -0.381 -31.849 -2.759 -11.192 -0.187 -1.942 0.088 -2.246 0.656 -0.143 0.764 0 0 0.847 0.51" />
    <path class="write-flat-pen" fill="#FFFFFF" stroke-width="1.6" __comx="119.53" __comy="137.62" __timestamp="0x178102a6888" d="M119.776 150.445 l0.005 -3.449 -0.021 -2.06 -0.082 -0.006 -0.344 2.047 -0.056 3.464" />
    <path class="write-flat-pen" fill="#FFFFFF" stroke-width="1.6" __comx="117.364" __comy="137.62" __timestamp="0x178102a6962" d="M117.596 127.812 l-0.071 -1.18 0.322 -1.15 -0.064 -0.035 -0.872 1.034 -0.029 1.343" />
    <path class="write-flat-pen" fill="#FFFFFF" stroke-width="1.6" __comx="147.198" __comy="137.62" __timestamp="0x178102a6cec" d="M138.437 147.563 l-0.094 0.427 -0.006 0.064 0 0 0.465 -0.05 0.113 -0.128 0.052 -0.156 0.163 -0.835 0.06 -0.443 0.423 -4.91 0.076 -0.793 0.948 -8.241 0.079 -3.979 -0.357 -0.798 0 0 -0.915 -0.314 -0.687 0.364 -0.185 1.604 0.586 2.209 1.637 3.383 2.575 4.006 3.239 4.104 2.193 2.127 1.758 1.106 1.806 0.351 1.424 -0.595 1.122 -1.479 0.672 -2.266 0.547 -4.623 0.052 -5.956 -0.503 -7.13 -0.643 -1.837 -1.623 0.254 -0.303 0.495 -0.216 0.71 -0.055 0.427 -0.211 1.726 0.126 0.039 0.81 -1.538 0.181 -0.327 0.33 -0.484 -0.009 0.075 0.011 0.1 0.191 0.644 0.495 6.892 -0.042 5.824 -0.504 4.434 -0.55 1.92 -0.74 0.997 -0.708 0.304 -1.162 -0.22 -1.429 -0.896 -2.03 -1.966 -3.141 -3.987 -2.503 -3.88 -1.552 -3.193 -0.489 -1.843 0.08 -0.662 0.072 -0.039 -0.915 -0.314 0 0 0.238 0.528 -0.051 3.624 -0.862 8.205 -0.062 0.823 -0.192 4.933 -0.005 0.437 0.025 0.834 0.019 0.129 0.064 0.137 0.465 -0.05 0 0 -0.017 0.037 -0.1 -0.342" />
    <path class="write-flat-pen" fill="#FFFFFF" stroke-width="1.6" __comx="164.337" __comy="137.62" __timestamp="0x178102a6ea6" d="M164.868 138.286 l-1.015 -1.129 -0.271 -0.107 -1.138 -0.054 -1.261 0.617 -0.933 1.206 -0.396 1.693 0.317 1.715 1.143 1.937 1.409 1.246 1.708 0.533 1.785 -0.382 1.172 -0.921 0.986 -1.715 0.446 -2.022 -0.115 -1.89 -0.723 -1.751 -1.139 -1.251 -1.635 -0.674 -1.832 0.924 -0.283 0.425 -0.283 0.717 -0.077 0.377 -0.373 1.901 0.097 0.036 0.967 -1.679 0.17 -0.282 0.371 -0.511 0.115 -0.097 1.142 -0.408 0.833 0.376 0.776 0.87 0.545 1.332 0.096 1.482 -0.349 1.646 -0.745 1.327 -0.731 0.587 -1.162 0.26 -1.133 -0.34 -1.072 -0.926 -0.974 -1.568 -0.28 -1.267 0.229 -1.246 0.605 -0.862 0.811 -0.446 0.745 -0.025 -0.039 -0.021 1.04 0.839" />
    <path class="write-flat-pen" fill="#FFFFFF" stroke-width="1.6" __comx="179.648" __comy="137.62" __timestamp="0x178102a6ff8" d="M179.953 145.977 l-0.402 1.165 -0.009 -0.008 0.591 0.134 -0.38 -2.424 -0.353 -1.349 -0.109 0 -0.357 1.425 0.549 2.471 0.591 0.134 0.064 -0.107 0.222 -1.339" />
    <path class="write-flat-pen" fill="#FFFFFF" stroke-width="1.6" __comx="178.555" __comy="137.62" __timestamp="0x178102a70c1" d="M180.393 129.732 l-2.601 -12.389 -0.202 -0.798 -0.2 -0.754 -0.552 -2.105 -0.121 0.02 0.17 2.169 0.06 0.786 0.112 0.828 2.456 12.423" />
    <path class="write-flat-pen" fill="#FFFFFF" stroke-width="1.6" __comx="215.485" __comy="137.62" __timestamp="0x178102a796d" d="M213.623 130.818 l0.222 0.156 -0.044 -0.048 0.388 1.414 0.112 0.509 1.507 7.962 0.077 0.741 0.426 7.193 0.008 0.113 -0.208 2.119 0.094 0.029 1.02 -1.869 0.122 -0.259 -0.214 -7.42 -0.091 -0.839 -1.751 -8.003 -0.173 -0.564 -0.612 -1.416 -0.161 -0.296 -0.619 -0.019" />
    <path class="write-flat-pen" fill="#FFFFFF" stroke-width="1.6" __comx="214.92" __comy="137.62" __timestamp="0x178102a7ab5" d="M205.072 131.869 l-0.996 -1.413 0.014 0.009 0.02 -0.453 0.508 -0.626 1.659 -0.839 2.918 -0.784 4.017 -0.492 7.431 -0.042 1.013 0.092 2.027 0.197 1.001 0.072 2.087 0.156 0.022 -0.131 -2.023 -0.537 -0.975 -0.261 -2.011 -0.416 -1.074 -0.172 -7.566 -0.18 -4.188 0.502 -3.125 0.873 -1.977 1.086 -0.807 1.197 0.114 1.003 0.128 0.245 1.242 1.352" />
    <path class="write-flat-pen" fill="#FFFFFF" stroke-width="1.6" __comx="231.084" __comy="137.62" __timestamp="0x178102a7cfc" d="M232.507 139.989 l0.089 -1.142 -0.024 -0.184 -1.115 -1.364 -0.493 -0.117 -1.654 0.14 -1.609 0.916 -1.129 1.299 -0.766 1.829 -0.033 1.628 0.637 1.248 1.1 0.487 1.304 -0.253 2.847 -2.681 0.278 -0.086 0.434 0.368 2.045 4.09 0.295 0.199 1.601 0.949 0.083 -0.086 -1.022 -1.556 -0.069 -0.15 -1.934 -4.215 -1.149 -0.977 -1.198 0.368 -2.804 2.618 -0.567 0.111 -0.346 -0.147 -0.315 -0.581 -0.01 -1.102 0.56 -1.478 0.856 -1.058 1.235 -0.772 1.284 -0.187 0.079 0.005 0.943 0.863 -0.004 -0.062 0.143 1.091" />
    <path class="write-flat-pen" fill="#FFFFFF" stroke-width="1.6" __comx="249.727" __comy="137.62" __timestamp="0x178102a7ffb" d="M239.343 125.334 l-0.276 1.517 -0.011 0.431 0.891 8.514 0.098 0.831 0.958 5.905 0.783 2.255 0.557 0.388 0 0 0.899 -0.262 4.105 -9.762 0.376 -1.622 0 0 -0.539 -0.747 -0.724 -0.081 -1.246 1.777 -1.211 2.89 -0.563 2.699 0.181 1.475 0.827 1.347 1.592 0.883 1.778 0.13 2.399 -0.583 2.123 -1.179 1.892 -1.783 2.366 -3.245 0.703 -1.67 -0.614 -1.175 -1.205 -0.394 -1.316 0.386 -1.141 1.026 -0.869 1.571 -0.452 1.97 0.203 2.187 0.773 2.009 1.253 1.639 2.751 1.294 0.626 0.047 0.524 -0.043 0.53 -0.147 2.035 -0.573 -0.017 -0.163 -2.11 -0.132 -0.483 -0.039 -0.387 -0.063 -0.344 -0.087 -2.202 -1.205 -0.928 -1.225 -0.634 -1.639 -0.176 -1.772 0.337 -1.571 0.643 -1.218 0.735 -0.689 0.632 -0.199 0.31 0.101 0.074 0.157 -0.419 0.949 -2.237 2.99 -1.684 1.567 -1.807 1.004 -2.002 0.494 -1.257 -0.085 -1.016 -0.554 -0.497 -0.783 -0.134 -0.962 0.457 -2.367 1.082 -2.659 0.734 -1.073 -0.004 -0.01 -0.539 -0.747 0 0 -0.333 1.522 -4.058 9.665 0.899 -0.262 0 0 -0.237 -0.164 -0.632 -1.785 -0.981 -5.773 -0.105 -0.803 -1.108 -8.436 -0.02 -0.331 0.041 -1.491" />
    <path class="write-flat-pen" fill="#FFFFFF" stroke-width="1.6" __comx="322.432" __comy="138.582" __timestamp="0x178102aa1df" d="M324.94 139.128 l0.1 -0.957 -0.002 -0.14 -0.203 -1.31 -0.088 -0.247 -0.63 -1.042 -1.318 -0.868 -1.875 -0.325 -2.136 0.348 -2.034 0.918 -1.819 1.488 -1.365 1.866 -0.816 2.02 -0.295 2.32 0.382 1.708 1.018 1.473 1.614 0.999 1.577 0.226 2.327 -0.554 2.27 -1.365 1.757 -1.783 1.488 -2.27 0.871 -2.212 0.02 -1.623 -1.459 -0.251 -0.389 2.151 0.282 2.442 0.879 2.256 1.522 1.807 2.32 0.977 0.551 0 0.472 -0.069 0.468 -0.146 1.975 -0.625 -0.019 -0.121 -2.072 0.008 -0.441 -0.004 -0.37 -0.03 -0.292 -0.058 -1.805 -0.949 -1.181 -1.452 -0.737 -1.906 -0.233 -2.085 0.126 -0.682 -0.925 -0.159 -0.006 0.262 -0.732 1.863 -1.338 2.052 -1.547 1.578 -1.951 1.189 -1.892 0.458 -1.072 -0.151 -1.168 -0.713 -0.739 -1.048 -0.297 -1.255 0.233 -1.947 0.699 -1.732 1.179 -1.624 1.572 -1.299 1.743 -0.807 1.793 -0.326 1.483 0.203 1.003 0.559 0.568 0.72 0.054 0.096 0.399 1.153 0.019 0.071 0.13 0.93" />
    <path class="write-flat-pen" fill="#FFFFFF" stroke-width="1.6" __comx="340.913" __comy="138.582" __timestamp="0x178102aa2e3" d="M335.898 134.524 l2.453 1.109 0.492 0.106 4.741 0.386 2.34 -0.175 0.005 -0.112 -2.296 -0.376 -4.655 -0.597 -0.375 -0.07 -2.463 -0.87" />
    <path class="write-flat-pen" fill="#FFFFFF" stroke-width="1.6" __comx="342.182" __comy="138.582" __timestamp="0x178102aa3a3" d="M337.541 139.807 l1.479 0.25 0.399 0.023 4.664 -0.048 0.479 -0.05 2.261 -0.227 0.002 -0.13 -2.251 -0.31 -0.482 -0.068 -4.657 -0.087 -0.36 0.001 -1.471 -0.023" />
    <path class="write-flat-pen" fill="#FFFFFF" stroke-width="1.6" __comx="362.54" __comy="138.582" __timestamp="0x178102aa5b2" d="M357.383 130.061 l1.245 -0.179 0.293 -0.095 3.715 -1.991 0.481 -0.364 2.685 -2.515 0 0 1.226 -1.784 0 0 -0.941 -0.774 -0.66 0.657 -0.791 2.365 -0.541 3.735 -0.091 4.292 0.472 4.379 1.436 4.051 1.843 1.282 0.094 -0.081 -0.832 -1.83 -1.184 -3.722 -0.478 -4.142 0.048 -4.126 0.475 -3.549 0.636 -1.99 0.443 -0.461 -0.941 -0.774 0 0 -1.138 1.688 0 0 -2.516 2.42 -0.364 0.289 -3.469 2.116 -0.16 0.076 -1.139 0.38" />
    <path class="write-flat-pen" fill="#FFFFFF" stroke-width="1.6" __comx="369.898" __comy="138.582" __timestamp="0x178102aa6bc" d="M359.17 143.565 l0.158 0.428 0.187 0.14 0.981 0.396 0.537 0.129 4.684 0.441 11.508 -1.103 0.369 -0.046 0.716 -0.113 2.316 -0.41 -0.006 -0.135 -2.343 -0.22 -0.73 -0.049 -0.392 -0.004 -11.447 0.892 -4.546 -0.234 -0.441 -0.059 -0.895 -0.174 0.04 0.049 -0.171 -0.201" />
    <path class="write-flat-pen" fill="#FFFFFF" stroke-width="1.6" __comx="385.516" __comy="138.582" __timestamp="0x178102aa7e0" d="M382.872 139.354 l1.264 1.863 0.261 0.367 1.36 2.127 0.944 2.283 0.607 3.26 0.012 0.099 0.026 2.167 0.068 0.011 0.685 -2.056 0.062 -0.219 -0.428 -3.552 -1.055 -2.485 -1.498 -2.188 -0.299 -0.376 -1.45 -1.723" />
    <path class="write-flat-pen" fill="#FFFFFF" stroke-width="1.6" __comx="407.916" __comy="130.08" __timestamp="0x178102aaec1" d="M400.642 120.629 l-0.483 0.844 -0.045 0.36 0.187 3.08 0.121 0.743 2.349 10.753 0.096 0.378 0.411 1.808 0 0 -0.148 0.481 0 0 1.294 0.009 -0.122 -0.45 0.888 -2.485 1.098 -1.707 1.038 -0.917 1.491 -0.625 1.313 -0.084 1.807 0.403 1.428 0.759 0.676 0.822 0.204 0.836 -0.252 0.843 -0.899 0.971 -1.529 0.832 -2.562 0.666 -2.649 0.231 -0.406 -0.077 -0.115 -0.033 0.025 -0.121 0.17 -0.297 0.249 -0.357 0.32 -0.432 1.106 -1.474 -0.057 -0.06 -1.521 1.041 -0.457 0.311 -0.386 0.296 -0.323 0.289 -0.341 0.413 -0.151 1.557 1.771 0.459 3.021 -0.273 2.855 -0.759 1.894 -1.048 1.278 -1.413 0.429 -1.547 -0.402 -1.51 -1.068 -1.259 -1.836 -0.959 -2.175 -0.48 -1.735 0.109 -1.909 0.801 -1.346 1.193 -1.281 1.998 -1.079 3.035 0.24 0.86 1.294 0.009 0 0 0.232 -0.82 0 0 -0.515 -2.159 -0.1 -0.374 -2.564 -10.659 -0.138 -0.67 -0.385 -2.943 -0.004 -0.154 0.244 -0.801" />
    <path class="write-flat-pen" fill="#FFFFFF" stroke-width="1.6" __comx="427.97" __comy="130.08" __timestamp="0x178102ab077" d="M422.797 129.351 l0.244 -0.156 -0.026 0.035 0.696 -0.022 0.285 -0.004 7.137 -0.307 2.306 -0.331 0 -0.08 -2.319 -0.318 -7.177 0.168 -0.34 0.052 -0.759 0.232 -0.183 0.097 -0.158 0.431" />
    <path class="write-flat-pen" fill="#FFFFFF" stroke-width="1.6" __comx="427.919" __comy="130.08" __timestamp="0x178102ab14a" d="M423.011 132.769 l2.087 0.515 4.572 -0.367 0.478 -0.092 0.492 -0.109 2.187 -0.479 -0.009 -0.087 -2.239 -0.007 -0.506 -0.002 -0.469 0.015 -4.437 0.192 -1.995 -0.343" />
    <path class="write-flat-pen" fill="#FFFFFF" stroke-width="1.6" __comx="444.736" __comy="130.08" __timestamp="0x178102ab3f7" d="M439.18 121.613 l-0.3 -1.153 0.012 0.096 1.063 -1.157 0.193 -0.087 2.235 -0.548 2.587 -0.024 2.11 0.395 1.4 0.672 0.593 0.681 0.196 0.734 -0.184 0.946 -0.814 1.306 -2.352 1.922 -0.069 1.208 3.807 1.693 2.129 1.392 1.005 1.196 0.549 1.587 -0.175 1.434 -0.595 1.049 -1.536 1.313 -1.636 0.745 -2.775 0.551 -10.082 -0.558 -0.125 0.026 -1.685 -0.155 -0.041 0.095 1.268 1.12 0.273 0.198 10.491 0.787 3.139 -0.636 1.98 -0.919 1.872 -1.637 0.841 -1.532 0.224 -2.042 -0.753 -2.131 -1.307 -1.545 -2.396 -1.562 -3.031 -1.348 -0.021 0.36 2.05 -1.69 1.06 -1.722 0.276 -1.505 -0.369 -1.331 -0.984 -1.116 -1.812 -0.857 -2.416 -0.432 -2.869 0.088 -2.479 0.716 -0.505 0.279 -1.225 1.728 0.011 0.369 0.559 1.224" />
    <path class="write-flat-pen" fill="#FFFFFF" stroke-width="1.6" __comx="91.505" __comy="226.363" __timestamp="0x178102abc98" d="M92.683 241.045 l-0.2 -0.825 -0.048 -0.148 -0.457 -1.39 -0.123 -0.329 -1.916 -4.606 -0.278 -0.598 -2.303 -5.165 -1.263 -3.887 -0.448 -3.252 -0.023 -4.227 0.448 -2.852 0.677 -1.92 0.809 -1.2 1.276 -0.76 1.059 -0.134 1.792 0.331 4.418 2.366 0.166 0.113 0.506 0.351 1.954 1.305 0.091 -0.094 -1.371 -1.922 -0.416 -0.504 -0.244 -0.234 -4.608 -2.738 -2.242 -0.428 -1.583 0.195 -1.812 1.081 -1.093 1.618 -0.784 2.22 -0.476 3.1 0.042 4.437 0.505 3.466 1.373 4.06 2.449 5.191 0.29 0.584 2.111 4.493 0.148 0.304 0.654 1.313 0.075 0.126 0.395 0.729" />
    <path class="write-flat-pen" fill="#FFFFFF" stroke-width="1.6" __comx="88.23" __comy="226.363" __timestamp="0x178102abd96" d="M79.399 227.611 l1.241 -0.683 0.275 -0.095 4.463 -1.027 8.545 -1.244 0.634 -0.095 0.645 -0.113 2.219 -0.38 -0.009 -0.144 -2.249 -0.104 -0.662 -0.033 -0.672 0.01 -8.643 1.097 -4.546 1.173 -0.405 0.176 -1.197 0.912" />
    <path class="write-flat-pen" fill="#FFFFFF" stroke-width="1.6" __comx="108.328" __comy="226.363" __timestamp="0x178102abf53" d="M107.913 220.289 l0.218 -0.58 0.016 -0.054 0.036 -0.518 -0.398 -0.236 -0.667 0.346 -0.251 0.249 -1.203 1.804 -0.797 2.448 -0.459 3.77 0.181 2.867 0.568 2.027 1.291 2.163 2.549 1.723 0.555 0.135 0.498 0.051 2.165 0.221 0.034 -0.142 -2.025 -0.795 -0.433 -0.175 -0.35 -0.16 -2.091 -1.672 -1.052 -1.832 -0.485 -1.751 -0.166 -2.626 0.413 -3.549 0.667 -2.219 0.946 -1.692 0.085 -0.132 0.087 -0.185 -0.308 -0.19 0.102 0.049 0.008 -0.016 0.008 0.628" />
    <path class="write-flat-pen" fill="#FFFFFF" stroke-width="1.6" __comx="117.588" __comy="226.363" __timestamp="0x178102ac149" d="M117.611 224.008 l-0.479 -1.54 -0.225 -0.226 -0.921 -0.344 -1.462 0.463 -1.761 1.306 -1.052 1.514 -0.566 1.871 0.142 1.839 0.726 1.348 1.257 0.978 1.649 0.352 1.689 -0.363 1.502 -0.928 1.392 -1.613 0.766 -1.742 0.123 -1.527 0 0 -0.448 -0.631 0 0 -1.052 0.089 -0.415 0.874 -0.029 1.869 0.606 2.079 1.28 2.247 1.544 1.535 2.078 1.022 0.077 -0.104 -1.495 -1.648 -1.235 -1.508 -1.128 -2.017 -0.511 -1.77 0.026 -1.421 0.305 -0.632 -1.052 0.089 0 0 0.189 0.27 0 0 -0.07 0.878 -0.608 1.385 -1.151 1.329 -1.162 0.719 -1.226 0.267 -1.122 -0.235 -0.841 -0.646 -0.496 -0.897 -0.122 -1.367 0.426 -1.495 0.823 -1.231 1.451 -1.126 0.958 -0.362 0.428 0.096 -0.061 -0.069 0.623 1.269" />
    <path class="write-flat-pen" fill="#FFFFFF" stroke-width="1.6" __comx="126.604" __comy="226.363" __timestamp="0x178102ac277" d="M122.129 218.293 l1.034 0.522 0.157 0.121 2.396 2.23 0.296 0.372 1.716 2.672 1.253 2.931 0.648 2.796 0.152 3 -0.644 2.702 -0.093 0.239 -0.199 0.46 -0.934 2.049 0.114 0.077 1.563 -1.645 0.353 -0.431 0.213 -0.349 0.925 -2.957 -0.148 -3.326 -0.704 -3.025 -1.359 -3.134 -1.865 -2.789 -0.416 -0.491 -2.678 -2.173 -0.316 -0.179 -1.199 -0.349" />
    <path class="write-flat-pen" fill="#FFFFFF" stroke-width="1.6" __comx="143.98" __comy="226.363" __timestamp="0x178102ac419" d="M137.404 222.756 l1.406 0.224 0.344 0.054 9.081 0.65 2.308 0.033 0.013 -0.105 -2.256 -0.551 -9.06 -0.872 -0.349 -0.03 -1.441 0.001" />
    <path class="write-flat-pen" fill="#FFFFFF" stroke-width="1.6" __comx="146.308" __comy="226.363" __timestamp="0x178102ac4e1" d="M142.225 226.795 l-0.427 0.235 0.206 0.18 0.163 0.064 2.303 0.48 0.508 0.045 3.039 -0.05 0.555 -0.096 2.246 -0.382 -0.009 -0.179 -2.274 -0.15 -0.536 -0.039 -2.978 -0.1 -0.435 -0.028 -2.268 -0.248 -0.122 -0.006 -0.251 0.038 -0.074 0.589" />
    <path class="write-flat-pen" fill="#FFFFFF" stroke-width="1.6" __comx="168.419" __comy="223.724" __timestamp="0x178102ad12a" d="M171.391 207.477 l-0.312 -0.479 -0.27 0.01 -0.584 0.251 -0.232 0.18 -1.531 1.671 -0.347 0.518 -1.775 3.395 -1.413 3.839 -0.658 3.28 -0.251 4.473 0.444 3.235 0.854 2.82 1.593 2.994 2.332 2.529 0.514 0.381 0.51 0.324 0.515 0.262 1.977 1.009 0.067 -0.099 -1.67 -1.462 -0.416 -0.369 -0.414 -0.376 -0.385 -0.376 -2.027 -2.505 -1.43 -2.787 -0.784 -2.613 -0.411 -3.017 0.239 -4.264 0.607 -3.104 1.317 -3.695 1.633 -3.322 0.259 -0.429 1.277 -1.717 0.1 -0.124 0.297 -0.293 -0.16 -0.001 0.274 0.121" />
    <path class="write-flat-pen" fill="#FFFFFF" stroke-width="1.6" __comx="185.151" __comy="223.724" __timestamp="0x178102ada33" d="M180.17 215.6 l-0.11 0.469 0.18 0.155 0.579 0.145 0.203 -0.031 1.249 -0.541 0.306 -0.197 4.823 -4.599 0 0 -0.571 -1.086 -0.339 0.062 -1.241 2.515 -0.582 3.441 0.073 2.87 0.794 4.062 2.914 7.633 1.386 2.124 0.408 -0.182 -0.632 -2.415 -2.696 -7.548 -0.756 -3.832 -0.084 -2.618 0.487 -3.124 0.811 -1.783 -0.301 0.055 -0.571 -1.086 0 0 -4.596 4.702 -0.165 0.132 -0.999 0.645 0.017 0.011 -0.303 0.095 0.153 0.132 -0.116 -0.207" />
    <path class="write-flat-pen" fill="#FFFFFF" stroke-width="1.6" __comx="189.701" __comy="223.724" __timestamp="0x178102adb32" d="M181.756 233.296 l1.74 -0.045 0.4 -0.015 11.494 -0.409 2.321 -0.374 -0.002 -0.091 -2.336 -0.297 -11.525 0.227 -0.427 0.047 -1.727 0.275" />
    <path class="write-flat-pen" fill="#FFFFFF" stroke-width="1.6" __comx="204.288" __comy="223.724" __timestamp="0x178102adc60" d="M199.971 224.821 l-0.325 0.391 0.704 0.109 0.254 0.017 6.073 0.043 2.258 -0.208 0.001 -0.135 -2.25 -0.245 -6.067 -0.216 -0.266 0.009 -0.712 0.123 0.142 0.579" />
    <path class="write-flat-pen" fill="#FFFFFF" stroke-width="1.6" __comx="218.18" __comy="223.724" __timestamp="0x178102ade74" d="M212.924 220.173 l1.551 0.295 0.326 -0.01 1.766 -0.436 1.745 -1.039 1.839 -1.774 0 0 1.622 -2.295 0 0 0.173 -0.835 0 0 -1.098 -0.313 -0.655 1.514 -0.523 4.346 -0.107 5.903 0.325 3.271 1.657 4.53 1.744 1.579 0.148 -0.104 -0.796 -2.038 -1.424 -4.263 -0.319 -3.032 0.072 -5.762 0.438 -4.124 0.507 -1.394 -1.098 -0.313 0 0 -0.083 0.605 0 0 -1.402 2.032 0 0 -1.656 1.654 -1.499 0.96 -1.519 0.483 -0.16 0.022 -1.501 -0.066" />
    <path class="write-flat-pen" fill="#FFFFFF" stroke-width="1.6" __comx="223.524" __comy="223.724" __timestamp="0x178102adf72" d="M214.425 236.307 l1.205 -0.586 0.3 -0.084 3.929 -0.946 9.768 -1.058 0.564 -0.081 0.57 -0.114 2.25 -0.442 -0.012 -0.156 -2.291 -0.082 -0.578 -0.023 -0.577 0.001 -9.889 0.838 -4.016 1.098 -0.422 0.155 -1.188 0.819" />
    <path class="write-flat-pen" fill="#FFFFFF" stroke-width="1.6" __comx="237.65" __comy="223.724" __timestamp="0x178102ae101" d="M231.318 209.619 l1.86 0.77 0.379 0.265 2.019 1.718 2.153 2.479 2.31 3.568 1.327 2.928 1.006 3.556 0.4 3.368 -0.243 2.371 -1.262 3.337 -0.3 0.475 -0.713 0.98 -0.335 0.448 -1.339 1.77 0.083 0.08 1.712 -1.412 0.45 -0.371 0.888 -0.913 0.443 -0.566 1.532 -3.535 0.291 -2.67 -0.426 -3.597 -1.065 -3.734 -1.428 -3.08 -2.466 -3.668 -2.324 -2.539 -2.189 -1.713 -0.524 -0.318 -2.026 -0.604" />
    <path class="write-flat-pen" fill="#FFFFFF" stroke-width="1.6" __comx="246.331" __comy="223.724" __timestamp="0x178102ae31b" d="M244.305 202.249 l0.429 -1.009 0.032 -0.016 1.116 -0.579 1.156 -0.176 0.48 0.234 0.323 0.633 -0.112 1.055 -1.786 2.886 -0.078 2.25 0.172 0.291 1.11 1.586 0.061 -0.024 -0.297 -1.913 0.011 -0.109 0.178 -1.719 1.695 -2.897 0.142 -1.625 -0.665 -1.216 -1.101 -0.483 -1.616 0.325 -1.293 0.804 -0.243 0.246 -0.289 1.274" />
    <path class="write-flat-pen" fill="#FFFFFF" stroke-width="1.6" __comx="264.13" __comy="223.724" __timestamp="0x178102ae9d1" d="M262.371 212.81 l0.057 -0.7 0.018 0.001 0 -0.004 -0.496 -0.067 -0.14 0.166 -0.063 0.117 -0.645 1.542 -0.198 0.517 -1.323 4.498 -0.55 3.841 -0.01 3.942 0.517 2.897 1.369 3.628 1.69 2.834 2.926 2.731 0.561 0.266 0.984 0.286 2.13 0.485 0.039 -0.107 -1.935 -0.987 -0.848 -0.457 -0.369 -0.242 -2.572 -2.689 -1.529 -2.636 -1.302 -3.428 -0.489 -2.684 -0.003 -3.757 0.496 -3.691 1.183 -4.424 0.159 -0.499 0.454 -1.623 0.034 -0.192 -0.071 -0.253 -0.496 -0.067 0 -0.004 0.013 0.051 0.147 0.726" />
    <path class="write-flat-pen" fill="#FFFFFF" stroke-width="1.6" __comx="273.39" __comy="223.724" __timestamp="0x178102aebc9" d="M268.254 223.199 l0.751 -0.018 0.213 -0.033 2.969 -1.183 0.482 -0.297 0 0 2.709 -2.113 0 0 1.484 -1.781 0 0 -0.944 -0.651 -0.897 1.436 -0.639 2.295 -0.041 2.723 0.51 2.956 1.846 5.33 0.177 0.357 0.293 0.51 1.334 1.952 0.115 -0.051 -0.557 -2.289 -0.156 -0.552 -0.107 -0.332 -1.606 -5.258 -0.479 -2.736 0.002 -2.433 0.486 -1.987 0.715 -1.344 -0.944 -0.651 0 0 -1.363 1.725 0 0 -2.537 2.051 0 0 -0.363 0.24 -2.741 1.327 -0.109 0.042 -0.692 0.216" />
    <path class="write-flat-pen" fill="#FFFFFF" stroke-width="1.6" __comx="278.121" __comy="223.724" __timestamp="0x178102aecbc" d="M270.74 235.369 l3.208 0.671 3.599 -0.007 3.916 -0.8 0.647 -0.199 0.652 -0.217 0.643 -0.246 2.096 -0.793 -0.032 -0.122 -2.216 0.332 -0.679 0.099 -0.671 0.119 -0.633 0.116 -3.824 0.575 -3.399 0.005 -3.144 -0.451" />
    <path class="write-flat-pen" fill="#FFFFFF" stroke-width="1.6" __comx="289.076" __comy="223.724" __timestamp="0x178102aedd5" d="M285.324 227.56 l0.384 -0.362 0.008 0.012 5.347 -0.253 2.222 -0.241 0 -0.122 -2.23 -0.238 -5.451 0.06 -0.36 0.108 -0.377 0.712" />
    <path class="write-flat-pen" fill="#FFFFFF" stroke-width="1.6" __comx="300.175" __comy="223.724" __timestamp="0x178102af01b" d="M293.871 220.628 l-0.479 -1.188 0.011 0.069 0.287 -0.607 0.899 -0.58 1.801 -0.354 2.294 0.193 1.612 0.523 0.864 0.625 0.542 0.948 0.002 0.746 -1.337 1.688 0 0 0.173 0.878 2.879 1.631 1.674 1.437 0.961 1.449 0.518 1.699 -0.102 1.617 -0.489 1.147 -1.171 1.274 -1.646 0.889 -2.066 0.44 -1.681 -0.115 -2.035 -0.745 -1.153 -0.881 -1.174 -1.735 -0.076 -0.184 -0.145 -0.5 -0.481 -2.008 -0.123 0.008 -0.208 2.076 -0.01 0.602 0.071 0.41 1.196 2.166 1.449 1.196 2.398 0.922 2.067 0.154 2.448 -0.524 2.006 -1.115 1.444 -1.633 0.625 -1.566 0.082 -2.051 -0.661 -2.061 -1.155 -1.719 -1.884 -1.616 -2.975 -1.692 0.173 0.878 0 0 1.576 -2.024 -0.033 -1.456 -0.826 -1.408 -1.209 -0.863 -1.909 -0.6 -2.578 -0.182 -2.143 0.48 -1.261 0.927 -0.364 1.076 0.021 0.288 0.765 1.244" />
    <path class="write-flat-pen" fill="#FFFFFF" stroke-width="1.6" __comx="313.499" __comy="223.724" __timestamp="0x178102af187" d="M309.063 211.392 l1.18 1.389 0.301 0.367 3.05 4.755 0.355 0.745 1.348 3.444 0.93 3.67 0.496 4.292 -0.137 3.388 -0.586 2.031 -1.843 2.653 -0.341 0.335 -0.769 0.661 -1.706 1.419 0.078 0.123 2.017 -0.953 0.945 -0.511 0.51 -0.389 2.178 -2.806 0.709 -2.364 0.155 -3.63 -0.518 -4.467 -0.985 -3.819 -1.437 -3.538 -0.423 -0.845 -3.315 -4.744 -0.382 -0.397 -1.339 -1.256" />
    <path class="write-flat-pen" fill="#FFFFFF" stroke-width="1.6" __comx="317.77" __comy="223.724" __timestamp="0x178102af42f" d="M318.846 204.809 l0.081 1.123 0.044 0.205 0.392 1.391 0.308 0.049 0.488 -0.507 -0.392 -3.306 -0.117 -0.46 -0.84 -3.672 -0.245 -2.761 0 0 0.302 -0.737 0 0 -1.171 -0.459 -0.628 1.707 -2.756 4.289 -0.211 1.38 1.183 0.776 2.858 0.346 0.352 0.016 0.68 -0.014 2.249 -0.105 0.015 -0.125 -2.162 -0.62 -0.646 -0.175 -0.325 -0.078 -2.542 -0.49 -0.254 -0.165 0.033 -0.289 2.654 -4.187 0.682 -1.83 -1.171 -0.459 0 0 -0.427 1.026 0 0 0.324 3.157 0.957 3.746 0.116 0.412 0.608 3.211 0.488 -0.507 0.217 0.039 -0.4 -0.798 -0.055 -0.144 -0.293 -1.053" />
    <path class="write-flat-pen" fill="#FFFFFF" stroke-width="1.6" __comx="138.381" __comy="282.427" __timestamp="0x178102af8f5" d="M131.086 282.786 l0.236 -0.285 -0.105 0.037 12.253 0.932 0.524 -0.014 2.202 -0.054 0.005 -0.058 -2.163 -0.42 -0.515 -0.101 -12.344 -1.105 -0.404 0.089 -0.218 0.749" />
    <path class="write-flat-pen" fill="#FFFFFF" stroke-width="1.6" __comx="142.473" __comy="286.381" __timestamp="0x178102af9e7" d="M134.844 286.268 l-0.321 0.6 0.496 0.136 0.335 0.029 12.102 0.094 0.783 -0.072 2.184 -0.196 0 -0.127 -2.183 -0.206 -0.779 -0.076 -12.084 -0.253 -0.314 0.002 -0.499 0.07 0.28 0.6" />
    <path class="write-flat-pen" fill="#FFFFFF" stroke-width="1.6" __comx="176.025" __comy="280.843" __timestamp="0x178102afc64" d="M177.353 280.903 l-0.068 -0.865 -0.036 -0.109 -0.616 -0.942 -0.355 -0.176 -2.375 0.103 -0.575 0.209 -2.503 1.346 -1.934 1.738 -1.296 1.941 -0.647 2.186 0.017 1.845 0.663 1.997 1.22 1.837 2.121 1.88 2.457 1.031 2.079 0.258 2.283 -0.399 2.201 -1.026 1.946 -1.537 1.476 -1.817 0.976 -1.998 0.627 -2.679 0.085 -2.605 -0.413 -1.809 -1.207 -2.27 -1.324 -1.273 -1.581 -0.619 -2.416 0.561 -0.225 0.15 -0.124 0.119 -1.573 1.525 0.154 0.249 2.067 -0.726 0.135 -0.041 0.029 0.01 1.799 -0.233 0.872 0.35 0.924 0.886 1.007 1.864 0.338 1.413 -0.048 2.26 -0.53 2.377 -0.815 1.704 -1.259 1.572 -1.68 1.347 -1.873 0.892 -1.891 0.345 -1.683 -0.198 -2.077 -0.858 -1.838 -1.596 -1.05 -1.531 -0.571 -1.63 -0.035 -1.452 0.522 -1.828 1.096 -1.664 1.701 -1.559 2.279 -1.3 0.348 -0.146 1.969 -0.284 -0.033 -0.033 0.603 0.558 -0.007 -0.035 0.278 0.769" />
    <path class="write-flat-pen" fill="#FFFFFF" stroke-width="1.6" __comx="429.597" __comy="221.432" __timestamp="0x178102b03dc" d="M427.221 239.578 l0.042 0.756 0.058 0.084 0.458 -0.152 0.197 -0.581 0.027 -0.322 -0.118 -3.4 -0.063 -0.726 -0.8 -5.698 -0.154 -0.858 -2.863 -11.036 -0.577 -3.621 0.025 -2.762 0.367 -1.704 0.79 -1.446 0.904 -0.812 1.445 -0.593 1.804 -0.238 1.983 0.225 2.176 0.733 2.449 1.719 0.146 0.17 0.504 0.847 0.15 0.292 0.961 1.989 0.153 -0.045 -0.261 -2.194 -0.051 -0.396 -0.374 -1.094 -0.276 -0.465 -2.68 -2.174 -2.551 -0.9 -2.34 -0.276 -2.194 0.286 -1.886 0.766 -1.306 1.174 -1.021 1.884 -0.437 2.084 0.004 3.05 0.66 3.809 3.027 11.017 0.163 0.789 1.012 5.617 0.092 0.675 0.339 3.328 0.014 0.239 0.024 0.566 0.458 -0.152 0.024 0.05 -0.231 -0.561" />
    <path class="write-flat-pen" fill="#FFFFFF" stroke-width="1.6" __comx="427.169" __comy="221.432" __timestamp="0x178102b04c5" d="M417.948 226.683 l1.484 -0.318 0.467 -0.051 13.284 -1.445 0.613 -0.089 0.597 -0.109 2.232 -0.394 -0.011 -0.185 -2.263 -0.12 -0.613 -0.035 -0.638 0.009 -13.33 1.293 -0.559 0.091 -1.496 0.552" />
    <path class="write-flat-pen" fill="#FFFFFF" stroke-width="1.6" __comx="441.326" __comy="221.432" __timestamp="0x178102b064c" d="M441.637 215.314 l-0.094 -0.674 -0.133 -0.176 -0.687 -0.146 -0.307 0.193 -1.025 1.316 -0.23 0.425 -1.186 3.379 -0.73 3.876 -0.237 4.038 0.426 3.049 0.826 2.382 1.022 1.496 2.564 1.63 0.558 0.14 0.504 0.074 0.566 -0.016 2.153 -0.066 0.015 -0.143 -2.091 -0.519 -0.494 -0.129 -0.395 -0.138 -0.358 -0.149 -2.14 -1.561 -0.774 -1.181 -0.726 -2.115 -0.392 -2.805 0.218 -3.838 0.658 -3.725 1.016 -3.262 0.137 -0.306 0.723 -1.257 -0.065 0.02 0.17 -0.104 -0.08 -0.113 0.283 0.502" />
    <path class="write-flat-pen" fill="#FFFFFF" stroke-width="1.6" __comx="452.872" __comy="221.432" __timestamp="0x178102b0861" d="M446.248 215.9 l-0.11 1.948 0.128 0.426 3.732 9.316 1.585 2.832 1.236 0.145 1.763 -3.559 0.677 -0.707 0.618 -0.181 0.798 0.221 0.822 0.766 0.588 1.16 0.258 1.496 -0.197 1.198 -0.584 1.056 -0.839 0.61 -1.094 0.203 -1.518 -0.487 -0.114 -0.065 -0.185 -0.145 -1.536 -1.264 -0.097 0.081 0.971 1.737 0.137 0.241 0.245 0.295 1.965 0.896 1.735 -0.294 1.301 -0.954 0.814 -1.497 0.255 -1.619 -0.337 -1.883 -0.78 -1.512 -1.199 -1.111 -1.416 -0.397 -1.268 0.366 -1.037 1.077 -1.468 2.94 0.261 0.029 -1.244 -2.212 -3.858 -9.14 -0.084 -0.226 -0.111 -1.784" />
    <path class="write-flat-pen" fill="#FFFFFF" stroke-width="1.6" __comx="462.469" __comy="221.432" __timestamp="0x178102b0978" d="M457.276 213.22 l2.403 1.957 0.347 0.354 2.331 2.893 2.112 3.537 1.262 2.965 0.572 2.362 0.211 3.049 -0.639 3.382 -0.141 0.482 -0.294 0.897 -0.717 2.136 0.1 0.048 1.225 -1.901 0.494 -0.847 0.245 -0.547 0.879 -3.565 -0.218 -3.312 -0.629 -2.549 -1.356 -3.114 -2.254 -3.63 -2.485 -2.926 -0.437 -0.416 -2.582 -1.819" />
    <path class="write-flat-pen" fill="#FFFFFF" stroke-width="1.6" __comx="491.249" __comy="221.432" __timestamp="0x178102b0e14" d="M485.447 224.587 l0.841 -0.469 0.235 -0.064 2.986 -0.48 5.204 -0.181 0.35 -0.019 2.266 -0.113 0.003 -0.044 -2.235 -0.395 -0.369 -0.064 -5.304 -0.041 -3.09 0.633 -0.367 0.149 -0.802 0.688" />
    <path class="write-flat-pen" fill="#FFFFFF" stroke-width="1.6" __comx="492.935" __comy="221.432" __timestamp="0x178102b0edd" d="M488.405 228.363 l0.797 -0.353 0.2 -0.014 5.532 -0.173 0.644 -0.064 2.224 -0.211 0.001 -0.161 -2.222 -0.232 -0.651 -0.07 -5.586 0.021 -0.43 0.059 -0.846 0.64" />
    <path class="write-flat-pen" fill="#FFFFFF" stroke-width="1.6" __comx="514.719" __comy="221.432" __timestamp="0x178102b11aa" d="M516.36 209.076 l-0.226 -0.803 -0.395 -0.059 -0.825 0.381 -0.279 0.261 -2.128 3.032 -0.336 0.612 -1.433 3.416 -0.875 3.518 -0.439 3.863 0.27 3.696 0.736 2.623 1.642 2.942 3.332 3.052 0.621 0.368 1.213 0.562 0.602 0.172 2.12 0.606 0.053 -0.127 -1.924 -1.077 -0.509 -0.29 -1.064 -0.673 -0.478 -0.343 -2.989 -2.999 -1.436 -2.674 -0.647 -2.362 -0.245 -3.449 0.415 -3.662 0.815 -3.349 1.331 -3.287 0.27 -0.516 1.863 -3.035 0.103 -0.14 0.4 -0.384 -0.24 -0.046 0.266 0.35" />
    <path class="write-flat-pen" fill="#FFFFFF" stroke-width="1.6" __comx="528.398" __comy="221.432" __timestamp="0x178102b153d" d="M523.399 217.882 l-0.228 -0.596 0.022 0.143 0.72 -0.6 0.109 -0.038 2.299 -0.556 1.798 -0.015 0.38 0.236 0.156 0.43 -0.228 0.93 -1.809 2.28 -0.286 1.158 0.676 1.032 4.399 3.126 1.339 1.337 0.322 0.734 -0.101 0.878 -0.779 1.049 -1.432 0.935 -1.983 0.629 -2.189 0.208 -1.517 -0.35 -0.771 -0.496 -0.468 -0.982 -0.031 -0.032 0.079 -0.376 0.464 -1.601 -0.082 -0.045 -1.11 1.272 -0.302 0.416 -0.14 0.439 0.545 1.737 1.293 0.879 1.954 0.455 2.539 -0.253 2.276 -0.742 1.755 -1.172 1.087 -1.511 0.157 -1.531 -0.551 -1.236 -1.571 -1.568 -4.296 -3.053 -0.268 -0.402 0.093 -0.399 1.774 -2.305 0.337 -1.526 -0.442 -1.099 -0.98 -0.574 -2.236 0.056 -2.475 0.711 -0.34 0.169 -0.875 1.106 0.031 0.318 0.511 0.622" />
    <path class="write-flat-pen" fill="#FFFFFF" stroke-width="1.6" __comx="542.695" __comy="221.432" __timestamp="0x178102b163b" d="M538.973 224.098 l1.929 -0.593 3.006 -0.32 0.545 -0.049 2.191 -0.187 0.001 -0.123 -2.186 -0.24 -0.574 -0.063 -3.15 0.171 -1.989 0.733" />
    <path class="write-flat-pen" fill="#FFFFFF" stroke-width="1.6" __comx="554.465" __comy="221.432" __timestamp="0x178102b186c" d="M551.079 219.092 l0.774 -0.551 0.145 -0.095 3.741 -2.944 0.287 -0.279 0 0 1.717 -1.672 0 0 -0.862 -0.508 -0.999 3.361 -0.495 3.957 0.045 4.582 1.204 4.311 1.479 1.849 0.09 -0.045 -0.558 -2.184 -0.965 -4.098 -0.077 -4.353 0.403 -3.797 0.869 -3.304 -0.862 -0.508 0 0 -1.691 1.698 0 0 -0.251 0.252 -3.548 3.081 -0.142 0.121 -0.657 0.729" />
    <path class="write-flat-pen" fill="#FFFFFF" stroke-width="1.6" __comx="559.252" __comy="221.432" __timestamp="0x178102b1960" d="M550.148 233.136 l15.709 -1.701 0.282 -0.037 2.312 -0.28 0.001 -0.08 -2.308 -0.313 -0.322 -0.042 -15.769 1.525" />
    <path class="write-flat-pen" fill="#FFFFFF" stroke-width="1.6" __comx="572.233" __comy="221.432" __timestamp="0x178102b1ac7" d="M566.173 208.998 l0.344 0.013 -0.016 0.018 1.338 1.181 0.351 0.329 3.241 3.307 2.307 2.979 2.089 3.634 0.981 2.919 0.351 2.906 -0.2 2.055 -0.82 2.519 -1.328 2.128 -0.373 0.445 -0.409 0.442 -0.376 0.386 -1.533 1.556 0.059 0.074 1.859 -1.146 0.478 -0.294 0.519 -0.394 0.517 -0.459 1.642 -2.209 0.991 -2.781 0.241 -2.335 -0.383 -3.174 -1.071 -3.159 -2.227 -3.798 -2.45 -3.07 -3.431 -3.259 -0.412 -0.341 -1.536 -1.075 -0.314 -0.143 -0.564 0.265" />
    <path class="write-flat-pen" fill="#FFFFFF" stroke-width="1.6" __comx="579.195" __comy="221.432" __timestamp="0x178102b1d0c" d="M573.069 198.633 l1.374 -1.872 0.107 -0.075 1.262 -0.548 0.963 -0.024 0.825 0.349 0.488 0.676 0.097 0.757 -0.317 1.038 -1.655 2.056 -0.194 1.246 1.289 0.808 5.871 -0.444 0.265 -0.035 2.286 -0.23 0.015 -0.194 -2.225 -0.571 -0.329 -0.08 -5.541 0.197 -0.227 -0.116 -0.012 -0.075 1.53 -2.019 0.402 -1.517 -0.238 -1.27 -0.89 -1.069 -1.299 -0.448 -1.325 0.119 -1.444 0.756 -0.252 0.214 -1.252 2.089" />
    <path class="write-flat-pen" fill="#FFFFFF" stroke-width="1.6" __comx="597.395" __comy="221.432" __timestamp="0x178102b2063" d="M600.095 207.501 l-0.565 -0.633 -0.291 -0.003 -1.263 0.689 -0.338 0.375 -1.349 2.339 -0.967 2.97 -0.586 4.212 -0.192 5.993 0.454 4.251 1.072 4.153 1.209 2.282 0.403 0.51 0.797 0.756 1.685 1.416 0.082 -0.077 -1.293 -1.766 -0.596 -0.856 -0.275 -0.457 -0.971 -2.184 -0.924 -3.983 -0.423 -4.09 0.159 -5.851 0.504 -4.064 0.839 -2.8 1.14 -2.229 0.166 -0.225 0.873 -0.704 -0.148 -0.007 0.514 0.307" />
    <path class="write-flat-pen" fill="#FFFFFF" stroke-width="1.6" __comx="610.328" __comy="221.432" __timestamp="0x178102b2310" d="M603.864 216.7 l-0.019 -0.757 0.008 0.027 0.635 -0.915 0.149 -0.147 1.936 -1.434 2.045 -0.978 1.836 -0.428 1.216 0.091 0.687 0.42 0.367 0.608 0.099 0.919 -0.458 1.442 -0.869 1.254 0 0 -2.13 1.44 0 0 0.152 1.2 3.349 1.209 1.719 1.079 0.871 0.993 0.6 1.395 0.049 1.308 -0.484 1.456 -0.99 1.29 -1.656 1.154 -2.028 0.732 -2.317 0.337 -2.26 -0.103 -1.428 -0.419 -0.218 -0.126 -0.039 0.181 -0.031 -0.073 0.02 -0.158 0.298 -1.22 -0.1 -0.06 -0.938 0.835 -0.182 0.178 -0.159 0.292 -0.047 0.427 0.621 0.885 1.966 0.622 2.566 0.117 2.583 -0.381 2.328 -0.84 1.982 -1.376 1.259 -1.647 0.625 -1.914 -0.076 -1.805 -0.788 -1.819 -1.142 -1.301 -2.009 -1.258 -3.478 -1.271 0.152 1.2 0 0 2.319 -1.606 0 0 1.103 -1.636 0.57 -1.901 -0.196 -1.462 -0.692 -1.08 -1.198 -0.703 -1.688 -0.105 -2.13 0.54 -2.228 1.151 -1.993 1.68 -0.24 0.299 -0.568 1.211 -0.014 0.206 0.245 0.816" />
    <path class="write-flat-pen" fill="#FFFFFF" stroke-width="1.6" __comx="624.585" __comy="221.432" __timestamp="0x178102b23d6" d="M620.98 221.406 l5.016 0.452 2.19 -0.124 0.004 -0.085 -2.151 -0.329 -4.974 -0.67" />
    <path class="write-flat-pen" fill="#FFFFFF" stroke-width="1.6" __comx="635.975" __comy="221.432" __timestamp="0x178102b2692" d="M627.357 215.589 l0.519 -1.009 0.088 -0.068 3.75 -1.645 0.546 -0.144 3.394 -0.504 2.498 0.052 1.221 0.433 0.514 0.535 0.168 0.71 -0.234 0.915 -0.726 1.054 -1.277 1.036 -2.38 1.053 0.111 1.185 3.006 0.715 2.048 0.943 1.376 1.066 1.125 1.451 0.603 1.597 0.026 1.602 -0.458 1.263 -1.252 1.6 -1.917 1.295 -2.394 0.864 -2.779 0.37 -2.685 -0.34 -1.772 -0.666 -0.727 -0.593 -0.2 -0.669 -0.075 0.065 0.2 -0.341 0.146 -0.183 1.091 -1.242 -0.051 -0.071 -1.526 0.636 -0.289 0.129 -0.488 0.362 -0.276 0.396 0.167 1.657 1.304 1.095 2.149 0.816 3.037 0.383 3.112 -0.426 2.697 -0.988 2.233 -1.532 1.497 -1.964 0.585 -1.708 -0.072 -2.067 -0.767 -1.973 -1.341 -1.724 -1.617 -1.254 -2.294 -1.055 -2.237 -0.538 0.06 0.637 1.694 -0.762 1.536 -1.274 0.936 -1.398 0.333 -1.428 -0.348 -1.303 -0.945 -0.935 -1.654 -0.554 -2.773 -0.018 -3.532 0.61 -0.675 0.201 -3.851 1.942 -0.263 0.292 -0.366 1.226" />
    <path class="write-flat-pen" fill="#FFFFFF" stroke-width="1.6" __comx="649.325" __comy="221.432" __timestamp="0x178102b27f9" d="M643.58 207.216 l1.255 1.327 0.419 0.388 3.51 3.135 0.55 0.546 1.903 2.292 1.568 2.887 0.708 2.473 0.333 3.572 -0.218 2.67 -0.877 3.412 -1.002 2.242 -2.268 3.092 -0.446 0.464 -0.87 0.824 -0.404 0.36 -1.643 1.451 0.049 0.07 1.92 -1.058 0.495 -0.273 1.026 -0.717 0.571 -0.483 2.573 -3.12 1.156 -2.439 0.953 -3.617 0.228 -2.889 -0.387 -3.793 -0.818 -2.696 -1.753 -3.057 -2.078 -2.35 -0.624 -0.579 -3.666 -2.991 -0.432 -0.348 -1.394 -1.158" />
    <path class="write-flat-pen" fill="#FFFFFF" stroke-width="1.6" __comx="659.201" __comy="221.432" __timestamp="0x178102b2a85" d="M660.14 206.821 l0.456 -0.554 0.031 -0.237 -0.244 -2.123 -0.106 -0.414 -0.842 -3.59 -0.211 -3.141 0.295 -2.264 0 0 0.558 -1.225 0 0 -1.003 -0.594 -3.955 5.174 -1.046 1.965 -0.239 1.589 0.702 1.185 1.511 0.475 4.957 -0.837 0.46 -0.108 0.886 -0.23 2.213 -0.605 -0.019 -0.151 -2.296 -0.047 -0.934 0.003 -0.481 0.044 -4.687 0.612 -0.766 -0.233 -0.232 -0.373 0.127 -0.934 0.875 -1.699 3.856 -5.122 -1.003 -0.594 0 0 -0.614 1.392 0 0 -0.283 2.554 0.303 3.332 0.988 3.656 0.118 0.373 0.434 1.96 0.013 0.006 -0.197 0.531" />
    <path class="write-flat-pen" fill="#FFFFFF" stroke-width="1.6" __comx="484.81" __comy="282.551" __timestamp="0x178102b2f37" d="M478.509 282.721 l-0.58 -0.15 0 0 -0.039 0.71 1.858 0.023 0.544 -0.005 8.474 -0.359 0.4 -0.042 0.36 -0.057 2.277 -0.355 -0.005 -0.109 -2.299 -0.155 -0.36 -0.026 -0.397 -0.016 -8.479 0.152 -0.552 0.026 -1.857 0.209 -0.039 0.71 0 0 0.598 0.039" />
    <path class="write-flat-pen" fill="#FFFFFF" stroke-width="1.6" __comx="488.104" __comy="286.614" __timestamp="0x178102b2ff7" d="M483.255 286.858 l-0.239 -0.311 -0.159 0.625 0.076 0.008 8.511 -0.416 2.165 -0.327 -0.005 -0.088 -2.183 -0.103 -8.554 0.2 -0.109 0.035 -0.159 0.625 0.367 0.14" />
    <path class="write-flat-pen" fill="#FFFFFF" stroke-width="1.6" __comx="524.581" __comy="277.289" __timestamp="0x178102b32a9" d="M527.102 275.419 l-0.403 -1.291 -0.224 -0.212 -1.615 -0.535 -0.46 0.042 -2.575 0.761 -2.817 1.525 -2.064 1.851 -1.257 1.944 -1.156 3.345 -0.484 3.774 0.23 2.912 0.892 2.742 1.465 2.221 1.788 1.572 2.285 0.949 1.807 0.211 2.852 -0.447 2.798 -1.247 2.456 -1.803 1.932 -2.14 1.341 -2.323 0.83 -2.413 0.392 -3.006 -0.291 -2.172 -0.83 -2.186 -1.779 -2.655 -1.844 -1.845 -1.731 -0.853 -2.15 0.394 -0.35 0.242 -0.157 0.171 -1.34 1.519 0.129 0.185 1.889 -0.732 0.161 -0.051 0.107 -0.012 1.44 -0.085 1.056 0.537 1.551 1.55 1.595 2.372 0.709 1.845 0.258 1.787 -0.31 2.653 -0.711 2.135 -1.175 2.068 -1.715 1.922 -2.201 1.634 -2.475 1.122 -2.47 0.405 -1.421 -0.156 -1.899 -0.771 -1.488 -1.287 -1.274 -1.906 -0.8 -2.412 -0.221 -2.615 0.436 -3.504 1.052 -3.071 1.071 -1.67 1.818 -1.643 2.562 -1.434 2.321 -0.815 0.146 -0.031 1.272 0.216 -0.065 -0.072 0.533 1.024" />
    <path class="write-flat-pen" fill="#8F3AC9" stroke-width="1.6" __comx="621.207" __comy="242.328" __timestamp="0x178102b38f4" d="M590.127 242.873 l-0.454 -0.142 0 0 -0.038 0.519 1.135 0.037 0.687 0.025 11.465 0.159 1.889 -0.015 42.093 -1.048 1.428 -0.093 1.352 -0.111 1.226 -0.178 1.939 -0.276 -0.015 -0.188 -1.959 0.025 -1.228 0.011 -1.344 -0.003 -1.424 0.011 -42.087 0.819 -1.875 0.028 -11.459 0.068 -0.713 0.021 -1.146 0.184 -0.038 0.519 0 0 0.472 0.055" />
    <path class="write-flat-pen" fill="#8F3AC9" stroke-width="1.6" __comx="635.376" __comy="248.751" __timestamp="0x178102b3bb7" d="M636.452 248.524 l-1.757 -0.168 -0.249 0.052 -1.263 0.608 -0.838 1.057 -0.207 1.309 0.432 1.065 1.022 0.802 1.491 0.236 1.444 -0.399 1.297 -1.017 0.79 -1.42 -0.002 -1.354 -1.28 -1.284 -0.218 -0.07 -1.786 -0.43 -0.046 0.101 1.493 1.071 0.029 0.043 0.73 0.973 -0.022 0.658 -0.546 0.983 -0.945 0.756 -1.008 0.293 -1.001 -0.134 -0.615 -0.449 -0.255 -0.557 0.083 -0.816 0.52 -0.762 0.961 -0.576 0.062 -0.023 1.668 -0.06" />
    <path class="write-flat-pen" fill="#8F3AC9" stroke-width="1.6" __comx="209.686" __comy="241.592" __timestamp="0x178102b442e" d="M165.354 242.506 l-1.126 0.222 -0.165 0.051 0 0 -0.619 0.304 0 0 0.033 0.706 0.748 0.414 17.118 -1.881 6.629 -0.297 25.771 0.476 11.102 -0.233 21.902 -1.412 1.364 -0.013 4.748 0.63 0.554 0.189 0.527 0.212 1.937 0.788 0.05 -0.1 -1.784 -1.09 -0.506 -0.309 -0.619 -0.276 -4.843 -0.857 -1.452 -0.02 -21.92 1.207 -11.061 0.223 -25.785 -0.5 -6.701 0.308 -16.88 2.009 -0.566 -0.192 0.033 0.706 0 0 0.515 -0.356 0 0 0.082 -0.038 1.045 -0.43" />
    <path class="write-flat-pen" fill="#8F3AC9" stroke-width="1.6" __comx="167.098" __comy="251.075" __timestamp="0x178102b47af" d="M166.557 250.997 l-0.528 -0.566 -0.256 -0.101 -0.789 0.426 -0.125 0.259 -0.219 1.341 0.46 1.213 0.971 0.71 1.283 0.028 1.15 -0.618 0.915 -1.245 0.134 -1.171 -0.69 -0.73 -1.054 0.307 -0.03 0.236 0.505 0.508 -0.029 0.069 -0.029 0.325 -0.54 0.781 -0.63 0.366 -0.624 0.016 -0.452 -0.286 -0.316 -0.655 0.029 -0.971 -0.039 0.063 0.22 -0.292 -0.129 -0.058 0.586 0.328" />
    <path class="write-flat-pen" fill="#FFFFFF" stroke-width="1.6" __comx="764.889" __comy="46.884" __timestamp="0x178102bb223" d="M755.633 41.862 l-0.101 -2.087 0.012 -0.192 0.698 -2.646 -0.123 0.123 0.159 0.062 0.515 1.637 0.248 5.657 -0.52 5.616 0 0 -0.546 1.593 0 0 0.929 -0.219 -0.364 -0.379 -0.493 -3.323 0.496 -11.651 0.337 -0.667 1.256 -0.586 13.932 -1.367 0.008 -0.009 0.209 0.003 2.597 0.093 0.016 -0.079 -2.431 -0.916 -0.236 -0.086 -0.15 -0.027 -14.288 1.136 -1.845 0.906 -0.602 1.3 -0.465 12.012 0.586 3.8 0.644 0.63 0.929 -0.219 0 0 0.557 -1.724 0 0 0.489 -5.819 -0.338 -5.861 -0.824 -2.249 -1.067 -0.091 -0.318 0.3 -0.501 2.996 0.013 0.272 0.362 2.085" />
    <path class="write-flat-pen" fill="#FFFFFF" stroke-width="1.6" __comx="764.086" __comy="46.884" __timestamp="0x178102bb340" d="M757.713 42.523 l2.301 0.429 0.319 0.073 3.527 0.364 3.843 -0.395 2.758 -0.598 -0.007 -0.076 -2.813 -0.1 -3.769 0.145 -3.398 -0.277 -0.305 -0.056 -2.37 -0.169" />
    <path class="write-flat-pen" fill="#FFFFFF" stroke-width="1.6" __comx="764.569" __comy="46.884" __timestamp="0x178102bb447" d="M756.537 50.803 l2.138 0.756 0.533 0.098 5.25 0.561 5.631 -0.503 2.511 -1.055 -0.023 -0.082 -2.622 0.352 -5.483 0.254 -5.146 -0.443 -0.454 -0.062 -2.161 -0.483" />
    <path class="write-flat-pen" fill="#FFFFFF" stroke-width="1.6" __comx="780.062" __comy="46.884" __timestamp="0x178102bb58a" d="M775.496 43.436 l-0.722 -0.163 0.807 2.527 0.19 0.459 1.939 3.772 1.577 1.896 1.294 0.655 1.513 -0.132 1.233 -0.99 1.062 -2.003 0.963 -6.157 -0.382 -2.067 -0.079 -0.003 -0.524 1.968 -1.111 5.871 -0.863 1.621 -0.763 0.626 -0.834 0.094 -0.805 -0.383 -1.385 -1.602 -1.953 -3.59 -0.181 -0.396 -1.049 -2.41 -0.609 0.52" />
    <path class="write-flat-pen" fill="#FFFFFF" stroke-width="1.6" __comx="791.44" __comy="46.884" __timestamp="0x178102bb674" d="M789.899 44.517 l0.96 4.232 0.109 0.415 0.93 2.91 0.991 0.815 0.093 -0.067 -0.39 -1.089 -0.754 -2.817 -0.116 -0.399 -1.224 -4.157" />
    <path class="write-flat-pen" fill="#FFFFFF" stroke-width="1.6" __comx="795.374" __comy="46.884" __timestamp="0x178102bb70c" d="M794.736 35.21 l0.565 3.643 0.642 2.36 0.068 -0.013 -0.242 -2.425 -0.52 -3.642" />
    <path class="write-flat-pen" fill="#FFFFFF" stroke-width="1.6" __comx="811.33" __comy="46.884" __timestamp="0x178102bb9c0" d="M811.044 33.197 l0.137 -0.62 0 0 -0.782 -0.068 -0.383 6.348 -0.02 0.688 0.13 4.419 0.544 2.116 1.094 1.013 1.137 -0.921 -0.185 -1.497 -1.21 -1.131 -2.082 -0.632 -2.436 0.091 -2.18 0.812 -2.126 1.576 -1.154 1.779 -0.298 1.745 0.616 1.916 1.528 1.494 2.429 0.832 2.251 -0.029 3.038 -0.833 2.803 -1.519 3.228 -2.546 1.373 -1.862 0.745 -2.091 -0.197 -1.567 -0.81 -1.08 -1.349 -0.401 -1.183 0.54 -1.029 1.771 -0.262 1.864 0.512 2.159 1.093 1.497 1.381 0.633 1.894 -0.672 0.296 -0.285 0.612 -0.834 0.174 -0.331 1.058 -2.046 -0.036 -0.025 -1.534 1.719 -0.219 0.24 -0.702 0.6 -0.126 0.067 -1.313 0.262 -0.651 -0.335 -0.75 -1.035 -0.408 -1.679 0.184 -1.388 0.696 -1.223 0.401 -0.182 0.507 0.156 0.356 0.489 0.107 0.939 -0.597 1.621 -1.175 1.555 -3.011 2.358 -2.569 1.397 -2.727 0.763 -1.861 0.038 -1.954 -0.647 -1.122 -1.062 -0.457 -1.333 0.187 -1.214 0.888 -1.407 1.819 -1.356 1.852 -0.682 2.052 -0.067 1.624 0.509 0.687 0.654 0.055 0.412 0.173 -0.133 -0.103 -0.079 -0.452 -1.657 -0.185 -4.262 0.007 -0.649 0.111 -6.348 -0.782 -0.068 0 0 -0.032 0.634" />
    <path class="write-flat-pen" fill="#FFFFFF" stroke-width="1.6" __comx="827.802" __comy="46.884" __timestamp="0x178102bbb2b" d="M823.461 43.808 l-0.177 1.287 -0.011 0.203 -0.119 2.391 0 0 -0.021 0.37 0 0 -0.276 4.33 0 0 1.057 0.117 0.875 -4.535 1.097 -3.218 0.87 -1.343 1.085 -0.831 0.865 -0.137 0.84 0.358 1.005 1.108 0.726 1.752 0.247 1.992 -0.213 1.114 -0.554 1.577 0.06 0.042 1.378 -1.192 0.55 -1.437 -0.286 -2.408 -0.872 -2.099 -1.329 -1.455 -1.404 -0.592 -1.504 0.249 -1.475 1.156 -1.035 1.646 -1.142 3.435 -0.833 4.623 1.057 0.117 0 0 0.038 -4.346 0 0 -0.008 -0.388 0 0 -0.15 -2.403 -0.02 -0.192 -0.082 -1.282" />
    <path class="write-flat-pen" fill="#FFFFFF" stroke-width="1.6" __comx="839.465" __comy="46.884" __timestamp="0x178102bbc7c" d="M839.778 43.439 l0.794 -1.289 0.078 -0.206 0.132 -0.935 -0.725 -1.036 -1.406 -0.511 -1.709 0.13 -1.549 0.822 -1.245 1.549 -0.595 2.082 0.302 2.265 0.978 2.036 1.425 1.405 1.659 0.77 2.454 0.197 3.001 -1.333 0.332 -0.344 0.397 -0.581 1.277 -2.089 -0.01 -0.008 -1.746 1.697 -0.477 0.425 -0.231 0.151 -2.713 0.927 -1.98 -0.18 -1.288 -0.602 -1.141 -1.119 -0.824 -1.686 -0.267 -1.852 0.446 -1.652 0.95 -1.218 1.153 -0.629 1.272 -0.12 0.93 0.297 0.393 0.468 -0.011 0.5 -0.014 0.068 -0.531 1.356" />
    <path class="write-flat-pen" fill="#FFFFFF" stroke-width="1.6" __comx="851.512" __comy="46.884" __timestamp="0x178102bbe23" d="M846.337 43.712 l0.979 0.961 0.219 0.126 1.661 0.526 1.831 -0.197 1.2 -0.853 0.565 -1.32 -0.674 -1.26 -1.276 -0.569 -1.918 0.099 -1.859 1.129 -1.402 1.951 -0.754 2.078 -0.105 2.143 0.505 1.891 1.058 1.522 2.019 1.121 1.913 0.278 2.534 -0.463 3.061 -1.869 0.39 -0.39 0.808 -1.203 1.128 -2.305 -0.033 -0.021 -1.593 1.967 -0.946 0.958 -0.303 0.234 -2.908 1.52 -2.153 0.336 -1.5 -0.225 -1.585 -0.868 -0.797 -1.11 -0.432 -1.507 0.062 -1.79 0.624 -1.778 1.168 -1.652 1.429 -0.874 1.382 -0.07 0.696 0.312 0.255 0.472 -0.23 0.577 -0.724 0.558 -1.373 0.226 -1.435 -0.317 -0.087 -0.033 -1.094 -0.696" />
    <path class="write-flat-pen" fill="#FFFFFF" stroke-width="1.6" __comx="790.953" __comy="46.884" __timestamp="0x178102bbf7c" d="M742.901 64.356 l-0.301 -0.012 -0.317 -0.04 0 0 0.012 0.656 5.63 -0.342 59.862 -0.019 22.138 -1.144 2.759 -0.123 2.575 -0.083 2.485 -0.13 1.916 -0.099 -0.001 -0.07 -1.918 -0.04 -2.487 -0.053 -2.578 -0.033 -2.772 0.009 -22.136 0.917 -59.872 0.059 -5.649 0.496 0.012 0.656 0 0 0.319 -0.015 0.301 0.012" />
    <path class="write-flat-pen" fill="#FFFFFF" stroke-width="1.6" __comx="811.119" __comy="125.734" __timestamp="0x178102bd16c" d="M809.549 109.664 l-0.589 -0.066 0.201 0.734 0.084 0.333 1.038 4.149 0.186 0.919 0.649 4.583 0.529 12.21 -0.013 13.176 -0.87 14.945 -0.288 15.223 1.794 25.123 0.068 0.878 0.124 3.351 -0.026 0.734 -0.22 2.004 -0.103 0.589 -0.38 2.13 0.056 0.015 0.714 -2.042 0.205 -0.587 0.433 -2.025 0.087 -0.793 0.053 -3.407 -0.032 -0.907 -1.582 -25.091 0.28 -15.148 0.874 -14.955 0.004 -13.237 -0.603 -12.291 -0.748 -4.659 -0.225 -0.973 -1.254 -4.132 -0.136 -0.368 -0.399 -0.689 -0.419 0.446" />
    <path class="write-flat-pen" fill="#FFFFFF" stroke-width="1.6" __comx="836.911" __comy="159.802" __timestamp="0x178102bd513" d="M744.475 163.434 l1.334 0.111 0.301 0.033 10.016 0.05 0.908 -0.046 18.18 -1.005 31.881 -0.375 32.778 -1.774 16.486 -0.477 30.937 -0.109 24.983 -1.215 1.796 -0.186 5.277 -0.61 1.702 -0.22 3.291 -0.478 1.64 -0.243 1.594 -0.282 1.768 -0.311 -0.007 -0.057 -1.79 0.141 -1.611 0.126 -1.65 0.133 -3.312 0.261 -1.705 0.137 -5.289 0.424 -1.773 0.138 -24.943 1.02 -30.928 0.103 -16.517 0.501 -32.764 1.882 -31.879 0.467 -18.195 1.112 -0.885 0.052 -9.966 0.177 -0.299 -0.011 -1.358 0.108" />
    <path class="write-flat-pen" fill="#8F3AC9" stroke-width="1.6" __comx="850.165" __comy="110.115" __timestamp="0x178102beed6" d="M803.637 99.918 l0.306 0.156 -0.046 -0.023 0.215 0.427 0.008 0.045 0.271 0.977 0.019 0.112 0.474 2.33 0.031 0.148 2.271 10.121 0.051 0.26 2.182 10.706 1.265 4.378 10.561 25.007 3.876 7.642 3.081 5.171 4.663 5.988 2.138 2.168 2.492 1.745 3.149 1.481 3.049 0.896 2.963 0.295 3.284 -0.263 3.734 -0.83 4.547 -1.759 3.864 -2.051 2.701 -1.918 3.299 -3.048 2.63 -3.148 2.552 -3.939 2.272 -4.472 2.279 -5.659 3.554 -12.662 3.974 -12.388 7.484 -19.043 3.108 -6.733 0.756 -3.096 -0.002 -0.283 -0.074 -0.697 -0.045 -0.31 -0.059 -0.348 -0.388 -2.339 -0.059 -0.001 -0.462 2.325 -0.07 0.345 -0.056 0.297 -0.122 0.658 -0.03 0.116 -0.896 2.776 -3.074 6.66 -7.52 19.134 -3.997 12.465 -3.536 12.607 -2.21 5.518 -2.199 4.338 -2.451 3.793 -2.495 3.004 -3.151 2.909 -2.536 1.801 -3.692 1.96 -4.351 1.679 -3.513 0.777 -3.035 0.241 -2.677 -0.264 -2.793 -0.816 -2.917 -1.373 -2.266 -1.586 -1.977 -1.999 -4.558 -5.831 -3.012 -5.038 -3.832 -7.545 -10.542 -24.861 -1.235 -4.235 -2.266 -10.626 -0.057 -0.277 -2.502 -10.09 -0.042 -0.155 -0.7 -2.287 -0.055 -0.164 -0.515 -0.979 -0.082 -0.121 -0.456 -0.38 -0.089 -0.054 -0.436 0.052" />
    <path class="write-flat-pen" fill="#D534A9" stroke-width="1.6" __comx="826.359" __comy="159.288" __timestamp="0x178102bfaee" d="M820.343 165.926 l-0.113 -0.197 0.017 -0.007 0.038 -0.13 0.032 -0.054 0.113 -0.209 0.083 -0.127 0.234 -0.341 0.161 -0.212 0.449 -0.554 0.277 -0.323 1.012 -1.151 0.383 -0.419 8.985 -9.758 0.038 -0.049 0.128 -0.164 0.725 -0.952 -0.078 -0.113 -1.156 0.356 -0.229 0.102 -0.125 0.088 -9.123 9.739 -0.386 0.464 -0.945 1.248 -0.261 0.382 -0.389 0.654 -0.141 0.286 -0.165 0.436 -0.057 0.204 -0.038 0.305 0.002 0.153 0.072 0.224 0.056 0.1 0.233 0.177" />
    <path class="write-flat-pen" fill="#D534A9" stroke-width="1.6" __comx="825.879" __comy="159.288" __timestamp="0x178102bfc19" d="M822.38 154.451 l-0.63 0.028 -0.166 0.232 -0.093 0.449 0.014 0.188 0.098 0.494 0.098 0.261 0.409 0.755 0.233 0.322 1.232 1.386 0.363 0.372 2.367 2.443 1.44 1.702 0.31 0.372 0.301 0.36 0.304 0.346 0.301 0.308 0.316 0.272 0.853 0.763 0.139 -0.099 -0.445 -1.054 -0.156 -0.389 -0.198 -0.383 -0.23 -0.399 -0.255 -0.409 -0.292 -0.43 -1.435 -1.811 -2.433 -2.471 -0.368 -0.352 -1.266 -1.258 -0.191 -0.214 -0.429 -0.592 -0.076 -0.127 -0.148 -0.352 -0.018 -0.03 -0.04 -0.174 -0.129 0.177 0.301 -0.096" />
    <path class="write-flat-pen" fill="#D534A9" stroke-width="1.6" __comx="873.079" __comy="159.288" __timestamp="0x178102bfe90" d="M868.525 154.093 l0.038 -0.294 -0.485 0.223 0 0.03 0.06 0.129 0.069 0.11 0.244 0.333 0.167 0.219 0.474 0.601 0.299 0.364 1.468 1.693 0.411 0.482 5.648 6.348 0.081 0.067 0.102 0.07 0.999 0.657 0.083 -0.061 -0.34 -1.163 -0.076 -0.154 -0.075 -0.106 -5.555 -6.417 -0.429 -0.479 -1.547 -1.629 -0.322 -0.335 -0.539 -0.547 -0.208 -0.198 -0.317 -0.272 -0.11 -0.084 -0.155 -0.093 -0.053 -0.015 -0.485 0.223 0.034 0.295" />
    <path class="write-flat-pen" fill="#D534A9" stroke-width="1.6" __comx="873.204" __comy="159.288" __timestamp="0x178102bff78" d="M870.524 163.476 l-0.136 -0.536 0.016 0.075 0.131 -0.294 0.055 -0.077 1.294 -1.592 0.313 -0.347 3.344 -3.684 0.316 -0.42 0.28 -0.426 0.244 -0.441 0.553 -0.963 -0.119 -0.105 -0.883 0.673 -0.406 0.3 -0.379 0.33 -0.375 0.346 -3.434 3.611 -0.34 0.394 -1.286 1.756 -0.127 0.266 -0.109 0.58 0.024 0.201 0.268 0.618" />
    <path class="write-flat-pen" fill="#D534A9" stroke-width="1.6" __comx="833.077" __comy="136.896" __timestamp="0x178102c14f5" d="M830.897 138.046 l-0.17 -0.003 0.007 0.051 0.02 0.021 0.08 0.054 0.067 0.023 0.168 0.031 0.122 0.004 0.26 -0.032 0.16 -0.04 0.485 -0.177 0.203 -0.098 0.791 -0.466 0 0 0.241 -0.174 0 0 1.914 -1.839 0 0 -0.902 -0.601 -0.418 1.01 -0.239 1.654 0.101 1.954 0.619 2.764 0.059 0.103 0.095 0.092 0.893 0.571 0.09 -0.058 -0.134 -1.038 -0.009 -0.081 0.033 0.053 -0.482 -2.559 -0.113 -1.756 0.179 -1.408 0.35 -0.886 -0.902 -0.601 0 0 -1.809 1.854 0 0 -0.15 0.128 0 0 -0.682 0.51 -0.135 0.094 -0.384 0.24 -0.087 0.053 -0.163 0.09 -0.047 0.027 -0.099 0.049 -0.016 0.016 -0.061 0.033 -0.016 0.013 -0.033 0.043 -0.17 0.282" />
    <path class="write-flat-pen" fill="#D534A9" stroke-width="1.6" __comx="837.591" __comy="142.768" __timestamp="0x178102c15fc" d="M831.537 143.429 l0.294 0.309 0.123 0.059 0.205 0.08 0.182 0.045 0.718 0.095 0.327 0.017 1.54 -0.096 5.394 -0.984 0.518 -0.115 0.495 -0.116 0.487 -0.124 0.491 -0.111 0.479 -0.149 0.855 -0.259 -0.012 -0.087 -0.893 -0.014 -0.495 -0.012 -0.509 0.004 -0.517 0.031 -0.511 0.048 -0.53 0.059 -5.377 0.827 -1.445 0.145 -0.256 0.006 -0.669 -0.002 -0.124 0 -0.144 0.001 0.041 0.03 -0.236 -0.166" />
    <path class="write-flat-pen" fill="#D534A9" stroke-width="1.6" __comx="889.326" __comy="142.319" __timestamp="0x178102c1a2a" d="M888.68 142.779 l-0.431 -0.194 -0.019 -0.018 -0.186 -0.149 0.043 0.027 -0.056 -0.161 0.025 0.069 0.078 -0.245 0.005 0.015 0.521 -0.514 0.075 -0.043 0.698 -0.276 0.814 -0.099 0.469 0.094 0.486 0.29 0.189 0.273 0.087 0.38 -0.049 0.419 -0.191 0.417 -0.816 0.637 0 0 0.262 1.106 1.582 0.319 0.503 0.244 0.266 0.31 0.086 0.279 -0.067 0.389 -0.192 0.299 -0.387 0.31 -0.575 0.241 -0.992 0.165 -0.844 -0.075 -1.024 -0.319 -1.17 -0.61 -0.382 -0.249 -0.382 -0.278 -0.351 -0.283 -0.325 -0.293 -0.297 -0.286 -0.287 -0.288 -0.28 -0.283 -0.267 -0.281 -0.286 -0.293 -0.649 -0.694 -0.11 0.066 0.307 0.899 0.135 0.409 0.189 0.386 0.223 0.376 0.252 0.366 0.28 0.36 0.325 0.375 0.365 0.369 0.405 0.36 0.444 0.348 1.315 0.781 1.295 0.427 1.178 0.104 1.332 -0.239 0.899 -0.408 0.69 -0.607 0.406 -0.735 0.103 -0.935 -0.272 -0.78 -0.598 -0.676 -0.861 -0.419 -1.723 -0.38 0.262 1.106 0 0 1.046 -0.851 0.362 -0.893 0.055 -0.813 -0.213 -0.777 -0.462 -0.639 -0.867 -0.51 -0.847 -0.163 -1.147 0.163 -0.921 0.415 -0.263 0.19 -0.633 0.788 -0.1 0.251 -0.033 0.535 0.057 0.227 0.274 0.35 0.115 0.086 0.323 0.122 0.076 0.021 0.479 0.11" />
    <path class="write-flat-pen" fill="#8F3AC9" stroke-width="1.6" __comx="896.259" __comy="99.417" __timestamp="0x178102c1f9e" d="M897.279 101.766 l0.266 -0.45 0.059 -0.099 0.148 -0.32 0.032 -0.101 0.072 -0.414 -0.008 -0.143 -0.09 -0.415 -0.065 -0.143 -0.241 -0.37 -0.109 -0.103 -0.511 -0.316 -0.261 -0.076 -1.472 0.145 -0.284 0.108 -1.607 0.871 0 0 -1.416 1.039 0 0 -2.396 2.357 0 0 0.9 0.789 4.604 -5.931 1.239 -1.391 -0.29 0.145 -0.24 -0.274 0.42 2.449 0.134 0.471 0.698 1.828 0.918 1.698 0.854 1.064 1.354 0.881 0.484 0.16 0.437 0.083 0.442 0.03 0.443 -0.035 0.426 -0.093 0.946 -0.199 0.01 -0.122 -0.901 -0.351 -0.373 -0.159 -0.347 -0.155 -0.339 -0.137 -0.309 -0.132 -0.252 -0.132 -0.986 -0.743 -0.627 -0.8 -0.836 -1.494 -0.696 -1.664 -0.111 -0.338 -0.568 -2.696 -0.642 -0.749 -0.847 0.415 -1.415 1.637 -4.58 6 0.9 0.789 0 0 2.295 -2.344 0 0 1.267 -0.982 0 0 1.455 -0.847 0.097 -0.042 1.155 -0.2 -0.011 -0.012 0.373 0.141 -0.012 -0.02 0.22 0.206 0.022 0.019 0.134 0.274 0.014 0.026 0.027 0.324 0 0.044 -0.051 0.3 -0.024 0.083 -0.192 0.481" />
    <path class="write-flat-pen" fill="#8F3AC9" stroke-width="1.6" __comx="806.523" __comy="101" __timestamp="0x178102c23ac" d="M803.263 101.596 l0.225 -0.66 -0.032 0.07 -0.017 0.071 -0.327 -0.186 -0.023 0.056 -0.013 0.04 -0.264 0.933 -0.108 0.307 -1.337 3.403 -0.196 0.418 -1.693 3.367 0 0 -0.341 0.429 0 0 0.998 0.524 0.366 -1.194 2.489 -5.564 1.465 -2.834 0 0 1.543 -2.467 -1.024 0.045 0.068 0.115 0.465 2.556 0.146 0.524 0.587 1.535 0.88 1.404 0.803 0.809 1.578 0.786 0.682 0.123 0.691 0.045 0.752 -0.056 0.768 -0.17 0.826 -0.321 0.793 -0.29 -0.035 -0.202 -0.844 -0.003 -0.852 -0.027 -0.701 -0.034 -0.631 -0.063 -0.553 -0.109 -0.441 -0.128 -1.196 -0.675 -0.537 -0.556 -0.731 -1.164 -0.538 -1.345 -0.123 -0.407 -0.603 -2.76 -0.259 -0.326 -1.024 0.045 -1.531 2.528 0 0 -1.492 2.91 -2.5 5.674 -0.383 1.263 0.998 0.524 0 0 0.415 -0.523 0 0 1.748 -3.489 0.22 -0.472 1.269 -3.505 0.109 -0.38 0.203 -1.103 -0.018 -0.282 -0.183 -0.451 -0.398 -0.229 -0.487 0.41 -0.074 0.149 -0.156 0.761" />
    <path class="write-flat-pen" fill="#FFFFFF" stroke-width="1.6" __comx="109.297" __comy="376.831" __timestamp="0x178102cdd4b" d="M112.211 365.808 l1.233 -3.83 -0.015 -0.355 -0.475 -1.353 -1.418 -0.86 -1.91 0.153 -3.423 1.672 -2.696 2.201 -1.14 1.773 0.162 1.673 1.44 1.188 6.385 2.125 2.789 1.48 2.481 2.166 1.473 2.214 0.758 2.346 -0.012 2.442 -0.869 2.54 -1.943 2.335 -2.922 1.698 -2.756 0.693 -2.917 0.04 -3.03 -0.818 -1.665 -1.181 -0.859 -1.354 -0.088 -1.01 1.313 -1.394 0.267 -0.113 0.928 -0.251 2.757 -0.673 -0.013 -0.107 -2.849 0.017 -1.026 0.051 -0.589 0.119 -2.163 1.787 0.068 2.013 1.185 1.924 2.111 1.5 3.476 0.93 3.285 -0.052 3.111 -0.792 3.301 -1.943 2.238 -2.744 0.984 -2.999 -0.017 -2.866 -0.889 -2.708 -1.674 -2.499 -2.726 -2.369 -3.012 -1.601 -6.262 -2.082 -0.849 -0.701 -0.07 -0.709 0.788 -1.238 2.414 -2.01 3.075 -1.577 1.347 -0.173 0.872 0.427 0.415 0.864 0.018 0.079 -0.867 3.781" />
    <path class="write-flat-pen" fill="#FFFFFF" stroke-width="1.6" __comx="127.315" __comy="376.831" __timestamp="0x178102cdee5" d="M125.578 378.968 l-1.18 -1.396 -0.327 -0.112 -1.626 0.233 -1.307 1.573 -0.552 2.596 0.496 3.053 1.211 2.258 1.762 1.553 1.874 0.682 2.089 -0.093 2.134 -0.921 2.116 -1.941 1.295 -2.397 0.48 -2.934 -0.534 -2.13 -1.332 -1.707 -1.67 -0.852 -1.632 0.347 -0.621 2.057 0.133 0.553 0.615 2.296 0.122 -0.014 0.064 -2.376 0.028 -0.336 0.588 -1.064 0.498 -0.055 0.985 0.519 0.976 1.243 0.406 1.579 -0.386 2.44 -1.073 2.009 -1.781 1.651 -1.71 0.751 -1.599 0.09 -1.419 -0.499 -1.435 -1.233 -1.044 -1.875 -0.501 -2.645 0.37 -2.171 0.857 -1.183 1.083 -0.285 -0.013 -0.016 1.293 1.027" />
    <path class="write-flat-pen" fill="#FFFFFF" stroke-width="1.6" __comx="276.641" __comy="376.831" __timestamp="0x178102cebcf" d="M267.787 357.432 l-0.828 0.841 0.155 3.262 6.588 21.115 1.102 2.169 0 0 0.853 0.24 0.763 -0.446 0.582 -6.593 0.639 -2.051 0.916 -1.131 1.215 -0.506 1.249 0.137 1.787 1.034 1.399 1.734 0.807 2.313 -0.008 2.274 -0.561 1.488 -1.155 1.222 -2.026 0.84 -2.374 -0.05 -1.66 -0.617 -1.108 -1.004 -0.061 -0.764 0.023 -0.092 0.254 -0.267 1.531 -1.54 -0.053 -0.076 -1.962 0.929 -0.4 0.195 -0.428 0.345 -0.342 1.803 1.785 1.704 2.156 0.795 2.911 0.043 2.56 -1.092 1.521 -1.655 0.709 -1.975 -0.032 -2.727 -0.967 -2.715 -1.68 -2.085 -2.217 -1.292 -1.842 -0.207 -1.82 0.753 -1.273 1.576 -0.746 2.418 -0.507 6.103 -0.21 0.14 0.853 0.24 0 0 -1.095 -2.059 -6.79 -20.831 -0.248 -2.842 0.467 -0.743" />
    <path class="write-flat-pen" fill="#FFFFFF" stroke-width="1.6" __comx="297.958" __comy="376.831" __timestamp="0x178102ced94" d="M289.572 374.971 l-1.114 -0.134 -0.134 0.502 0.042 2.524 1.206 3.794 1.273 1.804 1.501 0.798 1.823 -0.194 1.826 -1.442 1.834 -2.792 0 0 1.38 -3.833 0 0 0.038 -1.637 0 0 -1.222 0.011 0.076 1.989 1.135 3.276 1.8 2.773 3.558 2.032 0.491 -0.088 2.506 -0.583 -0.002 -0.03 -2.56 -0.259 -0.185 -0.045 -2.904 -1.953 -1.57 -2.403 -1.045 -2.952 -0.081 -1.804 -1.222 0.011 0 0 -0.034 1.439 0 0 -1.259 3.513 0 0 -1.643 2.511 -1.396 1.112 -1.116 0.13 -0.94 -0.484 -1.038 -1.42 -1.225 -3.463 -0.23 -2.257 -0.061 0.196 0.501 -0.173" />
    <path class="write-flat-pen" fill="#FFFFFF" stroke-width="1.6" __comx="313.728" __comy="376.831" __timestamp="0x178102cee72" d="M309.659 362.144 l1.45 4.684 0.317 1.038 5.185 15.626 1.138 1.29 0.048 -0.027 -0.48 -1.573 -4.98 -15.61 -0.349 -1.038 -1.781 -4.581" />
    <path class="write-flat-pen" fill="#FFFFFF" stroke-width="1.6" __comx="318.352" __comy="376.831" __timestamp="0x178102cef44" d="M307.069 371.16 l1.914 -0.094 0.37 0.033 8.826 1.663 7.761 0.516 0.243 -0.01 0.086 -0.006 3.449 -0.235 0.001 -0.025 -3.413 -0.549 -0.085 -0.014 -0.223 -0.032 -7.664 -0.825 -8.876 -1.477 -0.525 0 -1.95 0.449" />
    <path class="write-flat-pen" fill="#FFFFFF" stroke-width="1.6" __comx="301.49" __comy="376.831" __timestamp="0x178102cf05a" d="M274.615 391.915 l5.36 -0.761 1.483 -0.045 9.311 0.123 21.268 1.39 10.495 1.364 1.498 0.242 1.38 0.199 3.04 0.443 0.023 -0.112 -2.964 -0.808 -1.347 -0.369 -1.498 -0.362 -10.517 -1.656 -21.338 -1.403 -9.365 -0.056 -1.573 0.07 -5.366 1.116" />
    <path class="write-flat-pen" fill="#FFFFFF" stroke-width="1.6" __comx="182.891" __comy="378.402" __timestamp="0x178102cf949" d="M186.879 375.306 l0.592 -1.699 -0.03 -0.403 -0.653 -1.855 -1.333 -1.318 -2.118 -0.84 -3.166 -0.039 -3.055 1.117 -2.243 1.736 -2.402 3.061 -1.55 3.373 -0.716 3.469 0.294 2.578 1.053 2.149 1.4 1.237 2.158 0.707 2.686 -0.261 2.682 -1.145 3.116 -2.386 2.544 -2.893 1.935 -3.364 0.592 -2.695 0 0 -0.739 -0.535 0 0 -1.087 0.397 -0.534 2.152 0.309 2.977 1.226 3.185 1.507 1.894 2.735 1.112 0.601 -0.039 2.892 -0.243 0.006 -0.138 -2.862 -0.483 -0.396 -0.081 -2.14 -1.169 -1.127 -1.533 -1.071 -2.832 -0.264 -2.552 0.474 -1.915 -1.087 0.397 0 0 -0.002 -0.002 0 0 -0.351 1.59 -1.758 3.056 -2.36 2.686 -2.867 2.198 -2.322 0.996 -2.184 0.219 -1.617 -0.521 -0.991 -0.864 -0.845 -1.691 -0.257 -2.133 0.626 -3.116 1.41 -3.104 2.199 -2.824 1.956 -1.527 2.651 -0.993 2.727 -0.019 1.743 0.61 1.094 0.935 0.716 1.48 0.039 0.154 -0.256 1.639" />
    <path class="write-flat-pen" fill="#FFFFFF" stroke-width="1.6" __comx="203.133" __comy="378.402" __timestamp="0x178102cfa44" d="M195.773 374.404 l11.253 1.343 3.462 0.028 0.006 -0.07 -3.409 -0.541 -11.246 -1.316" />
    <path class="write-flat-pen" fill="#FFFFFF" stroke-width="1.6" __comx="204.108" __comy="378.402" __timestamp="0x178102cfb0d" d="M195.447 382.825 l3.682 -0.048 10.324 -2.192 3.347 -0.972 -0.017 -0.091 -3.481 0.297 -10.286 2.062 -3.6 0.295" />
    <path class="write-flat-pen" fill="#FFFFFF" stroke-width="1.6" __comx="206.424" __comy="378.402" __timestamp="0x178102cfbec" d="M201.707 370.344 l-0.604 -0.071 1.012 2.196 0.346 0.665 6.876 12.169 2.315 2.465 0.094 -0.072 -1.762 -2.819 -6.709 -12.191 -0.37 -0.647 -1.295 -2.041 -0.463 0.489" />
    <path class="write-flat-pen" fill="#FFFFFF" stroke-width="1.6" __comx="224.478" __comy="378.402" __timestamp="0x178102cfe1f" d="M214.761 367.502 l0.741 3.436 0.173 0.579 3.985 13.338 1.167 1.847 1.354 -0.637 1.442 -6.008 0.988 -1.951 1.059 -0.776 1.414 -0.224 1.942 0.487 2.147 1.477 1.186 1.585 0.558 1.935 -0.168 1.614 -0.805 1.467 -1.585 1.266 -2.378 0.813 -2.268 0.13 -2.508 -0.98 -0.107 -0.09 -1.447 -1.89 -0.094 0.05 0.744 2.261 0.175 0.444 2.992 1.502 2.762 -0.131 2.769 -0.945 1.962 -1.581 1.039 -1.933 0.196 -2.119 -0.72 -2.377 -1.457 -1.909 -2.496 -1.696 -2.386 -0.594 -1.938 0.309 -1.518 1.118 -1.168 2.332 -1.323 5.613 0.051 -0.016 -0.571 -0.864 -4.218 -13.116 -0.197 -0.555 -1.059 -3.328" />
    <path class="write-flat-pen" fill="#FFFFFF" stroke-width="1.6" __comx="381.771" __comy="373.121" __timestamp="0x178102d0288" d="M376.06 387.021 l0.274 2.008 0.46 0.15 0.157 -0.11 0.594 -3.469 0.035 -0.647 -0.238 -4.819 -1.223 -5.099 -2.606 -6.728 -0.631 -3.106 0.244 -2.685 0.876 -2.045 1.404 -1.644 2.835 -2.01 3.564 -1.497 4.105 -0.798 2.36 0.091 1.443 0.622 0.793 0.865 0.568 2.217 0.016 0.61 0.035 2.947 0.144 0.013 0.579 -2.89 0.14 -0.723 -0.356 -2.711 -1.123 -1.389 -1.927 -0.888 -2.775 -0.122 -4.4 0.844 -3.837 1.604 -3.096 2.199 -1.645 1.937 -1.026 2.44 -0.252 3.094 0.732 3.392 2.677 6.729 1.257 4.905 0.379 4.661 -0.004 0.558 -0.214 3.239 0.044 -0.011 0.46 0.15 -0.605 -1.934" />
    <path class="write-flat-pen" fill="#FFFFFF" stroke-width="1.6" __comx="380.301" __comy="373.121" __timestamp="0x178102d037c" d="M370.662 372.435 l2.924 -0.246 0.621 -0.052 12.45 -1.01 3.364 -0.319 -0.002 -0.108 -3.389 -0.177 -12.505 0.676 -0.653 0.083 -2.891 0.594" />
    <path class="write-flat-pen" fill="#FFFFFF" stroke-width="1.6" __comx="397.721" __comy="373.121" __timestamp="0x178102d050a" d="M397.443 368.836 l-1.383 0.108 -0.342 0.324 -1.386 2.422 -0.917 3.688 -0.259 4.633 0.571 3.732 1.04 2.26 1.712 1.571 2.507 0.612 0.451 -0.059 2.848 -0.414 -0.002 -0.061 -2.87 -0.201 -0.327 -0.03 -2.07 -0.767 -1.319 -1.311 -0.862 -1.93 -0.541 -3.46 0.195 -4.423 0.762 -3.492 1.133 -2.277 0.069 -0.091 1.08 -0.398" />
    <path class="write-flat-pen" fill="#FFFFFF" stroke-width="1.6" __comx="407.785" __comy="373.121" __timestamp="0x178102d06ea" d="M408.101 376.56 l0.422 -1.943 -0.002 -0.177 -0.439 -1.239 -1.523 -0.567 -2.076 0.665 -1.56 1.614 -1.087 2.526 -0.179 2.525 0.698 1.734 1.65 1.229 1.809 0.124 1.828 -0.741 0 0 2.879 -3.589 -1.009 -0.253 0.492 2.585 1.513 1.83 2.357 0.829 0.037 -0.066 -1.779 -1.468 -1.059 -1.596 -0.435 -2.326 -1.009 -0.253 -2.707 3.339 0 0 -1.298 0.529 -1.204 -0.075 -1.128 -0.824 -0.495 -1.191 0.121 -2.084 0.907 -2.192 1.224 -1.32 1.512 -0.55 0.889 0.242 0.363 0.719 0.005 -0.008 -0.069 1.929" />
    <path class="write-flat-pen" fill="#FFFFFF" stroke-width="1.6" __comx="418.649" __comy="373.121" __timestamp="0x178102d080f" d="M413.624 367.92 l2.835 1.412 0.332 0.198 2.491 1.927 1.682 2.213 1.079 2.504 0.375 2.507 -0.345 2.126 -1.371 2.612 -1.733 2.818 0.068 0.054 2.36 -2.391 1.813 -2.667 0.466 -2.537 -0.437 -2.866 -1.229 -2.78 -1.917 -2.421 -2.753 -1.956 -0.447 -0.228 -3.013 -1.114" />
    <path class="write-flat-pen" fill="#FFFFFF" stroke-width="1.6" __comx="434.723" __comy="373.121" __timestamp="0x178102d097b" d="M425.897 370.112 l2.441 1.306 3.812 0.667 7.918 -0.122 3.479 -0.273 0.001 -0.076 -3.476 -0.388 -7.852 -0.054 -3.641 -0.527 -2.441 -1.039" />
    <path class="write-flat-pen" fill="#FFFFFF" stroke-width="1.6" __comx="438.205" __comy="373.121" __timestamp="0x178102d0a43" d="M431.765 377.148 l9.47 0.45 3.401 0.111 0.011 -0.095 -3.362 -0.643 -9.49 -0.445" />
    <path class="write-flat-pen" fill="#FFFFFF" stroke-width="1.6" __comx="460.986" __comy="373.121" __timestamp="0x178102d0c34" d="M455.641 381 l0.022 1.732 0.012 0.143 0.605 0.08 0.594 -0.82 0.066 -0.571 -0.063 -4.269 -2.264 -13.228 -0.1 -3.564 0.444 -1.159 1.023 -0.898 1.719 -0.497 2.451 0.162 3.302 1.027 3.316 2.369 1.857 2.377 0.078 -0.046 -1.264 -2.919 -3.407 -2.882 -3.647 -1.172 -2.824 -0.187 -2.201 0.643 -1.461 1.294 -0.631 1.684 0.146 3.894 2.351 13.216 0.159 4.124 -0.018 0.332 -0.205 0.808 0.605 0.08 -0.038 -0.112 -0.347 -1.671" />
    <path class="write-flat-pen" fill="#FFFFFF" stroke-width="1.6" __comx="458.561" __comy="373.121" __timestamp="0x178102d0cf3" d="M449.887 369.742 l1.707 0.835 0.52 0.106 11.666 0.337 3.454 -0.311 0 -0.095 -3.439 -0.342 -11.585 -0.514 -0.376 -0.049 -1.741 -0.502" />
    <path class="write-flat-pen" fill="#FFFFFF" stroke-width="1.6" __comx="476.337" __comy="373.121" __timestamp="0x178102d0e9b" d="M475.124 361.729 l-0.06 -0.23 0.097 -0.193 -0.699 -0.007 -0.052 0.077 -1.48 2.654 -0.252 0.589 -1.359 3.717 -0.832 5.277 0.364 3.714 1.103 2.901 1.774 2.088 4.583 1.474 0.53 -0.066 0.363 -0.092 2.984 -0.767 -0.012 -0.091 -3.081 0.031 -0.339 0.001 -0.3 -0.022 -3.972 -1.559 -1.385 -1.67 -0.962 -2.532 -0.346 -3.377 0.737 -5.008 1.218 -3.615 0.203 -0.538 1.183 -2.792 0.025 -0.123 -0.699 -0.007 0.199 0.085 0.048 0.189" />
    <path class="write-flat-pen" fill="#FFFFFF" stroke-width="1.6" __comx="487.093" __comy="373.121" __timestamp="0x178102d10bb" d="M480.986 361.775 l0.535 1.946 0.173 0.421 4.652 10.578 0.118 0.361 0 0 0.723 2.462 0 0 1.127 -0.619 -0.361 -0.416 0.117 -0.863 0.73 -0.785 1.485 -0.553 1.016 0.125 0.524 0.473 0.033 0.698 -0.731 1.184 -1.676 1.226 -2.2 0.789 -0.967 -0.054 -0.014 0.076 -1.116 -0.958 -0.084 0.054 0.396 1.416 0.166 0.359 1.717 0.497 2.741 -0.978 2.041 -1.508 1.069 -1.772 -0.114 -1.648 -1.236 -1.079 -1.72 -0.208 -2.06 0.762 -1.226 1.294 -0.275 1.857 0.749 0.871 1.127 -0.619 0 0 -0.763 -2.469 0 0 -0.15 -0.442 -4.999 -10.496 -0.195 -0.375 -0.848 -1.793" />
    <path class="write-flat-pen" fill="#FFFFFF" stroke-width="1.6" __comx="499.625" __comy="373.121" __timestamp="0x178102d11d9" d="M493.833 355.17 l2.161 1.715 0.363 0.371 3.374 3.929 2.438 3.972 1.256 3.278 0.73 4.42 -0.447 3.637 -1.771 4.403 -0.476 0.794 -0.517 0.798 -1.781 2.732 0.099 0.077 2.203 -2.405 0.659 -0.719 0.632 -0.824 2.113 -4.535 0.548 -3.979 -0.77 -4.731 -1.355 -3.506 -2.608 -4.125 -3.61 -3.907 -0.468 -0.425 -2.414 -1.483" />
  </g>
</svg>
