<svg class="write-page" color-interpolation="linearRGB" width="1010px" height="822.057px" xmlns="http://www.w3.org/2000/svg" xmlns:xlink="http://www.w3.org/1999/xlink">
  <g class="write-content write-v3" width="1010" height="822.057" xruling="30" yruling="30" marginLeft="30" papercolor="#1B1C1C" rulecolor="#0300F9FF">
    <g class="ruleline write-std-ruling write-scale-down" fill="none" stroke="#00F9FF" stroke-opacity="0.012" stroke-width="1" shape-rendering="crispEdges" vector-effect="non-scaling-stroke">
      <rect class="pagerect" fill="#1B1C1C" stroke="none" x="0" y="0" width="1010" height="822.057" />
      <path class="yrule_1" d="M0 30 l1010 0" />
      <path d="M0 60 l1010 0" />
      <path d="M0 90 l1010 0" />
      <path d="M0 120 l1010 0" />
      <path d="M0 150 l1010 0" />
      <path d="M0 180 l1010 0" />
      <path d="M0 210 l1010 0" />
      <path d="M0 240 l1010 0" />
      <path d="M0 270 l1010 0" />
      <path d="M0 300 l1010 0" />
      <path d="M0 330 l1010 0" />
      <path d="M0 360 l1010 0" />
      <path d="M0 390 l1010 0" />
      <path d="M0 420 l1010 0" />
      <path d="M0 450 l1010 0" />
      <path d="M0 480 l1010 0" />
      <path d="M0 510 l1010 0" />
      <path d="M0 540 l1010 0" />
      <path d="M0 570 l1010 0" />
      <path d="M0 600 l1010 0" />
      <path d="M0 630 l1010 0" />
      <path d="M0 660 l1010 0" />
      <path d="M0 690 l1010 0" />
      <path d="M0 720 l1010 0" />
      <path d="M0 750 l1010 0" />
      <path d="M0 780 l1010 0" />
      <path d="M0 810 l1010 0" />
      <path class="xrule_1" d="M30 0 l0 822.057" />
      <path d="M60 0 l0 822.057" />
      <path d="M90 0 l0 822.057" />
      <path d="M120 0 l0 822.057" />
      <path d="M150 0 l0 822.057" />
      <path d="M180 0 l0 822.057" />
      <path d="M210 0 l0 822.057" />
      <path d="M240 0 l0 822.057" />
      <path d="M270 0 l0 822.057" />
      <path d="M300 0 l0 822.057" />
      <path d="M330 0 l0 822.057" />
      <path d="M360 0 l0 822.057" />
      <path d="M390 0 l0 822.057" />
      <path d="M420 0 l0 822.057" />
      <path d="M450 0 l0 822.057" />
      <path d="M480 0 l0 822.057" />
      <path d="M510 0 l0 822.057" />
      <path d="M540 0 l0 822.057" />
      <path d="M570 0 l0 822.057" />
      <path d="M600 0 l0 822.057" />
      <path d="M630 0 l0 822.057" />
      <path d="M660 0 l0 822.057" />
      <path d="M690 0 l0 822.057" />
      <path d="M720 0 l0 822.057" />
      <path d="M750 0 l0 822.057" />
      <path d="M780 0 l0 822.057" />
      <path d="M810 0 l0 822.057" />
      <path d="M840 0 l0 822.057" />
      <path d="M870 0 l0 822.057" />
      <path d="M900 0 l0 822.057" />
      <path d="M930 0 l0 822.057" />
      <path d="M960 0 l0 822.057" />
      <path d="M990 0 l0 822.057" />
      <path class="leftmargin" stroke="#FF0000" d="M30 0 l0 822.057" />
    </g>
    <path class="write-chisel-pen" fill="#8F3AC9" fill-opacity="0.255" stroke-width="60" __comx="276.841" __comy="19.054" __timestamp="0x177f61231f4" d="M40.722 18.126 l0 60 15 0 11.025 -1.092 0 -60 -15 0 -11.025 1.092 m26.025 -1.092 l-15 0 0 60 27.629 0.154 15 0 0 -60 -27.629 -0.154 m27.629 0.154 l-15 0 0 60 54.948 2.49 15 0 0 -60 -54.948 -2.49 m54.948 2.49 l-15 0 0 60 74.526 5.186 15 0 0 -60 -74.526 -5.186 m74.526 5.186 l-15 0 0 60 51.403 1.87 15 0 0 -60 -51.403 -1.87 m36.403 1.87 l0 60 15 0 13.184 -0.413 0 -60 -15 0 -13.184 0.413 m13.184 59.587 l15 0 0 -60 -6.198 -1.88 -15 0 0 60 6.198 1.88 m-6.198 -1.88 l15 0 0 -60 -49.705 -5.745 -15 0 0 60 49.705 5.745 m-49.705 -5.745 l15 0 0 -60 -41.065 -3.043 -15 0 0 60 41.065 3.043 m-41.065 -3.043 l15 0 0 -60 -40.202 -1.219 -15 0 0 60 40.202 1.219 m-25.202 -1.219 l0 -60 -15 0 -52.381 0.087 0 60 15 0 52.381 -0.087 m-52.381 0.087 l0 -60 -15 0 -52.353 1.575 0 60 15 0 52.353 -1.575 m-67.353 1.575 l15 0 0 -60 -31.401 -0.209 -15 0 0 60 31.401 0.209 m-31.401 -0.209 l15 0 0 -60 -11.551 -1.275 -15 0 0 60 11.551 1.275 m-11.551 -61.275 l0 60 15 0 5.539 -0.966 0 -60 -15 0 -5.539 0.966 m5.539 -0.966 l0 60 15 0 130.732 -0.55 0 -60 -15 0 -130.732 0.55 m145.732 -0.55 l-15 0 0 60 70.246 0.786 15 0 0 -60 -70.246 -0.786 m70.246 0.786 l-15 0 0 60 96.157 3.593 15 0 0 -60 -96.157 -3.593 m96.157 3.593 l-15 0 0 60 182.687 10.625 15 0 0 -60 -182.687 -10.625 m182.687 10.625 l-15 0 0 60 15.075 0.056 15 0 0 -60 -15.075 -0.056 m0.075 0.056 l0 60 15 0 0.985 -0.901 0 -60 -15 0 -0.985 0.901 m0.985 59.099 l15 0 0 -60 -1.042 -1.502 -15 0 0 60 1.042 1.502 m-1.042 -1.502 l15 0 0 -60 -7.201 -2.61 -15 0 0 60 7.201 2.61 m-7.201 -2.61 l15 0 0 -60 -22.169 -4.476 -15 0 0 60 22.169 4.476 m-22.169 -4.476 l15 0 0 -60 -44.519 -6.158 -15 0 0 60 44.519 6.158 m-44.519 -6.158 l15 0 0 -60 -41.675 -4.232 -15 0 0 60 41.675 4.232 m-41.675 -4.232 l15 0 0 -60 -47.661 -3.099 -15 0 0 60 47.661 3.099 m-47.661 -3.099 l15 0 0 -60 -58.601 -2.089 -15 0 0 60 58.601 2.089 m-58.601 -2.089 l15 0 0 -60 -56.784 -0.333 -15 0 0 60 56.784 0.333 m-41.784 -0.333 l0 -60 -15 0 -36.578 1.072 0 60 15 0 36.578 -1.072 m-36.578 1.072 l0 -60 -15 0 -36.497 2.655 0 60 15 0 36.497 -2.655 m-36.497 2.655 l0 -60 -15 0 -28.555 3.584 0 60 15 0 28.555 -3.584 m-28.555 3.584 l0 -60 -15 0 -14.178 2.925 0 60 15 0 14.178 -2.925 m-14.178 2.925 l0 -60 -15 0 -0.753 0.989 0 60 15 0 0.753 -0.989 m-0.753 -59.011 l-15 0 0 60 2.871 1.045 15 0 0 -60 -2.871 -1.045 m2.871 1.045 l-15 0 0 60 29.529 0.717 15 0 0 -60 -29.529 -0.717 m14.529 0.717 l0 60 15 0 86.398 -2.793 0 -60 -15 0 -86.398 2.793 m86.398 -2.793 l0 60 15 0 101.754 -1.7 0 -60 -15 0 -101.754 1.7 m116.754 -1.7 l-15 0 0 60 60.846 0.823 15 0 0 -60 -60.846 -0.823 m60.846 0.823 l-15 0 0 60 55.796 2.11 15 0 0 -60 -55.796 -2.11 m55.796 2.11 l-15 0 0 60 75.007 4.499 15 0 0 -60 -75.007 -4.499 m75.007 4.499 l-15 0 0 60 36.95 3.277 15 0 0 -60 -36.95 -3.277 m36.95 3.277 l-15 0 0 60 7.16 1.606 15 0 0 -60 -7.16 -1.606 m7.16 61.606 l0 -60 -15 0 -12.022 0.406 0 60 15 0 12.022 -0.406 m-27.022 0.406 l15 0 0 -60 -135.3 -9.242 -15 0 0 60 135.3 9.242 m-135.3 -9.242 l15 0 0 -60 -90.42 -4.856 -15 0 0 60 90.42 4.856 m-90.42 -4.856 l15 0 0 -60 -50.727 -1.416 -15 0 0 60 50.727 1.416 m-50.727 -1.416 l15 0 0 -60 -63.73 -0.153 -15 0 0 60 63.73 0.153 m-48.73 -0.153 l0 -60 -15 0 -65.23 1.59 0 60 15 0 65.23 -1.59 m-65.23 1.59 l0 -60 -15 0 -42.157 2.367 0 60 15 0 42.157 -2.367 m-42.157 2.367 l0 -60 -15 0 -13.291 1.815 0 60 15 0 13.291 -1.815 m-13.291 -58.185 l-15 0 0 60 2.931 1.303 15 0 0 -60 -2.931 -1.303 m2.931 1.303 l-15 0 0 60 18.497 1.311 15 0 0 -60 -18.497 -1.311 m18.497 1.311 l-15 0 0 60 53.305 0.903 15 0 0 -60 -53.305 -0.903 m38.305 0.903 l0 60 15 0 148.716 -0.476 0 -60 -15 0 -148.716 0.476 m163.716 -0.476 l-15 0 0 60 139.646 1.384 15 0 0 -60 -139.646 -1.384 m124.646 1.384 l0 60 15 0 90.954 -0.283 0 -60 -15 0 -90.954 0.283 m90.954 -0.283 l0 60 15 0 10.325 -0.948 0 -60 -15 0 -10.325 0.948 m10.325 59.052 l15 0 0 -60 -9.355 -2.544 -15 0 0 60 9.355 2.544 m-9.355 -2.544 l15 0 0 -60 -40.392 -5.201 -15 0 0 60 40.392 5.201 m-40.392 -5.201 l15 0 0 -60 -52.392 -4.751 -15 0 0 60 52.392 4.751 m-52.392 -4.751 l15 0 0 -60 -71.825 -4.052 -15 0 0 60 71.825 4.052 m-71.825 -4.052 l15 0 0 -60 -96.034 -3.755 -15 0 0 60 96.034 3.755 m-96.034 -3.755 l15 0 0 -60 -71.062 -1.521 -15 0 0 60 71.062 1.521 m-56.062 -1.521 l0 -60 -15 0 -59.496 0.061 0 60 15 0 59.496 -0.061 m-59.496 0.061 l0 -60 -15 0 -98.35 3.287 0 60 15 0 98.35 -3.287 m-98.35 3.287 l0 -60 -15 0 -52.44 2.903 0 60 15 0 52.44 -2.903 m-52.44 -57.097 l-15 0 0 60 1.075 1.062 15 0 0 -60 -1.075 -1.062 m1.075 1.062 l-15 0 0 60 15.449 1.96 15 0 0 -60 -15.449 -1.96 m15.449 1.96 l-15 0 0 60 65.604 2.946 15 0 0 -60 -65.604 -2.946 m65.604 2.946 l-15 0 0 60 143.673 3.716 15 0 0 -60 -143.673 -3.716 m143.673 3.716 l-15 0 0 60 81.329 0.908 15 0 0 -60 -81.329 -0.908 m66.329 0.908 l0 60 15 0 82.563 -0.602 0 -60 -15 0 -82.563 0.602 m97.563 -0.602 l-15 0 0 60 16.949 0.953 15 0 0 -60 -16.949 -0.953 m16.949 0.953 l-15 0 0 60 1.846 0.201 15 0 0 -60 -1.846 -0.201 m1.846 0.201 l-15 0 0 60 6.328 0.687 15 0 0 -60 -6.328 -0.687" />
    <path class="write-flat-pen" fill="#FFFFFF" stroke-width="1.6" __comx="46.635" __comy="49.045" __timestamp="0x177f60cb196" d="M45.56 34.095 l-0.69 0.022 0.009 0.422 0.179 1.379 0.067 0.402 1.147 6.92 0.087 1.002 0.851 15.008 0 0 1.151 -0.251 -0.326 -0.638 -0.05 -0.183 -0.165 -0.88 -0.049 -0.303 -0.095 -0.651 -0.047 -0.332 -0.074 -0.693 -0.043 -0.37 -0.185 -1.643 -0.051 0 -0.191 1.643 -0.044 0.372 -0.064 0.707 -0.019 0.351 -0.019 0.673 0.002 0.332 0.043 0.939 0.038 0.32 0.225 0.788 1.151 -0.251 0 0 -0.976 -15.018 -0.107 -1.062 -1.324 -6.943 -0.094 -0.401 -0.32 -1.3 -0.001 0.235 0.06 -0.097" />
    <path class="write-flat-pen" fill="#FFFFFF" stroke-width="1.6" __comx="53.347" __comy="49.045" __timestamp="0x177f60cb2c6" d="M43.199 34.996 l-0.778 -0.368 -0.059 -0.013 -0.097 -0.079 0.08 0.017 0 0 -0.163 0.97 0.278 0.045 0.287 -0.021 2.117 -0.264 0.782 -0.121 6.414 -0.974 7.419 -0.682 0.64 -0.035 1.135 -0.065 0.518 -0.008 0.484 -0.011 0.472 0.004 0.385 -0.001 1.677 0.01 0.019 -0.11 -1.582 -0.556 -0.376 -0.133 -0.495 -0.129 -0.508 -0.092 -0.557 -0.082 -1.184 -0.064 -0.693 -0.012 -7.524 0.525 -6.473 1.002 -0.784 0.144 -2.097 0.421 -0.259 0.076 -0.229 0.111 -0.163 0.97 0 0 0.097 0.025 0.26 -0.04 -0.037 -0.009 0.769 0.181" />
    <path class="write-flat-pen" fill="#FFFFFF" stroke-width="1.6" __comx="56.533" __comy="49.045" __timestamp="0x177f60cb42b" d="M46.66 49.201 l0.149 -0.371 -0.051 0.075 0.448 -0.155 0.241 -0.05 1.871 -0.25 0.525 -0.035 12.885 -0.528 0.461 -0.033 0.858 -0.073 0.374 -0.039 0.64 -0.079 0.283 -0.043 1.7 -0.251 0.001 -0.052 -1.695 -0.286 -0.286 -0.049 -0.647 -0.077 -0.378 -0.034 -0.863 -0.056 -0.476 -0.019 -12.936 0.395 -0.608 0.068 -1.96 0.435 -0.372 0.146 -0.563 0.374 -0.193 0.211 -0.051 0.651" />
    <path class="write-flat-pen" fill="#FFFFFF" stroke-width="1.6" __comx="58.016" __comy="49.045" __timestamp="0x177f60cb564" d="M47.179 59.363 l-0.307 0.319 0.278 0.611 0.158 0.046 0.989 0.043 0.551 -0.016 16.509 -0.998 0.584 -0.055 0.543 -0.058 0.529 -0.062 0.533 -0.068 1.614 -0.204 0 -0.04 -1.614 -0.206 -0.535 -0.069 -0.534 -0.052 -0.547 -0.044 -0.604 -0.035 -16.544 0.848 -0.537 0.063 -0.892 0.109 -0.091 0.011 0.278 0.611 0.168 -0.41" />
    <path class="write-flat-pen" fill="#FFFFFF" stroke-width="1.6" __comx="82.013" __comy="49.045" __timestamp="0x177f60cb6d9" d="M74.016 42.866 l0.396 0.504 0.194 0.257 0.934 1.16 0.397 0.481 1.904 2.284 0.544 0.624 4.192 4.649 2.507 2.321 2.547 1.569 0.256 0.107 0.386 0.119 1.71 0.422 0.027 -0.055 -1.367 -1.113 -0.317 -0.229 -0.178 -0.125 -2.334 -1.632 -2.408 -2.214 -4.257 -4.518 -0.561 -0.594 -2.024 -2.172 -0.435 -0.452 -1.055 -1.054 -0.243 -0.228 -0.5 -0.418" />
    <path class="write-flat-pen" fill="#FFFFFF" stroke-width="1.6" __comx="81.703" __comy="49.045" __timestamp="0x177f60cb7b0" d="M77.79 58.916 l-0.61 -0.528 0.004 -0.024 -0.011 -1.139 0.098 -0.396 0.99 -2.377 1.213 -2.065 4.714 -6.308 0.457 -0.61 0.417 -0.577 0.407 -0.591 0.37 -0.543 0.346 -0.505 0.881 -1.281 -0.005 -0.004 -1.127 1.072 -0.445 0.424 -0.471 0.464 -0.506 0.511 -0.488 0.52 -0.521 0.58 -4.857 6.298 -1.253 2.197 -0.949 2.552 -0.101 0.589 0.185 1.4 0.175 0.259 0.811 0.476" />
    <path class="write-flat-pen" fill="#FFFFFF" stroke-width="1.6" __comx="99.735" __comy="51.468" __timestamp="0x177f60cc216" d="M98.432 57.955 l0.482 0.49 0.367 -0.126 1.047 -0.818 0.1 -0.176 0.611 -1.226 -0.022 -0.019 -1.098 0.819 -0.094 0.056 -0.955 0.592 0.241 -0.078 -0.127 -0.092" />
    <path class="write-flat-pen" fill="#FFFFFF" stroke-width="1.6" __comx="97.459" __comy="51.468" __timestamp="0x177f60cc2ca" d="M98.505 38.702 l-0.871 -1.718 -1.178 -0.792 -0.042 0.037 0.556 1.205 0.847 1.623" />
    <path class="write-flat-pen" fill="#FFFFFF" stroke-width="1.6" __comx="75.483" __comy="51.468" __timestamp="0x177f60cc4b2" d="M37.072 73.44 l-0.277 -0.211 -0.164 -0.167 -0.117 0.669 1.155 -0.315 7.646 -0.304 1.452 -0.001 21.611 -0.106 18.705 -0.638 13.575 0.051 1.785 0.045 3.34 0.154 1.617 0.093 1.583 0.04 1.577 0.052 1.524 0.007 1.456 -0.028 1.258 -0.022 0.003 -0.073 -1.251 -0.136 -1.447 -0.16 -1.509 -0.145 -1.566 -0.184 -1.573 -0.141 -1.608 -0.175 -3.353 -0.277 -1.811 -0.096 -13.615 -0.209 -18.716 0.627 -21.595 0.259 -1.473 0.03 -7.768 0.483 -1.231 0.439 -0.117 0.669 0.205 0.114 0.277 0.211" />
    <path class="write-flat-pen" fill="#FFFFFF" stroke-width="1.6" __comx="158.917" __comy="51.468" __timestamp="0x177f60cc84f" d="M158.095 40.598 l-0.31 -1.455 -0.002 -0.104 0.063 -0.605 0.015 0.034 -0.107 0.137 -0.163 -0.078 0.338 0.927 0.143 0.546 0.474 2.303 0.557 5.297 0.47 11.346 0.034 0.094 0.051 0.083 0.269 0.582 0.066 0.006 0.376 -0.519 0.069 -0.105 0.038 -0.151 -0.348 -11.41 -0.604 -5.384 -0.562 -2.374 -0.209 -0.628 -0.596 -1.081 -0.386 -0.239 -0.367 0.307 -0.048 0.243 0.105 0.695 0.029 0.136 0.468 1.433" />
    <path class="write-flat-pen" fill="#FFFFFF" stroke-width="1.6" __comx="160.959" __comy="51.468" __timestamp="0x177f60cc99e" d="M148.874 37.763 l-1.438 -0.811 0.073 0.033 0.135 0.068 -0.29 0.306 0.806 -0.113 0.521 -0.025 6.13 -0.196 14.215 -1.385 0.839 -0.08 1.585 -0.146 0.737 -0.067 0.641 -0.066 0.594 -0.062 0.537 -0.059 1.583 -0.168 0.001 -0.055 -1.575 -0.231 -0.541 -0.08 -0.606 -0.058 -0.649 -0.047 -0.752 -0.036 -1.609 -0.014 -0.871 0.018 -14.216 1.222 -6.119 0.303 -0.629 0.073 -1.126 0.335 -0.476 0.481 0.562 0.723 0.132 0.063 1.518 0.657" />
    <path class="write-flat-pen" fill="#FFFFFF" stroke-width="1.6" __comx="164.581" __comy="51.468" __timestamp="0x177f60ccafe" d="M151.386 58.63 l-0.663 0.665 0.11 0.165 0.331 0.048 1.967 0.126 0.785 0.022 4.686 -0.144 14.594 -2.474 0.832 -0.15 0.779 -0.113 0.725 -0.107 0.716 -0.104 0.64 -0.107 1.551 -0.253 -0.003 -0.087 -1.564 -0.152 -0.65 -0.065 -0.737 -0.036 -0.749 -0.003 -0.819 0.025 -0.881 0.081 -14.559 2.309 -4.58 0.222 -0.75 0.011 -1.933 0.037 -0.047 0.017 0.019 0.099 0.117 0.748" />
    <path class="write-flat-pen" fill="#FFFFFF" stroke-width="1.6" __comx="191.302" __comy="51.468" __timestamp="0x177f60ccd91" d="M194.454 41.914 l-0.9 -0.358 -0.182 -0.045 -2.485 -0.27 -0.359 0.008 -1.699 0.263 -1.136 0.554 -0.733 0.933 -0.061 0.97 0.44 0.896 0.97 0.837 6.121 2.582 1.674 0.961 1.195 1.035 0.793 1.193 0.327 1.345 -0.116 1.016 -0.632 1.317 -0.81 0.831 -1.343 0.682 -1.9 0.426 -2.238 0.091 -2.294 -0.257 -2.411 -0.693 -1.105 -0.58 -0.889 -0.809 -0.22 -0.438 0.019 -0.5 0.001 -0.07 0.086 -0.155 0.168 -0.234 0.853 -1.109 -0.064 -0.083 -1.286 0.552 -0.309 0.136 -0.257 0.174 -0.273 0.293 -0.337 1.157 0.507 1.102 1.22 1.104 1.382 0.723 2.657 0.752 2.51 0.267 2.458 -0.118 2.173 -0.508 1.665 -0.884 1.067 -1.162 0.737 -1.706 0.108 -1.406 -0.455 -1.705 -0.997 -1.453 -1.392 -1.177 -1.825 -1.021 -6.06 -2.496 -0.719 -0.604 -0.255 -0.499 0.017 -0.441 0.417 -0.563 0.825 -0.438 1.511 -0.289 0.262 -0.016 2.419 0.098 0.121 0.012 0.915 0.195" />
    <path class="write-flat-pen" fill="#FFFFFF" stroke-width="1.6" __comx="259.21" __comy="47.563" __timestamp="0x177f60ce4f4" d="M256.369 56.319 l-0.117 1.257 -0.019 0.307 0.029 2.2 0.028 0.181 0.243 0.747 0.624 0.151 0.355 -1.058 0.024 -0.355 -0.046 -2.692 -0.024 -0.559 -0.262 -4.848 -0.072 -0.698 -0.401 -3.391 -2.413 -9.511 -0.534 -3.193 -0.116 -2.546 0.242 -0.878 0.519 -0.684 1.063 -0.703 1.623 -0.506 1.932 -0.191 1.434 0.155 1.603 0.517 2.189 1.507 0.178 0.19 0.427 0.617 0.186 0.329 0.173 0.347 0.151 0.329 0.133 0.324 0.134 0.342 0.6 1.572 0.079 -0.015 -0.001 -1.682 0 -0.385 -0.032 -0.393 -0.062 -0.409 -0.099 -0.439 -0.144 -0.464 -0.389 -0.833 -0.322 -0.465 -2.476 -1.894 -1.995 -0.653 -1.76 -0.197 -2.26 0.223 -1.994 0.625 -1.474 0.981 -0.865 1.147 -0.376 1.419 0.164 2.886 0.601 3.335 2.449 9.468 0.437 3.285 0.081 0.659 0.427 4.804 0.049 0.544 0.215 2.636 0.011 0.207 0.033 0.219 0.544 0.134 -0.191 -0.248 -0.019 -0.066 -0.191 -2.133 -0.01 -0.288 -0.037 -1.258" />
    <path class="write-flat-pen" fill="#FFFFFF" stroke-width="1.6" __comx="257.661" __comy="47.563" __timestamp="0x177f60ce625" d="M248.668 46.57 l-0.568 0.452 0.225 0.188 0.134 0.076 0.858 0.375 0.353 0.135 3.091 0.734 0.683 0.079 2.78 0.11 5.335 -0.802 0.75 -0.172 0.752 -0.182 0.707 -0.185 0.685 -0.168 0.652 -0.183 0.583 -0.16 1.535 -0.414 -0.009 -0.064 -1.59 0.018 -0.616 0.006 -0.677 0.049 -0.712 0.04 -0.742 0.089 -0.767 0.103 -0.735 0.108 -5.216 0.656 -2.627 -0.084 -0.579 -0.056 -3.008 -0.544 -0.302 -0.079 -0.874 -0.221 -0.123 -0.031 -0.291 -0.027 0.022 0.745" />
    <path class="write-flat-pen" fill="#FFFFFF" stroke-width="1.6" __comx="279.428" __comy="47.563" __timestamp="0x177f60ce8f7" d="M278.236 41.816 l-0.167 -0.195 -0.106 -0.01 -0.136 -0.01 -0.138 0.034 -0.198 0.085 -0.149 0.104 -0.309 0.284 -0.164 0.213 -0.484 0.792 -0.166 0.382 -0.761 3.797 -0.03 0.78 0.149 2.365 0.686 3.46 1.221 3.966 1.115 2.267 1.308 1.337 0.4 0.253 0.697 0.289 0.391 0.099 0.377 0.047 1.627 0.201 0.026 -0.084 -1.457 -0.751 -0.31 -0.165 -0.277 -0.163 -0.517 -0.363 -0.213 -0.191 -0.994 -1.216 -0.936 -2.041 -1.158 -3.813 -0.663 -3.309 -0.16 -2.213 0.015 -0.621 0.562 -3.628 0.072 -0.243 0.307 -0.774 0.067 -0.164 0.149 -0.294 0.042 -0.093 0.059 -0.12 0.011 -0.052 0.005 -0.053 -0.074 -0.011 0.133 0.02" />
    <path class="write-flat-pen" fill="#FFFFFF" stroke-width="1.6" __comx="291.924" __comy="47.563" __timestamp="0x177f60cea31" d="M284.966 43.815 l0.255 0.771 0.106 0.246 1.014 1.861 0.323 0.515 3.891 5.709 1.966 2.336 1.877 1.555 2.501 1.096 0.102 0.026 0.368 0.007 1.51 -0.258 0.005 -0.036 -1.356 -0.63 -0.258 -0.127 0.021 0.002 -2.209 -1.145 -1.654 -1.399 -1.859 -2.204 -3.965 -5.567 -0.322 -0.47 -1.137 -1.731 -0.114 -0.173 -0.372 -0.684" />
    <path class="write-flat-pen" fill="#FFFFFF" stroke-width="1.6" __comx="291.826" __comy="47.563" __timestamp="0x177f60ceb10" d="M288.089 58.233 l-0.113 -0.64 0.012 -0.058 0.109 -0.57 0.067 -0.208 0.847 -1.87 0.251 -0.434 1.268 -1.906 4.371 -5.258 0.288 -0.424 0.254 -0.416 0.219 -0.403 0.18 -0.402 0.701 -1.552 -0.076 -0.052 -1.183 1.225 -0.299 0.306 -0.301 0.314 -0.32 0.337 -0.33 0.352 -4.547 5.197 -1.285 2.053 -0.283 0.547 -0.751 2.08 -0.058 0.374 0.017 0.739 0.049 0.21 0.296 0.655" />
    <path class="write-flat-pen" fill="#FFFFFF" stroke-width="1.6" __comx="301.097" __comy="47.563" __timestamp="0x177f60cec60" d="M295.728 38.472 l0.37 0.408 0.15 0.172 0.459 0.484 0.284 0.285 1.008 1.021 0.352 0.37 2.912 3.448 0.375 0.53 1.461 2.309 1.345 2.942 0.603 2.219 0.143 1.587 -0.198 1.567 -0.535 1.476 -0.221 0.422 -0.553 0.849 -0.263 0.348 -0.261 0.325 -0.267 0.299 -0.261 0.275 -1.127 1.178 0.018 0.023 1.412 -0.814 0.34 -0.197 0.363 -0.244 0.36 -0.283 0.369 -0.332 0.739 -0.83 0.352 -0.515 0.736 -1.659 0.275 -1.857 -0.162 -1.844 -0.665 -2.427 -1.432 -3.112 -1.546 -2.399 -0.439 -0.599 -3.108 -3.41 -0.422 -0.381 -1.133 -0.926 -0.334 -0.246 -0.547 -0.381 -0.195 -0.125 -0.47 -0.295" />
    <path class="write-flat-pen" fill="#FFFFFF" stroke-width="1.6" __comx="322.586" __comy="47.563" __timestamp="0x177f60cee3b" d="M314.579 46.609 l1.029 0.295 0.293 0.067 3.537 0.321 8.046 -1.112 0.424 -0.087 0.726 -0.159 0.302 -0.074 1.656 -0.394 -0.005 -0.069 -1.697 -0.132 -0.319 -0.025 -0.761 -0.003 -0.442 0.021 -7.961 0.939 -3.39 -0.168 -0.238 -0.027 -1.051 -0.126" />
    <path class="write-flat-pen" fill="#FFFFFF" stroke-width="1.6" __comx="325.243" __comy="47.563" __timestamp="0x177f60cef3b" d="M318.353 53.3 l-0.777 -0.043 -0.057 -0.014 0.263 0.712 0.044 0.055 0.004 0.018 2.975 -0.088 0.678 0.004 6.469 0.218 0.751 0.027 0.77 0.043 0.723 0.04 0.73 0.037 0.702 0.021 1.577 0.052 0.013 -0.082 -1.519 -0.429 -0.679 -0.194 -0.718 -0.173 -0.721 -0.152 -0.784 -0.136 -0.781 -0.097 -6.509 -0.341 -0.738 0.005 -3.077 0.269 -0.295 0.084 -0.13 0.199 0.263 0.712 0.069 -0.016 0.782 -0.116" />
    <path class="write-flat-pen" fill="#FFFFFF" stroke-width="1.6" __comx="353.929" __comy="47.563" __timestamp="0x177f60cf119" d="M344.325 42.541 l0.521 0.505 0.135 0.178 1.519 1.66 0.448 0.458 3.199 3.279 0.588 0.634 3.908 3.894 2.469 1.94 3.829 1.726 0.279 0.053 0.389 0.035 1.866 -0.002 0.056 -0.253 -1.683 -0.792 -0.343 -0.138 -0.146 -0.058 -3.527 -1.741 -2.297 -1.788 -3.891 -3.771 -0.602 -0.618 -3.336 -3.176 -0.466 -0.429 -1.61 -1.52 -0.195 -0.196 -0.673 -0.437" />
    <path class="write-flat-pen" fill="#FFFFFF" stroke-width="1.6" __comx="353.311" __comy="47.563" __timestamp="0x177f60cf209" d="M346.584 58.116 l-0.032 -1.452 0.039 -0.071 2.421 -2.913 0.548 -0.546 9.126 -9.099 0.506 -0.68 0.418 -0.627 0.357 -0.594 0.331 -0.592 0.255 -0.54 0.686 -1.444 -0.068 -0.046 -1.093 1.166 -0.402 0.424 -0.455 0.477 -0.464 0.496 -0.49 0.541 -0.517 0.567 -9.155 8.991 -0.592 0.617 -2.452 3.221 -0.167 0.493 0.215 1.688" />
    <path class="write-flat-pen" fill="#FFFFFF" stroke-width="1.6" __comx="368.95" __comy="47.563" __timestamp="0x177f60cf4aa" d="M363.534 30.292 l0.343 -0.664 0.042 -0.034 1.019 -0.813 0.203 -0.138 2.679 -1.322 0.189 -0.047 1.069 -0.128 0.693 0.191 0.348 0.349 0.245 0.719 -0.065 0.997 -0.424 1.093 -1.268 1.793 -3.647 3.442 -0.175 0.227 -0.472 0.839 0.156 1.12 0.991 0.691 1.874 0.143 4.653 -0.602 0.322 -0.046 0.295 -0.045 0.261 -0.049 0.264 -0.05 1.738 -0.287 0.01 -0.119 -1.665 -0.575 -0.287 -0.097 -0.314 -0.062 -0.336 -0.039 -0.397 -0.017 -4.579 0.465 -1.332 -0.08 -0.145 -0.084 -0.019 -0.009 0.164 -0.34 0.042 -0.063 3.534 -3.568 1.394 -2.025 0.528 -1.404 0.079 -1.411 -0.418 -1.191 -0.762 -0.751 -1.213 -0.315 -1.365 0.197 -0.377 0.109 -2.774 1.567 -0.278 0.231 -0.973 1.002 -0.13 0.178 -0.234 0.826" />
    <path class="write-flat-pen" fill="#FFFFFF" stroke-width="1.6" __comx="414.354" __comy="47.563" __timestamp="0x177f60cfa0a" d="M413.979 44.489 l0.06 -0.344 -0.075 0.077 0 0 -0.371 -0.162 -0.029 0.353 0.003 0.283 0.123 2.185 0.047 0.675 0.651 11.661 0.062 0.052 0.277 0.341 0.027 0.002 0.314 -0.307 0.07 -0.085 -0.542 -11.723 -0.073 -0.691 -0.285 -2.175 -0.055 -0.291 -0.122 -0.342 -0.371 -0.162 0 0 -0.093 0.09 0.087 0.573" />
    <path class="write-flat-pen" fill="#FFFFFF" stroke-width="1.6" __comx="413.94" __comy="47.563" __timestamp="0x177f60cfad1" d="M414.528 37.608 l-0.879 -0.436 -0.298 0.708 0.086 0.099 0.317 0.176 0.347 0.233" />
    <path class="write-flat-pen" fill="#FFFFFF" stroke-width="1.6" __comx="424.309" __comy="47.563" __timestamp="0x177f60cfcbb" d="M419.266 44.638 l-0.188 0.437 -0.033 0.19 -0.037 1.468 0.014 0.403 0.244 3.877 0.037 0.63 0.235 4.692 0 0 0.007 0.22 0 0 0.052 0.772 0 0 1.233 -0.009 0.406 -3.602 0.729 -3.484 0.979 -2.478 0.966 -1.558 1.051 -1.101 0.697 -0.352 0.644 0.009 0.462 0.252 0.539 0.694 0.604 1.682 0.31 2.241 -0.05 6.118 0.039 0.082 0.432 1.206 0.065 0.005 0.627 -1.117 0.055 -0.112 0.227 -6.264 -0.358 -2.493 -0.733 -2.02 -0.852 -1.091 -1.011 -0.548 -1.318 -0.015 -1.205 0.609 -1.313 1.376 -1.097 1.791 -1.037 2.707 -0.756 3.661 -0.336 3.677 1.233 -0.009 0 0 -0.123 -0.724 0 0 -0.014 -0.192 0 0 -0.409 -4.695 -0.061 -0.636 -0.406 -3.858 -0.036 -0.381 -0.126 -1.421 -0.013 -0.11 0.035 -0.422" />
    <path class="write-flat-pen" fill="#FFFFFF" stroke-width="1.6" __comx="436.317" __comy="45.747" __timestamp="0x177f60cfed0" d="M433.43 53.337 l-0.03 0.306 0.39 0.241 0.113 -0.017 0.424 -0.305 0.159 -0.186 0.872 -1.297 0.213 -0.373 1.904 -4.151 0 0 -0.49 -0.824 -0.01 -0.004 -0.645 0.561 -0.145 2.232 2.604 14.534 0.052 0.558 0.102 2.965 -0.223 1.686 -0.426 0.944 -0.598 0.472 -0.613 0.12 -0.944 -0.177 -1.35 -0.92 -0.212 -0.202 -0.501 -0.597 -0.252 -0.342 -0.265 -0.408 -0.27 -0.475 -0.28 -0.543 -0.734 -1.439 -0.046 0.015 0.286 1.589 0.111 0.617 0.139 0.57 0.158 0.518 0.186 0.475 0.431 0.802 0.317 0.415 1.659 1.322 1.568 0.321 1.265 -0.258 1.164 -0.935 0.648 -1.485 0.24 -2.025 -0.145 -3.126 -0.07 -0.657 -2.753 -14.417 0.083 -2.088 -0.645 0.561 0.011 -0.003 -0.49 -0.824 0 0 -1.73 4.183 -0.163 0.326 -0.707 1.325 -0.067 0.126 -0.163 0.271 0.036 0.009 0.39 0.241 -0.11 -0.287" />
    <path class="write-flat-pen" fill="#FFFFFF" stroke-width="1.6" __comx="434.678" __comy="45.747" __timestamp="0x177f60cff78" d="M434.434 39.412 l0.679 -2.102 0.477 -1.35 -0.04 -0.025 -1.032 1.096 -0.754 2.156" />
    <path class="write-flat-pen" fill="#FFFFFF" stroke-width="1.6" __comx="450.218" __comy="45.747" __timestamp="0x177f60d01cc" d="M444.415 50.166 l-0.166 0.291 0.047 0.161 0.201 0.31 0.185 0.159 0.683 0.356 0.361 0.113 1.514 0.185 0.547 -0.047 1.556 -0.354 2.022 -0.97 1.757 -1.323 1.217 -1.454 0.625 -1.417 -0.006 -1.318 -0.602 -0.949 -1.152 -0.663 -1.75 -0.337 -2.156 0.165 -1.998 0.686 -1.18 0.782 -1.426 1.606 -1.049 1.86 -0.786 2.465 -0.186 1.755 0.228 1.604 0.64 1.451 1.105 1.281 1.521 0.86 1.848 0.404 2.12 -0.16 2.101 -0.641 2.38 -1.248 0.523 -0.372 0.492 -0.401 0.449 -0.433 0.388 -0.442 0.335 -0.462 0.963 -1.326 -0.061 -0.063 -1.354 0.923 -0.455 0.305 -0.454 0.29 -0.484 0.295 -0.501 0.291 -0.479 0.266 -2.265 1.057 -1.842 0.547 -1.758 0.135 -1.441 -0.305 -1.133 -0.623 -0.83 -0.93 -0.514 -1.085 -0.222 -1.256 0.115 -1.469 0.668 -2.234 0.909 -1.647 1.234 -1.399 0.924 -0.615 1.711 -0.585 1.845 -0.131 1.392 0.283 0.716 0.421 0.258 0.405 0.014 0.715 -0.441 1.034 -1.011 1.233 -1.545 1.202 -1.793 0.923 -1.362 0.379 -0.387 0.06 -1.365 -0.025 -0.254 -0.037 -0.631 -0.164 -0.115 -0.041 -0.214 -0.113 -0.004 0.048 -0.019 -0.205" />
    <path class="write-flat-pen" fill="#FFFFFF" stroke-width="1.6" __comx="464.682" __comy="45.747" __timestamp="0x177f60d036a" d="M465.216 43.924 l-0.319 -0.501 -0.07 -0.096 -0.486 -0.395 -0.255 -0.103 -1.421 0.068 -0.405 0.179 -1.348 0.984 -0.996 1.299 -0.979 2.121 -0.606 2.734 0.083 1.584 0.517 1.439 1.088 1.208 1.686 0.735 2.021 0.174 3.98 -1.045 0.605 -0.292 0.52 -0.297 0.462 -0.312 0.399 -0.321 1.345 -1.062 -0.104 -0.191 -1.62 0.561 -0.47 0.155 -0.494 0.167 -0.527 0.182 -0.522 0.176 -3.688 0.841 -1.559 -0.13 -1.201 -0.511 -0.714 -0.772 -0.374 -0.99 -0.088 -1.203 0.479 -2.437 0.815 -1.897 0.781 -1.089 1.08 -0.875 0.126 -0.072 1.02 -0.189 -0.023 -0.022 0.398 0.161 0.013 -0.003 0.435 0.387" />
    <path class="write-flat-pen" fill="#FFFFFF" stroke-width="1.6" __comx="477.489" __comy="45.747" __timestamp="0x177f60d0524" d="M476.453 32.4 l-0.15 0.32 -0.017 0.114 -0.038 0.73 0.006 0.302 0.078 1.267 0.035 0.556 0.305 2.833 0.112 0.846 0.391 4.671 0.339 9.246 0.118 0.217 0.393 0.488 0.417 -0.329 0.287 -0.411 -0.341 -0.488 -0.484 0.128 0.366 -0.294 0.347 0.423 0.073 0.071 -0.217 -9.132 -0.496 -4.735 -0.144 -0.866 -0.454 -2.79 -0.082 -0.543 -0.225 -1.246 -0.05 -0.276 -0.131 -0.684 -0.016 -0.032 -0.016 -0.296" />
    <path class="write-flat-pen" fill="#FFFFFF" stroke-width="1.6" __comx="479.36" __comy="45.747" __timestamp="0x177f60d062d" d="M472.175 44.537 l-0.209 -0.44 0 0 -0.217 0.623 0.083 -0.012 2.566 -0.255 8.438 -0.007 0.617 0.016 0.598 0.006 0.62 -0.005 0.586 -0.014 0.569 -0.017 1.59 -0.047 0 0 -1.57 -0.258 -0.561 -0.092 -0.575 -0.097 -0.609 -0.102 -0.591 -0.089 -0.639 -0.086 -8.527 -0.16 -2.68 0.388 -0.141 0.053 -0.217 0.623 0 0 0.345 0.343" />
    <path class="write-flat-pen" fill="#FFFFFF" stroke-width="1.6" __comx="490.893" __comy="45.747" __timestamp="0x177f60d077a" d="M489.893 44.829 l-0.047 0.587 0.014 0.224 0.103 0.809 0.05 0.329 0.466 2.738 0.059 0.449 0.412 3.162 0.082 0.102 0.907 -0.243 -0.066 -0.083 -0.126 -0.153 -0.325 -0.552 -0.03 0.002 -0.253 0.588 -0.108 0.137 -0.068 0.051 0.907 -0.243 0.063 0.068 -0.241 -2.983 -0.082 -0.501 -0.644 -2.74 -0.092 -0.33 -0.25 -0.77 -0.062 -0.158 -0.124 -0.53" />
    <path class="write-flat-pen" fill="#FFFFFF" stroke-width="1.6" __comx="491.325" __comy="45.747" __timestamp="0x177f60d0817" d="M491.305 35.222 l-0.345 0.462 -0.061 0.207 0.012 1.66 0.059 0.33 0.093 0.352 0.394 1.48 0.031 -0.004 -0.031 -1.532 -0.006 -0.35 0.008 -0.288 0.137 -1.554 0.002 -0.06 0.153 -0.463" />
    <path class="write-flat-pen" fill="#FFFFFF" stroke-width="1.6" __comx="500.403" __comy="45.747" __timestamp="0x177f60d096a" d="M495.618 43.047 l0.192 0.213 -0.021 0.009 0.127 0.356 0.059 0.154 0.399 1.118 0.129 0.375 0.944 3.109 0.129 0.434 0.726 2.139 0.705 0.937 1.095 0.261 0.899 -0.44 1.01 -1.278 1.572 -3.425 1.581 -5.039 0.025 -0.262 -0.006 -0.481 -0.006 -0.095 -0.034 -0.138 -0.465 -1.629 -0.047 -0.001 -0.53 1.609 -0.038 0.095 -0.017 0.023 -0.135 0.413 -0.046 0.141 -1.665 4.824 -1.453 3.201 -0.684 0.903 -0.148 0.089 -0.125 -0.008 -0.297 -0.352 -0.713 -1.892 -0.139 -0.415 -1.109 -3.095 -0.18 -0.408 -0.57 -1.105 -0.12 -0.179 -0.272 -0.332 -0.107 -0.106 -0.363 -0.164" />
    <path class="write-flat-pen" fill="#FFFFFF" stroke-width="1.6" __comx="512.461" __comy="45.747" __timestamp="0x177f60d0b5c" d="M506.794 45.329 l-0.017 0.388 0.018 0.076 0.193 0.438 0.11 0.129 0.47 0.403 0.229 0.126 0.701 0.279 0.345 0.083 1.359 0.016 0.479 -0.087 2.928 -1.201 0.393 -0.271 1.052 -1.006 0.713 -1.273 0.102 -1.24 -0.441 -0.894 -1.091 -0.658 -1.558 -0.058 -1.594 0.633 -1.013 0.887 -1.164 1.699 -0.779 1.822 -0.445 2.033 0.083 1.587 0.667 1.807 0.896 1.129 1.226 0.799 1.571 0.404 1.667 -0.148 1.929 -0.887 0.443 -0.366 0.373 -0.394 0.313 -0.422 0.269 -0.448 0.212 -0.436 0.712 -1.469 -0.049 -0.037 -1.227 1.077 -0.348 0.3 -0.358 0.284 -0.356 0.25 -0.368 0.234 -0.318 0.178 -1.607 0.622 -1.162 0.1 -1.075 -0.268 -0.814 -0.518 -0.605 -0.74 -0.531 -1.362 -0.081 -1.164 0.356 -1.708 0.665 -1.566 0.98 -1.433 0.69 -0.602 1.081 -0.417 0.871 0.05 0.39 0.248 0.064 0.139 -0.043 0.508 -0.443 0.806 -0.795 0.795 -0.174 0.13 -2.608 1.241 -0.241 0.068 -1.125 0.119 -0.174 -0.011 -0.628 -0.116 -0.129 -0.03 -0.442 -0.189 -0.03 -0.005 -0.248 -0.226 0.003 0.031 -0.138 -0.324" />
    <path class="write-flat-pen" fill="#FFFFFF" stroke-width="1.6" __comx="532.562" __comy="45.747" __timestamp="0x177f60d0f1f" d="M525.744 29.51 l0.062 -0.581 0.015 -0.071 0.187 -0.708 0.049 -0.136 0.496 -1.075 0.101 -0.186 1.214 -1.763 0.187 -0.205 1.197 -1.024 1.498 -0.789 1.62 -0.4 1.477 -0.053 0.891 0.206 0.986 0.599 0.721 0.986 0.44 1.549 0.084 1.413 -0.339 2.229 -2.864 8.781 -0.437 2.181 0.095 1.605 0.586 1.033 1.979 0.778 0.602 -0.038 0.496 -0.109 0.501 -0.17 0.486 -0.206 0.473 -0.241 1.415 -0.721 -0.017 -0.06 -1.582 0.144 -0.509 0.043 -0.479 0.024 -0.456 0.003 -0.393 -0.017 -0.243 -0.043 -1.172 -0.603 -0.144 -0.271 -0.063 -1.046 0.37 -1.899 2.775 -8.838 0.371 -2.498 -0.113 -1.723 -0.571 -1.942 -1.054 -1.403 -1.419 -0.847 -1.289 -0.292 -1.805 0.077 -1.918 0.501 -1.758 0.979 -1.333 1.23 -0.284 0.351 -1.148 1.986 -0.119 0.291 -0.38 1.219 -0.039 0.237 -0.027 0.818 0.016 0.123 0.084 0.581" />
    <path class="write-flat-pen" fill="#FFFFFF" stroke-width="1.6" __comx="540.582" __comy="45.747" __timestamp="0x177f60d1198" d="M540.403 52.135 l-0.121 0.3 -0.017 0.066 -0.1 0.459 -0.007 0.028 -0.112 0.305 0.043 -0.158 0.194 -0.179 0.237 0.118 -0.231 -0.338 0.229 0.23 0.014 0.283 -0.294 0.119 0.368 -0.049 -0.455 -0.307 0.08 -0.205 -0.414 0.35 0.186 0.14 -0.754 0.294 -0.04 0.121 0.43 0.686 0.339 0.19 1.414 -0.752 0.582 -1.32 -1.049 -0.726 -1.074 0.253 -0.459 0.182 -0.197 1.092 0.263 0.265 0.455 0.313 0.315 0.162 0.492 -0.31 0.086 -0.264 -0.035 -0.455 -0.005 -0.048 -0.065 -0.455 -0.01 -0.046 -0.036 -0.307" />
    <path class="write-flat-pen" fill="#FFFFFF" stroke-width="1.6" __comx="73.729" __comy="170.466" __timestamp="0x178102972d5" d="M75.685 154.531 l0.584 -1.418 0.023 -0.057 0.473 -1.64 0.017 -0.186 -0.266 -1.371 -1.038 -0.802 -1.564 -0.009 -2.127 0.995 -1.796 1.575 -1.343 1.996 -0.644 2.155 0.358 1.782 1.084 1.431 2.971 1.826 5.393 2.322 2.058 1.313 1.382 1.517 0.578 1.437 0.118 1.93 -0.596 2.128 -1.019 1.597 -2.165 1.893 -2.164 1.087 -2.649 0.683 -3.733 0.143 -2.189 -0.498 -1.107 -0.664 -0.609 -0.843 -0.103 -0.66 1.184 -1.669 0.306 -0.222 0.965 -0.541 0.532 -0.266 2.223 -1.095 -0.031 -0.088 -2.419 0.535 -0.612 0.136 -1.135 0.386 -0.573 0.294 -1.863 2.134 0.196 1.585 0.977 1.363 1.547 0.924 2.585 0.576 4.06 -0.164 2.934 -0.757 2.448 -1.239 2.431 -2.146 1.223 -1.935 0.685 -2.545 -0.181 -2.358 -0.761 -1.828 -1.653 -1.795 -2.281 -1.456 -5.405 -2.324 -2.7 -1.648 -0.767 -1.021 -0.235 -1.2 0.503 -1.676 1.14 -1.714 1.532 -1.382 1.725 -0.872 0.964 -0.065 0.533 0.311 0.31 0.88 0.007 0.011 -0.184 1.615 -0.006 0.036 -0.326 1.498" />
    <path class="write-flat-pen" fill="#FFFFFF" stroke-width="1.6" __comx="91.874" __comy="170.466" __timestamp="0x178102974c7" d="M90.367 168.484 l-1.133 -0.366 -0.282 0.06 -1.246 0.723 -0.893 1.739 -0.27 2.018 0.423 2.065 1.237 1.691 1.587 0.834 2.217 -0.035 1.764 -0.774 1.934 -1.705 1.059 -1.748 0.442 -1.996 -0.45 -1.652 -1.004 -1.144 -1.723 -0.799 -1.99 -0.058 -1.168 1.008 -0.055 0.369 0.055 0.174 0.5 1.005 0.083 -0.004 0.406 -1.047 0.046 -0.031 -0.016 0.2 0.579 -0.281 1.225 0.063 1.202 0.552 0.608 0.675 0.297 1.014 -0.293 1.458 -0.819 1.402 -1.617 1.462 -1.345 0.613 -1.658 0.06 -1.088 -0.537 -0.97 -1.248 -0.386 -1.641 0.163 -1.683 0.612 -1.412 0.855 -0.642 -0.002 -0.012 1.023 0.076" />
    <path class="write-flat-pen" fill="#FFFFFF" stroke-width="1.6" __comx="101.721" __comy="170.466" __timestamp="0x178102975c6" d="M97.879 156.318 l0.191 3.197 0.182 0.754 5.622 17.204 1.612 1.627 0.076 -0.053 -0.887 -1.973 -5.629 -17.04 -0.19 -0.662 -0.451 -3.108" />
    <path class="write-flat-pen" fill="#FFFFFF" stroke-width="1.6" __comx="114.383" __comy="170.466" __timestamp="0x1781029776d" d="M106.563 165.072 l0.256 1.468 0.085 0.33 1.834 5.73 0.171 0.505 0.984 2.567 0.788 0.629 0 0 0.862 -0.202 0.576 -1.153 0.489 -4.512 0.69 -2.421 0.603 -0.639 0.533 -0.116 1.022 0.347 1.543 1.287 1.552 2.374 2.232 4.96 1.321 2.38 0.099 -0.033 -0.382 -2.746 -2.187 -5.148 -1.711 -2.611 -1.859 -1.55 -1.561 -0.526 -1.231 0.275 -1.055 1.134 -0.775 2.806 -0.461 4.408 -0.464 0.98 0.862 -0.202 0 0 -0.566 -0.415 -0.914 -2.245 -0.176 -0.479 -2.087 -5.625 -0.106 -0.294 -0.494 -1.389" />
    <path class="write-flat-pen" fill="#FFFFFF" stroke-width="1.6" __comx="97.992" __comy="170.466" __timestamp="0x178102978ca" d="M62.732 188.732 l-0.287 0.707 3.408 -0.547 1.159 -0.185 8.342 -0.722 13.925 -0.364 7.102 0.38 29.286 3.728 1.288 0.156 3.285 0.27 0.915 0.015 2.515 0.043 0.009 -0.097 -2.481 -0.412 -0.893 -0.15 -3.231 -0.541 -1.275 -0.222 -29.306 -3.995 -7.199 -0.375 -14.009 0.431 -8.406 0.856 -1.204 0.224 -3.369 0.808 0.427 0.707" />
    <path class="write-flat-pen" fill="#FFFFFF" stroke-width="1.6" __comx="141.593" __comy="170.466" __timestamp="0x17810297ab5" d="M142.07 182.326 l-0.424 -1.658 -0.396 -1.863 -0.106 0.01 -0.028 1.934 0.283 1.717" />
    <path class="write-flat-pen" fill="#FFFFFF" stroke-width="1.6" __comx="139.3" __comy="170.466" __timestamp="0x17810297b5d" d="M139.987 159.161 l-0.621 -3.246 0.057 -2.164 -0.133 -0.022 -0.677 2.191 0.571 3.387" />
    <path class="write-flat-pen" fill="#FFFFFF" stroke-width="1.6" __comx="183.913" __comy="170.466" __timestamp="0x17810298253" d="M174.691 179.492 l0.269 -0.502 0.05 -0.181 0.52 -2.272 0.136 -0.617 3.598 -21.205 0 0 -1.312 0.032 -0.007 -0.031 0.328 4.068 1.018 4.367 1.771 4.905 2.674 5.467 1.576 1.991 1.659 0.841 1.678 -0.179 1.748 -1.296 1.419 -2.293 1.19 -4.244 0.557 -5.737 -0.128 -4.763 -0.566 -2.895 -0.947 -1.44 -1.403 -0.256 -0.815 1.919 -0.002 0.529 0.136 0.912 0.146 0.502 0.644 2.193 0.12 -0.018 -0.018 -2.285 0.001 -0.479 0.055 -0.812 0.052 -0.23 0.459 -0.626 -0.276 -0.026 0.442 0.687 0.488 2.489 0.132 4.548 -0.526 5.519 -1.088 3.926 -1.157 1.892 -1.208 0.915 -0.877 0.105 -1.018 -0.506 -1.304 -1.626 -2.606 -5.252 -1.731 -4.757 -0.973 -4.194 -0.328 -4.056 -0.012 -0.054 -1.312 0.032 0 0 -3.32 21.237 -0.098 0.621 -0.254 2.333 -0.001 0.155 -0.01 0.531" />
    <path class="write-flat-pen" fill="#FFFFFF" stroke-width="1.6" __comx="201.275" __comy="170.466" __timestamp="0x17810298423" d="M201.8 167.591 l-1.111 -0.589 -0.245 -0.029 -1.507 0.298 -1.223 1.012 -0.664 1.394 0.127 1.708 1.094 1.5 1.502 0.751 1.718 0.049 1.663 -0.616 1.487 -1.274 0.86 -1.65 -0.003 -1.559 -0.672 -1.174 -1.531 -0.977 -1.511 -0.132 -1.256 1.192 -0.068 0.272 -0.261 1.836 0.127 0.049 1.035 -1.539 0.033 0.008 0.792 -0.484 0.659 0.088 0.987 0.636 0.344 0.585 0.016 0.888 -0.577 1.157 -1.112 0.988 -1.223 0.477 -1.219 -0.011 -1.028 -0.481 -0.771 -0.994 -0.122 -1.107 0.407 -0.96 0.831 -0.785 1.131 -0.352 0.003 -0.009 1.099 0.302" />
    <path class="write-flat-pen" fill="#FFFFFF" stroke-width="1.6" __comx="229.099" __comy="170.466" __timestamp="0x17810298781" d="M224.368 165.229 l2.183 -0.245 0.462 -0.038 4.271 -0.564 2.634 -0.521 -0.017 -0.147 -2.68 0.1 -4.288 0.337 -0.488 0.053 -2.165 0.524" />
    <path class="write-flat-pen" fill="#FFFFFF" stroke-width="1.6" __comx="266.035" __comy="170.466" __timestamp="0x17810298b4e" d="M260.372 150.586 l-0.48 -0.108 0.068 0.835 0.023 0.189 0.204 2.773 0.011 0.478 -0.738 12.775 0.273 3.351 0.859 2.261 1.549 1.79 1.748 0.974 2.349 0.5 3.572 -0.797 0.363 -0.201 0.263 -0.188 2.175 -1.561 -0.069 -0.129 -2.511 0.929 -0.279 0.1 -0.251 0.082 -3.241 0.474 -1.898 -0.448 -1.378 -0.771 -1.251 -1.436 -0.715 -1.87 -0.266 -3.082 0.478 -12.755 -0.045 -0.561 -0.466 -2.806 -0.064 -0.227 -0.334 -0.782 -0.375 0.32" />
    <path class="write-flat-pen" fill="#FFFFFF" stroke-width="1.6" __comx="263.581" __comy="170.466" __timestamp="0x17810298c41" d="M254.162 162.848 l-0.146 -0.326 -0.106 -0.328 -0.393 0.554 8.538 0.8 7.07 -0.4 0.844 -0.159 1.456 -0.322 2.546 -0.669 -0.016 -0.082 -2.608 0.308 -1.473 0.15 -0.813 0.083 -6.985 0.151 -8.493 -0.647 -0.393 0.554 0.174 0.298 0.146 0.326" />
    <path class="write-flat-pen" fill="#FFFFFF" stroke-width="1.6" __comx="279.539" __comy="170.466" __timestamp="0x17810298e5e" d="M278.806 169.187 l0.872 -0.857 0.105 -0.182 0.211 -0.937 -0.64 -0.883 -1.681 -0.203 -1.462 0.551 -1.45 1.355 -0.947 1.853 -0.449 2.312 0.27 1.585 1.083 1.098 1.569 -0.068 1.756 -1.254 2.423 -3.138 0.205 -0.089 0.323 0.34 2.351 4.465 0.465 0.14 1.87 0.412 0.035 -0.077 -1.536 -1.145 -0.082 -0.11 -2.076 -4.408 -1.054 -1.104 -1.292 0.568 -2.496 3.254 -1.311 0.944 -0.671 0.034 -0.446 -0.441 -0.182 -1 0.346 -1.947 0.756 -1.549 1.13 -1.102 1.02 -0.425 1.046 0.051 0.238 0.218 -0.009 0.48 0 0.026 -0.612 0.974" />
    <path class="write-flat-pen" fill="#FFFFFF" stroke-width="1.6" __comx="295.205" __comy="170.466" __timestamp="0x178102990af" d="M288.197 159.079 l-0.555 -0.195 0.223 1.103 0.074 0.273 1.279 4.212 0 0 0.836 4.843 0 0 0.133 4.01 0 0 1.069 0.33 4.022 -5.389 0 0 1.973 -3.617 0 0 -0.955 -0.758 -0.927 0.815 -1.103 2.424 -0.638 2.972 0.204 2.002 0.909 1.422 1.436 0.8 3.703 -0.31 0.366 -0.16 0.284 -0.161 2.251 -1.277 -0.036 -0.094 -2.528 0.557 -0.299 0.063 -0.231 0.039 -3.194 0.009 -0.811 -0.464 -0.566 -0.875 -0.166 -1.483 0.536 -2.642 0.912 -2.064 0.718 -0.646 -0.955 -0.758 0 0 -1.919 3.548 0 0 -3.942 5.341 1.069 0.33 0 0 -0.192 -4.086 0 0 -0.932 -4.98 0 0 -1.481 -4.222 -0.101 -0.267 -0.484 -1.019 -0.555 0.375" />
    <path class="write-flat-pen" fill="#FFFFFF" stroke-width="1.6" __comx="312.055" __comy="170.466" __timestamp="0x178102993c5" d="M306.669 168.926 l0.469 0.217 0.137 0.023 1.245 -0.003 0.291 -0.042 3.298 -1.688 0.192 -0.265 0.299 -1.16 -0.765 -1.039 -1.616 -0.348 -1.818 0.483 -1.476 1.223 -1.154 2.103 -0.365 1.963 0.261 2.041 1.074 2.109 1.488 1.179 2.127 0.608 2.515 -0.335 2.882 -1.38 0.424 -0.285 0.353 -0.275 2.175 -1.684 -0.085 -0.145 -2.538 1.06 -0.405 0.167 -0.41 0.18 -2.752 1.062 -2.052 0.235 -1.597 -0.454 -1.047 -0.819 -0.846 -1.629 -0.223 -1.6 0.27 -1.554 0.92 -1.709 1.062 -0.895 1.25 -0.344 0.864 0.172 0.158 0.188 -0.072 0.386 0.098 -0.134 -2.806 1.731 -0.107 0.035 -1.138 0.25 -0.053 0.016 -0.473 0.047" />
    <path class="write-flat-pen" fill="#FFFFFF" stroke-width="1.6" __comx="355.627" __comy="170.466" __timestamp="0x178102999d3" d="M349.289 168.35 l0.092 -0.33 -0.293 0.351 0.065 0.012 2.01 0.265 0.355 0.028 2.309 -0.162 1.723 -0.765 1.181 -1.442 0.37 -1.557 -0.374 -1.28 -1.216 -1.062 -1.535 -0.362 -1.937 0.356 -1.789 1.309 -1.229 1.976 -0.653 2.363 0.069 2.369 0.832 2.387 1.214 1.411 1.851 0.869 1.797 0.055 2.287 -0.785 3.525 -2.324 0.315 -0.216 0.287 -0.194 2.343 -1.553 -0.109 -0.217 -2.645 0.952 -0.348 0.125 -0.387 0.178 -3.556 2.015 -1.917 0.611 -1.257 -0.047 -1.319 -0.616 -0.852 -0.979 -0.694 -1.932 -0.08 -1.953 0.523 -1.99 0.974 -1.614 1.339 -1.008 1.39 -0.275 0.988 0.218 0.733 0.618 0.204 0.637 -0.211 1.001 -0.82 1.055 -1.297 0.624 -2.05 0.237 -0.282 -0.004 -2.066 0.01 -0.108 0.024 -0.293 0.351 0.16 0.303" />
    <path class="write-flat-pen" fill="#FFFFFF" stroke-width="1.6" __comx="367.248" __comy="170.466" __timestamp="0x17810299be0" d="M369.985 171.867 l-0.679 -3.287 -0.18 -0.29 -1.176 -1.014 -1.563 -0.426 -1.374 0.29 -1.083 0.936 -0.607 1.495 0.195 1.475 1.029 1.093 1.55 0.272 2.249 -0.539 0.645 0.218 0.6 1.054 0.426 2.942 -0.195 3.607 -0.755 3.338 -0.847 1.711 -0.691 0.479 -0.594 -0.061 -0.648 -0.622 -0.418 -1.308 0.471 -3.238 0.054 -0.171 0.084 -0.213 0.976 -2.36 -0.096 -0.057 -1.612 1.981 -0.165 0.206 -0.179 0.301 -0.8 3.619 0.554 1.923 1.198 1.185 1.529 0.146 1.339 -0.961 1.025 -2.151 0.761 -3.589 0.165 -3.823 -0.515 -3.258 -0.926 -1.588 -1.338 -0.444 -2.334 0.567 -0.98 -0.164 -0.558 -0.578 -0.127 -0.862 0.395 -1.018 0.69 -0.617 0.885 -0.202 1.134 0.284 0.935 0.75 0.033 0.043 0.912 3.078" />
    <path class="write-flat-pen" fill="#FFFFFF" stroke-width="1.6" __comx="360.402" __comy="170.466" __timestamp="0x17810299cc4" d="M359.114 181.215 l1.416 -1.061 1.615 -0.928 -0.037 -0.093 -1.866 0.47 -1.582 0.923" />
    <path class="write-flat-pen" fill="#FFFFFF" stroke-width="1.6" __comx="377.65" __comy="170.466" __timestamp="0x17810299da8" d="M377.031 175.833 l0.09 0.959 1.073 0.744 0.073 -0.066 -0.469 -0.966 -0.028 -0.723" />
    <path class="write-flat-pen" fill="#FFFFFF" stroke-width="1.6" __comx="138.396" __comy="257.417" __timestamp="0x1781029a452" d="M142.88 251.179 l0.817 -0.907 0.102 -0.15 0.781 -1.644 0.087 -0.307 0.23 -3.099 -0.112 -0.379 -0.759 -1.193 -1.637 -0.77 -1.925 0.012 -3.063 0.993 -3.184 1.96 -2.66 2.735 -2.025 3.05 -1.334 3.096 -0.676 3.502 0.089 2.67 0.637 2.175 1.154 1.717 1.42 0.902 2.031 0.18 2.164 -0.703 2.641 -1.908 2.249 -2.549 2.023 -3.342 1.348 -3.36 0 0 0.223 -1.983 0 0 -1.344 -0.285 -0.352 1.109 0.789 3.074 3.511 7.288 0.355 0.475 0.668 0.694 2.022 1.873 0.123 -0.102 -1.463 -2.318 -0.47 -0.776 -0.228 -0.407 -3.204 -7.196 -0.662 -2.566 0.228 -0.733 -1.344 -0.285 0 0 -0.204 1.797 0 0 -1.237 3.081 -1.901 3.139 -2.069 2.335 -2.341 1.686 -1.686 0.549 -1.409 -0.123 -0.887 -0.563 -0.872 -1.297 -0.53 -1.799 -0.082 -2.339 0.614 -3.203 1.221 -2.847 1.882 -2.844 2.45 -2.526 2.898 -1.797 2.711 -0.906 1.436 -0.039 1.082 0.452 0.535 0.723 0.019 0.031 0.049 2.827 -0.026 0.172 -0.498 1.644 -0.043 0.1 -0.595 1.033" />
    <path class="write-flat-pen" fill="#FFFFFF" stroke-width="1.6" __comx="162.418" __comy="257.417" __timestamp="0x1781029a581" d="M155.535 252.249 l1.579 -0.188 0.27 0.008 9.268 0.222 2.793 -0.278 0.002 -0.117 -2.775 -0.356 -9.275 -0.493 -0.391 0.016 -1.618 0.47" />
    <path class="write-flat-pen" fill="#FFFFFF" stroke-width="1.6" __comx="167.079" __comy="257.417" __timestamp="0x1781029a671" d="M162.382 260.034 l0.534 -0.51 0.013 0.009 6.047 -0.318 0.667 -0.068 2.665 -0.262 -0.001 -0.145 -2.667 -0.243 -0.682 -0.063 -6.161 0.163 -0.424 0.115 -0.523 0.934" />
    <path class="write-flat-pen" fill="#FFFFFF" stroke-width="1.6" __comx="193.051" __comy="257.417" __timestamp="0x1781029aa24" d="M186.082 252.594 l1.704 -0.025 0.363 -0.109 2.467 -1.212 2.609 -2.065 0 0 3.34 -4.237 0 0 -1.036 -0.378 -0.302 5.008 0.576 4.853 2.146 7.595 1.722 2.413 0.399 -0.204 -0.891 -2.688 -2.005 -7.39 -0.614 -4.634 0.126 -4.904 -1.036 -0.378 0 0 -3.176 4.209 0 0 -2.391 1.986 -2.261 1.257 -0.205 0.082 -1.585 0.284" />
    <path class="write-flat-pen" fill="#FFFFFF" stroke-width="1.6" __comx="201.761" __comy="257.417" __timestamp="0x1781029ab20" d="M191.358 267.245 l3.034 0.519 4.345 -0.311 9.672 -1.932 0.533 -0.101 0.522 -0.108 2.702 -0.55 -0.012 -0.121 -2.757 -0.03 -0.541 -0.007 -0.582 0.027 -9.685 1.699 -4.163 0.338 -2.943 -0.317" />
    <path class="write-flat-pen" fill="#FFFFFF" stroke-width="1.6" __comx="219.715" __comy="257.417" __timestamp="0x1781029ac79" d="M215.76 261.913 l1.585 0.511 0.259 0.177 1.958 1.736 1.692 2.396 1.025 2.663 0.571 3.06 0.034 0.352 0.223 2.699 0.115 0.004 0.389 -2.68 0.058 -0.424 -0.394 -3.275 -1.108 -2.892 -1.879 -2.572 -2.168 -1.777 -0.448 -0.258 -1.779 -0.285" />
    <path class="write-flat-pen" fill="#FFFFFF" stroke-width="1.6" __comx="247.732" __comy="257.417" __timestamp="0x1781029b075" d="M239.046 244.237 l-0.537 -0.166 0.713 1.92 0.185 0.517 1.757 5.478 1.178 5.53 0 0 0.995 7.56 0 0 1.234 -0.038 0.316 -3.704 0.66 -2.418 1.09 -2.004 1.131 -0.892 1.153 -0.328 1.495 0.154 1.958 0.873 1.793 1.439 0.959 1.335 0.513 1.633 -0.164 1.332 -0.831 1.327 -1.78 1.24 -2.365 0.762 -2.607 0.186 -1.035 -0.337 -0.24 -0.267 0.315 -1.366 0.129 -0.195 0.593 -0.66 1.579 -1.677 -0.059 -0.074 -1.99 1.181 -0.794 0.519 -0.387 0.345 -0.88 2.2 0.931 1.17 1.673 0.545 3.037 -0.231 2.707 -0.887 2.162 -1.518 1.123 -1.812 0.226 -1.909 -0.678 -2.098 -1.189 -1.641 -2.061 -1.651 -2.296 -1.027 -1.947 -0.206 -1.642 0.462 -1.548 1.214 -1.288 2.376 -0.723 2.684 -0.274 3.828 1.234 -0.038 0 0 -1.144 -7.581 0 0 -1.271 -5.609 -1.931 -5.5 -0.229 -0.545 -0.971 -1.827 -0.537 0.396" />
    <path class="write-flat-pen" fill="#FFFFFF" stroke-width="1.6" __comx="269.312" __comy="257.417" __timestamp="0x1781029b197" d="M263.201 253.245 l1.036 -0.204 0.264 0.005 8.367 -0.072 2.749 -0.161 0.005 -0.124 -2.738 -0.4 -8.396 -0.175 -0.415 0.027 -1.075 0.507" />
    <path class="write-flat-pen" fill="#FFFFFF" stroke-width="1.6" __comx="272.931" __comy="257.417" __timestamp="0x1781029b277" d="M267.887 258.789 l7.411 0.128 2.678 -0.315 -0.003 -0.125 -2.674 -0.178 -7.391 -0.274" />
    <path class="write-flat-pen" fill="#FFFFFF" stroke-width="1.6" __comx="295.645" __comy="257.417" __timestamp="0x1781029b3e5" d="M288.334 253.552 l0.748 -0.082 0.198 -0.005 11.139 -0.718 2.674 -0.4 -0.005 -0.097 -2.702 -0.105 -11.174 0.527 -0.28 0.05 -0.737 0.347" />
    <path class="write-flat-pen" fill="#FFFFFF" stroke-width="1.6" __comx="313.159" __comy="257.417" __timestamp="0x1781029b603" d="M307.69 248.359 l-0.278 0.535 1.255 -0.411 0.353 -0.184 0 0 6.125 -5.031 0 0 -0.888 -0.535 -0.768 3.231 -0.127 3.687 0.669 5.292 1.064 4.196 1.133 2.46 1.359 1.024 1.573 -0.002 0.022 -0.064 -1.039 -0.894 -0.813 -0.885 -0.959 -2.09 -1.022 -3.996 -0.679 -5.106 0.063 -3.472 0.597 -3.15 -0.888 -0.535 0 0 -5.964 5.079 0 0 -0.228 0.136 -1.109 0.641 0.365 0.72" />
    <path class="write-flat-pen" fill="#FFFFFF" stroke-width="1.6" __comx="318.196" __comy="257.417" __timestamp="0x1781029b6e4" d="M306.479 263.454 l17.481 -0.201 0.857 -0.124 1.744 -0.372 0.848 -0.234 2.511 -0.691 -0.012 -0.06 -2.581 0.347 -0.861 0.115 -1.74 0.185 -0.806 0.037 -17.446 -0.012" />
    <path class="write-flat-pen" fill="#FFFFFF" stroke-width="1.6" __comx="113.35" __comy="345.59" __timestamp="0x1781029bd52" d="M106.939 344.917 l0.139 3.681 0.045 0.594 1.65 9.933 0.087 0.339 0.641 1.829 1.122 -0.277 -0.187 -3.92 -1.935 -9.024 -2.963 -9.617 -1.556 -6.663 0.006 -1.51 0.707 -1.418 1.691 -1.463 2.697 -1.349 2.615 -0.733 3.456 -0.27 2.36 0.377 2.246 0.916 2.364 2.057 0.209 0.306 0.456 0.857 1.155 2.311 0.101 -0.036 -0.564 -2.535 -0.281 -1.004 -0.252 -0.536 -2.483 -2.504 -2.584 -1.111 -2.671 -0.439 -3.747 0.284 -2.866 0.803 -2.963 1.481 -2.022 1.751 -0.959 1.942 0.002 1.977 1.65 6.848 3.056 9.582 2.02 8.869 0.249 3.072 0.398 -0.069 -0.42 -1.023 -0.077 -0.27 -1.915 -9.831 -0.072 -0.566 -0.414 -3.654" />
    <path class="write-flat-pen" fill="#FFFFFF" stroke-width="1.6" __comx="108.756" __comy="345.59" __timestamp="0x1781029be3a" d="M99.387 347.405 l1.853 -0.654 13.699 -1.432 0.874 -0.149 2.589 -0.434 -0.011 -0.129 -2.625 -0.007 -0.892 -0.004 -13.857 1.251 -1.906 0.881" />
    <path class="write-flat-pen" fill="#FFFFFF" stroke-width="1.6" __comx="132.765" __comy="345.59" __timestamp="0x1781029bfda" d="M133.094 334.202 l-0.97 1.146 -0.189 0.345 -2.421 5.245 -1.148 4.141 -0.428 4.525 0.411 3.493 0.978 2.96 1.375 2.173 2.514 1.488 0.686 0.148 1.231 -0.021 2.456 -0.215 0.002 -0.091 -2.429 -0.312 -1.116 -0.192 -0.451 -0.167 -2.072 -1.446 -1.124 -1.863 -0.889 -2.718 -0.394 -3.252 0.369 -4.308 1.042 -3.983 2.189 -5.235 0.125 -0.283 0.716 -1.248" />
    <path class="write-flat-pen" fill="#FFFFFF" stroke-width="1.6" __comx="146.442" __comy="345.59" __timestamp="0x1781029c1d3" d="M146.535 347.344 l-0.438 -2.263 -0.084 -0.182 -0.962 -1.135 -1.516 -0.462 -1.571 0.292 -1.425 1.061 -0.982 1.691 -0.672 2.665 0.05 2.617 0.691 2.084 1.069 1.326 1.528 0.582 1.872 -0.464 1.541 -1.353 1.288 -2.227 0 0 1.094 -3.329 0 0 -1.138 0.041 1.544 3.832 1.489 2.193 1.659 0.897 2.383 0.373 0.042 -0.129 -2.037 -1.065 -1.201 -0.936 -1.236 -1.913 -1.52 -3.708 -1.138 0.041 0 0 -1.036 3.215 0 0 -1.132 1.943 -1.177 1.022 -1.219 0.296 -0.865 -0.33 -0.727 -0.897 -0.571 -1.7 -0.052 -2.274 0.582 -2.352 0.766 -1.349 1.01 -0.778 1.047 -0.228 0.999 0.238 0.763 0.741 -0.006 -0.023 0.685 2.103" />
    <path class="write-flat-pen" fill="#FFFFFF" stroke-width="1.6" __comx="156.315" __comy="345.59" __timestamp="0x1781029c2ff" d="M151.386 335.466 l1.302 0.739 0.205 0.184 2.081 2.214 1.908 2.905 1.682 3.586 1.044 3.807 0.361 3.488 -0.26 2.408 -0.853 2.358 -1.613 1.982 -0.016 0.027 -1.916 1.768 0.051 0.076 2.363 -1.101 0.125 -0.068 2.039 -2.054 1.051 -2.694 0.305 -2.698 -0.386 -3.728 -1.112 -4.012 -1.796 -3.755 -2.084 -3.028 -2.309 -2.222 -0.361 -0.269 -1.514 -0.559" />
    <path class="write-flat-pen" fill="#FFFFFF" stroke-width="1.6" __comx="177.021" __comy="345.59" __timestamp="0x1781029c4ad" d="M169.867 345.719 l11.609 -0.231 2.71 -0.225 0 -0.083 -2.714 -0.223 -11.615 0.121" />
    <path class="write-flat-pen" fill="#FFFFFF" stroke-width="1.6" __comx="181.746" __comy="345.59" __timestamp="0x1781029c58d" d="M175.886 350.893 l-0.469 0.355 10.015 -1.079 2.718 -0.378 -0.005 -0.131 -2.761 -0.161 -10.041 1.037 0.037 0.862" />
    <path class="write-flat-pen" fill="#FFFFFF" stroke-width="1.6" __comx="213.56" __comy="345.59" __timestamp="0x1781029cce5" d="M207.336 342.912 l0.611 -0.097 0.152 -0.022 2.287 -0.82 0.402 -0.213 2.806 -2.036 0 0 2.392 -2.49 0 0 1.656 -2.776 0 0 -1.142 -0.416 -0.539 2.862 0.281 5.263 2.112 9.914 1.494 1.774 0.094 -0.044 -0.348 -2.145 -1.975 -9.682 -0.321 -5.006 0.419 -2.728 -1.142 -0.416 0 0 -1.536 2.688 0 0 -2.204 2.348 0 0 -2.61 2.024 -0.283 0.172 -2.081 1.03 -0.126 0.052 -0.557 0.341" />
    <path class="write-flat-pen" fill="#FFFFFF" stroke-width="1.6" __comx="221.081" __comy="345.59" __timestamp="0x1781029cdf8" d="M211.3 357.179 l1.828 -0.162 0.439 -0.069 6.104 -1.383 8.035 -0.661 0.391 -0.026 2.846 -0.161 0.008 -0.162 -2.815 -0.45 -0.439 -0.069 -8.191 0.475 -6.123 1.6 -0.401 0.095 -1.773 0.421" />
    <path class="write-flat-pen" fill="#FFFFFF" stroke-width="1.6" __comx="206.66" __comy="345.59" __timestamp="0x1781029d090" d="M206.136 331.964 l-0.904 0.232 -0.206 0.132 -2.223 2.282 -0.364 0.558 -1.109 2.699 -0.654 3.996 0.257 4.862 0.818 3.739 1.764 4.415 1.609 2.55 3.398 2.709 0.797 0.3 0.824 0.195 2.463 0.584 0.037 -0.112 -2.319 -1.014 -0.744 -0.329 -0.62 -0.325 -3.006 -2.722 -1.407 -2.353 -1.657 -4.246 -0.781 -3.552 -0.257 -4.641 0.582 -3.755 0.957 -2.521 0.244 -0.415 1.903 -2.342 0.052 -0.056 0.725 -0.435" />
    <path class="write-flat-pen" fill="#FFFFFF" stroke-width="1.6" __comx="237.396" __comy="345.59" __timestamp="0x1781029d248" d="M232.046 329.65 l0.989 1.458 0.323 0.371 3.337 4.036 2.642 4.153 1.191 2.772 0.9 3.746 0.243 3.656 -0.371 3.115 -0.974 2.647 -1.363 1.979 -2.564 2.056 -0.277 0.155 -2.33 1.244 0.04 0.099 2.542 -0.718 0.397 -0.117 2.915 -2.014 1.577 -2.191 1.08 -2.889 0.401 -3.339 -0.254 -3.846 -0.945 -3.923 -1.265 -2.935 -2.763 -4.261 -3.506 -4.006 -0.335 -0.343 -1.184 -1.263" />
    <path class="write-flat-pen" fill="#FFFFFF" stroke-width="1.6" __comx="248.95" __comy="345.59" __timestamp="0x1781029d466" d="M243.637 325.742 l0.399 -1.237 0.993 -1.007 1.54 -0.634 1.229 0.014 0.903 0.514 0.416 0.738 -0.014 1.283 -0.69 1.861 -1.736 2.461 -0.182 1.443 1.052 0.899 4.349 0.267 0.25 -0.005 2.678 -0.003 0.025 -0.149 -2.535 -0.863 -0.279 -0.093 -3.965 -0.432 -0.232 -0.166 0.022 -0.461 1.574 -2.377 0.759 -2.196 -0.031 -1.757 -0.733 -1.203 -1.386 -0.733 -1.669 0.032 -1.859 0.837 -1.185 1.35 -0.278 1.472" />
    <path class="write-flat-pen" fill="#FFFFFF" stroke-width="1.6" __comx="178.265" __comy="406.849" __timestamp="0x1781029d749" d="M172.357 402.375 l0.302 -0.411 -0.055 0.023 9.218 0.444 2.773 -0.232 0.002 -0.108 -2.751 -0.328 -9.254 -0.531 -0.438 0.056 -0.218 0.921" />
    <path class="write-flat-pen" fill="#FFFFFF" stroke-width="1.6" __comx="181.622" __comy="406.849" __timestamp="0x1781029d832" d="M177.292 406.799 l-0.357 0.644 6.702 0.661 2.664 -0.032 0.008 -0.111 -2.623 -0.406 -6.682 -0.755 0.289 0.644" />
    <path class="write-flat-pen" fill="#FFFFFF" stroke-width="1.6" __comx="210.948" __comy="406.849" __timestamp="0x1781029da93" d="M204.737 398.286 l0.386 0.758 0.361 0.112 2.554 -0.866 0.515 -0.356 6.861 -6.906 0 0 1.286 -0.761 0 0 -0.908 -0.578 -0.784 6.322 -0.268 8.429 0.327 6.532 0.918 2.882 0.253 0.123 0.869 0.086 0.051 -0.066 -0.307 -0.818 0.117 0.018 -0.514 -2.444 -0.324 -6.327 0.229 -8.32 0.623 -6.285 -0.908 -0.578 0 0 -1.386 0.872 0 0 -6.817 7.026 -0.327 0.249 -2.109 0.982 0.111 0.046 -0.461 -0.391" />
    <path class="write-flat-pen" fill="#FFFFFF" stroke-width="1.6" __comx="218.284" __comy="406.849" __timestamp="0x1781029db7c" d="M207.153 416.179 l1.878 0.886 3.938 0.43 12.459 -1.077 0.619 -0.053 0.64 -0.054 2.724 -0.219 0.002 -0.113 -2.714 -0.32 -0.651 -0.078 -0.661 -0.035 -12.409 0.851 -3.702 -0.304 -1.805 -0.671" />
    <path class="write-flat-pen" fill="#FFFFFF" stroke-width="1.6" __comx="371.105" __comy="345.951" __timestamp="0x1781029e6b7" d="M366.68 359.114 l-0.041 0.218 -0.213 0.41 0.689 0.009 0.014 -0.029 0.008 -1.758 -0.024 -0.471 -1.229 -8.05 -0.153 -0.824 -1.014 -6.229 -0.33 -5.329 0.372 -3.104 0.896 -2.938 0.827 -1.28 1.211 -0.935 1.705 -0.599 1.68 0.018 1.969 0.698 2.021 1.469 1.569 2.095 1.455 3.856 0.064 0.256 0.17 0.694 0.663 2.677 0.12 -0.011 0.182 -2.768 -0.006 -0.752 -0.039 -0.385 -1.323 -4.239 -1.794 -2.483 -2.368 -1.753 -2.412 -0.864 -2.2 -0.027 -2.191 0.764 -1.612 1.247 -1.077 1.683 -0.977 3.274 -0.372 3.371 0.395 5.529 1.108 6.302 0.166 0.822 1.493 7.946 0.052 0.418 0.259 1.772 0.031 0.062 0.689 0.009 -0.032 -0.461 0.043 -0.226" />
    <path class="write-flat-pen" fill="#FFFFFF" stroke-width="1.6" __comx="367.483" __comy="345.951" __timestamp="0x1781029e7a1" d="M358.037 346.275 l3.769 -0.45 0.658 -0.061 11.257 -0.524 0.574 -0.054 2.752 -0.243 0.003 -0.173 -2.742 -0.337 -0.596 -0.074 -11.325 0.329 -0.718 0.084 -3.754 0.714" />
    <path class="write-flat-pen" fill="#FFFFFF" stroke-width="1.6" __comx="391.512" __comy="345.951" __timestamp="0x1781029e96c" d="M389.016 333.403 l0.389 -0.441 -0.792 -0.165 -0.012 0.093 -0.622 3.42 -0.184 0.745 -1.255 5.747 -0.473 5.242 0.289 3.775 0.979 3.201 1.469 2.491 1.796 1.785 2.786 1.137 0.513 0.068 0.458 -0.008 2.589 -0.052 0.012 -0.113 -2.523 -0.584 -0.402 -0.097 -0.35 -0.114 -2.378 -1.237 -1.474 -1.567 -1.287 -2.238 -0.887 -2.918 -0.274 -3.523 0.427 -5.061 1.136 -5.682 0.169 -0.787 0.373 -3.603 -0.034 -0.187 -0.792 -0.165 -0.149 0.569" />
    <path class="write-flat-pen" fill="#FFFFFF" stroke-width="1.6" __comx="404.338" __comy="345.951" __timestamp="0x1781029eb81" d="M397.291 337.886 l-0.258 0.625 0.026 0.279 0.775 3.157 0.187 0.59 3.954 13.378 0 0 0.694 0.973 0 0 1.124 -0.169 1.85 -5.525 0.649 -1.021 0.775 -0.411 0.954 0.088 1.154 0.689 0.751 1.05 0.4 1.599 -0.269 1.296 -0.837 1.129 -1.265 0.753 -1.489 0.272 -1.4 -0.395 -1.863 -1.045 -0.099 0.114 1.439 1.805 1.796 0.829 2.074 -0.347 1.691 -1.009 1.16 -1.567 0.38 -1.865 -0.541 -2.117 -1.052 -1.457 -1.628 -0.969 -1.615 -0.151 -1.408 0.743 -0.911 1.437 -1.907 5.669 1.124 -0.169 0 0 -0.577 -0.797 0 0 -4.06 -13.145 -0.209 -0.577 -1.02 -3.014 -0.036 -0.082 -0.007 -0.531" />
    <path class="write-flat-pen" fill="#FFFFFF" stroke-width="1.6" __comx="417.386" __comy="345.951" __timestamp="0x1781029ecaa" d="M412.039 333.926 l1.342 1.958 0.256 0.368 4.8 7.498 0.421 0.739 1.426 2.939 0.913 3.48 0.246 3.521 -0.775 4.07 -0.141 0.397 -0.154 0.413 -0.962 2.533 0.118 0.062 1.555 -2.22 0.265 -0.378 0.273 -0.481 1.111 -4.298 -0.244 -3.832 -0.988 -3.722 -1.52 -3.083 -0.469 -0.806 -5.069 -7.403 -0.303 -0.377 -1.561 -1.798" />
    <path class="write-flat-pen" fill="#FFFFFF" stroke-width="1.6" __comx="440.29" __comy="345.951" __timestamp="0x1781029ee33" d="M433.463 347.011 l3.211 0.016 0.519 0.062 6.765 0.108 0.468 -0.067 2.717 -0.388 -0.005 -0.113 -2.74 -0.15 -0.444 -0.027 -6.693 -0.322 -0.553 -0.055 -3.271 0.262" />
    <path class="write-flat-pen" fill="#FFFFFF" stroke-width="1.6" __comx="441.982" __comy="345.951" __timestamp="0x1781029ef0e" d="M437.218 353.319 l7.003 -0.721 2.584 -0.326 -0.003 -0.08 -2.616 -0.103 -7.023 0.652" />
    <path class="write-flat-pen" fill="#FFFFFF" stroke-width="1.6" __comx="470.142" __comy="345.951" __timestamp="0x1781029f0dd" d="M468.2 332.893 l-0.411 0.262 -0.145 0.197 -2.679 4.688 -0.318 0.831 -0.874 3.685 -0.269 4.333 0.67 4.386 1.114 3.055 1.955 3.102 1.702 1.633 3.866 1.424 0.753 0.006 0.667 -0.074 2.55 -0.281 -0.001 -0.116 -2.553 -0.248 -0.637 -0.065 -0.576 -0.09 -3.419 -1.541 -1.385 -1.419 -1.764 -2.892 -1.017 -2.814 -0.637 -4.126 0.218 -4.097 0.769 -3.524 0.245 -0.689 2.391 -4.717 0.051 -0.113 0.19 -0.351" />
    <path class="write-flat-pen" fill="#FFFFFF" stroke-width="1.6" __comx="480.273" __comy="345.951" __timestamp="0x1781029f1d7" d="M475.572 348.383 l6.745 0.224 2.653 -0.128 0.005 -0.11 -2.635 -0.364 -6.749 -0.213" />
    <path class="write-flat-pen" fill="#FFFFFF" stroke-width="1.6" __comx="494.597" __comy="345.951" __timestamp="0x1781029f402" d="M489.763 342.506 l0.034 -0.644 0.005 0.029 2.404 -1.993 0.327 -0.217 4.791 -3.034 0 0 1.434 -0.469 0 0 -0.691 -0.532 -0.5 6.551 0.173 5.597 0.838 4.127 1.388 2.43 0.092 -0.032 -0.363 -2.694 -0.697 -3.972 -0.204 -5.439 0.322 -6.502 -0.691 -0.532 0 0 -1.551 0.526 0 0 -4.875 3.172 -0.384 0.272 -2.374 2.338 -0.106 0.284 0.242 0.788" />
    <path class="write-flat-pen" fill="#FFFFFF" stroke-width="1.6" __comx="499.725" __comy="345.951" __timestamp="0x1781029f53f" d="M490.012 356.855 l2.096 -0.069 0.513 0 13.568 -0.558 0.61 -0.077 2.7 -0.336 -0.003 -0.086 -2.717 -0.144 -0.612 -0.033 -13.572 0.312 -0.542 0.028 -2.101 0.346" />
    <path class="write-flat-pen" fill="#FFFFFF" stroke-width="1.6" __comx="517.126" __comy="345.951" __timestamp="0x1781029f6f1" d="M511.811 330.189 l2.025 2.518 0.445 0.531 3.118 4.115 1.768 3.155 1.457 3.922 0.626 3.997 -0.05 3.279 -0.511 2.348 -1.282 2.87 -1.596 2.202 -3.171 2.706 -0.196 0.132 -0.191 0.128 -2.265 1.511 0.045 0.088 2.552 -0.951 0.225 -0.084 0.29 -0.133 3.509 -2.627 1.814 -2.375 1.408 -3.091 0.563 -2.588 0.047 -3.501 -0.67 -4.214 -1.557 -4.11 -1.894 -3.279 -3.276 -4.126 -0.482 -0.536 -2.226 -2.345" />
    <path class="write-flat-pen" fill="#FFFFFF" stroke-width="1.6" __comx="530.684" __comy="345.951" __timestamp="0x1781029f97c" d="M525.173 320.636 l0.93 -0.432 0.039 -0.001 2.594 -0.031 -0.071 -0.029 0.323 0.466 -0.186 0.88 -2.348 3.779 -0.528 1.966 0.876 1.273 5.883 0.93 0.385 0.054 0.668 0.127 2.616 0.524 0.034 -0.101 -2.412 -1.162 -0.667 -0.287 -0.429 -0.127 -5.349 -1.093 -0.271 -0.377 0.305 -1.26 2.259 -3.864 0.232 -1.531 -0.788 -0.943 -0.346 -0.163 -2.905 0.325 -0.187 0.073 -0.848 0.707" />
    <path class="write-flat-pen" fill="#FFFFFF" stroke-width="1.6" __comx="438.591" __comy="402.612" __timestamp="0x1781029fd33" d="M431.658 403.791 l0.514 -0.259 0.116 0.002 10.846 -0.659 2.648 -0.477 -0.011 -0.11 -2.678 0.049 -10.871 0.494 -0.335 0.063 -0.488 0.594" />
    <path class="write-flat-pen" fill="#FFFFFF" stroke-width="1.6" __comx="441.039" __comy="402.612" __timestamp="0x1781029fe1b" d="M434.665 408.044 l10.092 -0.609 2.692 -0.37 -0.006 -0.132 -2.718 -0.107 -10.098 0.558" />
    <path class="write-flat-pen" fill="#FFFFFF" stroke-width="1.6" __comx="485.851" __comy="399.987" __timestamp="0x178102a05ac" d="M479.769 402.064 l1.334 -0.033 0.302 -0.041 3.734 -1.543 0.508 -0.34 0 0 4.338 -3.854 0 0 0.495 -0.062 -0.749 -0.67 -0.333 5.16 1.438 12.662 0.044 0.193 0.093 0.337 0.777 2.807 0.171 -0.021 0.07 -2.914 0.006 -0.348 -0.002 -0.185 -1.187 -12.567 0.21 -5.056 -0.749 -0.67 -0.852 0.16 0 0 -4.468 4.152 0 0 -0.354 0.259 -3.439 1.714 -0.177 0.049 -1.277 0.303" />
    <path class="write-flat-pen" fill="#FFFFFF" stroke-width="1.6" __comx="494.806" __comy="416.943" __timestamp="0x178102a069e" d="M482.078 417.982 l7.447 -0.272 0.919 -0.003 14.026 -0.589 0.516 -0.163 2.592 -0.836 -0.026 -0.133 -2.717 0.195 -0.469 0.028 -13.948 0.396 -0.929 0.016 -7.456 0.541" />
    <path class="write-flat-pen" fill="#FFFFFF" stroke-width="1.6" __comx="80.236" __comy="499.635" __timestamp="0x178102a0e15" d="M88.13 482.664 l0.277 -2.417 -0.136 -0.292 -0.744 -0.709 -1.791 -0.143 -3.54 1.225 -3.176 1.799 -1.625 1.628 -0.818 1.713 0.078 1.706 0.952 1.45 1.824 1.267 4.84 2.086 1.94 1.306 1.536 1.882 0.555 1.609 -0.089 1.858 -0.817 2.024 -1.217 1.583 -2.526 2.035 -3.029 1.528 -2.988 0.802 -2.287 0.111 -1.497 -0.535 -0.827 -0.85 -0.58 -1.343 -0.123 -1.452 1.12 -3.167 0.225 -0.322 0.676 -0.819 0.395 -0.444 1.769 -1.96 -0.096 -0.11 -2.172 1.501 -0.519 0.359 -0.853 0.761 -0.41 0.455 -1.528 3.531 0.127 2.002 0.765 1.809 1.243 1.278 2.077 0.734 2.718 -0.148 3.265 -0.9 3.272 -1.683 2.739 -2.251 1.403 -1.864 0.931 -2.402 0.075 -2.309 -0.721 -2.027 -1.79 -2.18 -2.179 -1.47 -4.826 -2.092 -1.527 -1.065 -0.637 -0.971 -0.049 -1.065 0.59 -1.254 1.35 -1.381 2.926 -1.707 3.214 -1.22 1.269 -0.001 0.444 0.315 -0.018 -0.056 0 2.218" />
    <path class="write-flat-pen" fill="#FFFFFF" stroke-width="1.6" __comx="95.13" __comy="499.635" __timestamp="0x178102a0fc7" d="M94.798 503.518 l-0.18 -1.534 -0.185 -0.235 -0.97 -0.587 -1.43 0.062 -1.379 0.996 -0.652 1.467 0.02 1.904 0.897 2.241 1.171 1.368 1.893 0.857 1.643 -0.078 1.563 -0.757 1.624 -1.734 0.987 -2.042 0.459 -2.393 -0.27 -2.427 -0.865 -1.628 -1.528 -0.933 -1.351 1.469 -0.111 0.554 0.081 0.855 0.368 2.057 0.157 -0.001 0.336 -2.039 0.155 -0.7 0.067 -0.109 0.491 -0.334 0.27 0.181 0.574 1.054 0.245 1.953 -0.37 2.017 -0.813 1.702 -1.307 1.413 -1.096 0.54 -1.061 0.06 -1.356 -0.593 -0.868 -0.983 -0.783 -1.825 -0.066 -1.43 0.392 -0.986 0.862 -0.685 0.838 -0.095 0.625 0.288 -0.044 -0.065 0.402 1.272" />
    <path class="write-flat-pen" fill="#FFFFFF" stroke-width="1.6" __comx="143.978" __comy="499.635" __timestamp="0x178102a12d1" d="M146.724 499.728 l-0.233 -1.478 -0.117 -0.278 -1.685 -1.739 -0.541 -0.122 -2.064 0.172 -2.336 1.071 -1.769 1.61 -1.101 1.944 -0.457 2.177 0.226 2.081 1.033 1.982 1.365 1.07 1.768 0.201 1.846 -0.736 1.897 -1.877 1.299 -2.142 1.109 -3.171 0 0 -0.028 -1.269 0 0 -1.295 -0.347 -0.635 1.018 -0.21 2.694 0.581 3.05 1.085 2.177 1.165 1.002 1.709 0.056 0.412 -0.234 0.296 -0.258 1.496 -1.326 -0.062 -0.106 -1.882 0.673 -0.317 0.105 -0.123 0.003 -0.951 -0.219 -0.594 -0.571 -0.866 -1.763 -0.511 -2.671 0.161 -2.164 0.44 -0.736 -1.295 -0.347 0 0 0.032 1.016 0 0 -0.965 2.8 -1.132 1.876 -1.578 1.566 -1.271 0.51 -1.051 -0.11 -0.844 -0.649 -0.801 -1.498 -0.197 -1.627 0.357 -1.784 0.888 -1.608 1.462 -1.373 1.965 -0.962 1.697 -0.236 0.104 0.007 1.554 1.242 0.05 0.07 0.479 1.341" />
    <path class="write-flat-pen" fill="#FFFFFF" stroke-width="1.6" __comx="159.905" __comy="499.635" __timestamp="0x178102a13e3" d="M153.112 496.515 l2 0.202 0.401 -0.002 8.418 -0.58 2.767 -0.687 -0.015 -0.119 -2.827 -0.005 -8.386 0.474 -0.357 0.023 -1.98 0.07" />
    <path class="write-flat-pen" fill="#FFFFFF" stroke-width="1.6" __comx="161.427" __comy="499.635" __timestamp="0x178102a14c4" d="M154.251 500.767 l0.742 0.457 0.298 0.078 5.026 0.202 0.595 -0.043 5.07 -0.995 2.621 -1.069 -0.026 -0.105 -2.786 0.27 -5.022 0.77 -0.49 0.042 -4.901 0.077 -0.144 -0.008 -0.76 -0.193" />
    <path class="write-flat-pen" fill="#FFFFFF" stroke-width="1.6" __comx="161.93" __comy="499.635" __timestamp="0x178102a15b9" d="M158.24 491.755 l-0.586 -0.032 0.206 0.572 0.18 0.309 6.235 9.965 1.814 2.156 0.117 -0.073 -1.147 -2.574 -6.272 -9.963 -0.227 -0.287 -0.436 -0.412 -0.42 0.505" />
    <path class="write-flat-pen" fill="#FFFFFF" stroke-width="1.6" __comx="185.906" __comy="499.635" __timestamp="0x178102a18ad" d="M177.798 489.016 l0.615 1.61 0.17 0.384 3.24 7.901 0.22 0.69 1.403 5.263 1.236 0.355 1.207 -2.672 1.282 -1.518 1.406 -0.934 1.422 -0.387 1.043 0.196 0.735 0.557 0.706 1.345 0.155 1.393 -0.305 1.058 -0.681 0.679 -1.104 0.348 -1.671 -0.262 -1.735 -0.84 -2.487 -1.961 -0.126 -0.021 -0.929 -0.051 -0.066 0.099 0.406 0.837 0.012 0.071 2.425 2.201 2.078 1.014 2.205 0.34 1.738 -0.561 1.16 -1.181 0.458 -1.66 -0.226 -1.906 -0.965 -1.829 -1.223 -0.927 -1.654 -0.313 -1.93 0.52 -1.75 1.159 -1.53 1.81 -0.802 1.818 0.56 0.172 -1.312 -4.555 -0.256 -0.762 -3.517 -7.866 -0.211 -0.385 -0.864 -1.484" />
    <path class="write-flat-pen" fill="#FFFFFF" stroke-width="1.6" __comx="225.399" __comy="499.635" __timestamp="0x178102a1b96" d="M217.303 488.488 l0.528 3.211 0.226 0.687 4.194 13.49 0.197 0.326 0 0 0.328 0.25 0 0 0.951 -0.343 0.755 -2.79 0.991 -1.846 1.203 -1.218 1.385 -0.621 1.444 0.046 1.167 0.554 1.028 1.17 0.519 1.33 0.008 1.334 -0.547 1.08 -1.197 0.942 -2.233 0.71 -2.295 0.028 -2.095 -0.523 0.033 0.23 -0.055 -0.055 -0.347 -1.017 -0.071 -0.003 -0.426 0.986 -0.066 0.229 0.114 0.466 2.719 1.001 2.702 -0.039 2.64 -0.854 1.594 -1.277 0.797 -1.613 -0.028 -1.868 -0.69 -1.743 -1.34 -1.526 -1.63 -0.776 -1.989 -0.071 -1.87 0.822 -1.506 1.514 -1.144 2.142 -0.759 2.942 0.951 -0.343 0 0 -0.147 -0.09 0 0 -0.001 0.008 -4.414 -13.275 -0.229 -0.634 -0.771 -3.102" />
    <path class="write-flat-pen" fill="#FFFFFF" stroke-width="1.6" __comx="240.675" __comy="499.635" __timestamp="0x178102a1d44" d="M236.071 500.164 l-1.125 -0.05 -0.285 0.158 -1.276 2.077 -0.022 0.537 0.303 1.614 1.185 1.588 1.534 0.78 1.746 0.073 1.654 -0.636 1.557 -1.515 1.081 -2.066 0 0 0.278 -1.891 0 0 -1.357 -0.192 -0.249 1.837 0.44 2.641 0.97 1.839 1.44 1.191 1.627 0.085 0.463 -0.203 0.59 -0.514 1.361 -1.493 -0.037 -0.048 -1.766 0.911 -0.582 0.233 -0.143 -0.001 -0.963 -0.225 -0.896 -0.809 -0.74 -1.413 -0.378 -2.216 0.221 -1.63 -1.357 -0.192 0 0 -0.245 1.662 0 0 -0.869 1.669 -1.196 1.175 -1.132 0.445 -1.183 -0.032 -1.022 -0.492 -0.877 -1.093 -0.296 -1.192 -0.01 -0.128 0.799 -1.75 -0.101 0.048 0.904 -0.213" />
    <path class="write-flat-pen" fill="#FFFFFF" stroke-width="1.6" __comx="252.876" __comy="499.635" __timestamp="0x178102a1e18" d="M249.729 489.67 l1.906 5.793 0.257 0.796 2.907 7.825 1.213 1.495 0.009 -0.005 -0.637 -1.76 -2.744 -7.813 -0.266 -0.791 -2.169 -5.709" />
    <path class="write-flat-pen" fill="#FFFFFF" stroke-width="1.6" __comx="254.876" __comy="499.635" __timestamp="0x178102a1ee4" d="M245.78 497.857 l1.997 -0.064 0.506 -0.012 6.079 -0.114 6.91 0.424 2.75 0.102 0.015 -0.083 -2.654 -0.877 -6.995 -0.666 -6.148 0.254 -0.537 0.05 -1.99 0.331" />
    <path class="write-flat-pen" fill="#FFFFFF" stroke-width="1.6" __comx="244.251" __comy="499.635" __timestamp="0x178102a1fe0" d="M225.967 513.98 l21.405 0.436 9.439 0.478 1.151 0.11 1.075 0.106 0.98 0.083 2.502 0.217 0.017 -0.099 -2.435 -0.613 -0.957 -0.243 -1.065 -0.227 -1.177 -0.223 -9.489 -0.668 -21.433 -0.192" />
    <path class="write-flat-pen" fill="#FFFFFF" stroke-width="1.6" __comx="298.597" __comy="499.635" __timestamp="0x178102a25c5" d="M296.987 514.051 l0.312 0.123 0.092 -0.183 0.003 -0.105 -0.184 -1.533 -0.06 -0.354 -0.939 -4.669 -0.145 -0.694 -2.88 -12.959 -0.581 -4.402 0.147 -2.614 0.686 -2.154 0.871 -1.183 1.293 -0.777 1.7 -0.377 2.34 0.208 1.797 0.654 1.708 1.166 1.73 2.626 0.097 0.271 0.189 0.741 0.551 2.537 0.16 -0.011 0.209 -2.61 0.006 -0.851 -0.091 -0.532 -1.766 -3.182 -2.092 -1.494 -2.161 -0.803 -2.772 -0.258 -2.176 0.475 -1.771 1.063 -1.199 1.637 -0.808 2.582 -0.142 2.949 0.656 4.6 3.111 12.97 0.169 0.688 1.208 4.606 0.095 0.337 0.446 1.457 0.035 0.102 0.165 0.144 0.312 -0.192" />
    <path class="write-flat-pen" fill="#FFFFFF" stroke-width="1.6" __comx="296.26" __comy="499.635" __timestamp="0x178102a26b7" d="M286.596 500.553 l3.426 -0.164 0.728 -0.124 12 -1.428 0.485 -0.034 2.745 -0.169 0.006 -0.144 -2.722 -0.392 -0.542 -0.076 -12.118 1.253 -0.713 0.143 -3.356 0.428" />
    <path class="write-flat-pen" fill="#FFFFFF" stroke-width="1.6" __comx="314.117" __comy="499.635" __timestamp="0x178102a28b5" d="M314.888 490.394 l-0.82 0.093 -0.254 0.226 -2.352 3.522 -0.276 0.663 -0.897 3.508 -0.376 4.208 0.305 3.389 0.905 2.899 1.54 2.511 2.275 1.599 0.473 0.143 0.421 0.051 2.466 0.288 0.022 -0.088 -2.316 -0.894 -0.347 -0.138 -0.28 -0.147 -1.869 -1.571 -1.31 -2.237 -0.819 -2.648 -0.291 -3.162 0.319 -4.021 0.787 -3.367 0.197 -0.515 2.023 -3.515 0.029 -0.056 0.568 -0.288" />
    <path class="write-flat-pen" fill="#FFFFFF" stroke-width="1.6" __comx="323.564" __comy="499.635" __timestamp="0x178102a2ad0" d="M324.273 499.266 l-0.872 -1.14 -0.416 -0.118 -1.372 0.165 -1.749 1.134 -1.19 1.554 -0.768 2.222 0.024 2.013 0.659 1.712 1.341 1.34 1.461 0.316 1.639 -0.575 1.44 -1.467 0.985 -2.151 0.096 -1.907 0 0 -0.771 -0.276 0 0 -0.816 0.543 -0.076 1.29 0.772 2.282 1.912 1.68 0.374 0.079 2.244 0.366 0.032 -0.092 -1.989 -1.101 -0.139 -0.099 -1.369 -1.503 -0.593 -1.778 0.057 -1.053 -0.816 0.543 0 0 -0.083 -0.033 0 0 -0.037 0.766 -0.798 1.746 -1.092 1.115 -1.051 0.371 -0.785 -0.163 -0.924 -0.903 -0.504 -1.276 -0.037 -1.604 0.618 -1.872 0.947 -1.279 1.372 -0.958 0.947 -0.202 -0.018 -0.02 0.894 0.755" />
    <path class="write-flat-pen" fill="#FFFFFF" stroke-width="1.6" __comx="333.583" __comy="499.635" __timestamp="0x178102a2c08" d="M328.788 490.543 l1.136 2.396 0.309 0.399 3.406 4.17 2.406 3.669 0.897 2.468 0.239 2.039 -0.35 1.919 -2.245 4.188 -0.144 0.224 -0.066 0.111 -1.438 2.387 0.093 0.074 1.996 -1.944 0.094 -0.092 0.226 -0.249 2.593 -4.292 0.437 -2.284 -0.267 -2.358 -0.999 -2.73 -2.556 -3.817 -3.57 -4.107 -0.264 -0.307 -1.321 -2.193" />
    <path class="write-flat-pen" fill="#FFFFFF" stroke-width="1.6" __comx="349.403" __comy="499.635" __timestamp="0x178102a2d8f" d="M342.217 497.881 l11.588 0.643 2.779 -0.145 0.004 -0.083 -2.749 -0.397 -11.573 -0.795" />
    <path class="write-flat-pen" fill="#FFFFFF" stroke-width="1.6" __comx="352.87" __comy="499.635" __timestamp="0x178102a2e78" d="M347.652 503.341 l-0.318 0.636 1.729 0.137 0.41 0.012 6.204 0.138 2.723 -0.08 0.007 -0.101 -2.692 -0.468 -6.216 -0.414 -0.43 0.004 -1.734 0.137 0.318 0.636" />
    <path class="write-flat-pen" fill="#FFFFFF" stroke-width="1.6" __comx="378.761" __comy="499.635" __timestamp="0x178102a30b7" d="M375.619 508.746 l0.3 0.071 0.046 -0.16 -0.008 -0.097 -0.646 -2.593 -0.099 -0.411 -1.592 -6.66 -0.122 -0.696 -0.594 -5.058 0.22 -3.881 0.727 -3.059 1.241 -2.851 1.171 -1.564 1.046 -0.631 1.216 -0.057 1.833 0.786 3.195 3.252 0.22 0.352 0.698 1.253 0.174 0.344 1.196 2.409 0.07 -0.025 -0.613 -2.619 -0.097 -0.408 -0.53 -1.406 -0.257 -0.52 -3.284 -3.713 -2.344 -1.068 -1.88 0.067 -1.582 0.944 -1.426 1.912 -1.339 3.117 -0.752 3.299 -0.191 4.114 0.686 5.198 0.152 0.77 1.867 6.64 0.133 0.421 0.911 2.508 0.061 0.176 0.225 0.101 0.3 -0.257" />
    <path class="write-flat-pen" fill="#FFFFFF" stroke-width="1.6" __comx="376.087" __comy="499.635" __timestamp="0x178102a319e" d="M368.297 497.258 l12.868 -0.135 2.715 -0.247 0 -0.099 -2.716 -0.246 -12.87 -0.036" />
    <path class="write-flat-pen" fill="#FFFFFF" stroke-width="1.6" __comx="392.586" __comy="499.635" __timestamp="0x178102a341b" d="M392.372 485.114 l-0.505 -0.452 -0.235 -0.007 -0.984 0.408 -0.246 0.26 -1.36 2.871 -0.161 0.706 -0.406 3.96 0.236 4.053 0.988 4.933 1.296 3.485 2.189 2.301 0.437 0.2 0.728 0.133 2.333 0.216 0.016 -0.066 -2.153 -0.862 -0.567 -0.268 -0.174 -0.132 -1.751 -2.15 -1.119 -3.201 -0.95 -4.755 -0.253 -3.87 0.301 -3.806 0.099 -0.538 1.016 -2.753 0.036 -0.071 0.615 -0.488 -0.066 -0.015 0.494 0.153" />
    <path class="write-flat-pen" fill="#FFFFFF" stroke-width="1.6" __comx="402.839" __comy="499.635" __timestamp="0x178102a364d" d="M395.303 487.099 l0.495 1.21 0.159 0.309 2.478 4.324 0.361 0.698 0 0 2.22 5.12 0 0 1.48 5.087 0 0 1.175 -0.097 0.203 -1.637 0.917 -2.127 1.319 -1.634 0.869 -0.505 0.97 -0.055 0.752 0.402 0.48 0.844 -0.011 1.179 -0.555 1.257 -1.173 1.181 -1.31 0.564 -1.794 -0.109 -0.113 -0.026 -2.008 -0.867 -0.044 0.065 1.564 1.529 0.252 0.219 2.312 0.437 1.848 -0.775 1.494 -1.525 0.733 -1.7 -0.01 -1.751 -0.827 -1.397 -1.332 -0.7 -1.566 0.081 -1.302 0.74 -1.579 1.917 -1.057 2.435 -0.226 1.808 1.175 -0.097 0 0 -1.549 -5.144 0 0 -2.35 -5.188 0 0 -0.413 -0.748 -2.718 -4.203 -0.181 -0.272 -0.73 -1.068" />
    <path class="write-flat-pen" fill="#FFFFFF" stroke-width="1.6" __comx="413.89" __comy="499.635" __timestamp="0x178102a3782" d="M408.972 482.527 l1.592 2.328 0.323 0.426 3.383 4.491 2.346 4.012 0.847 2.941 0.153 3.029 -0.615 2.517 -1.482 3.1 -0.317 0.568 -0.325 0.587 -1.31 2.347 0.086 0.06 1.742 -2.048 0.442 -0.518 0.423 -0.56 1.793 -3.131 0.753 -2.802 -0.165 -3.348 -0.942 -3.212 -2.503 -4.173 -3.559 -4.452 -0.342 -0.404 -1.799 -2.155" />
    <path class="write-flat-pen" fill="#FFFFFF" stroke-width="1.6" __comx="427.241" __comy="499.635" __timestamp="0x178102a38a0" d="M428.131 501.279 l-1.273 0.274 -0.756 1.244 0.122 0.162 1.164 -0.201 0.991 -0.147" />
    <path class="write-flat-pen" fill="#FFFFFF" stroke-width="1.6" __comx="672.76" __comy="108.641" __timestamp="0x178102b63b0" d="M666.579 103.59 l-0.126 -0.997 0.025 0.028 -0.019 -0.078 -0.472 0.127 -0.018 0.29 0.013 0.165 0.354 3.091 0 0 0.063 0.696 0 0 0.523 11.129 0 0 1.06 -0.016 0.142 -7.23 -0.376 -5.688 -0.635 -3.283 -1.053 -2.77 0 0 -1.508 -1.587 -0.44 1.011 7.363 0.287 8.015 -0.891 0.107 -0.018 0.227 -0.018 1.968 -0.063 0.02 -0.104 -1.831 -0.777 -0.294 -0.093 -0.236 -0.027 -8.019 0.688 -7.282 -0.172 -0.44 1.011 1.41 1.361 0 0 0.967 2.456 0.616 3.123 0.375 5.575 -0.157 7.184 1.06 -0.016 0 0 -0.608 -11.152 0 0 -0.091 -0.742 0 0 -0.588 -3.091 -0.058 -0.203 -0.18 -0.266 -0.472 0.127 -0.019 -0.078 0.047 0.117 0.34 0.944" />
    <path class="write-flat-pen" fill="#FFFFFF" stroke-width="1.6" __comx="672.809" __comy="108.641" __timestamp="0x178102b64c6" d="M665.823 106.301 l-0.681 0.145 -0.052 0.716 0.151 0.107 2.792 0.583 0.711 0.061 9.275 0.064 0.16 -0.024 2.347 -0.357 0 -0.113 -2.346 -0.363 -0.153 -0.025 -9.236 -0.251 -0.633 -0.036 -2.632 -0.332 -0.039 -0.003 -0.052 0.716 0.594 -0.362" />
    <path class="write-flat-pen" fill="#FFFFFF" stroke-width="1.6" __comx="674.532" __comy="108.641" __timestamp="0x178102b65d0" d="M665.853 116.208 l1.25 0.656 0.465 0.106 6.003 0.697 7.182 -0.156 0.282 -0.102 2.176 -0.837 -0.02 -0.097 -2.329 0.108 -0.209 0.001 -7.029 -0.021 -5.91 -0.556 -0.331 -0.051 -1.247 -0.412" />
    <path class="write-flat-pen" fill="#FFFFFF" stroke-width="1.6" __comx="687.506" __comy="108.641" __timestamp="0x178102b6721" d="M682.913 108.064 l0.227 -0.511 0 0 -0.641 0.095 0.934 1.516 0.149 0.321 2.41 5.324 1.229 1.542 1.205 0.169 0.987 -0.7 0.908 -1.97 1.846 -6.984 0.514 -1.614 -0.095 -0.064 -1.406 1.225 -1.999 7.023 -0.728 1.593 -0.339 0.25 -0.279 -0.027 -0.873 -1.052 -2.506 -5.142 -0.208 -0.385 -1.158 -1.444 -0.641 0.095 0 0 -0.122 0.546" />
    <path class="write-flat-pen" fill="#FFFFFF" stroke-width="1.6" __comx="698.237" __comy="108.641" __timestamp="0x178102b67ff" d="M696.287 108.506 l0.461 1.242 0.121 0.364 1.526 5.657 0.986 1.13 0.49 -0.363 0.099 -0.313 0.217 -0.899 -0.068 -0.039 -0.665 0.643 -0.129 0.085 0.245 -0.208 -0.29 -0.488 -1.671 -5.454 -0.179 -0.403 -0.652 -1.178" />
    <path class="write-flat-pen" fill="#FFFFFF" stroke-width="1.6" __comx="699.105" __comy="108.641" __timestamp="0x178102b68a1" d="M699.14 97.82 l-0.651 4.452 0.452 2.132 0.081 -0.006 0.146 -2.105 0.553 -4.394" />
    <path class="write-flat-pen" fill="#FFFFFF" stroke-width="1.6" __comx="713.673" __comy="108.641" __timestamp="0x178102b6b4c" d="M710.649 95.541 l-0.561 -0.281 -0.11 0.896 -0.005 0.244 0.396 4.335 0.117 0.615 0.89 3.751 1.069 2.572 0 0 0.998 0.774 0 0 0.747 -0.874 -0.678 -0.667 -2.587 -0.561 -2.304 0.042 -2.685 0.652 -1.543 0.945 -1.002 1.216 -0.473 1.521 0.232 1.458 0.887 1.409 1.419 1.174 1.911 0.762 2.255 0.301 2.305 -0.269 2.965 -0.937 2.467 -1.418 2.158 -1.935 1.523 -2.01 0.948 -2.363 0.095 -1.63 -0.568 -1.209 -1.254 -0.558 -1.324 0.666 -0.922 1.485 -0.564 2.107 -0.044 2.104 0.505 1.724 0.91 1.247 1.367 0.694 2.074 -0.639 0.349 -0.285 0.722 -0.91 0.16 -0.277 0.337 -0.84 0.078 -0.299 0.516 -2.023 -0.039 -0.015 -0.987 1.84 -0.132 0.241 -0.459 0.682 -0.139 0.155 -0.75 0.667 -0.126 0.065 -1.434 0.243 -0.617 -0.358 -0.579 -0.802 -0.378 -1.292 0.039 -1.726 0.469 -1.749 0.611 -0.977 0.389 -0.191 0.176 0.083 0.193 0.419 -0.062 1.048 -0.79 1.977 -1.327 1.754 -1.948 1.749 -2.206 1.276 -2.695 0.855 -2.004 0.242 -1.922 -0.24 -1.57 -0.602 -1.117 -0.887 -0.669 -0.996 -0.176 -0.911 0.295 -1.022 0.717 -0.879 1.213 -0.741 2.374 -0.579 2.035 -0.036 2.129 0.446 0.453 0.418 0.747 -0.874 0 0 -0.772 -0.572 0 0 -0.936 -2.207 -0.933 -3.63 -0.12 -0.549 -0.607 -4.229 -0.015 -0.197 -0.11 -0.887 -0.561 0.281" />
    <path class="write-flat-pen" fill="#FFFFFF" stroke-width="1.6" __comx="729.08" __comy="108.641" __timestamp="0x178102b6c8f" d="M724.936 106.165 l-0.01 0.565 0.009 0.148 0.087 1.131 0.021 0.228 0.151 1.776 0.02 0.29 0 0 0.18 3.028 0 0 0.459 0.378 0 0 0.914 -0.32 1.603 -6.405 0.869 -1.954 0.479 -0.353 0.554 0.116 0.747 0.845 0.672 1.899 0.499 4.939 0.036 0.06 0.101 1.296 0.059 0.016 0.74 -1.069 0.109 -0.208 -0.338 -5.294 -0.818 -2.271 -1.187 -1.309 -1.465 -0.272 -1.13 0.861 -1.014 2.326 -1.641 6.494 0.914 -0.32 0 0 -0.096 -0.043 0 0 -0.319 -2.535 0 0 -0.051 -0.312 -0.367 -1.767 -0.058 -0.232 -0.309 -1.098 -0.048 -0.139 -0.193 -0.525" />
    <path class="write-flat-pen" fill="#FFFFFF" stroke-width="1.6" __comx="740.913" __comy="108.641" __timestamp="0x178102b6e11" d="M743.615 105.113 l0.724 -0.495 0.112 -0.157 0.397 -1.227 -0.074 -0.357 -0.569 -0.784 -1.739 -0.301 -2.361 0.583 -2.185 1.363 -1.338 1.543 -0.777 1.81 -0.359 2.572 0.286 1.832 0.899 1.999 1.04 1.111 1.477 0.73 1.757 0.125 2.488 -1.026 0.435 -0.337 0.668 -0.67 0.296 -0.365 0.486 -0.748 1.1 -1.848 -0.029 -0.022 -1.461 1.568 -0.597 0.608 -0.309 0.258 -0.705 0.501 -0.332 0.193 -2.196 0.708 -1.253 -0.147 -1.046 -0.556 -0.732 -0.801 -0.742 -1.65 -0.238 -1.476 0.287 -2.224 0.616 -1.488 1.078 -1.274 1.861 -1.192 1.951 -0.534 1.135 0.108 0.268 0.251 0 -0.055 -0.112 0.956 0.015 -0.004 -0.505 0.605" />
    <path class="write-flat-pen" fill="#FFFFFF" stroke-width="1.6" __comx="752.944" __comy="108.641" __timestamp="0x178102b6f74" d="M748.036 106.866 l0.593 0.475 0.189 0.098 2.219 0.623 0.446 0.037 2.189 -0.212 1.824 -0.784 0.881 -1.018 0.229 -1.279 -0.777 -1.157 -1.917 -0.719 -2.449 0.022 -1.575 0.587 -1.201 1.037 -0.961 1.628 -0.415 1.817 0.307 1.844 1.137 1.624 1.342 0.863 1.98 0.515 2.687 -0.211 0.942 -0.278 0.951 -0.4 1.921 -0.802 -0.043 -0.14 -2.041 0.414 -0.985 0.195 -0.863 0.139 -2.443 0.008 -1.623 -0.505 -0.999 -0.658 -0.874 -1.217 -0.245 -1.364 0.313 -1.433 0.769 -1.33 0.91 -0.795 1.21 -0.453 2.054 -0.016 1.399 0.525 0.334 0.5 -0.098 0.551 -0.518 0.61 -1.44 0.642 -1.936 0.245 -0.28 -0.009 -2.126 -0.377 -0.1 -0.023 -0.669 -0.252" />
    <path class="write-flat-pen" fill="#FFFFFF" stroke-width="1.6" __comx="718.565" __comy="193.444" __timestamp="0x178102b747c" d="M715.447 167.82 l-0.857 -0.07 3.523 13.514 0.298 1.573 1.526 11.572 0.879 11.409 0.564 19.95 -0.042 30.652 -0.55 16.02 -2.522 27.605 -0.054 0.775 -0.192 2.541 -0.027 0.497 -0.055 0.9 -0.16 2.205 0.034 0.006 0.572 -2.14 0.21 -0.888 0.098 -0.498 0.403 -2.528 0.096 -0.781 2.737 -27.62 0.563 -16.073 0.05 -30.689 -0.632 -19.993 -0.929 -11.461 -1.593 -11.621 -0.322 -1.633 -3.757 -13.487 -0.526 0.595" />
    <path class="write-flat-pen" fill="#FFFFFF" stroke-width="1.6" __comx="743.08" __comy="236.42" __timestamp="0x178102b76e0" d="M618.918 248.037 l0.285 -0.712 1.368 -0.701 3.188 -0.737 27.454 -2.016 2.42 -0.191 53.141 -4.381 3.31 -0.287 13.652 -0.985 62.964 -2.335 26.348 -1.333 14.226 -1.342 19.445 -2.815 2.975 -0.548 5.825 -1.164 2.798 -0.598 2.703 -0.584 2.72 -0.574 2.647 -0.599 1.373 -0.309 -0.013 -0.069 -1.393 0.201 -2.686 0.384 -2.748 0.43 -2.732 0.45 -2.816 0.495 -5.844 1.017 -2.963 0.488 -19.429 2.598 -14.178 1.282 -26.314 1.337 -62.975 2.384 -13.679 1.02 -3.316 0.296 -53.119 4.606 -2.415 0.209 -27.49 2.237 -3.315 0.811 -1.62 0.899 -0.317 0.945" />
    <path class="write-flat-pen" fill="#8F3AC9" stroke-width="1.6" __comx="737.341" __comy="167.41" __timestamp="0x178102b84c1" d="M672.141 161.79 l-0.184 -0.913 0.012 -0.023 -0.004 -0.013 -0.492 0.102 -0.089 0.231 -0.002 0.124 0.006 1.764 -0.002 0.289 0.351 8.546 0.049 0.523 0.907 7.004 1.39 6.865 1.491 4.502 2.703 6.113 3.32 6.291 3.978 6.434 4.58 6.237 3.052 3.496 9.744 9.174 2.224 1.683 3.12 1.535 2.918 0.907 9.04 1.78 3.792 0.288 5.958 -0.163 4.203 -0.587 4.063 -1.085 3.399 -1.503 4.038 -2.478 6.628 -4.831 6.033 -5.315 8.072 -7.902 4.861 -5.765 4.22 -5.855 3.412 -5.58 4.029 -8.157 15.915 -25.835 4.125 -8.012 0.107 -0.356 0.183 -0.968 0.003 -0.241 -0.004 -2.369 -0.087 -0.018 -0.927 2.18 -0.084 0.184 -0.321 0.85 -0.087 0.212 -4.251 7.769 -15.934 25.851 -4.022 8.164 -3.344 5.47 -4.155 5.757 -4.771 5.667 -7.994 7.818 -5.944 5.246 -6.522 4.75 -3.899 2.39 -3.193 1.416 -3.855 1.028 -4.025 0.56 -5.792 0.161 -3.62 -0.278 -8.869 -1.749 -2.724 -0.843 -2.88 -1.416 -2.044 -1.541 -9.665 -9.031 -2.979 -3.381 -4.537 -6.12 -3.94 -6.332 -3.288 -6.199 -2.682 -5.998 -1.464 -4.357 -1.411 -6.732 -0.957 -6.929 -0.049 -0.474 -0.579 -8.494 -0.018 -0.293 -0.227 -1.796 -0.039 -0.139 -0.14 -0.196 -0.492 0.102 -0.004 -0.013 0.032 0.044 0.398 0.849" />
    <path class="write-flat-pen" fill="#8F3AC9" stroke-width="1.6" __comx="801.401" __comy="148.917" __timestamp="0x178102b8785" d="M804.085 149.99 l0.832 -1.461 0.079 -0.126 0.08 -0.378 -0.575 -0.374 -0.154 0.029 -1.292 0.713 -0.388 0.247 -5.692 3.675 -0.658 0.247 0.224 0.531 0.674 -1.029 2.363 -2.301 2.208 -1.572 1.02 -0.379 0.099 0.035 0.386 0.726 0.764 4.131 1.095 1.835 0.466 0.232 0.338 0.055 1.799 0.246 0.072 -0.183 -1.484 -1.047 -0.184 -0.15 -0.033 -0.077 -0.686 -1.409 -0.798 -4.116 -0.772 -1.405 -1.094 -0.35 -1.644 0.613 -2.446 1.74 -2.549 2.484 -1.156 1.772 0.582 1.399 2.047 -0.822 5.714 -3.918 0.364 -0.271 1.066 -0.82 0.03 -0.033 -0.575 -0.374 0.13 0.162 0.024 -0.025 -0.639 1.571" />
    <path class="write-flat-pen" fill="#8F3AC9" stroke-width="1.6" __comx="672.557" __comy="186.216" __timestamp="0x178102b8a80" d="M670.606 164.192 l0.728 -2.908 0.077 -0.186 0.008 -0.021 0.327 -0.985 -0.909 -0.365 -0.095 0.128 -2.521 4.676 -0.185 0.313 0 0 -0.854 1.294 0 0 -0.343 0.128 0 0 0.855 0.899 1.492 -3.099 2.479 -3.91 0.165 -0.123 -0.294 -0.245 0.098 4.646 0.608 1.966 1.67 1.632 0.779 0.373 0.853 0.241 0.983 0.113 2.05 0.238 0.041 -0.169 -1.927 -0.738 -0.868 -0.342 -0.672 -0.335 -0.503 -0.337 -1.216 -1.373 -0.436 -1.487 -0.121 -5.063 -0.993 -0.844 -1.216 0.927 -2.646 4.181 -1.52 3.173 0.855 0.899 0 0 0.701 -0.311 0 0 1.06 -1.678 0 0 0.209 -0.372 2.309 -4.772 0.05 -0.108 -0.909 -0.365 -0.093 0.979 0.008 -0.021 -0.078 0.232 -0.521 3.008" />
    <path class="write-flat-pen" fill="#D534A9" stroke-width="1.6" __comx="751.248" __comy="186.216" __timestamp="0x178102b917f" d="M626.814 196.069 l-1.274 0.384 0.088 0.453 2.038 0.898 0.513 0.078 5.485 0.131 15.778 -0.893 56.7 -1.246 20.532 -1.003 45.499 -3.479 19.1 -1.106 58.396 -0.992 3.406 -0.226 9.968 -0.732 3.225 -0.274 3.181 -0.295 3.139 -0.286 3.071 -0.343 1.298 -0.143 -0.007 -0.101 -1.305 0.043 -3.087 0.097 -3.149 0.133 -3.191 0.152 -3.229 0.167 -9.977 0.535 -3.382 0.183 -58.402 0.783 -19.14 1.112 -45.488 3.565 -20.497 1.053 -56.702 1.34 -15.757 1.012 -5.405 0.001 -0.376 -0.038 -1.748 -0.544 0.053 0.297 0.764 -0.424" />
    <path class="write-flat-pen" fill="#D534A9" stroke-width="1.6" __comx="680.105" __comy="186.216" __timestamp="0x178102b94f1" d="M670.749 203.356 l-0.587 0.287 -0.076 0.048 0 0 0.386 0.427 0.246 -0.04 0.25 -0.147 2.286 -2.021 0.714 -0.706 8.467 -9.357 4.992 -5.176 0.479 -0.501 0.758 -0.821 1.462 -1.639 -0.075 -0.084 -1.781 1.285 -0.898 0.673 -0.552 0.454 -5.21 5.024 -8.425 9.401 -0.668 0.694 -2.082 2.139 -0.135 0.141 -0.119 0.169 0.386 0.427 0 0 -0.031 -0.016 0.397 -0.403" />
    <path class="write-flat-pen" fill="#D534A9" stroke-width="1.6" __comx="680.249" __comy="186.216" __timestamp="0x178102b964c" d="M671.134 186.346 l0.526 0.326 0.12 0.129 1.889 2.085 0.528 0.605 7.664 9.269 3.599 3.347 0.641 0.409 0.602 0.328 0.587 0.258 2.012 0.888 0.061 -0.103 -1.741 -1.343 -0.492 -0.384 -0.508 -0.4 -0.513 -0.427 -3.357 -3.401 -7.722 -9.168 -0.58 -0.615 -2.091 -1.978 -0.276 -0.199 -0.712 -0.192" />
    <path class="write-flat-pen" fill="#D534A9" stroke-width="1.6" __comx="778.123" __comy="182.847" __timestamp="0x178102b9952" d="M769.638 179.171 l-0.474 0.597 0.046 0.369 0.766 1.711 0.435 0.653 5.178 6.951 0.728 0.934 5.541 7.449 2.748 2.768 0.22 0.141 0.187 0.09 2.038 0.905 0.032 -0.048 -1.592 -1.555 -0.124 -0.126 -0.112 -0.119 -2.511 -2.799 -5.503 -7.412 -0.74 -0.936 -5.347 -6.794 -0.433 -0.56 -0.883 -1.471 -0.032 -0.043 0.165 -0.514" />
    <path class="write-flat-pen" fill="#D534A9" stroke-width="1.6" __comx="779.125" __comy="189.275" __timestamp="0x178102b9a66" d="M769.849 198.99 l0.974 -1.671 0.36 -0.388 15.43 -14.909 0.885 -0.887 1.39 -1.383 -0.083 -0.098 -1.594 1.142 -1.037 0.74 -15.568 14.849 -0.415 0.509 -0.828 1.847" />
  </g>
</svg>
