<svg class="write-page" color-interpolation="linearRGB" width="1010px" height="654.645px" xmlns="http://www.w3.org/2000/svg" xmlns:xlink="http://www.w3.org/1999/xlink">
  <g class="write-content write-v3" width="1010" height="654.645" xruling="30" yruling="30" marginLeft="30" papercolor="#1B1C1C" rulecolor="#0300F9FF">
    <g class="ruleline write-std-ruling write-scale-down" fill="none" stroke="#00F9FF" stroke-opacity="0.012" stroke-width="1" shape-rendering="crispEdges" vector-effect="non-scaling-stroke">
      <rect class="pagerect" fill="#1B1C1C" stroke="none" x="0" y="0" width="1010" height="654.645" />
      <path class="yrule_1" d="M0 30 l1010 0" />
      <path d="M0 60 l1010 0" />
      <path d="M0 90 l1010 0" />
      <path d="M0 120 l1010 0" />
      <path d="M0 150 l1010 0" />
      <path d="M0 180 l1010 0" />
      <path d="M0 210 l1010 0" />
      <path d="M0 240 l1010 0" />
      <path d="M0 270 l1010 0" />
      <path d="M0 300 l1010 0" />
      <path d="M0 330 l1010 0" />
      <path d="M0 360 l1010 0" />
      <path d="M0 390 l1010 0" />
      <path d="M0 420 l1010 0" />
      <path d="M0 450 l1010 0" />
      <path d="M0 480 l1010 0" />
      <path d="M0 510 l1010 0" />
      <path d="M0 540 l1010 0" />
      <path d="M0 570 l1010 0" />
      <path d="M0 600 l1010 0" />
      <path d="M0 630 l1010 0" />
      <path class="xrule_1" d="M30 0 l0 654.645" />
      <path d="M60 0 l0 654.645" />
      <path d="M90 0 l0 654.645" />
      <path d="M120 0 l0 654.645" />
      <path d="M150 0 l0 654.645" />
      <path d="M180 0 l0 654.645" />
      <path d="M210 0 l0 654.645" />
      <path d="M240 0 l0 654.645" />
      <path d="M270 0 l0 654.645" />
      <path d="M300 0 l0 654.645" />
      <path d="M330 0 l0 654.645" />
      <path d="M360 0 l0 654.645" />
      <path d="M390 0 l0 654.645" />
      <path d="M420 0 l0 654.645" />
      <path d="M450 0 l0 654.645" />
      <path d="M480 0 l0 654.645" />
      <path d="M510 0 l0 654.645" />
      <path d="M540 0 l0 654.645" />
      <path d="M570 0 l0 654.645" />
      <path d="M600 0 l0 654.645" />
      <path d="M630 0 l0 654.645" />
      <path d="M660 0 l0 654.645" />
      <path d="M690 0 l0 654.645" />
      <path d="M720 0 l0 654.645" />
      <path d="M750 0 l0 654.645" />
      <path d="M780 0 l0 654.645" />
      <path d="M810 0 l0 654.645" />
      <path d="M840 0 l0 654.645" />
      <path d="M870 0 l0 654.645" />
      <path d="M900 0 l0 654.645" />
      <path d="M930 0 l0 654.645" />
      <path d="M960 0 l0 654.645" />
      <path d="M990 0 l0 654.645" />
      <path class="leftmargin" stroke="#FF0000" d="M30 0 l0 654.645" />
    </g>
    <path class="write-chisel-pen" fill="#00FFFF" fill-opacity="0.29" stroke-width="34" __comx="103.536" __comy="209.401" __timestamp="0x1785251ab06" d="M74.481 205.201 l0 34 8.5 0 2.926 -1.447 0 -34 -8.5 0 -2.926 1.447 m2.926 -1.447 l0 34 8.5 0 8.342 -1.247 0 -34 -8.5 0 -8.342 1.247 m8.342 -1.247 l0 34 8.5 0 16.295 -0.123 0 -34 -8.5 0 -16.295 0.123 m24.795 -0.123 l-8.5 0 0 34 19.389 1.149 8.5 0 0 -34 -19.389 -1.149 m19.389 1.149 l-8.5 0 0 34 15.383 2.125 8.5 0 0 -34 -15.383 -2.125 m15.383 2.125 l-8.5 0 0 34 11.77 2.743 8.5 0 0 -34 -11.77 -2.743 m11.77 2.743 l-8.5 0 0 34 1.737 1.232 8.5 0 0 -34 -1.737 -1.232 m1.737 35.232 l0 -34 -8.5 0 -0.022 1.413 0 34 8.5 0 0.022 -1.413 m-0.022 1.413 l0 -34 -8.5 0 -2.7 1.51 0 34 8.5 0 2.7 -1.51 m-2.7 1.51 l0 -34 -8.5 0 -8.502 1.472 0 34 8.5 0 8.502 -1.472 m-8.502 1.472 l0 -34 -8.5 0 -36.988 1.639 0 34 8.5 0 36.988 -1.639 m-36.988 1.639 l0 -34 -8.5 0 -24.01 0.121 0 34 8.5 0 24.01 -0.121 m-32.51 0.121 l8.5 0 0 -34 -23.231 -1.672 -8.5 0 0 34 23.231 1.672 m-23.231 -1.672 l8.5 0 0 -34 -5.57 -1.214 -8.5 0 0 34 5.57 1.214 m-5.57 -1.214 l8.5 0 0 -34 -0.828 -1.089 -8.5 0 0 34 0.828 1.089 m-0.828 -35.089 l0 34 8.5 0 0.672 -1.226 0 -34 -8.5 0 -0.672 1.226 m0.672 -1.226 l0 34 8.5 0 4.825 -1.869 0 -34 -8.5 0 -4.825 1.869 m4.825 -1.869 l0 34 8.5 0 12.097 -1.693 0 -34 -8.5 0 -12.097 1.693 m12.097 -1.693 l0 34 8.5 0 24.271 -1.175 0 -34 -8.5 0 -24.271 1.175 m32.771 -1.175 l-8.5 0 0 34 24.516 0.026 8.5 0 0 -34 -24.516 -0.026 m24.516 0.026 l-8.5 0 0 34 13.291 0.97 8.5 0 0 -34 -13.291 -0.97 m13.291 0.97 l-8.5 0 0 34 14.107 2.223 8.5 0 0 -34 -14.107 -2.223 m14.107 2.223 l-8.5 0 0 34 5.263 1.74 8.5 0 0 -34 -5.263 -1.74 m5.263 1.74 l-8.5 0 0 34 3.102 2.146 8.5 0 0 -34 -3.102 -2.146 m3.102 2.146 l-8.5 0 0 34 0.986 1.876 8.5 0 0 -34 -0.986 -1.876 m0.986 35.876 l0 -34 -8.5 0 -0.559 2.812 0 34 8.5 0 0.559 -2.812 m-0.559 2.812 l0 -34 -8.5 0 -3.471 3.295 0 34 8.5 0 3.471 -3.295 m-3.471 3.295 l0 -34 -8.5 0 -6.84 3.21 0 34 8.5 0 6.84 -3.21 m-6.84 3.21 l0 -34 -8.5 0 -9.092 2.433 0 34 8.5 0 9.092 -2.433 m-9.092 2.433 l0 -34 -8.5 0 -13.023 1.775 0 34 8.5 0 13.023 -1.775 m-13.023 1.775 l0 -34 -8.5 0 -15.723 0.472 0 34 8.5 0 15.723 -0.472 m-24.223 0.472 l8.5 0 0 -34 -11.126 -1.204 -8.5 0 0 34 11.126 1.204 m-11.126 -1.204 l8.5 0 0 -34 -6.983 -1.748 -8.5 0 0 34 6.983 1.748 m-6.983 -1.748 l8.5 0 0 -34 -7.513 -3.304 -8.5 0 0 34 7.513 3.304 m-7.513 -3.304 l8.5 0 0 -34 -6.204 -4.15 -8.5 0 0 34 6.204 4.15 m-6.204 -4.15 l8.5 0 0 -34 -2.133 -2.548 -8.5 0 0 34 2.133 2.548 m-2.133 -2.548 l8.5 0 0 -34 -1.426 -3.638 -8.5 0 0 34 1.426 3.638 m-1.426 -37.638 l0 34 8.5 0 0.105 -3.287 0 -34 -8.5 0 -0.105 3.287 m0.105 -3.287 l0 34 8.5 0 1.527 -3.415 0 -34 -8.5 0 -1.527 3.415 m1.527 -3.415 l0 34 8.5 0 3.03 -3.189 0 -34 -8.5 0 -3.03 3.189 m3.03 -3.189 l0 34 8.5 0 4.629 -2.793 0 -34 -8.5 0 -4.629 2.793 m4.629 -2.793 l0 34 8.5 0 6.482 -2.363 0 -34 -8.5 0 -6.482 2.363 m6.482 -2.363 l0 34 8.5 0 10.251 -1.526 0 -34 -8.5 0 -10.251 1.526 m10.251 -1.526 l0 34 8.5 0 8.538 -0.086 0 -34 -8.5 0 -8.538 0.086 m17.038 -0.086 l-8.5 0 0 34 11.537 1.505 8.5 0 0 -34 -11.537 -1.505 m11.537 1.505 l-8.5 0 0 34 12.711 3.027 8.5 0 0 -34 -12.711 -3.027 m12.711 3.027 l-8.5 0 0 34 7.855 2.853 8.5 0 0 -34 -7.855 -2.853 m7.855 2.853 l-8.5 0 0 34 5.791 3.295 8.5 0 0 -34 -5.791 -3.295 m5.791 3.295 l-8.5 0 0 34 2.687 2.717 8.5 0 0 -34 -2.687 -2.717 m2.687 2.717 l-8.5 0 0 34 0.806 2.322 8.5 0 0 -34 -0.806 -2.322 m0.806 36.322 l0 -34 -8.5 0 -0.58 2.24 0 34 8.5 0 0.58 -2.24 m-0.58 2.24 l0 -34 -8.5 0 -2.646 2.382 0 34 8.5 0 2.646 -2.382 m-2.646 2.382 l0 -34 -8.5 0 -5.251 1.846 0 34 8.5 0 5.251 -1.846 m-5.251 1.846 l0 -34 -8.5 0 -10.647 1.183 0 34 8.5 0 10.647 -1.183 m-19.147 1.183 l8.5 0 0 -34 -14.07 -0.231 -8.5 0 0 34 14.07 0.231 m-14.07 -0.231 l8.5 0 0 -34 -18.876 -2.311 -8.5 0 0 34 18.876 2.311 m-18.876 -2.311 l8.5 0 0 -34 -16.767 -3.32 -8.5 0 0 34 16.767 3.32 m-16.767 -3.32 l8.5 0 0 -34 -19.068 -5.353 -8.5 0 0 34 19.068 5.353 m-19.068 -5.353 l8.5 0 0 -34 -6.791 -2.727 -8.5 0 0 34 6.791 2.727 m-6.791 -2.727 l8.5 0 0 -34 -1.547 -1.484 -8.5 0 0 34 1.547 1.484 m-1.547 -1.484 l8.5 0 0 -34 -0.242 -1.654 -8.5 0 0 34 0.242 1.654 m-0.242 -35.654 l0 34 8.5 0 1.077 -1.365 0 -34 -8.5 0 -1.077 1.365 m1.077 -1.365 l0 34 8.5 0 4.395 -1.782 0 -34 -8.5 0 -4.395 1.782 m4.395 -1.782 l0 34 8.5 0 10.427 -1.528 0 -34 -8.5 0 -10.427 1.528 m10.427 -1.528 l0 34 8.5 0 22.119 -0.904 0 -34 -8.5 0 -22.119 0.904 m30.619 -0.904 l-8.5 0 0 34 19.08 0.436 8.5 0 0 -34 -19.08 -0.436 m19.08 0.436 l-8.5 0 0 34 17.674 2.084 8.5 0 0 -34 -17.674 -2.084 m17.674 2.084 l-8.5 0 0 34 9.855 2.138 8.5 0 0 -34 -9.855 -2.138 m9.855 2.138 l-8.5 0 0 34 5.998 2.434 8.5 0 0 -34 -5.998 -2.434 m5.998 2.434 l-8.5 0 0 34 3.196 2.376 8.5 0 0 -34 -3.196 -2.376 m3.196 2.376 l-8.5 0 0 34 1.638 2.772 8.5 0 0 -34 -1.638 -2.772 m1.638 36.772 l0 -34 -8.5 0 -0.127 2.297 0 34 8.5 0 0.127 -2.297 m-0.127 2.297 l0 -34 -8.5 0 -1.853 2.671 0 34 8.5 0 1.853 -2.671 m-1.853 2.671 l0 -34 -8.5 0 -4.394 2.605 0 34 8.5 0 4.394 -2.605 m-4.394 2.605 l0 -34 -8.5 0 -9.066 2.596 0 34 8.5 0 9.066 -2.596 m-9.066 2.596 l0 -34 -8.5 0 -14.586 1.842 0 34 8.5 0 14.586 -1.842 m-14.586 1.842 l0 -34 -8.5 0 -17.079 0.875 0 34 8.5 0 17.079 -0.875 m-25.579 0.875 l8.5 0 0 -34 -17.356 -0.257 -8.5 0 0 34 17.356 0.257 m-17.356 -0.257 l8.5 0 0 -34 -3.071 -0.841 -8.5 0 0 34 3.071 0.841 m-3.071 -0.841 l8.5 0 0 -34 -0.897 -1.387 -8.5 0 0 34 0.897 1.387 m-0.897 -35.387 l0 34 8.5 0 1.5 -2.454 0 -34 -8.5 0 -1.5 2.454 m1.5 -2.454 l0 34 8.5 0 5.472 -2.955 0 -34 -8.5 0 -5.472 2.955 m5.472 -2.955 l0 34 8.5 0 9.165 -2.858 0 -34 -8.5 0 -9.165 2.858 m9.165 -2.858 l0 34 8.5 0 4.285 -1.155 0 -34 -8.5 0 -4.285 1.155" />
    <path class="write-chisel-pen" fill="#00FFFF" fill-opacity="0.29" stroke-width="34" __comx="302.327" __comy="317.274" __timestamp="0x1785251a59b" d="M364.978 341.143 l0 -34 -8.5 0 -21.178 0.047 0 34 8.5 0 21.178 -0.047 m-29.678 -33.953 l0 34 8.5 0 21.373 -2.142 0 -34 -8.5 0 -21.373 2.142 m21.373 -2.142 l0 34 8.5 0 38.559 -1.447 0 -34 -8.5 0 -38.559 1.447 m38.559 -1.447 l0 34 8.5 0 60.352 -0.744 0 -34 -8.5 0 -60.352 0.744 m68.852 -0.744 l-8.5 0 0 34 20.218 0.76 8.5 0 0 -34 -20.218 -0.76 m20.218 0.76 l-8.5 0 0 34 23.859 2.461 8.5 0 0 -34 -23.859 -2.461 m23.859 36.461 l0 -34 -8.5 0 -6.36 0.465 0 34 8.5 0 6.36 -0.465 m-14.86 0.465 l8.5 0 0 -34 -70.829 -5.43 -8.5 0 0 34 70.829 5.43 m-70.829 -5.43 l8.5 0 0 -34 -52.034 -3.015 -8.5 0 0 34 52.034 3.015 m-52.034 -3.015 l8.5 0 0 -34 -40.358 -1.061 -8.5 0 0 34 40.358 1.061 m-31.858 -1.061 l0 -34 -8.5 0 -38.657 0.121 0 34 8.5 0 38.657 -0.121 m-38.657 0.121 l0 -34 -8.5 0 -35.595 1.683 0 34 8.5 0 35.595 -1.683 m-35.595 1.683 l0 -34 -8.5 0 -80.704 7.461 0 34 8.5 0 80.704 -7.461 m-80.704 7.461 l0 -34 -8.5 0 -9.012 0.058 0 34 8.5 0 9.012 -0.058 m-17.512 -33.942 l0 34 8.5 0 13.66 -1.762 0 -34 -8.5 0 -13.66 1.762 m13.66 -1.762 l0 34 8.5 0 35.484 -1.541 0 -34 -8.5 0 -35.484 1.541 m35.484 -1.541 l0 34 8.5 0 73.038 -1.396 0 -34 -8.5 0 -73.038 1.396 m73.038 -1.396 l0 34 8.5 0 55.106 -0.008 0 -34 -8.5 0 -55.106 0.008 m63.606 -0.008 l-8.5 0 0 34 30.3 1.501 8.5 0 0 -34 -30.3 -1.501 m30.3 1.501 l-8.5 0 0 34 58.662 5.937 8.5 0 0 -34 -58.662 -5.937 m50.162 39.937 l8.5 0 0 -34 -35.75 -3.282 -8.5 0 0 34 35.75 3.282 m-35.75 -3.282 l8.5 0 0 -34 -35.927 -1.818 -8.5 0 0 34 35.927 1.818 m-35.927 -1.818 l8.5 0 0 -34 -59.215 -0.593 -8.5 0 0 34 59.215 0.593 m-50.715 -0.593 l0 -34 -8.5 0 -35.297 0.83 0 34 8.5 0 35.297 -0.83 m-35.297 0.83 l0 -34 -8.5 0 -131.333 8.512 0 34 8.5 0 131.333 -8.512 m-131.333 8.512 l0 -34 -8.5 0 -31.679 1.327 0 34 8.5 0 31.679 -1.327 m-40.179 1.327 l8.5 0 0 -34 -6.053 -0.584 -8.5 0 0 34 6.053 0.584 m-6.053 -0.584 l8.5 0 0 -34 -0.612 -0.727 -8.5 0 0 34 0.612 0.727 m-0.612 -34.727 l0 34 8.5 0 0.684 -1.326 0 -34 -8.5 0 -0.684 1.326 m0.684 -1.326 l0 34 8.5 0 5.71 -2.291 0 -34 -8.5 0 -5.71 2.291 m5.71 -2.291 l0 34 8.5 0 14.593 -3 0 -34 -8.5 0 -14.593 3 m14.593 -3 l0 34 8.5 0 25.445 -2.985 0 -34 -8.5 0 -25.445 2.985 m25.445 -2.985 l0 34 8.5 0 23.716 -1.531 0 -34 -8.5 0 -23.716 1.531 m23.716 -1.531 l0 34 8.5 0 80.307 -2.27 0 -34 -8.5 0 -80.307 2.27 m80.307 -2.27 l0 34 8.5 0 51.042 -0.364 0 -34 -8.5 0 -51.042 0.364 m59.542 -0.364 l-8.5 0 0 34 42.479 1.336 8.5 0 0 -34 -42.479 -1.336 m42.479 1.336 l-8.5 0 0 34 54.812 3.784 8.5 0 0 -34 -54.812 -3.784 m54.812 3.784 l-8.5 0 0 34 43.327 3.983 8.5 0 0 -34 -43.327 -3.983 m34.827 37.983 l8.5 0 0 -34 -13.49 -2.26 -8.5 0 0 34 13.49 2.26 m-13.49 -2.26 l8.5 0 0 -34 -25.478 -2.213 -8.5 0 0 34 25.478 2.213 m-25.478 -2.213 l8.5 0 0 -34 -33.518 -1.608 -8.5 0 0 34 33.518 1.608 m-33.518 -1.608 l8.5 0 0 -34 -46.68 -0.873 -8.5 0 0 34 46.68 0.873 m-38.18 -0.873 l0 -34 -8.5 0 -50.779 0.283 0 34 8.5 0 50.779 -0.283 m-50.779 0.283 l0 -34 -8.5 0 -65.934 2.287 0 34 8.5 0 65.934 -2.287 m-65.934 2.287 l0 -34 -8.5 0 -97.955 6.819 0 34 8.5 0 97.955 -6.819 m-106.455 6.819 l8.5 0 0 -34 -4.382 -0.383 -8.5 0 0 34 4.382 0.383 m-4.382 -34.383 l0 34 8.5 0 14.947 -2.12 0 -34 -8.5 0 -14.947 2.12 m14.947 -2.12 l0 34 8.5 0 30.98 -2.585 0 -34 -8.5 0 -30.98 2.585 m30.98 -2.585 l0 34 8.5 0 80.264 -3.686 0 -34 -8.5 0 -80.264 3.686 m80.264 -3.686 l0 34 8.5 0 72.359 -2.055 0 -34 -8.5 0 -72.359 2.055 m72.359 -2.055 l0 34 8.5 0 58.422 -0.511 0 -34 -8.5 0 -58.422 0.511 m66.922 -0.511 l-8.5 0 0 34 126.89 2.811 8.5 0 0 -34 -126.89 -2.811 m118.39 2.811 l0 34 8.5 0 9.427 -0.097 0 -34 -8.5 0 -9.427 0.097 m9.427 33.903 l8.5 0 0 -34 -3.902 -1.217 -8.5 0 0 34 3.902 1.217 m-3.902 -1.217 l8.5 0 0 -34 -26.066 -2.534 -8.5 0 0 34 26.066 2.534 m-26.066 -2.534 l8.5 0 0 -34 -47.867 -2.521 -8.5 0 0 34 47.867 2.521 m-47.867 -2.521 l8.5 0 0 -34 -66.413 -2.088 -8.5 0 0 34 66.413 2.088 m-66.413 -2.088 l8.5 0 0 -34 -197.468 -0.148 -8.5 0 0 34 197.468 0.148 m-197.468 -0.148 l8.5 0 0 -34 -28.555 -0.674 -8.5 0 0 34 28.555 0.674 m-28.555 -0.674 l8.5 0 0 -34 -4.909 -0.801 -8.5 0 0 34 4.909 0.801 m-4.909 -34.801 l0 34 8.5 0 3.929 -0.841 0 -34 -8.5 0 -3.929 0.841 m3.929 -0.841 l0 34 8.5 0 26.985 -0.404 0 -34 -8.5 0 -26.985 0.404 m35.485 -0.404 l-8.5 0 0 34 103.825 1.324 8.5 0 0 -34 -103.825 -1.324 m103.825 1.324 l-8.5 0 0 34 66.73 2.734 8.5 0 0 -34 -66.73 -2.734 m66.73 2.734 l-8.5 0 0 34 45.63 3.56 8.5 0 0 -34 -45.63 -3.56 m45.63 3.56 l-8.5 0 0 34 34.101 3.672 8.5 0 0 -34 -34.101 -3.672 m34.101 3.672 l-8.5 0 0 34 23.194 3.487 8.5 0 0 -34 -23.194 -3.487 m23.194 3.487 l-8.5 0 0 34 1.464 0.975 8.5 0 0 -34 -1.464 -0.975 m1.464 34.975 l0 -34 -8.5 0 -1.463 0.987 0 34 8.5 0 1.463 -0.987 m-1.463 0.987 l0 -34 -8.5 0 -5.736 0.487 0 34 8.5 0 5.736 -0.487 m-14.236 0.487 l8.5 0 0 -34 -2.735 -0.096 -8.5 0 0 34 2.735 0.096 m-2.735 -0.096 l8.5 0 0 -34 -3.017 -0.142 -8.5 0 0 34 3.017 0.142 m-3.017 -0.142 l8.5 0 0 -34 -4.413 -0.207 -8.5 0 0 34 4.413 0.207" />
    <path class="write-chisel-pen" fill="#00FFFF" fill-opacity="0.29" stroke-width="34" __comx="137.068" __comy="55.597" __timestamp="0x17852518f82" d="M90.618 83.684 l8.5 0 0 -34 -0.557 -0.847 -8.5 0 0 34 0.557 0.847 m-0.557 -34.847 l0 34 8.5 0 2.093 -2.087 0 -34 -8.5 0 -2.093 2.087 m2.093 -2.087 l0 34 8.5 0 5.781 -2.392 0 -34 -8.5 0 -5.781 2.392 m5.781 -2.392 l0 34 8.5 0 10.557 -2.017 0 -34 -8.5 0 -10.557 2.017 m10.557 -2.017 l0 34 8.5 0 18.262 -1.188 0 -34 -8.5 0 -18.262 1.188 m26.762 -1.188 l-8.5 0 0 34 73.211 0.909 8.5 0 0 -34 -73.211 -0.909 m64.711 0.909 l0 34 8.5 0 24.973 -0.645 0 -34 -8.5 0 -24.973 0.645 m24.973 -0.645 l0 34 8.5 0 12.009 -1.299 0 -34 -8.5 0 -12.009 1.299 m12.009 32.701 l8.5 0 0 -34 -63.027 -6.074 -8.5 0 0 34 63.027 6.074 m-63.027 -6.074 l8.5 0 0 -34 -24.051 -1.374 -8.5 0 0 34 24.051 1.374 m-24.051 -1.374 l8.5 0 0 -34 -23.051 -0.183 -8.5 0 0 34 23.051 0.183 m-14.551 -0.183 l0 -34 -8.5 0 -22.93 1.417 0 34 8.5 0 22.93 -1.417 m-22.93 1.417 l0 -34 -8.5 0 -53.149 6.233 0 34 8.5 0 53.149 -6.233 m-53.149 6.233 l0 -34 -8.5 0 -18.375 1.353 0 34 8.5 0 18.375 -1.353 m-26.875 1.353 l8.5 0 0 -34 -2.742 -0.521 -8.5 0 0 34 2.742 0.521 m-2.742 -0.521 l8.5 0 0 -34 -0.933 -1.148 -8.5 0 0 34 0.933 1.148 m-0.933 -35.148 l0 34 8.5 0 1.144 -2.026 0 -34 -8.5 0 -1.144 2.026 m1.144 -2.026 l0 34 8.5 0 4.93 -2.434 0 -34 -8.5 0 -4.93 2.434 m4.93 -2.434 l0 34 8.5 0 9.683 -2.166 0 -34 -8.5 0 -9.683 2.166 m9.683 -2.166 l0 34 8.5 0 17.567 -1.429 0 -34 -8.5 0 -17.567 1.429 m17.567 -1.429 l0 34 8.5 0 26.38 -0.225 0 -34 -8.5 0 -26.38 0.225 m34.88 -0.225 l-8.5 0 0 34 58.567 2.729 8.5 0 0 -34 -58.567 -2.729 m58.567 2.729 l-8.5 0 0 34 50.121 0.376 8.5 0 0 -34 -50.121 -0.376 m41.621 0.376 l0 34 8.5 0 27.42 -1.214 0 -34 -8.5 0 -27.42 1.214 m27.42 -1.214 l0 34 8.5 0 6.241 -1.223 0 -34 -8.5 0 -6.241 1.223 m6.241 32.777 l8.5 0 0 -34 -2.95 -1.346 -8.5 0 0 34 2.95 1.346 m-2.95 -1.346 l8.5 0 0 -34 -11.935 -2.229 -8.5 0 0 34 11.935 2.229 m-11.935 -2.229 l8.5 0 0 -34 -17.847 -1.481 -8.5 0 0 34 17.847 1.481 m-17.847 -1.481 l8.5 0 0 -34 -21.752 -0.181 -8.5 0 0 34 21.752 0.181 m-13.252 -0.181 l0 -34 -8.5 0 -24.889 1.772 0 34 8.5 0 24.889 -1.772 m-24.889 1.772 l0 -34 -8.5 0 -27.191 3.239 0 34 8.5 0 27.191 -3.239 m-27.191 3.239 l0 -34 -8.5 0 -84.617 15.09 0 34 8.5 0 84.617 -15.09 m-93.117 -18.91 l0 34 8.5 0 19.521 -2.951 0 -34 -8.5 0 -19.521 2.951 m19.521 -2.951 l0 34 8.5 0 27.456 -2.197 0 -34 -8.5 0 -27.456 2.197 m27.456 -2.197 l0 34 8.5 0 55.131 -2.49 0 -34 -8.5 0 -55.131 2.49 m55.131 -2.49 l0 34 8.5 0 31.973 -0.424 0 -34 -8.5 0 -31.973 0.424 m40.473 -0.424 l-8.5 0 0 34 37.063 1.569 8.5 0 0 -34 -37.063 -1.569 m37.063 1.569 l-8.5 0 0 34 11.027 1.199 8.5 0 0 -34 -11.027 -1.199 m11.027 35.199 l0 -34 -8.5 0 -8.103 0.752 0 34 8.5 0 8.103 -0.752 m-16.603 0.752 l8.5 0 0 -34 -59.822 -2.415 -8.5 0 0 34 59.822 2.415 m-59.822 -2.415 l8.5 0 0 -34 -22.258 -0.022 -8.5 0 0 34 22.258 0.022 m-13.758 -0.022 l0 -34 -8.5 0 -25.692 2.043 0 34 8.5 0 25.692 -2.043 m-25.692 2.043 l0 -34 -8.5 0 -21.388 2.862 0 34 8.5 0 21.388 -2.862 m-21.388 2.862 l0 -34 -8.5 0 -23.12 4.495 0 34 8.5 0 23.12 -4.495 m-23.12 -29.505 l-8.5 0 0 34 2.323 0.777 8.5 0 0 -34 -2.323 -0.777 m2.323 0.777 l-8.5 0 0 34 15.634 0.334 8.5 0 0 -34 -15.634 -0.334 m7.134 0.334 l0 34 8.5 0 39.665 -2.36 0 -34 -8.5 0 -39.665 2.36 m39.665 -2.36 l0 34 8.5 0 41.055 -1.223 0 -34 -8.5 0 -41.055 1.223 m41.055 -1.223 l0 34 8.5 0 4.872 -0.024 0 -34 -8.5 0 -4.872 0.024 m4.872 -0.024 l0 34 8.5 0 4.949 -0.011 0 -34 -8.5 0 -4.949 0.011 m4.949 -0.011 l0 34 8.5 0 3.858 -0.008 0 -34 -8.5 0 -3.858 0.008" />
    <path class="write-flat-pen" transform="translate(-22.549,-112.425)" fill="#FFFFFF" stroke-width="1.6" __comx="66.202" __comy="55.648" __timestamp="0x177f6001a64" d="M87.543 153.111 l-0.028 0.493 0.016 0.187 0.14 1.481 0.083 0.618 0.627 6.224 0.082 1.085 0.33 13.656 0.465 2.611 0.08 0.003 0.65 -2.607 -0.322 -13.728 -0.108 -1.142 -0.91 -6.241 -0.153 -0.632 -0.402 -1.449 -0.078 -0.182 -0.232 -0.428" />
    <path class="write-flat-pen" transform="translate(-22.549,-112.425)" fill="#FFFFFF" stroke-width="1.6" __comx="68.976" __comy="55.648" __timestamp="0x177f6001baa" d="M78.638 155.901 l-0.651 -0.887 0.051 0.283 0.637 -0.418 0.24 -0.049 23.718 -2.874 0.807 -0.174 2.629 -0.548 -0.021 -0.24 -2.684 -0.076 -0.839 -0.028 -23.881 2.641 -0.624 0.216 -1.037 1.156 0.077 0.531 1.053 0.953" />
    <path class="write-flat-pen" transform="translate(-22.549,-112.425)" fill="#FFFFFF" stroke-width="1.6" __comx="72.347" __comy="55.648" __timestamp="0x177f6001d42" d="M81.62 179.277 l-0.299 0.917 0.62 0.18 2.843 0.063 0.898 -0.104 13.902 -2.098 5.503 -0.621 0.363 -0.044 0.281 -0.039 2.741 -0.377 0 -0.065 -2.744 -0.35 -0.285 -0.037 -0.4 -0.033 -5.607 0.299 -13.92 2.199 -0.819 0.127 -2.655 0.189 0.237 0.086 -0.108 -0.198" />
    <path class="write-flat-pen" transform="translate(-22.549,-112.425)" fill="#FFFFFF" stroke-width="1.6" __comx="92.138" __comy="55.648" __timestamp="0x177f6001f27" d="M108.09 168.624 l-0.182 0.546 0.02 0.242 0.402 1.887 0.134 0.459 1.503 4.791 0 0 1.304 -0.06 0.044 -0.157 -0.03 -3.57 0.484 -2.267 0.579 -0.904 0.831 -0.428 0.946 0.169 1.315 0.982 1.978 2.623 2.486 4.696 1.448 2.391 0.117 -0.041 -0.39 -2.851 -2.423 -4.968 -2.183 -2.89 -1.758 -1.308 -1.763 -0.311 -1.611 0.826 -0.934 1.454 -0.564 2.689 0.099 3.556 0.009 -0.013 1.304 -0.06 0 0 -1.761 -4.695 -0.156 -0.42 -0.624 -1.761 -0.042 -0.097 -0.096 -0.469" />
    <path class="write-flat-pen" transform="translate(-22.549,-112.425)" fill="#FFFFFF" stroke-width="1.6" __comx="109.584" __comy="55.466" __timestamp="0x177f60021b2" d="M127.028 175.044 l0.62 0.359 0.192 0.05 1.15 0.022 0.35 -0.08 2.506 -1.501 0.308 -0.356 1.216 -1.925 0 0 0.49 -2.076 0 0 -0.34 -0.706 0 0 -1.227 0.162 -0.317 1.407 0.603 3.501 2.217 7.071 0.737 4.19 0.224 4.701 -0.289 1.008 -0.296 0.256 -0.47 0.035 -1.521 -1.024 -0.45 -0.489 -0.503 -0.612 -0.481 -0.621 -1.479 -1.925 -0.083 0.05 0.997 2.214 0.33 0.734 0.397 0.74 0.448 0.712 1.862 1.648 1.508 0.006 1.049 -0.89 0.463 -1.679 -0.282 -5.03 -0.805 -4.36 -2.24 -7.061 -0.562 -3.151 0.228 -1.159 -1.227 0.162 0 0 0.163 0.281 0 0 -0.295 1.443 0 0 -0.994 1.726 -0.134 0.177 -2.108 1.569 -0.139 0.062 -0.986 0.205 -0.086 0.009 -0.665 -0.085" />
    <path class="write-flat-pen" transform="translate(-22.549,-112.425)" fill="#FFFFFF" stroke-width="1.6" __comx="109.083" __comy="55.466" __timestamp="0x177f600224f" d="M130.286 161.959 l1.139 0.491 1.513 0.611 0.04 -0.064 -1.239 -1.114 -1.119 -0.61" />
    <path class="write-flat-pen" transform="translate(-22.549,-112.425)" fill="#FFFFFF" stroke-width="1.6" __comx="125.121" __comy="55.466" __timestamp="0x177f60023fa" d="M141.606 170.369 l-0.485 0.133 -0.091 0.413 0.078 0.137 1.354 0.482 0.46 0.039 2.398 -0.312 2.503 -1.046 2.467 -1.747 1.083 -1.549 -0.012 -1.269 -1.194 -0.949 -2.186 0.089 -2.642 1.07 -2.198 1.716 -1.584 2.206 -0.875 2.385 -0.034 2.155 0.843 1.992 1.768 1.47 2.585 0.689 5.26 -1.214 0.575 -0.296 0.853 -0.581 2.16 -1.613 -0.054 -0.099 -2.513 0.947 -0.922 0.335 -0.462 0.147 -4.854 0.863 -1.941 -0.515 -1.255 -1.031 -0.597 -1.383 0.01 -1.61 0.701 -1.99 1.331 -1.913 1.876 -1.51 2.255 -0.953 1.513 -0.111 0.42 0.291 0.022 0.337 -0.743 1.097 -2.196 1.589 -2.253 0.999 -2.159 0.399 -0.282 0.004 -1.117 -0.141 0.027 0.064 -0.091 0.413 0.357 -0.355" />
    <path class="write-flat-pen" transform="translate(-22.549,-112.425)" fill="#FFFFFF" stroke-width="1.6" __comx="138.962" __comy="55.466" __timestamp="0x177f6002531" d="M161.134 167.382 l0.475 -1.032 0.065 -0.161 -0.259 -1.246 -0.75 0.078 -4.004 3.149 -0.52 0.61 -1.409 2.259 -0.742 2.34 0.085 2.246 0.785 1.685 1.414 1.287 2.087 0.691 2.545 -0.22 3.373 -1.498 0.853 -0.557 0.751 -0.554 0.676 -0.559 0.629 -0.6 1.845 -1.763 -0.027 -0.035 -2.176 1.332 -0.723 0.44 -0.735 0.4 -0.795 0.412 -0.822 0.409 -3.177 1.179 -2.034 0.134 -1.513 -0.504 -0.973 -0.879 -0.548 -1.154 -0.086 -1.709 0.585 -1.948 1.23 -2.048 0.368 -0.45 3.504 -3.082 -0.409 0.033 0.17 0.102 0.031 -0.066 -0.223 1.129" />
    <path class="write-flat-pen" transform="translate(-22.549,-112.425)" fill="#FFFFFF" stroke-width="1.6" __comx="151.273" __comy="55.466" __timestamp="0x177f600264a" d="M171.812 153.944 l0.15 1.19 0.097 0.481 0.628 3.751 0.163 1.013 1.959 16.549 0.956 1.301 0.064 -0.022 0.003 -1.509 -1.813 -16.49 -0.205 -1.057 -0.889 -3.744 -0.169 -0.479 -0.405 -1.115" />
    <path class="write-flat-pen" transform="translate(-22.549,-112.425)" fill="#FFFFFF" stroke-width="1.6" __comx="151.863" __comy="55.466" __timestamp="0x177f6002706" d="M167.726 167.323 l0.887 -0.09 0.228 -0.01 9.032 -1.177 0.842 -0.184 2.602 -0.555 -0.014 -0.154 -2.66 -0.071 -0.875 -0.026 -9.083 0.992 -0.299 0.066 -0.88 0.372" />
    <path class="write-flat-pen" transform="translate(-22.549,-112.425)" fill="#FFFFFF" stroke-width="1.6" __comx="167.045" __comy="55.466" __timestamp="0x177f600289e" d="M188.503 164.921 l-0.246 0.851 -0.026 0.329 0.145 2.49 0.068 0.652 1.533 8.466 0.945 0.151 0.035 -0.052 -0.175 -0.613 -1.234 -8.116 -0.099 -0.618 -0.402 -2.41 -0.034 -0.236 -0.036 -0.834" />
    <path class="write-flat-pen" transform="translate(-22.549,-112.425)" fill="#FFFFFF" stroke-width="1.6" __comx="167.338" __comy="55.466" __timestamp="0x177f600293b" d="M189.589 160.393 l-0.197 1.441 0.906 1.472 0.071 -0.027 -0.223 -1.521 0.236 -1.237" />
    <path class="write-flat-pen" transform="translate(-22.549,-112.425)" fill="#FFFFFF" stroke-width="1.6" __comx="178.395" __comy="55.466" __timestamp="0x177f6002a7f" d="M194.732 161.537 l-0.157 1.551 0.005 0.451 0.583 3.815 0.174 0.772 1.011 3.638 1.418 2.999 1.18 1.147 1.729 0.219 1.575 -1.131 1.57 -2.668 2.961 -9.128 0.532 -2.669 -0.08 -0.034 -1.593 2.267 -3.117 8.974 -1.334 2.299 -0.888 0.665 -0.757 -0.07 -0.71 -0.654 -1.346 -2.662 -1.108 -3.478 -0.194 -0.71 -0.815 -3.692 -0.047 -0.37 -0.1 -1.525" />
    <path class="write-flat-pen" transform="translate(-22.549,-112.425)" fill="#FFFFFF" stroke-width="1.6" __comx="189.182" __comy="55.466" __timestamp="0x177f6002b7a" d="M210.448 167.269 l-0.051 1.15 0.005 0.354 0.242 2.497 0.07 0.553 1.121 4.193 1.16 0.726 0.071 -0.059 -0.359 -1.111 -0.959 -3.963 -0.098 -0.496 -0.507 -2.432 -0.062 -0.319 -0.21 -1.121" />
    <path class="write-flat-pen" transform="translate(-22.549,-112.425)" fill="#FFFFFF" stroke-width="1.6" __comx="191.469" __comy="55.466" __timestamp="0x177f6002c0e" d="M214.377 157.04 l-0.075 -0.537 -0.096 -0.849 -0.068 -0.015 -0.478 0.832 0.071 0.649" />
    <path class="write-flat-pen" transform="translate(-22.549,-112.425)" fill="#FFFFFF" stroke-width="1.6" __comx="199.96" __comy="55.466" __timestamp="0x177f6002d09" d="M220.82 153.073 l-0.292 1.807 -0.044 0.631 0.055 5.634 0.942 8.565 1.587 6.637 1.407 1.687 0.06 -0.031 -0.524 -2 -1.32 -6.495 -0.977 -8.445 -0.24 -5.551 -0.01 -0.579 0.012 -1.805" />
    <path class="write-flat-pen" transform="translate(-22.549,-112.425)" fill="#FFFFFF" stroke-width="1.6" __comx="199.883" __comy="55.466" __timestamp="0x177f6002de6" d="M214.529 165.875 l0.926 0.003 0.235 0.018 11.42 -0.022 0.664 -0.095 2.675 -0.378 -0.001 -0.082 -2.684 -0.309 -0.657 -0.078 -11.434 -0.14 -0.313 0.038 -0.942 0.275" />
    <path class="write-flat-pen" transform="translate(-22.549,-112.425)" fill="#FFFFFF" stroke-width="1.6" __comx="214.149" __comy="55.466" __timestamp="0x177f6002f1c" d="M232.998 165.21 l-0.012 0.867 0.066 0.312 0.676 1.879 0.241 0.516 4.053 6.194 2.315 1.602 0.075 -0.076 -1.534 -2.22 -3.868 -6.099 -0.231 -0.412 -0.879 -1.702 -0.09 -0.178 -0.229 -0.761" />
    <path class="write-flat-pen" transform="translate(-22.549,-112.425)" fill="#FFFFFF" stroke-width="1.6" __comx="217.917" __comy="55.169" __timestamp="0x177f600300e" d="M246.02 162.598 l-0.229 0.549 -0.091 0.218 -0.337 1.169 -0.129 0.571 -1.086 4.714 -0.317 1.27 -1.71 5.751 -4.362 10.674 -0.559 1.272 -1.02 2.254 -0.451 1.024 -0.382 0.909 -0.968 2.291 0.084 0.045 1.374 -2.074 0.547 -0.823 0.595 -0.956 1.254 -2.156 0.666 -1.273 4.632 -10.686 1.707 -5.878 0.308 -1.337 0.838 -4.816 0.054 -0.598 0.077 -1.186 0.005 -0.215 0.034 -0.591" />
    <path class="write-flat-pen" transform="translate(-22.549,-112.425)" fill="#FFFFFF" stroke-width="1.6" __comx="265.584" __comy="55.435" __timestamp="0x177f60035a8" d="M268.932 192.911 l0.581 -1.269 0.328 -0.55 4.627 -7.119 1.14 -1.719 14.782 -21.376 15.311 -21.425 0.543 -0.986 0.667 -1.539 0.887 -2.316 -0.087 -0.043 -1.319 2.091 -0.896 1.375 -0.613 0.871 -15.477 21.28 -14.701 21.463 -1.127 1.755 -4.415 7.295 -0.313 0.648 -0.381 1.398" />
    <path class="write-flat-pen" transform="translate(-22.549,-112.425)" fill="#FFFFFF" stroke-width="1.6" __comx="302.778" __comy="55.435" __timestamp="0x177f60039b7" d="M326.452 161.06 l0.18 -1.009 0.033 -0.192 0.136 -1.238 -0.04 -0.292 -1.153 -1.495 -0.621 -0.139 -2.144 0.412 -2.683 1.692 -1.994 2.04 -1.73 2.657 -1.587 3.728 -0.66 3.519 0.24 2.617 0.854 2.244 1.412 1.847 1.875 1.212 2.594 0.377 2.211 -0.497 3.397 -1.736 3.296 -2.625 3.303 -3.657 2.059 -3.495 0.781 -2.38 0.258 -2.883 -0.706 -2.315 -1.381 -1.976 -1.658 -1.311 -2.339 -0.823 -1.887 0.246 -2.01 2.124 -0.183 0.538 -0.066 0.866 -0.001 2.396 0.204 0.03 0.685 -2.269 0.256 -0.69 0.118 -0.181 1.66 -1.429 1.06 -0.113 1.775 0.628 1.293 1.02 1.12 1.604 0.555 1.813 -0.208 2.428 -0.669 2.072 -1.889 3.24 -3.118 3.465 -3.085 2.473 -3.103 1.612 -1.786 0.419 -2.054 -0.273 -1.446 -0.906 -1.175 -1.497 -0.743 -1.895 -0.227 -2.264 0.591 -3.213 1.488 -3.503 1.605 -2.463 1.804 -1.859 2.358 -1.546 1.697 -0.432 0.071 -0.005 0.988 0.898 0.019 0.012 0.13 1.157 0.014 0.182 0.072 1.022" />
    <path class="write-flat-pen" transform="translate(-22.549,-112.425)" fill="#FFFFFF" stroke-width="1.6" __comx="320.053" __comy="55.435" __timestamp="0x177f6003b8d" d="M339.021 167.39 l-0.867 1.619 -0.078 0.304 -0.852 4.254 0 0 -0.033 0.185 0 0 -0.205 0.98 0 0 1.061 0.262 1.585 -4.449 1.64 -3.11 1.42 -1.75 1 -0.578 0.638 0.076 0.527 0.524 0.672 1.774 0.406 3.779 -0.138 4.187 0.653 1.28 0.549 0.003 0.219 -0.108 1.001 -0.628 -0.018 -0.088 -1.166 -0.193 -0.095 -0.045 0.295 -0.02 -0.083 -0.455 0.104 -3.987 -0.475 -4.032 -0.855 -2.172 -1.035 -1.001 -1.466 -0.165 -1.548 0.901 -1.627 2.028 -1.725 3.303 -1.516 4.569 1.061 0.262 0 0 0.099 -0.996 0 0 0.023 -0.18 0 0 0.579 -4.276 0.036 -0.224 0.595 -1.664" />
    <path class="write-flat-pen" transform="translate(-22.549,-112.425)" fill="#FFFFFF" stroke-width="1.6" __comx="337.378" __comy="55.435" __timestamp="0x177f6003d45" d="M352.925 169.128 l0.036 0.94 0.256 0.23 2.013 0.734 0.651 0.068 3.274 -0.282 3.254 -1.013 2.412 -1.324 1.042 -1.239 -0.036 -1.274 -1.436 -0.96 -2.521 -0.272 -2.864 0.527 -2.336 1.192 -1.978 1.954 -1.108 2.02 -0.242 1.959 0.676 1.565 1.257 1.024 2.376 0.745 5.167 -0.367 0.575 -0.132 0.964 -0.3 2.57 -0.816 -0.014 -0.075 -2.695 0.16 -0.991 0.08 -0.514 0.037 -4.893 0.1 -1.921 -0.598 -0.826 -0.662 -0.423 -0.955 0.154 -1.38 0.884 -1.662 1.702 -1.705 2.008 -1.027 2.517 -0.464 2.054 0.214 0.681 0.449 0.01 0.208 -0.602 0.735 -2.108 1.189 -3.021 1.001 -3.063 0.375 -0.466 -0.018 -1.86 -0.431 0.012 0.033 -0.266 -0.653" />
    <path class="write-flat-pen" transform="translate(-22.549,-112.425)" fill="#FFFFFF" stroke-width="1.6" __comx="363.041" __comy="56.602" __timestamp="0x177f600d15a" d="M380.204 168.542 l0.868 -0.654 2.39 -0.519 5.066 0.226 2.582 0.327 0.009 -0.055 -2.558 -0.56 -5.137 -0.373 -2.512 0.636 -0.853 0.8" />
    <path class="write-flat-pen" transform="translate(-22.549,-112.425)" fill="#FFFFFF" stroke-width="1.6" __comx="386.428" __comy="56.602" __timestamp="0x177f600d354" d="M407.581 153.786 l0.135 0.568 0.04 0.203 0.484 2.079 0.11 0.565 0.761 5.632 0.244 6.485 -0.194 6.734 -0.008 0.398 -0.006 0.81 0.007 2.746 0.016 0.002 0.566 -2.689 0.147 -0.802 0.062 -0.413 0.428 -6.783 -0.284 -6.582 -0.962 -5.688 -0.163 -0.607 -0.736 -2.034 -0.098 -0.226 -0.387 -0.48" />
    <path class="write-flat-pen" transform="translate(-22.549,-112.425)" fill="#FFFFFF" stroke-width="1.6" __comx="388.356" __comy="56.602" __timestamp="0x177f600d45c" d="M402.313 169.114 l0.307 -0.868 1.244 -0.658 3.38 -0.494 9.423 -0.406 0.667 -0.103 2.668 -0.412 -0.006 -0.083 -2.7 -0.046 -0.662 -0.013 -9.48 0.131 -3.577 0.642 -1.537 1.005 -0.232 1.171" />
    <path class="write-flat-pen" transform="translate(-22.549,-112.425)" fill="#FFFFFF" stroke-width="1.6" __comx="403.553" __comy="56.602" __timestamp="0x177f600d627" d="M425.041 169.375 l0.318 -0.749 -0.251 -0.392 -1.875 0.884 -0.345 0.323 -1.274 1.651 -0.75 2.195 0.025 2.098 0.891 2.05 1.288 1.135 1.56 0.417 1.812 -0.318 2.231 -1.42 1.633 -1.884 0.998 -2.433 0.041 -1.894 -0.666 -1.751 -1.383 -1.473 -2.404 -0.458 -0.32 0.237 -0.084 0.109 -0.793 1.203 0.03 0.037 1.335 -0.541 0.069 -0.016 -0.07 0.086 1.546 0.517 0.93 1.011 0.482 1.27 -0.026 1.393 -0.821 2.009 -1.362 1.587 -1.847 1.203 -1.29 0.252 -1.029 -0.245 -0.903 -0.749 -0.741 -1.585 -0.069 -1.691 0.574 -1.893 1.065 -1.515 0.195 -0.204 1.166 -0.804 -0.173 -0.282 0.008 0.566" />
    <path class="write-flat-pen" transform="translate(-22.549,-112.425)" fill="#FFFFFF" stroke-width="1.6" __comx="422.576" __comy="56.602" __timestamp="0x177f600d72f" d="M439.465 169.723 l8.708 0.118 2.611 -0.191 0.001 -0.05 -2.602 -0.282 -8.704 -0.258" />
    <path class="write-flat-pen" transform="translate(-22.549,-112.425)" fill="#FFFFFF" stroke-width="1.6" __comx="448.257" __comy="56.602" __timestamp="0x177f600da77" d="M474.389 158.896 l-0.263 -1.46 -0.066 -0.175 -0.898 -1.448 -0.281 -0.218 -1.909 -0.685 -2.596 0.381 -2.095 1.095 -2.077 1.924 -1.794 2.667 -1.438 3.708 -0.575 3.887 0.26 2.843 0.904 2.759 1.865 3.043 2.204 2.007 2.029 0.861 2.458 0.075 2.77 -0.897 2.586 -1.731 2.838 -3.072 1.572 -2.703 1.159 -3.807 0.176 -2.978 -0.63 -2.941 -1.457 -2.748 -1.689 -1.859 -1.634 -0.92 -1.529 0.055 -1.084 1.279 -0.11 0.506 0 0.786 0.075 0.405 0.407 2.067 0.05 -0.002 0.265 -2.09 0.049 -0.337 0.189 -0.596 0.091 -0.127 0.666 -0.497 0.559 0.02 1.081 0.612 1.411 1.545 1.281 2.404 0.554 2.549 -0.148 2.611 -1.058 3.483 -1.411 2.42 -2.614 2.834 -2.275 1.537 -2.345 0.781 -1.957 -0.039 -1.584 -0.652 -1.91 -1.705 -1.717 -2.734 -0.843 -2.469 -0.26 -2.549 0.513 -3.608 1.329 -3.462 1.63 -2.453 1.846 -1.75 1.781 -0.978 2.165 -0.416 1.606 0.412 0.084 0.042 0.992 1.15 0.048 0.076 0.508 1.35" />
    <path class="write-flat-pen" transform="translate(-22.549,-112.425)" fill="#FFFFFF" stroke-width="1.6" __comx="478.336" __comy="56.602" __timestamp="0x177f600dd9c" d="M485.258 166.402 l-0.133 0.588 0.087 0.279 0.846 3.262 0.112 0.488 0.431 5.653 0.035 -0.159 0 0 -0.154 0.11 0 0 1.085 0.313 -0.33 -1.505 0.227 -2.179 1.057 -3.224 1.664 -2.853 1.504 -1.673 1.492 -0.886 0.671 -0.046 0.781 0.38 0.717 1.049 0.618 2.209 0.163 6.561 0.492 2.106 1.018 0.971 1.714 0.185 2.399 -1.047 3.002 -2.377 2.44 -2.778 1.288 -2.217 0.697 -2.483 -0.437 -1.473 -1.532 -1.042 -1.471 -0.015 -1.412 0.779 -1.398 2.047 -0.715 2.58 -0.069 2.534 0.733 2.401 1.195 1.625 2.057 1.367 1.919 0.559 2.804 -0.097 2.931 -1.163 0.506 -0.367 0.42 -0.395 1.934 -1.825 -0.081 -0.117 -2.386 1.174 -0.484 0.232 -0.432 0.186 -2.679 0.864 -2.354 0.074 -1.497 -0.429 -1.681 -1.097 -0.923 -1.227 -0.621 -1.957 0.041 -2.147 0.604 -2.21 1.093 -1.604 0.829 -0.455 0.716 0.012 0.794 0.553 0.182 0.639 -0.55 1.94 -1.132 1.954 -2.271 2.586 -2.765 2.195 -1.908 0.833 -0.902 -0.094 -0.4 -0.374 -0.379 -1.58 -0.203 -6.582 -0.715 -2.568 -1.025 -1.513 -1.398 -0.693 -1.334 0.076 -1.955 1.129 -1.754 1.917 -1.817 3.098 -1.15 3.504 -0.252 2.56 0.447 1.716 1.085 0.313 0 0 0.364 -0.396 0 0 0.094 -0.393 -0.728 -5.915 -0.161 -0.571 -1.106 -3.23 -0.089 -0.178 -0.133 -0.469" />
    <path class="write-stroke-pen" transform="translate(-22.549,-112.425)" fill="none" stroke="#FFFFFF" stroke-width="1.6" stroke-linecap="round" stroke-linejoin="round" __comx="271.584" __comy="91.472" __timestamp="0x177f600fff9" d="M41.617 209.871 l505.032 -11.414" />
    <path class="write-flat-pen" transform="translate(0,61.28)" fill="#FFFFFF" stroke-width="1.6" __comx="69.545" __comy="225.516" __timestamp="0x177f610e51c" d="M69.192 153.142 l-0.874 -0.127 -0.215 0.46 -0.665 4.231 -0.034 1.16 1.319 13.057 1.621 4.571 1.025 0.138 0.034 -0.167 0.284 -1.307 -0.076 -0.049 -1.065 0.808 -0.137 0.102 1.025 0.138 -1.203 -4.546 -1.511 -12.809 -0.012 -1.021 0.231 -4.101 -0.065 0.076 0.354 -0.234" />
    <path class="write-flat-pen" transform="translate(0,61.28)" fill="#FFFFFF" stroke-width="1.6" __comx="77.714" __comy="225.516" __timestamp="0x177f610e6ec" d="M68.553 157.547 l-0.967 -1.176 -0.039 -0.082 -0.992 -3.396 0.032 -0.54 0.524 -2.381 1.127 -1.592 1.508 -0.82 2.803 -0.253 4.675 1.027 3.817 1.779 3.198 2.46 2.323 2.897 1.451 3.392 0.576 3.805 -0.292 2.887 -1.359 3.672 -2.306 3.229 -3.068 2.532 -3.614 1.638 -4.357 0.908 -1.015 -0.051 -0.089 0.517 0.11 -0.39 0.879 -1.562 -0.057 -0.052 -1.499 1.061 -0.574 0.54 -0.108 0.928 2.356 0.641 4.853 -1.013 3.967 -1.802 3.386 -2.807 2.538 -3.577 1.496 -4.058 0.329 -3.283 -0.641 -4.196 -1.619 -3.767 -2.574 -3.205 -3.481 -2.677 -4.127 -1.925 -5.079 -1.108 -3.359 0.324 -2.083 1.17 -1.446 2.162 -0.493 2.808 0.004 0.892 1.51 3.604 0.193 0.222 1.291 0.931" />
    <path class="write-flat-pen" transform="translate(0,61.28)" fill="#FFFFFF" stroke-width="1.6" __comx="101.435" __comy="225.516" __timestamp="0x177f610e8a3" d="M92.399 170.862 l0.794 0.427 0.346 0.037 3.173 -0.719 0.463 -0.223 2.425 -1.742 1.357 -2.138 0.033 -1.763 -1.191 -1.348 -1.901 -0.287 -1.863 0.917 -1.953 2.723 -1.082 3.734 0.233 3.227 1.29 2.776 2.166 1.864 2.996 0.942 6.167 -1.384 0.65 -0.361 0.563 -0.366 3.407 -2.216 -0.043 -0.085 -3.793 1.46 -0.606 0.231 -0.547 0.189 -5.706 0.922 -2.307 -0.736 -1.665 -1.432 -1.03 -2.206 -0.198 -2.661 0.923 -3.213 1.562 -2.205 1.088 -0.552 0.904 0.117 0.48 0.505 0.019 0.808 -0.949 1.636 -2.054 1.653 -0.264 0.154 -2.844 1.056 -0.151 0.029 -0.817 -0.029" />
    <path class="write-flat-pen" transform="translate(0,61.28)" fill="#FFFFFF" stroke-width="1.6" __comx="119.703" __comy="225.516" __timestamp="0x177f610ea31" d="M116.059 175.669 l-0.119 1.736 0.115 0.118 0 0 0.514 -0.264 0.211 -2.656 -0.08 -0.799 -3.728 -17.196 -0.091 -0.453 -0.194 -2.822 0.552 -1.419 1.411 -1.064 2.473 -0.479 6.463 1.491 0.427 0.174 0.418 0.175 3.832 1.619 0.042 -0.075 -3.403 -2.393 -0.38 -0.267 -0.512 -0.322 -6.832 -2.016 -3.191 0.604 -2.061 1.567 -0.826 2.173 0.264 3.271 0.123 0.564 4.137 17.059 0.104 0.672 0.188 2.59 0.514 -0.264 0 0 0.084 0.096 -0.285 -1.428" />
    <path class="write-flat-pen" transform="translate(0,61.28)" fill="#FFFFFF" stroke-width="1.6" __comx="119.369" __comy="225.516" __timestamp="0x177f610eb10" d="M104.092 160.052 l5.712 0.153 1.109 0.049 17.517 -0.435 1.104 -0.107 1.016 -0.122 4.104 -0.49 -0.005 -0.099 -4.132 -0.092 -1.021 -0.024 -1.094 -0.015 -17.478 0.103 -1.105 -0.029 -5.736 0.263" />
    <path class="write-flat-pen" transform="translate(0,61.28)" fill="#FFFFFF" stroke-width="1.6" __comx="103.222" __comy="249.074" __timestamp="0x177f610ec5e" d="M63.119 189.725 l1.415 -0.127 1.022 -0.046 55.228 -2.085 17.39 -0.477 1.417 -0.071 3.886 -0.193 0.001 -0.062 -3.878 -0.314 -1.421 -0.116 -17.43 -0.306 -55.272 2.452 -1.123 0.156 -1.389 0.566" />
    <path class="write-flat-pen" transform="translate(0,61.28)" fill="#FFFFFF" stroke-width="1.6" __comx="204.362" __comy="228.828" __timestamp="0x177f610f45b" d="M192.059 177.47 l-0.449 1.094 0.252 0.308 0.23 0.027 0.644 -1.742 0.146 -0.469 6.262 -20.355 1.195 -6.121 0 0 -0.131 -3.729 0 0 -1.407 -0.093 -0.289 1.569 1.798 5.242 7.904 15.841 4.072 6.675 2.22 1.504 2.59 0.141 0.019 -0.074 -2.103 -1.088 -1.595 -1.487 -3.886 -6.399 -7.857 -15.686 -1.669 -4.789 0.193 -1.206 -1.407 -0.093 0 0 0.163 3.566 0 0 -1.14 5.899 -5.924 20.405 -0.107 0.504 -0.139 1.428 0.203 0.027 0.252 0.308 0.084 -1.179" />
    <path class="write-flat-pen" transform="translate(0,61.28)" fill="#FFFFFF" stroke-width="1.6" __comx="201.013" __comy="228.828" __timestamp="0x177f610f541" d="M192.926 162.107 l12.165 1.172 4.008 -0.289 -0.001 -0.064 -3.985 -0.159 -12.119 -1.324" />
    <path class="write-flat-pen" transform="translate(0,61.28)" fill="#FFFFFF" stroke-width="1.6" __comx="251.845" __comy="228.828" __timestamp="0x177f610f859" d="M251.779 183.301 l0.09 0.007 0.178 -0.207 0.036 0.038 -0.537 -4.528 -0.184 -0.892 -5.604 -17.085 -0.693 -4.111 0.372 -2.108 1.303 -2.203 2.242 -2.013 2.361 -1.095 2.255 -0.189 2.071 0.813 1.72 2.065 1.553 4.249 0.113 0.473 0.11 0.479 0.909 3.973 0.062 -0.008 -0.175 -4.071 -0.021 -0.499 -0.046 -0.567 -1.262 -4.691 -2.047 -2.634 -2.751 -1.127 -2.886 0.231 -2.818 1.306 -2.585 2.33 -1.547 2.652 -0.444 2.637 0.806 4.465 5.903 17.039 0.201 0.796 0.955 4.416 0.096 0.467 0.353 -0.206 0.105 -0.186" />
    <path class="write-flat-pen" transform="translate(0,61.28)" fill="#FFFFFF" stroke-width="1.6" __comx="248.492" __comy="228.828" __timestamp="0x177f610f935" d="M236.351 170.042 l5.393 -0.488 0.901 -0.153 13.872 -2.411 4.178 -0.724 -0.004 -0.035 -4.255 0.156 -13.948 2.113 -0.882 0.176 -5.317 0.889" />
    <path class="write-flat-pen" transform="translate(0,61.28)" fill="#FFFFFF" stroke-width="1.6" __comx="271.586" __comy="228.828" __timestamp="0x177f610fb10" d="M264.356 166.752 l-0.49 -0.529 -0.515 0.185 -0.096 0.191 -1.09 5.49 0.022 0.668 0.46 2.918 1.449 2.016 2.13 0.554 2.731 -1.156 2.631 -2.617 1.993 -3.611 0 0 0.723 -3.612 0 0 -1.406 -0.216 -0.289 2.709 0.728 3.594 1.351 2.241 2.92 0.926 0.483 -0.135 2.917 -0.938 -0.012 -0.072 -3.063 0.086 -0.219 -0.015 -2.076 -0.981 -0.955 -1.632 -0.635 -3.142 0.266 -2.49 -1.406 -0.216 0 0 -0.689 3.394 0 0 -1.785 3.243 -2.282 2.296 -2.042 0.891 -1.218 -0.286 -1.026 -1.349 -0.478 -2.532 -0.033 -0.471 0.642 -5.358 0.027 -0.134 -0.515 0.185 0.704 0.155" />
    <path class="write-flat-pen" transform="translate(0,61.28)" fill="#FFFFFF" stroke-width="1.6" __comx="288.583" __comy="228.828" __timestamp="0x177f610fca0" d="M283.976 166.768 l-0.222 1.639 0.002 0.344 0.523 5.598 0.043 0.358 0 0 0.457 1.891 0 0 1.313 -0.118 0.735 -7.504 0.627 -1.438 0.67 -0.249 1.265 0.594 1.338 1.821 1.466 5.131 1.105 3.137 0.078 -0.013 0.034 -3.384 -1.338 -5.514 -1.727 -2.343 -2.157 -1.01 -1.826 0.68 -0.959 2.225 -0.646 7.746 1.313 -0.118 0 0 -0.556 -1.783 0 0 -0.046 -0.273 -0.942 -5.514 -0.042 -0.286 -0.168 -1.613" />
    <path class="write-flat-pen" transform="translate(0,61.28)" fill="#FFFFFF" stroke-width="1.6" __comx="306.63" __comy="228.828" __timestamp="0x177f610fdf5" d="M304.667 166.164 l1.346 -1.031 0.076 -0.174 -0.503 -0.479 -2.366 0.696 -0.568 0.42 -2.293 2.369 -1.711 3.17 -0.418 2.905 0.792 2.829 1.656 1.843 2.817 1.115 3.362 -0.184 4.428 -1.856 0.587 -0.451 3.157 -2.457 -0.051 -0.081 -3.576 1.793 -0.569 0.278 -4.263 1.347 -2.819 0.091 -2.185 -0.872 -1.195 -1.313 -0.64 -2.189 0.293 -2.36 1.427 -2.835 2.017 -2.247 0.337 -0.278 2.059 -1.017 -0.503 -0.479 0.013 0.017 -0.928 1.204" />
    <path class="write-flat-pen" transform="translate(0,61.28)" fill="#FFFFFF" stroke-width="1.6" __comx="320.746" __comy="228.828" __timestamp="0x177f610fefe" d="M318.455 153.345 l0.124 3.087 0.134 0.821 3.252 21.062 1.016 2.328 0.057 -0.012 0 -2.511 -3.275 -21.05 -0.181 -0.787 -0.518 -3" />
    <path class="write-flat-pen" transform="translate(0,61.28)" fill="#FFFFFF" stroke-width="1.6" __comx="322.644" __comy="228.828" __timestamp="0x177f610ffc5" d="M313.95 166.443 l-0.317 0.229 0.84 0.173 0.341 0.026 12.693 -0.045 4.167 -0.444 -0.003 -0.112 -4.173 -0.238 -12.689 -0.104 -0.362 0.036 -0.835 0.249 0.01 0.557" />
    <path class="write-flat-pen" transform="translate(0,61.28)" fill="#FFFFFF" stroke-width="1.6" __comx="336.13" __comy="228.828" __timestamp="0x177f61100c3" d="M335.434 164.801 l-0.297 2.066 -0.039 0.574 0.015 6.455 1.057 2.163 0.992 -0.438 -0.002 -0.062 -0.407 -0.388 -0.387 -1.529 -0.314 -6.205 -0.02 -0.54 -0.092 -2.071" />
    <path class="write-flat-pen" transform="translate(0,61.28)" fill="#FFFFFF" stroke-width="1.6" __comx="337.575" __comy="228.828" __timestamp="0x177f6110156" d="M336.841 155.975 l0.342 4.443 1.077 3.336 0.047 -0.012 -0.622 -3.405 -0.308 -4.401" />
    <path class="write-flat-pen" transform="translate(0,61.28)" fill="#FFFFFF" stroke-width="1.6" __comx="345.921" __comy="228.828" __timestamp="0x177f61102b7" d="M347.685 164.052 l-1.778 -1.013 -0.488 -0.017 -2.09 0.573 -1.525 1.609 -0.92 2.519 0.104 2.743 1.199 2.18 1.935 1.014 2.319 -0.329 2.46 -1.918 1.752 -3.014 0.305 -3.535 -1.378 -1.285 -0.037 0.023 0.355 1.487 -0.595 2.839 -1.494 2.527 -1.949 1.512 -1.492 0.225 -1.174 -0.59 -0.882 -1.519 -0.147 -2.179 0.673 -2.087 1.096 -1.272 1.629 -0.579 0.152 -0.017 1.765 0.566" />
    <path class="write-flat-pen" transform="translate(0,61.28)" fill="#FFFFFF" stroke-width="1.6" __comx="360.503" __comy="228.828" __timestamp="0x177f611043b" d="M352.966 165.12 l0.685 0.264 -0.063 -0.033 1.37 3.703 0.083 0.377 0 0 0.728 3.766 0 0 1.387 0.042 1.491 -5.481 1.619 -3.042 1.705 -1.456 1.238 -0.259 1.247 0.581 1.121 1.699 0.917 3.254 0.334 5.522 0.031 4.138 0.171 0.02 1.011 -4.112 -0.149 -5.793 -1.045 -3.616 -1.48 -2.183 -2.005 -0.898 -1.99 0.427 -2.156 1.827 -1.841 3.38 -1.594 5.61 1.387 0.042 0 0 -0.881 -3.754 0 0 -0.132 -0.493 -1.859 -3.774 -0.283 -0.259 -1.015 0.123" />
    <path class="write-flat-pen" transform="translate(0,61.28)" fill="#FFFFFF" stroke-width="1.6" __comx="405.273" __comy="228.828" __timestamp="0x177f6110752" d="M404.431 167.049 l0.145 -0.672 -0.554 0.208 0.026 0.1 0.695 2.718 0.116 0.621 -0.006 -0.026 0.901 7.383 0.682 -0.361 -0.456 -0.104 -0.26 0.31 0.182 0.431 0.682 -0.361 -0.609 -7.477 -0.006 -0.026 -0.168 -0.68 -1.131 -2.748 -0.151 -0.142 -0.554 0.208 0.258 0.637" />
    <path class="write-flat-pen" transform="translate(0,61.28)" fill="#FFFFFF" stroke-width="1.6" __comx="405.59" __comy="228.828" __timestamp="0x177f611080f" d="M405.435 160.123 l0.144 -0.403 0.808 -0.323 0.001 -0.075 -1.376 -0.346 -0.218 0.978" />
    <path class="write-flat-pen" transform="translate(0,61.28)" fill="#FFFFFF" stroke-width="1.6" __comx="416.268" __comy="228.828" __timestamp="0x177f611099b" d="M419.313 161.631 l-1.507 -0.655 -0.343 -0.022 -2.732 0.493 -1.664 1.258 -0.453 1.64 1.113 1.876 5.567 2.892 1.228 1.314 0.099 1.285 -0.945 1.702 -2.585 1.962 -2.691 0.983 -1.583 -0.1 -0.645 -0.505 0.043 -1.611 0.076 -0.175 1.591 -2.321 -0.107 -0.104 -2.268 1.665 -0.459 0.377 -0.494 2.839 1.701 1.328 2.376 0.122 3.178 -1.215 2.948 -2.334 1.226 -2.336 -0.203 -2.128 -1.695 -1.797 -5.457 -2.807 -0.69 -1.106 0.177 -0.764 1.103 -0.926 2.338 -0.649 0.13 -0.016 1.515 0.226" />
    <path class="write-flat-pen" transform="translate(0,61.28)" fill="#FFFFFF" stroke-width="1.6" __comx="453.775" __comy="228.828" __timestamp="0x177f6110bac" d="M454.483 166.753 l-0.487 2.517 0 0 -0.072 0.563 -1.266 9.42 0 0 1.075 0.281 0.184 -0.974 0.164 -0.602 0.636 -2.332 -0.018 -0.007 -1.151 2.126 -0.296 0.545 -0.555 0.817 1.075 0.281 0 0 1.006 -9.468 0.021 -0.57 0 0 0.095 -2.549" />
    <path class="write-flat-pen" transform="translate(0,61.28)" fill="#FFFFFF" stroke-width="1.6" __comx="456.449" __comy="228.828" __timestamp="0x177f6110c55" d="M456.954 158.962 l-1.219 0.463 0.657 2.05 0.083 -0.014 0.048 -1.629 0.641 -0.438" />
    <path class="write-flat-pen" transform="translate(0,61.28)" fill="#FFFFFF" stroke-width="1.6" __comx="467.273" __comy="228.828" __timestamp="0x177f6110e0b" d="M461.914 166.042 l-0.654 1.218 -0.051 0.414 0.148 4.728 0.053 0.64 0 0 0.446 4.051 0 0 1.416 0.026 1.293 -7.307 1.036 -2.596 1.089 -0.794 1.133 0.06 1.227 0.912 1.55 2.634 1.553 7.71 0.942 2.063 0.059 -0.01 0.184 -2.264 -1.297 -8.033 -1.84 -3.131 -1.837 -1.37 -2.13 -0.121 -1.888 1.369 -1.256 3.158 -1.229 7.481 1.416 0.026 0 0 -0.627 -4.01 0 0 -0.079 -0.601 -0.545 -4.627 -0.015 -0.258 0.214 -1.258" />
    <path class="write-flat-pen" transform="translate(0,61.28)" fill="#FFFFFF" stroke-width="1.6" __comx="480.757" __comy="229.158" __timestamp="0x177f6110fe2" d="M479.691 173.051 l1.259 -0.725 0.205 -0.117 2.381 -1.955 0 0 0.816 -1.724 0 0 -1.283 -0.412 -0.551 2.321 1.773 16.676 -0.054 5.475 -0.411 0.712 -0.829 0.281 -1.382 -0.47 -3.412 -3.24 -0.281 -0.426 -0.562 -1.094 -1.664 -3.487 -0.044 0.016 0.959 3.756 0.369 1.244 0.294 0.664 3.482 3.897 2.225 0.824 1.925 -0.65 0.915 -1.598 0.037 -5.983 -1.862 -16.522 0.396 -2.113 -1.283 -0.412 0 0 -0.6 1.52 0 0 -1.974 1.893 -0.161 0.125 -1.04 1.069" />
    <path class="write-flat-pen" transform="translate(0,61.28)" fill="#FFFFFF" stroke-width="1.6" __comx="486.012" __comy="229.158" __timestamp="0x177f61110a0" d="M485.007 156.824 l-0.827 0.11 1.523 1.915 2.113 2.258 0.028 -0.021 -1.55 -2.688 -1.513 -1.937 -0.427 0.763" />
    <path class="write-flat-pen" transform="translate(0,61.28)" fill="#FFFFFF" stroke-width="1.6" __comx="500.115" __comy="229.158" __timestamp="0x177f6111224" d="M494.314 170.916 l1.751 0.332 0.352 0.039 3.404 -0.133 2.106 -0.934 1.518 -1.778 0.214 -1.741 -1.155 -1.29 -2.393 -0.25 -3.245 1.129 -2.437 2.163 -1.352 2.433 -0.278 2.75 1.222 2.657 2.037 1.707 3.745 1.305 3.773 -0.224 0.52 -0.25 3.335 -1.686 -0.025 -0.07 -3.657 0.766 -0.383 0.067 -3.322 -0.102 -3.232 -1.136 -1.58 -1.309 -0.939 -1.983 0.175 -2.065 1.068 -1.98 2.04 -1.841 2.7 -0.96 1.594 0.144 0.443 0.464 -0.068 0.795 -1.054 1.339 -1.649 0.838 -3.138 0.397 -0.295 0.008 -1.772 0.081" />
    <path class="write-flat-pen" transform="translate(0,61.28)" fill="#FFFFFF" stroke-width="1.6" __comx="516.943" __comy="229.158" __timestamp="0x177f6111380" d="M516.218 166.354 l-0.563 -0.811 -0.529 0.093 -2.601 1.478 -1.968 2.443 -1.005 3.09 0.238 2.659 1.104 1.927 2.275 1.514 3.039 0.438 4.064 -1.406 0.637 -0.466 0.535 -0.471 2.886 -2.548 -0.023 -0.032 -3.308 1.97 -0.586 0.347 -0.557 0.278 -3.745 0.921 -2.409 -0.407 -1.73 -1.153 -0.798 -1.358 -0.223 -2.07 0.774 -2.625 1.6 -2.17 2.149 -1.521 -0.067 -0.013 0.522 0.201" />
    <path class="write-flat-pen" transform="translate(0,61.28)" fill="#FFFFFF" stroke-width="1.6" __comx="528.773" __comy="229.158" __timestamp="0x177f611146a" d="M526.685 155.827 l-0.002 2.08 0.068 0.592 3.151 19.686 0.366 1.783 0.021 0.001 0.575 -1.831 -3.046 -19.81 -0.119 -0.553 -0.396 -2.007" />
    <path class="write-flat-pen" transform="translate(0,61.28)" fill="#FFFFFF" stroke-width="1.6" __comx="527.45" __comy="229.158" __timestamp="0x177f6111527" d="M520.933 168.373 l1.492 -0.237 0.354 -0.045 7.224 -0.817 4.133 -0.659 -0.011 -0.201 -4.213 -0.222 -7.297 0.869 -0.432 0.115 -1.418 0.642" />
    <path class="write-flat-pen" transform="translate(0,61.28)" fill="#FFFFFF" stroke-width="1.6" __comx="541.274" __comy="229.158" __timestamp="0x177f6111722" d="M539.15 163.901 l-0.501 -0.016 0.287 1.273 0.115 0.394 1.981 9.022 1.427 1.302 0.45 -0.305 0.991 -1.003 -0.022 -0.04 -1.378 0.299 0.157 -0.144 -0.433 -0.742 -2.278 -8.664 -0.196 -0.439 -0.693 -1.122 -0.304 0.381" />
    <path class="write-flat-pen" transform="translate(0,61.28)" fill="#FFFFFF" stroke-width="1.6" __comx="541.262" __comy="229.158" __timestamp="0x177f61117cc" d="M540.755 159.612 l0.095 -1.018 0 0 -0.499 0.395 0.644 0.134 1.417 1.026 0.064 -0.06 -1.084 -1.641 -0.846 -0.238 -0.499 0.395 0 0 0.122 1.015" />
    <path class="write-flat-pen" transform="translate(0,61.28)" fill="#FFFFFF" stroke-width="1.6" __comx="551.638" __comy="229.158" __timestamp="0x177f6111923" d="M545.795 162.768 l-0.124 0.755 0.064 0.28 1.081 3.156 0.246 0.553 3.369 6.739 1.905 1.591 2.03 -0.534 1.467 -2.074 1.773 -9.979 -0.131 -4.166 -0.093 -0.012 -1.171 3.959 -1.864 9.573 -0.931 1.344 -0.721 0.211 -1.093 -0.865 -3.437 -6.342 -0.258 -0.49 -1.452 -2.943 -0.089 -0.153 -0.24 -0.633" />
    <path class="write-flat-pen" transform="translate(0,61.28)" fill="#FFFFFF" stroke-width="1.6" __comx="567.216" __comy="229.158" __timestamp="0x177f6111ab5" d="M559.228 168.489 l0.951 -0.292 0.162 -0.021 4.592 -0.957 0.591 -0.215 2.25 -1.231 1.331 -1.949 -0.233 -1.622 -1.445 -0.914 -2.674 0.456 -2.321 1.867 -1.618 2.866 -0.283 2.356 0.745 2.11 1.812 1.8 2.707 1.131 3.362 0.183 3.152 -1.113 3.071 -2.277 -0.03 -0.054 -3.452 1.343 -2.903 0.649 -2.862 -0.19 -2.215 -0.919 -1.386 -1.355 -0.541 -1.476 0.192 -1.744 1.333 -2.392 1.829 -1.47 1.789 -0.303 0.451 0.284 0.072 0.457 -0.823 1.262 -1.855 1.092 -0.427 0.177 -4.426 1.346 -0.249 0.094 -0.827 0.707" />
    <path class="write-flat-pen" transform="translate(0,61.28)" fill="#FFFFFF" stroke-width="1.6" __comx="512.902" __comy="229.158" __timestamp="0x177f6111c20" d="M446.884 186.033 l13.737 -1.481 2.811 -0.133 17.114 -0.261 31.481 1.177 50.937 2.519 3.347 0.007 6.404 -0.061 2.981 -0.088 3.282 -0.096 0.001 -0.081 -3.28 -0.141 -2.978 -0.129 -6.397 -0.238 -3.327 -0.11 -50.914 -2.85 -31.529 -1.09 -17.16 0.486 -2.854 0.187 -13.715 1.905" />
    <path class="write-flat-pen" transform="translate(0,61.28)" fill="#FFFFFF" stroke-width="1.6" __comx="612.827" __comy="229.158" __timestamp="0x177f6112021" d="M612.191 164.008 l-0.378 3.125 -0.039 0.651 0.055 9.332 0 0 0.02 0.294 0.15 0.512 0 0 1.02 0.039 0.282 -1.389 0.095 -0.512 0.484 -2.624 -0.041 -0.012 -1.026 2.463 -0.197 0.469 -0.606 1.267 1.02 0.039 0 0 -0.086 -0.428 -0.013 -0.173 0 0 -0.485 -9.28 -0.018 -0.625 -0.043 -3.136" />
    <path class="write-flat-pen" transform="translate(0,61.28)" fill="#FFFFFF" stroke-width="1.6" __comx="613.311" __comy="229.158" __timestamp="0x177f61120c2" d="M612.881 160.651 l0.054 -1.198 0 0 -0.603 0.293 0.545 0.434 1.473 1.184 0.053 -0.05 -1.095 -1.565 -0.486 -0.528 -0.603 0.293 0 0 0.254 1.172" />
    <path class="write-flat-pen" transform="translate(0,61.28)" fill="#FFFFFF" stroke-width="1.6" __comx="632.08" __comy="229.158" __timestamp="0x177f6112258" d="M627.777 173.252 l-0.175 1.972 0.032 0.306 0 0 0.34 1.029 0 0 0.843 -0.017 0.806 -1.633 -0.2 -4.54 -3.371 -11.399 -0.248 -3.205 0.532 -1.104 1.303 -0.886 2.622 -0.215 3.382 0.717 3.142 1.71 0.234 0.211 2.752 2.625 0.041 -0.034 -2.112 -3.163 -0.269 -0.387 -3.266 -2.245 -3.804 -0.88 -3.218 0.258 -1.933 1.322 -0.859 1.801 0.306 3.736 3.462 11.366 0.296 4.113 -0.447 1.49 0.843 -0.017 0 0 -0.506 -0.855 0 0 -0.045 -0.163 -0.232 -1.917" />
    <path class="write-flat-pen" transform="translate(0,61.28)" fill="#FFFFFF" stroke-width="1.6" __comx="631.898" __comy="229.158" __timestamp="0x177f6112322" d="M620.077 164.479 l-0.206 0.32 1.099 -0.051 0.531 -0.039 18.338 -1.532 4.181 -0.373 0 -0.073 -4.214 -0.319 -18.402 1.414 -0.589 0.115 -1.04 0.47 0.173 0.448" />
    <path class="write-flat-pen" transform="translate(0,61.28)" fill="#FFFFFF" stroke-width="1.6" __comx="650.557" __comy="229.158" __timestamp="0x177f61124fc" d="M647.638 170.347 l0.054 2.249 0.028 0.264 0.13 1.288 1.093 -0.161 0.007 -0.162 -4.345 -16.525 -0.045 -0.288 0.032 -2.117 0.81 -1.284 1.892 -1.031 2.382 -0.344 2.591 0.613 1.9 1.201 1.81 2.285 0.206 0.365 1.869 3.441 0.075 -0.031 -1.078 -3.764 -0.151 -0.508 -1.705 -2.825 -2.289 -1.605 -3.148 -0.794 -2.973 0.429 -2.506 1.373 -1.26 2.016 -0.028 2.696 0.082 0.507 4.748 16.364 0.014 0.027 1.093 -0.161 -0.517 -1.153 -0.053 -0.21 -0.473 -2.182" />
    <path class="write-flat-pen" transform="translate(0,61.28)" fill="#FFFFFF" stroke-width="1.6" __comx="651.077" __comy="229.158" __timestamp="0x177f61125c5" d="M640.051 162.989 l0.494 -0.028 0.229 0.042 17.373 0.117 4.155 -0.726 -0.009 -0.104 -4.179 -0.03 -17.33 -0.17 -0.43 0.032 -0.504 0.466" />
    <path class="write-flat-pen" transform="translate(0,61.28)" fill="#FFFFFF" stroke-width="1.6" __comx="135.88" __comy="319.348" __timestamp="0x177f61135ce" d="M135.778 270.765 l-0.2 0.157 0.242 -0.016 -0.016 -0.19 -0.009 -0.082 -0.214 -0.936 -0.064 -0.285 -0.598 -2.326 -0.121 -0.473 -4.926 -13.868 -0.108 -0.479 -0.486 -3.334 0.062 -2.797 0.473 -2.14 0.858 -1.814 1.284 -1.504 1.44 -0.901 1.342 -0.379 1.608 0.071 1.527 0.602 1.649 1.299 2.649 3.384 0.027 0.017 0.109 0.125 1.546 1.886 0.229 -0.118 -0.636 -2.354 -0.05 -0.184 -0.057 -0.131 -2.658 -3.752 -2.001 -1.576 -1.995 -0.786 -2.133 -0.094 -1.81 0.511 -1.842 1.153 -1.582 1.853 -1.026 2.17 -0.546 2.47 -0.067 3.088 0.52 3.528 0.146 0.636 5.161 13.836 0.137 0.432 0.81 2.273 0.111 0.29 0.43 0.927 0.116 0.191 0.41 0.337 0.35 -0.008 0.206 -0.536" />
    <path class="write-flat-pen" transform="translate(0,61.28)" fill="#FFFFFF" stroke-width="1.6" __comx="133.136" __comy="319.348" __timestamp="0x177f6113719" d="M121.17 258.29 l0.235 0.466 0.239 0.103 0.716 0.212 0.468 0.074 3.928 0.13 1.101 -0.056 13.293 -2.575 0.655 -0.163 0.622 -0.161 0.542 -0.158 2.132 -0.613 -0.014 -0.104 -2.219 -0.015 -0.569 -0.006 -0.654 0.025 -0.695 0.056 -13.257 2.377 -0.974 0.067 -3.844 0.098 -0.395 0.002 -0.656 0.003 0.043 0.044 -0.225 -0.155" />
    <path class="write-flat-pen" transform="translate(0,61.28)" fill="#FFFFFF" stroke-width="1.6" __comx="153.108" __comy="319.348" __timestamp="0x177f6113990" d="M153.482 250.879 l-0.162 -0.382 -0.119 -0.081 -0.445 -0.099 -0.24 0.103 -0.475 0.377 -0.2 0.265 -0.785 1.566 -0.183 0.624 -0.628 4.338 0.086 3.56 0.691 3.601 1.847 3.714 0.284 0.254 0.498 0.315 0.283 0.122 1.994 0.822 0.041 -0.063 -1.545 -1.505 -0.175 -0.18 -0.307 -0.359 -0.061 -0.102 -1.494 -3.459 -0.636 -3.314 -0.095 -3.332 0.5 -4.16 0.103 -0.464 0.522 -1.489 0.057 -0.149 0.189 -0.346 -0.06 -0.001 0.103 -0.117 -0.077 -0.058 0.283 0.165" />
    <path class="write-flat-pen" transform="translate(0,61.28)" fill="#FFFFFF" stroke-width="1.6" __comx="164.26" __comy="319.348" __timestamp="0x177f6113bb1" d="M164.697 259.459 l0.246 -0.687 0.035 -0.11 0.119 -0.936 -0.048 -0.256 -0.827 -1.205 -0.468 -0.188 -1.609 -0.12 -1.701 0.589 -1.433 1.236 -1.021 1.605 -0.69 2.15 -0.114 2.119 0.602 1.926 1.17 1.433 1.45 0.707 1.758 -0.081 1.659 -0.884 1.281 -1.394 0.927 -1.984 0.366 -1.983 0 0 -0.217 -1.41 0 0 -1.331 0.139 0.03 1.183 0.934 2.306 1.359 2.002 1.879 1.49 2.231 0.783 0.052 -0.081 -1.57 -1.656 -1.54 -1.471 -1.174 -1.731 -0.802 -1.942 -0.059 -0.94 -1.331 0.139 0 0 0.215 1.177 0 0 -0.297 1.59 -0.784 1.636 -1.002 1.059 -1.194 0.622 -1.107 0.054 -0.876 -0.419 -0.831 -0.995 -0.475 -1.449 0.064 -1.72 0.561 -1.847 0.821 -1.327 1.108 -0.989 1.258 -0.475 1.22 0.01 0.053 0.004 0.696 0.705 0.007 -0.026 0.097 0.786 0.001 0.063 -0.031 0.729" />
    <path class="write-flat-pen" transform="translate(0,61.28)" fill="#FFFFFF" stroke-width="1.6" __comx="172.849" __comy="319.348" __timestamp="0x177f6113cf0" d="M167.316 250.888 l0.683 0.656 0.196 0.156 1.486 1.096 0.34 0.26 2.619 2.299 1.769 2.247 1.442 2.883 0.804 2.92 0.3 2.958 -0.313 2.374 -0.066 0.22 -0.354 0.748 -0.123 0.204 -1.153 1.773 0.059 0.055 1.702 -1.255 0.254 -0.196 0.637 -0.774 0.218 -0.419 0.565 -2.676 -0.296 -3.276 -0.877 -3.18 -1.596 -3.133 -1.986 -2.437 -2.864 -2.299 -0.422 -0.274 -1.63 -0.915 -0.198 -0.097 -0.796 -0.451" />
    <path class="write-flat-pen" transform="translate(0,61.28)" fill="#FFFFFF" stroke-width="1.6" __comx="194.761" __comy="319.348" __timestamp="0x177f6113f09" d="M188.233 255.273 l0.091 -0.033 -0.321 0.032 0.684 0.243 0.366 0.098 10.315 1.049 0.213 -0.024 2.328 -0.287 0.003 -0.084 -2.301 -0.457 -0.178 -0.039 -10.213 -1.235 -0.33 -0.043 -0.816 -0.054 -0.465 0.035 0.022 0.743" />
    <path class="write-flat-pen" transform="translate(0,61.28)" fill="#FFFFFF" stroke-width="1.6" __comx="196.468" __comy="319.348" __timestamp="0x177f6113fef" d="M190.442 260.744 l1.094 0.331 0.32 0.044 8.391 0.188 2.247 -0.081 0.001 -0.015 -2.227 -0.363 -8.379 -0.301 -0.277 -0.008 -1.11 -0.101" />
    <path class="write-flat-pen" transform="translate(0,61.28)" fill="#FFFFFF" stroke-width="1.6" __comx="222.652" __comy="319.348" __timestamp="0x177f61142a2" d="M222.01 268.286 l0.085 0.866 0.013 0.058 0.112 0.366 0.479 0.166 0.299 -0.579 0.027 -0.223 -0.039 -0.954 -0.048 -0.334 -0.722 -3.182 -0.128 -0.526 -1.323 -4.13 -3.186 -6.761 -0.782 -2.513 -0.202 -2.21 0.294 -1.182 1.008 -1.496 1.646 -1.384 1.533 -0.712 2.111 -0.395 1.549 0.167 1.383 0.573 1.037 0.887 1.438 2.496 0.161 0.325 0.284 0.642 0.135 0.281 0.989 2.115 0.151 -0.04 -0.175 -2.328 -0.024 -0.33 -0.133 -0.752 -0.138 -0.474 -1.432 -2.932 -1.442 -1.267 -1.835 -0.762 -2.012 -0.216 -2.54 0.475 -1.908 0.887 -1.98 1.668 -1.287 1.919 -0.419 1.719 0.262 2.639 0.871 2.77 3.214 6.763 1.353 3.972 0.133 0.477 0.922 3.097 0.074 0.261 0.22 0.814 0.024 0.006 0.164 -0.155 0.426 0.15 -0.113 0 0 0.017 -0.304 -0.793" />
    <path class="write-flat-pen" transform="translate(0,61.28)" fill="#FFFFFF" stroke-width="1.6" __comx="221.153" __comy="319.348" __timestamp="0x177f61143bb" d="M212.491 259.378 l0.264 -0.275 -0.012 0.04 0.521 -0.125 0.17 -0.02 1.844 -0.151 0.482 -0.011 11.028 -0.266 0.642 -0.103 0.586 -0.131 2.227 -0.488 -0.011 -0.161 -2.273 -0.173 -0.594 -0.049 -0.621 -0.026 -11.033 0.128 -0.559 0.051 -1.927 0.397 -0.29 0.109 -0.578 0.381 -0.144 0.141 -0.15 0.505" />
    <path class="write-flat-pen" transform="translate(0,61.28)" fill="#FFFFFF" stroke-width="1.6" __comx="241.844" __comy="319.348" __timestamp="0x177f6114626" d="M240.284 247.678 l-0.004 -0.34 -0.31 -0.142 -0.126 0.014 -0.314 0.274 -0.126 0.173 -0.455 0.876 -0.133 0.295 -1.161 3.937 -0.129 0.673 -0.489 4.556 0.126 3.311 0.668 2.759 0.893 1.64 1.576 1.521 2.987 1.077 0.475 0.032 0.729 -0.095 2.157 -0.435 -0.002 -0.095 -2.153 -0.355 -0.634 -0.125 -0.257 -0.08 -2.522 -1.126 -1.21 -1.189 -0.702 -1.289 -0.605 -2.441 -0.15 -3.074 0.399 -4.416 0.094 -0.575 0.912 -3.892 0.075 -0.25 0.252 -0.904 0.031 -0.126 0.019 -0.217 -0.055 -0.013 -0.31 -0.142 0.214 0.264" />
    <path class="write-flat-pen" transform="translate(0,61.28)" fill="#FFFFFF" stroke-width="1.6" __comx="253.487" __comy="319.348" __timestamp="0x177f6114850" d="M246.14 248.891 l-0.103 0.638 -0.004 0.207 0.202 1.156 0.124 0.427 1.311 3.409 0.303 0.664 2.164 5.008 0 0 1.447 4.635 0 0 1.365 -0.349 -0.275 -1.386 0.151 -1.569 0.653 -1.781 1.032 -1.485 1.053 -0.714 0.929 -0.189 0.964 0.2 0.948 0.684 0.72 1.111 0.412 1.529 -0.051 1.636 -0.514 1.6 -0.931 1.388 -1.121 0.872 -1.203 0.365 -1.12 -0.122 -0.55 -0.306 -0.431 -0.602 -0.041 0.004 -0.019 -0.352 0.077 -1.594 -0.026 -0.008 -0.848 1.382 -0.211 0.437 -0.051 0.382 0.522 1.307 1.126 0.694 1.7 0.194 1.728 -0.514 1.507 -1.168 1.17 -1.74 0.634 -1.979 0.057 -2.042 -0.528 -1.94 -0.985 -1.51 -1.4 -1.007 -1.532 -0.317 -1.479 0.3 -1.495 1.014 -1.283 1.84 -0.78 2.114 -0.197 1.949 0.304 1.59 1.365 -0.349 0 0 -1.526 -4.686 0 0 -2.287 -5.052 -0.318 -0.643 -1.49 -3.27 -0.148 -0.348 -0.381 -1.005 -0.034 -0.103 -0.094 -0.602" />
    <path class="write-flat-pen" transform="translate(0,61.28)" fill="#FFFFFF" stroke-width="1.6" __comx="267.914" __comy="319.348" __timestamp="0x177f61149c6" d="M262.279 243.264 l0.377 0.793 0.176 0.321 0.479 0.788 0.297 0.443 1.114 1.528 0.452 0.604 3.866 5.239 0.4 0.608 1.467 2.64 0.868 2.686 0.315 2.785 -0.332 2.468 -1.305 2.973 -0.284 0.491 -0.627 0.98 -0.283 0.414 -0.28 0.405 -1.288 1.841 0.084 0.078 1.739 -1.423 0.396 -0.323 0.395 -0.382 0.805 -0.926 0.407 -0.555 1.611 -3.162 0.423 -2.859 -0.35 -3.114 -0.963 -2.96 -1.584 -2.802 -0.464 -0.686 -4.083 -5.15 -0.507 -0.582 -1.264 -1.395 -0.343 -0.379 -0.595 -0.676 -0.223 -0.256 -0.528 -0.68" />
    <path class="write-flat-pen" transform="translate(0,61.28)" fill="#FFFFFF" stroke-width="1.6" __comx="327.736" __comy="319.348" __timestamp="0x177f6114fbe" d="M314.988 256.126 l-0.341 0.002 -0.021 -0.098 0.085 0.814 0.113 0.015 1.116 -0.035 0.459 -0.038 7.891 -0.605 1.059 -0.05 10.215 0.16 0.818 0.028 1.522 0.009 0.715 -0.029 2.215 -0.076 0.016 -0.18 -2.166 -0.469 -0.703 -0.156 -1.507 -0.236 -0.846 -0.109 -10.296 -0.33 -1.138 0.056 -7.927 0.84 -0.476 0.093 -1.07 0.258 -0.095 0.037 0.085 0.814 0.001 -0.1 0.278 0.002" />
    <path class="write-flat-pen" transform="translate(0,61.28)" fill="#FFFFFF" stroke-width="1.6" __comx="330.733" __comy="319.348" __timestamp="0x177f611513f" d="M317.372 261.632 l-0.466 -0.382 0.078 0.412 0.427 -0.14 0.303 -0.054 3.82 -0.314 8.389 -0.014 10.005 0.773 0.856 0.116 0.837 0.115 0.824 0.107 0.794 0.081 2.144 0.229 0.03 -0.131 -2.03 -0.728 -0.755 -0.274 -0.806 -0.246 -0.831 -0.223 -0.905 -0.209 -10.106 -0.983 -8.519 0.06 -3.96 0.506 -0.545 0.176 -0.903 0.728 0.095 0.537 0.942 0.38" />
    <path class="write-flat-pen" transform="translate(0,61.28)" fill="#FFFFFF" stroke-width="1.6" __comx="345.87" __comy="319.348" __timestamp="0x177f611548a" d="M345.354 256.256 l-0.558 -0.664 -0.097 -0.135 -0.53 -0.811 -0.125 -0.212 -0.735 -1.324 -0.143 -0.271 -1.137 -2.179 -0.141 -0.301 -2.172 -4.465 -0.395 -0.258 0 0 -0.532 -0.014 0 0 -0.745 1.058 0.491 1.35 1.784 1.954 3.241 2.442 8.289 4.791 0.172 0.234 -0.124 0.861 -1.071 2.023 -3.624 4.853 -2.572 2.495 -1.857 1.788 0.387 0.565 2.442 -1.154 2.802 -2.629 3.779 -5.06 1.26 -2.378 0.256 -1.785 -0.758 -1.03 -8.495 -4.91 -3.047 -2.293 -1.48 -1.612 -0.402 -1.052 -0.745 1.058 0 0 0.082 -0.007 0 0 -0.327 -0.213 2.189 3.991 0.177 0.32 1.354 2.107 0.19 0.275 0.941 1.234 0.188 0.218 0.718 0.713 0.155 0.129 0.712 0.522" />
    <path class="write-flat-pen" transform="translate(0,61.28)" fill="#FFFFFF" stroke-width="1.6" __comx="384.284" __comy="319.348" __timestamp="0x177f611580d" d="M385.49 258.754 l0.281 -0.339 0.057 -0.091 0.289 -0.583 0.072 -0.196 0.267 -0.966 0.048 -0.253 0.019 -1.72 -0.095 -0.311 -0.726 -1.154 -1.569 -0.797 -2.431 -0.086 -1.992 0.537 -2.413 1.369 -1.521 1.382 -1.374 2.03 -0.758 2.09 -0.214 2.327 0.499 2.316 0.869 1.639 1.471 1.569 1.434 0.751 1.875 0.28 2.07 -0.415 2.545 -1.298 2.019 -1.719 1.735 -2.364 0.987 -2.266 0.356 -2.022 -0.439 -1.353 -1.419 -0.153 -0.765 1.852 -0.148 2.526 0.424 2.215 1.075 2.459 1.159 1.496 1.855 1.099 0.523 0.149 0.896 0.121 0.458 -0.005 2.208 -0.038 0.015 -0.095 -2.087 -0.721 -0.386 -0.14 -0.739 -0.302 -0.304 -0.15 -1.427 -1.015 -0.872 -1.164 -0.93 -2.14 -0.352 -1.866 0.129 -2.085 0.233 -0.568 -0.685 -0.074 0.02 0.061 -0.261 1.473 -0.846 1.947 -1.529 2.086 -1.749 1.489 -2.2 1.124 -1.606 0.32 -1.361 -0.204 -0.981 -0.513 -1.157 -1.234 -0.674 -1.275 -0.405 -1.885 0.171 -1.902 0.625 -1.731 1.164 -1.728 1.261 -1.153 2.1 -1.207 1.598 -0.452 1.914 0.018 1.01 0.441 0.518 0.66 0.007 -0.01 0.197 1.46 0 0.151 -0.054 0.955 -0.013 0.165 -0.067 0.611 -0.006 0.074 -0.079 0.418" />
    <path class="write-flat-pen" transform="translate(0,61.28)" fill="#FFFFFF" stroke-width="1.6" __comx="406.922" __comy="319.348" __timestamp="0x177f61159a0" d="M401.236 253.037 l0.052 -0.388 -0.286 0.236 1.04 -0.143 0.352 -0.021 3.591 -0.012 4.204 0.482 0.339 0.053 0.601 0.085 0.265 0.026 2.338 0.247 0.035 -0.116 -2.094 -1.068 -0.248 -0.127 -0.584 -0.236 -0.404 -0.135 -4.363 -0.689 -3.762 0.109 -0.497 0.066 -1.308 0.416 -0.428 0.341 0.292 1.022" />
    <path class="write-flat-pen" transform="translate(0,61.28)" fill="#FFFFFF" stroke-width="1.6" __comx="409" __comy="319.348" __timestamp="0x177f6115a9c" d="M401.552 259.126 l0.85 0.102 0.217 0.028 2.892 0.261 0.631 0.055 6.259 0.68 0.611 0.026 0.617 0.028 0.538 -0.008 2.27 -0.031 0.014 -0.1 -2.176 -0.65 -0.503 -0.153 -0.599 -0.172 -0.619 -0.138 -6.277 -0.855 -0.68 -0.041 -2.939 -0.042 -0.249 0.021 -0.859 0.107" />
    <path class="write-flat-pen" transform="translate(0,61.28)" fill="#FFFFFF" stroke-width="1.6" __comx="440.528" __comy="308.105" __timestamp="0x177f6116f30" d="M428.978 241.371 l0.495 -0.025 -0.057 -0.02 0.796 1.385 0.2 0.435 1.324 3.332 0.289 0.827 1.433 4.814 0 0 1.258 6.319 0 0 0.765 8.648 0 0 1.557 0.069 0.455 -2.435 1.325 -3.704 1.458 -2.53 1.204 -1.228 1.244 -0.684 1.579 -0.299 1.636 0.196 2.101 0.774 1.44 0.975 0.788 1.058 0.348 1.048 -0.072 1.362 -0.723 1.546 -1.075 1.185 -2.132 1.488 -2.359 1.062 -2.472 0.557 -1.293 -0.028 -0.818 -0.319 -0.393 -0.432 -0.12 -0.621 -0.018 -0.097 0.054 -0.232 0.086 -0.25 0.64 -1.693 -0.056 -0.039 -1.372 1.181 -0.237 0.211 -0.236 0.282 -0.214 0.386 -0.079 1.461 0.988 1.186 1.456 0.568 1.771 0.038 2.82 -0.635 2.642 -1.19 2.403 -1.676 1.359 -1.498 0.957 -2.047 0.104 -1.975 -0.525 -1.579 -1.104 -1.481 -1.825 -1.236 -2.461 -0.906 -2.067 -0.247 -2.071 0.392 -1.674 0.92 -1.511 1.542 -1.631 2.831 -1.414 3.964 -0.455 2.568 1.557 0.069 0 0 -0.827 -8.726 0 0 -1.353 -6.459 0 0 -1.58 -4.882 -0.345 -0.881 -1.545 -3.316 -0.285 -0.5 -1.067 -1.393 -0.369 -0.305 -0.849 0.363" />
    <path class="write-flat-pen" transform="translate(0,61.28)" fill="#FFFFFF" stroke-width="1.6" __comx="461.596" __comy="328.37" __timestamp="0x177f61175ac" d="M462.321 267.644 l-0.205 0.07 0.016 -0.029 -0.333 -0.027 -0.125 -0.005 -1.028 0.127 -0.11 0.03 0 0 -0.585 0.038 0 0 0.649 0.663 0.151 -0.514 0.779 -0.819 0.524 -0.183 0.092 0.054 0.211 0.496 -0.067 0.811 -0.262 0.401 -0.166 0.13 -0.984 0.164 -0.033 0.073 0.877 0.992 1.159 -0.127 0.729 -1.211 0.088 -1.468 -0.542 -1.207 -1.01 -0.521 -1.348 0.504 -1.191 1.338 -0.115 0.875 0.649 0.663 0 0 0.658 -0.173 0 0 0.134 -0.06 0.879 -0.325 0.114 -0.037 0.37 -0.187 0.097 -0.065 0.13 -0.271" />
    <path class="write-stroke-pen" fill="none" stroke="#FFFFFF" stroke-width="1.6" stroke-linecap="round" stroke-linejoin="round" __comx="39.186" __comy="202.28" __timestamp="0x177f61192d0" d="M38.505 167.079 l1.362 212.81" />
    <path class="write-stroke-pen" fill="none" stroke="#FFFFFF" stroke-width="1.6" stroke-linecap="round" stroke-linejoin="round" __comx="390.965" __comy="373.091" __timestamp="0x177f611994d" d="M34.419 375.741 l713.092 -4.766" />
    <path class="write-stroke-pen" fill="none" stroke="#FFFFFF" stroke-width="1.6" stroke-linecap="round" stroke-linejoin="round" __comx="399.662" __comy="162.066" __timestamp="0x177f611a2f3" d="M39.433 160.765 l720.458 9.409" />
    <path class="write-stroke-pen" fill="none" stroke="#FFFFFF" stroke-width="1.6" stroke-linecap="round" stroke-linejoin="round" __comx="754.196" __comy="199.072" __timestamp="0x177f611a979" d="M758.839 164.541 l-9.285 208.786" />
    <path class="write-flat-pen" fill="#D534A9" stroke-width="1.6" __comx="194.677" __comy="338.945" __timestamp="0x177fae2cc3f" d="M108.273 339.262 l-1.007 -0.524 -0.282 0.2 -0.527 1.584 0.005 0.378 0.759 6.471 0.845 3.515 0.827 1.542 1.014 0.899 1.603 0.58 13.817 0.204 7.665 -0.365 16.975 -1.802 24.31 -1.279 34.274 -3.075 10.375 -0.489 24.17 -0.029 21.325 -0.566 15.956 0.378 1.499 -0.27 0.661 -0.726 -0.35 -2.977 0.708 -8.597 -0.232 -2.428 -0.224 -0.012 -0.492 2.37 -0.898 8.683 0.326 2.591 -0.065 0.074 -1.019 0.18 -15.872 -0.416 -21.34 0.551 -24.183 0.026 -10.426 0.506 -34.273 3.116 -24.319 1.281 -16.972 1.813 -7.599 0.376 -13.606 -0.181 -1.252 -0.44 -0.731 -0.635 -0.687 -1.256 -0.829 -3.326 -0.898 -6.359 -0.02 -0.218 0.227 -1.321 -0.157 0.105 0.789 0.189" />
    <path class="write-flat-pen" fill="#D534A9" stroke-width="1.6" __comx="182.048" __comy="416.596" __timestamp="0x177fae2d105" d="M179.766 467.061 l-0.761 5.12 0.696 0.13 0.027 -0.061 0.69 -7.757 0.052 -0.996 2.286 -31.927 1.253 -36.597 1.077 -19.713 0.01 -6.782 -0.38 -3.845 -1.052 -2.347 -1.454 -0.421 -0.07 0.107 0.693 0.993 0.667 1.965 0.348 3.609 -0.021 6.688 -1.044 19.695 -1.166 36.592 -2.118 31.929 -0.043 0.994 -0.452 7.699 0.01 0.007 0.696 0.13 0.549 -5.147" />
    <path class="write-flat-pen" fill="#D534A9" stroke-width="1.6" __comx="182.958" __comy="361.13" __timestamp="0x177fae2d337" d="M183.086 361.591 l-0.638 -0.422 -0.125 -0.06 -1.017 -0.16 -0.287 0.073 -1.751 1.178 -0.308 0.343 0 0 -1.866 2.605 0 0 -0.543 1.429 0 0 0.978 0.504 4.44 -6.331 1.178 -1.216 0.249 -0.05 0.23 0.168 1.725 4.829 1.34 2.4 0.431 0.5 0.446 0.412 1.663 1.542 0.132 -0.111 -1.231 -1.904 -0.312 -0.491 -0.293 -0.47 -1.111 -2.338 -1.796 -5.114 -0.955 -0.683 -1.112 0.233 -1.489 1.551 -4.445 6.441 0.978 0.504 0 0 0.439 -1.321 0 0 1.667 -2.517 0 0 0.193 -0.245 1.446 -1.215 0.05 -0.032 0.841 -0.069 0.051 0.005 0.712 0.221" />
    <path class="write-flat-pen" fill="#D534A9" stroke-width="1.6" __comx="143.05" __comy="499.774" __timestamp="0x177fae2d9d1" d="M149.068 490.471 l0.035 -1.225 -0.006 -0.181 -0.528 -1.443 -0.282 -0.235 -1.155 -0.441 -1.863 0.215 -2.217 0.959 -1.445 1.185 -0.809 1.351 0.044 1.245 0.85 0.981 4.115 1.657 1.564 1.032 1.025 1.412 0.535 1.921 -0.057 1.773 -0.649 2.469 -1.114 2.175 -1.078 1.244 -1.728 1.134 -1.418 0.393 -1.401 -0.024 -1.824 -0.664 -1.358 -1.113 -1.222 -2.336 -0.031 -0.175 0.103 -0.92 0.084 -0.313 0.593 -1.923 -0.128 -0.065 -1.197 1.617 -0.253 0.354 -0.38 1.126 -0.013 0.588 1.274 2.95 1.777 1.514 2.306 0.834 1.863 0.019 1.838 -0.524 2.074 -1.389 1.298 -1.545 1.218 -2.477 0.687 -2.765 0.047 -2.121 -0.663 -2.332 -1.303 -1.785 -1.866 -1.232 -3.938 -1.597 -0.338 -0.398 -0.012 -0.399 0.494 -0.828 1.123 -0.945 1.875 -0.869 1.417 -0.253 0.772 0.191 -0.035 -0.042 0.585 1.007 0.013 0.04 0.181 1.202" />
    <path class="write-flat-pen" fill="#D534A9" stroke-width="1.6" __comx="157.251" __comy="499.774" __timestamp="0x177fae2dada" d="M154.764 486.291 l0.731 6.665 0.111 1.038 2.021 12.644 0.936 3.321 0.164 0.15 0.904 0.646 0.107 -0.074 -0.29 -1.073 0.016 -0.063 -0.746 -3.138 -2.151 -12.549 -0.133 -1.016 -0.95 -6.64" />
    <path class="write-flat-pen" fill="#D534A9" stroke-width="1.6" __comx="157.229" __comy="499.774" __timestamp="0x177fae2dbae" d="M151.928 501.207 l0.076 -0.665 0.574 -0.292 8.068 -0.846 0.585 -0.125 2.282 -0.471 -0.019 -0.243 -2.328 -0.103 -0.603 -0.03 -8.371 0.669 -1.247 0.843 0.052 1.25" />
    <path class="write-flat-pen" fill="#D534A9" stroke-width="1.6" __comx="168.429" __comy="499.774" __timestamp="0x177fae2dd71" d="M169.958 500.622 l-0.521 -0.551 -0.086 -0.069 -1.661 -0.61 -0.419 0.033 -1.513 0.516 -1.124 1.058 -0.839 1.865 -0.137 1.804 0.545 1.829 1.163 1.152 1.273 0.29 1.417 -0.339 1.655 -1.235 1.223 -1.658 0.974 -2.284 0 0 0.051 -1.066 0 0 -1.273 -0.228 -0.432 1.345 0.097 2.277 0.893 2.095 0.205 0.19 1.619 1.336 0.132 -0.108 -0.992 -1.85 -0.033 -0.102 -0.558 -1.812 -0.048 -1.845 0.359 -1.129 -1.273 -0.228 0 0 -0.034 0.833 0 0 -0.815 1.933 -1.018 1.386 -1.288 0.969 -0.872 0.214 -0.634 -0.138 -0.687 -0.666 -0.401 -1.3 0.09 -1.365 0.636 -1.463 0.756 -0.744 1.129 -0.441 0.066 -0.015 1.37 0.295 -0.041 -0.036 0.653 0.366" />
    <path class="write-flat-pen" fill="#D534A9" stroke-width="1.6" __comx="179.89" __comy="499.774" __timestamp="0x177fae2dea9" d="M176.523 505.376 l-0.24 1.061 -0.003 0.106 -0.027 0.607 1.01 0.06 0.052 -0.118 0.146 -2.721 0 -0.547 0.09 -3.859 0.419 -2.195 0.441 -0.626 0.566 -0.306 1.633 0.09 0.269 0.087 0.656 0.257 2.001 0.782 0.104 -0.178 -1.675 -1.361 -0.615 -0.446 -0.44 -0.228 -2.155 -0.368 -1.262 0.563 -0.859 1.158 -0.48 2.633 -0.015 3.998 0.016 0.549 0.088 2.57 0.021 -0.004 1.01 0.06 -0.193 -0.524 -0.005 0 0.011 -1.032" />
    <path class="write-flat-pen" fill="#D534A9" stroke-width="1.6" __comx="189.598" __comy="499.774" __timestamp="0x177fae2dfb2" d="M186.439 488.16 l0.883 3.025 0.176 0.649 3.812 15.7 1.021 2.277 0.424 -0.138 -0.497 -2.408 -3.813 -15.685 -0.212 -0.679 -1.096 -2.972" />
    <path class="write-flat-pen" fill="#D534A9" stroke-width="1.6" __comx="189.358" __comy="499.774" __timestamp="0x177fae2e07e" d="M184.084 501.903 l1.335 -0.926 7.165 -2.39 0.439 -0.161 2.205 -0.777 -0.046 -0.218 -2.33 0.182 -0.515 0.04 -7.44 2.316 -1.406 1.146" />
    <path class="write-flat-pen" fill="#D534A9" stroke-width="1.6" __comx="215.777" __comy="499.774" __timestamp="0x177fae2e38d" d="M209.357 496.602 l-0.411 -0.207 -0.538 0.365 -0.033 0.108 -0.18 1.429 -0.02 0.339 -0.108 5.66 0.352 1.615 0.766 0.788 1.22 0.108 1.433 -1.024 1.448 -2.029 -0.199 0.082 1.934 2.341 1.658 1.357 1.76 0.592 1.798 -0.329 1.61 -1.299 1.067 -2.012 0.572 -2.84 -0.067 -2.098 -0.605 -1.869 -1.042 -1.483 -1.497 -0.762 -1.366 0.956 -0.187 0.434 -0.096 0.827 0.02 0.303 0.081 0.314 0.475 1.772 0.16 -0.009 0.266 -1.815 0.047 -0.264 0.044 -0.147 0.22 -0.549 -0.007 0.068 0.395 -0.116 0.356 0.221 0.683 0.972 0.462 1.425 0.055 1.687 -0.486 2.434 -0.8 1.527 -1.042 0.862 -1.018 0.215 -1.136 -0.347 -1.348 -1.071 -2.53 -3.036 -1.172 0.479 -1.542 2.187 -0.809 0.596 -0.188 -0.004 -0.14 -0.129 -0.255 -1.079 -0.085 -5.498 -0.006 -0.31 -0.033 -1.375 -0.005 -0.066 -0.538 0.365 0.46 -0.008" />
    <path class="write-flat-pen" fill="#D534A9" stroke-width="1.6" __comx="229.011" __comy="499.774" __timestamp="0x177fae2e476" d="M227.2 499.669 l0.473 1.302 0.118 0.303 2.265 6.303 0.701 0.104 0.065 -0.078 -0.05 -0.519 -2.004 -6.19 -0.163 -0.337 -0.664 -1.222" />
    <path class="write-flat-pen" fill="#D534A9" stroke-width="1.6" __comx="230.906" __comy="499.774" __timestamp="0x177fae2e50d" d="M229.498 492.481 l1.314 2.025 1.251 1.546 0.252 -0.153 -0.804 -1.826 -1.26 -2.066" />
    <path class="write-flat-pen" fill="#D534A9" stroke-width="1.6" __comx="239.614" __comy="499.774" __timestamp="0x177fae2e618" d="M237.117 488.408 l0.007 2.537 0.043 0.608 1.059 9.128 1.14 6.02 1.5 3.372 0.373 0.003 0.859 -0.224 0.014 -0.095 -0.756 -0.466 0.144 -0.031 -1.089 -2.871 -1.107 -5.874 -1.13 -9.065 -0.057 -0.57 -0.235 -2.508" />
    <path class="write-flat-pen" fill="#D534A9" stroke-width="1.6" __comx="239.229" __comy="499.774" __timestamp="0x177fae2e6ec" d="M233.484 499.779 l1.227 -0.167 0.168 0.025 4.159 0.601 3.05 -0.177 0.504 -0.113 0.401 -0.131 2.182 -0.712 -0.025 -0.14 -2.293 0.094 -0.403 0.013 -0.44 0.016 -2.904 -0.065 -4.106 -0.52 -0.371 -0.019 -1.346 0.417" />
    <path class="write-flat-pen" fill="#D534A9" stroke-width="1.6" __comx="252.709" __comy="499.774" __timestamp="0x177fae2e89c" d="M245.847 488.814 l-0.097 1.533 0.047 0.478 1.279 7.189 0.21 0.848 1.65 6.629 0.876 1.687 1.207 -0.019 0.724 -1.429 0.78 -4.013 0.666 -1.679 0.606 -0.618 0.715 -0.146 1.003 0.412 0.989 1.129 1.087 2.421 0.904 3.202 0.071 0.17 0.881 2.27 0.223 -0.043 -0.031 -2.434 -0.004 -0.216 -0.763 -3.394 -1.222 -2.713 -1.336 -1.511 -1.67 -0.684 -1.515 0.306 -1.086 1.103 -0.808 2.05 -0.756 3.96 -0.276 0.573 0.367 0.003 -0.477 -0.836 -1.714 -6.459 -0.217 -0.812 -1.486 -7.088 -0.068 -0.396 -0.134 -1.479" />
    <path class="write-flat-pen" fill="#D534A9" stroke-width="1.6" __comx="144.083" __comy="531.202" __timestamp="0x177fae2eba1" d="M136.767 516.348 l0.383 0.438 -0.011 0.016 0.327 2.523 0.022 0.534 -0.246 11.915 0.308 3.465 0.644 1.765 1.191 1.489 1.818 0.958 1.718 0.317 2.274 -0.208 3.58 -1.236 0.343 -0.188 0.446 -0.317 1.836 -1.458 -0.077 -0.138 -2.198 0.789 -0.48 0.174 -0.273 0.099 -3.438 0.964 -1.95 0.161 -1.337 -0.246 -1.39 -0.73 -0.882 -1.098 -0.516 -1.394 -0.316 -3.221 0.047 -11.891 -0.054 -0.634 -0.583 -2.638 -0.142 -0.286 -0.686 -0.388" />
    <path class="write-flat-pen" fill="#D534A9" stroke-width="1.6" __comx="140.705" __comy="531.202" __timestamp="0x177fae2eca0" d="M132.895 529.747 l0.281 -0.687 1.031 -0.413 12.475 -1.738 0.511 -0.168 2.199 -0.719 -0.034 -0.171 -2.308 0.164 -0.51 0.032 -12.621 1.57 -1.526 0.708 -0.375 1.1" />
    <path class="write-flat-pen" fill="#D534A9" stroke-width="1.6" __comx="153.78" __comy="531.202" __timestamp="0x177fae2ee72" d="M146.113 519.453 l3.099 7.575 0.302 0.883 1.859 6.051 0 0 1.125 5.73 0 0 1.208 -0.06 0.455 -4.074 0.775 -3.01 0.922 -1.994 0.66 -0.716 0.542 -0.118 0.489 0.241 0.863 1.131 0.912 2.4 1.007 4.611 0.926 1.833 0.157 -0.036 0.031 -2.041 -0.922 -4.718 -1.02 -2.658 -1.148 -1.503 -1.133 -0.563 -1.35 0.286 -1.065 1.146 -1.061 2.273 -0.827 3.21 -0.431 4.169 1.208 -0.06 0 0 -1.274 -5.752 0 0 -1.933 -6.099 -0.326 -0.929 -3.326 -7.517" />
    <path class="write-flat-pen" fill="#D534A9" stroke-width="1.6" __comx="166.364" __comy="531.202" __timestamp="0x177fae2ef5b" d="M165.28 530.344 l0.298 1.635 0.049 0.363 0.99 7.131 0.52 0.778 0.103 -0.019 0.208 -0.89 -0.882 -7.145 -0.089 -0.408 -0.501 -1.616" />
    <path class="write-flat-pen" fill="#D534A9" stroke-width="1.6" __comx="165.329" __comy="531.202" __timestamp="0x177fae2effb" d="M165.441 522.738 l-0.858 2.856 -0.047 2.516 0.081 0.295 0.603 2.079 0.093 -0.014 -0.049 -2.164 0.001 -0.23 0.238 -2.337 0.619 -2.824" />
    <path class="write-flat-pen" fill="#D534A9" stroke-width="1.6" __comx="175.603" __comy="531.202" __timestamp="0x177fae2f176" d="M173.555 527.516 l0.706 -0.626 0.096 -0.147 -0.047 -0.661 -0.439 -0.067 -1.765 0.524 -0.292 0.155 -1.099 0.901 -0.474 1.092 0.296 1.023 1.307 0.883 4.416 0.805 1.715 0.694 0.917 0.776 0.672 1.152 0.136 1.025 -0.257 0.86 -0.712 0.727 -1.306 0.463 -2.658 -0.328 -1.563 -0.516 -0.103 0.144 1.218 1.468 3.24 0.599 1.907 -0.712 1.116 -1.199 0.383 -1.427 -0.243 -1.519 -0.926 -1.51 -1.219 -1.008 -1.996 -0.798 -4.297 -0.778 -0.772 -0.515 -0.077 -0.242 0.193 -0.492 0.787 -0.706 0.124 -0.077 1.431 -0.647 -0.277 -0.049 0.082 -0.126 0.056 -0.078 -0.5 0.739" />
    <path class="write-flat-pen" fill="#D534A9" stroke-width="1.6" __comx="208.268" __comy="531.202" __timestamp="0x177fae2f7e7" d="M213.451 531.806 l0.207 -1.083 0.014 -0.196 -0.152 -1.719 -0.101 -0.331 -0.693 -1.41 -1.263 -1.102 -1.754 -0.606 -2.39 0.031 -2.41 0.838 -1.621 1.178 -1.536 2.041 -0.72 1.914 -0.319 2.56 0.468 2.528 1.134 2.244 1.374 1.458 1.37 0.692 1.752 0.146 1.847 -0.561 2.233 -1.566 1.697 -1.858 0 0 1.251 -2.166 0 0 0.366 -1.497 0 0 -1.313 -0.257 -0.416 2.833 0.156 2.28 1.136 1.993 0.337 0.133 1.638 0.464 0.085 -0.149 -1.238 -1.168 -0.003 -0.06 -0.662 -1.566 -0.112 -1.872 0.404 -2.692 -1.313 -0.257 0 0 -0.32 1.312 0 0 -1.079 1.876 0 0 -1.498 1.644 -1.938 1.359 -1.4 0.425 -1.24 -0.103 -0.929 -0.469 -1.077 -1.149 -0.953 -1.903 -0.388 -2.135 0.28 -2.192 0.597 -1.58 1.297 -1.72 1.295 -0.937 2.014 -0.707 1.946 -0.054 1.327 0.409 0.955 0.736 0.654 1.073 0.068 0.151 0.349 1.527 0.013 0.097 0.003 1.068" />
    <path class="write-flat-pen" fill="#D534A9" stroke-width="1.6" __comx="221.091" __comy="531.202" __timestamp="0x177fae2f9be" d="M219.309 525.784 l-0.23 0.501 -0.016 0.01 -0.715 1.102 -0.102 0.129 -1.383 1.86 -0.263 1.413 0.873 1.078 4.8 1.414 1.265 0.676 0.649 0.899 0.095 1.123 -0.478 1.255 -0.811 0.995 -1.275 0.744 -0.981 0.179 -1.094 -0.398 -0.041 0.009 -0.151 -0.159 -1.125 -1.361 -0.158 0.077 0.381 1.724 0.076 0.306 0.226 0.376 1.711 0.866 1.649 -0.308 1.684 -1.022 1.07 -1.376 0.614 -1.741 -0.186 -1.749 -1.031 -1.391 -1.624 -0.863 -4.55 -1.348 -0.28 -0.341 0.097 -0.595 1.15 -1.69 0.132 -0.196 0.606 -1.374 0.016 -0.129 0.013 -0.552" />
    <path class="write-flat-pen" fill="#D534A9" stroke-width="1.6" __comx="230.043" __comy="531.202" __timestamp="0x177fae2fb6f" d="M230.095 523.02 l-1.837 1.254 -0.229 0.161 -1.678 1.289 -0.6 1.148 0.252 1.177 1.046 0.946 4.462 1.545 1.357 0.78 0.592 0.83 0.193 1.239 -0.487 1.509 -0.831 1.157 -1.587 1.281 -1.586 0.68 -1.759 0.258 -0.666 -0.158 -0.356 -0.457 -0.033 0.019 0.124 -0.485 0.132 -0.311 0.181 -0.361 0.846 -1.637 -0.088 -0.067 -1.352 1.252 -0.321 0.298 -0.293 0.348 -0.355 0.627 -0.122 0.528 0.69 1.464 1.54 0.409 2.232 -0.345 1.927 -0.854 1.864 -1.545 1.039 -1.502 0.599 -2.022 -0.329 -1.831 -0.939 -1.276 -1.695 -0.962 -4.327 -1.506 -0.555 -0.508 -0.076 -0.345 0.259 -0.521 1.411 -1.166 0.211 -0.164 1.705 -1.439" />
    <path class="write-flat-pen" fill="#D534A9" stroke-width="1.6" __comx="241.916" __comy="531.202" __timestamp="0x177fae2fd26" d="M236.954 524.45 l-1.038 4.149 -0.065 0.565 -0.205 3.556 0.381 3.202 0.581 1.532 1.024 1.087 1.349 0.392 1.588 -0.426 1.895 -1.528 1.545 -2.25 1.177 -2.718 0 0 0.904 -4.647 0 0 -1.29 -0.183 -0.216 2.246 0.5 4.912 1.222 3.084 0.398 0.136 1.411 0.262 0.071 -0.136 -1.021 -1.009 0.051 -0.045 -0.804 -2.594 -0.499 -4.619 0.186 -2.118 -1.29 -0.183 0 0 -0.854 4.513 0 0 -1.074 2.472 -1.378 1.982 -1.539 1.229 -0.972 0.264 -0.666 -0.184 -0.621 -0.638 -0.459 -1.146 -0.421 -2.941 0.095 -3.428 0.039 -0.473 0.807 -4.136" />
    <path class="write-flat-pen" fill="#D534A9" stroke-width="1.6" __comx="257.414" __comy="531.202" __timestamp="0x177fae2ff69" d="M250.179 527.719 l-0.279 3.848 -0.028 0.56 0 0 -0.199 6.353 0 0 0.268 0.885 0 0 1.197 0.112 0.679 -1.236 1.446 -6.337 1.141 -3.383 0.764 -1.277 0.46 -0.3 0.253 0.068 0.532 0.765 0.656 2.633 0.465 4.303 0 0 0.489 0.822 0 0 1.195 0.061 0.526 -0.73 1.395 -7.15 0.717 -1.846 -0.094 0.044 0.06 0.026 0.523 1.042 1.626 11.522 0.899 2.227 0.174 -0.03 0.113 -2.378 -1.516 -11.741 -0.825 -1.651 -1.069 -0.518 -0.963 0.484 -0.951 2.437 -1.413 6.945 -0.356 0.462 1.195 0.061 0 0 -0.33 -0.557 0 0 -0.48 -4.088 -0.782 -2.964 -0.99 -1.363 -1.296 -0.299 -1.183 0.781 -0.992 1.655 -1.207 3.58 -1.425 6.223 -0.582 1.083 1.197 0.112 0 0 -0.234 -0.672 0 0 0.038 -6.132 0 0 0.014 -0.547 0.051 -3.855" />
    <path class="write-flat-pen" fill="#D534A9" stroke-width="1.6" __comx="272.025" __comy="531.202" __timestamp="0x177fae30155" d="M272.081 550.938 l-0.41 -0.395 -0.051 -0.139 -1.327 -4.365 -0.187 -0.712 -0.674 -3.804 -0.263 -5.083 0.319 -4.369 0.633 -2.778 1.077 -2.588 0.423 -0.452 0.425 -0.108 0.82 0.381 0.885 1.103 0.723 2.005 0.279 2.272 -0.247 1.915 -0.653 1.529 -0.683 0.782 -1.223 0.709 -1.13 0.29 -0.031 0.038 -1.769 -0.035 -0.042 0.141 1.494 0.947 0.266 0.127 1.687 -0.156 1.669 -0.942 0.982 -1.144 0.796 -1.922 0.274 -2.278 -0.328 -2.594 -0.855 -2.362 -1.23 -1.529 -1.555 -0.716 -1.279 0.337 -0.851 0.926 -1.193 2.925 -0.661 2.991 -0.284 4.554 0.383 5.231 0.808 3.896 0.227 0.77 1.568 4.371 0.201 0.363 0.713 0.31" />
    <path class="write-flat-pen" fill="#D534A9" stroke-width="1.6" __comx="279.734" __comy="531.202" __timestamp="0x177fae30235" d="M278.09 516.689 l0.549 2.847 0.066 0.521 1.519 18.324 1.005 1.911 0.15 -0.045 -0.194 -2.05 -1.558 -18.247 -0.097 -0.583 -0.774 -2.833" />
    <path class="write-flat-pen" fill="#D534A9" stroke-width="1.6" __comx="281.235" __comy="531.202" __timestamp="0x177fae3031c" d="M275.986 528.539 l4.371 0.518 3.506 -0.546 0.349 -0.145 0.196 -0.099 2.076 -1.036 -0.051 -0.161 -2.293 0.351 -0.219 0.032 -0.281 0.058 -3.297 0.338 -4.245 -0.377" />
    <path class="write-flat-pen" fill="#D534A9" stroke-width="1.6" __comx="288.514" __comy="531.202" __timestamp="0x177fae303fb" d="M287.767 530.101 l0.112 2.678 0.029 0.42 0.475 4.325 0.641 0.658 0.189 -0.078 0.047 -0.794 -0.286 -4.205 -0.043 -0.417 -0.34 -2.658" />
    <path class="write-flat-pen" fill="#D534A9" stroke-width="1.6" __comx="289.616" __comy="531.202" __timestamp="0x177fae30491" d="M289.806 522.026 l-1.115 3.353 -0.015 2.121 0.132 0.018 0.554 -1.977 1.195 -3.252" />
    <path class="write-flat-pen" fill="#D534A9" stroke-width="1.6" __comx="295.338" __comy="531.202" __timestamp="0x177fae305ef" d="M299.42 527.682 l-1.228 -0.365 -0.395 0.007 -2.52 0.393 -1.708 0.749 -1.385 1.266 -0.886 1.765 -0.263 1.933 0.333 1.83 0.86 1.721 1.314 1.055 1.389 0.171 1.475 -0.563 1.234 -1.142 1.184 -2.034 0.721 -2.371 0.098 -1.939 -0.467 -1.552 -1.435 -0.716 -0.423 0.16 -0.165 0.146 -0.956 0.946 0.075 0.139 1.315 -0.28 0.119 -0.007 -0.11 0.068 0.47 0.408 0.232 0.846 -0.081 1.55 -0.623 2.067 -1.001 1.733 -0.897 0.846 -0.933 0.374 -0.713 -0.073 -0.835 -0.641 -0.692 -1.311 -0.312 -1.475 0.159 -1.576 0.669 -1.451 1.094 -1.052 1.434 -0.667 2.333 -0.473 0.235 -0.029 1.167 0.13" />
    <path class="write-flat-pen" fill="#D534A9" stroke-width="1.6" __comx="307.112" __comy="531.202" __timestamp="0x177fae30761" d="M301.518 529.426 l0.047 1.789 0.013 0.387 0.071 4.836 0.003 0.339 0 0 0.122 1.32 0 0 0.852 0.568 0.706 -0.187 1.875 -5.397 1.033 -1.873 0.985 -0.948 1.243 -0.565 0.874 0.025 0.807 0.488 0.67 1.028 0.513 1.88 0.203 4.586 0.01 0.036 0.353 2.391 0.163 0.009 0.618 -2.336 0.017 -0.079 0.01 -4.806 -0.621 -2.252 -0.967 -1.465 -1.383 -0.824 -1.54 -0.041 -1.74 0.784 -1.308 1.248 -1.193 2.155 -1.684 4.834 -0.014 0.021 0.852 0.568 0 0 -0.173 -1.256 0 0 -0.013 -0.289 -0.297 -4.853 -0.043 -0.409 -0.255 -1.778" />
    <path class="write-flat-pen" fill="#D534A9" stroke-width="1.6" __comx="411.455" __comy="338.506" __timestamp="0x177fae30ffb" d="M365.132 335.617 l-0.025 -0.603 -0.38 -0.209 -0.19 0.052 -0.224 0.744 -0.029 0.287 0.086 3.465 0.036 0.621 0.381 4.616 0.792 3.747 0.783 1.633 1.203 0.979 1.927 0.639 5.468 0.537 16.455 0.322 10.559 -0.197 15.117 -0.9 16.286 -0.272 11.849 -0.883 3.566 0.054 4.581 1.113 1.622 0.034 1.323 -0.581 1.21 -1.405 0.819 -2.247 0.283 -2.717 -0.017 -0.471 -0.088 -0.756 -0.093 -0.366 -0.582 -2.244 -0.127 0.011 -0.196 2.31 -0.034 0.338 -0.073 0.696 -0.041 0.378 -0.429 2.473 -0.686 1.858 -0.819 0.981 -0.738 0.345 -1.158 -0.014 -4.581 -1.117 -3.783 -0.059 -11.872 0.87 -16.277 0.269 -15.118 0.918 -10.504 0.225 -16.377 -0.305 -5.275 -0.498 -1.576 -0.494 -0.816 -0.631 -0.616 -1.233 -0.789 -3.522 -0.464 -4.524 -0.053 -0.6 -0.301 -3.406 -0.013 -0.199 -0.049 -0.367 -0.162 0.042 -0.38 -0.209 0.243 0.552" />
    <path class="write-flat-pen" fill="#D534A9" stroke-width="1.6" __comx="404.486" __comy="412.496" __timestamp="0x177fae3219c" d="M402.342 469.015 l-0.189 -1.972 0.003 -0.305 0.395 -46.99 0.047 -1.255 0.404 -10.508 1.229 -15.36 2.286 -19.648 0.087 -0.955 0.475 -3.828 0.116 -0.834 0.099 -0.846 0.248 -2.097 -0.081 -0.015 -0.513 2.048 -0.208 0.827 -0.182 0.831 -0.669 3.822 -0.118 0.961 -2.511 19.636 -1.222 15.401 -0.397 10.528 -0.047 1.27 -0.161 47.02 0.023 0.359 0.409 1.981" />
    <path class="write-flat-pen" fill="#D534A9" stroke-width="1.6" __comx="406.91" __comy="360.866" __timestamp="0x177fae3248b" d="M407.492 361.174 l-0.007 -0.677 -0.193 -0.205 -0.713 0.047 -0.211 0.112 -1.544 1.108 -0.272 0.225 -3.801 3.319 0.217 -0.006 0 0 0.592 1.004 1.489 -2.559 2.455 -3.146 0.648 -0.378 0.537 0.084 1.053 0.829 3.23 4.274 0.254 0.301 0.312 0.319 1.682 1.745 0.199 -0.142 -1.102 -2.159 -0.198 -0.396 -0.201 -0.345 -3.18 -4.557 -1.487 -1.165 -1.369 -0.211 -1.293 0.754 -2.678 3.427 -1.513 2.656 0.592 1.004 0 0 0.288 -0.007 4.013 -3.824 0.231 -0.222 1.342 -1.234 0.029 -0.038 0.207 -0.159 -0.157 -0.169 0.201 0.456" />
    <path class="write-flat-pen" fill="#D534A9" stroke-width="1.6" __comx="397.693" __comy="500.026" __timestamp="0x177fae32c08" d="M401.359 489.993 l0.724 -0.803 0.053 -0.073 0.456 -0.877 0.065 -0.263 -0.086 -1.273 -0.207 -0.339 -0.941 -0.766 -1.962 -0.196 -2.729 0.866 -2.255 1.409 -2.118 2.032 -1.775 2.454 -1.314 2.712 -0.782 2.875 -0.212 2.861 0.396 2.782 0.89 2.358 1.274 1.8 1.652 1.255 2.099 0.691 2.473 -0.028 2.56 -0.671 4.777 -2.765 0.417 -0.346 0.779 -0.749 0.143 -0.197 1.371 -1.921 -0.176 -0.18 -1.955 1.323 -0.168 0.106 -0.821 0.584 -0.341 0.235 -4.609 2.452 -2.185 0.557 -2.02 0.019 -1.601 -0.525 -1.251 -0.946 -1.016 -1.437 -0.755 -2.007 -0.35 -2.442 0.181 -2.542 0.698 -2.591 1.188 -2.459 1.609 -2.233 1.899 -1.83 1.952 -1.24 2.256 -0.772 1.287 0.043 0.514 0.302 -0.04 -0.085 0.233 0.809 0.013 0.012 -0.195 0.802 0.008 -0.003 -0.521 0.921" />
    <path class="write-flat-pen" fill="#D534A9" stroke-width="1.6" __comx="412.248" __comy="500.026" __timestamp="0x177fae32e27" d="M413.739 498.277 l-0.218 -0.734 -0.313 -0.157 -1.627 0.092 -0.436 0.169 -1.822 1.168 -1.199 1.492 -0.805 1.849 -0.277 1.949 0.349 1.732 0.923 1.417 1.143 0.751 1.526 0.232 1.732 -0.36 2.002 -1.164 1.515 -1.6 0.963 -1.859 0.257 -1.63 -0.473 -1.451 -1.138 -1.123 -1.564 -0.628 -1.801 0.011 -1.559 0.806 -0.169 0.208 -0.038 0.068 -0.868 1.675 0.084 0.076 1.578 -1.034 0.046 -0.026 0.035 0.003 1.172 -0.402 1.228 0.05 1.035 0.436 0.679 0.671 0.258 0.78 -0.158 1.053 -0.752 1.475 -1.226 1.314 -1.619 0.966 -1.264 0.282 -0.991 -0.134 -0.668 -0.422 -0.647 -0.962 -0.278 -1.263 0.194 -1.565 0.641 -1.556 0.95 -1.241 1.528 -1.079 0.194 -0.096 1.217 -0.272 -0.167 -0.091 0.293 0.367" />
    <path class="write-flat-pen" fill="#D534A9" stroke-width="1.6" __comx="422.223" __comy="500.026" __timestamp="0x177fae32fcd" d="M417.222 497.895 l0.37 0.861 0.058 0.166 0.741 2.536 0 0 0.082 0.387 0 0 0.725 4.746 0 0 1.326 -0.07 0.226 -3.065 0.658 -2.654 0.747 -1.387 0.681 -0.541 0.429 -0.052 0.679 0.329 0.905 1.146 0.583 1.589 0.566 4.271 0.709 0.508 0.074 -0.105 0.439 -0.513 -0.041 -0.184 -0.616 -0.276 -0.112 -0.063 0.709 0.508 -0.369 -4.465 -0.722 -1.955 -1.235 -1.567 -1.327 -0.654 -1.229 0.145 -1.217 0.965 -0.961 1.799 -0.721 2.943 -0.191 3.189 1.326 -0.07 0 0 -0.93 -4.748 0 0 -0.124 -0.464 0 0 -0.974 -2.561 -0.126 -0.234 -0.587 -0.783" />
    <path class="write-flat-pen" fill="#D534A9" stroke-width="1.6" __comx="436.621" __comy="500.026" __timestamp="0x177fae33174" d="M437.916 497.142 l0.277 -0.48 0.05 -0.213 -0.244 -0.768 -0.37 -0.233 -1.838 0.076 -0.505 0.21 -1.562 1.047 -1.285 1.639 -0.713 1.821 -0.067 1.963 0.585 1.775 1.122 1.273 1.27 0.644 1.912 0.189 3.004 -1.209 0.32 -0.263 0.499 -0.594 1.214 -1.864 -0.093 -0.09 -1.804 1.246 -0.571 0.372 -0.157 0.086 -2.595 0.847 -1.31 -0.147 -0.784 -0.393 -0.752 -0.835 -0.426 -1.25 0.028 -1.472 0.523 -1.424 1.005 -1.34 1.257 -0.912 0.205 -0.103 1.295 -0.244 -0.16 -0.112 0.215 0.183 0.029 -0.079 -0.062 0.486" />
    <path class="write-flat-pen" fill="#D534A9" stroke-width="1.6" __comx="442.785" __comy="500.026" __timestamp="0x177fae3328d" d="M441.203 489.006 l0.079 1.863 0.031 0.46 0.921 9.164 0.067 0.773 0.767 5.588 0.172 0.177 1.045 0.765 0.081 -0.055 -0.324 -1.254 0.042 -0.014 -0.558 -5.336 -0.071 -0.767 -1.152 -9.147 -0.062 -0.45 -0.288 -1.841" />
    <path class="write-flat-pen" fill="#D534A9" stroke-width="1.6" __comx="453.599" __comy="500.026" __timestamp="0x177fae3345c" d="M447.784 497.748 l-0.089 1.754 0.021 0.304 0.45 3.03 0.671 1.479 0.944 0.566 1.276 -0.219 1.382 -1.133 0 0 1.082 -1.695 0 0 1.029 -3.631 0 0 -1.263 -0.226 -0.173 1.925 0.429 2.597 0.859 1.962 1.145 1.013 1.985 0.005 0.413 -0.247 0.425 -0.437 1.133 -1.435 -0.054 -0.065 -1.589 0.849 -0.45 0.202 -0.105 0.007 -1.214 -0.183 -0.562 -0.524 -0.68 -1.539 -0.404 -2.263 0.126 -1.762 -1.263 -0.226 0 0 -0.953 3.459 0 0 -0.867 1.375 0 0 -0.97 0.809 -0.509 0.102 -0.246 -0.132 -0.488 -0.987 -0.595 -2.815 -0.036 -0.222 -0.121 -1.705" />
    <path class="write-flat-pen" fill="#D534A9" stroke-width="1.6" __comx="471.973" __comy="500.026" __timestamp="0x177fae33707" d="M462.766 488.537 l0.776 2.147 0.099 0.376 0.742 4.706 0.086 0.664 0.592 3.495 0.916 2.659 0.988 0.849 1.157 -0.296 0.511 -1.204 -0.246 -1.234 -1.02 -0.903 -1.414 -0.295 -1.447 0.385 -1.459 1.085 -0.772 1.239 -0.123 1.314 0.579 1.23 1.337 0.94 1.651 0.361 1.927 -0.255 2.365 -1.177 1.712 -1.483 1.732 -2.39 0.92 -2.13 0.338 -2.147 -0.396 -0.764 0 0 -1.276 -0.151 -0.653 0.771 -0.357 2.036 0.229 2.043 0.714 1.455 1.326 1.054 1.533 0.373 3.356 -1.042 0.374 -0.258 0.715 -0.639 0.149 -0.191 1.367 -1.804 -0.103 -0.115 -1.941 1.163 -0.166 0.092 -0.739 0.431 -0.192 0.094 -2.842 0.676 -0.813 -0.205 -0.793 -0.626 -0.448 -0.9 -0.181 -1.555 0.25 -1.403 0.388 -0.445 -1.276 -0.151 0 0 0.157 0.317 -0.236 1.45 -0.775 1.79 -1.529 2.101 -1.424 1.238 -1.953 0.986 -1.405 0.203 -1.1 -0.22 -0.791 -0.52 -0.276 -0.515 0.022 -0.601 0.433 -0.755 1.033 -0.796 0.898 -0.25 0.775 0.154 0.439 0.382 0.082 0.413 -0.111 0.238 0.125 -0.036 -0.204 -0.174 -0.778 -2.223 -0.62 -3.363 -0.103 -0.664 -0.974 -4.746 -0.156 -0.47 -0.989 -2.112" />
    <path class="write-flat-pen" fill="#D534A9" stroke-width="1.6" __comx="417.157" __comy="527.041" __timestamp="0x177fae33a2a" d="M409.859 515.851 l0.752 -1.149 -0.006 0.024 0.486 -0.062 -0.279 -0.196 0.251 2.361 -0.066 0.562 -0.774 6.742 -0.166 5.713 0.365 2.823 0.766 1.953 1.113 1.267 1.622 0.819 1.666 0.252 4.1 -1.017 0.631 -0.303 2.263 -1.411 0.355 -0.295 0.534 -0.556 1.5 -1.711 -0.065 -0.075 -1.889 1.255 -0.614 0.402 -0.326 0.2 -2.271 1.184 -0.487 0.199 -3.77 0.741 -1.179 -0.219 -1.168 -0.619 -0.76 -0.875 -0.607 -1.553 -0.329 -2.534 0.143 -5.544 0.665 -6.703 0.061 -0.735 -0.572 -2.905 -0.522 -0.387 -1.165 0.525 -0.172 0.223 -0.602 1.32" />
    <path class="write-flat-pen" fill="#D534A9" stroke-width="1.6" __comx="411.391" __comy="527.041" __timestamp="0x177fae33b1e" d="M402.359 525.953 l0.228 -0.9 0.865 -0.464 3.024 -0.391 10.922 -0.105 0.63 -0.099 0.993 -0.202 2.238 -0.515 -0.018 -0.165 -2.296 -0.026 -1.015 0.011 -0.586 0.036 -10.949 -0.078 -3.309 0.495 -1.398 0.886 -0.167 1.372" />
    <path class="write-flat-pen" fill="#D534A9" stroke-width="1.6" __comx="429.091" __comy="527.041" __timestamp="0x177fae33cf1" d="M422.413 513.775 l0.659 1.753 0.139 0.423 1.388 5.588 0.182 0.911 0 0 0.802 4.553 0 0 0.563 8.155 0 0 1.384 0.079 0.418 -2.085 1.117 -2.82 0.895 -1.367 0.528 -0.371 0.454 0.007 0.649 0.507 1.255 2.414 1.834 4.363 1.055 0.066 0.032 -0.173 -0.033 -0.231 -0.243 -0.836 -0.111 -0.021 -0.535 0.687 -0.085 0.039 -0.049 -0.026 1.055 0.066 -1.674 -4.504 -1.432 -2.731 -1.23 -0.971 -1.35 -0.041 -1.125 0.764 -1.143 1.702 -1.226 3.076 -0.427 2.216 1.384 0.079 0 0 -0.74 -8.206 0 0 -0.91 -4.613 0 0 -0.215 -0.948 -1.624 -5.596 -0.192 -0.474 -0.856 -1.695" />
    <path class="write-flat-pen" fill="#D534A9" stroke-width="1.6" __comx="440.482" __comy="527.041" __timestamp="0x177fae33dd3" d="M439.057 527.672 l0.01 1.201 0.037 0.343 0.25 1.977 0.067 0.405 0.763 3.172 0.012 0.044 0.838 0.671 0.847 -0.192 0.027 -0.229 -0.011 -0.311 -0.059 -1.241 -0.126 -0.027 -0.569 1.105 -0.126 0.22 -0.104 0.138 0.847 -0.192 -0.434 -0.596 0.012 0.044 -0.845 -2.857 -0.087 -0.355 -0.451 -1.929 -0.079 -0.302 -0.215 -1.147" />
    <path class="write-flat-pen" fill="#D534A9" stroke-width="1.6" __comx="439.322" __comy="521.156" __timestamp="0x177fae34459" d="M439.445 521.241 l-0.755 -0.389 -0.15 -0.02 -0.361 0.062 0 0 -0.008 0.819 0.854 0.131 1.427 -0.031 0.02 -0.129 -1.312 -0.447 -0.749 -0.341 -0.008 0.819 0 0 0.199 -0.092 -0.087 -0.013 0.744 0.146" />
    <path class="write-flat-pen" fill="#D534A9" stroke-width="1.6" __comx="451.812" __comy="525.309" __timestamp="0x177fae34bdf" d="M451.199 524.854 l1.155 -0.378 0.158 -0.085 0.531 -0.769 -0.45 -0.518 -2.297 -0.062 -0.419 0.117 -1.437 0.675 -1.022 1.179 -0.368 1.485 0.278 1.469 1.028 1.307 5.538 2.168 0.886 0.602 0.257 0.492 -0.094 0.319 -0.649 0.506 -4.559 1.054 -1.069 0.687 0.019 0.159 1.254 0.406 5.012 -0.91 1.299 -1.065 0.324 -1.354 -0.718 -1.278 -1.306 -0.872 -5.332 -2.076 -0.585 -0.738 -0.162 -0.837 0.207 -0.874 0.608 -0.725 1.066 -0.535 0.145 -0.048 1.625 -0.152 -0.358 -0.416 0.122 0.004 0.097 -0.05 -1.022 0.567" />
    <path class="write-flat-pen" fill="#D534A9" stroke-width="1.6" __comx="464.74" __comy="537.132" __timestamp="0x177fae3500b" d="M465.313 538.532 l-0.35 -1.208 0.019 0.112 0.187 -0.228 -1.067 0.024 0.001 0.014 0.999 0.135 0.306 -0.44 -0.735 -1.217 -0.179 0.036 -0.298 0.936 -0.027 0.049 0.999 0.135 -0.008 -0.011 -1.067 0.024 -0.022 0.479 0.029 0.182 0.604 1.219" />
    <path class="write-flat-pen" fill="#D534A9" stroke-width="1.6" __comx="464.934" __comy="520.386" __timestamp="0x177fae350dc" d="M465.734 526.177 l-0.703 -8.586 -0.366 -2.312 -0.168 0 -0.363 2.345 0.554 8.63" />
  </g>
</svg>
