<svg class="write-page" width="772px" height="1380px" xmlns="http://www.w3.org/2000/svg" xmlns:xlink="http://www.w3.org/1999/xlink">
  <g class="write-content write-v3" width="772" height="1380" xruling="0" yruling="40" marginLeft="100" papercolor="#FFFFFF" rulecolor="#9F0000FF">
    <g class="ruleline write-std-ruling write-scale-down" fill="none" stroke="#0000FF" stroke-opacity="0.624" stroke-width="1" shape-rendering="crispEdges" vector-effect="non-scaling-stroke">
      <rect class="pagerect" fill="#FFFFFF" stroke="none" x="0" y="0" width="772" height="1380" />
      <path class="yrule_1" d="M0 40 l772 0" />
      <path d="M0 80 l772 0" />
      <path d="M0 120 l772 0" />
      <path d="M0 160 l772 0" />
      <path d="M0 200 l772 0" />
      <path d="M0 240 l772 0" />
      <path d="M0 280 l772 0" />
      <path d="M0 320 l772 0" />
      <path d="M0 360 l772 0" />
      <path d="M0 400 l772 0" />
      <path d="M0 440 l772 0" />
      <path d="M0 480 l772 0" />
      <path d="M0 520 l772 0" />
      <path d="M0 560 l772 0" />
      <path d="M0 600 l772 0" />
      <path d="M0 640 l772 0" />
      <path d="M0 680 l772 0" />
      <path d="M0 720 l772 0" />
      <path d="M0 760 l772 0" />
      <path d="M0 800 l772 0" />
      <path d="M0 840 l772 0" />
      <path d="M0 880 l772 0" />
      <path d="M0 920 l772 0" />
      <path d="M0 960 l772 0" />
      <path d="M0 1000 l772 0" />
      <path d="M0 1040 l772 0" />
      <path d="M0 1080 l772 0" />
      <path d="M0 1120 l772 0" />
      <path d="M0 1160 l772 0" />
      <path d="M0 1200 l772 0" />
      <path d="M0 1240 l772 0" />
      <path d="M0 1280 l772 0" />
      <path d="M0 1320 l772 0" />
      <path d="M0 1360 l772 0" />
      <path class="leftmargin" stroke="#FF0000" d="M100 0 l0 1380" />
    </g>
    <path class="write-flat-pen" fill="#000000" stroke-width="1.6" __comx="139.785" __comy="64.607" __timestamp="0x1761b00d76f" d="M138.246 43.575 l0.073 -1.272 0.132 0.003 -0.607 -0.228 0.894 2.675 0.295 1.334 0.967 6.057 0.445 5.265 0.216 10.378 0 0 -0.19 10.032 0.949 -0.618 -0.41 -0.157 -0.765 -0.882 -0.431 -0.64 -0.499 -0.726 -0.726 -1.042 -0.325 0.152 0.334 1.226 0.253 0.883 0.379 0.819 0.937 1.308 0.72 0.32 0.949 -0.618 0.152 -10.059 0 0 -0.266 -10.446 -0.497 -5.351 -1.085 -6.125 -0.364 -1.428 -1.125 -2.661 -0.607 -0.228 -0.445 0.312 -0.018 1.699" />
    <path class="write-flat-pen" fill="#000000" stroke-width="1.6" __comx="145.481" __comy="64.607" __timestamp="0x1761b00d8a2" d="M121.808 43.046 l-0.468 -0.476 0.036 -0.169 0.498 -0.514 3.212 -1.098 3.753 -0.491 19.93 -0.512 6.417 -0.875 6.388 -1.498 3.02 -0.898 2.849 -0.967 2.623 -1.019 0.602 -0.23 -0.068 -0.224 -0.627 0.146 -2.742 0.617 -2.903 0.737 -3.026 0.743 -6.334 1.385 -6.299 0.836 -19.933 0.47 -3.952 0.542 -3.593 1.338 -0.897 1.087 -0.003 1.033 0.859 0.749" />
    <path class="write-flat-pen" fill="#000000" stroke-width="1.6" __comx="171.021" __comy="64.607" __timestamp="0x1761b00dbff" d="M159.975 60.485 l-0.104 -0.971 -0.007 -0.096 0 0 -0.675 0.138 -0.193 0.706 -0.097 0.601 -0.811 6.117 -0.137 1.346 -0.264 5.925 0.32 1.66 0.681 1.357 1.125 0.961 1.591 0.574 1.866 -0.072 1.133 -0.446 2.067 -1.566 1.829 -2.282 1.517 -2.733 1.748 -4.452 1.827 -5.845 0.809 -3.684 0.164 -3.089 -1.254 -0.491 -0.717 1.802 -0.233 2.99 0.362 3.628 1.835 6.361 1.249 3.081 0.977 1.56 1.565 1.62 2.529 1.229 0.81 0.284 0.723 0.163 0.781 0.154 1.287 0.234 0.078 -0.206 -1.119 -0.676 -0.706 -0.408 -0.656 -0.294 -0.691 -0.346 -2.251 -1.196 -1.315 -1.367 -0.846 -1.348 -1.186 -2.911 -1.794 -6.18 -0.343 -3.398 0.205 -2.683 0.175 -0.441 -0.788 -0.308 -0.113 2.063 -0.781 3.526 -1.802 5.745 -1.706 4.326 -1.429 2.556 -1.661 2.067 -1.792 1.363 -0.759 0.301 -1.391 0.058 -1.132 -0.404 -0.75 -0.635 -0.489 -0.963 -0.269 -1.338 0.196 -5.744 0.116 -1.301 0.625 -6.128 0.04 -0.611 -0.033 -0.732 -0.675 0.138 0 0 0.032 -0.027 0.304 0.829" />
    <path class="write-flat-pen" fill="#000000" stroke-width="1.6" __comx="194.305" __comy="64.607" __timestamp="0x1761b00ddcc" d="M185.262 68.821 l1.695 0.569 0.512 0.248 3.109 0.884 0.699 0.088 1.379 -0.003 1.971 -0.711 1.678 -1.368 0.884 -1.923 0.289 -2.176 -0.507 -2.002 -0.776 -0.972 -1.226 -0.627 -1.755 -0.27 -2.316 0.497 -2.174 1.062 -1.739 1.506 -1.282 2.038 -0.605 2.341 -0.21 2.445 0.562 2.496 1.238 2.276 1.834 1.879 2.11 1.241 2.246 0.487 2.516 -0.081 2.521 -0.756 3.249 -1.789 0.943 -0.75 0.798 -0.821 0.818 -0.864 -0.175 -0.231 -1.055 0.552 -0.985 0.528 -0.969 0.544 -3.137 1.574 -2.228 0.662 -2.174 0.071 -1.872 -0.403 -1.772 -1.035 -1.591 -1.61 -1.083 -1.945 -0.499 -2.12 0.165 -2.143 0.507 -2.058 1.061 -1.736 1.469 -1.304 1.897 -0.947 1.966 -0.43 1.36 0.208 0.839 0.429 0.466 0.582 0.397 1.546 -0.226 1.791 -0.686 1.546 -1.317 1.122 -1.619 0.648 -1.147 0.055 -0.581 -0.042 -3.059 -0.617 -0.533 -0.178 -1.803 -0.311" />
    <path class="write-flat-pen" fill="#000000" stroke-width="1.6" __comx="213.124" __comy="64.607" __timestamp="0x1761b00e00d" d="M215.698 58.167 l-0.667 -1.191 -0.372 -0.213 -1.423 -0.32 -2.902 0.43 -2.154 0.776 -2.008 1.203 -0.916 1.22 -0.189 1.394 0.882 1.326 1.756 0.947 4.248 1.175 2.502 1 2.235 1.358 1.253 1.107 1.381 1.822 0.581 1.886 0.081 1.674 -0.325 0.92 -0.647 0.752 -1.146 0.476 -1.743 0.208 -2.145 -0.315 -3.041 -0.944 -2.045 -0.957 -0.04 0.114 -0.581 -0.35 -0.156 0.063 -0.171 0.656 0.052 0.34 2.454 1.332 3.243 1.003 2.415 0.344 2.086 -0.266 1.573 -0.68 0.966 -1.171 0.445 -1.365 -0.148 -2.042 -0.706 -2.197 -1.571 -2.059 -1.41 -1.244 -2.398 -1.456 -2.642 -1.061 -4.182 -1.169 -1.396 -0.758 -0.492 -0.741 0.089 -0.688 0.602 -0.826 1.715 -1.076 1.952 -0.756 2.639 -0.515 1.197 0.128 0.15 0.044 0.812 0.879" />
    <path class="write-flat-pen" fill="#000000" stroke-width="1.6" __comx="237.191" __comy="64.607" __timestamp="0x1761b00e2ea" d="M243.044 49.82 l-0.607 -0.023 -0.281 0.51 0.3 3.051 0.124 1.28 0.546 5.099 0.101 2.024 0.161 10.112 0 0 -0.014 1.818 0 0 0.188 6.776 0 0 1.301 -0.087 -0.315 -3.201 -0.904 -3.18 -1.267 -2.409 -1.285 -1.251 -1.562 -0.916 -2.412 -0.546 -2.661 -0.079 -1.732 0.361 -2.232 0.964 -1.991 1.511 -0.907 1.28 -0.632 1.699 -0.178 2.168 0.794 2.453 2.208 3.616 1.878 2.068 2.308 1.506 2.399 0.717 2.485 0.107 2.582 -0.863 2.333 -1.369 2.478 -2.397 0.514 -0.716 0.286 -0.554 0.546 -1.143 -0.156 -0.123 -0.988 0.792 -0.459 0.386 -0.585 0.538 -2.433 2.139 -2.094 1.213 -2.214 0.735 -2.068 -0.091 -2.051 -0.613 -2.003 -1.301 -1.683 -1.84 -2.073 -3.367 -0.676 -2.051 0.131 -1.729 0.501 -1.377 0.69 -0.985 1.705 -1.306 1.97 -0.858 1.459 -0.305 2.389 0.073 2.098 0.482 1.255 0.742 1.023 1.005 1.099 2.115 0.821 2.944 0.312 3.086 1.301 -0.087 0 0 -0.282 -6.752 0 0 -0.016 -1.813 0 0 -0.372 -10.141 -0.17 -2.067 -0.784 -5.096 -0.202 -1.273 -0.522 -2.917 0.099 -0.282 0.427 -0.019" />
    <path class="write-flat-pen" fill="#000000" stroke-width="1.6" __comx="259.625" __comy="64.607" __timestamp="0x1761b00e4e8" d="M260.154 73.05 l0.326 -1.505 -0.066 -0.498 -0.594 -1.285 -0.955 -0.714 -2.23 -0.561 -1.869 0.144 -1.745 0.677 -1.313 1.022 -1.045 1.376 -0.85 2.61 -0.186 2.799 0.375 1.781 0.971 2.007 1.07 0.819 1.397 0.439 1.52 -0.276 1.46 -0.825 1.872 -1.687 2.758 -3.285 1.043 -0.706 0.454 0.006 0.731 0.505 0.789 1.193 1.782 4.172 1.665 2.483 0.431 0.329 0.337 0.147 1.255 0.458 0.089 -0.127 -0.855 -1.026 -0.193 -0.225 -0.197 -0.267 -1.393 -2.37 -1.802 -4.179 -0.994 -1.487 -1.248 -0.853 -1.225 -0.015 -1.516 1.018 -2.822 3.346 -1.705 1.533 -1.153 0.653 -1.004 0.186 -0.892 -0.273 -0.666 -0.499 -0.796 -1.6 -0.333 -1.472 0.12 -2.497 0.696 -2.319 0.821 -1.145 1.066 -0.874 1.462 -0.599 1.573 -0.15 1.931 0.428 0.688 0.452 0.578 0.959 0.091 0.29 -0.046 1.439" />
    <path class="write-flat-pen" fill="#000000" stroke-width="1.6" __comx="276.664" __comy="64.607" __timestamp="0x1761b00e5ef" d="M271.086 62.44 l1.557 1.486 0.412 0.602 3.692 6.638 0.556 1.206 1.471 2.86 1.398 1.757 0.423 0.225 0.27 0.073 1.294 0.267 0.082 -0.16 -0.97 -0.897 -0.166 -0.151 -0.167 -0.168 -1.131 -1.596 -1.434 -2.736 -0.578 -1.223 -3.917 -6.637 -0.564 -0.694 -1.802 -1.356" />
    <path class="write-flat-pen" fill="#000000" stroke-width="1.6" __comx="281.094" __comy="71.13" __timestamp="0x1761b00e6ec" d="M287.663 58.432 l-0.652 2.389 -0.335 1.527 -2.235 7.358 -0.799 2.483 -7.362 22.836 -2.108 7.55 -0.422 2.801 -0.058 1.259 0.068 1.011 0.091 1.238 0.421 0.036 0.3 -1.205 0.238 -0.975 0.196 -1.193 0.508 -2.671 2.109 -7.448 7.263 -22.844 0.78 -2.506 2.096 -7.464 0.283 -1.572 0.451 -2.42" />
    <path class="write-flat-pen" fill="#000000" stroke-width="1.6" __comx="333.484" __comy="71.13" __timestamp="0x1761b00e97e" d="M332.119 42.966 l0.135 1.622 0.076 0.777 0.307 2.589 0.229 1.793 0.5 7.491 0.102 3.127 0.034 10.386 -1.02 15.315 1.335 0.029 -0.063 -0.556 -0.065 -1.11 -0.13 -1.539 -0.088 -1.007 -0.316 -0.018 -0.2 0.991 -0.302 1.527 -0.136 1.151 -0.036 0.592 1.335 0.029 1.036 -15.363 -0.082 -10.455 -0.129 -3.172 -0.66 -7.547 -0.325 -1.827 -0.541 -2.56 -0.189 -0.758 -0.391 -1.577" />
    <path class="write-flat-pen" fill="#000000" stroke-width="1.6" __comx="342.375" __comy="71.13" __timestamp="0x1761b00eb4d" d="M329.847 56.576 l-1.041 -1.551 -0.063 -0.153 -0.34 -1.515 0.049 -0.397 0.319 -1.171 1.621 -2.906 1.275 -1.562 1.711 -1.442 2.289 -1.155 2.853 -0.549 3.297 -0.009 3.426 1.047 3.292 1.862 1.509 1.276 2.678 3.265 1.005 1.824 1.52 3.918 0.829 3.767 0.109 3.191 -0.455 3.213 -1.045 3.264 -1.56 3.023 -2.019 2.533 -2.392 1.871 -2.638 1.133 -3.814 0.511 -3.304 -0.019 -0.315 0.386 -0.067 0.852 0.091 0.001 0.493 0.223 0.438 -0.427 -0.21 -0.499 0.001 -0.091 -0.067 0.852 0.085 0.087 2.94 0.056 4.107 -0.562 2.979 -1.289 2.655 -2.096 2.188 -2.78 1.648 -3.255 1.083 -3.484 0.464 -3.436 -0.128 -3.419 -0.883 -3.974 -1.593 -4.085 -1.106 -1.997 -2.83 -3.436 -1.686 -1.423 -3.51 -1.989 -3.737 -1.144 -3.603 0.011 -3.14 0.601 -2.579 1.297 -1.913 1.615 -1.413 1.747 -1.71 3.162 -0.333 1.425 -0.039 0.698 0.611 1.761 0.184 0.284 1.293 1.437" />
    <path class="write-flat-pen" fill="#000000" stroke-width="1.6" __comx="370.086" __comy="71.13" __timestamp="0x1761b00ed85" d="M362.429 72.625 l1.506 0.497 0.685 0.1 1.608 0.079 2.782 -0.581 2.372 -1.077 1.43 -1.019 1.4 -1.616 0.541 -1.631 -0.128 -1.164 -0.689 -0.932 -1.246 -0.601 -1.889 -0.274 -2.566 0.24 -2.641 0.661 -2.176 0.95 -1.618 1.234 -1.01 1.64 -0.423 2.192 0.113 1.323 0.847 2.559 1.663 2.379 2.206 1.915 2.486 1.303 2.644 0.635 2.77 0.091 2.658 -0.816 2.079 -1.396 0.792 -0.837 0.586 -0.949 0.594 -1.013 -0.188 -0.163 -0.919 0.731 -0.814 0.665 -0.796 0.585 -1.902 1.143 -2.27 0.678 -2.406 -0.082 -2.344 -0.563 -2.195 -1.15 -1.96 -1.699 -1.462 -2.074 -0.755 -2.217 -0.094 -0.983 0.323 -1.784 0.744 -1.247 1.295 -1.02 1.931 -0.877 2.446 -0.636 2.333 -0.228 1.571 0.223 0.823 0.394 0.333 0.444 0.071 0.599 -0.377 1.181 -1.144 1.364 -1.221 0.909 -2.152 1.054 -2.545 0.657 -1.473 0.041 -0.613 -0.019 -1.522 -0.219" />
    <path class="write-flat-pen" fill="#000000" stroke-width="1.6" __comx="394.331" __comy="71.13" __timestamp="0x1761b00f066" d="M394.638 69.888 l1.296 -0.537 0.357 -0.291 0.934 -1.282 0.178 -0.438 0.298 -1.297 -0.212 -1.459 -0.958 -1.241 -1.317 -0.567 -2.046 -0.236 -2.645 0.373 -2.496 0.741 -2.051 1.367 -1.423 2.136 -0.566 2.676 0.098 3.036 0.981 2.922 1.775 2.635 2.4 2.091 2.846 1.353 3.096 0.331 1.703 -0.219 4.184 -1.75 1.03 -0.763 1.569 -0.572 1.008 -0.354 -0.103 -0.439 -1.06 0.131 -1.848 0.229 -1.165 0.69 -3.947 1.56 -1.383 0.175 -2.722 -0.294 -2.481 -1.182 -2.132 -1.863 -1.585 -2.345 -0.882 -2.571 -0.11 -2.694 0.465 -2.298 1.136 -1.75 1.684 -1.155 2.234 -0.689 2.413 -0.364 1.747 0.175 0.931 0.369 0.675 0.788 0.23 1.027 -0.136 1.098 -0.083 0.322 -0.639 1.297 -0.215 0.267 -1.128 0.734" />
    <path class="write-flat-pen" fill="#000000" stroke-width="1.6" __comx="450.147" __comy="56.826" __timestamp="0x1761b011f35" d="M444.409 58.108 l-1.304 0.183 0 0 0.055 0.233 2.937 -0.701 0.752 -0.356 3.054 -1.935 2.433 -2.072 2.193 -2.549 1.61 -2.499 1.061 -2.323 -0.283 -0.699 0 0 -0.555 -0.186 -0.899 0.444 -2.151 2.723 -1.567 2.696 -1.356 3.333 -0.947 3.841 -0.441 6.215 0.168 4.05 0.612 3.806 1.182 4.287 0.815 1.75 1.156 1.3 0.954 0.44 1.015 -0.245 0.332 -0.318 0.157 -0.324 0.385 -1.06 -0.172 -0.141 -0.966 0.583 -0.207 0.119 -0.056 -0.014 -0.318 0.015 -0.31 -0.148 -0.848 -0.945 -0.695 -1.472 -1.172 -4.105 -0.63 -3.66 -0.219 -3.91 0.319 -6.065 0.847 -3.695 1.261 -3.217 1.48 -2.593 1.947 -2.567 0.704 -0.417 -0.555 -0.186 0 0 0.207 0.366 -0.883 1.979 -1.555 2.414 -2.114 2.484 -2.336 2.036 -2.945 1.958 -0.668 0.341 -2.802 0.992 0.055 0.233 0 0 1.286 -0.286" />
    <path class="write-flat-pen" fill="#000000" stroke-width="1.6" __comx="451.281" __comy="56.826" __timestamp="0x1761b012051" d="M439.507 81.016 l1.389 0.46 0.878 0.095 6.27 -0.193 1.459 -0.125 9.984 -1.919 1.314 -0.394 1.255 -0.451 1 -0.365 -0.043 -0.191 -1.06 0.098 -1.328 0.129 -1.337 0.211 -9.936 1.79 -1.383 0.134 -6.189 0.411 -0.76 -0.005 -1.365 -0.252" />
    <path class="write-flat-pen" fill="#000000" stroke-width="1.6" __comx="468.466" __comy="56.826" __timestamp="0x1761b01233e" d="M469.962 44.675 l0.275 -0.659 -0.542 -0.544 -1.207 0.272 -1.923 1.234 -1.523 1.574 -0.295 0.774 0.331 0.705 1.228 0.544 2.052 0.327 2.069 0.777 0.688 0.684 0.343 0.788 0.007 0.985 -0.386 0.805 -0.604 0.518 -1.489 0.398 -0.991 0.006 -0.012 0.04 0.98 0.608 1.858 -0.37 0.858 -0.747 0.506 -1.108 -0.047 -1.291 -0.473 -1.018 -0.888 -0.853 -2.261 -0.824 -2.03 -0.328 -0.935 -0.423 -0.113 -0.249 0.156 -0.403 1.354 -1.47 1.742 -1.249 0.923 -0.319 0.389 0.224 -0.128 0.562" />
    <path class="write-flat-pen" fill="#000000" stroke-width="1.6" __comx="476.974" __comy="56.826" __timestamp="0x1761b012427" d="M476.705 37.855 l-0.027 3.763 -0.042 1.198 -0.48 8.909 0.187 3.928 0.59 0.426 0.807 0.094 0.052 -0.098 -0.436 -0.561 -0.082 -0.266 -0.184 -3.526 0.277 -8.887 -0.02 -1.223 -0.223 -3.768" />
    <path class="write-flat-pen" fill="#000000" stroke-width="1.6" __comx="477.323" __comy="56.826" __timestamp="0x1761b012508" d="M471.007 45.502 l0.733 0.68 0.606 0.075 9.179 -0.411 1.108 -0.083 1.004 -0.078 0.003 -0.106 -0.998 -0.13 -1.119 -0.142 -9.161 0.268 -0.398 -0.006 -0.744 -0.366" />
    <path class="write-flat-pen" fill="#000000" stroke-width="1.6" __comx="191.553" __comy="90.476" __timestamp="0x1761b012a58" d="M132.016 89.882 l-5.21 3.381 -0.148 0.13 -0.462 0.655 0.184 0.848 1.061 0.676 1.986 0.432 55.326 1.058 14.972 -0.11 15.296 -1.404 25.998 -3.9 5.24 -0.901 5.236 -0.888 5.143 -0.962 0.271 -0.048 -0.028 -0.188 -0.273 0.032 -5.204 0.56 -5.267 0.708 -5.259 0.764 -25.984 3.763 -15.222 1.392 -14.912 0.092 -55.212 -1.047 -1.721 -0.336 -0.592 -0.326 -0.043 -0.052 0.132 -0.263 0.014 -0.022 5.002 -3.569" />
    <path class="write-flat-pen" fill="#000000" stroke-width="1.6" __comx="400.245" __comy="89.894" __timestamp="0x1761b012da2" d="M308.036 90.307 l-0.269 1.037 0.284 0.86 1.106 0.858 2.335 0.669 19.955 1.631 2.929 0.174 18.549 1.315 13.152 0.336 14.747 -0.035 16.264 -1.121 24.29 -2.393 26.421 -3.148 25.886 -2.308 6.203 -0.199 6.532 0.025 6.142 -0.132 0.16 -0.002 0.001 -0.092 -0.16 -0.004 -6.136 -0.207 -6.537 -0.257 -6.248 0.029 -25.941 2.189 -26.426 3.155 -24.267 2.389 -16.218 1.109 -14.701 0.019 -13.115 -0.358 -18.534 -1.299 -2.927 -0.162 -19.897 -1.381 -2.178 -0.529 -0.915 -0.622 -0.213 -0.541 0.174 -0.903" />
    <path class="write-flat-pen" fill="#000000" stroke-width="1.6" __comx="143.811" __comy="183.761" __timestamp="0x1761b013679" d="M145.262 171.193 l0.883 -2.889 0.094 -0.335 0.156 -2.067 -0.09 -0.435 -0.827 -1.434 -1.279 -0.926 -2.226 -0.42 -1.826 0.192 -2.507 0.904 -1.44 0.948 -1.706 1.931 -0.748 2.036 -0.13 1.977 0.629 1.447 1.305 1.289 1.701 1.016 5.587 2.096 3.263 1.59 2.836 1.82 2.254 1.999 1.009 1.38 0.549 1.556 0.159 1.743 -0.393 1.999 -0.985 1.968 -1.423 1.688 -1.827 1.406 -2.19 1.031 -2.689 0.423 -2.747 -0.091 -2.243 -0.733 -1.761 -1.03 -1.108 -1.011 -0.527 -0.881 -0.224 -0.945 0.111 -0.454 0.213 -0.302 0.435 -0.356 0.954 -0.754 -0.161 -0.329 -1.181 0.292 -0.72 0.21 -0.636 0.553 -0.42 1.058 0.331 1.544 0.744 1.248 1.368 1.246 2.017 1.175 2.571 0.832 3.071 0.093 3.006 -0.479 2.496 -1.181 2.055 -1.588 1.615 -1.926 1.129 -2.277 0.452 -2.366 -0.204 -2.092 -0.673 -1.886 -1.205 -1.645 -2.433 -2.158 -2.983 -1.917 -3.384 -1.656 -5.528 -2.089 -1.459 -0.876 -1.005 -0.999 -0.394 -0.916 0.1 -1.461 0.6 -1.615 1.423 -1.606 1.156 -0.767 2.203 -0.812 1.478 -0.175 1.777 0.292 0.879 0.578 0.682 1.019 0.04 0.12 0.059 1.849 -0.033 0.247 -0.619 2.941" />
    <path class="write-flat-pen" fill="#000000" stroke-width="1.6" __comx="164.747" __comy="183.761" __timestamp="0x1761b013833" d="M164.064 184.526 l0.669 -1.686 0.071 -0.363 0.109 -1.835 -0.203 -0.628 -0.987 -0.956 -1.37 -0.151 -1.77 0.594 -1.911 1.254 -1.541 1.746 -0.915 2.163 -0.418 3.603 0.649 2.499 1.383 2.367 2.011 1.871 2.376 1.122 2.697 0.264 1.493 -0.314 2.49 -1.201 2.057 -1.797 2.024 -2.8 0.383 -0.895 0.133 -0.745 0.203 -1.265 -0.302 -0.105 -0.624 1.118 -0.335 0.602 -0.423 0.684 -2.008 2.517 -1.832 1.584 -2.189 1.056 -1.142 0.24 -2.273 -0.22 -1.99 -0.936 -1.727 -1.601 -1.203 -2.046 -0.552 -2.093 0.363 -3.184 0.76 -1.806 1.288 -1.468 1.63 -1.083 1.361 -0.478 0.713 0.05 0.539 0.443 0.082 0.177 0.095 1.595 -0.005 0.238 -0.427 1.683" />
    <path class="write-flat-pen" fill="#000000" stroke-width="1.6" __comx="188.896" __comy="183.761" __timestamp="0x1761b013ae6" d="M170.438 163.985 l1.142 4.475 0.45 1.403 1.562 5.527 1.365 6.487 1.63 10.041 0.93 3.818 0 0 0.583 0.83 0 0 1.045 0.042 0.495 -0.581 1.619 -8.17 1.186 -4.15 1.106 -2.588 0.301 -0.376 -0.225 -0.146 0.963 4.901 0.953 2.543 1.486 2.481 1.378 1.346 1.625 0.95 1.684 0.443 1.861 0.01 1.924 -0.605 1.825 -1.179 1.54 -1.602 1.198 -1.931 1.042 -3.219 0.255 -2.991 -0.204 -1.602 -0.629 -1.194 -1.263 -0.757 -1.821 -0.109 -1.786 0.81 -1.428 1.626 -0.868 2.313 -0.457 4.022 0.242 2.915 0.669 2.689 1.025 2.258 1.298 1.693 1.491 0.968 1.938 0.366 2.295 -0.613 3.092 -2.224 0.911 -0.874 0.727 -0.854 0.761 -0.908 -0.197 -0.225 -1 0.635 -0.933 0.601 -0.97 0.7 -2.949 1.933 -1.785 0.469 -1.384 -0.264 -1.078 -0.702 -1.064 -1.391 -0.91 -2.009 -0.614 -2.467 -0.225 -2.676 0.423 -3.727 0.725 -1.931 1.078 -1.225 1.223 -0.553 1.163 0.07 0.661 0.396 0.343 0.648 0.158 1.221 -0.226 2.698 -0.943 2.922 -1.036 1.679 -1.332 1.396 -1.545 1.004 -1.559 0.493 -1.491 -0.006 -1.352 -0.355 -1.333 -0.778 -1.143 -1.116 -1.343 -2.234 -0.881 -2.33 -1.045 -5.349 -1.216 -0.763 -1.158 1.39 -1.246 2.827 -1.233 4.289 -1.538 7.895 -0.266 0.326 1.045 0.042 0 0 -0.446 -0.62 0 0 -0.864 -3.525 -1.693 -10.01 -1.441 -6.542 -1.625 -5.573 -0.471 -1.392 -1.332 -4.396" />
    <path class="write-flat-pen" fill="#000000" stroke-width="1.6" __comx="217.849" __comy="183.761" __timestamp="0x1761b013d83" d="M217.984 169.127 l0.177 -2.726 0.017 -0.094 -0.002 0.023 0.198 -0.497 -0.96 -0.04 -0.007 0.237 0.2 6.503 0.094 1.69 0.827 6.986 1.42 6.447 1.191 3.601 1.17 2.204 1.035 1.029 1.307 0.322 1.115 -0.842 0.442 -1.596 -0.302 -1.895 -0.767 -1.833 -1.227 -1.691 -1.826 -1.453 -2.324 -0.899 -3.732 -0.416 -3.025 0.207 -1.528 0.594 -1.066 0.905 -0.665 1.382 -0.256 1.887 0.613 2.143 1.04 1.82 1.292 1.468 1.49 1.026 1.71 0.558 2.783 0.206 3.243 -0.8 0.704 -0.329 0.54 -0.348 1.117 -0.766 -0.106 -0.257 -1.333 0.24 -0.608 0.123 -0.658 0.165 -3 0.612 -2.418 -0.182 -1.368 -0.447 -1.189 -0.821 -1.089 -1.24 -0.888 -1.558 -0.486 -1.71 0.191 -1.389 0.448 -0.923 0.67 -0.566 1.119 -0.434 2.694 -0.183 3.432 0.382 1.961 0.76 1.515 1.205 1.025 1.409 0.642 1.534 0.233 1.439 -0.233 0.868 -0.231 0.183 -0.324 -0.071 -0.629 -0.622 -1.03 -1.924 -1.15 -3.426 -1.419 -6.314 -0.855 -6.881 -0.106 -1.642 -0.392 -6.517 -0.059 -0.261 -0.96 -0.04 -0.005 0.573 -0.002 0.023 -0.001 0.117 0.111 2.758" />
    <path class="write-flat-pen" fill="#000000" stroke-width="1.6" __comx="240.177" __comy="183.761" __timestamp="0x1761b013f66" d="M230.976 185.818 l0.344 -1.583 -1.018 0.164 -0.019 0.006 0.598 4.516 0.307 1.095 1.037 2.593 0.918 1.328 1.165 0.851 1.99 0.502 1.719 -0.628 1.443 -1.288 1.154 -1.649 1.074 -2.638 0.478 -2.875 0.071 -3.522 -0.474 -1.166 -1.319 -0.553 -0.745 1.572 0.173 2.309 1.206 3.035 1.81 3.205 2.047 2.845 2.504 2.295 0.69 0.272 0.656 0.111 1.338 0.183 0.105 -0.29 -1.147 -0.712 -0.522 -0.313 -0.42 -0.263 -2.191 -2.164 -1.922 -2.689 -1.723 -3.064 -1.091 -2.758 -0.129 -1.743 0.034 -0.07 -0.404 -0.169 0.156 0.381 -0.059 3.143 -0.432 2.63 -0.954 2.361 -0.975 1.399 -1.133 1.018 -1.092 0.405 -1.345 -0.334 -0.779 -0.565 -0.71 -1.021 -0.967 -2.387 -0.274 -0.948 -0.785 -4.584 -0.095 -0.146 -1.018 0.164 -0.122 1.615" />
    <path class="write-flat-pen" fill="#000000" stroke-width="1.6" __comx="253.588" __comy="183.761" __timestamp="0x1761b014082" d="M247.678 167.511 l2.867 5.187 0.659 1.367 1.98 4.593 4.958 15.663 1.074 0.918 0.282 -0.183 -0.319 -1.222 -4.769 -15.631 -2.047 -4.673 -0.709 -1.42 -3.043 -5.133" />
    <path class="write-flat-pen" fill="#000000" stroke-width="1.6" __comx="273.847" __comy="183.761" __timestamp="0x1761b014230" d="M264.076 188.242 l3.512 0.553 0.976 -0.113 2.088 -0.453 3.205 -1.413 2.4 -1.693 1.385 -1.57 0.524 -1.57 -0.36 -1.157 -1.124 -0.931 -1.668 -0.377 -2.28 0.107 -3.528 0.927 -1.813 1.012 -1.31 1.447 -0.658 1.862 -0.267 2.13 0.448 2.224 1.013 1.986 1.586 1.733 2.039 1.293 2.306 0.708 2.543 0.214 2.629 -0.506 3.149 -1.58 1.335 -0.65 0.593 -0.553 0.821 -0.815 -0.123 -0.191 -1.081 0.412 -0.659 0.255 -1.382 0.375 -3.095 1.396 -2.261 0.428 -2.2 -0.182 -1.985 -0.598 -1.731 -1.081 -1.342 -1.453 -0.855 -1.649 -0.388 -1.823 0.198 -1.777 0.5 -1.494 0.977 -1.118 1.482 -0.848 3.249 -0.843 1.981 -0.089 1.21 0.275 0.604 0.504 0.129 0.415 -0.312 0.949 -1.109 1.286 -2.163 1.576 -2.973 1.38 -1.918 0.5 -0.789 0.141 -3.404 -0.342" />
    <path class="write-flat-pen" fill="#000000" stroke-width="1.6" __comx="105.062" __comy="177.835" __timestamp="0x1761b0148f4" d="M104.843 179.368 l0.435 -1.412 -0.296 0.136 0.158 0.385 0.016 0.18 -0.034 1.125 -0.15 0.316 0.195 -0.04 -0.125 -0.189 -0.284 -1.391 0.047 -1.261 0.099 -0.144 0.168 -0.027 0.043 0.038 0.096 0.337 -0.477 0.666 -1.256 0.866 0.57 0.948 1.583 -0.84 1.014 -1.407 -0.42 -1.32 -0.791 -0.64 -1.274 0.205 -0.62 0.902 -0.06 1.788 0.388 1.804 0.724 0.969 1.237 -0.153 0.437 -1.225 -0.073 -1.44 -0.121 -0.492 -0.811 -0.883 -0.602 0.24 -0.252 1.867" />
    <path class="write-flat-pen" fill="#000000" stroke-width="1.6" __comx="219.366" __comy="262.962" __timestamp="0x1761b015450" d="M217.206 248.979 l-0.482 -0.169 -0.031 0.249 0.039 0.429 0.696 2.855 0.354 1.388 1.82 8.553 1.085 6.635 0.189 3.269 -0.025 0.211 -0.038 0.13 -0.663 0.539 0.095 0.26 0.854 -0.012 0.579 -0.094 0.36 -0.865 -0.197 -3.565 -1.11 -6.723 -1.909 -8.591 -0.4 -1.411 -0.906 -2.77 -0.133 -0.423 -0.189 -0.222 -0.482 0.326" />
    <path class="write-flat-pen" fill="#000000" stroke-width="1.6" __comx="218.259" __comy="262.962" __timestamp="0x1761b01557f" d="M203.058 247.177 l-0.419 -0.803 -0.061 0.175 0.885 -0.38 4.14 -0.59 22.009 -1.139 2.672 -0.123 1.767 -0.239 0.853 -0.113 -0.007 -0.239 -0.858 -0.061 -1.769 -0.131 -2.684 -0.089 -22.099 0.972 -4.359 0.719 -1.226 0.709 -0.285 0.571 0.896 1.133" />
    <path class="write-flat-pen" fill="#000000" stroke-width="1.6" __comx="239.778" __comy="262.962" __timestamp="0x1761b0157b9" d="M241.891 263.997 l-1.305 -0.959 -0.331 -0.175 -1.287 -0.284 -1.585 0.49 -0.984 0.801 -0.657 1.121 -0.444 2.026 0.153 1.501 0.867 1.883 0.882 1.023 1.558 0.817 1.383 0.079 1.45 -0.572 1.255 -1.062 0.914 -1.479 0.501 -2.374 -0.156 -1.581 -0.558 -1.206 -0.861 -0.834 -1.359 -0.553 -1.385 0.07 -0.998 0.859 0.108 0.258 1.107 -0.022 0.92 0.082 0.911 0.372 0.522 0.504 0.375 0.804 0.122 1.182 -0.407 1.98 -0.693 1.138 -0.95 0.818 -1.017 0.414 -0.866 -0.041 -1.137 -0.588 -0.633 -0.727 -0.733 -1.556 -0.13 -1.13 0.341 -1.685 0.454 -0.815 0.663 -0.573 1.139 -0.411 0.95 0.118 0.197 0.067 1.384 0.731" />
    <path class="write-flat-pen" fill="#000000" stroke-width="1.6" __comx="257.464" __comy="262.962" __timestamp="0x1761b0159c9" d="M256.041 247.853 l0.311 -0.083 0.851 1.317 0.33 0.719 0.954 2.962 1.523 10.453 0.108 0.817 0.483 2.472 0.791 1.698 1.324 -0.043 0.429 -1.398 -0.457 -1.521 -1.074 -1.286 -1.361 -0.772 -1.752 -0.389 -2.806 -0.079 -2.27 0.481 -1.308 0.842 -0.765 1.424 -0.061 1.34 0.443 1.355 0.962 1.263 1.958 1.26 2.39 0.573 2.492 -0.106 2.808 -1.337 0.388 -0.425 0.904 -1.136 -0.178 -0.233 -1.333 0.575 -0.403 0.18 -2.497 1.076 -2.055 0.091 -1.998 -0.473 -1.583 -1.013 -0.695 -0.906 -0.305 -0.923 0.036 -0.811 0.47 -0.87 0.83 -0.531 1.888 -0.399 2.527 0.074 1.439 0.323 0.981 0.563 0.743 0.903 0.264 0.883 -0.034 0.123 0.473 -0.012 -0.368 -0.771 -0.466 -2.276 -0.112 -0.788 -1.72 -10.528 -1.085 -3.084 -0.434 -0.84 -1.419 -1.705 -0.803 0.364" />
    <path class="write-flat-pen" fill="#000000" stroke-width="1.6" __comx="272.312" __comy="262.962" __timestamp="0x1761b015b7c" d="M272.227 264.974 l-0.279 -1.85 -0.135 -0.23 -0.695 -0.634 -1.344 -0.385 -1.711 0.487 -1.368 1.358 -0.726 1.928 -0.194 2.03 0.274 1.216 0.81 1.325 1.216 0.869 1.078 0.14 1.512 -0.534 2.045 -1.7 0.771 -0.315 0.365 0.088 0.904 0.666 2.188 2.762 1.37 0.982 0.541 -0.593 -1.024 -1.204 -2.156 -2.886 -1.265 -0.929 -1.028 -0.246 -1.346 0.549 -2.012 1.698 -1.005 0.361 -0.458 -0.06 -0.749 -0.531 -0.571 -0.924 -0.19 -0.817 0.139 -1.672 0.547 -1.541 0.95 -0.979 1.102 -0.33 0.792 0.202 0.402 0.325 -0.039 -0.072 0.464 1.625" />
    <path class="write-flat-pen" fill="#000000" stroke-width="1.6" __comx="282.756" __comy="262.962" __timestamp="0x1761b015c8b" d="M277.878 264.568 l1.423 1.13 0.381 0.229 6.082 4.247 0.448 0.249 1.25 0.67 0.172 -0.204 -0.874 -1.117 -0.357 -0.428 -6.147 -4.345 -0.401 -0.192 -1.487 -0.93" />
    <path class="write-flat-pen" fill="#000000" stroke-width="1.6" __comx="286.267" __comy="262.962" __timestamp="0x1761b015d87" d="M287.602 260.215 l-0.753 2.725 -1.069 6.954 -2.045 18.663 0.14 0.484 0.129 0.138 0.58 0.399 0.232 -0.092 0.152 -0.688 0.048 -0.069 0.031 -0.203 2.073 -18.457 0.985 -6.867 0.692 -2.666" />
    <path class="write-flat-pen" fill="#000000" stroke-width="1.6" __comx="314.791" __comy="262.962" __timestamp="0x1761b015f2c" d="M314.108 273.765 l-0.476 1.405 0.64 1.074 0.844 -0.143 0.27 -0.287 0.563 -0.801 -0.237 -0.337 -0.944 0.26 -0.114 -0.017 0.28 -0.069 0.068 0.146 0.23 -0.883" />
    <path class="write-flat-pen" fill="#000000" stroke-width="1.6" __comx="310.063" __comy="262.962" __timestamp="0x1761b015fd8" d="M311.023 248.473 l-1.056 -0.56 -0.773 0.243 -0.092 0.421 0.434 0.506 0.9 0.486" />
    <path class="write-flat-pen" fill="#000000" stroke-width="1.6" __comx="217.341" __comy="304.574" __timestamp="0x1761b016372" d="M215.277 295.06 l0.188 2.045 0.102 1.043 0.976 6.352 0.162 1.891 1.619 14.409 1.08 -0.112 -0.063 -0.232 -0.122 -0.534 -0.065 -0.629 -0.134 -1.09 -0.136 -1.011 -0.086 -0.001 -0.164 1.007 -0.164 1.08 -0.106 0.667 -0.026 0.602 -0.017 0.246 1.08 -0.112 -1.612 -14.398 -0.186 -1.92 -1.199 -6.342 -0.183 -1.022 -0.415 -2.015" />
    <path class="write-flat-pen" fill="#000000" stroke-width="1.6" __comx="219.071" __comy="304.574" __timestamp="0x1761b01647d" d="M204.804 296.702 l-1.46 -0.561 -0.005 -0.049 -0.249 0.914 2.852 -0.392 1.399 -0.229 23.94 -3.224 1.646 -0.332 1.562 -0.274 0.987 -0.172 -0.014 -0.294 -0.999 -0.077 -1.626 -0.121 -1.71 0.154 -23.97 3.107 -1.422 0.242 -2.822 0.585 -0.249 0.914 0.203 0.127 1.718 0.406" />
    <path class="write-flat-pen" fill="#000000" stroke-width="1.6" __comx="242.382" __comy="304.574" __timestamp="0x1761b01672f" d="M233.192 293.621 l-0.127 -0.611 0 0 -0.594 0.269 0.245 0.623 0.264 0.647 1.833 4.818 1.925 6.613 0 0 3.67 16.464 0 0 1.277 -0.276 -0.542 -2.687 -0.239 -3.731 0.455 -4.865 1.157 -4.162 0.965 -2.192 0.682 -0.815 0.299 -0.138 0.491 0.064 0.769 0.597 0.877 1.398 1.276 3.882 1.459 6.951 0.708 1.34 1.022 0.046 0.447 -0.182 0.229 -0.235 0.594 -0.802 -0.071 -0.115 -0.984 0.168 -0.179 0.016 -0.112 -0.038 -0.089 -0.092 -0.285 -0.564 -1.433 -6.846 -1.378 -4.095 -1.076 -1.733 -1.234 -0.975 -1.238 -0.166 -0.925 0.425 -1 1.191 -1.079 2.457 -1.206 4.372 -0.467 5.087 0.251 3.926 0.578 2.773 1.277 -0.276 0 0 -3.795 -16.476 0 0 -2.026 -6.674 -1.984 -4.839 -0.355 -0.703 -0.495 -0.539 -0.594 0.269 0 0 0.222 0.583" />
    <path class="write-flat-pen" fill="#000000" stroke-width="1.6" __comx="261.87" __comy="304.574" __timestamp="0x1761b01690d" d="M252.697 302.399 l0.198 1.223 0.21 0.617 2.146 9.602 0.31 1.167 1.16 2.922 0.989 1.403 1.038 0.793 1.282 0.374 1.616 -0.489 1.404 -1.377 1.089 -2.05 0.651 -2.426 0.33 -5.085 -0.184 -3.762 -0.749 -2.761 -0.846 -1.514 -1.119 -0.421 -0.889 1.034 -0.376 2.658 0.379 3.185 1.042 3.107 1.424 2.858 1.594 2.278 1.636 1.43 1.476 0.619 1.215 -0.061 0.485 -0.287 0.197 -0.247 0.64 -1.025 -0.168 -0.206 -1.132 0.422 -0.173 0.054 -0.149 0.017 -0.65 -0.032 -1.006 -0.429 -1.344 -1.177 -1.44 -2.059 -1.335 -2.682 -0.964 -2.883 -0.337 -2.867 0.298 -2.079 -0.006 0.008 -0.261 -0.098 0.516 0.923 0.667 2.451 0.177 3.534 -0.309 4.872 -0.571 2.146 -0.914 1.727 -1.014 0.995 -0.909 0.28 -0.656 -0.184 -0.682 -0.51 -0.793 -1.098 -1.102 -2.694 -0.296 -1.067 -2.329 -9.61 -0.253 -0.613 -0.387 -1.113" />
    <path class="write-flat-pen" fill="#000000" stroke-width="1.6" __comx="278.888" __comy="304.574" __timestamp="0x1761b016a4a" d="M273.508 316.173 l0.138 -0.863 0.046 -0.289 0.254 -2.157 0.087 -0.795 0.677 -9.182 0.115 -0.695 0.623 -2.315 0.687 -1.137 0.865 -0.63 1.203 -0.334 1.799 0.116 1.252 0.409 0.589 0.244 0.659 0.298 0.68 0.343 0.601 0.278 1.183 0.524 0.086 -0.126 -0.924 -0.906 -0.487 -0.461 -0.619 -0.499 -0.637 -0.452 -0.636 -0.375 -1.455 -0.595 -2.223 -0.201 -1.685 0.46 -1.298 0.947 -0.93 1.55 -0.676 2.576 -0.13 0.828 -0.52 9.243 -0.055 0.794 -0.052 2.196 0.02 0.307 0.07 0.873" />
    <path class="write-flat-pen" fill="#000000" stroke-width="1.6" __comx="290.067" __comy="304.574" __timestamp="0x1761b016c0b" d="M288.13 299.834 l-0.476 -0.388 -0.021 -0.031 -0.571 -0.474 -0.252 -0.152 -1.585 -0.686 -1.354 -0.059 -0.99 0.921 -0.145 1.407 0.575 1.302 1.391 1.583 2.306 1.441 6.055 2.977 2.109 1.436 0.557 0.74 0.307 0.949 -0.054 1.045 -0.566 1.153 -1.155 1.181 -1.527 0.932 -1.684 0.578 -1.956 0.223 -0.924 -0.246 -0.747 -0.492 -0.764 -1.149 -0.067 -0.108 -0.152 -0.37 -0.548 -1.24 -0.26 0.036 -0.19 1.342 -0.033 0.486 0.074 0.371 0.908 1.618 1.194 0.801 1.405 0.373 2.371 -0.272 1.973 -0.68 1.803 -1.109 1.424 -1.473 0.775 -1.612 0.064 -1.578 -0.472 -1.393 -0.834 -1.082 -2.37 -1.597 -6.076 -2.99 -2.087 -1.303 -1.132 -1.285 -0.355 -0.8 0.054 -0.579 0.237 -0.235 0.611 -0.001 1.386 0.456 0.188 0.069 0.628 0.248 0.063 0.027 0.651 0.17" />
    <path class="write-flat-pen" fill="#000000" stroke-width="1.6" __comx="325.793" __comy="304.574" __timestamp="0x1761b016d88" d="M324.766 310.924 l1.14 0.733 0.914 -0.717 -0.064 -0.228 -0.678 -0.267 -0.74 -0.439" />
    <path class="write-flat-pen" fill="#000000" stroke-width="1.6" __comx="318.497" __comy="304.574" __timestamp="0x1761b016e2e" d="M319.024 293.38 l0.087 -3.386 0.149 -1.171 -0.35 -0.181 -0.992 1.037 -0.184 3.651" />
    <path class="write-flat-pen" fill="#000000" stroke-width="1.6" __comx="177.434" __comy="344.737" __timestamp="0x1761b01781a" d="M166.66 356.573 l-0.575 1.433 0.079 -0.061 0.309 0.272 0.161 -0.743 0.106 -0.584 1.126 -6.231 0.16 -1.753 1.259 -9.18 0.364 -6.724 -0.104 -4.389 -0.435 -1.828 -0.937 -1.087 -1.199 0.499 -0.65 1.522 -0.123 1.698 0.658 2.953 4.371 14.082 2.06 5.275 1.542 2.776 2.108 2.599 1.42 0.879 2.019 0.448 1.651 -0.58 1.549 -1.282 1.345 -1.825 2.004 -4.38 1.221 -4.273 0.614 -3.76 0.264 -6.85 -0.289 -2.5 -0.833 -2.429 -1.515 -0.813 -0.669 0.499 -0.378 0.619 -0.166 0.668 -0.211 1.026 0.113 0.052 0.645 -0.826 0.355 -0.458 0.353 -0.269 -0.029 0.101 0.373 0.314 0.612 1.82 0.265 2.25 -0.232 6.663 -0.575 3.603 -1.161 4.106 -1.892 4.175 -1.16 1.6 -1.242 1.053 -1.095 0.404 -1.466 -0.312 -1.06 -0.662 -1.899 -2.361 -1.45 -2.607 -2.009 -5.156 -4.294 -14.002 -0.592 -2.715 0.097 -1.288 0.352 -0.833 -0.163 0.063 0.126 0.13 0.348 1.388 0.13 4.206 -0.317 6.63 -1.163 9.171 -0.132 1.739 -0.917 6.24 -0.045 0.643 0.102 0.786 0.309 0.272 0.172 -0.077 0.403 -1.768" />
    <path class="write-flat-pen" fill="#000000" stroke-width="1.6" __comx="193.339" __comy="344.737" __timestamp="0x1761b0179eb" d="M189.179 350.154 l0.815 0.599 1.456 0.286 1.53 -0.369 1.43 -0.844 1.069 -1.154 0.656 -1.707 0.006 -1.403 -0.671 -0.884 -1.049 -0.355 -1.389 0.328 -2.09 1.265 -1.502 1.577 -0.543 1.165 -0.343 2.077 0.386 1.386 0.978 1.44 1.419 0.844 1.7 0.38 3.447 -0.381 0.309 -0.098 1.333 -0.469 -0.016 -0.131 -1.407 -0.134 -0.307 -0.023 -3.289 0.183 -1.39 -0.296 -1.092 -0.632 -0.772 -1.11 -0.292 -1.015 0.282 -1.728 0.419 -0.897 1.301 -1.368 1.846 -1.12 0.97 -0.234 0.513 0.165 0.313 0.39 0.02 0.919 -0.496 1.414 -0.841 0.981 -1.202 0.784 -1.272 0.378 -1.225 -0.114 -0.774 -0.449" />
    <path class="write-flat-pen" fill="#000000" stroke-width="1.6" __comx="205.549" __comy="344.737" __timestamp="0x1761b017ae9" d="M199.066 345.496 l1.454 2.058 2.63 2.756 3.967 3.428 3.505 2.063 1.346 0.296 0.063 -0.152 -1.108 -0.727 -3.292 -2.182 -3.941 -3.305 -2.648 -2.619 -1.473 -1.981" />
    <path class="write-flat-pen" fill="#000000" stroke-width="1.6" __comx="206.059" __comy="344.737" __timestamp="0x1761b017b90" d="M200.738 355.878 l1.982 -2.235 0.729 -0.996 5.915 -8.292 1.603 -1.736 0.82 -0.717 -0.186 -0.263 -0.978 0.555 -1.955 1.551 -5.887 8.433 -0.668 1.005 -1.779 2.364" />
    <path class="write-flat-pen" fill="#000000" stroke-width="1.6" __comx="224.443" __comy="344.737" __timestamp="0x1761b017dac" d="M217.533 333.877 l0.764 2.284 0.163 0.577 3.043 11.236 1.274 3.536 1.147 1.608 1.516 0.833 1.908 0.217 1.434 -0.398 0.731 -0.325 0.69 -0.299 1.149 -0.511 -0.036 -0.137 -1.252 0.121 -0.776 0.087 -0.761 0.191 -1.241 0.24 -1.53 -0.184 -1.145 -0.614 -0.943 -1.3 -1.247 -3.361 -3.234 -11.155 -0.205 -0.606 -1.03 -2.209" />
    <path class="write-flat-pen" fill="#000000" stroke-width="1.6" __comx="219.202" __comy="344.737" __timestamp="0x1761b017e7e" d="M212.042 346.523 l13.472 -2.918 0.958 -0.329 -0.023 -0.096 -0.997 0.145 -13.518 2.673" />
    <path class="write-flat-pen" fill="#000000" stroke-width="1.6" __comx="255.365" __comy="344.737" __timestamp="0x1761b018060" d="M252.265 333.43 l-0.287 4.361 0.057 1.594 1.115 5.312 1.94 6.963 1.4 3.681 1.39 2.221 0.765 0.122 0.107 -0.169 -0.266 -0.531 -1.064 -2.084 -1.372 -3.558 -1.962 -6.878 -1.163 -5.198 -0.102 -1.481 0.064 -4.331" />
    <path class="write-flat-pen" fill="#000000" stroke-width="1.6" __comx="254.664" __comy="344.737" __timestamp="0x1761b01813f" d="M241.586 336.15 l4.005 -0.096 1.441 -0.138 5.241 -0.819 13.329 -1.509 0.999 -0.19 1.183 -0.232 -0.01 -0.292 -1.196 -0.15 -1.044 -0.119 -13.417 1.329 -5.232 0.904 -1.376 0.172 -3.964 0.294" />
    <path class="write-flat-pen" fill="#000000" stroke-width="1.6" __comx="273.628" __comy="344.737" __timestamp="0x1761b018380" d="M266.03 348.298 l0.326 -1.539 -0.2 0.171 -0.066 0.02 0.277 0.858 0.447 5.464 0.579 2.321 0.947 1.851 1.128 1.103 1.15 0.402 1.403 -0.381 1.185 -1.005 1.199 -2.381 0 0 0.442 -3.195 0 0 -0.062 -5.376 -1.286 0.248 2.492 6.452 2.598 4.927 0.469 0.351 1.185 0.735 0.424 0.122 1.156 0.282 0.054 -0.109 -0.918 -0.758 -0.28 -0.231 -0.918 -0.893 -0.21 -0.249 -2.353 -4.719 -2.458 -6.39 -1.286 0.248 0.072 5.278 0 0 -0.389 2.884 0 0 -0.973 1.959 -0.761 0.658 -0.744 0.213 -0.514 -0.172 -0.789 -0.758 -0.809 -1.536 -0.551 -2.085 -0.56 -5.503 -0.559 -1.391 -0.867 -0.29 -0.487 0.388 -0.142 1.937" />
    <path class="write-flat-pen" fill="#000000" stroke-width="1.6" __comx="288.334" __comy="344.737" __timestamp="0x1761b01852d" d="M283.743 350.58 l-0.226 1.299 0.317 0.434 1.237 0.814 1.079 0.016 1.488 -0.725 0.921 -0.977 0.791 -1.854 0.294 -2.258 -0.193 -1.842 -0.779 -1.12 -1.078 -0.431 -1.531 0.314 -1.462 1.028 -1.236 1.665 -0.818 2.254 -0.395 2.48 0.014 3.219 0.555 1.828 0.915 1.488 1.278 1.211 2.353 0.875 1.901 0.041 2.632 -0.926 0.778 -0.517 0.601 -0.469 0.503 -0.562 0.834 -0.986 -0.134 -0.171 -1.156 0.577 -0.626 0.325 -0.622 0.308 -0.699 0.356 -2.314 0.731 -1.445 -0.033 -1.891 -0.699 -0.958 -0.903 -0.741 -1.193 -0.463 -1.483 -0.054 -2.929 0.32 -2.271 0.688 -1.991 1.007 -1.38 1.107 -0.779 0.951 -0.192 0.429 0.171 0.41 0.586 0.153 1.409 -0.245 1.969 -0.636 1.531 -0.637 0.695 -1.066 0.556 -0.537 0.022 -0.911 -0.476 -0.034 -0.006 -0.03 -0.973" />
    <path class="write-flat-pen" fill="#000000" stroke-width="1.6" __comx="300.699" __comy="344.737" __timestamp="0x1761b018694" d="M298.186 342.928 l-1.395 -0.29 -0.178 -0.02 -1.135 0.105 -0.951 0.798 -0.139 1.174 0.808 1.293 1.433 0.962 6.204 2.304 1.734 0.885 0.61 0.706 0.519 1.652 -0.088 1.095 -0.518 1.013 -0.95 0.849 -1.344 0.568 -1.982 0.252 -2.169 -0.803 -0.187 -0.085 -1.197 -0.678 -0.194 0.192 0.671 1.201 0.251 0.354 2.649 1.157 2.5 -0.318 1.709 -0.724 1.291 -1.157 0.745 -1.46 0.127 -1.605 -0.676 -2.148 -0.95 -1.102 -2.027 -1.038 -6.131 -2.278 -1.079 -0.72 -0.428 -0.672 0.019 -0.231 0.268 -0.254 0.642 -0.123 0.027 -0.006 1.384 0.086" />
    <path class="write-flat-pen" fill="#000000" stroke-width="1.6" __comx="332.91" __comy="344.737" __timestamp="0x1761b0188fc" d="M332.422 355.676 l-0.007 -0.268 0.064 -0.071 0.17 -0.209 -0.014 0.069 0.039 0.084 0 0 -0.151 -0.077 0.369 0.588 1.082 -0.221 -0.028 -0.279 -0.135 -0.336 -0.397 -0.724 -0.169 0.016 -0.258 0.785 -0.086 0.201 -0.105 0.093 1.082 -0.221 -0.535 -0.71 -0.449 -0.29 0 0 -0.764 0.289 -0.23 0.324 -0.056 0.514 0.055 0.273 0.229 0.295" />
    <path class="write-flat-pen" fill="#000000" stroke-width="1.6" __comx="330.005" __comy="344.737" __timestamp="0x1761b0189bb" d="M330.43 330.31 l-0.082 -0.862 -0.054 0.181 0.085 -0.202 0.489 -0.921 -0.274 -0.292 -1.018 0.495 -0.339 0.364 -0.096 0.307 0.35 1.133" />
    <path class="write-flat-pen" fill="#000000" stroke-width="1.6" __comx="373.248" __comy="340.327" __timestamp="0x1761b01c217" d="M364.588 328.903 l0.141 -1.455 0.008 -0.127 -0.663 -0.057 -0.27 0.238 -0.135 0.302 -0.842 2.894 -0.121 0.519 -0.438 2.775 0.121 1.57 0.861 0.903 1.138 0.336 4.911 -0.042 3.882 0.425 3.677 1.098 2.057 1.009 2.371 1.614 1.308 1.553 0.443 1.538 -0.084 1.172 -0.585 1.148 -1.242 1.208 -1.761 1.102 -3.031 1.195 -4.633 0.659 0.006 1.093 0.268 -0.079 0.241 -0.079 0.677 -0.274 0.004 -0.082 -0.645 -0.343 -0.203 -0.102 -0.213 -0.136 0.006 1.093 4.798 -0.568 3.27 -1.301 1.96 -1.232 1.471 -1.441 0.776 -1.542 0.108 -1.62 -0.576 -1.975 -1.57 -1.867 -2.571 -1.756 -2.218 -1.092 -3.869 -1.173 -4.058 -0.473 -4.797 0.017 -0.634 -0.194 -0.315 -0.338 -0.078 -0.978 0.372 -2.597 0.096 -0.462 0.639 -2.883 0.034 -0.19 0.029 -0.266 -0.663 -0.057 0.049 -0.019 0.149 1.339" />
    <path class="write-flat-pen" fill="#000000" stroke-width="1.6" __comx="374.501" __comy="340.327" __timestamp="0x1761b01c335" d="M363.652 328.959 l-0.385 0 -0.256 -0.081 0 0 0 0.922 0.281 0.049 3.978 -0.022 15.139 -2.819 1.267 -0.171 1.224 -0.204 1.091 -0.186 -0.008 -0.255 -1.101 -0.113 -1.254 -0.122 -1.349 0.033 -15.128 2.672 -3.853 0.185 -0.253 0.03 0 0.922 0 0 0.25 -0.098 0.359 0" />
    <path class="write-flat-pen" fill="#000000" stroke-width="1.6" __comx="394.006" __comy="340.327" __timestamp="0x1761b01c4a7" d="M393.39 352.723 l0.792 -0.25 0.61 -0.634 -0.043 -0.074 -0.797 0.187 -0.732 0.231" />
    <path class="write-flat-pen" fill="#000000" stroke-width="1.6" __comx="412.787" __comy="340.327" __timestamp="0x1761b01c71a" d="M403.208 340.554 l-0.02 -1.499 0.145 -0.585 0.754 -2.246 1.21 -2.402 1.54 -2.061 0.992 -0.862 1.456 -0.552 1.032 0.048 0.982 0.464 1.316 1.366 0.857 1.835 0.397 2.93 -0.148 1.661 -0.859 2.607 -0.958 1.701 -2.086 2.461 -4.172 3.947 -1.698 2.145 -0.343 1.373 1.007 0.96 2.064 0.339 9.169 -1.506 3.914 -0.343 0.973 0.122 0.392 0.054 0.453 0.076 1.368 0.196 0.095 -0.231 -1.111 -0.821 -0.44 -0.291 -0.492 -0.187 -1.184 -0.239 -4.131 0.354 -9.007 1.477 -1.455 -0.23 -0.169 -0.154 0.087 -0.369 1.454 -1.867 4.123 -3.965 2.171 -2.625 1.059 -1.904 0.914 -2.851 0.147 -1.924 -0.49 -3.211 -1.034 -2.122 -1.576 -1.608 -1.33 -0.634 -1.455 -0.084 -1.833 0.707 -1.199 1.075 -1.611 2.251 -1.209 2.575 -0.64 2.396 -0.094 0.727 0.276 1.565" />
    <path class="write-flat-pen" fill="#000000" stroke-width="1.6" __comx="368.864" __comy="300.611" __timestamp="0x1761b01cea6" d="M360.547 289.508 l0.615 -0.457 -0.744 -0.081 -0.058 -0.079 -0.069 0.168 -0.026 0.152 -0.24 1.617 -0.214 0.93 -1.39 7.17 -0.423 3.731 0.256 1.31 0.881 0.688 1.455 -0.227 4.892 -3.434 1.805 -0.891 1.798 -0.504 3.741 -0.261 1.601 0.2 1.224 0.493 1.072 0.842 0.873 1.257 0.478 1.603 0.265 2.674 -0.209 1.658 -0.598 1.575 -0.964 1.452 -1.421 1.316 -1.87 1.073 -3.153 0.984 -2.632 0.217 -1.171 -0.167 -1.601 -0.673 -0.499 -0.374 -0.253 -0.24 -0.996 -0.938 -0.2 0.114 0.301 1.334 0.17 0.502 0.719 0.764 1.984 0.855 1.506 0.211 2.938 -0.243 3.442 -1.075 2.136 -1.227 1.657 -1.535 1.141 -1.718 0.71 -1.873 0.25 -1.974 -0.288 -2.961 -0.575 -1.944 -1.115 -1.614 -1.391 -1.097 -1.577 -0.638 -1.916 -0.243 -4.021 0.273 -2.063 0.574 -2.024 0.99 -4.717 3.297 -0.515 0.081 0.027 0.022 -0.113 -0.571 0.381 -3.46 1.327 -7.11 0.199 -0.99 0.115 -1.766 -0.027 -0.288 -0.146 -0.425 -0.066 -0.091 -0.744 -0.081 -0.441 0.627" />
    <path class="write-flat-pen" fill="#000000" stroke-width="1.6" __comx="368.707" __comy="300.611" __timestamp="0x1761b01cfa5" d="M359.086 288.055 l0.604 -0.39 0.069 0.01 8.249 0.224 7.522 0.748 1.089 0.138 1.013 0.004 1.215 -0.005 0.043 -0.287 -1.159 -0.363 -0.949 -0.291 -1.086 -0.285 -7.607 -0.918 -8.436 -0.073 -0.452 0.12 -0.674 0.729" />
    <path class="write-flat-pen" fill="#000000" stroke-width="1.6" __comx="392.012" __comy="300.611" __timestamp="0x1761b01d118" d="M391.042 308.681 l-0.504 0.704 0.15 0.185 0.125 0.066 1.138 0.583 -0.063 -0.045 0.243 0.384 0.079 -0.161 0.192 0.101 -0.682 0.366 0.014 0.293 0.713 0.3 0.682 0.078 0.359 -1.211 -0.704 -0.999 -0.219 -0.164 -1.415 -0.486 -0.148 -0.012 -0.187 0.047 0.228 0.704" />
    <path class="write-flat-pen" fill="#000000" stroke-width="1.6" __comx="408.461" __comy="300.611" __timestamp="0x1761b01d29d" d="M404.971 288.457 l0.919 2.621 0.289 1.154 2.347 14.039 1.677 6.981 0.486 1.451 0.541 1.108 0.481 0.963 0.238 -0.076 -0.17 -1.063 -0.197 -1.191 -0.276 -1.461 -1.5 -6.966 -2.427 -14.051 -0.375 -1.257 -1.122 -2.607" />
    <path class="write-flat-pen" fill="#000000" stroke-width="1.6" __comx="359.662" __comy="262.26" __timestamp="0x1761b01de90" d="M361.789 274.725 l-0.133 0.65 0.675 0.196 0.145 -0.143 0.217 -0.733 0.012 -0.3 -0.282 -1.918 -0.109 -0.408 -0.937 -3.791 -2.016 -12.07 -0.567 -5.766 -0.515 -1.814 -1.072 -0.569 -1.058 0.533 -0.541 1.056 -0.363 2.612 -0.646 2.022 -1.518 2.946 -1.731 2.509 -2.289 2.435 -0.136 0.59 0 0 0.561 0.873 0.874 0.183 6.544 -1.209 6.035 -0.279 2.954 0.31 2.437 0.699 0.394 0.076 1.486 0.255 0.194 -0.477 -1.243 -0.853 -0.386 -0.242 -2.588 -0.869 -3.202 -0.353 -6.248 0.276 -6.361 1.183 -0.594 -0.122 0.561 0.873 0 0 0.046 -0.208 2.088 -2.233 1.84 -2.677 1.613 -3.135 0.719 -2.254 0.346 -2.494 0.217 -0.423 -0.02 0.01 -0.118 -0.065 0.321 1.102 0.577 5.684 2.079 12.165 1.022 3.849 0.116 0.368 0.434 1.74 0.024 0.119 0.039 0.505 0.027 0.047 0.675 0.196 -0.119 -0.653" />
    <path class="write-flat-pen" fill="#000000" stroke-width="1.6" __comx="380.635" __comy="262.26" __timestamp="0x1761b01dfd1" d="M379.094 270.737 l0.141 1.936 0.181 0.447 1.167 1.957 1.302 0.912 0.29 -0.239 -0.593 -1.384 -1.123 -1.797 -0.115 -0.206 -0.31 -1.739" />
    <path class="write-flat-pen" fill="#000000" stroke-width="1.6" __comx="397.204" __comy="262.26" __timestamp="0x1761b01e227" d="M394.438 253.627 l-0.294 -0.764 -0.23 -0.326 -1.09 -0.759 -0.58 -0.018 -1.292 0.448 -1.392 1.343 -0.772 1.333 -0.571 2.097 0.052 2.059 0.596 1.354 1.075 1.267 2.543 1.506 3.213 1 5.665 1.11 2.713 0.823 0.491 0.367 0.178 0.39 -0.115 0.43 -0.666 0.747 -1.206 0.753 -3.424 1.105 -2.568 0.279 -1.685 -0.218 -1.901 -1.116 -0.22 -0.2 -0.441 -0.373 -1.09 -0.861 -0.228 0.181 0.592 1.256 0.266 0.517 0.281 0.421 2.255 1.518 2.156 0.284 2.878 -0.312 3.724 -1.208 1.519 -0.957 1.012 -1.15 0.314 -1.227 -0.532 -1.15 -0.963 -0.717 -3.009 -0.911 -5.661 -1.105 -2.99 -0.93 -2.212 -1.306 -0.801 -0.942 -0.41 -0.929 -0.046 -1.595 0.464 -1.743 0.583 -1.035 1.039 -1.058 0.807 -0.344 0.045 -0.017 0.789 0.337 0.119 0.076 0.409 0.587" />
    <path class="write-flat-pen" fill="#000000" stroke-width="1.6" __comx="398.997" __comy="262.26" __timestamp="0x1761b01e2e6" d="M387.963 253.602 l1.58 -0.928 4.084 -1.07 13.035 -1.529 1.491 -0.316 1.337 -0.268 1.088 -0.217 -0.022 -0.368 -1.106 -0.084 -1.409 -0.102 -1.54 0.163 -13.113 1.487 -4.297 1.267 -1.671 1.083" />
    <path class="write-flat-pen" fill="#000000" stroke-width="1.6" __comx="420.309" __comy="262.26" __timestamp="0x1761b01e4fc" d="M417.351 254.338 l0.251 3.456 0.269 1.274 2.841 10.135 0.362 1.233 1.043 3.179 0.856 0.939 0.293 -0.123 -0.05 -1.219 -0.952 -3.139 -0.36 -1.219 -3.02 -10.052 -0.306 -1.174 -0.468 -3.371" />
    <path class="write-flat-pen" fill="#000000" stroke-width="1.6" __comx="425.334" __comy="262.26" __timestamp="0x1761b01e73d" d="M417.231 254.518 l-0.353 -0.521 0.249 -0.491 1.374 -1.25 2.95 -1.859 3.224 -1.38 2.459 -0.353 1.324 0.109 1.004 0.442 0.784 0.752 0.488 1.267 0.153 1.671 -0.359 1.702 -1.034 2.447 -0.789 1.168 -1.489 1.156 -1.692 0.714 0 0 -1.529 0.302 0 0 -0.237 -0.092 0 0 -0.191 1.227 1.935 -0.118 2.136 0.322 2.801 1.042 1.671 1.05 0.813 0.916 0.477 1.189 0.185 1.409 -0.265 1.587 -0.637 1.526 -0.835 1.178 -1.154 0.921 -1.556 0.626 -3.095 0.383 -2.29 -0.441 -2.107 -0.846 -1.378 -0.882 -0.984 -0.948 -1.101 -0.878 -0.31 0.209 0.455 1.43 1.06 1.237 1.62 1.058 2.352 0.947 2.635 0.507 3.489 -0.437 1.907 -0.776 1.453 -1.178 1.014 -1.469 0.719 -1.815 0.288 -1.922 -0.236 -1.746 -0.612 -1.542 -1.078 -1.22 -1.936 -1.214 -3.046 -1.134 -2.399 -0.362 -2.069 0.126 -0.191 1.227 0 0 0.581 0.225 0 0 2.019 -0.404 0 0 1.961 -0.838 1.768 -1.389 0.959 -1.438 1.111 -2.672 0.414 -1.996 -0.189 -2.019 -0.648 -1.674 -1.134 -1.084 -1.384 -0.608 -1.661 -0.136 -2.751 0.398 -3.453 1.493 -3.105 2 -1.585 1.555 -0.401 1.273 0.761 0.88" />
    <path class="write-flat-pen" fill="#000000" stroke-width="1.6" __comx="108.883" __comy="425.578" __timestamp="0x1761b183d7f" d="M107.652 421.245 l1.027 0.585 0.055 0.072 0.38 0.649 -0.084 0.193 -0.579 0.423 -0.526 0.078 0.024 0.002 -0.019 -0.178 0.597 -1.257 0.679 -0.597 0.221 -0.048 0.097 0.053 0.265 0.638 0.051 1.219 -0.096 0.239 0.238 -0.09 -0.137 -0.135 -0.077 -0.093 -0.162 -1.094 -0.391 -0.06 -0.482 0.996 -0.175 0.548 0.926 1.404 1.257 -0.462 0.396 -1.044 -0.088 -1.714 -0.534 -1.257 -0.901 -0.48 -0.993 0.212 -1.129 0.983 -0.863 1.847 0.169 1.068 0.846 0.599 1.319 -0.298 1.045 -0.898 0.186 -1.015 -0.801 -1.019 -0.251 -0.203 -1.25 -0.412" />
    <path class="write-flat-pen" fill="#000000" stroke-width="1.6" __comx="151.272" __comy="425.578" __timestamp="0x1761b184092" d="M142.302 410.609 l0.389 -0.282 -0.011 0.044 0.609 1.821 0.462 4.239 0.439 9.441 0.015 7.47 0.43 -0.412 -0.138 -0.155 -0.541 -1.716 -0.517 -4.107 -0.004 -11.966 -0.444 -5.214 -0.657 -2.377 -0.849 -1.52 -0.971 -0.69 0 0 -1.274 -0.042 0 0 -0.398 0.663 0 0 0.522 1.086 0.845 0.12 6.279 -1.693 4.121 -0.525 4.429 0.081 5.096 1.34 1.066 0.371 1.147 0.325 1.184 0.331 0.171 -0.385 -1.039 -0.658 -1.021 -0.639 -1.097 -0.534 -5.303 -1.541 -4.707 -0.12 -4.326 0.532 -6.091 1.637 -0.553 -0.075 0.522 1.086 0 0 -0.041 0.063 0 0 -0.004 -0.004 0 0 0.362 0.249 0.619 1.085 0.587 2.084 0.436 5.024 0.011 11.993 0.552 4.318 0.694 2.152 1.304 1.267 0.918 -0.863 -0.089 -8.078 -0.524 -9.503 -0.548 -4.402 -0.916 -2.236 -0.859 -0.402 -0.797 0.691" />
    <path class="write-flat-pen" fill="#000000" stroke-width="1.6" __comx="151.998" __comy="425.578" __timestamp="0x1761b1841e6" d="M143.639 418.428 l-0.541 0.595 0.133 0.719 0.775 0.545 0.744 0.153 2.915 0.101 7.89 -1.252 3.336 -0.174 0.333 0.051 0.227 0.051 1.288 0.328 0.16 -0.296 -0.977 -0.9 -0.266 -0.216 -0.607 -0.235 -3.622 0.084 -7.855 1.261 -2.715 0.012 -0.463 -0.047 -0.678 -0.3 0.133 0.719 0.468 -0.653" />
    <path class="write-flat-pen" fill="#000000" stroke-width="1.6" __comx="151.922" __comy="425.578" __timestamp="0x1761b184302" d="M141.023 433.159 l1.291 0.112 0.45 0.031 2.831 0.087 0.884 0.012 4.994 -0.064 7.555 -0.762 0.563 -0.06 1.327 0.189 0.601 0.003 1.252 -0.012 0.048 -0.267 -1.169 -0.45 -0.544 -0.204 -1.407 -0.432 -0.755 -0.012 -7.549 0.664 -4.93 0.115 -0.873 0.012 -2.831 0.087 -0.45 0.031 -1.291 0.112" />
    <path class="write-flat-pen" fill="#000000" stroke-width="1.6" __comx="175.678" __comy="425.578" __timestamp="0x1761b184491" d="M167.64 418.618 l0.351 -1.511 -0.086 0.157 0.197 0.132 0.132 0.153 0.699 1.111 4.928 12.589 1.253 2.349 1.073 1.141 1.213 0.157 0.893 -1.236 2.433 -11.047 1.073 -3.566 1.66 -3.007 0.082 -0.115 0.038 -0.057 0.774 -1.159 -0.215 -0.278 -1.316 0.457 -0.094 0.045 -0.326 0.24 -1.941 3.299 -1.138 3.776 -2.353 10.821 -0.225 0.315 0.126 0.016 -0.597 -0.636 -1.13 -2.111 -5.047 -12.61 -0.942 -1.313 -0.55 -0.439 -1.073 -0.046 -0.366 0.471 -0.161 1.802" />
    <path class="write-flat-pen" fill="#000000" stroke-width="1.6" __comx="191.769" __comy="425.578" __timestamp="0x1761b184694" d="M192.904 425.358 l1.636 -0.31 0.329 -0.406 0.359 -1.06 -0.427 -1.462 -1.139 -1.382 -1.378 -0.849 -1.905 -0.63 -2.067 -0.175 -1.896 0.432 -1.478 0.991 -0.968 1.527 -0.491 1.954 -0.102 2.17 0.491 2.269 1.152 2.557 1.361 1.588 1.625 0.739 1.354 0.011 1.346 -0.688 1.076 -1.18 1.462 -2.735 0.631 -0.702 0.477 -0.095 0.483 0.243 0.681 0.841 2.777 5.538 0.558 0.166 1.164 0.156 0.151 -0.305 -0.829 -0.831 -0.08 -0.149 -2.584 -5.315 -0.959 -1.188 -1.165 -0.589 -1.386 0.274 -1.046 1.166 -1.453 2.737 -0.794 0.876 -0.831 0.43 -0.738 -0.001 -1.098 -0.493 -1.05 -1.214 -1.027 -2.252 -0.435 -1.965 0.078 -1.871 0.403 -1.628 0.71 -1.124 1.054 -0.711 1.47 -0.339 1.723 0.139 1.633 0.524 1.101 0.648 0.913 1.015 0.358 0.909 -0.107 0.625 -0.003 0.052 -1.278 0.451" />
    <path class="write-flat-pen" fill="#000000" stroke-width="1.6" __comx="203.202" __comy="425.578" __timestamp="0x1761b18476a" d="M199.879 408.757 l1.24 3.931 0.249 1.262 1.067 7.774 1.841 8.589 0.872 2.356 1.053 1.027 0.325 -0.179 -0.255 -1.345 -0.697 -2.218 -1.811 -8.466 -1.176 -7.755 -0.314 -1.36 -1.414 -3.944" />
    <path class="write-flat-pen" fill="#000000" stroke-width="1.6" __comx="218.521" __comy="425.578" __timestamp="0x1761b184950" d="M209.211 421.571 l-0.21 1.531 0.034 0.721 0.739 8.318 0.265 1.051 0.884 2.28 1.08 1.384 1.747 0.684 1.612 -0.557 1.275 -1.248 1.436 -2.304 0.993 -2.784 0.849 -4.417 0.211 -3.025 -0.235 -1.217 -0.728 -0.961 -1.052 -0.242 -0.867 0.838 -0.449 2.181 0.216 2.11 0.953 3.385 1.391 3.002 1.822 2.341 1.376 1.148 1.586 0.765 2.487 -0.021 0.456 -0.399 0.32 -0.477 0.64 -1.089 -0.177 -0.183 -1.108 0.606 -0.431 0.25 -0.106 0.016 -1.746 -0.099 -1.149 -0.562 -1.127 -0.94 -1.627 -2.096 -1.275 -2.754 -0.893 -3.158 -0.182 -1.772 0.319 -1.539 0.002 -0.001 -0.195 -0.045 0.22 0.289 0.138 0.712 -0.186 2.756 -0.807 4.23 -0.902 2.543 -1.265 2.037 -0.93 0.917 -0.835 0.294 -0.926 -0.356 -0.733 -0.926 -0.801 -2.01 -0.231 -0.87 -0.898 -8.179 -0.052 -0.625 -0.005 -1.471" />
    <path class="write-flat-pen" fill="#000000" stroke-width="1.6" __comx="231.563" __comy="425.578" __timestamp="0x1761b184b2f" d="M232.273 425.735 l0.439 -0.909 0.131 -0.222 0.528 -1.202 -0.316 -1.038 -0.969 -0.604 -1.481 -0.227 -1.679 0.394 -1.336 0.833 -0.985 1.318 -0.682 1.927 -0.241 2.15 0.158 2.121 0.846 2.631 0.794 1.41 1.034 0.976 1.243 0.527 1.502 -0.086 1.343 -0.839 1.038 -1.325 0 0 1.484 -5.335 0 0 0.338 -0.502 0 0 -1.238 -0.124 0.308 0.734 0.447 6.079 0.707 2.222 0.529 0.197 1.107 0.136 0.122 -0.209 -0.667 -0.895 0.017 -0.101 -0.427 -1.604 -0.445 -6.156 -0.392 -0.947 -1.238 -0.124 0 0 -0.468 0.692 0 0 -1.466 5.288 0 0 -0.71 0.91 -0.827 0.518 -0.815 0.047 -0.708 -0.3 -0.695 -0.656 -0.62 -1.101 -0.754 -2.336 -0.14 -1.824 0.203 -1.862 0.553 -1.581 0.699 -0.948 0.921 -0.586 1.203 -0.295 0.957 0.133 0.333 0.191 0.058 0.125 -0.258 0.764 -0.1 0.248 -0.291 1.024" />
    <path class="write-flat-pen" fill="#000000" stroke-width="1.6" __comx="246.4" __comy="425.578" __timestamp="0x1761b184c36" d="M240.935 412.246 l0.88 1.221 0.191 0.593 4.072 10.359 0.663 1.957 3.807 11.95 0.544 -0.888 0.14 0.051 -0.214 0.043 -0.759 -0.178 -0.158 0.206 0.367 0.688 0.439 0.546 0.415 0.005 0.544 -0.888 -3.737 -11.99 -0.688 -2.006 -4.196 -10.329 -0.304 -0.758 -1.147 -1.278" />
    <path class="write-flat-pen" fill="#000000" stroke-width="1.6" __comx="243.639" __comy="425.578" __timestamp="0x1761b184ce2" d="M237.565 423.257 l-0.619 1.041 0.171 0.183 0.402 0.052 10.202 -0.345 1.389 -0.219 1.223 -0.196 -0.012 -0.522 -1.231 -0.141 -1.404 -0.157 -10.15 0.339 -0.111 0.021 -0.037 0.081 0.368 0.85" />
    <path class="write-flat-pen" fill="#000000" stroke-width="1.6" __comx="261.959" __comy="425.578" __timestamp="0x1761b184ecd" d="M261.008 426.891 l0.223 3.116 0.071 0.729 0.58 5.624 0.38 0.618 0.322 -0.014 0.325 -0.673 -0.454 -5.678 -0.107 -0.733 -0.43 -3.085" />
    <path class="write-flat-pen" fill="#000000" stroke-width="1.6" __comx="263.398" __comy="425.578" __timestamp="0x1761b184f61" d="M263.727 415.894 l-1.502 1.92 0.166 1.236 0.145 0.335 0.512 1.032 0.141 -0.029 0.066 -1.15 0.017 -0.293 0.092 -0.769 1.205 -1.64" />
    <path class="write-flat-pen" fill="#000000" stroke-width="1.6" __comx="271.767" __comy="425.578" __timestamp="0x1761b1850ca" d="M276.18 424.432 l-2.03 -1.798 -0.584 -0.411 -1.826 -0.7 -2.381 -0.12 -1.569 0.637 -1.216 1.201 -0.648 1.766 -0.268 2.415 0.394 2.523 0.776 2.114 1.1 1.803 1.296 1.313 1.528 0.707 1.812 0.163 1.81 -0.586 1.58 -1.081 1.156 -1.401 0.564 -1.562 0.202 -2.675 -0.548 -1.766 -1.052 -1.415 -1.41 -0.985 -1.72 -0.565 -1.149 0.28 -0.417 0.546 -0.065 0.626 0.174 0.475 0.46 0.961 0.273 -0.035 0.205 -1.045 0.075 -0.307 0.085 -0.083 -0.047 0.109 0.32 -0.029 1.142 0.385 1.041 0.729 0.763 1.025 0.393 1.263 -0.162 2.201 -0.407 1.141 -0.862 1.054 -1.237 0.857 -1.335 0.444 -1.284 -0.098 -1.087 -0.484 -1.015 -1.012 -0.956 -1.548 -0.695 -1.861 -0.359 -2.214 0.218 -2.08 0.486 -1.341 0.819 -0.813 1.058 -0.431 1.89 0.095 1.508 0.546 0.424 0.267 2.09 1.628" />
    <path class="write-flat-pen" fill="#000000" stroke-width="1.6" __comx="286.653" __comy="425.578" __timestamp="0x1761b185241" d="M279.758 425.704 l0.967 1.475 0.16 0.415 0.885 2.722 0.286 0.768 1.333 3.997 0 0 0.608 0.407 0 0 1.142 -0.541 0.517 -4.849 0.549 -2.333 0.872 -1.784 1.062 -1.277 0.891 -0.522 0.405 0.001 0.491 0.32 0.574 0.977 0.967 5.025 0.726 5.271 0.953 0.27 0.301 -0.507 0.101 -0.683 -0.38 -0.307 -0.646 0.243 0.155 -0.327 0.82 0.227 -0.555 -4.425 -1.023 -5.32 -0.88 -1.501 -1.154 -0.756 -1.256 -0.005 -1.47 0.86 -1.345 1.618 -1.024 2.097 -0.608 2.588 -0.513 4.945 1.142 -0.541 0 0 -0.195 -0.12 0 0 -1.237 -3.529 -0.308 -0.766 -1.021 -2.707 -0.278 -0.561 -1.199 -1.464" />
    <path class="write-flat-pen" fill="#000000" stroke-width="1.6" __comx="301.252" __comy="425.578" __timestamp="0x1761b18539a" d="M303.144 423.161 l0.698 -1.011 0.125 -0.3 -0.313 -0.998 -0.444 -0.34 -1.6 -0.487 -2.279 -0.038 -0.875 1.084 0.155 1.161 0.864 1.519 4.037 4.172 1.126 1.511 0.584 1.931 -0.097 0.826 -0.602 0.872 -1.272 0.816 -2.796 0.636 -2.566 0.249 -0.491 0.251 -0.462 0.244 -1.138 0.641 0.081 0.309 1.306 0.001 0.59 -0.031 0.411 -0.1 2.482 -0.128 3.154 -0.705 1.735 -1.114 0.974 -1.412 0.173 -1.488 -0.745 -2.465 -1.334 -1.792 -3.972 -4.108 -0.63 -1.111 -0.033 -0.256 0.033 -0.042 1.377 0.009 1.198 0.304 -0.055 -0.057 0.142 0.14 0.091 -0.214 -0.474 1.039" />
    <path class="write-flat-pen" fill="#000000" stroke-width="1.6" __comx="173.61" __comy="503.094" __timestamp="0x1761b18568b" d="M171.714 503.673 l1.28 -1.395 0.288 -0.278 0.537 -0.28 0.16 0.1 -0.02 0.08 -0.143 0.177 -0.737 0.289 0.031 -0.01 0.011 -0.031 0.395 -0.58 0.728 -0.494 0.348 -0.056 -0.25 -0.431 -0.452 0.58 0.334 0.72 0.772 -0.279 0.008 -0.184 0.781 -0.616 -0.584 -1.05 -1.388 0.249 -1.11 0.749 -0.711 1.063 0.045 1.197 1.124 0.294 1.346 -0.638 0.444 -0.824 -0.288 -0.864 -0.935 -0.258 -0.875 0.566 -0.338 0.396 -1.081 1.584" />
    <path class="write-flat-pen" fill="#000000" stroke-width="1.6" __comx="206.735" __comy="503.094" __timestamp="0x1761b1859ce" d="M196.119 488.054 l0.397 -1.353 0.054 -0.187 0.595 -0.813 0 0 -0.701 0.116 -0.059 -0.02 -0.13 1.271 -2.384 8.044 -1.189 5.393 -0.41 6.592 0.391 2.776 0.965 2.029 1.316 1.256 1.796 0.556 2.245 -0.511 1.28 -0.778 2.595 -2.421 2.47 -2.976 3.165 -4.526 2.555 -4.885 2.434 -5.65 0.559 -2.257 0.314 -3.266 -0.284 -1.614 -0.655 -0.984 -1.282 0.011 -0.517 1.641 -0.222 3.962 0.351 3.83 1.377 7.033 1.58 5.025 2.167 3.808 0.934 0.909 1.114 0.728 1.116 0.364 1.041 0.323 0.082 -0.169 -0.896 -0.621 -0.896 -0.616 -0.847 -0.794 -0.691 -0.822 -1.946 -3.613 -1.482 -4.843 -1.316 -6.904 -0.345 -3.665 0.187 -3.697 0.182 -0.558 -0.402 0.005 0.104 0.154 0.213 1.161 -0.278 2.989 -0.514 2.058 -2.343 5.521 -2.473 4.781 -3.085 4.418 -2.387 2.875 -2.43 2.299 -0.995 0.616 -1.727 0.39 -1.2 -0.382 -0.934 -0.903 -0.779 -1.652 -0.347 -2.462 0.371 -6.373 1.132 -5.268 2.286 -8.156 0.047 -1.852 -0.311 -0.25 -0.701 0.116 0 0 -0.428 1.04 -0.016 0.298 -0.138 1.388" />
    <path class="write-flat-pen" fill="#000000" stroke-width="1.6" __comx="247.968" __comy="503.094" __timestamp="0x1761b185c71" d="M250.814 491.166 l0.862 -2.019 0.127 -0.233 0.437 -1.061 0.077 -0.555 -0.778 -1.799 -0.565 -0.338 -1.319 -0.417 -1.882 0.006 -3.628 1.015 -2.645 1.356 -2.394 2.036 -1.76 2.513 -0.636 1.462 -0.462 3.407 0.338 3.598 1.215 3.627 1.895 3.689 2.508 3.53 2.731 2.816 1.402 0.979 2.732 0.809 1.492 0.035 1.633 -0.469 2.785 -1.563 2.251 -1.982 1.489 -1.858 0.807 -1.655 0.164 -2.671 -0.321 -0.644 -0.468 -0.501 -0.589 -0.289 -1.089 -0.459 -0.094 0.123 0.733 0.926 0.323 0.404 0.174 0.369 0.062 0.27 -0.246 2.099 -0.629 1.288 -1.312 1.655 -2.045 1.821 -2.518 1.43 -1.287 0.376 -1.112 -0.02 -2.354 -0.704 -1.123 -0.783 -2.583 -2.643 -2.4 -3.367 -1.8 -3.519 -1.13 -3.391 -0.305 -3.297 0.418 -3.076 0.51 -1.173 1.581 -2.274 2.138 -1.85 2.388 -1.252 3.337 -0.97 1.535 -0.024 1.031 0.286 0.164 0.077 0.697 1.167 0.015 0.21 -0.2 1.001 -0.073 0.24 -0.611 2.127" />
    <path class="write-flat-pen" fill="#000000" stroke-width="1.6" __comx="255.467" __comy="503.094" __timestamp="0x1761b185e0b" d="M246.114 499.478 l0.54 -0.807 0.145 -0.051 1.266 -0.261 0.45 -0.026 3.7 -0.026 0.99 0.008 4.883 0.132 3.413 0.402 1.498 0.416 -0.082 -0.093 -0.86 1.016 -0.424 1.052 0.322 2.281 1.082 2.308 0.373 0.494 0.432 0.391 1.054 0.895 0.187 -0.145 -0.6 -1.246 -0.239 -0.477 -0.209 -0.438 -0.851 -2.129 -0.241 -1.772 0.224 -0.538 1.472 -1.7 -0.918 -1.051 -1.977 -0.532 -3.575 -0.375 -4.956 -0.037 -1.019 0.02 -3.747 0.226 -0.555 0.091 -1.366 0.516 -0.324 0.252 -0.349 1.08" />
    <path class="write-flat-pen" fill="#000000" stroke-width="1.6" __comx="285.699" __comy="503.094" __timestamp="0x1761b1860fb" d="M270.768 515.647 l-0.235 1.422 0.705 1.115 0.675 0.104 1.987 -1.084 0.876 -0.922 1.638 -2.462 1.457 -3.277 4.9 -14.545 1.553 -5.608 0.631 -3.791 -0.069 -2.646 -0.705 -1.254 -1.382 -0.071 -0.542 1.876 0.268 2.115 1.441 4.313 4.908 12.429 2.913 6.186 2.845 4.955 1.715 2.264 2.108 1.952 1.382 0.446 0.46 -0.404 0.57 -0.756 -0.178 -0.293 -0.933 0.158 -0.052 -0.092 -0.515 -0.254 -1.817 -1.686 -1.589 -2.096 -2.756 -4.84 -2.872 -6.095 -4.908 -12.341 -1.378 -4.152 -0.214 -1.7 0.162 -0.558 -0.461 -0.024 0.168 0.297 0.06 2.175 -0.58 3.596 -1.502 5.51 -4.799 14.483 -1.339 3.163 -1.461 2.352 -0.673 0.779 -1.51 1.043 -0.078 0.03 -0.57 -0.544 0.042 -1.234" />
    <path class="write-flat-pen" fill="#000000" stroke-width="1.6" __comx="283.527" __comy="503.094" __timestamp="0x1761b1861ae" d="M274.449 504.434 l3.562 -0.107 1.074 0.035 10.775 0.2 1.795 -0.202 1.001 -0.11 0 -0.351 -1 -0.112 -1.783 -0.206 -10.765 -0.337 -1.12 -0.001 -3.59 0.319" />
    <path class="write-flat-pen" fill="#000000" stroke-width="1.6" __comx="343.329" __comy="503.094" __timestamp="0x1761b1863dc" d="M335.663 506.289 l0.256 -1.545 -0.334 0.144 0.545 0.576 1.125 2.338 2.58 6.795 1.394 2.778 1.131 0.861 1.64 -0.652 1.591 -2.249 1.522 -3.215 3.156 -8.805 1.243 -5.985 -0.024 -0.039 -0.062 -0.088 -0.692 -0.486 0.012 0.025 -0.077 0.419 0.675 0.232 0.197 -0.377 0.025 -0.012 -0.692 -0.486 -0.454 0.227 -0.05 0.429 -1.369 5.774 -3.103 8.669 -1.436 3.061 -1.297 1.854 -0.618 0.265 -0.342 -0.244 -1.27 -2.449 -2.654 -6.761 -1.343 -2.509 -1.165 -0.922 -0.612 0.242 -0.069 2.083" />
    <path class="write-flat-pen" fill="#000000" stroke-width="1.6" __comx="355.354" __comy="503.094" __timestamp="0x1761b18659a" d="M358.424 505 l1.048 -1.518 0.668 -1.882 -0.077 -1.15 -0.587 -0.724 -1.966 -0.627 -2.282 0.21 -1.635 0.822 -0.851 1.187 -0.296 1.09 0.174 1.294 0.875 1.627 1.519 1.151 3.797 1.183 0.874 0.656 0.38 0.771 0.203 1.25 -0.248 1.537 -1.033 2.538 -1.442 2.215 -1.042 0.966 -1.139 0.607 -1.367 0.216 -1.483 -0.311 -1.154 -0.628 -0.881 -0.98 -0.195 -0.274 -0.763 -1.137 -0.316 0.118 0.173 1.359 0.097 0.506 1.041 1.413 1.542 0.856 1.908 0.396 1.816 -0.292 1.477 -0.791 1.278 -1.193 1.583 -2.459 1.108 -2.794 0.279 -1.881 -0.309 -1.624 -0.63 -1.15 -1.263 -0.882 -3.796 -1.156 -1.186 -0.893 -0.675 -1.251 -0.122 -0.889 0.188 -0.701 0.585 -0.829 1.226 -0.636 1.891 -0.209 1.537 0.428 0.268 0.28 0.108 0.709 -0.431 1.695 -0.899 1.51" />
    <path class="write-flat-pen" fill="#000000" stroke-width="1.6" __comx="416.355" __comy="511.465" __timestamp="0x1761b1869d7" d="M400.865 523.378 l3.804 12.703 0.386 1.324 0.63 1.968 0 0 0.381 0.369 0 0 0.576 -0.144 0.49 -1.182 0.179 -5.432 -0.351 -4.51 -1.143 -7.289 -1.238 -4.723 -3.535 -8.234 -0.799 -2.743 -0.215 -1.844 0.2 -0.615 0.595 -0.631 1.267 -0.678 1.939 -0.456 4.026 -0.345 4.147 0.199 2.4 0.554 1.839 0.766 1.245 0.918 0.779 1.274 0.331 1.744 -0.227 1.843 -0.935 1.945 -1.35 1.562 -1.572 1.071 -2 0.637 -2.956 0.268 -1.588 -0.241 -0.145 -0.098 0.015 -0.048 1.124 -0.461 6.989 -0.617 3.73 -0.651 3.207 -0.928 2.399 -1.236 1.594 -1.415 0.742 -1.728 0.025 -1.671 -0.574 -1.183 -1.473 -1.255 -1.766 -0.474 -1.152 0.328 -0.801 0.906 -0.44 1.556 0.125 2.074 1.169 3.267 1.861 3.031 1.421 1.493 1.453 0.854 1.528 0.339 1.664 -0.307 1.921 -1.543 0.371 -0.563 0.15 -0.371 0.452 -1.243 -0.153 -0.098 -0.94 0.931 -0.249 0.251 -0.356 0.348 -1.686 1.179 -1.157 0.22 -1.12 -0.238 -1.163 -0.67 -1.245 -1.275 -1.758 -2.819 -1.088 -3.009 -0.114 -1.735 0.321 -1.141 0.43 -0.478 0.557 -0.149 1.23 0.343 1.105 0.946 0.36 0.736 -0.009 1.192 -0.547 1.314 -1.297 1.188 -2.176 1.162 -3.049 0.921 -3.629 0.665 -7.091 0.603 -1.598 0.627 -0.615 1.115 1.032 0.797 1.973 0.293 3.187 -0.308 2.242 -0.723 1.788 -1.24 1.512 -1.759 1.07 -2.202 0.273 -2.157 -0.388 -2.077 -0.972 -1.6 -1.499 -1.11 -2.027 -0.85 -2.567 -0.612 -4.31 -0.244 -4.179 0.342 -2.156 0.505 -1.548 0.834 -0.876 0.945 -0.332 1.071 0.291 2.155 0.883 2.867 3.598 8.196 1.247 4.605 1.173 7.206 0.344 4.433 -0.152 5.254 -0.368 1.085 0.576 -0.144 0 0 -0.281 -0.21 0 0 -0.639 -1.766 -0.424 -1.305 -4.108 -12.609" />
    <path class="write-flat-pen" fill="#000000" stroke-width="1.6" __comx="438.249" __comy="511.465" __timestamp="0x1761b186af3" d="M436.058 511.736 l1.077 0.986 0.437 0.15 0.947 -0.289 0.59 -1.301 -0.075 -1.484 -0.822 -2.457 -2.127 -4.251 -0.535 -1.591 0.043 -0.149 0.308 -0.212 0.893 -0.064 1.427 0.34 0.862 0.261 0.941 0.296 0.955 0.234 1.199 0.284 0.088 -0.22 -1.064 -0.622 -0.853 -0.489 -0.899 -0.441 -0.884 -0.378 -1.639 -0.507 -1.449 0.069 -0.972 0.67 -0.27 0.961 0.696 2.041 2.159 4.241 0.79 2.218 0.107 1.071 -0.221 0.708 -0.233 0.158 -0.035 0.018 -1.125 -0.671" />
    <path class="write-flat-pen" fill="#000000" stroke-width="1.6" __comx="449.208" __comy="511.465" __timestamp="0x1761b186c94" d="M448.28 504.039 l-0.424 -1.213 -0.176 -0.358 -0.662 -0.761 -1.229 -0.503 -1.53 -0.101 -1.009 0.38 -0.661 0.847 0.238 1.158 0.954 0.995 1.998 1.249 4.825 2.204 2.458 1.43 0.769 0.776 0.645 1.678 0.094 1.203 -0.378 1.203 -0.834 1.17 -1.134 0.87 -1.417 0.449 -2.225 0.19 -0.946 -0.171 -1.031 -0.598 -0.292 -0.498 0.097 -0.475 0.133 -0.179 0.387 -0.391 0.814 -0.86 -0.097 -0.152 -1.121 0.379 -0.546 0.207 -0.492 0.286 -0.603 1.278 0.75 1.361 1.54 0.897 1.347 0.243 2.546 -0.22 1.774 -0.572 1.462 -1.142 1.046 -1.508 0.481 -1.638 -0.161 -1.615 -0.824 -2.058 -1.057 -1.056 -2.651 -1.522 -4.822 -2.171 -1.823 -1.126 -0.638 -0.658 -0.074 -0.341 0.153 -0.201 0.498 -0.194 1.131 0.051 0.884 0.307 0.5 0.45 0.146 0.201 0.622 1.077" />
    <path class="write-flat-pen" fill="#000000" stroke-width="1.6" __comx="462.186" __comy="511.465" __timestamp="0x1761b186df2" d="M463.338 507.048 l-0.194 -1.549 -0.23 -0.499 -0.958 -1.114 -1.998 -0.664 -1.509 0.102 -1.336 0.556 -1.063 1.024 -0.813 1.671 -0.451 3.276 0.273 2.445 0.854 2.217 1.371 1.975 1.669 1.451 2.105 0.662 2.332 -0.028 2.325 -0.79 1.902 -1.273 1.269 -1.696 0.567 -2.348 0.131 -2.494 -0.44 -2.219 -1.068 -1.692 -1.869 -1.295 -3.923 -0.869 -0.729 -0.008 -0.505 0.055 -0.471 0.252 -1.103 0.682 0.097 0.306 1.294 -0.077 0.374 -0.016 0.291 0.034 0.558 0.069 3.517 0.907 1.399 0.981 0.767 1.217 0.354 1.778 -0.109 2.182 -0.46 1.934 -0.943 1.266 -1.54 1.037 -1.931 0.663 -1.882 0.031 -1.614 -0.499 -1.323 -1.14 -1.186 -1.69 -0.739 -1.894 -0.243 -2.1 0.388 -2.895 0.613 -1.262 0.708 -0.681 0.897 -0.374 1.032 -0.077 1.447 0.434 0.703 0.673 0.124 0.183 0.33 1.352" />
    <path class="write-flat-pen" fill="#000000" stroke-width="1.6" __comx="477.793" __comy="511.465" __timestamp="0x1761b186fae" d="M469.965 503.748 l0.388 2.004 0.069 0.612 0.372 5.152 0.063 1.064 0 0 0.193 7.498 0 0 0.305 0.989 0 0 1.182 0.289 0.52 -0.518 2.086 -6.217 1.321 -2.722 1.009 -1.354 1.868 -1.651 1.34 -0.758 0.36 -0.011 0.182 0.151 0.52 1.564 0.381 7.936 0.496 2.248 1.267 1.423 0.716 -0.148 1.02 -0.392 -0.017 -0.363 -1.052 -0.296 -0.089 -0.11 -0.541 -0.752 -0.396 -1.797 -0.377 -8.011 -0.706 -2.133 -0.904 -0.756 -1.251 0.035 -1.775 1.005 -2.094 1.843 -1.181 1.581 -1.414 2.928 -2.014 5.985 -0.281 0.286 1.182 0.289 0 0 -0.255 -0.802 0 0 -0.266 -7.327 0 0 -0.083 -1.101 -0.54 -5.189 -0.133 -0.689 -0.597 -2.003" />
    <path class="write-flat-pen" fill="#000000" stroke-width="1.6" __comx="493.31" __comy="511.465" __timestamp="0x1761b187157" d="M498.458 509.246 l-0.079 -1.577 -0.115 -0.411 -1.186 -1.435 -0.632 -0.329 -2.413 -0.456 -2.292 0.088 -2.017 0.59 -1.502 0.985 -1.09 1.48 -0.536 2.021 -0.035 3.162 0.529 1.932 0.824 1.554 1.167 1.146 1.484 0.583 1.67 -0.03 1.517 -0.828 1.179 -1.322 1.986 -4.499 0.343 -0.468 -0.434 -0.045 0.151 0.369 0.18 5.65 0.506 1.157 0.83 0.626 0.272 0.096 1.189 0.288 0.107 -0.171 -0.778 -0.944 -0.113 -0.145 -0.376 -0.512 -0.212 -0.686 -0.18 -5.658 -0.565 -1.411 -1.254 -0.13 -0.917 1.264 -1.966 4.426 -0.862 0.962 -0.985 0.536 -1.025 0.018 -0.941 -0.369 -0.797 -0.781 -0.646 -1.214 -0.436 -1.582 0.026 -2.78 0.418 -1.585 0.773 -1.056 1.107 -0.731 1.644 -0.487 1.963 -0.089 2.078 0.345 0.24 0.108 0.961 0.96 0.035 0.05 0.251 1.439" />
    <path class="write-flat-pen" fill="#000000" stroke-width="1.6" __comx="503.49" __comy="511.465" __timestamp="0x1761b187230" d="M502.547 492.421 l-0.886 -0.693 -0.281 0.095 -0.167 0.492 -0.097 0.547 -0.071 0.85 -0.083 4.346 0.902 13.168 0.83 6.987 1.222 5.013 0.484 0.973 0.452 0.575 0.814 0.973 0.349 -0.181 -0.327 -1.225 -0.185 -0.653 -0.276 -0.881 -1.076 -4.849 -0.803 -6.871 -0.919 -13.073 -0.013 -4.268 -0.004 -0.798 -0.006 -0.443 -0.06 0.025 -0.19 0.041 -0.52 0.215" />
    <path class="write-flat-pen" fill="#000000" stroke-width="1.6" __comx="415.027" __comy="1234.402" __timestamp="0x1761c5305e3" d="M0.821 1240.827 l1.266 1.665 2.85 1.545 3.691 0.683 4.084 -0.257 5.818 -1.129 8.277 -0.804 15.626 -0.221 6.353 -0.566 13.077 -2.119 6.532 -0.663 14.636 -0.237 11.15 0.446 14.658 1.301 14.47 0.369 11.663 0.808 36.63 1.283 16.585 0.002 20.483 -1.07 26.21 -0.208 17.052 -1.222 18.41 -2.316 23.78 -2.371 16.206 -1.192 19.203 -0.062 7.538 0.492 22.566 2.445 16.213 1.318 12.83 0.381 18.08 -0.106 13.387 -0.865 25.271 -0.717 16.332 0.077 36.558 1.501 45.77 0.245 16.72 0.907 30.467 3.524 15.822 1.203 16.034 0.197 23.686 -0.734 56.61 -0.646 50.443 -1.873 10.287 -0.739 0 0 5.688 -1.128 0 0 1.175 -0.644 0 0 -0.033 -1.325 -0.91 -0.447 -6.44 -0.259 -47.486 0.361 -47.389 2.318 -36.257 0.757 -133.667 0.319 -39.578 0.828 -24.136 0.072 -12.392 -0.393 -25.464 -1.597 -8.541 -0.746 -24.698 -3.417 -34.799 -6.573 -12.004 -1.751 -8.36 -0.547 -21.553 -0.523 -22.022 0.086 -12.761 0.454 -25.129 1.795 -33.95 4.398 -13.07 1.322 -26.182 1.068 -26.28 0.109 -31.33 -0.701 -44.325 -0.112 -16.453 0.727 -22.148 1.87 -9.528 1.16 -10.447 0.667 -7.873 0.073 -2.731 -0.648 -0.914 -0.513 0.085 0.347 0.603 -0.276 59.457 -0.775 35.092 -0.064 22.214 0.418 41.556 3.133 19.076 0.947 32.314 0.477 19.865 -0.129 71.139 -3.373 29.866 -0.859 86.796 0.12 55.624 -2.184 76.723 -0.86 34.7 0.129 26.2 1.349 19.793 0.566 20.137 -0.059 25.828 -1.104 18.279 -1.523 11.581 -0.557 22.424 -0.2 15.756 0.278 19.61 1.432 23.216 1.056 21.974 0.298 8.315 -0.512 8.203 -1.024 18.929 -4.166 3.42 -0.895 8.295 -2.197 2.236 -0.549 2.149 -0.504 2.6 -0.647 2.289 -0.59 1.107 -0.288 -0.037 -0.217 -1.14 0.101 -2.366 0.216 -2.657 0.426 -2.184 0.384 -2.284 0.464 -8.357 2.029 -3.405 0.855 -18.854 4.054 -8.088 0.999 -8.208 0.505 -21.891 -0.304 -23.171 -1.052 -19.632 -1.427 -15.82 -0.271 -22.474 0.224 -11.637 0.571 -18.273 1.552 -25.766 1.148 -20.084 0.015 -19.753 -0.578 -26.218 -1.362 -34.747 -0.136 -76.756 0.856 -55.614 2.212 -86.788 -0.156 -29.904 0.847 -71.122 3.396 -19.818 0.14 -32.271 -0.495 -19.03 -0.953 -41.58 -3.14 -22.273 -0.418 -35.116 0.059 -59.788 0.777 -2.061 0.938 0.38 1.542 1.684 0.946 3.124 0.741 8.102 -0.071 10.534 -0.666 9.544 -1.166 22.088 -1.866 16.386 -0.728 44.274 0.098 31.335 0.689 26.328 -0.114 26.255 -1.083 13.134 -1.336 33.929 -4.38 25.061 -1.765 12.71 -0.451 21.976 -0.088 21.501 0.514 8.269 0.539 11.915 1.727 34.81 6.542 24.77 3.425 8.596 0.754 25.504 1.599 12.44 0.414 24.176 -0.055 39.578 -0.834 133.666 -0.367 36.291 -0.746 47.38 -2.293 47.419 -0.352 6.09 0.24 0.629 0.304 -0.033 -1.325 0 0 -0.97 0.538 0 0 -5.371 1.067 0 0 -10.169 0.735 -50.398 1.893 -56.604 0.707 -23.669 0.736 -15.96 -0.195 -15.75 -1.198 -30.481 -3.537 -16.797 -0.921 -45.779 -0.258 -36.56 -1.495 -16.381 -0.057 -25.317 0.757 -13.372 0.863 -18.016 0.121 -12.771 -0.381 -16.16 -1.314 -22.575 -2.46 -7.614 -0.504 -19.3 0.045 -16.273 1.186 -23.817 2.364 -18.391 2.312 -16.969 1.24 -26.195 0.264 -20.476 1.11 -16.528 -0.004 -36.586 -1.259 -11.669 -0.792 -14.457 -0.382 -14.65 -1.289 -11.216 -0.458 -14.727 0.247 -6.62 0.688 -13.066 2.144 -6.265 0.564 -15.63 0.271 -8.373 0.87 -5.793 1.176 -3.889 0.282 -3.426 -0.593 -2.597 -1.327 -1.324 -1.388" />
  </g>
</svg>
